<?xml version="1.0" encoding="UTF-8" standalone="no"?>
<!-- Created with Inkscape (http://www.inkscape.org/) -->

<svg
   xmlns:dc="http://purl.org/dc/elements/1.1/"
   xmlns:cc="http://creativecommons.org/ns#"
   xmlns:rdf="http://www.w3.org/1999/02/22-rdf-syntax-ns#"
   xmlns:svg="http://www.w3.org/2000/svg"
   xmlns="http://www.w3.org/2000/svg"
   xmlns:xlink="http://www.w3.org/1999/xlink"
   xmlns:sodipodi="http://sodipodi.sourceforge.net/DTD/sodipodi-0.dtd"
   xmlns:inkscape="http://www.inkscape.org/namespaces/inkscape"
   version="1.1"
   width="48"
   height="48"
   id="svg4248"
   inkscape:version="0.91 r"
   sodipodi:docname="contact-new.svg">
  <sodipodi:namedview
     pagecolor="#ffffff"
     bordercolor="#666666"
     borderopacity="1"
     objecttolerance="10"
     gridtolerance="10"
     guidetolerance="10"
     inkscape:pageopacity="0"
     inkscape:pageshadow="2"
     inkscape:window-width="1309"
     inkscape:window-height="1359"
     id="namedview109"
     showgrid="false"
     inkscape:zoom="5.656854"
     inkscape:cx="-15.362132"
     inkscape:cy="11.697219"
     inkscape:window-x="769"
     inkscape:window-y="30"
     inkscape:window-maximized="0"
     inkscape:current-layer="svg4248"
     inkscape:snap-bbox="true"
     inkscape:bbox-paths="true"
     inkscape:bbox-nodes="true"
     inkscape:snap-bbox-edge-midpoints="false"
     inkscape:snap-global="true">
    <inkscape:grid
       type="xygrid"
       id="grid4005" />
  </sodipodi:namedview>
  <defs
     id="defs4250">
    <linearGradient
       id="linearGradient4011-4">
      <stop
         id="stop4013-8"
         style="stop-color:#ffffff;stop-opacity:1"
         offset="0" />
      <stop
         id="stop4015-5"
         style="stop-color:#ffffff;stop-opacity:0.23529412"
         offset="0.507761" />
      <stop
         id="stop4017-6"
         style="stop-color:#ffffff;stop-opacity:0.15686275"
         offset="0.83456558" />
      <stop
         id="stop4019-1"
         style="stop-color:#ffffff;stop-opacity:0.39215687"
         offset="1" />
    </linearGradient>
    <linearGradient
       x1="71.204407"
       y1="6.2375584"
       x2="71.204407"
       y2="44.340794"
       id="linearGradient3089"
       xlink:href="#linearGradient4011-4"
       gradientUnits="userSpaceOnUse"
       gradientTransform="matrix(1.1323391,0,0,1.1189188,-57.226666,-4.9067322)" />
    <linearGradient
       id="linearGradient3820-7-2-2">
      <stop
         id="stop3822-2-6-36"
         style="stop-color:#3d3d3d;stop-opacity:1"
         offset="0" />
      <stop
         id="stop3864-8-7-6"
         style="stop-color:#686868;stop-opacity:0.49803922"
         offset="0.5" />
      <stop
         id="stop3824-1-2-4"
         style="stop-color:#686868;stop-opacity:0"
         offset="1" />
    </linearGradient>
    <radialGradient
       cx="99.157013"
       cy="186.17059"
       r="62.769119"
       fx="99.157013"
       fy="186.17059"
       id="radialGradient3315"
       xlink:href="#linearGradient3820-7-2-2"
       gradientUnits="userSpaceOnUse"
       gradientTransform="matrix(0.27193253,0,0,0.08549854,-2.9640156,26.714434)" />
    <linearGradient
       inkscape:collect="always"
       xlink:href="#linearGradient4215-4"
       id="linearGradient3163-1"
       gradientUnits="userSpaceOnUse"
       gradientTransform="matrix(0.89104604,0,0,0.88048552,-4.5134734,-6.4705463)"
       x1="38.976662"
       y1="59.967686"
       x2="38.976662"
       y2="8.0928917" />
    <linearGradient
       id="linearGradient4215-4">
      <stop
         offset="0"
         style="stop-color:#dcdcdc;stop-opacity:1"
         id="stop4217-9" />
      <stop
         offset="1"
         style="stop-color:#f0f0f0;stop-opacity:1"
         id="stop4219-7" />
    </linearGradient>
    <linearGradient
       id="outerBackgroundGradient">
      <stop
         id="stop3864-8-6"
         offset="0"
         style="stop-color:#a5a5a5;stop-opacity:1;" />
      <stop
         id="stop3866-9-1"
         offset="1"
         style="stop-color:#d1d1d1;stop-opacity:1;" />
    </linearGradient>
    <linearGradient
       gradientTransform="matrix(0.06666667,0,0,0.06666667,414.4,137.33333)"
       y2="40.00005"
       x2="264"
       y1="280.00003"
       x1="264"
       gradientUnits="userSpaceOnUse"
       id="linearGradient4097"
       xlink:href="#outerBackgroundGradient"
       inkscape:collect="always" />
    <linearGradient
       y2="28.571428"
       x2="286.85715"
       y1="302.85715"
       x1="286.85715"
       gradientTransform="matrix(0.0875,0,0,0.0875,414.9,97.5)"
       gradientUnits="userSpaceOnUse"
       id="linearGradient4101"
       xlink:href="#outerBackgroundGradient"
       inkscape:collect="always" />
    <linearGradient
       y2="31.61907"
       x2="283.80957"
       y1="299.80954"
       x1="283.80957"
       gradientTransform="matrix(0.11931818,0,0,0.11931818,414.13636,48.22727)"
       gradientUnits="userSpaceOnUse"
       id="linearGradient4153"
       xlink:href="#outerBackgroundGradient"
       inkscape:collect="always" />
    <linearGradient
       y2="22.857315"
       x2="281.14291"
       y1="297.14304"
       x1="281.14291"
       gradientTransform="matrix(0.175,0,0,-0.175,286.79999,-215.99997)"
       gradientUnits="userSpaceOnUse"
       id="linearGradient4869"
       xlink:href="#outerBackgroundGradient"
       inkscape:collect="always" />
    <clipPath
       id="clipPath4891"
       clipPathUnits="userSpaceOnUse">
      <rect
         transform="matrix(0,1,-1,0,0,0)"
         style="color:#bebebe;display:inline;overflow:visible;visibility:visible;fill:url(#linearGradient4895);fill-opacity:1;fill-rule:nonzero;stroke:none;stroke-width:0;marker:none;enable-background:accumulate"
         id="rect4893"
         width="42"
         height="42"
         x="307"
         y="223"
         ry="9" />
    </clipPath>
    <linearGradient
       y2="40.000172"
       x2="144.00006"
       y1="280.00018"
       x1="144.00006"
       gradientTransform="matrix(0.175,0,0,0.175,302.79999,215.99997)"
       gradientUnits="userSpaceOnUse"
       id="linearGradient4895"
       xlink:href="#outerBackgroundGradient"
       inkscape:collect="always" />
    <clipPath
       id="clipPath4044"
       clipPathUnits="userSpaceOnUse">
      <rect
         style="color:#bebebe;display:inline;overflow:visible;visibility:visible;fill:url(#linearGradient4048);fill-opacity:1;fill-rule:nonzero;stroke:none;stroke-width:0;marker:none;enable-background:accumulate"
         id="rect4046"
         width="22"
         height="22"
         x="433"
         y="85"
         ry="4" />
    </clipPath>
    <linearGradient
       y2="40.000046"
       x2="149.71428"
       y1="291.42862"
       x1="149.71428"
       gradientTransform="matrix(0.0875,0,0,0.0875,430.9,81.499996)"
       gradientUnits="userSpaceOnUse"
       id="linearGradient4048"
       xlink:href="#outerBackgroundGradient"
       inkscape:collect="always" />
    <clipPath
       id="clipPath4089"
       clipPathUnits="userSpaceOnUse">
      <rect
         ry="6"
         y="37"
         x="433"
         height="30"
         width="30"
         id="rect4091"
         style="color:#bebebe;display:inline;overflow:visible;visibility:visible;fill:url(#linearGradient4093);fill-opacity:1;fill-rule:nonzero;stroke:none;stroke-width:0;marker:none;enable-background:accumulate" />
    </clipPath>
    <linearGradient
       y2="40.00005"
       x2="149.71432"
       y1="291.42862"
       x1="149.71432"
       gradientTransform="matrix(0.11931818,0,0,0.11931818,430.13636,32.227267)"
       gradientUnits="userSpaceOnUse"
       id="linearGradient4093"
       xlink:href="#outerBackgroundGradient"
       inkscape:collect="always" />
    <clipPath
       id="clipPath3855"
       clipPathUnits="userSpaceOnUse">
      <rect
         transform="matrix(0,1,-1,0,0,0)"
         ry="3"
         y="212"
         x="304"
         height="16"
         width="16"
         id="rect3857"
         style="color:#bebebe;display:inline;overflow:visible;visibility:visible;fill:url(#linearGradient3859);fill-opacity:1;fill-rule:nonzero;stroke:none;stroke-width:0;marker:none;enable-background:accumulate" />
    </clipPath>
    <linearGradient
       y2="40.00005"
       x2="144"
       y1="280.00003"
       x1="144"
       gradientTransform="matrix(0.06666667,0,0,0.06666667,302.4,209.33333)"
       gradientUnits="userSpaceOnUse"
       id="linearGradient3859"
       xlink:href="#outerBackgroundGradient"
       inkscape:collect="always" />
    <clipPath
       id="clipPath3862"
       clipPathUnits="userSpaceOnUse">
      <rect
         style="color:#bebebe;display:inline;overflow:visible;visibility:visible;fill:url(#linearGradient3866);fill-opacity:1;fill-rule:nonzero;stroke:none;stroke-width:0;marker:none;enable-background:accumulate"
         id="rect3864"
         width="220"
         height="220"
         x="34"
         y="46"
         ry="50" />
    </clipPath>
    <linearGradient
       y2="40"
       x2="144"
       y1="280"
       x1="144"
       gradientTransform="translate(0,-4)"
       gradientUnits="userSpaceOnUse"
       id="linearGradient3866"
       xlink:href="#outerBackgroundGradient"
       inkscape:collect="always" />
    <linearGradient
       y2="32"
       x2="272"
       y1="288"
       x1="272"
       gradientTransform="translate(0,-4)"
       gradientUnits="userSpaceOnUse"
       id="linearGradient3876"
       xlink:href="#outerBackgroundGradient"
       inkscape:collect="always" />
    <clipPath
       id="clipPath4187"
       clipPathUnits="userSpaceOnUse">
      <rect
         style="color:#bebebe;display:inline;overflow:visible;visibility:visible;fill:url(#linearGradient4191);fill-opacity:1;fill-rule:nonzero;stroke:none;stroke-width:0;marker:none;enable-background:accumulate"
         id="rect4189"
         width="60"
         height="60"
         x="290"
         y="142"
         ry="12.5" />
    </clipPath>
    <linearGradient
       y2="140"
       x2="352"
       y1="204"
       x1="352"
       gradientUnits="userSpaceOnUse"
       id="linearGradient4191"
       xlink:href="#outerBackgroundGradient"
       inkscape:collect="always" />
    <linearGradient
       y2="28"
       x2="384"
       y1="124"
       x1="384"
       gradientUnits="userSpaceOnUse"
       id="linearGradient4197"
       xlink:href="#outerBackgroundGradient"
       inkscape:collect="always" />
    <clipPath
       id="clipPath4346"
       clipPathUnits="userSpaceOnUse">
      <rect
         ry="18"
         y="32"
         x="292"
         height="88"
         width="88"
         id="rect4348"
         style="color:#bebebe;display:inline;overflow:visible;visibility:visible;fill:url(#linearGradient4197);fill-opacity:1;fill-rule:nonzero;stroke:none;stroke-width:0;marker:none;enable-background:accumulate" />
    </clipPath>
    <clipPath
       id="clipPath3871"
       clipPathUnits="userSpaceOnUse">
      <rect
         style="color:#bebebe;display:inline;overflow:visible;visibility:visible;fill:url(#linearGradient4101);fill-opacity:1;fill-rule:nonzero;stroke:none;stroke-width:0;marker:none;enable-background:accumulate"
         id="rect3873"
         width="22"
         height="22"
         x="417"
         y="101"
         ry="5" />
    </clipPath>
    <clipPath
       id="clipPath3881"
       clipPathUnits="userSpaceOnUse">
      <rect
         ry="7"
         y="53"
         x="417"
         height="30"
         width="30"
         id="rect3883"
         style="color:#bebebe;display:inline;overflow:visible;visibility:visible;fill:url(#linearGradient4153);fill-opacity:1;fill-rule:nonzero;stroke:none;stroke-width:0;marker:none;enable-background:accumulate" />
    </clipPath>
    <linearGradient
       gradientTransform="matrix(0,-1,1,0,316,540)"
       gradientUnits="userSpaceOnUse"
       y2="112"
       x2="438"
       y1="112"
       x1="418"
       id="linearGradient4258"
       xlink:href="#outerBackgroundGradient"
       inkscape:collect="always" />
    <linearGradient
       y2="40.000008"
       x2="144"
       y1="280"
       x1="144"
       gradientTransform="matrix(0.375,0,0,0.375,14,172)"
       gradientUnits="userSpaceOnUse"
       id="linearGradient4865"
       xlink:href="#outerBackgroundGradient-1"
       inkscape:collect="always" />
    <linearGradient
       id="outerBackgroundGradient-1">
      <stop
         id="stop3864-8-6-2"
         offset="0"
         style="stop-color:#989898;stop-opacity:1;" />
      <stop
         id="stop3866-9-1-5"
         offset="1"
         style="stop-color:#c3c3c3;stop-opacity:1;" />
    </linearGradient>
    <clipPath
       id="clipPath4610"
       clipPathUnits="userSpaceOnUse">
      <path
         inkscape:connector-curvature="0"
         style="color:#bebebe;display:inline;overflow:visible;visibility:visible;fill:url(#linearGradient4614);fill-opacity:1;fill-rule:nonzero;stroke:none;stroke-width:2;marker:none;enable-background:accumulate"
         d="m 75.448164,-5.3337819 c 12.658277,0 22.841991,10.1837123 22.841991,22.8419899 l 0,55.374522 c 0,12.658279 -10.183714,22.841991 -22.841991,22.841991 l -55.374521,0 c -12.6582793,0 -22.8419907,-10.183712 -22.8419907,-22.841991 l 0,-55.374522 c 0,-12.6582776 10.1837114,-22.8419899 22.8419907,-22.8419899 l 55.374521,0 z"
         id="path4612" />
    </clipPath>
    <linearGradient
       y2="156"
       x2="253"
       y1="156"
       x1="35"
       gradientTransform="matrix(0,-0.46145435,-0.46145435,0,119.74778,111.6449)"
       gradientUnits="userSpaceOnUse"
       id="linearGradient4614"
       xlink:href="#outerBackgroundGradient"
       inkscape:collect="always" />
    <linearGradient
       y2="8.0928917"
       x2="38.976662"
       y1="59.967686"
       x1="38.976662"
       gradientTransform="matrix(0.80392158,0,0,0.80392158,-1.72549,-2.3658945)"
       gradientUnits="userSpaceOnUse"
       id="linearGradient3024"
       xlink:href="#linearGradient4215-4"
       inkscape:collect="always" />
    <linearGradient
       inkscape:collect="always"
       xlink:href="#linearGradient4215-4"
       id="linearGradient3849"
       gradientUnits="userSpaceOnUse"
       gradientTransform="matrix(0.80392158,0,0,0.80392158,664.41073,262.76717)"
       x1="38.976662"
       y1="59.967686"
       x2="38.976662"
       y2="8.0928917" />
    <clipPath
       id="clipPath4806"
       clipPathUnits="userSpaceOnUse">
      <path
         inkscape:connector-curvature="0"
         style="color:#bebebe;display:inline;overflow:visible;visibility:visible;fill:#bf5454;fill-opacity:1;fill-rule:nonzero;stroke:none;stroke-width:2;marker:none;enable-background:accumulate"
         d="m 543.90196,-171.40732 c -27.43127,0 -49.5,22.06873 -49.5,49.5 l 0,120 c 0,27.43127 22.06873,49.5 49.5,49.5 l 120,0 c 27.43127,0 49.5,-22.06873 49.5,-49.5 l 0,-120 c 0,-27.43127 -22.06873,-49.5 -49.5,-49.5 l -120,0 z"
         id="path4808" />
    </clipPath>
    <clipPath
       id="clipPath4812"
       clipPathUnits="userSpaceOnUse">
      <path
         inkscape:connector-curvature="0"
         style="color:#bebebe;display:inline;overflow:visible;visibility:visible;fill:#bf5454;fill-opacity:1;fill-rule:nonzero;stroke:none;stroke-width:2;marker:none;enable-background:accumulate"
         d="m 547.65198,-156.00108 c -22.10302,0 -39.84375,17.74073 -39.84375,39.84375 l 0,112.5000018 c 0,22.1030162 17.74073,39.8437502 39.84375,39.8437502 l 112.5,0 c 22.10302,0 39.84375,-17.740734 39.84375,-39.8437502 l 0,-112.5000018 c 0,-22.10302 -17.74073,-39.84375 -39.84375,-39.84375 l -112.5,0 z"
         id="path4814" />
    </clipPath>
    <clipPath
       id="clipPath4840"
       clipPathUnits="userSpaceOnUse">
      <path
         inkscape:connector-curvature="0"
         style="color:#bebebe;display:inline;overflow:visible;visibility:visible;fill:#bf5454;fill-opacity:1;fill-rule:nonzero;stroke:none;stroke-width:2;marker:none;enable-background:accumulate"
         d="m 538.90196,-168.65732 c -24.25637,0 -43.75,19.49363 -43.75,43.75 l 0,130.0000025 c 0,24.2563755 19.49363,43.7500005 43.75,43.7500005 l 130,0 c 24.25637,0 43.75,-19.493625 43.75,-43.7500005 l 0,-130.0000025 c 0,-24.25637 -19.49363,-43.75 -43.75,-43.75 l -130,0 z"
         id="path4842" />
    </clipPath>
    <clipPath
       id="clipPath4888"
       clipPathUnits="userSpaceOnUse">
      <path
         inkscape:connector-curvature="0"
         style="color:#bebebe;display:inline;overflow:visible;visibility:visible;fill:#bf5454;fill-opacity:1;fill-rule:nonzero;stroke:none;stroke-width:2;marker:none;enable-background:accumulate"
         d="m 541.402,-166.15737 c -17.305,0 -31.25,13.945 -31.25,31.25 l 0,124.999995 c 0,17.305 13.945,31.25 31.25,31.25 l 125,0 c 17.305,0 31.25,-13.945 31.25,-31.25 l 0,-124.999995 c 0,-17.305 -13.945,-31.25 -31.25,-31.25 l -125,0 z"
         id="path4890" />
    </clipPath>
    <clipPath
       id="clipPath4894"
       clipPathUnits="userSpaceOnUse">
      <path
         inkscape:connector-curvature="0"
         style="color:#bebebe;display:inline;overflow:visible;visibility:visible;fill:#bf5454;fill-opacity:1;fill-rule:nonzero;stroke:none;stroke-width:2;marker:none;enable-background:accumulate"
         d="m 543.902,-164.9073 c -24.9699,0 -45,20.0301 -45,45 l 0,120 c 0,24.9699 20.0301,45 45,45 l 120,0 c 24.9699,0 45,-20.0301 45,-45 l 0,-120 c 0,-24.9699 -20.0301,-45 -45,-45 l -120,0 z"
         id="path4896" />
    </clipPath>
    <clipPath
       id="clipPath4900"
       clipPathUnits="userSpaceOnUse">
      <path
         inkscape:connector-curvature="0"
         style="color:#bebebe;display:inline;overflow:visible;visibility:visible;fill:#bf5454;fill-opacity:1;fill-rule:nonzero;stroke:none;stroke-width:2;marker:none;enable-background:accumulate"
         d="m 543.90196,-164.90732 c -27.04905,0 -48.75,21.70098 -48.75,48.75 l 0,120.0000051 c 0,27.0490209 21.70095,48.7500009 48.75,48.7500009 l 120.00001,0 c 27.04905,0 48.75,-21.70098 48.75,-48.7500009 l 0,-120.0000051 c 0,-27.04902 -21.70095,-48.75 -48.75,-48.75 l -120.00001,0 z"
         id="path4902" />
    </clipPath>
    <clipPath
       id="clipPath4906"
       clipPathUnits="userSpaceOnUse">
      <path
         inkscape:connector-curvature="0"
         style="color:#bebebe;display:inline;overflow:visible;visibility:visible;fill:#bf5454;fill-opacity:1;fill-rule:nonzero;stroke:none;stroke-width:2;marker:none;enable-background:accumulate"
         d="m 537.05819,-167.62264 c -24.95632,0 -45,20.04368 -45,45 l 0,131.2500024 c 0,24.9563246 20.04368,44.9999996 45,44.9999996 l 131.25,0 c 24.95633,0 45,-20.043675 45,-44.9999996 l 0,-131.2500024 c 0,-24.95632 -20.04367,-45 -45,-45 l -131.25,0 z"
         id="path4908" />
    </clipPath>
    <linearGradient
       x1="45"
       y1="24"
       x2="45"
       y2="76"
       id="linearGradient3146"
       xlink:href="#linearGradient4281-6"
       gradientUnits="userSpaceOnUse"
       gradientTransform="matrix(2.0844849,0,0,2.0844849,-7.8160044,11.194023)" />
    <linearGradient
       id="linearGradient4281-6">
      <stop
         id="stop4283-9-3"
         style="stop-color:#1e1e1e;stop-opacity:1"
         offset="0" />
      <stop
         id="stop4285-8-0"
         style="stop-color:#505050;stop-opacity:1"
         offset="1" />
    </linearGradient>
    <clipPath
       id="clipPath4110">
      <path
         d="m 50,19 c -9.726128,-0.132021 -19.109741,6.056796 -22.90625,15 -3.979384,8.850182 -2.152838,19.920532 4.53125,26.96875 1.281262,1.387198 2.722378,2.621691 4.28125,3.6875 0.08882,-1.817147 -0.197676,-3.686742 0.15625,-5.46875 0.656484,-1.161773 2.158536,-1.184701 0.375,-2.25 -5.762671,-5.843571 -6.891108,-15.618269 -2.53125,-22.59375 4.061674,-7.006285 12.966668,-10.646131 20.78125,-8.5 8.227191,1.977457 14.397158,10.100226 14.0625,18.5625 -0.09505,5.13445 -2.431331,10.16269 -6.28125,13.5625 1.525079,0.286683 1.764814,1.969453 1.625,3.25 l 0,3.4375 C 71.755786,59.535945 76.096622,49.948036 74.8125,40.8125 73.683314,30.989775 66.097834,22.350732 56.53125,19.875 54.400202,19.297672 52.207631,18.999338 50,19 Z m -0.1875,9.375 c -1.956327,-0.05862 -3.24076,1.944156 -2.9375,3.75 0.03923,4.21599 -0.0766,8.446623 0.0625,12.65625 0.315681,1.83468 2.277034,2.569412 3.9375,2.34375 3.566877,-0.04013 7.12719,0.08236 10.6875,-0.0625 2.635743,-0.393414 3.406401,-4.287567 1.125,-5.65625 -1.595432,-0.917738 -3.525888,-0.391599 -5.28125,-0.53125 l -4.28125,0 C 53.08702,37.492266 53.1999,34.095149 53.0625,30.71875 52.783093,29.231948 51.295937,28.216436 49.8125,28.375 Z M 46,52 l 0,8 -8,0 0,8 8,0 0,8 8,0 0,-8 8,0 0,-8 -8,0 0,-8 -8,0 z"
         inkscape:connector-curvature="0"
         id="path4112"
         style="color:#000000;display:inline;overflow:visible;visibility:visible;opacity:0.8;fill:#ff00ff;fill-opacity:1;fill-rule:nonzero;stroke:none;stroke-width:2;marker:none;enable-background:accumulate" />
    </clipPath>
    <filter
       style="color-interpolation-filters:sRGB"
       id="filter4104">
      <feGaussianBlur
         id="feGaussianBlur4106"
         stdDeviation="0.80272282" />
    </filter>
    <linearGradient
       x1="48"
       y1="24"
       x2="48"
       y2="72"
       id="linearGradient3954"
       xlink:href="#linearGradient4281-6"
       gradientUnits="userSpaceOnUse"
       gradientTransform="matrix(2.0416667,0,0,2.0416667,-138.57052,45.68254)" />
    <clipPath
       id="clipPath3969">
      <path
         d="m 36,24 c -2.216,0 -4,1.784 -4,4 l 0,44 16,-16 16,16 0,-44 c 0,-2.216 -1.784,-4 -4,-4 z m 12,5.75 3.666666,7.333334 L 59.75,38.25 53.916666,44 55.333334,52.083334 48,48.25 40.75,52.083334 42.166666,44 36.25,38.25 44.333334,37.083334 Z"
         inkscape:connector-curvature="0"
         id="path3971"
         style="color:#000000;display:inline;overflow:visible;visibility:visible;fill:#ff00ff;fill-opacity:1;fill-rule:nonzero;stroke:none;stroke-width:0.80000001;marker:none;enable-background:accumulate" />
    </clipPath>
    <filter
       style="color-interpolation-filters:sRGB"
       id="filter3973">
      <feGaussianBlur
         id="feGaussianBlur3975"
         stdDeviation="0.6" />
    </filter>
    <linearGradient
       x1="23.134918"
       y1="9.7419071"
       x2="23.134918"
       y2="20.237455"
       id="linearGradient3939"
       xlink:href="#linearGradient4281-6"
       gradientUnits="userSpaceOnUse"
       gradientTransform="matrix(5.7132378,0,0,6.7171338,-73.676404,-34.879347)" />
    <clipPath
       id="clipPath3954">
      <path
         d="m 40,22 0,4 16,0 0,-4 z m 0,8 0,6 16,0 0,-6 z M 40,40 40,50 30,50 47.855412,70 66,50 56,50 56,40 Z"
         inkscape:connector-curvature="0"
         id="path3956-7"
         style="display:inline;fill:#ff00ff;fill-opacity:1;stroke:none" />
    </clipPath>
    <filter
       style="color-interpolation-filters:sRGB"
       id="filter3958">
      <feGaussianBlur
         id="feGaussianBlur3960"
         stdDeviation="0.63" />
    </filter>
    <linearGradient
       x1="56"
       y1="16"
       x2="56"
       y2="81.783081"
       id="linearGradient4235"
       xlink:href="#StandardGradient-3"
       gradientUnits="userSpaceOnUse"
       gradientTransform="matrix(1.9140175,0,0,1.9453057,10.319991,1.9233895)" />
    <linearGradient
       x1="11.998966"
       y1="0.92195445"
       x2="11.998966"
       y2="19.387045"
       id="StandardGradient-3"
       gradientUnits="userSpaceOnUse"
       gradientTransform="scale(0.9219544,1.0846523)">
      <stop
         id="stop3283-5"
         style="stop-color:#000000;stop-opacity:0.86274511"
         offset="0" />
      <stop
         id="stop2651-2"
         style="stop-color:#000000;stop-opacity:0.47058824"
         offset="1" />
    </linearGradient>
    <clipPath
       id="clipPath4254">
      <path
         d="m 48,17.90625 c -5.883528,0 -10.65625,4.484246 -10.65625,10.03125 0.0143,0.635695 0.02831,1.36555 0.09375,2.15625 -0.931115,0.501404 -1.049292,2.460754 -0.21875,4.4375 0.320261,0.762243 0.746107,1.373394 1.1875,1.875 0.01471,0.01677 0.04769,0.04617 0.0625,0.0625 0.105361,0.522278 0.185082,0.910875 0.3125,1.5 0.394733,1.196218 2.032378,3.471965 3.46875,5.40625 0.143241,1.492165 0.131947,2.958943 -0.15625,4.65625 -4.134364,3.464908 -14.703348,5.006701 -14.6875,8.59375 L 27.21875,58 34,58 l 8,0 0,-8 12,0 0,8 8,0 6.78125,0 -0.1875,-1.375 C 68.57689,53.554967 57.958673,51.618306 53.875,48.03125 c -0.165342,-1.37404 -0.209169,-2.709146 -0.125,-4.0625 1.30593,-2.034916 3.031754,-4.675713 3.46875,-6 0.160605,-0.685813 0.250265,-1.129855 0.375,-1.71875 0.38564,-0.476139 0.746575,-1.0412 1.03125,-1.71875 0.788723,-1.877207 0.678863,-3.703002 -0.125,-4.3125 0.05616,-0.815667 0.132767,-1.584128 0.15625,-2.28125 C 58.656258,22.390498 53.883527,17.90625 48,17.90625 Z M 44,52 l 0,8 -8,0 0,8 8,0 0,8 8,0 0,-8 8,0 0,-8 -8,0 0,-8 -8,0 z"
         inkscape:connector-curvature="0"
         id="path4256"
         style="display:inline;fill:url(#linearGradient4258);fill-opacity:1;stroke:none;enable-background:new" />
    </clipPath>
    <filter
       style="color-interpolation-filters:sRGB"
       id="filter4248">
      <feGaussianBlur
         id="feGaussianBlur4250"
         stdDeviation="0.74742188" />
    </filter>
  </defs>
  <metadata
     id="metadata4253">
    <rdf:RDF>
      <cc:Work
         rdf:about="">
        <dc:format>image/svg+xml</dc:format>
        <dc:type
           rdf:resource="http://purl.org/dc/dcmitype/StillImage" />
        <dc:title></dc:title>
      </cc:Work>
    </rdf:RDF>
  </metadata>
  <path
     d="m 41.068969,42.63195 a 17.068967,5.3666668 0 1 1 -34.1379318,0 17.068967,5.3666668 0 1 1 34.1379318,0 z"
     id="path3818-0-2"
     style="fill:url(#radialGradient3315);fill-opacity:1;stroke:none"
     inkscape:connector-curvature="0" />
  <path
     d="m 24.000003,1.2328343 c -12.414722,0 -22.5000029,9.9657427 -22.5000029,22.2333307 0,12.267591 10.0852809,22.233341 22.5000029,22.233338 12.414721,0 22.50001,-9.965747 22.499999,-22.233338 0,-12.267588 -10.085278,-22.2333307 -22.499999,-22.2333307 z"
     id="path2555"
     style="color:#000000;display:inline;overflow:visible;visibility:visible;fill:url(#linearGradient3163-1);fill-opacity:1;fill-rule:nonzero;stroke:none;stroke-width:0.71428573;stroke-linecap:round;stroke-linejoin:round;stroke-miterlimit:4;stroke-dasharray:none;stroke-dashoffset:0;stroke-opacity:1;marker:none;enable-background:accumulate"
     inkscape:connector-curvature="0" />
  <path
     d="M 24.000002,1.2328334 C 11.585279,1.2328334 1.5,11.198577 1.5,23.466165 c 0,12.267588 10.085279,22.23334 22.500002,22.233337 12.414718,0 22.50001,-9.965749 22.499998,-22.233337 C 46.5,11.198577 36.41472,1.2328334 24.000002,1.2328334 Z"
     id="path2555-6"
     style="color:#000000;display:inline;overflow:visible;visibility:visible;opacity:0.5;fill:#000000;fill-opacity:0;fill-rule:nonzero;stroke:#000000;stroke-width:1;stroke-linecap:round;stroke-linejoin:round;stroke-miterlimit:4;stroke-dasharray:none;stroke-dashoffset:0;stroke-opacity:1;marker:none;enable-background:accumulate"
     inkscape:connector-curvature="0" />
  <path
     d="m 24,1.9986165 c -3.371239,0 -6.574018,0.7622092 -9.422842,2.1198331 L 22.72371,21.184447 8.4943982,8.4117807 C 4.6415061,12.286667 2.2758637,17.611449 2.2758637,23.46528 c 0,1.547808 0.1729413,3.052612 0.4887932,4.508001 L 24.217242,22.49928 23.864225,22.204114 37.713363,6.8286143 C 33.972457,3.8148216 29.196384,1.9986165 24,1.9986165 Z m 20.93664,15.7243315 -21.343967,5.044667 0.08147,0.05367 -18.5469836,11.269999 c 3.7433221,6.47437 10.7955006,10.84067 18.8728426,10.840667 0.612189,0 1.219944,-0.03128 1.819398,-0.0805 -0.780858,-8.840116 -1.928413,-21.60009 -1.955171,-21.896002 l 17.243533,13.711835 c 2.88607,-3.644261 4.616382,-8.222055 4.616379,-13.202003 0,-1.986946 -0.274812,-3.915403 -0.7875,-5.742334 z"
     inkscape:connector-curvature="0"
     id="path4004"
     style="fill:#000000;fill-opacity:0.04255317;stroke:none" />
  <path
     d="m 24,1.9986165 c -2.613061,0 -5.118802,0.4769472 -7.440515,1.3148332 L 22.72371,21.184447 6.8922434,10.236448 C 3.998352,13.883336 2.2758637,18.477866 2.2758637,23.46528 c 0,1.027288 0.075631,2.043143 0.2172415,3.032168 L 24.217242,22.49928 23.864225,22.204114 35.948277,5.5674497 C 32.517139,3.3252912 28.416234,1.9986165 24,1.9986165 Z m 21.316812,17.3611625 -21.724139,3.407836 0.08147,0.05367 -17.0806081,13.470332 c 3.9637861,5.23544 10.2894041,8.640334 17.4064641,8.640331 0.173485,0 0.34343,0.004 0.51595,0 C 24.257164,36.0179 23.890871,23.250116 23.864225,22.95545 l 18.031034,12.638499 c 2.404241,-3.454396 3.828882,-7.624708 3.828879,-12.128667 0,-1.405364 -0.145675,-2.775071 -0.407327,-4.105499 z"
     inkscape:connector-curvature="0"
     id="path4004-0"
     style="fill:#000000;fill-opacity:0.04787233;stroke:none" />
  <path
     d="m 24,1.9986165 c -1.971761,0 -3.885873,0.2635382 -5.702585,0.7513328 L 23.78276,22.445614 34.02026,4.4404496 C 31.019669,2.8929064 27.615223,1.9986165 24,1.9986165 Z M 5.5073293,12.195281 c -2.0484031,3.274828 -3.2314656,7.142087 -3.2314656,11.269999 0,0.496518 0.020638,0.987673 0.05431,1.475835 L 23.891383,22.57978 5.5073293,12.19528 Z m 40.0810337,8.828166 -21.669827,1.288 18.709913,12.209167 c 1.966217,-3.227892 3.095694,-7.017922 3.095691,-11.055334 0,-0.823424 -0.04416,-1.642376 -0.135776,-2.441833 z m -21.561207,1.449 L 8.6573295,38.67978 c 3.7863285,3.728297 8.9716115,6.057291 14.6909485,6.225335 l 0.678878,-22.432668 z"
     inkscape:connector-curvature="0"
     id="path3893-7"
     style="fill:#000000;fill-opacity:0.05851063;stroke:none" />
  <path
     d="m 24,1.9986165 c -1.190548,0 -2.364178,0.08574 -3.503015,0.2683332 L 23.78276,22.445614 31.875001,3.4744498 C 29.431293,2.5324442 26.778737,1.9986165 24,1.9986165 Z M 4.502588,13.993115 c -1.3750976,2.75743 -2.1735466,5.8572 -2.2267243,9.123332 L 23.89138,22.57978 4.502588,13.993115 Z m 19.415948,8.318334 19.443104,10.894333 c 1.509984,-2.92302 2.362501,-6.23715 2.3625,-9.740502 0,-0.297961 -0.0149,-0.590468 -0.02716,-0.8855 L 23.918534,22.311449 Z m 0.10862,0.160999 -12.572844,18.488166 c 3.056032,2.14609 6.67714,3.548078 10.617672,3.890835 l 1.955172,-22.379002 z"
     inkscape:connector-curvature="0"
     id="path3893-7-5"
     style="fill:#000000;fill-opacity:0.06382979;stroke:none" />
  <path
     d="m 24,1.9986165 c -0.547907,0 -1.091513,0.014171 -1.629309,0.053671 L 23.78276,22.445618 29.268104,2.64262 C 27.581315,2.2266003 25.816093,1.9986196 24,1.9986196 Z M 3.6607776,15.951949 c -0.6409815,1.691834 -1.086871,3.477374 -1.2762932,5.339833 L 23.89138,22.57978 3.6607776,15.951946 Z m 20.2577584,6.3595 20.121982,9.445332 c 0.961903,-2.262766 1.536945,-4.721785 1.656465,-7.298666 L 23.918536,22.311449 Z m 0.10862,0.160999 -9.477155,20.312832 c 1.875701,0.89779 3.900612,1.545262 6.028449,1.878335 l 3.448706,-22.191168 z"
     inkscape:connector-curvature="0"
     id="path3893"
     style="fill:#000000;fill-opacity:0.10106381;stroke:none" />
  <path
     d="M 24.135777,1.9986165 23.78276,22.445614 27.068535,2.2132836 C 26.111601,2.0794966 25.128303,2.0046856 24.135777,1.9986165 Z M 3.1448293,17.454614 C 2.8998059,18.28524 2.6900655,19.135044 2.5474155,20.003781 L 23.89138,22.57978 Z m 20.7737067,4.856835 20.69224,7.888999 c 0.394112,-1.177165 0.712906,-2.392232 0.896123,-3.649334 z m 0.10862,0.160999 -8.037931,20.930001 c 0.486855,0.192155 0.9902,0.378803 1.493536,0.536666 0.445291,0.138384 0.900669,0.265399 1.357757,0.375667 0.117916,0.02866 0.234365,0.05379 0.353017,0.0805 z"
     inkscape:connector-curvature="0"
     id="path3893-9"
     style="fill:#000000;fill-opacity:0.0851064;stroke:none" />
  <path
     d="m 44.948276,23.465433 c 0,11.432664 -9.379553,20.700734 -20.948011,20.700734 -11.569517,0 -20.9485409,-9.268176 -20.9485409,-20.700734 0,-11.432136 9.3790239,-20.6992641 20.9485409,-20.6992641 11.568458,0 20.948011,9.2671281 20.948011,20.6992641 l 0,0 z"
     id="path8655"
     style="color:#000000;display:inline;overflow:visible;visibility:visible;opacity:0.8;fill:none;stroke:url(#linearGradient3089);stroke-width:1;stroke-linecap:round;stroke-linejoin:round;stroke-miterlimit:4;stroke-dasharray:none;stroke-dashoffset:0;stroke-opacity:1;marker:none;enable-background:accumulate"
     inkscape:connector-curvature="0" />
  <g
     inkscape:groupmode="layer"
     id="layer1"
     inkscape:label="Layer 1"
     transform="translate(0,16)" />
  <g
     id="layer6"
     transform="matrix(0.4404231,0,0,0.44160515,2.9919156,3.2600825)"
     style="opacity:0.8">
    <path
       d="m 48,17.90625 c -5.883528,0 -10.65625,4.484246 -10.65625,10.03125 0.0143,0.635695 0.02831,1.36555 0.09375,2.15625 -0.931115,0.501404 -1.049292,2.460754 -0.21875,4.4375 0.320261,0.762243 0.746107,1.373394 1.1875,1.875 0.01471,0.01677 0.04769,0.04617 0.0625,0.0625 0.105361,0.522278 0.185082,0.910875 0.3125,1.5 0.394733,1.196218 2.032378,3.471965 3.46875,5.40625 0.143241,1.492165 0.131947,2.958943 -0.15625,4.65625 -4.134364,3.464908 -14.703348,5.006701 -14.6875,8.59375 L 27.21875,58 34,58 l 8,0 0,-8 12,0 0,8 8,0 6.78125,0 -0.1875,-1.375 C 68.57689,53.554967 57.958673,51.618306 53.875,48.03125 c -0.165342,-1.37404 -0.209169,-2.709146 -0.125,-4.0625 1.30593,-2.034916 3.031754,-4.675713 3.46875,-6 0.160605,-0.685813 0.250265,-1.129855 0.375,-1.71875 0.38564,-0.476139 0.746575,-1.0412 1.03125,-1.71875 0.788723,-1.877207 0.678863,-3.703002 -0.125,-4.3125 0.05616,-0.815667 0.132767,-1.584128 0.15625,-2.28125 C 58.656258,22.390498 53.883527,17.90625 48,17.90625 Z M 44,52 l 0,8 -8,0 0,8 8,0 0,8 8,0 0,-8 8,0 0,-8 -8,0 0,-8 -8,0 z"
       inkscape:connector-curvature="0"
       id="path3798"
       style="display:inline;fill:url(#linearGradient4235);fill-opacity:1;stroke:none;enable-background:new" />
    <path
       d="m 58.625,28.40625 c -0.03354,0.576377 -0.08038,1.164415 -0.125,1.8125 0.02233,0.01693 0.04125,0.04372 0.0625,0.0625 0.03567,-0.455249 0.07992,-0.933081 0.09375,-1.34375 0,-0.178577 -0.02148,-0.35499 -0.03125,-0.53125 z m -21.25,0.125 c -0.0057,0.135366 -0.03125,0.269541 -0.03125,0.40625 0.0079,0.350232 0.04615,0.785677 0.0625,1.1875 0.01247,-0.0074 0.01848,-0.02437 0.03125,-0.03125 -0.04741,-0.572885 -0.04941,-1.066166 -0.0625,-1.5625 z M 36.6875,32.5 c -0.100503,0.840219 0.07015,1.9338 0.53125,3.03125 0.320261,0.762243 0.746107,1.373394 1.1875,1.875 0.01471,0.01677 0.04769,0.04617 0.0625,0.0625 0.105361,0.522278 0.185082,0.910875 0.3125,1.5 0.394733,1.196218 2.032378,3.471965 3.46875,5.40625 0.04774,0.497292 0.05362,0.998874 0.0625,1.5 0.03594,-0.852621 0.01669,-1.675099 -0.0625,-2.5 -1.436372,-1.934285 -3.074017,-4.210032 -3.46875,-5.40625 -0.127418,-0.589125 -0.207139,-0.977722 -0.3125,-1.5 -0.01481,-0.01633 -0.04779,-0.04573 -0.0625,-0.0625 -0.441393,-0.501606 -0.867239,-1.112757 -1.1875,-1.875 C 36.921831,33.824563 36.748118,33.13642 36.6875,32.5 Z m 22.4375,0.1875 c -0.06876,0.579409 -0.232491,1.207064 -0.5,1.84375 -0.284675,0.67755 -0.64561,1.242611 -1.03125,1.71875 -0.124735,0.588895 -0.214395,1.032937 -0.375,1.71875 -0.436996,1.324287 -2.16282,3.965084 -3.46875,6 -0.02071,0.333054 0.0053,0.668304 0,1 1.30593,-2.034916 3.031754,-4.675713 3.46875,-6 0.160605,-0.685813 0.250265,-1.129855 0.375,-1.71875 0.38564,-0.476139 0.746575,-1.0412 1.03125,-1.71875 0.432836,-1.030175 0.574588,-2.037063 0.5,-2.84375 z M 42,50 l 0,1 12,0 0,-1 -12,0 z m -14.65625,8 -0.125,1 6.78125,0 8,0 0,-1 -8,0 -6.65625,0 z M 54,58 l 0,1 8,0 6.78125,0 -0.125,-1 L 62,58 54,58 Z m -18,10 0,1 8,0 0,-1 -8,0 z m 16,0 0,1 8,0 0,-1 -8,0 z m -8,8 0,1 8,0 0,-1 -8,0 z"
       inkscape:connector-curvature="0"
       id="path4237"
       style="display:inline;opacity:0.6;fill:#ffffff;fill-opacity:1;stroke:none;enable-background:new" />
    <path
       d="m 48,18.90625 c -5.883528,0 -10.65625,4.484246 -10.65625,10.03125 0.0143,0.635695 0.02831,1.36555 0.09375,2.15625 -0.931115,0.501404 -1.049292,2.460754 -0.21875,4.4375 0.320261,0.762243 0.746107,1.373394 1.1875,1.875 0.01471,0.01677 0.04769,0.04617 0.0625,0.0625 0.105361,0.522278 0.185082,0.910875 0.3125,1.5 0.394733,1.196218 2.032378,3.471965 3.46875,5.40625 0.143241,1.492165 0.131947,2.958943 -0.15625,4.65625 -4.134364,3.464908 -14.703348,5.006701 -14.6875,8.59375 L 27.21875,59 34,59 l 8,0 0,-8 12,0 0,8 8,0 6.78125,0 -0.1875,-1.375 C 68.57689,54.554967 57.958673,52.618306 53.875,49.03125 c -0.165342,-1.37404 -0.209169,-2.709146 -0.125,-4.0625 1.30593,-2.034916 3.031754,-4.675713 3.46875,-6 0.160605,-0.685813 0.250265,-1.129855 0.375,-1.71875 0.38564,-0.476139 0.746575,-1.0412 1.03125,-1.71875 0.788723,-1.877207 0.678863,-3.703002 -0.125,-4.3125 0.05616,-0.815667 0.132767,-1.584128 0.15625,-2.28125 C 58.656258,23.390498 53.883527,18.90625 48,18.90625 Z M 44,53 l 0,8 -8,0 0,8 8,0 0,8 8,0 0,-8 8,0 0,-8 -8,0 0,-8 -8,0 z"
       inkscape:connector-curvature="0"
       clip-path="url(#clipPath4254)"
       id="path4246"
       style="display:inline;opacity:0.4;fill:none;stroke:#000000;stroke-width:4.53500605;stroke-miterlimit:4;stroke-dasharray:none;filter:url(#filter4248);enable-background:new" />
  </g>
</svg>
