<?xml version="1.0" encoding="UTF-8" standalone="no"?>
<!-- Created with Inkscape (http://www.inkscape.org/) -->

<svg
   xmlns:dc="http://purl.org/dc/elements/1.1/"
   xmlns:cc="http://creativecommons.org/ns#"
   xmlns:rdf="http://www.w3.org/1999/02/22-rdf-syntax-ns#"
   xmlns:svg="http://www.w3.org/2000/svg"
   xmlns="http://www.w3.org/2000/svg"
   xmlns:xlink="http://www.w3.org/1999/xlink"
   xmlns:sodipodi="http://sodipodi.sourceforge.net/DTD/sodipodi-0.dtd"
   xmlns:inkscape="http://www.inkscape.org/namespaces/inkscape"
   version="1.1"
   width="48"
   height="48"
   id="svg4248"
   inkscape:version="0.91 r"
   sodipodi:docname="help-about.svg">
  <sodipodi:namedview
     pagecolor="#ffffff"
     bordercolor="#666666"
     borderopacity="1"
     objecttolerance="10"
     gridtolerance="10"
     guidetolerance="10"
     inkscape:pageopacity="0"
     inkscape:pageshadow="2"
     inkscape:window-width="1309"
     inkscape:window-height="1359"
     id="namedview109"
     showgrid="false"
     inkscape:zoom="5.656854"
     inkscape:cx="-15.362132"
     inkscape:cy="18.768287"
     inkscape:window-x="1058"
     inkscape:window-y="28"
     inkscape:window-maximized="0"
     inkscape:current-layer="svg4248"
     inkscape:snap-bbox="true"
     inkscape:bbox-paths="true"
     inkscape:bbox-nodes="true"
     inkscape:snap-bbox-edge-midpoints="false"
     inkscape:snap-global="true">
    <inkscape:grid
       type="xygrid"
       id="grid4005" />
  </sodipodi:namedview>
  <defs
     id="defs4250">
    <linearGradient
       id="linearGradient4011-4">
      <stop
         id="stop4013-8"
         style="stop-color:#ffffff;stop-opacity:1"
         offset="0" />
      <stop
         id="stop4015-5"
         style="stop-color:#ffffff;stop-opacity:0.23529412"
         offset="0.507761" />
      <stop
         id="stop4017-6"
         style="stop-color:#ffffff;stop-opacity:0.15686275"
         offset="0.83456558" />
      <stop
         id="stop4019-1"
         style="stop-color:#ffffff;stop-opacity:0.39215687"
         offset="1" />
    </linearGradient>
    <linearGradient
       x1="71.204407"
       y1="6.2375584"
       x2="71.204407"
       y2="44.340794"
       id="linearGradient3089"
       xlink:href="#linearGradient4011-4"
       gradientUnits="userSpaceOnUse"
       gradientTransform="matrix(1.1323391,0,0,1.1189189,-57.226665,-4.906732)" />
    <linearGradient
       id="linearGradient3820-7-2-2">
      <stop
         id="stop3822-2-6-36"
         style="stop-color:#3d3d3d;stop-opacity:1"
         offset="0" />
      <stop
         id="stop3864-8-7-6"
         style="stop-color:#686868;stop-opacity:0.49803922"
         offset="0.5" />
      <stop
         id="stop3824-1-2-4"
         style="stop-color:#686868;stop-opacity:0"
         offset="1" />
    </linearGradient>
    <radialGradient
       cx="99.157013"
       cy="186.17059"
       r="62.769119"
       fx="99.157013"
       fy="186.17059"
       id="radialGradient3315"
       xlink:href="#linearGradient3820-7-2-2"
       gradientUnits="userSpaceOnUse"
       gradientTransform="matrix(0.27193253,0,0,0.08549854,-2.9640156,26.714434)" />
    <linearGradient
       inkscape:collect="always"
       xlink:href="#linearGradient4215-4"
       id="linearGradient3163-1"
       gradientUnits="userSpaceOnUse"
       gradientTransform="matrix(0.89104607,0,0,0.88048552,-4.5134734,-6.4705462)"
       x1="38.976662"
       y1="59.967686"
       x2="38.976662"
       y2="8.0928917" />
    <linearGradient
       id="linearGradient4215-4">
      <stop
         offset="0"
         style="stop-color:#dcdcdc;stop-opacity:1"
         id="stop4217-9" />
      <stop
         offset="1"
         style="stop-color:#f0f0f0;stop-opacity:1"
         id="stop4219-7" />
    </linearGradient>
    <linearGradient
       id="outerBackgroundGradient">
      <stop
         id="stop3864-8-6"
         offset="0"
         style="stop-color:#a5a5a5;stop-opacity:1;" />
      <stop
         id="stop3866-9-1"
         offset="1"
         style="stop-color:#d1d1d1;stop-opacity:1;" />
    </linearGradient>
    <linearGradient
       gradientTransform="matrix(0.06666667,0,0,0.06666667,414.4,137.33333)"
       y2="40.00005"
       x2="264"
       y1="280.00003"
       x1="264"
       gradientUnits="userSpaceOnUse"
       id="linearGradient4097"
       xlink:href="#outerBackgroundGradient"
       inkscape:collect="always" />
    <linearGradient
       y2="28.571428"
       x2="286.85715"
       y1="302.85715"
       x1="286.85715"
       gradientTransform="matrix(0.0875,0,0,0.0875,414.9,97.5)"
       gradientUnits="userSpaceOnUse"
       id="linearGradient4101"
       xlink:href="#outerBackgroundGradient"
       inkscape:collect="always" />
    <linearGradient
       y2="31.61907"
       x2="283.80957"
       y1="299.80954"
       x1="283.80957"
       gradientTransform="matrix(0.11931818,0,0,0.11931818,414.13636,48.22727)"
       gradientUnits="userSpaceOnUse"
       id="linearGradient4153"
       xlink:href="#outerBackgroundGradient"
       inkscape:collect="always" />
    <linearGradient
       y2="22.857315"
       x2="281.14291"
       y1="297.14304"
       x1="281.14291"
       gradientTransform="matrix(0.175,0,0,-0.175,286.79999,-215.99997)"
       gradientUnits="userSpaceOnUse"
       id="linearGradient4869"
       xlink:href="#outerBackgroundGradient"
       inkscape:collect="always" />
    <clipPath
       id="clipPath4891"
       clipPathUnits="userSpaceOnUse">
      <rect
         transform="matrix(0,1,-1,0,0,0)"
         style="color:#bebebe;display:inline;overflow:visible;visibility:visible;fill:url(#linearGradient4895);fill-opacity:1;fill-rule:nonzero;stroke:none;stroke-width:0;marker:none;enable-background:accumulate"
         id="rect4893"
         width="42"
         height="42"
         x="307"
         y="223"
         ry="9" />
    </clipPath>
    <linearGradient
       y2="40.000172"
       x2="144.00006"
       y1="280.00018"
       x1="144.00006"
       gradientTransform="matrix(0.175,0,0,0.175,302.79999,215.99997)"
       gradientUnits="userSpaceOnUse"
       id="linearGradient4895"
       xlink:href="#outerBackgroundGradient"
       inkscape:collect="always" />
    <clipPath
       id="clipPath4044"
       clipPathUnits="userSpaceOnUse">
      <rect
         style="color:#bebebe;display:inline;overflow:visible;visibility:visible;fill:url(#linearGradient4048);fill-opacity:1;fill-rule:nonzero;stroke:none;stroke-width:0;marker:none;enable-background:accumulate"
         id="rect4046"
         width="22"
         height="22"
         x="433"
         y="85"
         ry="4" />
    </clipPath>
    <linearGradient
       y2="40.000046"
       x2="149.71428"
       y1="291.42862"
       x1="149.71428"
       gradientTransform="matrix(0.0875,0,0,0.0875,430.9,81.499996)"
       gradientUnits="userSpaceOnUse"
       id="linearGradient4048"
       xlink:href="#outerBackgroundGradient"
       inkscape:collect="always" />
    <clipPath
       id="clipPath4089"
       clipPathUnits="userSpaceOnUse">
      <rect
         ry="6"
         y="37"
         x="433"
         height="30"
         width="30"
         id="rect4091"
         style="color:#bebebe;display:inline;overflow:visible;visibility:visible;fill:url(#linearGradient4093);fill-opacity:1;fill-rule:nonzero;stroke:none;stroke-width:0;marker:none;enable-background:accumulate" />
    </clipPath>
    <linearGradient
       y2="40.00005"
       x2="149.71432"
       y1="291.42862"
       x1="149.71432"
       gradientTransform="matrix(0.11931818,0,0,0.11931818,430.13636,32.227267)"
       gradientUnits="userSpaceOnUse"
       id="linearGradient4093"
       xlink:href="#outerBackgroundGradient"
       inkscape:collect="always" />
    <clipPath
       id="clipPath3855"
       clipPathUnits="userSpaceOnUse">
      <rect
         transform="matrix(0,1,-1,0,0,0)"
         ry="3"
         y="212"
         x="304"
         height="16"
         width="16"
         id="rect3857"
         style="color:#bebebe;display:inline;overflow:visible;visibility:visible;fill:url(#linearGradient3859);fill-opacity:1;fill-rule:nonzero;stroke:none;stroke-width:0;marker:none;enable-background:accumulate" />
    </clipPath>
    <linearGradient
       y2="40.00005"
       x2="144"
       y1="280.00003"
       x1="144"
       gradientTransform="matrix(0.06666667,0,0,0.06666667,302.4,209.33333)"
       gradientUnits="userSpaceOnUse"
       id="linearGradient3859"
       xlink:href="#outerBackgroundGradient"
       inkscape:collect="always" />
    <clipPath
       id="clipPath3862"
       clipPathUnits="userSpaceOnUse">
      <rect
         style="color:#bebebe;display:inline;overflow:visible;visibility:visible;fill:url(#linearGradient3866);fill-opacity:1;fill-rule:nonzero;stroke:none;stroke-width:0;marker:none;enable-background:accumulate"
         id="rect3864"
         width="220"
         height="220"
         x="34"
         y="46"
         ry="50" />
    </clipPath>
    <linearGradient
       y2="40"
       x2="144"
       y1="280"
       x1="144"
       gradientTransform="translate(0,-4)"
       gradientUnits="userSpaceOnUse"
       id="linearGradient3866"
       xlink:href="#outerBackgroundGradient"
       inkscape:collect="always" />
    <linearGradient
       y2="32"
       x2="272"
       y1="288"
       x1="272"
       gradientTransform="translate(0,-4)"
       gradientUnits="userSpaceOnUse"
       id="linearGradient3876"
       xlink:href="#outerBackgroundGradient"
       inkscape:collect="always" />
    <clipPath
       id="clipPath4187"
       clipPathUnits="userSpaceOnUse">
      <rect
         style="color:#bebebe;display:inline;overflow:visible;visibility:visible;fill:url(#linearGradient4191);fill-opacity:1;fill-rule:nonzero;stroke:none;stroke-width:0;marker:none;enable-background:accumulate"
         id="rect4189"
         width="60"
         height="60"
         x="290"
         y="142"
         ry="12.5" />
    </clipPath>
    <linearGradient
       y2="140"
       x2="352"
       y1="204"
       x1="352"
       gradientUnits="userSpaceOnUse"
       id="linearGradient4191"
       xlink:href="#outerBackgroundGradient"
       inkscape:collect="always" />
    <linearGradient
       y2="28"
       x2="384"
       y1="124"
       x1="384"
       gradientUnits="userSpaceOnUse"
       id="linearGradient4197"
       xlink:href="#outerBackgroundGradient"
       inkscape:collect="always" />
    <clipPath
       id="clipPath4346"
       clipPathUnits="userSpaceOnUse">
      <rect
         ry="18"
         y="32"
         x="292"
         height="88"
         width="88"
         id="rect4348"
         style="color:#bebebe;display:inline;overflow:visible;visibility:visible;fill:url(#linearGradient4197);fill-opacity:1;fill-rule:nonzero;stroke:none;stroke-width:0;marker:none;enable-background:accumulate" />
    </clipPath>
    <clipPath
       id="clipPath3871"
       clipPathUnits="userSpaceOnUse">
      <rect
         style="color:#bebebe;display:inline;overflow:visible;visibility:visible;fill:url(#linearGradient4101);fill-opacity:1;fill-rule:nonzero;stroke:none;stroke-width:0;marker:none;enable-background:accumulate"
         id="rect3873"
         width="22"
         height="22"
         x="417"
         y="101"
         ry="5" />
    </clipPath>
    <clipPath
       id="clipPath3881"
       clipPathUnits="userSpaceOnUse">
      <rect
         ry="7"
         y="53"
         x="417"
         height="30"
         width="30"
         id="rect3883"
         style="color:#bebebe;display:inline;overflow:visible;visibility:visible;fill:url(#linearGradient4153);fill-opacity:1;fill-rule:nonzero;stroke:none;stroke-width:0;marker:none;enable-background:accumulate" />
    </clipPath>
    <linearGradient
       gradientTransform="matrix(0,-1,1,0,316,540)"
       gradientUnits="userSpaceOnUse"
       y2="112"
       x2="438"
       y1="112"
       x1="418"
       id="linearGradient4258"
       xlink:href="#outerBackgroundGradient"
       inkscape:collect="always" />
    <linearGradient
       y2="40.000008"
       x2="144"
       y1="280"
       x1="144"
       gradientTransform="matrix(0.375,0,0,0.375,14,172)"
       gradientUnits="userSpaceOnUse"
       id="linearGradient4865"
       xlink:href="#outerBackgroundGradient-1"
       inkscape:collect="always" />
    <linearGradient
       id="outerBackgroundGradient-1">
      <stop
         id="stop3864-8-6-2"
         offset="0"
         style="stop-color:#989898;stop-opacity:1;" />
      <stop
         id="stop3866-9-1-5"
         offset="1"
         style="stop-color:#c3c3c3;stop-opacity:1;" />
    </linearGradient>
    <clipPath
       id="clipPath4610"
       clipPathUnits="userSpaceOnUse">
      <path
         inkscape:connector-curvature="0"
         style="color:#bebebe;display:inline;overflow:visible;visibility:visible;fill:url(#linearGradient4614);fill-opacity:1;fill-rule:nonzero;stroke:none;stroke-width:2;marker:none;enable-background:accumulate"
         d="m 75.448164,-5.3337819 c 12.658277,0 22.841991,10.1837123 22.841991,22.8419899 l 0,55.374522 c 0,12.658279 -10.183714,22.841991 -22.841991,22.841991 l -55.374521,0 c -12.6582793,0 -22.8419907,-10.183712 -22.8419907,-22.841991 l 0,-55.374522 c 0,-12.6582776 10.1837114,-22.8419899 22.8419907,-22.8419899 l 55.374521,0 z"
         id="path4612" />
    </clipPath>
    <linearGradient
       y2="156"
       x2="253"
       y1="156"
       x1="35"
       gradientTransform="matrix(0,-0.46145435,-0.46145435,0,119.74778,111.6449)"
       gradientUnits="userSpaceOnUse"
       id="linearGradient4614"
       xlink:href="#outerBackgroundGradient"
       inkscape:collect="always" />
    <linearGradient
       y2="8.0928917"
       x2="38.976662"
       y1="59.967686"
       x1="38.976662"
       gradientTransform="matrix(0.80392158,0,0,0.80392158,-1.72549,-2.3658945)"
       gradientUnits="userSpaceOnUse"
       id="linearGradient3024"
       xlink:href="#linearGradient4215-4"
       inkscape:collect="always" />
    <linearGradient
       inkscape:collect="always"
       xlink:href="#linearGradient4215-4"
       id="linearGradient3849"
       gradientUnits="userSpaceOnUse"
       gradientTransform="matrix(0.80392158,0,0,0.80392158,664.41073,262.76717)"
       x1="38.976662"
       y1="59.967686"
       x2="38.976662"
       y2="8.0928917" />
    <clipPath
       id="clipPath4806"
       clipPathUnits="userSpaceOnUse">
      <path
         inkscape:connector-curvature="0"
         style="color:#bebebe;display:inline;overflow:visible;visibility:visible;fill:#bf5454;fill-opacity:1;fill-rule:nonzero;stroke:none;stroke-width:2;marker:none;enable-background:accumulate"
         d="m 543.90196,-171.40732 c -27.43127,0 -49.5,22.06873 -49.5,49.5 l 0,120 c 0,27.43127 22.06873,49.5 49.5,49.5 l 120,0 c 27.43127,0 49.5,-22.06873 49.5,-49.5 l 0,-120 c 0,-27.43127 -22.06873,-49.5 -49.5,-49.5 l -120,0 z"
         id="path4808" />
    </clipPath>
    <clipPath
       id="clipPath4812"
       clipPathUnits="userSpaceOnUse">
      <path
         inkscape:connector-curvature="0"
         style="color:#bebebe;display:inline;overflow:visible;visibility:visible;fill:#bf5454;fill-opacity:1;fill-rule:nonzero;stroke:none;stroke-width:2;marker:none;enable-background:accumulate"
         d="m 547.65198,-156.00108 c -22.10302,0 -39.84375,17.74073 -39.84375,39.84375 l 0,112.5000018 c 0,22.1030162 17.74073,39.8437502 39.84375,39.8437502 l 112.5,0 c 22.10302,0 39.84375,-17.740734 39.84375,-39.8437502 l 0,-112.5000018 c 0,-22.10302 -17.74073,-39.84375 -39.84375,-39.84375 l -112.5,0 z"
         id="path4814" />
    </clipPath>
    <clipPath
       id="clipPath4840"
       clipPathUnits="userSpaceOnUse">
      <path
         inkscape:connector-curvature="0"
         style="color:#bebebe;display:inline;overflow:visible;visibility:visible;fill:#bf5454;fill-opacity:1;fill-rule:nonzero;stroke:none;stroke-width:2;marker:none;enable-background:accumulate"
         d="m 538.90196,-168.65732 c -24.25637,0 -43.75,19.49363 -43.75,43.75 l 0,130.0000025 c 0,24.2563755 19.49363,43.7500005 43.75,43.7500005 l 130,0 c 24.25637,0 43.75,-19.493625 43.75,-43.7500005 l 0,-130.0000025 c 0,-24.25637 -19.49363,-43.75 -43.75,-43.75 l -130,0 z"
         id="path4842" />
    </clipPath>
    <clipPath
       id="clipPath4888"
       clipPathUnits="userSpaceOnUse">
      <path
         inkscape:connector-curvature="0"
         style="color:#bebebe;display:inline;overflow:visible;visibility:visible;fill:#bf5454;fill-opacity:1;fill-rule:nonzero;stroke:none;stroke-width:2;marker:none;enable-background:accumulate"
         d="m 541.402,-166.15737 c -17.305,0 -31.25,13.945 -31.25,31.25 l 0,124.999995 c 0,17.305 13.945,31.25 31.25,31.25 l 125,0 c 17.305,0 31.25,-13.945 31.25,-31.25 l 0,-124.999995 c 0,-17.305 -13.945,-31.25 -31.25,-31.25 l -125,0 z"
         id="path4890" />
    </clipPath>
    <clipPath
       id="clipPath4894"
       clipPathUnits="userSpaceOnUse">
      <path
         inkscape:connector-curvature="0"
         style="color:#bebebe;display:inline;overflow:visible;visibility:visible;fill:#bf5454;fill-opacity:1;fill-rule:nonzero;stroke:none;stroke-width:2;marker:none;enable-background:accumulate"
         d="m 543.902,-164.9073 c -24.9699,0 -45,20.0301 -45,45 l 0,120 c 0,24.9699 20.0301,45 45,45 l 120,0 c 24.9699,0 45,-20.0301 45,-45 l 0,-120 c 0,-24.9699 -20.0301,-45 -45,-45 l -120,0 z"
         id="path4896" />
    </clipPath>
    <clipPath
       id="clipPath4900"
       clipPathUnits="userSpaceOnUse">
      <path
         inkscape:connector-curvature="0"
         style="color:#bebebe;display:inline;overflow:visible;visibility:visible;fill:#bf5454;fill-opacity:1;fill-rule:nonzero;stroke:none;stroke-width:2;marker:none;enable-background:accumulate"
         d="m 543.90196,-164.90732 c -27.04905,0 -48.75,21.70098 -48.75,48.75 l 0,120.0000051 c 0,27.0490209 21.70095,48.7500009 48.75,48.7500009 l 120.00001,0 c 27.04905,0 48.75,-21.70098 48.75,-48.7500009 l 0,-120.0000051 c 0,-27.04902 -21.70095,-48.75 -48.75,-48.75 l -120.00001,0 z"
         id="path4902" />
    </clipPath>
    <clipPath
       id="clipPath4906"
       clipPathUnits="userSpaceOnUse">
      <path
         inkscape:connector-curvature="0"
         style="color:#bebebe;display:inline;overflow:visible;visibility:visible;fill:#bf5454;fill-opacity:1;fill-rule:nonzero;stroke:none;stroke-width:2;marker:none;enable-background:accumulate"
         d="m 537.05819,-167.62264 c -24.95632,0 -45,20.04368 -45,45 l 0,131.2500024 c 0,24.9563246 20.04368,44.9999996 45,44.9999996 l 131.25,0 c 24.95633,0 45,-20.043675 45,-44.9999996 l 0,-131.2500024 c 0,-24.95632 -20.04367,-45 -45,-45 l -131.25,0 z"
         id="path4908" />
    </clipPath>
    <linearGradient
       x1="45"
       y1="24"
       x2="45"
       y2="76"
       id="linearGradient3146"
       xlink:href="#linearGradient4281-6"
       gradientUnits="userSpaceOnUse"
       gradientTransform="matrix(2.0844849,0,0,2.0844849,-7.8160044,11.194023)" />
    <linearGradient
       id="linearGradient4281-6">
      <stop
         id="stop4283-9-3"
         style="stop-color:#1e1e1e;stop-opacity:1"
         offset="0" />
      <stop
         id="stop4285-8-0"
         style="stop-color:#505050;stop-opacity:1"
         offset="1" />
    </linearGradient>
    <clipPath
       id="clipPath4110">
      <path
         d="m 50,19 c -9.726128,-0.132021 -19.109741,6.056796 -22.90625,15 -3.979384,8.850182 -2.152838,19.920532 4.53125,26.96875 1.281262,1.387198 2.722378,2.621691 4.28125,3.6875 0.08882,-1.817147 -0.197676,-3.686742 0.15625,-5.46875 0.656484,-1.161773 2.158536,-1.184701 0.375,-2.25 -5.762671,-5.843571 -6.891108,-15.618269 -2.53125,-22.59375 4.061674,-7.006285 12.966668,-10.646131 20.78125,-8.5 8.227191,1.977457 14.397158,10.100226 14.0625,18.5625 -0.09505,5.13445 -2.431331,10.16269 -6.28125,13.5625 1.525079,0.286683 1.764814,1.969453 1.625,3.25 l 0,3.4375 C 71.755786,59.535945 76.096622,49.948036 74.8125,40.8125 73.683314,30.989775 66.097834,22.350732 56.53125,19.875 54.400202,19.297672 52.207631,18.999338 50,19 Z m -0.1875,9.375 c -1.956327,-0.05862 -3.24076,1.944156 -2.9375,3.75 0.03923,4.21599 -0.0766,8.446623 0.0625,12.65625 0.315681,1.83468 2.277034,2.569412 3.9375,2.34375 3.566877,-0.04013 7.12719,0.08236 10.6875,-0.0625 2.635743,-0.393414 3.406401,-4.287567 1.125,-5.65625 -1.595432,-0.917738 -3.525888,-0.391599 -5.28125,-0.53125 l -4.28125,0 C 53.08702,37.492266 53.1999,34.095149 53.0625,30.71875 52.783093,29.231948 51.295937,28.216436 49.8125,28.375 Z M 46,52 l 0,8 -8,0 0,8 8,0 0,8 8,0 0,-8 8,0 0,-8 -8,0 0,-8 -8,0 z"
         inkscape:connector-curvature="0"
         id="path4112"
         style="color:#000000;display:inline;overflow:visible;visibility:visible;opacity:0.8;fill:#ff00ff;fill-opacity:1;fill-rule:nonzero;stroke:none;stroke-width:2;marker:none;enable-background:accumulate" />
    </clipPath>
    <filter
       style="color-interpolation-filters:sRGB"
       id="filter4104">
      <feGaussianBlur
         id="feGaussianBlur4106"
         stdDeviation="0.80272282" />
    </filter>
    <linearGradient
       x1="48"
       y1="24"
       x2="48"
       y2="72"
       id="linearGradient3954"
       xlink:href="#linearGradient4281-6"
       gradientUnits="userSpaceOnUse"
       gradientTransform="matrix(2.0416667,0,0,2.0416667,-138.57052,45.68254)" />
    <clipPath
       id="clipPath3969">
      <path
         d="m 36,24 c -2.216,0 -4,1.784 -4,4 l 0,44 16,-16 16,16 0,-44 c 0,-2.216 -1.784,-4 -4,-4 z m 12,5.75 3.666666,7.333334 L 59.75,38.25 53.916666,44 55.333334,52.083334 48,48.25 40.75,52.083334 42.166666,44 36.25,38.25 44.333334,37.083334 Z"
         inkscape:connector-curvature="0"
         id="path3971"
         style="color:#000000;display:inline;overflow:visible;visibility:visible;fill:#ff00ff;fill-opacity:1;fill-rule:nonzero;stroke:none;stroke-width:0.80000001;marker:none;enable-background:accumulate" />
    </clipPath>
    <filter
       style="color-interpolation-filters:sRGB"
       id="filter3973">
      <feGaussianBlur
         id="feGaussianBlur3975"
         stdDeviation="0.6" />
    </filter>
    <linearGradient
       x1="23.134918"
       y1="9.7419071"
       x2="23.134918"
       y2="20.237455"
       id="linearGradient3939"
       xlink:href="#linearGradient4281-6"
       gradientUnits="userSpaceOnUse"
       gradientTransform="matrix(5.7132378,0,0,6.7171338,-73.676404,-34.879347)" />
    <clipPath
       id="clipPath3954">
      <path
         d="m 40,22 0,4 16,0 0,-4 z m 0,8 0,6 16,0 0,-6 z M 40,40 40,50 30,50 47.855412,70 66,50 56,50 56,40 Z"
         inkscape:connector-curvature="0"
         id="path3956-7"
         style="display:inline;fill:#ff00ff;fill-opacity:1;stroke:none" />
    </clipPath>
    <filter
       style="color-interpolation-filters:sRGB"
       id="filter3958">
      <feGaussianBlur
         id="feGaussianBlur3960"
         stdDeviation="0.63" />
    </filter>
    <linearGradient
       x1="56"
       y1="16"
       x2="56"
       y2="81.783081"
       id="linearGradient4235"
       xlink:href="#StandardGradient-3"
       gradientUnits="userSpaceOnUse"
       gradientTransform="matrix(1.4598439,0,0,1.4876899,5.3356053,-2.4045325)" />
    <linearGradient
       x1="11.998966"
       y1="0.92195445"
       x2="11.998966"
       y2="19.387045"
       id="StandardGradient-3"
       gradientUnits="userSpaceOnUse"
       gradientTransform="scale(0.9219544,1.0846523)">
      <stop
         id="stop3283-5"
         style="stop-color:#000000;stop-opacity:0.86274511"
         offset="0" />
      <stop
         id="stop2651-2"
         style="stop-color:#000000;stop-opacity:0.47058824"
         offset="1" />
    </linearGradient>
    <clipPath
       id="clipPath4254">
      <path
         d="m 48,17.90625 c -5.883528,0 -10.65625,4.484246 -10.65625,10.03125 0.0143,0.635695 0.02831,1.36555 0.09375,2.15625 -0.931115,0.501404 -1.049292,2.460754 -0.21875,4.4375 0.320261,0.762243 0.746107,1.373394 1.1875,1.875 0.01471,0.01677 0.04769,0.04617 0.0625,0.0625 0.105361,0.522278 0.185082,0.910875 0.3125,1.5 0.394733,1.196218 2.032378,3.471965 3.46875,5.40625 0.143241,1.492165 0.131947,2.958943 -0.15625,4.65625 -4.134364,3.464908 -14.703348,5.006701 -14.6875,8.59375 L 27.21875,58 34,58 l 8,0 0,-8 12,0 0,8 8,0 6.78125,0 -0.1875,-1.375 C 68.57689,53.554967 57.958673,51.618306 53.875,48.03125 c -0.165342,-1.37404 -0.209169,-2.709146 -0.125,-4.0625 1.30593,-2.034916 3.031754,-4.675713 3.46875,-6 0.160605,-0.685813 0.250265,-1.129855 0.375,-1.71875 0.38564,-0.476139 0.746575,-1.0412 1.03125,-1.71875 0.788723,-1.877207 0.678863,-3.703002 -0.125,-4.3125 0.05616,-0.815667 0.132767,-1.584128 0.15625,-2.28125 C 58.656258,22.390498 53.883527,17.90625 48,17.90625 Z M 44,52 l 0,8 -8,0 0,8 8,0 0,8 8,0 0,-8 8,0 0,-8 -8,0 0,-8 -8,0 z"
         inkscape:connector-curvature="0"
         id="path4256"
         style="display:inline;fill:url(#linearGradient4258);fill-opacity:1;stroke:none;enable-background:new" />
    </clipPath>
    <filter
       style="color-interpolation-filters:sRGB"
       id="filter4248">
      <feGaussianBlur
         id="feGaussianBlur4250"
         stdDeviation="0.74742188" />
    </filter>
    <linearGradient
       x1="32"
       y1="26"
       x2="32"
       y2="74"
       id="linearGradient3146-0"
       xlink:href="#linearGradient4281-6"
       gradientUnits="userSpaceOnUse"
       gradientTransform="matrix(2,0,0,2,-14.932503,-20.153285)" />
    <clipPath
       id="clipPath3933">
      <path
         d="m 30,22 c -1.662,0 -3,1.338 -3,3 l 0,5 42,0 c 0,-2.216 -1.784,-4 -4,-4 l -22,0 0,-1 c 0,-1.662 -1.338,-3 -3,-3 l -10,0 z m 38.40625,9.9375 C 68.273504,31.944582 68.13581,31.972838 68,32 l -5,0 -22,0 -13,0 c -2.216,0 -4,1.784 -4,4 l 0,24 c 0,2.216 1.784,4 4,4 l 9,0 0,4 c 0,2.216 1.784,4 4,4 l 22,0 c 2.216,0 4,-1.784 4,-4 l 0,-4 1,0 c 2.216,0 4,-1.784 4,-4 l 0,-24 c 0,-2.0775 -1.602557,-4.168736 -3.59375,-4.0625 z M 44.5,40 l 15,0 c 0.831,0 1.5,0.669 1.5,1.5 l 0,23 c 0,0.831 -0.669,1.5 -1.5,1.5 l -15,0 C 43.669,66 43,65.331 43,64.5 l 0,-23 C 43,40.669 43.669,40 44.5,40 Z"
         inkscape:connector-curvature="0"
         id="path3935"
         style="color:#000000;display:inline;overflow:visible;visibility:visible;fill:#ff00ff;fill-opacity:1;fill-rule:nonzero;stroke:none;stroke-width:1;marker:none;enable-background:accumulate" />
    </clipPath>
    <filter
       style="color-interpolation-filters:sRGB"
       id="filter3937">
      <feGaussianBlur
         id="feGaussianBlur3939"
         stdDeviation="0.735" />
    </filter>
    <linearGradient
       x1="45"
       y1="20"
       x2="45"
       y2="68"
       id="linearGradient3131"
       xlink:href="#linearGradient4281-6"
       gradientUnits="userSpaceOnUse"
       gradientTransform="matrix(1.9999999,0,0,1.9999999,-25.882251,-18.213941)" />
    <clipPath
       id="clipPath4596">
      <path
         d="m 67.9375,28.1875 0,9.71875 c 0,4.989397 -0.979358,6.0625 -5.96875,6.0625 l -11.84375,0 L 50.125,36 36,47 l 14.125,11 0,-7.96875 14.90625,0 C 69.993396,50.03125 74,46.055892 74,41.09375 L 74,28.1875 Z M 29.5,24 C 27.561,24 26,25.561 26,27.5 l 0,37 c 0,1.939 1.561,3.5 3.5,3.5 l 29,0 c 1.939,0 3.5,-1.561 3.5,-3.5 l 0,-12.5 -6,0 0,8 c 0,1.108 -0.892,2 -2,2 l -20,0 c -1.108,0 -2,-0.892 -2,-2 l 0,-28 c 0,-1.108 0.892,-2 2,-2 l 20,0 c 1.108,0 2,0.892 2,2 l 0,10 6,0 0,-14.5 C 62,25.561 60.439,24 58.5,24 Z"
         inkscape:connector-curvature="0"
         id="path4598"
         style="color:#000000;display:inline;overflow:visible;visibility:visible;opacity:0.8;fill:#ff00ff;fill-opacity:1;fill-rule:nonzero;stroke:none;stroke-width:2;marker:none;enable-background:accumulate" />
    </clipPath>
    <filter
       style="color-interpolation-filters:sRGB"
       id="filter4590">
      <feGaussianBlur
         id="feGaussianBlur4592"
         stdDeviation="0.69" />
    </filter>
    <linearGradient
       x1="8.4921026"
       y1="21.51107"
       x2="8.4921026"
       y2="10.134331"
       id="linearGradient3094"
       xlink:href="#linearGradient4281-6"
       gradientUnits="userSpaceOnUse"
       gradientTransform="matrix(-9.1345874,0,0,-4.3953411,153.43038,130.22881)" />
    <clipPath
       id="clipPath3953">
      <path
         d="m 27.250524,30.824866 -4.223923,23.130641 23.214686,-4.208632 -6.195093,-6.172664 c 5.66404,-5.301056 14.56907,-5.191292 20.094615,0.314245 1.602617,1.596817 2.756778,3.474765 3.446725,5.476835 l 9.439067,-2.513954 C 71.9099,43.199373 69.907446,39.748073 67.01173,36.862845 57.715741,27.60052 42.577135,27.624211 33.085173,36.638376 l -5.834649,-5.813525 z"
         inkscape:connector-curvature="0"
         id="path3955"
         style="display:inline;fill:#ff00ff;fill-opacity:1;stroke:none" />
    </clipPath>
    <filter
       style="color-interpolation-filters:sRGB"
       id="filter3957">
      <feGaussianBlur
         id="feGaussianBlur3959"
         stdDeviation="0.5554409" />
    </filter>
    <linearGradient
       x1="8.4921026"
       y1="21.51107"
       x2="8.4921026"
       y2="10.134331"
       id="linearGradient3094-0"
       xlink:href="#linearGradient4281-6"
       gradientUnits="userSpaceOnUse"
       gradientTransform="matrix(-9.1345874,0,0,-4.3953411,152.32543,129.49218)" />
    <clipPath
       id="clipPath3953-0">
      <path
         d="m 27.250524,30.824866 -4.223923,23.130641 23.214686,-4.208632 -6.195093,-6.172664 c 5.66404,-5.301056 14.56907,-5.191292 20.094615,0.314245 1.602617,1.596817 2.756778,3.474765 3.446725,5.476835 l 9.439067,-2.513954 C 71.9099,43.199373 69.907446,39.748073 67.01173,36.862845 57.715741,27.60052 42.577135,27.624211 33.085173,36.638376 l -5.834649,-5.813525 z"
         inkscape:connector-curvature="0"
         id="path3955-4"
         style="display:inline;fill:#ff00ff;fill-opacity:1;stroke:none" />
    </clipPath>
    <filter
       style="color-interpolation-filters:sRGB"
       id="filter3957-0">
      <feGaussianBlur
         id="feGaussianBlur3959-7"
         stdDeviation="0.5554409" />
    </filter>
    <linearGradient
       x1="32"
       y1="26"
       x2="32"
       y2="74"
       id="linearGradient3166"
       xlink:href="#linearGradient4281-6"
       gradientUnits="userSpaceOnUse"
       gradientTransform="matrix(2,0,0,2,-16.34672,-26.496425)" />
    <clipPath
       id="clipPath3949">
      <path
         d="m 30,18 c -1.662,0 -3,1.338 -3,3 l 0,5 42,0 c 0,-2.216 -1.784,-4 -4,-4 l -22,0 0,-1 c 0,-1.662 -1.338,-3 -3,-3 l -10,0 z m 38.40625,9.9375 C 68.273504,27.944582 68.13581,27.972838 68,28 l -5,0 -22,0 -13,0 c -2.216,0 -4,1.784 -4,4 l 0,32 c 0,2.216 1.784,4 4,4 l 9,0 30,0 1,0 c 2.216,0 4,-1.784 4,-4 l 0,-32 c 0,-2.0775 -1.602557,-4.168736 -3.59375,-4.0625 z M 44,36 l 8,0 0,8 8,0 0,8 -8,0 0,8 -8,0 0,-8 -8,0 0,-8 8,0 0,-8 z"
         inkscape:connector-curvature="0"
         id="path3951"
         style="color:#000000;display:inline;overflow:visible;visibility:visible;fill:#ff00ff;fill-opacity:1;fill-rule:nonzero;stroke:none;stroke-width:1;marker:none;enable-background:accumulate" />
    </clipPath>
    <filter
       style="color-interpolation-filters:sRGB"
       id="filter3953">
      <feGaussianBlur
         id="feGaussianBlur3955"
         stdDeviation="0.735" />
    </filter>
    <linearGradient
       x1="28"
       y1="59"
       x2="73"
       y2="59"
       id="linearGradient3149"
       xlink:href="#linearGradient4281-6"
       gradientUnits="userSpaceOnUse"
       gradientTransform="matrix(0,1.9436059,1.9436059,0,-10.312534,-13.607123)" />
    <clipPath
       id="clipPath3974">
      <path
         d="m 24.59375,48.65625 c 0.05509,-0.28337 0.217148,-0.560898 0.4375,-0.78125 L 31.375,41.53125 c 0.587606,-0.587606 1.537394,-0.587606 2.125,0 l 8.5,8.5 L 42,29.5 C 42,28.669 42.669,28 43.5,28 l 9,0 c 0.831,0 1.5,0.669 1.5,1.5 l 0,20.53125 8.5,-8.5 c 0.587606,-0.587606 1.537394,-0.587606 2.125,0 l 6.34375,6.34375 c 0.587606,0.587606 0.587606,1.537394 0,2.125 L 48,73 25.03125,50 c -0.367254,-0.367254 -0.529313,-0.871466 -0.4375,-1.34375 z"
         inkscape:connector-curvature="0"
         id="path3976"
         style="color:#000000;display:inline;overflow:visible;visibility:visible;opacity:0.8;fill:#ff00ff;fill-opacity:1;fill-rule:nonzero;stroke:none;stroke-width:2;marker:none;enable-background:accumulate" />
    </clipPath>
    <filter
       style="color-interpolation-filters:sRGB"
       id="filter3978">
      <feGaussianBlur
         id="feGaussianBlur3980"
         stdDeviation="0.68880677" />
    </filter>
    <linearGradient
       x1="38.375"
       y1="16.29191"
       x2="38.375"
       y2="82.291908"
       id="linearGradient3109"
       xlink:href="#linearGradient4281-6"
       gradientUnits="userSpaceOnUse"
       gradientTransform="matrix(1.9071575,0,0,1.9020526,19.400564,18.169735)" />
    <clipPath
       id="clipPath3945">
      <path
         d="m 48,23.980034 c -13.254834,0 -24,8.791499 -24,19.636363 0,6.907955 4.363462,12.977064 10.954545,16.477273 -0.250636,1.824549 -1.39201,6.290776 -6.795454,7.818182 6.998484,0.760599 11.646255,-2.651859 14.113636,-5.227273 1.835278,0.367637 3.753504,0.568182 5.727273,0.568182 13.254834,0 24,-8.7915 24,-19.636364 C 72,32.771533 61.254834,23.980034 48,23.980034 Z m 2.022727,6.545454 c 0.897653,2.6e-5 1.663756,0.310675 2.295455,0.909091 0.642758,0.598466 0.954534,1.316864 0.954545,2.159091 -1.1e-5,0.842274 -0.311787,1.560671 -0.954545,2.159091 -0.631699,0.587379 -1.397802,0.886383 -2.295455,0.886364 -0.89767,1.9e-5 -1.675419,-0.298985 -2.318182,-0.886364 -0.642776,-0.59842 -0.954551,-1.316817 -0.954545,-2.159091 -6e-6,-0.842227 0.311769,-1.560625 0.954545,-2.159091 0.642763,-0.598416 1.420512,-0.909065 2.318182,-0.909091 z m -3.045454,8.863637 c 1.318779,1.6e-5 2.336182,0.334518 3.045454,0.977272 0.720337,0.631703 1.068171,1.457721 1.068182,2.477273 -1.4e-5,0.210577 -0.01278,0.581701 -0.06818,1.113637 -0.04433,0.531959 -0.13975,1.011266 -0.272727,1.454545 l -1.363636,4.840909 c -0.110831,0.387882 -0.206805,0.819484 -0.295455,1.318182 -0.08867,0.498705 -0.136372,0.881475 -0.136364,1.136364 -8e-6,0.642777 0.143672,1.085458 0.431819,1.318181 0.28813,0.232731 0.790726,0.340909 1.5,0.340909 0.332457,0 0.715227,-0.04825 1.136363,-0.15909 0.421114,-0.121909 0.72068,-0.229517 0.909091,-0.318182 l -0.363636,1.5 c -1.097154,0.432204 -1.982521,0.755627 -2.636364,0.977272 -0.653861,0.232731 -1.408318,0.34091 -2.272727,0.34091 -1.329875,0 -2.37113,-0.311775 -3.113636,-0.954546 -0.731432,-0.653849 -1.090912,-1.47987 -1.09091,-2.477273 -2e-6,-0.387875 0.03549,-0.78285 0.09091,-1.181818 0.05541,-0.410033 0.128093,-0.876573 0.25,-1.386363 l 1.363636,-4.84091 c 0.1219,-0.465443 0.217875,-0.908127 0.295454,-1.318181 0.08865,-0.421114 0.13636,-0.792802 0.136364,-1.136364 -4e-6,-0.620593 -0.131476,-1.051631 -0.386364,-1.295455 C 44.94965,41.872602 44.470343,41.730048 43.75,41.730034 c -0.354634,1.4e-5 -0.714114,0.07102 -1.090909,0.181818 -0.365715,0.110837 -0.688572,0.218456 -0.954546,0.318182 l 0.363637,-1.5 c 0.89766,-0.365699 1.77082,-0.676911 2.590909,-0.931818 0.820082,-0.265958 1.586748,-0.409075 2.318182,-0.409091 z"
         inkscape:connector-curvature="0"
         id="path3947"
         style="display:inline;opacity:0.8;fill:url(#linearGradient3949);fill-opacity:1;stroke:none" />
    </clipPath>
    <filter
       style="color-interpolation-filters:sRGB"
       id="filter3951">
      <feGaussianBlur
         id="feGaussianBlur3953"
         stdDeviation="0.6902995" />
    </filter>
  </defs>
  <metadata
     id="metadata4253">
    <rdf:RDF>
      <cc:Work
         rdf:about="">
        <dc:format>image/svg+xml</dc:format>
        <dc:type
           rdf:resource="http://purl.org/dc/dcmitype/StillImage" />
        <dc:title></dc:title>
      </cc:Work>
    </rdf:RDF>
  </metadata>
  <path
     d="m 41.068977,42.630892 a 17.068974,5.3666665 0 1 1 -34.1379402,0 17.068974,5.3666665 0 1 1 34.1379402,0 z"
     id="path3818-0-2"
     style="fill:url(#radialGradient3315);fill-opacity:1;stroke:none"
     inkscape:connector-curvature="0" />
  <path
     d="m 24.000005,1.2317743 c -12.414727,0 -22.5000054,9.9657447 -22.5000054,22.2333287 0,12.267597 10.0852784,22.233346 22.5000054,22.233342 12.414723,0 22.500013,-9.965745 22.499998,-22.233342 0,-12.267584 -10.085275,-22.2333287 -22.499998,-22.2333287 z"
     id="path2555"
     style="color:#000000;display:inline;overflow:visible;visibility:visible;fill:url(#linearGradient3163-1);fill-opacity:1;fill-rule:nonzero;stroke:none;stroke-width:0.71428573;stroke-linecap:round;stroke-linejoin:round;stroke-miterlimit:4;stroke-dasharray:none;stroke-dashoffset:0;stroke-opacity:1;marker:none;enable-background:accumulate"
     inkscape:connector-curvature="0" />
  <path
     d="m 24.000004,1.231774 c -12.414728,0 -22.5000042,9.965744 -22.5000042,22.233331 0,12.267595 10.0852762,22.233345 22.5000042,22.233341 12.414719,0 22.500014,-9.965746 22.499997,-22.233341 0,-12.267587 -10.085278,-22.233331 -22.499997,-22.233331 z"
     id="path2555-6"
     style="color:#000000;display:inline;overflow:visible;visibility:visible;opacity:0.5;fill:#000000;fill-opacity:0;fill-rule:nonzero;stroke:#000000;stroke-width:0.99999958;stroke-linecap:round;stroke-linejoin:round;stroke-miterlimit:4;stroke-dasharray:none;stroke-dashoffset:0;stroke-opacity:1;marker:none;enable-background:accumulate"
     inkscape:connector-curvature="0" />
  <path
     d="m 24.000001,1.9975568 c -3.371233,0 -6.574013,0.7622096 -9.422837,2.1198338 L 22.723703,21.183389 8.4944031,8.4107224 C 4.6415058,12.285608 2.2758635,17.610389 2.2758635,23.46422 c 0,1.547806 0.1729406,3.052614 0.4887936,4.507999 L 24.217237,22.498226 23.864228,22.203056 37.71336,6.8275559 C 33.972461,3.8137627 29.196378,1.9975568 24.000001,1.9975568 Z M 44.936634,17.72189 23.592668,22.766556 23.674152,22.82021 5.1271513,34.090211 C 8.8704765,40.564586 15.922664,44.930889 24,44.930887 c 0.612194,0 1.21994,-0.03127 1.819396,-0.08049 -0.78085,-8.840113 -1.928409,-21.600096 -1.955161,-21.896008 l 17.243534,13.711837 c 2.886063,-3.64426 4.616374,-8.22205 4.616371,-13.202003 0,-1.986943 -0.274802,-3.915402 -0.7875,-5.742333 z"
     inkscape:connector-curvature="0"
     id="path4004"
     style="fill:#000000;fill-opacity:0.04255317;stroke:none" />
  <path
     d="m 24.000001,1.9975568 c -2.613055,0 -5.118807,0.4769477 -7.440526,1.3148338 l 6.164228,17.8709984 -15.8314602,-10.948 c -2.8938914,3.646889 -4.6163793,8.241423 -4.6163793,13.228831 0,1.027288 0.075638,2.043143 0.2172412,3.03217 L 24.217237,22.498226 23.864228,22.203056 35.948274,5.5663905 C 32.517135,3.3242326 28.41623,1.9975568 24.000001,1.9975568 Z m 21.316805,17.3611642 -21.724138,3.407835 0.08148,0.05362 L 6.5935354,36.29051 C 10.557328,41.525953 16.882942,44.93085 24,44.930846 c 0.173479,0 0.343435,0.0044 0.515943,0 -0.258767,-8.914035 -0.625066,-21.681823 -0.651715,-21.976488 l 18.031037,12.638509 c 2.404238,-3.454398 3.828873,-7.624709 3.828873,-12.128672 0,-1.405364 -0.145674,-2.775068 -0.407325,-4.105498 z"
     inkscape:connector-curvature="0"
     id="path4004-0"
     style="fill:#000000;fill-opacity:0.04787233;stroke:none" />
  <path
     d="m 24.000001,1.9975568 c -1.97176,0 -3.885875,0.2635387 -5.70259,0.7513335 L 23.782765,22.444559 34.020266,4.4393908 C 31.019673,2.8918479 27.615215,1.9975568 24.000001,1.9975568 Z M 5.5073286,12.19422 c -2.0484034,3.274833 -3.2314651,7.14209 -3.2314651,11.27 0,0.496515 0.020637,0.987673 0.054307,1.475839 L 23.891374,22.578721 5.5073286,12.194219 Z M 45.58836,21.022385 23.91853,22.310389 42.628443,34.519553 c 1.96622,-3.227891 3.095694,-7.017919 3.095691,-11.055333 0,-0.823424 -0.04411,-1.642377 -0.135773,-2.441835 z M 24.027165,22.471389 8.6573299,38.678725 c 3.7863341,3.728291 8.9716121,6.057289 14.6909461,6.225336 l 0.678889,-22.432672 z"
     inkscape:connector-curvature="0"
     id="path3893-7"
     style="fill:#000000;fill-opacity:0.05851063;stroke:none" />
  <path
     d="m 24.000001,1.9975568 c -1.190542,0 -2.364176,0.085743 -3.503025,0.2683336 L 23.782765,22.444559 31.875002,3.4733909 C 29.431284,2.5313854 26.778732,1.9975568 24.000001,1.9975568 Z M 4.5025881,13.992057 c -1.3750976,2.757433 -2.1735467,5.8572 -2.2267246,9.123335 L 23.891374,22.578721 4.5025881,13.992057 Z M 23.91853,22.310392 43.361635,33.204727 c 1.509996,-2.923023 2.3625,-6.237154 2.362499,-9.740507 0,-0.29796 -0.01495,-0.590466 -0.02723,-0.885499 L 23.918519,22.310392 Z m 0.108635,0.160998 -12.572856,18.488163 c 3.056035,2.146091 6.677136,3.548085 10.617667,3.890842 l 1.955189,-22.379006 z"
     inkscape:connector-curvature="0"
     id="path3893-7-5"
     style="fill:#000000;fill-opacity:0.06382979;stroke:none" />
  <path
     d="m 24.000001,1.9975568 c -0.547901,0 -1.091509,0.014192 -1.629307,0.053637 L 23.782765,22.444529 29.2681,2.6415345 C 27.581324,2.2255214 25.816088,1.9975402 24.000001,1.9975402 Z M 3.660777,15.95089 C 3.0197952,17.642723 2.5739056,19.428268 2.3844843,21.290724 L 23.891374,22.578721 3.660777,15.950888 Z m 20.257753,6.359502 20.121993,9.445335 c 0.961907,-2.26277 1.536935,-4.721791 1.656456,-7.29867 L 23.91853,22.310392 Z m 0.108635,0.160998 -9.477164,20.312833 c 1.875706,0.897792 3.900617,1.54526 6.02844,1.878334 l 3.448724,-22.191168 z"
     inkscape:connector-curvature="0"
     id="path3893"
     style="fill:#000000;fill-opacity:0.10106381;stroke:none" />
  <path
     d="M 24.135776,1.9975568 23.782765,22.444559 27.06853,2.2122252 C 26.111613,2.078438 25.128311,2.0036271 24.135776,1.9975568 Z M 3.1448283,17.453559 c -0.2450235,0.830624 -0.4547629,1.680425 -0.5974129,2.549168 l 21.3439586,2.575994 z m 20.7737017,4.856833 20.692243,7.888997 c 0.39411,-1.177168 0.712902,-2.392233 0.896124,-3.649332 z m 0.108635,0.160998 -8.037938,20.930002 c 0.486856,0.192154 0.990195,0.378802 1.493538,0.536665 0.44528,0.138385 0.900663,0.265398 1.35776,0.37567 0.117901,0.02871 0.234359,0.05375 0.353004,0.08049 z"
     inkscape:connector-curvature="0"
     id="path3893-9"
     style="fill:#000000;fill-opacity:0.0851064;stroke:none" />
  <path
     d="m 44.948273,23.464374 c 0,11.432666 -9.379548,20.700737 -20.94801,20.700737 -11.569522,0 -20.9485395,-9.268174 -20.9485395,-20.700737 0,-11.432134 9.3790175,-20.6992653 20.9485395,-20.6992653 11.568462,0 20.94801,9.2671313 20.94801,20.6992653 l 0,0 z"
     id="path8655"
     style="color:#000000;display:inline;overflow:visible;visibility:visible;opacity:0.8;fill:none;stroke:url(#linearGradient3089);stroke-width:0.99999958;stroke-linecap:round;stroke-linejoin:round;stroke-miterlimit:4;stroke-dasharray:none;stroke-dashoffset:0;stroke-opacity:1;marker:none;enable-background:accumulate"
     inkscape:connector-curvature="0" />
  <g
     inkscape:groupmode="layer"
     id="layer1"
     inkscape:label="Layer 1"
     transform="translate(0,16)" />
  <g
     id="layer6"
     transform="matrix(0.3813386,0,0,0.38236205,5.6927236,4.6689784)"
     style="opacity:0.8">
    <path
       d="m 48,23.980034 c -13.254834,0 -24,8.791499 -24,19.636363 0,6.907955 4.363462,12.977064 10.954545,16.477273 -0.250636,1.824549 -1.39201,6.290776 -6.795454,7.818182 6.998484,0.760599 11.646255,-2.651859 14.113636,-5.227273 1.835278,0.367637 3.753504,0.568182 5.727273,0.568182 13.254834,0 24,-8.7915 24,-19.636364 C 72,32.771533 61.254834,23.980034 48,23.980034 Z m 2.022727,6.545454 c 0.897653,2.6e-5 1.663756,0.310675 2.295455,0.909091 0.642758,0.598466 0.954534,1.316864 0.954545,2.159091 -1.1e-5,0.842274 -0.311787,1.560671 -0.954545,2.159091 -0.631699,0.587379 -1.397802,0.886383 -2.295455,0.886364 -0.89767,1.9e-5 -1.675419,-0.298985 -2.318182,-0.886364 -0.642776,-0.59842 -0.954551,-1.316817 -0.954545,-2.159091 -6e-6,-0.842227 0.311769,-1.560625 0.954545,-2.159091 0.642763,-0.598416 1.420512,-0.909065 2.318182,-0.909091 z m -3.045454,8.863637 c 1.318779,1.6e-5 2.336182,0.334518 3.045454,0.977272 0.720337,0.631703 1.068171,1.457721 1.068182,2.477273 -1.4e-5,0.210577 -0.01278,0.581701 -0.06818,1.113637 -0.04433,0.531959 -0.13975,1.011266 -0.272727,1.454545 l -1.363636,4.840909 c -0.110831,0.387882 -0.206805,0.819484 -0.295455,1.318182 -0.08867,0.498705 -0.136372,0.881475 -0.136364,1.136364 -8e-6,0.642777 0.143672,1.085458 0.431819,1.318181 0.28813,0.232731 0.790726,0.340909 1.5,0.340909 0.332457,0 0.715227,-0.04825 1.136363,-0.15909 0.421114,-0.121909 0.72068,-0.229517 0.909091,-0.318182 l -0.363636,1.5 c -1.097154,0.432204 -1.982521,0.755627 -2.636364,0.977272 -0.653861,0.232731 -1.408318,0.34091 -2.272727,0.34091 -1.329875,0 -2.37113,-0.311775 -3.113636,-0.954546 -0.731432,-0.653849 -1.090912,-1.47987 -1.09091,-2.477273 -2e-6,-0.387875 0.03549,-0.78285 0.09091,-1.181818 0.05541,-0.410033 0.128093,-0.876573 0.25,-1.386363 l 1.363636,-4.84091 c 0.1219,-0.465443 0.217875,-0.908127 0.295454,-1.318181 0.08865,-0.421114 0.13636,-0.792802 0.136364,-1.136364 -4e-6,-0.620593 -0.131476,-1.051631 -0.386364,-1.295455 C 44.94965,41.872602 44.470343,41.730048 43.75,41.730034 c -0.354634,1.4e-5 -0.714114,0.07102 -1.090909,0.181818 -0.365715,0.110837 -0.688572,0.218456 -0.954546,0.318182 l 0.363637,-1.5 c 0.89766,-0.365699 1.77082,-0.676911 2.590909,-0.931818 0.820082,-0.265958 1.586748,-0.409075 2.318182,-0.409091 z"
       inkscape:connector-curvature="0"
       id="path3620"
       style="display:inline;opacity:0.8;fill:url(#linearGradient3109);fill-opacity:1;stroke:none" />
    <path
       d="m 50.03125,30.53125 c -0.89767,2.6e-5 -1.669737,0.307834 -2.3125,0.90625 -0.642776,0.598466 -0.968756,1.314023 -0.96875,2.15625 -10e-7,0.177685 0.03457,0.333304 0.0625,0.5 0.104465,-0.623465 0.399073,-1.184036 0.90625,-1.65625 0.642763,-0.598416 1.41483,-0.906224 2.3125,-0.90625 0.897653,2.6e-5 1.649551,0.307834 2.28125,0.90625 0.507162,0.472214 0.801777,1.032785 0.90625,1.65625 0.02793,-0.166696 0.0625,-0.322315 0.0625,-0.5 -1.1e-5,-0.842227 -0.325992,-1.557784 -0.96875,-2.15625 -0.631699,-0.598416 -1.383597,-0.906224 -2.28125,-0.90625 z m -3.0625,8.84375 c -0.731434,1.6e-5 -1.492418,0.171542 -2.3125,0.4375 -0.820089,0.254907 -1.69609,0.540551 -2.59375,0.90625 l -0.34375,1.5 c 0.07181,-0.02693 0.17017,-0.06576 0.25,-0.09375 l 0.09375,-0.40625 c 0.89766,-0.365699 1.773661,-0.651343 2.59375,-0.90625 0.820082,-0.265958 1.581066,-0.437484 2.3125,-0.4375 1.318779,1.6e-5 2.353228,0.357246 3.0625,1 0.626409,0.549333 0.951995,1.251043 1.03125,2.09375 0.01299,-0.216039 0.03124,-0.508049 0.03125,-0.625 -1.1e-5,-1.019552 -0.342163,-1.837047 -1.0625,-2.46875 -0.709272,-0.642754 -1.743721,-0.999984 -3.0625,-1 z m -1.40625,4.59375 c -0.02291,0.180196 -0.05159,0.393489 -0.09375,0.59375 -0.07758,0.410054 -0.1906,0.847057 -0.3125,1.3125 l -1.375,4.84375 c -0.121907,0.50979 -0.19459,0.964967 -0.25,1.375 -0.05542,0.398968 -0.0625,0.799625 -0.0625,1.1875 0,0.130055 0.019,0.250774 0.03125,0.375 0.01566,-0.186891 0.005,-0.373486 0.03125,-0.5625 0.05541,-0.410033 0.128093,-0.86521 0.25,-1.375 l 1.375,-4.84375 c 0.1219,-0.465443 0.234921,-0.902446 0.3125,-1.3125 0.08865,-0.421114 0.124996,-0.812688 0.125,-1.15625 -10e-7,-0.155148 -0.01494,-0.30601 -0.03125,-0.4375 z M 24.03125,44 C 24.023588,44.203997 24,44.419482 24,44.625 24,51.468354 28.293263,57.485076 34.78125,61 34.85799,60.664285 34.934333,60.344292 34.96875,60.09375 28.498438,56.657677 24.187523,50.750629 24.03125,44 Z M 72,44.125 C 71.671753,54.735858 61.047929,63.25 48,63.25 46.026231,63.25 44.116528,63.055137 42.28125,62.6875 40.083739,64.981228 36.151864,67.917776 30.375,68 c -0.646192,0.358057 -1.379604,0.669046 -2.21875,0.90625 6.998484,0.760599 11.657619,-2.643336 14.125,-5.21875 1.835278,0.367637 3.744981,0.5625 5.71875,0.5625 13.254834,0 24,-8.780136 24,-19.625 0,-0.164165 0.0049,-0.336799 0,-0.5 z m -23,9.1875 c -0.01141,0.120107 -0.03125,0.316993 -0.03125,0.40625 -8e-6,0.642777 0.118103,1.079777 0.40625,1.3125 0.28813,0.232731 0.790726,0.34375 1.5,0.34375 0.332457,0 0.735114,-0.04541 1.15625,-0.15625 0.292416,-0.08465 0.446319,-0.180693 0.625,-0.25 L 52.9375,53.875 c -0.188411,0.08866 -0.485136,0.221841 -0.90625,0.34375 -0.421136,0.11084 -0.823793,0.15625 -1.15625,0.15625 -0.709274,0 -1.21187,-0.111019 -1.5,-0.34375 C 49.188552,53.880665 49.065687,53.636226 49,53.3125 Z"
       inkscape:connector-curvature="0"
       id="path3932"
       style="display:inline;opacity:0.6;fill:#ffffff;fill-opacity:1;stroke:none" />
    <path
       d="m 48,24.980034 c -13.254834,0 -24,8.791499 -24,19.636363 0,6.907955 4.363462,12.977064 10.954545,16.477273 -0.250636,1.824549 -1.39201,6.290776 -6.795454,7.818182 6.998484,0.760599 11.646255,-2.651859 14.113636,-5.227273 1.835278,0.367637 3.753504,0.568182 5.727273,0.568182 13.254834,0 24,-8.7915 24,-19.636364 C 72,33.771533 61.254834,24.980034 48,24.980034 Z m 2.022727,6.545454 c 0.897653,2.6e-5 1.663756,0.310675 2.295455,0.909091 0.642758,0.598466 0.954534,1.316864 0.954545,2.159091 -1.1e-5,0.842274 -0.311787,1.560671 -0.954545,2.159091 -0.631699,0.587379 -1.397802,0.886383 -2.295455,0.886364 -0.89767,1.9e-5 -1.675419,-0.298985 -2.318182,-0.886364 -0.642776,-0.59842 -0.954551,-1.316817 -0.954545,-2.159091 -6e-6,-0.842227 0.311769,-1.560625 0.954545,-2.159091 0.642763,-0.598416 1.420512,-0.909065 2.318182,-0.909091 z m -3.045454,8.863637 c 1.318779,1.6e-5 2.336182,0.334518 3.045454,0.977272 0.720337,0.631703 1.068171,1.457721 1.068182,2.477273 -1.4e-5,0.210577 -0.01278,0.581701 -0.06818,1.113637 -0.04433,0.531959 -0.13975,1.011266 -0.272727,1.454545 l -1.363636,4.840909 c -0.110831,0.387882 -0.206805,0.819484 -0.295455,1.318182 -0.08867,0.498705 -0.136372,0.881475 -0.136364,1.136364 -8e-6,0.642777 0.143672,1.085458 0.431819,1.318181 0.28813,0.232731 0.790726,0.340909 1.5,0.340909 0.332457,0 0.715227,-0.04825 1.136363,-0.15909 0.421114,-0.121909 0.72068,-0.229517 0.909091,-0.318182 l -0.363636,1.5 c -1.097154,0.432204 -1.982521,0.755627 -2.636364,0.977272 -0.653861,0.232731 -1.408318,0.34091 -2.272727,0.34091 -1.329875,0 -2.37113,-0.311775 -3.113636,-0.954546 -0.731432,-0.653849 -1.090912,-1.47987 -1.09091,-2.477273 -2e-6,-0.387875 0.03549,-0.78285 0.09091,-1.181818 0.05541,-0.410033 0.128093,-0.876573 0.25,-1.386363 l 1.363636,-4.84091 c 0.1219,-0.465443 0.217875,-0.908127 0.295454,-1.318181 0.08865,-0.421114 0.13636,-0.792802 0.136364,-1.136364 -4e-6,-0.620593 -0.131476,-1.051631 -0.386364,-1.295455 C 44.94965,42.872602 44.470343,42.730048 43.75,42.730034 c -0.354634,1.4e-5 -0.714114,0.07102 -1.090909,0.181818 -0.365715,0.110837 -0.688572,0.218456 -0.954546,0.318182 l 0.363637,-1.5 c 0.89766,-0.365699 1.77082,-0.676911 2.590909,-0.931818 0.820082,-0.265958 1.586748,-0.409075 2.318182,-0.409091 z"
       inkscape:connector-curvature="0"
       clip-path="url(#clipPath3945)"
       id="path3941"
       style="display:inline;opacity:0.4;fill:none;stroke:#000000;stroke-width:5.23765898;stroke-miterlimit:4;stroke-dasharray:none;filter:url(#filter3951)" />
  </g>
</svg>
