<?xml version="1.0" encoding="UTF-8" standalone="no"?>
<!-- Created with Inkscape (http://www.inkscape.org/) -->

<svg
   xmlns:dc="http://purl.org/dc/elements/1.1/"
   xmlns:cc="http://creativecommons.org/ns#"
   xmlns:rdf="http://www.w3.org/1999/02/22-rdf-syntax-ns#"
   xmlns:svg="http://www.w3.org/2000/svg"
   xmlns="http://www.w3.org/2000/svg"
   xmlns:xlink="http://www.w3.org/1999/xlink"
   xmlns:sodipodi="http://sodipodi.sourceforge.net/DTD/sodipodi-0.dtd"
   xmlns:inkscape="http://www.inkscape.org/namespaces/inkscape"
   version="1.1"
   width="48"
   height="48"
   id="svg3554"
   inkscape:version="0.91 r"
   sodipodi:docname="media-import-audio-cd.svg">
  <sodipodi:namedview
     pagecolor="#ffffff"
     bordercolor="#666666"
     borderopacity="1"
     objecttolerance="10"
     gridtolerance="10"
     guidetolerance="10"
     inkscape:pageopacity="0"
     inkscape:pageshadow="2"
     inkscape:window-width="1786"
     inkscape:window-height="1181"
     id="namedview90"
     showgrid="false"
     inkscape:zoom="3.6875"
     inkscape:cx="-32.075406"
     inkscape:cy="32"
     inkscape:window-x="461"
     inkscape:window-y="47"
     inkscape:window-maximized="0"
     inkscape:current-layer="svg3554" />
  <defs
     id="defs3556">
    <linearGradient
       x1="71.204407"
       y1="6.2375584"
       x2="71.204407"
       y2="44.340794"
       id="linearGradient3162"
       xlink:href="#linearGradient4011-7"
       gradientUnits="userSpaceOnUse"
       gradientTransform="matrix(0.72972967,0,0,0.72972967,-4.346076,29.49607)" />
    <linearGradient
       id="linearGradient4011-7">
      <stop
         id="stop4013-1"
         style="stop-color:#ffffff;stop-opacity:1"
         offset="0" />
      <stop
         id="stop4015-0"
         style="stop-color:#ffffff;stop-opacity:0.23529412"
         offset="0.507761" />
      <stop
         id="stop4017-1"
         style="stop-color:#ffffff;stop-opacity:0.15686275"
         offset="0.83456558" />
      <stop
         id="stop4019-5"
         style="stop-color:#ffffff;stop-opacity:0.39215687"
         offset="1" />
    </linearGradient>
    <radialGradient
       cx="6.1596723"
       cy="8.4497671"
       r="19.99999"
       fx="6.1596723"
       fy="8.4497671"
       id="radialGradient3165"
       xlink:href="#linearGradient2867-449-88-871-390-598-476-591-434-148-57-177-3-8"
       gradientUnits="userSpaceOnUse"
       gradientTransform="matrix(4.5367027e-8,1.7632481,-1.8653063,0,63.761488,20.748948)" />
    <linearGradient
       id="linearGradient2867-449-88-871-390-598-476-591-434-148-57-177-3-8">
      <stop
         id="stop3750-8-9"
         style="stop-color:#90dbec;stop-opacity:1"
         offset="0" />
      <stop
         id="stop3752-3-2"
         style="stop-color:#55c1ec;stop-opacity:1"
         offset="0.26238" />
      <stop
         id="stop3754-7-2"
         style="stop-color:#3689e6;stop-opacity:1"
         offset="0.704952" />
      <stop
         id="stop3756-9-3"
         style="stop-color:#2b63a0;stop-opacity:1"
         offset="1" />
    </linearGradient>
    <linearGradient
       x1="24"
       y1="44"
       x2="24"
       y2="3.8990016"
       id="linearGradient3167"
       xlink:href="#linearGradient3707-319-631-407-324-3-8"
       gradientUnits="userSpaceOnUse"
       gradientTransform="matrix(0.74365873,0,0,0.74365873,30.152194,30.15219)" />
    <linearGradient
       id="linearGradient3707-319-631-407-324-3-8">
      <stop
         id="stop3760-7-3"
         style="stop-color:#185f9a;stop-opacity:1"
         offset="0" />
      <stop
         id="stop3762-8-4"
         style="stop-color:#599ec9;stop-opacity:1"
         offset="1" />
    </linearGradient>
    <radialGradient
       cx="62.625"
       cy="4.625"
       r="10.625"
       fx="62.625"
       fy="4.625"
       id="radialGradient3170"
       xlink:href="#linearGradient8838"
       gradientUnits="userSpaceOnUse"
       gradientTransform="matrix(1.5058824,0,0,0.37647,-46.305886,58.258824)" />
    <linearGradient
       id="linearGradient8838">
      <stop
         id="stop8840"
         style="stop-color:#000000;stop-opacity:1"
         offset="0" />
      <stop
         id="stop8842"
         style="stop-color:#000000;stop-opacity:0"
         offset="1" />
    </linearGradient>
    <radialGradient
       cx="23.334524"
       cy="41.63604"
       r="22.627417"
       fx="23.334524"
       fy="41.63604"
       id="radialGradient4130"
       xlink:href="#linearGradient23419"
       gradientUnits="userSpaceOnUse"
       gradientTransform="matrix(1.712112,0,0,0.50155764,4.4611238,50.461255)" />
    <linearGradient
       id="linearGradient23419">
      <stop
         id="stop23421"
         style="stop-color:#000000;stop-opacity:1"
         offset="0" />
      <stop
         id="stop23423"
         style="stop-color:#000000;stop-opacity:0"
         offset="1" />
    </linearGradient>
    <linearGradient
       x1="12.2744"
       y1="32.4165"
       x2="35.391201"
       y2="14.2033"
       id="linearGradient3070"
       xlink:href="#linearGradient3263-6"
       gradientUnits="userSpaceOnUse"
       gradientTransform="matrix(0,2.0983391,-2.0992672,0,92.905509,-7.7248712)" />
    <linearGradient
       x1="12.2744"
       y1="32.4165"
       x2="35.391201"
       y2="14.2033"
       id="linearGradient3263-6"
       gradientUnits="userSpaceOnUse">
      <stop
         id="stop3265-8"
         style="stop-color:#dedcde;stop-opacity:1"
         offset="0" />
      <stop
         id="stop3267-9"
         style="stop-color:#f0f0f0;stop-opacity:1"
         offset="0.5" />
      <stop
         id="stop3269-2"
         style="stop-color:#d2d2d2;stop-opacity:1"
         offset="1" />
    </linearGradient>
    <linearGradient
       x1="-21.915663"
       y1="3"
       x2="-21.915663"
       y2="45.032898"
       id="linearGradient3072"
       xlink:href="#linearGradient3772-6"
       gradientUnits="userSpaceOnUse"
       gradientTransform="matrix(1.7920413,0,0,1.7912495,91.48051,-0.35470369)" />
    <linearGradient
       id="linearGradient3772-6">
      <stop
         id="stop3774-6"
         style="stop-color:#b4b4b4;stop-opacity:1"
         offset="0" />
      <stop
         id="stop3776-4"
         style="stop-color:#969696;stop-opacity:1"
         offset="1" />
    </linearGradient>
    <linearGradient
       x1="21.448364"
       y1="15.5"
       x2="21.448364"
       y2="32.509201"
       id="linearGradient3067"
       xlink:href="#linearGradient3428"
       gradientUnits="userSpaceOnUse"
       gradientTransform="matrix(1.7533494,0,0,1.7525748,2.3320584,0.57348827)" />
    <linearGradient
       id="linearGradient3428">
      <stop
         id="stop3430"
         style="stop-color:#aaaaaa;stop-opacity:1"
         offset="0" />
      <stop
         id="stop3432"
         style="stop-color:#d4d4d4;stop-opacity:1"
         offset="1" />
    </linearGradient>
    <linearGradient
       x1="20.580074"
       y1="10.774516"
       x2="24.27351"
       y2="9.8622112"
       id="linearGradient2477"
       xlink:href="#linearGradient3487"
       gradientUnits="userSpaceOnUse"
       spreadMethod="reflect"
       gradientTransform="matrix(1.3358846,-1.6663153e-5,-1.6663153e-5,1.3352953,1.4721366,-0.32244214)" />
    <linearGradient
       id="linearGradient3487">
      <stop
         id="stop3489"
         style="stop-color:#e6cde2;stop-opacity:1"
         offset="0" />
      <stop
         id="stop3491"
         style="stop-color:#e6cde2;stop-opacity:0"
         offset="1" />
    </linearGradient>
    <linearGradient
       x1="17.494959"
       y1="11.200086"
       x2="21.047453"
       y2="9.7956104"
       id="linearGradient2479"
       xlink:href="#linearGradient3495"
       gradientUnits="userSpaceOnUse"
       spreadMethod="reflect"
       gradientTransform="matrix(1.3358849,0,0,1.3352949,1.2480857,-0.05580901)" />
    <linearGradient
       id="linearGradient3495">
      <stop
         id="stop3497"
         style="stop-color:#c1cbe4;stop-opacity:1"
         offset="0" />
      <stop
         id="stop3499"
         style="stop-color:#c1cbe4;stop-opacity:0"
         offset="1" />
    </linearGradient>
    <linearGradient
       x1="14.084608"
       y1="13.045606"
       x2="16.994024"
       y2="10.732353"
       id="linearGradient2481"
       xlink:href="#linearGradient3503"
       gradientUnits="userSpaceOnUse"
       spreadMethod="reflect"
       gradientTransform="matrix(1.3358849,0,0,1.3352949,1.2480857,-0.05580901)" />
    <linearGradient
       id="linearGradient3503">
      <stop
         id="stop3505"
         style="stop-color:#c4ebdd;stop-opacity:1"
         offset="0" />
      <stop
         id="stop3507"
         style="stop-color:#c4ebdd;stop-opacity:0"
         offset="1" />
    </linearGradient>
    <linearGradient
       x1="12.371647"
       y1="16.188046"
       x2="14.609327"
       y2="13.461712"
       id="linearGradient2483"
       xlink:href="#linearGradient3511"
       gradientUnits="userSpaceOnUse"
       spreadMethod="reflect"
       gradientTransform="matrix(1.3358849,0,0,1.3352949,1.2480857,-0.05580901)" />
    <linearGradient
       id="linearGradient3511">
      <stop
         id="stop3513"
         style="stop-color:#ebeec7;stop-opacity:1"
         offset="0" />
      <stop
         id="stop3515"
         style="stop-color:#ebeec7;stop-opacity:0"
         offset="1" />
    </linearGradient>
    <linearGradient
       x1="10.609375"
       y1="17.886322"
       x2="9.7297754"
       y2="20.612656"
       id="linearGradient2485"
       xlink:href="#linearGradient3519"
       gradientUnits="userSpaceOnUse"
       spreadMethod="reflect"
       gradientTransform="matrix(1.3358849,0,0,1.3352949,1.2480857,-0.05580901)" />
    <linearGradient
       id="linearGradient3519">
      <stop
         id="stop3521"
         style="stop-color:#fcd9cd;stop-opacity:1"
         offset="0" />
      <stop
         id="stop3523"
         style="stop-color:#fcd9cd;stop-opacity:0"
         offset="1" />
    </linearGradient>
    <linearGradient
       x1="71.204407"
       y1="6.2375584"
       x2="71.204407"
       y2="44.340794"
       id="linearGradient3227"
       xlink:href="#linearGradient4011"
       gradientUnits="userSpaceOnUse"
       gradientTransform="matrix(1.9135655,0,0,1.9127197,-92.854311,-5.8660122)" />
    <linearGradient
       id="linearGradient4011">
      <stop
         id="stop4013"
         style="stop-color:#ffffff;stop-opacity:1"
         offset="0" />
      <stop
         id="stop4015"
         style="stop-color:#ffffff;stop-opacity:0.23529412"
         offset="0.507761" />
      <stop
         id="stop4017"
         style="stop-color:#ffffff;stop-opacity:0.15686275"
         offset="0.83456558" />
      <stop
         id="stop4019"
         style="stop-color:#ffffff;stop-opacity:0.39215687"
         offset="1" />
    </linearGradient>
    <linearGradient
       id="linearGradient6036">
      <stop
         id="stop6038"
         style="stop-color:#ffffff;stop-opacity:1"
         offset="0" />
      <stop
         id="stop6040"
         style="stop-color:#ffffff;stop-opacity:0"
         offset="1" />
    </linearGradient>
    <linearGradient
       x1="18.775953"
       y1="4.0378027"
       x2="18.203465"
       y2="45.962208"
       id="linearGradient3552"
       xlink:href="#linearGradient6036"
       gradientUnits="userSpaceOnUse"
       gradientTransform="matrix(0.77598591,0,0,-0.77564277,25.519516,62.026354)" />
    <linearGradient
       x1="28"
       y1="59"
       x2="73"
       y2="59"
       id="linearGradient3149"
       xlink:href="#linearGradient4281-6"
       gradientUnits="userSpaceOnUse"
       gradientTransform="matrix(0,5.2333634,5.2824005,0,-130.02416,-128.55426)" />
    <linearGradient
       id="linearGradient4281-6">
      <stop
         id="stop4283-9-3"
         style="stop-color:#1e1e1e;stop-opacity:1"
         offset="0" />
      <stop
         id="stop4285-8-0"
         style="stop-color:#505050;stop-opacity:1"
         offset="1" />
    </linearGradient>
    <clipPath
       id="clipPath3974">
      <path
         d="m 24.59375,48.65625 c 0.05509,-0.28337 0.217148,-0.560898 0.4375,-0.78125 L 31.375,41.53125 c 0.587606,-0.587606 1.537394,-0.587606 2.125,0 l 8.5,8.5 L 42,29.5 C 42,28.669 42.669,28 43.5,28 l 9,0 c 0.831,0 1.5,0.669 1.5,1.5 l 0,20.53125 8.5,-8.5 c 0.587606,-0.587606 1.537394,-0.587606 2.125,0 l 6.34375,6.34375 c 0.587606,0.587606 0.587606,1.537394 0,2.125 L 48,73 25.03125,50 c -0.367254,-0.367254 -0.529313,-0.871466 -0.4375,-1.34375 z"
         inkscape:connector-curvature="0"
         id="path3976"
         style="color:#000000;display:inline;overflow:visible;visibility:visible;opacity:0.8;fill:#ff00ff;fill-opacity:1;fill-rule:nonzero;stroke:none;stroke-width:2;marker:none;enable-background:accumulate" />
    </clipPath>
    <filter
       style="color-interpolation-filters:sRGB"
       id="filter3978">
      <feGaussianBlur
         id="feGaussianBlur3980"
         stdDeviation="0.68880677" />
    </filter>
    <linearGradient
       x1="71.204407"
       y1="6.2375584"
       x2="71.204407"
       y2="44.340794"
       id="linearGradient3089"
       xlink:href="#linearGradient4011-7"
       gradientUnits="userSpaceOnUse"
       gradientTransform="matrix(1.1323386,0,0,1.1189189,-57.226666,-4.9067326)" />
    <linearGradient
       inkscape:collect="always"
       xlink:href="#linearGradient4215-4"
       id="linearGradient3163-1"
       gradientUnits="userSpaceOnUse"
       gradientTransform="matrix(0.8910461,0,0,0.88048551,-4.5134735,-6.4705456)"
       x1="38.976662"
       y1="59.967686"
       x2="38.976662"
       y2="8.0928917" />
    <linearGradient
       id="linearGradient4215-4">
      <stop
         offset="0"
         style="stop-color:#dcdcdc;stop-opacity:1"
         id="stop4217-9" />
      <stop
         offset="1"
         style="stop-color:#f0f0f0;stop-opacity:1"
         id="stop4219-7" />
    </linearGradient>
    <radialGradient
       cx="99.157013"
       cy="186.17059"
       r="62.769119"
       fx="99.157013"
       fy="186.17059"
       id="radialGradient3315"
       xlink:href="#linearGradient3820-7-2-2"
       gradientUnits="userSpaceOnUse"
       gradientTransform="matrix(0.27193253,0,0,0.08549854,-2.9640153,26.714434)" />
    <linearGradient
       id="linearGradient3820-7-2-2">
      <stop
         id="stop3822-2-6-36"
         style="stop-color:#3d3d3d;stop-opacity:1"
         offset="0" />
      <stop
         id="stop3864-8-7-6"
         style="stop-color:#686868;stop-opacity:0.49803922"
         offset="0.5" />
      <stop
         id="stop3824-1-2-4"
         style="stop-color:#686868;stop-opacity:0"
         offset="1" />
    </linearGradient>
  </defs>
  <metadata
     id="metadata3559">
    <rdf:RDF>
      <cc:Work
         rdf:about="">
        <dc:format>image/svg+xml</dc:format>
        <dc:type
           rdf:resource="http://purl.org/dc/dcmitype/StillImage" />
        <dc:title></dc:title>
      </cc:Work>
    </rdf:RDF>
  </metadata>
  <g
     id="layer1-6"
     transform="matrix(0.74856722,0,0,0.74889819,-1.2457017,0.07051459)">
    <path
       style="display:inline;overflow:visible;visibility:visible;opacity:0.3;fill:url(#radialGradient4130);fill-opacity:1;fill-rule:evenodd;stroke:none;stroke-width:2;marker:none"
       id="path23417"
       inkscape:connector-curvature="0"
       d="M 61,53.499999 C 61.001449,58.194291 48.017314,62 32,62 15.982686,62 2.9985065,58.194291 3.0000001,53.499999 2.9985065,48.805709 15.982686,45 32,45 c 16.017314,0 29.001493,3.805709 29,8.499999 l 0,0 z" />
    <path
       style="fill:url(#linearGradient3070);fill-opacity:1;fill-rule:nonzero;stroke:url(#linearGradient3072);stroke-width:1.33559012;stroke-miterlimit:4;stroke-opacity:1"
       id="path2781"
       inkscape:connector-curvature="0"
       d="M 59.5,31.999999 C 59.5,16.757004 47.242994,4.5 32,4.5 16.757002,4.5 4.5,16.757005 4.5,31.999999 c -2.6e-6,15.242995 12.257004,27.5 27.5,27.5 15.242992,-3e-6 27.5,-12.257003 27.5,-27.5 z m -17,0 C 42.5,37.537735 37.64854,42.5 32,42.5 26.240655,42.5 21.5,37.425799 21.5,31.999999 21.5,26.463373 26.019041,21.5 32,21.5 c 5.980959,0 10.5,5.073069 10.5,10.499999 z" />
    <path
       style="display:inline;overflow:visible;visibility:visible;fill:#ffffff;fill-opacity:0.49803922;stroke:url(#linearGradient3067);stroke-width:1.33559012;stroke-linecap:butt;stroke-linejoin:round;stroke-miterlimit:4;stroke-dasharray:none;stroke-dashoffset:0;stroke-opacity:1;marker:none;enable-background:accumulate"
       id="path3418"
       inkscape:connector-curvature="0"
       d="m 31.999999,21.499999 c -5.795999,0 -10.5,4.703999 -10.5,10.499999 0,5.795999 4.704001,10.5 10.5,10.5 5.795999,0 10.499999,-4.704001 10.499999,-10.5 0,-5.796 -4.704,-10.499999 -10.499999,-10.499999 z m 0,5.249999 c 2.898,0 5.249999,2.352 5.249999,5.25 0,2.898 -2.351999,5.249999 -5.249999,5.249999 -2.898,0 -5.25,-2.351999 -5.25,-5.249999 0,-2.898 2.352,-5.25 5.25,-5.25 z" />
    <g
       id="g3527"
       transform="matrix(1.3333334,0,0,1.3333334,-1.6000002e-6,0.0588927)">
      <path
         style="opacity:0.8;fill:url(#linearGradient2477);fill-opacity:1;fill-rule:nonzero;stroke:none"
         id="path3296"
         transform="matrix(0.9996011,0.02824295,-0.02824295,0.9996011,0.6924114,-0.6708346)"
         inkscape:connector-curvature="0"
         d="M 15.856928,5.7307748 20.625,16.34375 C 21.660403,15.885186 22.795334,15.625 24,15.625 c 0.03206,0 0.06178,-3.6e-4 0.09375,0 L 24.10801,4.0047512 c -2.94215,-0.070687 -5.543041,0.6572865 -8.251083,1.7260236 l 10e-7,0 z" />
      <path
         style="opacity:0.8;fill:url(#linearGradient2479);fill-opacity:1;fill-rule:nonzero;stroke:none"
         id="path3308"
         inkscape:connector-curvature="0"
         d="m 12.121471,7.9060109 6.931026,9.3601041 c 0.913109,-0.669755 1.965938,-1.167064 3.142629,-1.425169 0.03132,-0.0069 0.06026,-0.01359 0.09157,-0.02009 L 19.857174,4.426276 c -2.888973,0.5613244 -5.31953,1.8556038 -7.735703,3.4797349 l 0,0 z" />
      <path
         style="opacity:0.8;fill:url(#linearGradient2481);fill-opacity:1;fill-rule:nonzero;stroke:none"
         id="path3310"
         inkscape:connector-curvature="0"
         d="m 8.2523933,11.646535 9.2137237,7.155818 c 0.70865,-0.883264 1.596891,-1.636119 2.666685,-2.18998 0.02847,-0.01474 0.05469,-0.02872 0.08325,-0.0431 L 14.86585,6.2506132 C 12.220599,7.5405321 10.165881,9.452393 8.2523933,11.646535 Z" />
      <path
         style="opacity:0.8;fill:url(#linearGradient2483);fill-opacity:1;fill-rule:nonzero;stroke:none"
         id="path3312"
         inkscape:connector-curvature="0"
         d="m 5.6328855,16.073974 c 7.1748065,2.242248 7.8502625,7.031463 12.7767855,1.754127 L 10.499985,9.1321388 C 8.2787249,11.062747 6.9132871,13.459349 5.6328855,16.073974 Z" />
      <path
         style="opacity:0.8;fill:url(#linearGradient2485);fill-opacity:1;fill-rule:nonzero;stroke:none"
         id="path3314"
         inkscape:connector-curvature="0"
         d="M 7.155289,13.193173 C 5.9722117,14.945185 5.2475768,16.829547 4.6301929,18.837116 L 15.96875,21.8125 C 16.184264,21.049497 16.486796,20.297733 16.9375,19.59375 16.95479,19.56675 16.98246,19.52673 17,19.5 L 7.155289,13.193173 Z" />
    </g>
    <path
       style="color:#000000;display:inline;overflow:visible;visibility:visible;opacity:0.55;fill:none;stroke:url(#linearGradient3227);stroke-width:1.33559036;stroke-linecap:round;stroke-linejoin:round;stroke-miterlimit:4;stroke-dasharray:none;stroke-dashoffset:0;stroke-opacity:1;marker:none;enable-background:accumulate"
       id="path8655"
       inkscape:connector-curvature="0"
       d="M 58.500001,31.999061 C 58.500001,46.63508 46.634673,58.5 32.000336,58.5 17.364659,58.5 5.5000001,46.634945 5.5000001,31.999061 c 0,-14.635341 11.8646589,-26.4990586 26.5003359,-26.4990586 14.634337,0 26.499665,11.8637176 26.499665,26.4990586 l 0,0 z" />
    <path
       style="opacity:0.4;fill:none;stroke:url(#linearGradient3552);stroke-width:1.33558989;stroke-miterlimit:4;stroke-opacity:1"
       id="path3281"
       inkscape:connector-curvature="0"
       d="m 31.999999,43.500001 c -6.374286,0 -11.5,-5.125713 -11.5,-11.5 0,-6.374285 5.125714,-11.500001 11.5,-11.500001 6.374289,0 11.5,5.125716 11.5,11.500001 0,6.374287 -5.125711,11.5 -11.5,11.5 l 0,0 0,0 0,0 z" />
  </g>
  <path
     style="display:inline;overflow:visible;visibility:visible;opacity:0.3;fill:url(#radialGradient3170);fill-opacity:1;fill-rule:evenodd;stroke:none;stroke-width:0.99999988;marker:none"
     id="path8836"
     inkscape:connector-curvature="0"
     d="m 46.662603,45.00441 c 0,1.654416 -5.36231,2.99559 -11.977081,2.99559 -6.614758,0 -11.977075,-1.341174 -11.977075,-2.99559 0,-1.654424 5.362317,-2.995598 11.977075,-2.995598 6.614771,0 11.977081,1.341174 11.977081,2.995598 l 0,0 z" />
  <path
     d="m 35.700531,23.02167 c -5.988978,0 -10.854222,4.839634 -10.854222,10.797101 0,5.95748 4.865244,10.797115 10.854222,10.797114 5.988992,0 10.854246,-4.839634 10.85424,-10.797114 0,-5.957467 -4.865248,-10.797101 -10.85424,-10.797101 z"
     id="path2555"
     style="color:#000000;display:inline;overflow:visible;visibility:visible;fill:url(#linearGradient3163-1);fill-opacity:1;fill-rule:nonzero;stroke:none;stroke-width:0.71428573;stroke-linecap:round;stroke-linejoin:round;stroke-miterlimit:4;stroke-dasharray:none;stroke-dashoffset:0;stroke-opacity:1;marker:none;enable-background:accumulate"
     inkscape:connector-curvature="0" />
  <path
     d="m 35.700537,23.021673 c -5.98899,0 -10.854229,4.839637 -10.854229,10.797116 0,5.957473 4.865239,10.797106 10.854229,10.797105 5.988987,0 10.854236,-4.839632 10.854229,-10.797105 0,-5.957479 -4.865242,-10.797116 -10.854229,-10.797116 z"
     id="path2555-6"
     style="color:#000000;display:inline;overflow:visible;visibility:visible;opacity:0.5;fill:#000000;fill-opacity:0;fill-rule:nonzero;stroke:#000000;stroke-width:0.99999958;stroke-linecap:round;stroke-linejoin:round;stroke-miterlimit:4;stroke-dasharray:none;stroke-dashoffset:0;stroke-opacity:1;marker:none;enable-background:accumulate"
     inkscape:connector-curvature="0" />
  <path
     d="m 35.70053,23.393554 c -1.626307,0 -3.171373,0.37015 -4.545678,1.029451 l 3.929986,8.287707 -6.864363,-6.202748 c -1.858664,1.881745 -2.999869,4.467604 -2.999869,7.310379 0,0.751662 0.08336,1.48243 0.235785,2.18921 l 10.348951,-2.65832 -0.170309,-0.143344 6.680976,-7.466759 C 40.51135,24.275552 38.207322,23.393554 35.70053,23.393554 Z m 10.100044,7.636164 -10.296536,2.449825 0.03939,0.02614 -8.947246,5.473014 c 1.805823,3.144128 5.207854,5.264518 9.104442,5.264516 0.295329,0 0.588513,-0.01512 0.877712,-0.03917 -0.37671,-4.292992 -0.930316,-10.489578 -0.943221,-10.633284 l 8.318449,6.658841 c 1.392276,-1.769755 2.226985,-3.992853 2.226984,-6.411254 0,-0.964911 -0.132564,-1.901423 -0.379898,-2.788627 z"
     inkscape:connector-curvature="0"
     id="path4004"
     style="fill:#000000;fill-opacity:0.04255317;stroke:none" />
  <path
     d="m 35.70053,23.393554 c -1.260555,0 -2.469371,0.231618 -3.589369,0.638524 l 2.973677,8.678634 -7.637252,-5.316641 c -1.396051,1.771022 -2.22698,4.002253 -2.22698,6.424272 0,0.498884 0.03649,0.992211 0.104793,1.472505 l 10.479946,-1.941615 -0.17031,-0.143344 5.829467,-8.079209 C 39.809279,24.037825 37.830974,23.393554 35.70053,23.393554 Z m 10.283459,8.431048 -10.479951,1.654941 0.03939,0.02614 -8.239858,6.541555 c 1.912186,2.542474 4.963718,4.195978 8.397054,4.195977 0.08362,0 0.165678,0.0018 0.248909,0 -0.124852,-4.328895 -0.301555,-10.529284 -0.314409,-10.67238 l 8.698348,6.137598 c 1.159828,-1.677549 1.847089,-3.702767 1.847087,-5.890008 0,-0.68249 -0.07019,-1.347654 -0.196484,-1.993742 z"
     inkscape:connector-curvature="0"
     id="path4004-0"
     style="fill:#000000;fill-opacity:0.04787233;stroke:none" />
  <path
     d="m 35.70053,23.393554 c -0.951195,0 -1.874577,0.127987 -2.750978,0.364868 l 2.646192,9.564747 4.938658,-8.743795 c -1.447516,-0.751527 -3.089841,-1.18582 -4.833872,-1.18582 z m -8.92105,4.951778 c -0.988172,1.590344 -1.558874,3.46839 -1.558874,5.473011 0,0.241126 0.0093,0.479646 0.02625,0.716706 L 35.64819,33.388323 26.779533,28.345332 Z m 19.335503,4.287196 -10.453749,0.625486 9.025864,5.929102 c 0.948518,-1.567552 1.49338,-3.408095 1.493378,-5.368773 0,-0.399875 -0.02137,-0.797577 -0.06543,-1.185815 z m -10.401345,0.703673 -7.414566,7.870719 c 1.826553,1.810559 4.328007,2.941582 7.087073,3.023191 l 0.327493,-10.89391 z"
     inkscape:connector-curvature="0"
     id="path3893-7"
     style="fill:#000000;fill-opacity:0.05851063;stroke:none" />
  <path
     d="m 35.70053,23.393554 c -0.574321,0 -1.14049,0.04159 -1.689874,0.130312 l 1.585088,9.799303 3.903768,-9.212909 C 38.320639,23.652799 37.041025,23.393554 35.70053,23.393554 Z m -9.40574,5.824853 c -0.663369,1.339083 -1.048536,2.844415 -1.074184,4.430538 l 10.42754,-0.260622 -9.353356,-4.169916 z m 9.366444,4.039607 9.379544,5.290582 c 0.728446,-1.419494 1.1397,-3.028924 1.139698,-4.730253 0,-0.144695 -0.0066,-0.286745 -0.01314,-0.43002 L 35.661219,33.258014 Z m 0.05243,0.07813 -6.065273,8.978352 c 1.474274,1.042199 3.221115,1.723043 5.122063,1.889493 l 0.943204,-10.867847 z"
     inkscape:connector-curvature="0"
     id="path3893-7-5"
     style="fill:#000000;fill-opacity:0.06382979;stroke:none" />
  <path
     d="m 35.70053,23.393554 c -0.26432,0 -0.526556,0.0064 -0.785989,0.02613 l 0.681203,9.90355 2.646182,-9.616872 C 37.4282,23.504333 36.576634,23.393615 35.70053,23.393615 Z m -9.811836,6.776117 c -0.30923,0.821604 -0.524332,1.688705 -0.615706,2.593163 l 10.375158,0.625489 -9.759452,-3.218653 z m 9.77254,3.088343 9.707034,4.586908 c 0.464056,-1.098857 0.741455,-2.293025 0.799096,-3.54443 l -10.50613,-1.042478 z m 0.05243,0.07813 -4.571867,9.86446 c 0.904841,0.435989 1.881694,0.750421 2.908184,0.912168 l 1.663703,-10.776621 z"
     inkscape:connector-curvature="0"
     id="path3893"
     style="fill:#000000;fill-opacity:0.10106381;stroke:none" />
  <path
     d="m 35.766041,23.393554 -0.170297,9.929615 1.585079,-9.825364 c -0.461631,-0.06488 -0.935987,-0.101266 -1.414782,-0.104262 z m -10.126235,7.50585 c -0.118212,0.403376 -0.219404,0.816064 -0.288226,1.237945 l 10.296566,1.250974 z m 10.021428,2.35861 9.98215,3.831113 c 0.190112,-0.571661 0.343914,-1.161735 0.432303,-1.772214 z m 0.05243,0.07813 -3.877585,10.164174 c 0.234876,0.09335 0.477681,0.183954 0.720498,0.26062 0.214828,0.06726 0.434502,0.128883 0.655005,0.182432 0.05685,0.01391 0.113054,0.02617 0.170285,0.03919 z"
     inkscape:connector-curvature="0"
     id="path3893-9"
     style="fill:#000000;fill-opacity:0.0851064;stroke:none" />
  <path
     d="m 45.806193,33.818428 c 0,5.552014 -4.524788,10.052838 -10.105532,10.052838 -5.581253,0 -10.105787,-4.500873 -10.105787,-10.052838 0,-5.551754 4.524534,-10.052122 10.105787,-10.052122 5.580744,0 10.105532,4.500368 10.105532,10.052122 l 0,0 z"
     id="path8655-1"
     style="color:#000000;display:inline;overflow:visible;visibility:visible;opacity:0.8;fill:none;stroke:url(#linearGradient3089);stroke-width:0.99999958;stroke-linecap:round;stroke-linejoin:round;stroke-miterlimit:4;stroke-dasharray:none;stroke-dashoffset:0;stroke-opacity:1;marker:none;enable-background:accumulate"
     inkscape:connector-curvature="0" />
  <g
     id="layer6"
     transform="matrix(0.18930792,0,0,0.19108172,26.614575,24.564362)"
     style="opacity:0.8">
    <path
       d="m 24.59375,48.65625 c 0.05509,-0.28337 0.217148,-0.560898 0.4375,-0.78125 L 31.375,41.53125 c 0.587606,-0.587606 1.537394,-0.587606 2.125,0 l 8.5,8.5 L 42,29.5 C 42,28.669 42.669,28 43.5,28 l 9,0 c 0.831,0 1.5,0.669 1.5,1.5 l 0,20.53125 8.5,-8.5 c 0.587606,-0.587606 1.537394,-0.587606 2.125,0 l 6.34375,6.34375 c 0.587606,0.587606 0.587606,1.537394 0,2.125 L 48,73 25.03125,50 c -0.367254,-0.367254 -0.529313,-0.871466 -0.4375,-1.34375 z"
       inkscape:connector-curvature="0"
       id="rect3125"
       style="color:#000000;display:inline;overflow:visible;visibility:visible;opacity:0.8;fill:url(#linearGradient3149);fill-opacity:1;fill-rule:nonzero;stroke:none;stroke-width:2;marker:none;enable-background:accumulate" />
    <path
       d="M 71.3125,49.4375 C 71.239873,49.640016 71.131206,49.837544 70.96875,50 L 48,73 25.03125,50 c -0.157919,-0.157919 -0.296832,-0.336111 -0.375,-0.53125 -0.02293,0.06307 -0.05,0.123231 -0.0625,0.1875 C 24.50194,50.128534 24.664,50.632746 25.03125,51 L 48,74 70.96875,51 c 0.42515,-0.42515 0.533817,-1.032512 0.34375,-1.5625 z"
       inkscape:connector-curvature="0"
       id="path3960"
       style="color:#000000;display:inline;overflow:visible;visibility:visible;opacity:0.6;fill:#ffffff;fill-opacity:1;fill-rule:nonzero;stroke:none;stroke-width:2;marker:none;enable-background:accumulate" />
    <path
       d="m 24.59375,49.65625 c 0.05509,-0.28337 0.217148,-0.560898 0.4375,-0.78125 L 31.375,42.53125 c 0.587606,-0.587606 1.537394,-0.587606 2.125,0 l 8.5,8.5 L 42,30.5 C 42,29.669 42.669,29 43.5,29 l 9,0 c 0.831,0 1.5,0.669 1.5,1.5 l 0,20.53125 8.5,-8.5 c 0.587606,-0.587606 1.537394,-0.587606 2.125,0 l 6.34375,6.34375 c 0.587606,0.587606 0.587606,1.537394 0,2.125 L 48,74 25.03125,51 c -0.367254,-0.367254 -0.529313,-0.871466 -0.4375,-1.34375 z"
       inkscape:connector-curvature="0"
       clip-path="url(#clipPath3974)"
       id="path3970"
       style="color:#000000;display:inline;overflow:visible;visibility:visible;opacity:0.4;fill:none;stroke:#000000;stroke-width:10.51564789;marker:none;filter:url(#filter3978);enable-background:accumulate" />
  </g>
</svg>
