<?xml version="1.0" encoding="UTF-8" standalone="no"?>
<!-- Created with Inkscape (http://www.inkscape.org/) -->

<svg
   xmlns:dc="http://purl.org/dc/elements/1.1/"
   xmlns:cc="http://creativecommons.org/ns#"
   xmlns:rdf="http://www.w3.org/1999/02/22-rdf-syntax-ns#"
   xmlns:svg="http://www.w3.org/2000/svg"
   xmlns="http://www.w3.org/2000/svg"
   xmlns:xlink="http://www.w3.org/1999/xlink"
   xmlns:sodipodi="http://sodipodi.sourceforge.net/DTD/sodipodi-0.dtd"
   xmlns:inkscape="http://www.inkscape.org/namespaces/inkscape"
   version="1.1"
   width="32"
   height="32"
   id="svg4248"
   inkscape:version="0.91 r"
   sodipodi:docname="document-page-setup.svg">
  <sodipodi:namedview
     pagecolor="#ffffff"
     bordercolor="#666666"
     borderopacity="1"
     objecttolerance="10"
     gridtolerance="10"
     guidetolerance="10"
     inkscape:pageopacity="0"
     inkscape:pageshadow="2"
     inkscape:window-width="1309"
     inkscape:window-height="1359"
     id="namedview109"
     showgrid="false"
     inkscape:zoom="5.656854"
     inkscape:cx="26.615144"
     inkscape:cy="4.6261508"
     inkscape:window-x="845"
     inkscape:window-y="37"
     inkscape:window-maximized="0"
     inkscape:current-layer="svg4248"
     inkscape:snap-bbox="true"
     inkscape:bbox-paths="true"
     inkscape:bbox-nodes="true"
     inkscape:snap-bbox-edge-midpoints="false"
     inkscape:snap-global="true">
    <inkscape:grid
       type="xygrid"
       id="grid4005" />
  </sodipodi:namedview>
  <defs
     id="defs4250">
    <linearGradient
       id="linearGradient4011-4">
      <stop
         id="stop4013-8"
         style="stop-color:#ffffff;stop-opacity:1"
         offset="0" />
      <stop
         id="stop4015-5"
         style="stop-color:#ffffff;stop-opacity:0.23529412"
         offset="0.507761" />
      <stop
         id="stop4017-6"
         style="stop-color:#ffffff;stop-opacity:0.15686275"
         offset="0.83456558" />
      <stop
         id="stop4019-1"
         style="stop-color:#ffffff;stop-opacity:0.39215687"
         offset="1" />
    </linearGradient>
    <linearGradient
       x1="71.204407"
       y1="6.2375584"
       x2="71.204407"
       y2="44.340794"
       id="linearGradient3089"
       xlink:href="#linearGradient4011-4"
       gradientUnits="userSpaceOnUse"
       gradientTransform="matrix(0.72972965,0,0,0.72556873,-36.346073,-2.3076113)" />
    <linearGradient
       id="linearGradient3820-7-2-2">
      <stop
         id="stop3822-2-6-36"
         style="stop-color:#3d3d3d;stop-opacity:1"
         offset="0" />
      <stop
         id="stop3864-8-7-6"
         style="stop-color:#686868;stop-opacity:0.49803922"
         offset="0.5" />
      <stop
         id="stop3824-1-2-4"
         style="stop-color:#686868;stop-opacity:0"
         offset="1" />
    </linearGradient>
    <radialGradient
       cx="99.157013"
       cy="186.17059"
       r="62.769119"
       fx="99.157013"
       fy="186.17059"
       id="radialGradient3315"
       xlink:href="#linearGradient3820-7-2-2"
       gradientUnits="userSpaceOnUse"
       gradientTransform="matrix(0.17524541,0,0,0.05544197,-1.3768101,18.197298)" />
    <linearGradient
       inkscape:collect="always"
       xlink:href="#linearGradient4215-4"
       id="linearGradient3163-1"
       gradientUnits="userSpaceOnUse"
       gradientTransform="matrix(0.57422967,0,0,0.57095542,-2.3753495,-3.3216748)"
       x1="38.976662"
       y1="59.967686"
       x2="38.976662"
       y2="8.0928917" />
    <linearGradient
       id="linearGradient4215-4">
      <stop
         offset="0"
         style="stop-color:#dcdcdc;stop-opacity:1"
         id="stop4217-9" />
      <stop
         offset="1"
         style="stop-color:#f0f0f0;stop-opacity:1"
         id="stop4219-7" />
    </linearGradient>
    <linearGradient
       id="outerBackgroundGradient">
      <stop
         id="stop3864-8-6"
         offset="0"
         style="stop-color:#a5a5a5;stop-opacity:1;" />
      <stop
         id="stop3866-9-1"
         offset="1"
         style="stop-color:#d1d1d1;stop-opacity:1;" />
    </linearGradient>
    <linearGradient
       gradientTransform="matrix(0.06666667,0,0,0.06666667,414.4,137.33333)"
       y2="40.00005"
       x2="264"
       y1="280.00003"
       x1="264"
       gradientUnits="userSpaceOnUse"
       id="linearGradient4097"
       xlink:href="#outerBackgroundGradient"
       inkscape:collect="always" />
    <linearGradient
       y2="28.571428"
       x2="286.85715"
       y1="302.85715"
       x1="286.85715"
       gradientTransform="matrix(0.0875,0,0,0.0875,414.9,97.5)"
       gradientUnits="userSpaceOnUse"
       id="linearGradient4101"
       xlink:href="#outerBackgroundGradient"
       inkscape:collect="always" />
    <linearGradient
       y2="31.61907"
       x2="283.80957"
       y1="299.80954"
       x1="283.80957"
       gradientTransform="matrix(0.11931818,0,0,0.11931818,414.13636,48.22727)"
       gradientUnits="userSpaceOnUse"
       id="linearGradient4153"
       xlink:href="#outerBackgroundGradient"
       inkscape:collect="always" />
    <linearGradient
       y2="22.857315"
       x2="281.14291"
       y1="297.14304"
       x1="281.14291"
       gradientTransform="matrix(0.175,0,0,-0.175,286.79999,-215.99997)"
       gradientUnits="userSpaceOnUse"
       id="linearGradient4869"
       xlink:href="#outerBackgroundGradient"
       inkscape:collect="always" />
    <clipPath
       id="clipPath4891"
       clipPathUnits="userSpaceOnUse">
      <rect
         transform="matrix(0,1,-1,0,0,0)"
         style="color:#bebebe;display:inline;overflow:visible;visibility:visible;fill:url(#linearGradient4895);fill-opacity:1;fill-rule:nonzero;stroke:none;stroke-width:0;marker:none;enable-background:accumulate"
         id="rect4893"
         width="42"
         height="42"
         x="307"
         y="223"
         ry="9" />
    </clipPath>
    <linearGradient
       y2="40.000172"
       x2="144.00006"
       y1="280.00018"
       x1="144.00006"
       gradientTransform="matrix(0.175,0,0,0.175,302.79999,215.99997)"
       gradientUnits="userSpaceOnUse"
       id="linearGradient4895"
       xlink:href="#outerBackgroundGradient"
       inkscape:collect="always" />
    <clipPath
       id="clipPath4044"
       clipPathUnits="userSpaceOnUse">
      <rect
         style="color:#bebebe;display:inline;overflow:visible;visibility:visible;fill:url(#linearGradient4048);fill-opacity:1;fill-rule:nonzero;stroke:none;stroke-width:0;marker:none;enable-background:accumulate"
         id="rect4046"
         width="22"
         height="22"
         x="433"
         y="85"
         ry="4" />
    </clipPath>
    <linearGradient
       y2="40.000046"
       x2="149.71428"
       y1="291.42862"
       x1="149.71428"
       gradientTransform="matrix(0.0875,0,0,0.0875,430.9,81.499996)"
       gradientUnits="userSpaceOnUse"
       id="linearGradient4048"
       xlink:href="#outerBackgroundGradient"
       inkscape:collect="always" />
    <clipPath
       id="clipPath4089"
       clipPathUnits="userSpaceOnUse">
      <rect
         ry="6"
         y="37"
         x="433"
         height="30"
         width="30"
         id="rect4091"
         style="color:#bebebe;display:inline;overflow:visible;visibility:visible;fill:url(#linearGradient4093);fill-opacity:1;fill-rule:nonzero;stroke:none;stroke-width:0;marker:none;enable-background:accumulate" />
    </clipPath>
    <linearGradient
       y2="40.00005"
       x2="149.71432"
       y1="291.42862"
       x1="149.71432"
       gradientTransform="matrix(0.11931818,0,0,0.11931818,430.13636,32.227267)"
       gradientUnits="userSpaceOnUse"
       id="linearGradient4093"
       xlink:href="#outerBackgroundGradient"
       inkscape:collect="always" />
    <clipPath
       id="clipPath3855"
       clipPathUnits="userSpaceOnUse">
      <rect
         transform="matrix(0,1,-1,0,0,0)"
         ry="3"
         y="212"
         x="304"
         height="16"
         width="16"
         id="rect3857"
         style="color:#bebebe;display:inline;overflow:visible;visibility:visible;fill:url(#linearGradient3859);fill-opacity:1;fill-rule:nonzero;stroke:none;stroke-width:0;marker:none;enable-background:accumulate" />
    </clipPath>
    <linearGradient
       y2="40.00005"
       x2="144"
       y1="280.00003"
       x1="144"
       gradientTransform="matrix(0.06666667,0,0,0.06666667,302.4,209.33333)"
       gradientUnits="userSpaceOnUse"
       id="linearGradient3859"
       xlink:href="#outerBackgroundGradient"
       inkscape:collect="always" />
    <clipPath
       id="clipPath3862"
       clipPathUnits="userSpaceOnUse">
      <rect
         style="color:#bebebe;display:inline;overflow:visible;visibility:visible;fill:url(#linearGradient3866);fill-opacity:1;fill-rule:nonzero;stroke:none;stroke-width:0;marker:none;enable-background:accumulate"
         id="rect3864"
         width="220"
         height="220"
         x="34"
         y="46"
         ry="50" />
    </clipPath>
    <linearGradient
       y2="40"
       x2="144"
       y1="280"
       x1="144"
       gradientTransform="translate(0,-4)"
       gradientUnits="userSpaceOnUse"
       id="linearGradient3866"
       xlink:href="#outerBackgroundGradient"
       inkscape:collect="always" />
    <linearGradient
       y2="32"
       x2="272"
       y1="288"
       x1="272"
       gradientTransform="translate(0,-4)"
       gradientUnits="userSpaceOnUse"
       id="linearGradient3876"
       xlink:href="#outerBackgroundGradient"
       inkscape:collect="always" />
    <clipPath
       id="clipPath4187"
       clipPathUnits="userSpaceOnUse">
      <rect
         style="color:#bebebe;display:inline;overflow:visible;visibility:visible;fill:url(#linearGradient4191);fill-opacity:1;fill-rule:nonzero;stroke:none;stroke-width:0;marker:none;enable-background:accumulate"
         id="rect4189"
         width="60"
         height="60"
         x="290"
         y="142"
         ry="12.5" />
    </clipPath>
    <linearGradient
       y2="140"
       x2="352"
       y1="204"
       x1="352"
       gradientUnits="userSpaceOnUse"
       id="linearGradient4191"
       xlink:href="#outerBackgroundGradient"
       inkscape:collect="always" />
    <linearGradient
       y2="28"
       x2="384"
       y1="124"
       x1="384"
       gradientUnits="userSpaceOnUse"
       id="linearGradient4197"
       xlink:href="#outerBackgroundGradient"
       inkscape:collect="always" />
    <clipPath
       id="clipPath4346"
       clipPathUnits="userSpaceOnUse">
      <rect
         ry="18"
         y="32"
         x="292"
         height="88"
         width="88"
         id="rect4348"
         style="color:#bebebe;display:inline;overflow:visible;visibility:visible;fill:url(#linearGradient4197);fill-opacity:1;fill-rule:nonzero;stroke:none;stroke-width:0;marker:none;enable-background:accumulate" />
    </clipPath>
    <clipPath
       id="clipPath3871"
       clipPathUnits="userSpaceOnUse">
      <rect
         style="color:#bebebe;display:inline;overflow:visible;visibility:visible;fill:url(#linearGradient4101);fill-opacity:1;fill-rule:nonzero;stroke:none;stroke-width:0;marker:none;enable-background:accumulate"
         id="rect3873"
         width="22"
         height="22"
         x="417"
         y="101"
         ry="5" />
    </clipPath>
    <clipPath
       id="clipPath3881"
       clipPathUnits="userSpaceOnUse">
      <rect
         ry="7"
         y="53"
         x="417"
         height="30"
         width="30"
         id="rect3883"
         style="color:#bebebe;display:inline;overflow:visible;visibility:visible;fill:url(#linearGradient4153);fill-opacity:1;fill-rule:nonzero;stroke:none;stroke-width:0;marker:none;enable-background:accumulate" />
    </clipPath>
    <linearGradient
       gradientTransform="matrix(0,-1,1,0,316,540)"
       gradientUnits="userSpaceOnUse"
       y2="112"
       x2="438"
       y1="112"
       x1="418"
       id="linearGradient4258"
       xlink:href="#outerBackgroundGradient"
       inkscape:collect="always" />
    <linearGradient
       y2="40.000008"
       x2="144"
       y1="280"
       x1="144"
       gradientTransform="matrix(0.375,0,0,0.375,14,172)"
       gradientUnits="userSpaceOnUse"
       id="linearGradient4865"
       xlink:href="#outerBackgroundGradient-1"
       inkscape:collect="always" />
    <linearGradient
       id="outerBackgroundGradient-1">
      <stop
         id="stop3864-8-6-2"
         offset="0"
         style="stop-color:#989898;stop-opacity:1;" />
      <stop
         id="stop3866-9-1-5"
         offset="1"
         style="stop-color:#c3c3c3;stop-opacity:1;" />
    </linearGradient>
    <clipPath
       id="clipPath4610"
       clipPathUnits="userSpaceOnUse">
      <path
         inkscape:connector-curvature="0"
         style="color:#bebebe;display:inline;overflow:visible;visibility:visible;fill:url(#linearGradient4614);fill-opacity:1;fill-rule:nonzero;stroke:none;stroke-width:2;marker:none;enable-background:accumulate"
         d="m 75.448164,-5.3337819 c 12.658277,0 22.841991,10.1837123 22.841991,22.8419899 l 0,55.374522 c 0,12.658279 -10.183714,22.841991 -22.841991,22.841991 l -55.374521,0 c -12.6582793,0 -22.8419907,-10.183712 -22.8419907,-22.841991 l 0,-55.374522 c 0,-12.6582776 10.1837114,-22.8419899 22.8419907,-22.8419899 l 55.374521,0 z"
         id="path4612" />
    </clipPath>
    <linearGradient
       y2="156"
       x2="253"
       y1="156"
       x1="35"
       gradientTransform="matrix(0,-0.46145435,-0.46145435,0,119.74778,111.6449)"
       gradientUnits="userSpaceOnUse"
       id="linearGradient4614"
       xlink:href="#outerBackgroundGradient"
       inkscape:collect="always" />
    <linearGradient
       y2="8.0928917"
       x2="38.976662"
       y1="59.967686"
       x1="38.976662"
       gradientTransform="matrix(0.80392158,0,0,0.80392158,-1.72549,-2.3658945)"
       gradientUnits="userSpaceOnUse"
       id="linearGradient3024"
       xlink:href="#linearGradient4215-4"
       inkscape:collect="always" />
    <linearGradient
       inkscape:collect="always"
       xlink:href="#linearGradient4215-4"
       id="linearGradient3849"
       gradientUnits="userSpaceOnUse"
       gradientTransform="matrix(0.80392158,0,0,0.80392158,664.41073,262.76717)"
       x1="38.976662"
       y1="59.967686"
       x2="38.976662"
       y2="8.0928917" />
    <clipPath
       id="clipPath4806"
       clipPathUnits="userSpaceOnUse">
      <path
         inkscape:connector-curvature="0"
         style="color:#bebebe;display:inline;overflow:visible;visibility:visible;fill:#bf5454;fill-opacity:1;fill-rule:nonzero;stroke:none;stroke-width:2;marker:none;enable-background:accumulate"
         d="m 543.90196,-171.40732 c -27.43127,0 -49.5,22.06873 -49.5,49.5 l 0,120 c 0,27.43127 22.06873,49.5 49.5,49.5 l 120,0 c 27.43127,0 49.5,-22.06873 49.5,-49.5 l 0,-120 c 0,-27.43127 -22.06873,-49.5 -49.5,-49.5 l -120,0 z"
         id="path4808" />
    </clipPath>
    <clipPath
       id="clipPath4812"
       clipPathUnits="userSpaceOnUse">
      <path
         inkscape:connector-curvature="0"
         style="color:#bebebe;display:inline;overflow:visible;visibility:visible;fill:#bf5454;fill-opacity:1;fill-rule:nonzero;stroke:none;stroke-width:2;marker:none;enable-background:accumulate"
         d="m 547.65198,-156.00108 c -22.10302,0 -39.84375,17.74073 -39.84375,39.84375 l 0,112.5000018 c 0,22.1030162 17.74073,39.8437502 39.84375,39.8437502 l 112.5,0 c 22.10302,0 39.84375,-17.740734 39.84375,-39.8437502 l 0,-112.5000018 c 0,-22.10302 -17.74073,-39.84375 -39.84375,-39.84375 l -112.5,0 z"
         id="path4814" />
    </clipPath>
    <clipPath
       id="clipPath4840"
       clipPathUnits="userSpaceOnUse">
      <path
         inkscape:connector-curvature="0"
         style="color:#bebebe;display:inline;overflow:visible;visibility:visible;fill:#bf5454;fill-opacity:1;fill-rule:nonzero;stroke:none;stroke-width:2;marker:none;enable-background:accumulate"
         d="m 538.90196,-168.65732 c -24.25637,0 -43.75,19.49363 -43.75,43.75 l 0,130.0000025 c 0,24.2563755 19.49363,43.7500005 43.75,43.7500005 l 130,0 c 24.25637,0 43.75,-19.493625 43.75,-43.7500005 l 0,-130.0000025 c 0,-24.25637 -19.49363,-43.75 -43.75,-43.75 l -130,0 z"
         id="path4842" />
    </clipPath>
    <clipPath
       id="clipPath4888"
       clipPathUnits="userSpaceOnUse">
      <path
         inkscape:connector-curvature="0"
         style="color:#bebebe;display:inline;overflow:visible;visibility:visible;fill:#bf5454;fill-opacity:1;fill-rule:nonzero;stroke:none;stroke-width:2;marker:none;enable-background:accumulate"
         d="m 541.402,-166.15737 c -17.305,0 -31.25,13.945 -31.25,31.25 l 0,124.999995 c 0,17.305 13.945,31.25 31.25,31.25 l 125,0 c 17.305,0 31.25,-13.945 31.25,-31.25 l 0,-124.999995 c 0,-17.305 -13.945,-31.25 -31.25,-31.25 l -125,0 z"
         id="path4890" />
    </clipPath>
    <clipPath
       id="clipPath4894"
       clipPathUnits="userSpaceOnUse">
      <path
         inkscape:connector-curvature="0"
         style="color:#bebebe;display:inline;overflow:visible;visibility:visible;fill:#bf5454;fill-opacity:1;fill-rule:nonzero;stroke:none;stroke-width:2;marker:none;enable-background:accumulate"
         d="m 543.902,-164.9073 c -24.9699,0 -45,20.0301 -45,45 l 0,120 c 0,24.9699 20.0301,45 45,45 l 120,0 c 24.9699,0 45,-20.0301 45,-45 l 0,-120 c 0,-24.9699 -20.0301,-45 -45,-45 l -120,0 z"
         id="path4896" />
    </clipPath>
    <clipPath
       id="clipPath4900"
       clipPathUnits="userSpaceOnUse">
      <path
         inkscape:connector-curvature="0"
         style="color:#bebebe;display:inline;overflow:visible;visibility:visible;fill:#bf5454;fill-opacity:1;fill-rule:nonzero;stroke:none;stroke-width:2;marker:none;enable-background:accumulate"
         d="m 543.90196,-164.90732 c -27.04905,0 -48.75,21.70098 -48.75,48.75 l 0,120.0000051 c 0,27.0490209 21.70095,48.7500009 48.75,48.7500009 l 120.00001,0 c 27.04905,0 48.75,-21.70098 48.75,-48.7500009 l 0,-120.0000051 c 0,-27.04902 -21.70095,-48.75 -48.75,-48.75 l -120.00001,0 z"
         id="path4902" />
    </clipPath>
    <clipPath
       id="clipPath4906"
       clipPathUnits="userSpaceOnUse">
      <path
         inkscape:connector-curvature="0"
         style="color:#bebebe;display:inline;overflow:visible;visibility:visible;fill:#bf5454;fill-opacity:1;fill-rule:nonzero;stroke:none;stroke-width:2;marker:none;enable-background:accumulate"
         d="m 537.05819,-167.62264 c -24.95632,0 -45,20.04368 -45,45 l 0,131.2500024 c 0,24.9563246 20.04368,44.9999996 45,44.9999996 l 131.25,0 c 24.95633,0 45,-20.043675 45,-44.9999996 l 0,-131.2500024 c 0,-24.95632 -20.04367,-45 -45,-45 l -131.25,0 z"
         id="path4908" />
    </clipPath>
    <linearGradient
       x1="45"
       y1="24"
       x2="45"
       y2="76"
       id="linearGradient3932"
       xlink:href="#linearGradient4281-6"
       gradientUnits="userSpaceOnUse"
       gradientTransform="matrix(1.6666667,0,0,1.6666667,-1.9943043,-8.6992225)" />
    <linearGradient
       id="linearGradient4281-6">
      <stop
         id="stop4283-9"
         style="stop-color:#1e1e1e;stop-opacity:1"
         offset="0" />
      <stop
         id="stop4285-8"
         style="stop-color:#505050;stop-opacity:1"
         offset="1" />
    </linearGradient>
    <clipPath
       id="clipPath3955">
      <path
         d="M 31.5,22 C 29.561,22 28,23.561 28,25.5 l 0,18.5 0,4 0,18.5 c 0,1.939 1.561,3.5 3.5,3.5 l 18.5,0 14.5,0 c 1.939,0 3.5,-1.561 3.5,-3.5 l 0,-41 C 68,23.561 66.439,22 64.5,22 L 50,22 31.5,22 Z m 4.5,6 14,0 10,0 c 1.108,0 2,0.892 2,2 l 0,32 c 0,1.108 -0.892,2 -2,2 l -10,0 -14,0 c -1.108,0 -2,-0.892 -2,-2 l 0,-14 0,-4 0,-14 c 0,-1.108 0.892,-2 2,-2 z m 8,6 0,8 -8,0 0,8 8,0 0,8 8,0 0,-8 8,0 0,-8 -8,0 0,-8 -8,0 z"
         inkscape:connector-curvature="0"
         id="path3957"
         style="color:#000000;display:inline;overflow:visible;visibility:visible;fill:#ff00ff;fill-opacity:1;fill-rule:nonzero;stroke:none;stroke-width:2;marker:none;enable-background:accumulate" />
    </clipPath>
    <filter
       style="color-interpolation-filters:sRGB"
       id="filter3959">
      <feGaussianBlur
         id="feGaussianBlur3961"
         stdDeviation="0.66" />
    </filter>
    <linearGradient
       x1="11.640054"
       y1="9.2693882"
       x2="11.640054"
       y2="13.884353"
       id="linearGradient3093"
       xlink:href="#linearGradient4281-6"
       gradientUnits="userSpaceOnUse"
       gradientTransform="matrix(6.3561348,0,0,6.3561348,7.7462075,4.6450785)" />
    <clipPath
       id="clipPath3981">
      <path
         d="m 26,40.110794 0,12.032952 44,0 0,-12.032952 z"
         inkscape:connector-curvature="0"
         id="path3983"
         style="display:inline;opacity:0.8;fill:#ff00ff;fill-opacity:1;stroke:none" />
    </clipPath>
    <filter
       style="color-interpolation-filters:sRGB"
       id="filter3985">
      <feGaussianBlur
         id="feGaussianBlur3987"
         stdDeviation="0.42024714" />
    </filter>
    <linearGradient
       x1="41.787216"
       y1="21.873236"
       x2="41.787216"
       y2="74.502747"
       id="linearGradient4519"
       xlink:href="#linearGradient4281-6"
       gradientUnits="userSpaceOnUse"
       gradientTransform="matrix(2.4037035,0,0,2.3972696,-11.951258,-15.999566)" />
    <clipPath
       id="clipPath4537">
      <path
         d="M 30.59375,20 C 28.054583,20 26,22.084107 26,24.65625 l 0,42.6875 C 26,69.915893 28.054583,72 30.59375,72 l 34.8125,0 C 67.945417,72 70,69.915893 70,67.34375 l 0,-42.6875 C 70,22.084107 67.945417,20 65.40625,20 l -34.8125,0 z M 34,26 l 1,0 26,0 1,0 c 1.108,0 2,0.892 2,2 l 0,1 0,34 0,1 c 0,1.108 -0.892,2 -2,2 l -1,0 -26,0 -1,0 c -1.108,0 -2,-0.892 -2,-2 l 0,-1 0,-34 0,-1 c 0,-1.108 0.892,-2 2,-2 z m 2,4 0,32 24,0 -24,-32 z m 4,12 12,16 -12,0 0,-16 z"
         inkscape:connector-curvature="0"
         id="path4539"
         style="color:#000000;display:inline;overflow:visible;visibility:visible;fill:#ff00ff;fill-opacity:1;fill-rule:nonzero;stroke:none;stroke-width:1;marker:none;enable-background:accumulate" />
    </clipPath>
    <filter
       style="color-interpolation-filters:sRGB"
       id="filter4531">
      <feGaussianBlur
         id="feGaussianBlur4533"
         stdDeviation="0.72" />
    </filter>
    <linearGradient
       x1="20.758585"
       y1="-19.425636"
       x2="20.758585"
       y2="45.017357"
       id="linearGradient3992"
       xlink:href="#linearGradient4281-6"
       gradientUnits="userSpaceOnUse"
       gradientTransform="matrix(2.6201476,0,0,2.6201476,94.095648,78.602277)" />
    <clipPath
       id="clipPath4008">
      <path
         d="m 44.425,20 c -1.023231,0 -1.86875,0.828036 -1.86875,1.86875 l 0,3.696875 c -1.829594,0.487474 -3.559846,1.222857 -5.159375,2.153125 L 34.75625,25.078125 C 34.388298,24.710177 33.973039,24.554035 33.496875,24.55 33.020713,24.5459 32.518012,24.716362 32.15625,25.078125 l -5.078125,5.078125 c -0.723522,0.723528 -0.695203,1.864104 0.04062,2.6 l 2.6,2.640625 c -0.930267,1.599524 -1.665639,3.329777 -2.153125,5.159375 l -3.65625,0 C 22.868662,40.55625 22,41.401775 22,42.425 l 0,7.15 c 0,1.023225 0.868662,1.86875 1.909375,1.86875 l 3.65625,0 c 0.487486,1.829599 1.222858,3.559851 2.153125,5.159375 l -2.6,2.6 c -0.735893,0.735895 -0.764213,1.917095 -0.04062,2.640625 l 5.078125,5.078125 c 0.723521,0.723528 1.864107,0.695267 2.6,-0.04063 l 2.640625,-2.6 c 1.599529,0.930272 3.329781,1.66565 5.159375,2.153125 l 0,3.65625 C 42.55625,71.131339 43.401769,72 44.425,72 l 7.15,0 c 1.023221,0 1.86875,-0.868661 1.86875,-1.909375 l 0,-3.65625 c 1.829594,-0.487475 3.559846,-1.222853 5.159375,-2.153125 l 2.640625,2.6 c 0.735893,0.735895 1.87647,0.764153 2.6,0.04063 l 5.078125,-5.078125 c 0.723522,-0.72353 0.695202,-1.90473 -0.04063,-2.640625 l -2.6,-2.6 c 0.930265,-1.599524 1.665649,-3.329776 2.153125,-5.159375 l 3.65625,0 C 73.131329,51.44375 74,50.598226 74,49.575 l 0,-7.15 c 0,-1.023222 -0.868671,-1.86875 -1.909375,-1.86875 l -3.65625,0 C 67.946903,38.726652 67.211516,36.996399 66.28125,35.396875 l 2.6,-2.640625 c 0.735892,-0.735896 0.764222,-1.876472 0.04063,-2.6 l -5.07813,-5.078125 c -0.723533,-0.723529 -1.864108,-0.735896 -2.6,0 L 58.603125,27.71875 C 57.00359,26.788476 55.273345,26.053099 53.44375,25.565625 l 0,-3.696875 C 53.44375,20.828036 52.598222,20 51.575,20 l -7.15,0 z M 48,38.11875 c 4.338971,0 7.840625,3.542285 7.840625,7.88125 0,4.338967 -3.501654,7.840625 -7.840625,7.840625 -4.33896,0 -7.840625,-3.501658 -7.840625,-7.840625 0,-4.338965 3.501665,-7.88125 7.840625,-7.88125 z"
         inkscape:connector-curvature="0"
         id="path4010"
         style="display:block;overflow:visible;visibility:visible;fill:#ff00ff;fill-opacity:1;fill-rule:nonzero;stroke:none;stroke-width:1;marker:none;enable-background:accumulate" />
    </clipPath>
    <filter
       style="color-interpolation-filters:sRGB"
       id="filter4012">
      <feGaussianBlur
         id="feGaussianBlur4014"
         stdDeviation="0.78" />
    </filter>
  </defs>
  <metadata
     id="metadata4253">
    <rdf:RDF>
      <cc:Work
         rdf:about="">
        <dc:format>image/svg+xml</dc:format>
        <dc:type
           rdf:resource="http://purl.org/dc/dcmitype/StillImage" />
        <dc:title></dc:title>
      </cc:Work>
    </rdf:RDF>
  </metadata>
  <path
     d="m 27.000003,28.519094 a 11.000001,3.480043 0 1 1 -22.0000012,0 11.000001,3.480043 0 1 1 22.0000012,0 z"
     id="path3818-0-2"
     style="fill:url(#radialGradient3315);fill-opacity:1;stroke:none"
     inkscape:connector-curvature="0" />
  <path
     d="m 16.000003,1.6736221 c -8.0005997,0 -14.5000029,6.4623379 -14.5000029,14.4173189 0,7.954984 6.4994032,14.417326 14.5000029,14.417324 8.000598,0 14.500006,-6.46234 14.499999,-14.417324 0,-7.954981 -6.499401,-14.4173189 -14.499999,-14.4173189 z"
     id="path2555"
     style="color:#000000;display:inline;overflow:visible;visibility:visible;fill:url(#linearGradient3163-1);fill-opacity:1;fill-rule:nonzero;stroke:none;stroke-width:0.71428573;stroke-linecap:round;stroke-linejoin:round;stroke-miterlimit:4;stroke-dasharray:none;stroke-dashoffset:0;stroke-opacity:1;marker:none;enable-background:accumulate"
     inkscape:connector-curvature="0" />
  <path
     d="M 16.000002,1.6736216 C 7.9994021,1.6736216 1.5,8.1359602 1.5,16.090942 c 0,7.954981 6.4994021,14.417325 14.500002,14.417323 8.000596,0 14.500007,-6.462342 14.499999,-14.417323 0,-7.9549818 -6.499403,-14.4173204 -14.499999,-14.4173204 z"
     id="path2555-6"
     style="color:#000000;display:inline;overflow:visible;visibility:visible;opacity:0.5;fill:#000000;fill-opacity:0;fill-rule:nonzero;stroke:#000000;stroke-width:1;stroke-linecap:round;stroke-linejoin:round;stroke-miterlimit:4;stroke-dasharray:none;stroke-dashoffset:0;stroke-opacity:1;marker:none;enable-background:accumulate"
     inkscape:connector-curvature="0" />
  <path
     d="m 16.000001,2.1701981 c -2.172577,0 -4.23659,0.4942584 -6.0724992,1.3746167 L 15.177502,14.611349 6.0075012,6.3288475 C 3.5245262,8.8415377 2.0000011,12.29442 2.0000011,16.090367 c 0,1.003685 0.111451,1.979483 0.315,2.923237 l 13.8249999,-3.549644 -0.2275,-0.191402 8.925,-9.970323 C 22.426695,3.3479257 19.348781,2.1701981 16.000001,2.1701981 Z M 29.492502,12.366722 15.7375,15.637963 l 0.0525,0.0348 -11.9525002,7.308089 c 2.4123632,4.198339 6.9571002,7.029689 12.1624992,7.029687 0.394522,0 0.786186,-0.02028 1.172501,-0.0522 -0.50322,-5.732419 -1.242756,-14.00669 -1.26,-14.198576 l 11.1125,8.891511 c 1.859912,-2.36314 2.975002,-5.331635 2.975,-8.560908 0,-1.288445 -0.177101,-2.538963 -0.5075,-3.723646 z"
     inkscape:connector-curvature="0"
     id="path4004"
     style="fill:#000000;fill-opacity:0.04255317;stroke:none" />
  <path
     d="m 16.000001,2.1701981 c -1.683974,0 -3.298784,0.3092787 -4.795,0.8526103 L 15.177502,14.611349 4.9750014,7.5120625 C 3.1100491,9.876906 2.0000011,12.856253 2.0000011,16.090367 c 0,0.666151 0.04874,1.324887 0.14,1.966226 l 13.9999999,-2.592633 -0.2275,-0.191402 7.7875,-10.7881316 c -2.211177,-1.4539397 -4.853983,-2.3142283 -7.7,-2.3142283 z M 29.737502,13.428134 15.7375,15.637963 l 0.0525,0.0348 -11.0075027,8.734906 C 7.3369402,27.802621 11.41345,30.010542 16,30.01054 c 0.111801,0 0.221322,0.0026 0.332501,0 -0.166772,-5.780361 -0.402829,-14.059697 -0.42,-14.250774 l 11.62,8.1955 c 1.5494,-2.240021 2.467502,-4.944282 2.4675,-7.864897 0,-0.911316 -0.09388,-1.799509 -0.2625,-2.662232 z"
     inkscape:connector-curvature="0"
     id="path4004-0"
     style="fill:#000000;fill-opacity:0.04787233;stroke:none" />
  <path
     d="m 16.000001,2.1701981 c -1.270691,0 -2.50423,0.1708926 -3.675,0.4872051 l 3.535,12.7717568 6.597501,-11.6755426 C 20.523787,2.7501044 18.329811,2.1701981 16.000001,2.1701981 Z M 4.0825012,8.7822779 C 2.7624191,10.905857 2.0000011,13.413601 2.0000011,16.090367 c 0,0.32197 0.0133,0.640462 0.035,0.957013 L 15.930002,15.51616 4.0825012,8.7822773 Z m 25.8299998,5.7246701 -13.965,0.83521 12.0575,7.917098 c 1.267118,-2.093143 1.995003,-4.550808 1.995001,-7.168889 0,-0.533953 -0.02846,-1.065007 -0.0875,-1.583419 z m -13.895,0.939612 -9.9049996,10.509729 c 2.4400782,2.417634 5.7817046,3.927882 9.4674996,4.036851 l 0.4375,-14.54658 z"
     inkscape:connector-curvature="0"
     id="path3893-7"
     style="fill:#000000;fill-opacity:0.05851063;stroke:none" />
  <path
     d="m 16.000001,2.1701981 c -0.767243,0 -1.523582,0.055598 -2.2575,0.1740019 l 2.1175,13.08496 5.215,-12.3019503 C 19.500167,2.516361 17.790742,2.1701981 16.000001,2.1701981 Z M 3.4350012,9.9480928 C 2.5488271,11.736163 2.0342711,13.746225 2.0000011,15.864165 L 15.93,15.51616 3.4350012,9.9480928 Z M 15.947501,15.34216 28.477502,22.406647 c 0.973101,-1.895448 1.522501,-4.044513 1.5225,-6.31628 0,-0.193214 -0.0096,-0.382892 -0.0175,-0.574207 L 15.9475,15.34216 Z m 0.07,0.1044 -8.1024999,11.988748 c 1.9694428,1.391643 4.3030459,2.30077 6.8424999,2.523032 l 1.26,-14.51178 z"
     inkscape:connector-curvature="0"
     id="path3893-7-5"
     style="fill:#000000;fill-opacity:0.06382979;stroke:none" />
  <path
     d="m 16.000001,2.1701981 c -0.353097,0 -0.70342,0.00919 -1.05,0.034803 l 0.91,13.2241613 3.535,-12.8413568 C 18.307959,2.3180348 17.170372,2.1702 16.000001,2.1702 Z M 2.8925011,11.218309 c -0.4130769,1.097078 -0.700428,2.254921 -0.8225,3.462642 L 15.93,15.51616 2.8925011,11.218307 Z m 13.0549999,4.123851 12.9675,6.124874 c 0.619893,-1.467302 0.990476,-3.061866 1.0675,-4.732858 l -14.035,-1.392016 z m 0.07,0.1044 -6.1075003,13.171962 c 1.2087853,0.582177 2.5137273,1.002033 3.8850003,1.218016 l 2.2225,-14.389978 z"
     inkscape:connector-curvature="0"
     id="path3893"
     style="fill:#000000;fill-opacity:0.10106381;stroke:none" />
  <path
     d="m 16.087501,2.1701981 -0.2275,13.2589619 2.1175,-13.11976 c -0.616691,-0.086755 -1.250372,-0.1352665 -1.89,-0.1392019 z M 2.5600011,12.19272 c -0.157904,0.538624 -0.29307,1.089683 -0.385,1.65302 L 15.93,15.51616 Z m 13.3874999,3.14944 13.335,5.115662 c 0.253983,-0.763339 0.459428,-1.551255 0.577501,-2.366429 z m 0.07,0.1044 -5.18,13.572169 c 0.313751,0.124603 0.638128,0.245636 0.962501,0.348003 0.286965,0.08974 0.580431,0.1721 0.874999,0.243604 0.07599,0.01858 0.151035,0.03488 0.227499,0.0522 z"
     inkscape:connector-curvature="0"
     id="path3893-9"
     style="fill:#000000;fill-opacity:0.0851064;stroke:none" />
  <path
     d="m 29.500001,16.090467 c 0,7.41357 -6.044601,13.423499 -13.499829,13.423499 C 8.5442599,29.513966 2.5,23.503969 2.5,16.090467 2.5,8.6772388 8.5442599,2.6679213 16.000172,2.6679213 c 7.455228,0 13.499829,6.0093175 13.499829,13.4225457 l 0,0 z"
     id="path8655"
     style="color:#000000;display:inline;overflow:visible;visibility:visible;opacity:0.8;fill:none;stroke:url(#linearGradient3089);stroke-width:1;stroke-linecap:round;stroke-linejoin:round;stroke-miterlimit:4;stroke-dasharray:none;stroke-dashoffset:0;stroke-opacity:1;marker:none;enable-background:accumulate"
     inkscape:connector-curvature="0" />
  <g
     inkscape:groupmode="layer"
     id="layer1"
     inkscape:label="Layer 1" />
  <g
     id="layer6"
     transform="matrix(0.26810479,0,0,0.2704974,3.737523,3.9051153)"
     style="opacity:0.7">
    <path
       d="m 34,26 c -1.108,0 -2,0.892 -2,2 l 0,1 c 0,-1.108 0.892,-2 2,-2 l 1,0 26,0 1,0 c 1.108,0 2,0.892 2,2 l 0,-1 c 0,-1.108 -0.892,-2 -2,-2 l -1,0 -26,0 -1,0 z m 6,16 0,1 L 51.25,58 52,58 40,42 Z m -4,20 0,1 24,0 L 59.25,62 36,62 Z m -10,5.34375 0,1 C 26,70.915893 28.054583,73 30.59375,73 l 34.8125,0 C 67.945417,73 70,70.915893 70,68.34375 l 0,-1 C 70,69.915893 67.945417,72 65.40625,72 l -34.8125,0 C 28.054583,72 26,69.915893 26,67.34375 Z"
       inkscape:connector-curvature="0"
       id="path3965"
       style="color:#000000;display:inline;overflow:visible;visibility:visible;opacity:0.6;fill:#ffffff;fill-opacity:1;fill-rule:nonzero;stroke:none;stroke-width:1;marker:none;enable-background:accumulate" />
    <path
       d="M 30.59375,20 C 28.054583,20 26,22.084107 26,24.65625 l 0,42.6875 C 26,69.915893 28.054583,72 30.59375,72 l 34.8125,0 C 67.945417,72 70,69.915893 70,67.34375 l 0,-42.6875 C 70,22.084107 67.945417,20 65.40625,20 l -34.8125,0 z M 34,26 l 1,0 26,0 1,0 c 1.108,0 2,0.892 2,2 l 0,1 0,34 0,1 c 0,1.108 -0.892,2 -2,2 l -1,0 -26,0 -1,0 c -1.108,0 -2,-0.892 -2,-2 l 0,-1 0,-34 0,-1 c 0,-1.108 0.892,-2 2,-2 z m 2,4 0,32 24,0 -24,-32 z m 4,12 12,16 -12,0 0,-16 z"
       inkscape:connector-curvature="0"
       id="rect2957"
       style="color:#000000;display:inline;overflow:visible;visibility:visible;fill:url(#linearGradient4519);fill-opacity:1;fill-rule:nonzero;stroke:none;stroke-width:1;marker:none;enable-background:accumulate" />
    <path
       d="M 30.59375,21 C 28.054583,21 26,23.084107 26,25.65625 l 0,42.6875 C 26,70.915893 28.054583,73 30.59375,73 l 34.8125,0 C 67.945417,73 70,70.915893 70,68.34375 l 0,-42.6875 C 70,23.084107 67.945417,21 65.40625,21 l -34.8125,0 z M 34,27 l 1,0 26,0 1,0 c 1.108,0 2,0.892 2,2 l 0,1 0,34 0,1 c 0,1.108 -0.892,2 -2,2 l -1,0 -26,0 -1,0 c -1.108,0 -2,-0.892 -2,-2 l 0,-1 0,-34 0,-1 c 0,-1.108 0.892,-2 2,-2 z m 2,4 0,32 24,0 -24,-32 z m 4,12 12,16 -12,0 0,-16 z"
       inkscape:connector-curvature="0"
       clip-path="url(#clipPath4537)"
       id="path4527"
       style="color:#000000;display:inline;overflow:visible;visibility:visible;opacity:0.31000001;fill:none;stroke:#000000;stroke-width:7.42670488;stroke-miterlimit:4;stroke-dasharray:none;marker:none;filter:url(#filter4531);enable-background:accumulate" />
  </g>
</svg>
