<?xml version="1.0" encoding="UTF-8" standalone="no"?>
<!-- Created with Inkscape (http://www.inkscape.org/) -->

<svg
   xmlns:dc="http://purl.org/dc/elements/1.1/"
   xmlns:cc="http://creativecommons.org/ns#"
   xmlns:rdf="http://www.w3.org/1999/02/22-rdf-syntax-ns#"
   xmlns:svg="http://www.w3.org/2000/svg"
   xmlns="http://www.w3.org/2000/svg"
   xmlns:xlink="http://www.w3.org/1999/xlink"
   xmlns:sodipodi="http://sodipodi.sourceforge.net/DTD/sodipodi-0.dtd"
   xmlns:inkscape="http://www.inkscape.org/namespaces/inkscape"
   version="1.1"
   width="32"
   height="32"
   id="svg3554"
   inkscape:version="0.91 r"
   sodipodi:docname="media-import-audio-cd.svg">
  <sodipodi:namedview
     pagecolor="#ffffff"
     bordercolor="#666666"
     borderopacity="1"
     objecttolerance="10"
     gridtolerance="10"
     guidetolerance="10"
     inkscape:pageopacity="0"
     inkscape:pageshadow="2"
     inkscape:window-width="1786"
     inkscape:window-height="1148"
     id="namedview90"
     showgrid="false"
     inkscape:zoom="3.6875"
     inkscape:cx="-77.499135"
     inkscape:cy="32"
     inkscape:window-x="451"
     inkscape:window-y="364"
     inkscape:window-maximized="0"
     inkscape:current-layer="svg3554" />
  <defs
     id="defs3556">
    <linearGradient
       x1="71.204407"
       y1="6.2375584"
       x2="71.204407"
       y2="44.340794"
       id="linearGradient3162"
       xlink:href="#linearGradient4011-7"
       gradientUnits="userSpaceOnUse"
       gradientTransform="matrix(0.72972967,0,0,0.72972967,-4.346076,29.49607)" />
    <linearGradient
       id="linearGradient4011-7">
      <stop
         id="stop4013-1"
         style="stop-color:#ffffff;stop-opacity:1"
         offset="0" />
      <stop
         id="stop4015-0"
         style="stop-color:#ffffff;stop-opacity:0.23529412"
         offset="0.507761" />
      <stop
         id="stop4017-1"
         style="stop-color:#ffffff;stop-opacity:0.15686275"
         offset="0.83456558" />
      <stop
         id="stop4019-5"
         style="stop-color:#ffffff;stop-opacity:0.39215687"
         offset="1" />
    </linearGradient>
    <radialGradient
       cx="6.1596723"
       cy="8.4497671"
       r="19.99999"
       fx="6.1596723"
       fy="8.4497671"
       id="radialGradient3165"
       xlink:href="#linearGradient2867-449-88-871-390-598-476-591-434-148-57-177-3-8"
       gradientUnits="userSpaceOnUse"
       gradientTransform="matrix(4.5367027e-8,1.7632481,-1.8653063,0,63.761488,20.748948)" />
    <linearGradient
       id="linearGradient2867-449-88-871-390-598-476-591-434-148-57-177-3-8">
      <stop
         id="stop3750-8-9"
         style="stop-color:#90dbec;stop-opacity:1"
         offset="0" />
      <stop
         id="stop3752-3-2"
         style="stop-color:#55c1ec;stop-opacity:1"
         offset="0.26238" />
      <stop
         id="stop3754-7-2"
         style="stop-color:#3689e6;stop-opacity:1"
         offset="0.704952" />
      <stop
         id="stop3756-9-3"
         style="stop-color:#2b63a0;stop-opacity:1"
         offset="1" />
    </linearGradient>
    <linearGradient
       x1="24"
       y1="44"
       x2="24"
       y2="3.8990016"
       id="linearGradient3167"
       xlink:href="#linearGradient3707-319-631-407-324-3-8"
       gradientUnits="userSpaceOnUse"
       gradientTransform="matrix(0.74365873,0,0,0.74365873,30.152194,30.15219)" />
    <linearGradient
       id="linearGradient3707-319-631-407-324-3-8">
      <stop
         id="stop3760-7-3"
         style="stop-color:#185f9a;stop-opacity:1"
         offset="0" />
      <stop
         id="stop3762-8-4"
         style="stop-color:#599ec9;stop-opacity:1"
         offset="1" />
    </linearGradient>
    <radialGradient
       cx="62.625"
       cy="4.625"
       r="10.625"
       fx="62.625"
       fy="4.625"
       id="radialGradient3170"
       xlink:href="#linearGradient8838"
       gradientUnits="userSpaceOnUse"
       gradientTransform="matrix(1.5058824,0,0,0.37647,-46.305886,58.258824)" />
    <linearGradient
       id="linearGradient8838">
      <stop
         id="stop8840"
         style="stop-color:#000000;stop-opacity:1"
         offset="0" />
      <stop
         id="stop8842"
         style="stop-color:#000000;stop-opacity:0"
         offset="1" />
    </linearGradient>
    <radialGradient
       cx="23.334524"
       cy="41.63604"
       r="22.627417"
       fx="23.334524"
       fy="41.63604"
       id="radialGradient4130"
       xlink:href="#linearGradient23419"
       gradientUnits="userSpaceOnUse"
       gradientTransform="matrix(2.5571421,0,0,0.75010764,6.1798885,75.704183)" />
    <linearGradient
       id="linearGradient23419">
      <stop
         id="stop23421"
         style="stop-color:#000000;stop-opacity:1"
         offset="0" />
      <stop
         id="stop23423"
         style="stop-color:#000000;stop-opacity:0"
         offset="1" />
    </linearGradient>
    <linearGradient
       x1="12.2744"
       y1="32.4165"
       x2="35.391201"
       y2="14.2033"
       id="linearGradient3070"
       xlink:href="#linearGradient3263-6"
       gradientUnits="userSpaceOnUse"
       gradientTransform="matrix(0,3.1381842,-3.135382,0,138.27689,-11.316439)" />
    <linearGradient
       x1="12.2744"
       y1="32.4165"
       x2="35.391201"
       y2="14.2033"
       id="linearGradient3263-6"
       gradientUnits="userSpaceOnUse">
      <stop
         id="stop3265-8"
         style="stop-color:#dedcde;stop-opacity:1"
         offset="0" />
      <stop
         id="stop3267-9"
         style="stop-color:#f0f0f0;stop-opacity:1"
         offset="0.5" />
      <stop
         id="stop3269-2"
         style="stop-color:#d2d2d2;stop-opacity:1"
         offset="1" />
    </linearGradient>
    <linearGradient
       x1="-21.915663"
       y1="3"
       x2="-21.915663"
       y2="45.032898"
       id="linearGradient3072"
       xlink:href="#linearGradient3772-6"
       gradientUnits="userSpaceOnUse"
       gradientTransform="matrix(2.6765216,0,0,2.6789141,136.14857,-0.2939371)" />
    <linearGradient
       id="linearGradient3772-6">
      <stop
         id="stop3774-6"
         style="stop-color:#b4b4b4;stop-opacity:1"
         offset="0" />
      <stop
         id="stop3776-4"
         style="stop-color:#969696;stop-opacity:1"
         offset="1" />
    </linearGradient>
    <linearGradient
       x1="21.448364"
       y1="15.5"
       x2="21.448364"
       y2="32.509201"
       id="linearGradient3067"
       xlink:href="#linearGradient3428"
       gradientUnits="userSpaceOnUse"
       gradientTransform="matrix(2.6187329,0,0,2.621074,3.0000014,1.0942256)" />
    <linearGradient
       id="linearGradient3428">
      <stop
         id="stop3430"
         style="stop-color:#aaaaaa;stop-opacity:1"
         offset="0" />
      <stop
         id="stop3432"
         style="stop-color:#d4d4d4;stop-opacity:1"
         offset="1" />
    </linearGradient>
    <linearGradient
       x1="20.580074"
       y1="10.774516"
       x2="24.27351"
       y2="9.8622112"
       id="linearGradient2477"
       xlink:href="#linearGradient3487"
       gradientUnits="userSpaceOnUse"
       spreadMethod="reflect"
       gradientTransform="matrix(1.9952262,5.0357707e-5,5.0357706e-5,1.9970071,2.1744017,-0.61465525)" />
    <linearGradient
       id="linearGradient3487">
      <stop
         id="stop3489"
         style="stop-color:#e6cde2;stop-opacity:1"
         offset="0" />
      <stop
         id="stop3491"
         style="stop-color:#e6cde2;stop-opacity:0"
         offset="1" />
    </linearGradient>
    <linearGradient
       x1="17.494959"
       y1="11.200086"
       x2="21.047453"
       y2="9.7956104"
       id="linearGradient2479"
       xlink:href="#linearGradient3495"
       gradientUnits="userSpaceOnUse"
       spreadMethod="reflect"
       gradientTransform="matrix(1.9952245,0,0,1.9970086,1.5017895,0.11582885)" />
    <linearGradient
       id="linearGradient3495">
      <stop
         id="stop3497"
         style="stop-color:#c1cbe4;stop-opacity:1"
         offset="0" />
      <stop
         id="stop3499"
         style="stop-color:#c1cbe4;stop-opacity:0"
         offset="1" />
    </linearGradient>
    <linearGradient
       x1="14.084608"
       y1="13.045606"
       x2="16.994024"
       y2="10.732353"
       id="linearGradient2481"
       xlink:href="#linearGradient3503"
       gradientUnits="userSpaceOnUse"
       spreadMethod="reflect"
       gradientTransform="matrix(1.9952245,0,0,1.9970086,1.5017895,0.11582885)" />
    <linearGradient
       id="linearGradient3503">
      <stop
         id="stop3505"
         style="stop-color:#c4ebdd;stop-opacity:1"
         offset="0" />
      <stop
         id="stop3507"
         style="stop-color:#c4ebdd;stop-opacity:0"
         offset="1" />
    </linearGradient>
    <linearGradient
       x1="12.371647"
       y1="16.188046"
       x2="14.609327"
       y2="13.461712"
       id="linearGradient2483"
       xlink:href="#linearGradient3511"
       gradientUnits="userSpaceOnUse"
       spreadMethod="reflect"
       gradientTransform="matrix(1.9952245,0,0,1.9970086,1.5017895,0.11582885)" />
    <linearGradient
       id="linearGradient3511">
      <stop
         id="stop3513"
         style="stop-color:#ebeec7;stop-opacity:1"
         offset="0" />
      <stop
         id="stop3515"
         style="stop-color:#ebeec7;stop-opacity:0"
         offset="1" />
    </linearGradient>
    <linearGradient
       x1="10.609375"
       y1="17.886322"
       x2="9.7297754"
       y2="20.612656"
       id="linearGradient2485"
       xlink:href="#linearGradient3519"
       gradientUnits="userSpaceOnUse"
       spreadMethod="reflect"
       gradientTransform="matrix(1.9952245,0,0,1.9970086,1.5017895,0.11582885)" />
    <linearGradient
       id="linearGradient3519">
      <stop
         id="stop3521"
         style="stop-color:#fcd9cd;stop-opacity:1"
         offset="0" />
      <stop
         id="stop3523"
         style="stop-color:#fcd9cd;stop-opacity:0"
         offset="1" />
    </linearGradient>
    <linearGradient
       x1="71.204407"
       y1="6.2375584"
       x2="71.204407"
       y2="44.340794"
       id="linearGradient3227"
       xlink:href="#linearGradient4011"
       gradientUnits="userSpaceOnUse"
       gradientTransform="matrix(2.8580252,0,0,2.8605799,-139.16658,-8.5364101)" />
    <linearGradient
       id="linearGradient4011">
      <stop
         id="stop4013"
         style="stop-color:#ffffff;stop-opacity:1"
         offset="0" />
      <stop
         id="stop4015"
         style="stop-color:#ffffff;stop-opacity:0.23529412"
         offset="0.507761" />
      <stop
         id="stop4017"
         style="stop-color:#ffffff;stop-opacity:0.15686275"
         offset="0.83456558" />
      <stop
         id="stop4019"
         style="stop-color:#ffffff;stop-opacity:0.39215687"
         offset="1" />
    </linearGradient>
    <linearGradient
       id="linearGradient6036">
      <stop
         id="stop6038"
         style="stop-color:#ffffff;stop-opacity:1"
         offset="0" />
      <stop
         id="stop6040"
         style="stop-color:#ffffff;stop-opacity:0"
         offset="1" />
    </linearGradient>
    <linearGradient
       x1="18.775953"
       y1="4.0378027"
       x2="18.203465"
       y2="45.962208"
       id="linearGradient3552"
       xlink:href="#linearGradient6036"
       gradientUnits="userSpaceOnUse"
       gradientTransform="matrix(1.1589817,0,0,-1.1600174,37.631867,93.000439)" />
    <linearGradient
       x1="28"
       y1="59"
       x2="73"
       y2="59"
       id="linearGradient3149"
       xlink:href="#linearGradient4281-6"
       gradientUnits="userSpaceOnUse"
       gradientTransform="matrix(0,7.8267892,7.8895831,0,-123.47227,-127.81008)" />
    <linearGradient
       id="linearGradient4281-6">
      <stop
         id="stop4283-9-3"
         style="stop-color:#1e1e1e;stop-opacity:1"
         offset="0" />
      <stop
         id="stop4285-8-0"
         style="stop-color:#505050;stop-opacity:1"
         offset="1" />
    </linearGradient>
    <clipPath
       id="clipPath3974">
      <path
         d="m 24.59375,48.65625 c 0.05509,-0.28337 0.217148,-0.560898 0.4375,-0.78125 L 31.375,41.53125 c 0.587606,-0.587606 1.537394,-0.587606 2.125,0 l 8.5,8.5 L 42,29.5 C 42,28.669 42.669,28 43.5,28 l 9,0 c 0.831,0 1.5,0.669 1.5,1.5 l 0,20.53125 8.5,-8.5 c 0.587606,-0.587606 1.537394,-0.587606 2.125,0 l 6.34375,6.34375 c 0.587606,0.587606 0.587606,1.537394 0,2.125 L 48,73 25.03125,50 c -0.367254,-0.367254 -0.529313,-0.871466 -0.4375,-1.34375 z"
         inkscape:connector-curvature="0"
         id="path3976"
         style="color:#000000;display:inline;overflow:visible;visibility:visible;opacity:0.8;fill:#ff00ff;fill-opacity:1;fill-rule:nonzero;stroke:none;stroke-width:2;marker:none;enable-background:accumulate" />
    </clipPath>
    <filter
       style="color-interpolation-filters:sRGB"
       id="filter3978">
      <feGaussianBlur
         id="feGaussianBlur3980"
         stdDeviation="0.68880677" />
    </filter>
    <linearGradient
       x1="71.204407"
       y1="6.2375584"
       x2="71.204407"
       y2="44.340794"
       id="linearGradient3089"
       xlink:href="#linearGradient4011-7"
       gradientUnits="userSpaceOnUse"
       gradientTransform="matrix(1.1323391,0,0,1.1189189,-57.226673,-4.9067327)" />
    <linearGradient
       inkscape:collect="always"
       xlink:href="#linearGradient4215-4"
       id="linearGradient3163-1"
       gradientUnits="userSpaceOnUse"
       gradientTransform="matrix(0.89104611,0,0,0.88048549,-4.5134735,-6.4705458)"
       x1="38.976662"
       y1="59.967686"
       x2="38.976662"
       y2="8.0928917" />
    <linearGradient
       id="linearGradient4215-4">
      <stop
         offset="0"
         style="stop-color:#dcdcdc;stop-opacity:1"
         id="stop4217-9" />
      <stop
         offset="1"
         style="stop-color:#f0f0f0;stop-opacity:1"
         id="stop4219-7" />
    </linearGradient>
    <radialGradient
       cx="99.157013"
       cy="186.17059"
       r="62.769119"
       fx="99.157013"
       fy="186.17059"
       id="radialGradient3315"
       xlink:href="#linearGradient3820-7-2-2"
       gradientUnits="userSpaceOnUse"
       gradientTransform="matrix(0.27193253,0,0,0.08549854,-2.9640153,26.714434)" />
    <linearGradient
       id="linearGradient3820-7-2-2">
      <stop
         id="stop3822-2-6-36"
         style="stop-color:#3d3d3d;stop-opacity:1"
         offset="0" />
      <stop
         id="stop3864-8-7-6"
         style="stop-color:#686868;stop-opacity:0.49803922"
         offset="0.5" />
      <stop
         id="stop3824-1-2-4"
         style="stop-color:#686868;stop-opacity:0"
         offset="1" />
    </linearGradient>
  </defs>
  <metadata
     id="metadata3559">
    <rdf:RDF>
      <cc:Work
         rdf:about="">
        <dc:format>image/svg+xml</dc:format>
        <dc:type
           rdf:resource="http://purl.org/dc/dcmitype/StillImage" />
        <dc:title></dc:title>
      </cc:Work>
    </rdf:RDF>
  </metadata>
  <g
     id="layer1-6"
     transform="matrix(0.50119652,0,0,0.50074895,-1.0035895,-0.0479331)">
    <path
       style="display:inline;overflow:visible;visibility:visible;opacity:0.3;fill:url(#radialGradient4130);fill-opacity:1;fill-rule:evenodd;stroke:none;stroke-width:2;marker:none"
       id="path23417"
       inkscape:connector-curvature="0"
       d="M 61,53.499999 C 61.001449,58.194291 48.017314,62 32,62 15.982686,62 2.9985065,58.194291 3.0000001,53.499999 2.9985065,48.805709 15.982686,45 32,45 c 16.017314,0 29.001493,3.805709 29,8.499999 l 0,0 z" />
    <path
       style="fill:url(#linearGradient3070);fill-opacity:1;fill-rule:nonzero;stroke:url(#linearGradient3072);stroke-width:1.99611664;stroke-miterlimit:4;stroke-opacity:1"
       id="path2781"
       inkscape:connector-curvature="0"
       d="M 59.5,31.999999 C 59.5,16.757004 47.242994,4.5 32,4.5 16.757002,4.5 4.5,16.757005 4.5,31.999999 c -2.6e-6,15.242995 12.257004,27.5 27.5,27.5 15.242992,-3e-6 27.5,-12.257003 27.5,-27.5 z m -17,0 C 42.5,37.537735 37.64854,42.5 32,42.5 26.240655,42.5 21.5,37.425799 21.5,31.999999 21.5,26.463373 26.019041,21.5 32,21.5 c 5.980959,0 10.5,5.073069 10.5,10.499999 z" />
    <path
       style="display:inline;overflow:visible;visibility:visible;fill:#ffffff;fill-opacity:0.49803922;stroke:url(#linearGradient3067);stroke-width:1.99611664;stroke-linecap:butt;stroke-linejoin:round;stroke-miterlimit:4;stroke-dasharray:none;stroke-dashoffset:0;stroke-opacity:1;marker:none;enable-background:accumulate"
       id="path3418"
       inkscape:connector-curvature="0"
       d="m 31.999999,21.499999 c -5.795999,0 -10.5,4.703999 -10.5,10.499999 0,5.795999 4.704001,10.5 10.5,10.5 5.795999,0 10.499999,-4.704001 10.499999,-10.5 0,-5.796 -4.704,-10.499999 -10.499999,-10.499999 z m 0,5.249999 c 2.898,0 5.249999,2.352 5.249999,5.25 0,2.898 -2.351999,5.249999 -5.249999,5.249999 -2.898,0 -5.25,-2.351999 -5.25,-5.249999 0,-2.898 2.352,-5.25 5.25,-5.25 z" />
    <g
       id="g3527"
       transform="matrix(1.3333334,0,0,1.3333334,-1.6000002e-6,0.0588927)">
      <path
         style="opacity:0.8;fill:url(#linearGradient2477);fill-opacity:1;fill-rule:nonzero;stroke:none"
         id="path3296"
         transform="matrix(0.9996011,0.02824295,-0.02824295,0.9996011,0.6924114,-0.6708346)"
         inkscape:connector-curvature="0"
         d="M 15.856928,5.7307748 20.625,16.34375 C 21.660403,15.885186 22.795334,15.625 24,15.625 c 0.03206,0 0.06178,-3.6e-4 0.09375,0 L 24.10801,4.0047512 c -2.94215,-0.070687 -5.543041,0.6572865 -8.251083,1.7260236 l 10e-7,0 z" />
      <path
         style="opacity:0.8;fill:url(#linearGradient2479);fill-opacity:1;fill-rule:nonzero;stroke:none"
         id="path3308"
         inkscape:connector-curvature="0"
         d="m 12.121471,7.9060109 6.931026,9.3601041 c 0.913109,-0.669755 1.965938,-1.167064 3.142629,-1.425169 0.03132,-0.0069 0.06026,-0.01359 0.09157,-0.02009 L 19.857174,4.426276 c -2.888973,0.5613244 -5.31953,1.8556038 -7.735703,3.4797349 l 0,0 z" />
      <path
         style="opacity:0.8;fill:url(#linearGradient2481);fill-opacity:1;fill-rule:nonzero;stroke:none"
         id="path3310"
         inkscape:connector-curvature="0"
         d="m 8.2523933,11.646535 9.2137237,7.155818 c 0.70865,-0.883264 1.596891,-1.636119 2.666685,-2.18998 0.02847,-0.01474 0.05469,-0.02872 0.08325,-0.0431 L 14.86585,6.2506132 C 12.220599,7.5405321 10.165881,9.452393 8.2523933,11.646535 Z" />
      <path
         style="opacity:0.8;fill:url(#linearGradient2483);fill-opacity:1;fill-rule:nonzero;stroke:none"
         id="path3312"
         inkscape:connector-curvature="0"
         d="m 5.6328855,16.073974 c 7.1748065,2.242248 7.8502625,7.031463 12.7767855,1.754127 L 10.499985,9.1321388 C 8.2787249,11.062747 6.9132871,13.459349 5.6328855,16.073974 Z" />
      <path
         style="opacity:0.8;fill:url(#linearGradient2485);fill-opacity:1;fill-rule:nonzero;stroke:none"
         id="path3314"
         inkscape:connector-curvature="0"
         d="M 7.155289,13.193173 C 5.9722117,14.945185 5.2475768,16.829547 4.6301929,18.837116 L 15.96875,21.8125 C 16.184264,21.049497 16.486796,20.297733 16.9375,19.59375 16.95479,19.56675 16.98246,19.52673 17,19.5 L 7.155289,13.193173 Z" />
    </g>
    <path
       style="color:#000000;display:inline;overflow:visible;visibility:visible;opacity:0.55;fill:none;stroke:url(#linearGradient3227);stroke-width:1.99611688;stroke-linecap:round;stroke-linejoin:round;stroke-miterlimit:4;stroke-dasharray:none;stroke-dashoffset:0;stroke-opacity:1;marker:none;enable-background:accumulate"
       id="path8655"
       inkscape:connector-curvature="0"
       d="M 58.500001,31.999061 C 58.500001,46.63508 46.634673,58.5 32.000336,58.5 17.364659,58.5 5.5000001,46.634945 5.5000001,31.999061 c 0,-14.635341 11.8646589,-26.4990586 26.5003359,-26.4990586 14.634337,0 26.499665,11.8637176 26.499665,26.4990586 l 0,0 z" />
    <path
       style="opacity:0.4;fill:none;stroke:url(#linearGradient3552);stroke-width:1.99611628;stroke-miterlimit:4;stroke-opacity:1"
       id="path3281"
       inkscape:connector-curvature="0"
       d="m 31.999999,43.500001 c -6.374286,0 -11.5,-5.125713 -11.5,-11.5 0,-6.374285 5.125714,-11.500001 11.5,-11.500001 6.374289,0 11.5,5.125716 11.5,11.500001 0,6.374287 -5.125711,11.5 -11.5,11.5 l 0,0 0,0 0,0 z" />
  </g>
  <path
     style="display:inline;overflow:visible;visibility:visible;opacity:0.3;fill:url(#radialGradient3170);fill-opacity:1;fill-rule:evenodd;stroke:none;stroke-width:0.99999988;marker:none"
     id="path8836"
     inkscape:connector-curvature="0"
     d="M 31.072991,29.997006 C 31.072991,31.103228 27.482707,32 23.053839,32 c -4.42885,0 -8.019141,-0.896772 -8.019141,-2.002994 0,-1.106225 3.590291,-2.002999 8.019141,-2.002999 4.428868,0 8.019152,0.896774 8.019152,2.002999 l 0,0 z" />
  <path
     d="m 23.73343,15.298301 c -4.009861,0 -7.267342,3.236009 -7.267342,7.219452 0,3.983457 3.257481,7.219468 7.267342,7.219468 4.009879,0 7.267369,-3.236011 7.267365,-7.219468 0,-3.983443 -3.257486,-7.219452 -7.267365,-7.219452 z"
     id="path2555"
     style="color:#000000;display:inline;overflow:visible;visibility:visible;fill:url(#linearGradient3163-1);fill-opacity:1;fill-rule:nonzero;stroke:none;stroke-width:0.71428573;stroke-linecap:round;stroke-linejoin:round;stroke-miterlimit:4;stroke-dasharray:none;stroke-dashoffset:0;stroke-opacity:1;marker:none;enable-background:accumulate"
     inkscape:connector-curvature="0" />
  <path
     d="m 23.73344,15.298302 c -4.009875,0 -7.267354,3.236009 -7.267354,7.219465 0,3.983448 3.257479,7.219455 7.267354,7.219454 4.009872,0 7.267357,-3.236006 7.267353,-7.219454 0,-3.983456 -3.257481,-7.219465 -7.267353,-7.219465 z"
     id="path2555-6"
     style="color:#000000;display:inline;overflow:visible;visibility:visible;opacity:0.5;fill:#000000;fill-opacity:0;fill-rule:nonzero;stroke:#000000;stroke-width:0.99999964;stroke-linecap:round;stroke-linejoin:round;stroke-miterlimit:4;stroke-dasharray:none;stroke-dashoffset:0;stroke-opacity:1;marker:none;enable-background:accumulate"
     inkscape:connector-curvature="0" />
  <path
     d="m 23.73343,15.54696 c -1.088874,0 -2.123362,0.247499 -3.043519,0.688339 l 2.631291,5.541557 -4.595975,-4.147453 c -1.244448,1.258221 -2.008533,2.987253 -2.008533,4.888067 0,0.502595 0.05578,0.991225 0.157868,1.463812 l 6.929048,-1.77748 -0.11403,-0.09581 4.473188,-4.992633 C 26.954476,16.136728 25.411833,15.54698 23.73343,15.54698 Z m 6.762396,5.105903 -6.893953,1.638071 0.02642,0.01751 -5.990548,3.659519 c 1.209077,2.102315 3.486871,3.520109 6.095803,3.520107 0.19773,0 0.394027,-0.0098 0.587663,-0.02624 -0.252226,-2.870499 -0.622894,-7.013829 -0.631532,-7.109916 l 5.569541,4.452415 c 0.932188,-1.183343 1.49106,-2.669813 1.491059,-4.28687 0,-0.645185 -0.08875,-1.271381 -0.254357,-1.864608 z"
     inkscape:connector-curvature="0"
     id="path4004"
     style="fill:#000000;fill-opacity:0.04255317;stroke:none" />
  <path
     d="m 23.73343,15.54696 c -0.84399,0 -1.653347,0.154871 -2.403226,0.426948 l 1.990998,5.802948 -5.113451,-3.554961 c -0.934719,1.184191 -1.491057,2.676097 -1.491057,4.295575 0,0.333577 0.02443,0.663438 0.07017,0.984586 l 7.016756,-1.298254 -0.11403,-0.09581 3.903065,-5.402146 c -1.108241,-0.72806 -2.432793,-1.158849 -3.859217,-1.158849 z m 6.885205,5.6374 -7.016762,1.106574 0.02642,0.01751 -5.516922,4.373997 c 1.280288,1.700019 3.323418,2.805631 5.622177,2.805631 0.05596,0 0.110922,0.0012 0.166655,0 -0.08357,-2.894507 -0.201912,-7.040382 -0.210516,-7.136063 l 5.823899,4.103889 c 0.776552,-1.12169 1.236703,-2.475847 1.236702,-3.93834 0,-0.456344 -0.04695,-0.901106 -0.131553,-1.333111 z"
     inkscape:connector-curvature="0"
     id="path4004-0"
     style="fill:#000000;fill-opacity:0.04787233;stroke:none" />
  <path
     d="m 23.73343,15.54696 c -0.636863,0 -1.255105,0.08557 -1.841887,0.243967 l 1.771733,6.395448 3.306629,-5.84652 C 26.000735,15.837349 24.901135,15.54696 23.73343,15.54696 Z m -5.973011,3.310995 c -0.661621,1.063379 -1.043725,2.319129 -1.043725,3.659515 0,0.161228 0.0059,0.320712 0.0176,0.479222 l 6.964125,-0.766755 -5.93793,-3.371982 z m 12.945921,2.866623 -6.99922,0.418229 6.043192,3.96448 c 0.635071,-1.048138 0.999875,-2.278815 0.999873,-3.589817 0,-0.267375 -0.01434,-0.5333 -0.04377,-0.792892 z m -6.964131,0.470508 -4.96436,5.262737 c 1.222953,1.210626 2.897787,1.966882 4.745091,2.021451 l 0.219269,-7.284188 z"
     inkscape:connector-curvature="0"
     id="path3893-7"
     style="fill:#000000;fill-opacity:0.05851063;stroke:none" />
  <path
     d="m 23.73343,15.54696 c -0.384526,0 -0.763601,0.02779 -1.131434,0.08717 l 1.06128,6.55228 2.613732,-6.160189 C 25.487701,15.720331 24.63095,15.546987 23.73343,15.546987 Z m -6.297527,3.894773 c -0.444155,0.895375 -0.702036,1.901913 -0.719209,2.962471 l 6.981668,-0.174267 -6.262459,-2.788204 z m 6.271217,2.701074 6.279991,3.537534 c 0.48773,-0.949141 0.763076,-2.025281 0.763074,-3.162871 0,-0.09678 -0.0043,-0.191732 -0.0085,-0.287533 l -7.034277,-0.08715 z m 0.03508,0.05222 -4.060951,6.003354 c 0.98709,0.696863 2.156667,1.152106 3.42943,1.263405 l 0.631522,-7.266758 z"
     inkscape:connector-curvature="0"
     id="path3893-7-5"
     style="fill:#000000;fill-opacity:0.06382979;stroke:none" />
  <path
     d="m 23.73343,15.54696 c -0.176975,0 -0.35255,0.0041 -0.526249,0.0175 l 0.456095,6.621984 1.771726,-6.430298 c -0.544821,-0.135098 -1.114981,-0.20913 -1.701572,-0.20913 z m -6.569423,4.530833 c -0.207048,0.549365 -0.351067,1.129149 -0.412243,1.733913 l 6.946598,0.418231 -6.534355,-2.152145 z m 6.543113,2.065014 6.499257,3.067025 c 0.310711,-0.734748 0.496437,-1.533227 0.535029,-2.369973 L 23.70712,22.142807 Z m 0.03508,0.05222 -3.061052,6.595847 c 0.605825,0.291522 1.259873,0.501769 1.947151,0.60992 l 1.113913,-7.205762 z"
     inkscape:connector-curvature="0"
     id="path3893"
     style="fill:#000000;fill-opacity:0.10106381;stroke:none" />
  <path
     d="m 23.777297,15.54696 -0.114021,6.639415 1.061274,-6.569707 c -0.309083,-0.04335 -0.626685,-0.06769 -0.947253,-0.06973 z m -6.779929,5.018767 c -0.07916,0.269718 -0.146905,0.54566 -0.192986,0.827751 l 6.89398,0.836459 z m 6.709752,1.57708 6.683463,2.561664 c 0.127286,-0.382237 0.230264,-0.77679 0.289448,-1.184986 z m 0.03508,0.05222 -2.596205,6.79625 c 0.157263,0.06238 0.319828,0.123001 0.482405,0.174262 0.143841,0.045 0.290921,0.08615 0.438557,0.121984 0.03802,0.009 0.07572,0.01754 0.114007,0.02625 z"
     inkscape:connector-curvature="0"
     id="path3893-9"
     style="fill:#000000;fill-opacity:0.0851064;stroke:none" />
  <path
     d="m 30.499593,22.517524 c 0,3.712342 -3.029531,6.721805 -6.766072,6.721805 -3.736875,0 -6.76624,-3.009498 -6.76624,-6.721805 0,-3.712167 3.029365,-6.721327 6.76624,-6.721327 3.736541,0 6.766072,3.00916 6.766072,6.721327 l 0,0 z"
     id="path8655-1"
     style="color:#000000;display:inline;overflow:visible;visibility:visible;opacity:0.8;fill:none;stroke:url(#linearGradient3089);stroke-width:0.99999964;stroke-linecap:round;stroke-linejoin:round;stroke-miterlimit:4;stroke-dasharray:none;stroke-dashoffset:0;stroke-opacity:1;marker:none;enable-background:accumulate"
     inkscape:connector-curvature="0" />
  <g
     id="layer6"
     transform="matrix(0.12674944,0,0,0.12776632,17.65001,16.329816)"
     style="opacity:0.8">
    <path
       d="m 24.59375,48.65625 c 0.05509,-0.28337 0.217148,-0.560898 0.4375,-0.78125 L 31.375,41.53125 c 0.587606,-0.587606 1.537394,-0.587606 2.125,0 l 8.5,8.5 L 42,29.5 C 42,28.669 42.669,28 43.5,28 l 9,0 c 0.831,0 1.5,0.669 1.5,1.5 l 0,20.53125 8.5,-8.5 c 0.587606,-0.587606 1.537394,-0.587606 2.125,0 l 6.34375,6.34375 c 0.587606,0.587606 0.587606,1.537394 0,2.125 L 48,73 25.03125,50 c -0.367254,-0.367254 -0.529313,-0.871466 -0.4375,-1.34375 z"
       inkscape:connector-curvature="0"
       id="rect3125"
       style="color:#000000;display:inline;overflow:visible;visibility:visible;opacity:0.8;fill:url(#linearGradient3149);fill-opacity:1;fill-rule:nonzero;stroke:none;stroke-width:2;marker:none;enable-background:accumulate" />
    <path
       d="M 71.3125,49.4375 C 71.239873,49.640016 71.131206,49.837544 70.96875,50 L 48,73 25.03125,50 c -0.157919,-0.157919 -0.296832,-0.336111 -0.375,-0.53125 -0.02293,0.06307 -0.05,0.123231 -0.0625,0.1875 C 24.50194,50.128534 24.664,50.632746 25.03125,51 L 48,74 70.96875,51 c 0.42515,-0.42515 0.533817,-1.032512 0.34375,-1.5625 z"
       inkscape:connector-curvature="0"
       id="path3960"
       style="color:#000000;display:inline;overflow:visible;visibility:visible;opacity:0.6;fill:#ffffff;fill-opacity:1;fill-rule:nonzero;stroke:none;stroke-width:2;marker:none;enable-background:accumulate" />
    <path
       d="m 24.59375,49.65625 c 0.05509,-0.28337 0.217148,-0.560898 0.4375,-0.78125 L 31.375,42.53125 c 0.587606,-0.587606 1.537394,-0.587606 2.125,0 l 8.5,8.5 L 42,30.5 C 42,29.669 42.669,29 43.5,29 l 9,0 c 0.831,0 1.5,0.669 1.5,1.5 l 0,20.53125 8.5,-8.5 c 0.587606,-0.587606 1.537394,-0.587606 2.125,0 l 6.34375,6.34375 c 0.587606,0.587606 0.587606,1.537394 0,2.125 L 48,74 25.03125,51 c -0.367254,-0.367254 -0.529313,-0.871466 -0.4375,-1.34375 z"
       inkscape:connector-curvature="0"
       clip-path="url(#clipPath3974)"
       id="path3970"
       style="color:#000000;display:inline;overflow:visible;visibility:visible;opacity:0.4;fill:none;stroke:#000000;stroke-width:15.71624279;marker:none;filter:url(#filter3978);enable-background:accumulate" />
  </g>
</svg>
