<?xml version="1.0" encoding="UTF-8" standalone="no"?>
<!-- Created with Inkscape (http://www.inkscape.org/) -->

<svg
   xmlns:dc="http://purl.org/dc/elements/1.1/"
   xmlns:cc="http://creativecommons.org/ns#"
   xmlns:rdf="http://www.w3.org/1999/02/22-rdf-syntax-ns#"
   xmlns:svg="http://www.w3.org/2000/svg"
   xmlns="http://www.w3.org/2000/svg"
   xmlns:sodipodi="http://sodipodi.sourceforge.net/DTD/sodipodi-0.dtd"
   xmlns:inkscape="http://www.inkscape.org/namespaces/inkscape"
   id="svg7384"
   sodipodi:docname="video-display.svg"
   version="1.1"
   inkscape:version="0.91 r"
   height="16"
   width="16">
  <metadata
     id="metadata90">
    <rdf:RDF>
      <cc:Work
         rdf:about="">
        <dc:format>image/svg+xml</dc:format>
        <dc:type
           rdf:resource="http://purl.org/dc/dcmitype/StillImage" />
        <dc:title>Gnome Symbolic Icon Theme</dc:title>
      </cc:Work>
    </rdf:RDF>
  </metadata>
  <sodipodi:namedview
     inkscape:cy="52.71033"
     pagecolor="#ffffff"
     borderopacity="1"
     showborder="true"
     inkscape:bbox-paths="false"
     guidetolerance="10"
     inkscape:window-width="1446"
     showguides="true"
     inkscape:object-nodes="true"
     inkscape:snap-bbox="true"
     inkscape:pageshadow="2"
     inkscape:guide-bbox="true"
     inkscape:snap-nodes="true"
     bordercolor="#666666"
     objecttolerance="10"
     id="namedview88"
     showgrid="false"
     inkscape:window-maximized="0"
     inkscape:window-x="304"
     inkscape:snap-global="true"
     inkscape:window-y="47"
     gridtolerance="10"
     inkscape:window-height="1021"
     inkscape:snap-to-guides="true"
     inkscape:current-layer="layer13"
     inkscape:zoom="2.8284271"
     inkscape:cx="-51.400382"
     inkscape:snap-grids="true"
     inkscape:pageopacity="1">
    <inkscape:grid
       spacingx="1px"
       spacingy="1px"
       id="grid4866"
       empspacing="2"
       enabled="true"
       type="xygrid"
       snapvisiblegridlinesonly="true"
       visible="true" />
  </sodipodi:namedview>
  <title
     id="title9167">Gnome Symbolic Icon Theme</title>
  <defs
     id="defs7386" />
  <g
     inkscape:label="status"
     transform="translate(-442,-176)"
     inkscape:groupmode="layer"
     id="layer9"
     style="display:inline" />
  <g
     inkscape:label="devices"
     transform="translate(-442,-176)"
     inkscape:groupmode="layer"
     id="layer10" />
  <g
     inkscape:label="apps"
     transform="translate(-442,-176)"
     inkscape:groupmode="layer"
     id="layer11" />
  <g
     inkscape:label="actions"
     transform="translate(-442,-176)"
     inkscape:groupmode="layer"
     id="layer12" />
  <g
     inkscape:label="places"
     transform="translate(-442,-176)"
     inkscape:groupmode="layer"
     id="layer13">
    <path
       style="opacity:0.75;fill:#ffffff;fill-opacity:1"
       d="m 443.82378,176.8889 c -1.01039,0 -1.82378,0.81339 -1.82378,1.82378 l 0,8.39844 0.88889,0 14.22222,0 0.85938,0 0,0.68924 c 0.0153,-0.0953 0.0295,-0.19101 0.0295,-0.2908 l 0,-8.79688 c 0,-1.01039 -0.81339,-1.82378 -1.82378,-1.82378 l -12.35244,0 z m -0.49045,1.33333 13.33334,0 0,7.55556 -13.33334,0 0,-7.55556 z"
       id="rect4156"
       inkscape:connector-curvature="0" />
    <rect
       style="opacity:0.2;fill:#ffffff;fill-opacity:1;stroke:none;stroke-width:1.5;stroke-miterlimit:4;stroke-dasharray:none;stroke-opacity:1"
       id="rect4168"
       width="13.333333"
       height="7.5555553"
       x="443.33334"
       y="178.22223"
       rx="0"
       ry="0" />
    <path
       style="opacity:0.5;fill:#ffffff;fill-opacity:1;stroke:none;stroke-width:1.5;stroke-miterlimit:4;stroke-dasharray:none;stroke-opacity:1"
       d="m 442,187.11112 0,0.39844 c 0,1.01039 0.81339,1.82378 1.82378,1.82378 l 12.35244,0 c 0.9106,0 1.65489,-0.66287 1.79427,-1.53298 l 0,-0.68924 -0.85938,0 0,0.45052 c 0,0.48902 -0.39379,0.88281 -0.88281,0.88281 l -12.4566,0 c -0.48902,0 -0.88281,-0.39379 -0.88281,-0.88281 l 0,-0.45052 -0.88889,0 z"
       id="rect4176"
       inkscape:connector-curvature="0" />
    <circle
       style="opacity:0.2;fill:#ffffff;fill-opacity:1;stroke:none;stroke-width:1.5;stroke-miterlimit:4;stroke-dasharray:none;stroke-opacity:1"
       id="path4184"
       cx="450"
       cy="187.77777"
       r="0.33333334" />
    <rect
       style="opacity:0.75;fill:#ffffff;fill-opacity:1;stroke:none;stroke-width:1.5;stroke-miterlimit:4;stroke-dasharray:none;stroke-opacity:1"
       id="rect4186"
       width="6.2222223"
       height="0.66666669"
       x="446.88889"
       y="191.33333" />
    <path
       style="opacity:0.3;fill:#ffffff;fill-opacity:1;stroke:none;stroke-width:1.5;stroke-miterlimit:4;stroke-dasharray:none;stroke-opacity:1"
       d="m 448.33333,189.33334 0,0.66667 c 1.3e-4,0.92464 -0.98081,1.22153 -1.44444,1.33333 l 6.22222,0 c -0.46363,-0.1118 -1.44457,-0.40869 -1.44444,-1.33333 l 0,-0.66667 -0.11111,0 -3.11112,0 -0.11111,0 z"
       id="rect4188"
       inkscape:connector-curvature="0" />
    <rect
       y="189.33333"
       x="448.33334"
       height="0.66666669"
       width="3.3333333"
       id="rect4195"
       style="opacity:0.3;fill:#ffffff;fill-opacity:1;stroke:none;stroke-width:1.5;stroke-miterlimit:4;stroke-dasharray:none;stroke-opacity:1" />
  </g>
  <g
     inkscape:label="mimetypes"
     transform="translate(-442,-176)"
     inkscape:groupmode="layer"
     id="layer14" />
  <g
     inkscape:label="emblems"
     transform="translate(-442,-176)"
     inkscape:groupmode="layer"
     id="layer15"
     style="display:inline" />
</svg>
