<?xml version="1.0" encoding="UTF-8" standalone="no"?>
<!-- Created with Inkscape (http://www.inkscape.org/) -->

<svg
   xmlns:dc="http://purl.org/dc/elements/1.1/"
   xmlns:cc="http://creativecommons.org/ns#"
   xmlns:rdf="http://www.w3.org/1999/02/22-rdf-syntax-ns#"
   xmlns:svg="http://www.w3.org/2000/svg"
   xmlns="http://www.w3.org/2000/svg"
   xmlns:sodipodi="http://sodipodi.sourceforge.net/DTD/sodipodi-0.dtd"
   xmlns:inkscape="http://www.inkscape.org/namespaces/inkscape"
   width="16.002939"
   height="15.99649"
   id="svg2"
   version="1.1"
   inkscape:version="0.92.0 unknown"
   sodipodi:docname="cronopete-arrow-4-green.svg">
  <defs
     id="defs4" />
  <sodipodi:namedview
     id="base"
     pagecolor="#ffffff"
     bordercolor="#666666"
     borderopacity="1.0"
     inkscape:pageopacity="0.0"
     inkscape:pageshadow="2"
     inkscape:zoom="23.75"
     inkscape:cx="-3.3137886"
     inkscape:cy="-1.89913"
     inkscape:document-units="px"
     inkscape:current-layer="layer2"
     showgrid="false"
     fit-margin-top="0.04"
     fit-margin-left="2.04"
     fit-margin-right="2.05"
     fit-margin-bottom="2.05"
     inkscape:window-width="1196"
     inkscape:window-height="1149"
     inkscape:window-x="1125"
     inkscape:window-y="223"
     inkscape:window-maximized="0" />
  <metadata
     id="metadata7">
    <rdf:RDF>
      <cc:Work
         rdf:about="">
        <dc:format>image/svg+xml</dc:format>
        <dc:type
           rdf:resource="http://purl.org/dc/dcmitype/StillImage" />
        <dc:title />
      </cc:Work>
    </rdf:RDF>
  </metadata>
  <g
     inkscape:groupmode="layer"
     id="layer2"
     inkscape:label="Capa 2"
     style="display:inline"
     transform="translate(7.7488424,-556.4765)">
    <g
       transform="matrix(-0.09539094,0,0,-0.09539094,9.8916433,655.18157)"
       id="g3864"
       style="fill:#ffffff">
      <g
         style="fill:#ffffff"
         id="g3839">
        <g
           style="fill:#ffffff"
           id="g6938"
           transform="matrix(2.5865943,0,0,2.5865943,-201.07544,-1543.0482)">
          <path
             sodipodi:nodetypes="ccccc"
             inkscape:connector-curvature="0"
             id="path6923"
             d="m 115.1428,966.20062 c 0.45573,-6.25 0.83765,-18.75 1.36719,-18.75 0.57923,0 0.91146,12.23958 1.36719,18.35938 2.99479,3.28775 9.33802,9.50962 8.98437,9.86327 -0.33998,0.33998 -7.8125,-6.3151 -11.71875,-9.47265 z"
             style="fill:#ffffff;fill-opacity:1;stroke:none" />
          <path
             inkscape:connector-curvature="0"
             id="path6925"
             d="m 87.007284,962.45466 h 12.91298 l -6.40691,11.0971 z"
             style="fill:#ffffff;fill-opacity:1;stroke:none" />
          <path
             sodipodi:nodetypes="ssccssscscccsss"
             inkscape:connector-curvature="0"
             id="path6927"
             d="m 116.79515,938.40374 c -14.40817,0 -26.156246,11.79916 -26.156246,26.3125 0,0.42264 0.0115,0.86339 0.0312,1.28125 l 4.96875,-1.28125 c 5e-5,-11.80129 9.440516,-21.28125 21.156296,-21.28125 11.71578,0 21.15625,9.47996 21.15625,21.28125 0,11.80129 -9.44047,21.34375 -21.15625,21.34375 -5.89796,0 -11.19476,-2.43862 -15.03125,-6.34375 0,0 -0.67902,-0.69462 -1.09111,-1.08783 -0.754946,-0.72037 -1.361936,-0.46313 -1.878276,-0.0472 -0.60421,0.48338 -1.13116,0.89515 -1.71811,1.44757 -0.48341,0.39706 -0.76297,1.05697 -0.3125,1.59375 4.805206,5.77177 11.997886,9.46875 20.031246,9.46875 14.40817,0 26.125,-11.86167 26.125,-26.375 0,-14.51334 -11.71683,-26.3125 -26.125,-26.3125 z"
             style="color:#000000;font-style:normal;font-variant:normal;font-weight:normal;font-stretch:normal;font-size:medium;line-height:normal;font-family:Sans;-inkscape-font-specification:Sans;text-indent:0;text-align:start;text-decoration:none;text-decoration-line:none;letter-spacing:normal;word-spacing:normal;text-transform:none;writing-mode:lr-tb;direction:ltr;baseline-shift:baseline;text-anchor:start;display:inline;overflow:visible;visibility:visible;fill:#ffffff;fill-opacity:1;fill-rule:nonzero;stroke:none;stroke-width:4.81500006;marker:none;enable-background:accumulate" />
        </g>
      </g>
    </g>
  </g>
</svg>
