<?xml version="1.0" encoding="UTF-8" standalone="no"?>
<!-- Created with Inkscape (http://www.inkscape.org/) -->

<svg
   xmlns:dc="http://purl.org/dc/elements/1.1/"
   xmlns:cc="http://creativecommons.org/ns#"
   xmlns:rdf="http://www.w3.org/1999/02/22-rdf-syntax-ns#"
   xmlns:svg="http://www.w3.org/2000/svg"
   xmlns="http://www.w3.org/2000/svg"
   xmlns:xlink="http://www.w3.org/1999/xlink"
   xmlns:sodipodi="http://sodipodi.sourceforge.net/DTD/sodipodi-0.dtd"
   xmlns:inkscape="http://www.inkscape.org/namespaces/inkscape"
   version="1.1"
   width="24"
   height="24"
   id="svg3658"
   inkscape:version="0.91 r"
   sodipodi:docname="evolution-mail.svg">
  <sodipodi:namedview
     pagecolor="#ffffff"
     bordercolor="#666666"
     borderopacity="1"
     objecttolerance="10"
     gridtolerance="10"
     guidetolerance="10"
     inkscape:pageopacity="0"
     inkscape:pageshadow="2"
     inkscape:window-width="1501"
     inkscape:window-height="1084"
     id="namedview68"
     showgrid="false"
     inkscape:zoom="4.9166667"
     inkscape:cx="24.492926"
     inkscape:cy="23.315701"
     inkscape:window-x="674"
     inkscape:window-y="128"
     inkscape:window-maximized="0"
     inkscape:current-layer="svg3658"
     showborder="false" />
  <defs
     id="defs3660">
    <linearGradient
       x1="16.626165"
       y1="15.298182"
       x2="20.054544"
       y2="24.627615"
       id="linearGradient3568"
       xlink:href="#linearGradient8265-821-176-38-919-66-249-7-7"
       gradientUnits="userSpaceOnUse"
       gradientTransform="matrix(0.82498024,0,0,1.3012336,4.1618797,-1.4329212)" />
    <linearGradient
       id="linearGradient8265-821-176-38-919-66-249-7-7">
      <stop
         id="stop2687-1-9"
         style="stop-color:#ffffff;stop-opacity:1"
         offset="0" />
      <stop
         id="stop2689-5-4"
         style="stop-color:#ffffff;stop-opacity:0"
         offset="1" />
    </linearGradient>
    <linearGradient
       x1="23.99999"
       y1="4.999989"
       x2="23.99999"
       y2="43"
       id="linearGradient2959"
       xlink:href="#linearGradient3924"
       gradientUnits="userSpaceOnUse"
       gradientTransform="translate(3.7e-6,1.00001)" />
    <linearGradient
       id="linearGradient3924">
      <stop
         id="stop3926"
         style="stop-color:#ffffff;stop-opacity:1"
         offset="0" />
      <stop
         id="stop3928"
         style="stop-color:#ffffff;stop-opacity:0.23529412"
         offset="0.06316455" />
      <stop
         id="stop3930"
         style="stop-color:#ffffff;stop-opacity:0.15686275"
         offset="0.95056331" />
      <stop
         id="stop3932"
         style="stop-color:#ffffff;stop-opacity:0.39215687"
         offset="1" />
    </linearGradient>
    <radialGradient
       cx="7.4956832"
       cy="8.4497671"
       r="19.99999"
       fx="7.4956832"
       fy="8.4497671"
       id="radialGradient2874"
       xlink:href="#linearGradient2867-449-88-871-390-598-476-591-434-148-57-177"
       gradientUnits="userSpaceOnUse"
       gradientTransform="matrix(1.9428467e-8,2.33699,-2.4722567,-4.3056275e-8,44.890104,-11.434799)" />
    <linearGradient
       id="linearGradient2867-449-88-871-390-598-476-591-434-148-57-177">
      <stop
         id="stop3750"
         style="stop-color:#90dbec;stop-opacity:1"
         offset="0" />
      <stop
         id="stop3752"
         style="stop-color:#55c1ec;stop-opacity:1"
         offset="0.26238" />
      <stop
         id="stop3754"
         style="stop-color:#3689e6;stop-opacity:1"
         offset="0.704952" />
      <stop
         id="stop3756"
         style="stop-color:#2b63a0;stop-opacity:1"
         offset="1" />
    </linearGradient>
    <linearGradient
       x1="24"
       y1="44"
       x2="24"
       y2="3.8990016"
       id="linearGradient2876"
       xlink:href="#linearGradient3707-319-631-407-324"
       gradientUnits="userSpaceOnUse"
       gradientTransform="translate(1.2e-6,1)" />
    <linearGradient
       id="linearGradient3707-319-631-407-324">
      <stop
         id="stop3760"
         style="stop-color:#185f9a;stop-opacity:1"
         offset="0" />
      <stop
         id="stop3762"
         style="stop-color:#599ec9;stop-opacity:1"
         offset="1" />
    </linearGradient>
    <radialGradient
       cx="4.9929786"
       cy="43.5"
       r="2.5"
       fx="4.9929786"
       fy="43.5"
       id="radialGradient3013"
       xlink:href="#linearGradient3688-166-749"
       gradientUnits="userSpaceOnUse"
       gradientTransform="matrix(2.003784,0,0,1.4,27.98813,-17.4)" />
    <linearGradient
       id="linearGradient3688-166-749">
      <stop
         id="stop2883"
         style="stop-color:#181818;stop-opacity:1"
         offset="0" />
      <stop
         id="stop2885"
         style="stop-color:#181818;stop-opacity:0"
         offset="1" />
    </linearGradient>
    <radialGradient
       cx="4.9929786"
       cy="43.5"
       r="2.5"
       fx="4.9929786"
       fy="43.5"
       id="radialGradient3015"
       xlink:href="#linearGradient3688-464-309"
       gradientUnits="userSpaceOnUse"
       gradientTransform="matrix(2.003784,0,0,1.4,-20.01187,-104.4)" />
    <linearGradient
       id="linearGradient3688-464-309">
      <stop
         id="stop2889"
         style="stop-color:#181818;stop-opacity:1"
         offset="0" />
      <stop
         id="stop2891"
         style="stop-color:#181818;stop-opacity:0"
         offset="1" />
    </linearGradient>
    <linearGradient
       id="linearGradient3702-501-757">
      <stop
         id="stop2895"
         style="stop-color:#181818;stop-opacity:0"
         offset="0" />
      <stop
         id="stop2897"
         style="stop-color:#181818;stop-opacity:1"
         offset="0.5" />
      <stop
         id="stop2899"
         style="stop-color:#181818;stop-opacity:0"
         offset="1" />
    </linearGradient>
    <linearGradient
       x1="25.058096"
       y1="47.027729"
       x2="25.058096"
       y2="39.999443"
       id="linearGradient3656"
       xlink:href="#linearGradient3702-501-757"
       gradientUnits="userSpaceOnUse" />
    <linearGradient
       x1="19.874987"
       y1="44.520065"
       x2="19.874987"
       y2="5.2502403"
       id="linearGradient3374-0"
       xlink:href="#linearGradient3707-319-631-407-1-846-9"
       gradientUnits="userSpaceOnUse" />
    <linearGradient
       id="linearGradient3707-319-631-407-1-846-9">
      <stop
         id="stop3788-1"
         style="stop-color:#365a7c;stop-opacity:1"
         offset="0" />
      <stop
         id="stop3790-7"
         style="stop-color:#5ea1ca;stop-opacity:1"
         offset="1" />
    </linearGradient>
    <linearGradient
       x1="19.874987"
       y1="44.520065"
       x2="19.874987"
       y2="5.2502403"
       id="linearGradient3372-1"
       xlink:href="#linearGradient3707-319-631-407-1-4-477-1"
       gradientUnits="userSpaceOnUse" />
    <linearGradient
       id="linearGradient3707-319-631-407-1-4-477-1">
      <stop
         id="stop3782-5"
         style="stop-color:#365a7c;stop-opacity:1"
         offset="0" />
      <stop
         id="stop3784-9"
         style="stop-color:#5ea1ca;stop-opacity:1"
         offset="1" />
    </linearGradient>
    <linearGradient
       x1="19.874987"
       y1="44.520065"
       x2="19.874987"
       y2="5.2502403"
       id="linearGradient3370-7"
       xlink:href="#linearGradient3707-319-631-407-1-9-274-7"
       gradientUnits="userSpaceOnUse" />
    <linearGradient
       id="linearGradient3707-319-631-407-1-9-274-7">
      <stop
         id="stop3776-6"
         style="stop-color:#365a7c;stop-opacity:1"
         offset="0" />
      <stop
         id="stop3778-7"
         style="stop-color:#5ea1ca;stop-opacity:1"
         offset="1" />
    </linearGradient>
    <linearGradient
       x1="19.874987"
       y1="44.520065"
       x2="19.874987"
       y2="5.2502403"
       id="linearGradient3041"
       xlink:href="#linearGradient3707-319-631-407-1-846-9"
       gradientUnits="userSpaceOnUse"
       gradientTransform="translate(-2.4867694e-7,-0.99957921)" />
    <linearGradient
       x1="19.874987"
       y1="44.520065"
       x2="19.874987"
       y2="5.2502403"
       id="linearGradient3044"
       xlink:href="#linearGradient3707-319-631-407-1-4-477-1"
       gradientUnits="userSpaceOnUse"
       gradientTransform="translate(-2.4867694e-7,-0.99957921)" />
    <linearGradient
       x1="19.874987"
       y1="44.520065"
       x2="19.874987"
       y2="5.2502403"
       id="linearGradient3047"
       xlink:href="#linearGradient3707-319-631-407-1-9-274-7"
       gradientUnits="userSpaceOnUse"
       gradientTransform="matrix(0.47682087,0,0,0.47033059,0.04636198,-0.0946686)" />
    <linearGradient
       x1="16.626165"
       y1="15.298182"
       x2="20.054544"
       y2="24.627615"
       id="linearGradient3050"
       xlink:href="#linearGradient8265-821-176-38-919-66-249-7-7"
       gradientUnits="userSpaceOnUse"
       gradientTransform="matrix(0.82498024,0,0,1.3012336,4.1618797,-1.4329212)" />
    <linearGradient
       x1="23.99999"
       y1="4.999989"
       x2="23.99999"
       y2="43"
       id="linearGradient3053"
       xlink:href="#linearGradient3924"
       gradientUnits="userSpaceOnUse"
       gradientTransform="matrix(0.47682087,0,0,0.47033059,0.04636378,0.8457991)" />
    <radialGradient
       cx="7.4956832"
       cy="8.4497671"
       r="19.99999"
       fx="7.4956832"
       fy="8.4497671"
       id="radialGradient3056"
       xlink:href="#linearGradient2867-449-88-871-390-598-476-591-434-148-57-177"
       gradientUnits="userSpaceOnUse"
       gradientTransform="matrix(0,1.0991579,-1.1788236,-2.0250684e-8,21.450901,-5.0026718)" />
    <filter
       inkscape:collect="always"
       style="color-interpolation-filters:sRGB"
       id="filter5558"
       x="-0.09112224"
       width="1.1822445"
       y="-0.11896865"
       height="1.2379373">
      <feGaussianBlur
         inkscape:collect="always"
         stdDeviation="2.4612939"
         id="feGaussianBlur5560" />
    </filter>
    <linearGradient
       inkscape:collect="always"
       xlink:href="#linearGradient5478"
       id="linearGradient5442"
       gradientUnits="userSpaceOnUse"
       gradientTransform="matrix(1.7443799,-0.5286567,0.44595508,1.8929208,-179.3627,-1856.4369)"
       x1="-110.16566"
       y1="1013.7268"
       x2="-109.9551"
       y2="1005.1628" />
    <linearGradient
       inkscape:collect="always"
       id="linearGradient5478">
      <stop
         style="stop-color:#919191;stop-opacity:1"
         offset="0"
         id="stop5480" />
      <stop
         style="stop-color:#b8b8b8;stop-opacity:1"
         offset="1"
         id="stop5482" />
    </linearGradient>
    <linearGradient
       inkscape:collect="always"
       xlink:href="#linearGradient5472"
       id="linearGradient5444"
       gradientUnits="userSpaceOnUse"
       x1="-108.98337"
       y1="1003.566"
       x2="-110.73661"
       y2="997.20203"
       gradientTransform="matrix(1.7443799,-0.5286567,0.44595508,1.8929208,-179.3627,-900.07462)" />
    <linearGradient
       id="linearGradient5472"
       inkscape:collect="always">
      <stop
         id="stop5474"
         offset="0"
         style="stop-color:#d8d8d8;stop-opacity:1" />
      <stop
         id="stop5476"
         offset="1"
         style="stop-color:#ffffff;stop-opacity:1" />
    </linearGradient>
    <linearGradient
       gradientTransform="matrix(1.9760963,-0.06417644,-0.06417644,2.1085124,136.08984,16.322248)"
       inkscape:collect="always"
       xlink:href="#linearGradient5603"
       id="linearGradient5450"
       gradientUnits="userSpaceOnUse"
       x1="-98.831955"
       y1="49.903255"
       x2="-100.90634"
       y2="49.48563" />
    <linearGradient
       id="linearGradient5603"
       inkscape:collect="always">
      <stop
         id="stop5605"
         offset="0"
         style="stop-color:#000000;stop-opacity:0.3" />
      <stop
         id="stop5607"
         offset="1"
         style="stop-color:#000000;stop-opacity:0;" />
    </linearGradient>
    <linearGradient
       gradientTransform="matrix(1.9760963,-0.06417644,-0.06417644,2.1085124,136.08984,16.322248)"
       inkscape:collect="always"
       xlink:href="#linearGradient5603"
       id="linearGradient5452"
       gradientUnits="userSpaceOnUse"
       x1="-103.06081"
       y1="44.248623"
       x2="-103.32598"
       y2="45.220894" />
    <linearGradient
       inkscape:collect="always"
       xlink:href="#linearGradient5464"
       id="linearGradient5448"
       gradientUnits="userSpaceOnUse"
       x1="-96.436127"
       y1="1017.6622"
       x2="-102.70726"
       y2="1016.2997"
       gradientTransform="matrix(1.7443799,-0.5286567,0.44595508,1.8929208,-179.3627,-900.07462)" />
    <linearGradient
       id="linearGradient5464"
       inkscape:collect="always">
      <stop
         id="stop5466"
         offset="0"
         style="stop-color:#ababab;stop-opacity:1" />
      <stop
         style="stop-color:#c6c6c6;stop-opacity:1"
         offset="0.37521935"
         id="stop5468" />
      <stop
         id="stop5470"
         offset="1"
         style="stop-color:#ededed;stop-opacity:1" />
    </linearGradient>
    <linearGradient
       inkscape:collect="always"
       xlink:href="#linearGradient4708"
       id="linearGradient4815"
       gradientUnits="userSpaceOnUse"
       gradientTransform="matrix(2.4454004,-0.65524317,0.65524317,2.4454004,-689.5978,-1356.9435)"
       x1="54.102127"
       y1="1011.392"
       x2="77.08403"
       y2="1033.9896" />
    <linearGradient
       id="linearGradient4708"
       inkscape:collect="always">
      <stop
         id="stop4710"
         offset="0"
         style="stop-color:#405f84;stop-opacity:1" />
      <stop
         id="stop4712"
         offset="1"
         style="stop-color:#466286;stop-opacity:0.39215687" />
    </linearGradient>
    <linearGradient
       inkscape:collect="always"
       xlink:href="#linearGradient4708"
       id="linearGradient4817"
       gradientUnits="userSpaceOnUse"
       x1="-83.653801"
       y1="27.772194"
       x2="-35.786449"
       y2="91.47258"
       gradientTransform="matrix(2.4403906,0,0,2.4403906,-6.2181239,931.34402)" />
    <linearGradient
       inkscape:collect="always"
       xlink:href="#linearGradient4708"
       id="linearGradient4819"
       gradientUnits="userSpaceOnUse"
       x1="-115.74624"
       y1="32.26556"
       x2="-44.778439"
       y2="100.53436"
       gradientTransform="matrix(1.3366956,0,0,1.3366956,-69.123664,1008.0372)" />
    <linearGradient
       inkscape:collect="always"
       xlink:href="#linearGradient4708"
       id="linearGradient4821"
       gradientUnits="userSpaceOnUse"
       x1="-111.50253"
       y1="34.954197"
       x2="-45.660904"
       y2="98.291779"
       gradientTransform="matrix(1.4407656,0,0,1.4407656,-63.192196,1000.8054)" />
    <linearGradient
       inkscape:collect="always"
       xlink:href="#linearGradient4708"
       id="linearGradient4823"
       gradientUnits="userSpaceOnUse"
       x1="-84.855873"
       y1="25.891172"
       x2="-34.830093"
       y2="92.463936"
       gradientTransform="matrix(2.3350953,0,0,2.3350953,-12.219348,938.66066)" />
    <linearGradient
       inkscape:collect="always"
       xlink:href="#linearGradient4708"
       id="linearGradient4720"
       x1="40.59235"
       y1="1008.2223"
       x2="74.334702"
       y2="1008.2223"
       gradientUnits="userSpaceOnUse"
       gradientTransform="matrix(1.9934105,0,0,1.9934105,-57.097851,-1087.3046)" />
    <linearGradient
       inkscape:collect="always"
       xlink:href="#linearGradient4708"
       id="linearGradient3704"
       gradientUnits="userSpaceOnUse"
       gradientTransform="matrix(1.9934105,0,0,1.9934105,-57.097851,-1087.3046)"
       x1="40.59235"
       y1="1008.2223"
       x2="74.334702"
       y2="1008.2223" />
    <linearGradient
       inkscape:collect="always"
       xlink:href="#linearGradient4708"
       id="linearGradient3706"
       gradientUnits="userSpaceOnUse"
       gradientTransform="matrix(1.9934105,0,0,1.9934105,-57.097851,-1087.3046)"
       x1="40.59235"
       y1="1008.2223"
       x2="74.334702"
       y2="1008.2223" />
    <linearGradient
       inkscape:collect="always"
       xlink:href="#linearGradient4708"
       id="linearGradient3708"
       gradientUnits="userSpaceOnUse"
       gradientTransform="matrix(1.9934105,0,0,1.9934105,-57.097851,-1087.3046)"
       x1="40.59235"
       y1="1008.2223"
       x2="74.334702"
       y2="1008.2223" />
    <linearGradient
       inkscape:collect="always"
       xlink:href="#linearGradient4708"
       id="linearGradient3710"
       gradientUnits="userSpaceOnUse"
       gradientTransform="matrix(1.9934105,0,0,1.9934105,-57.097851,-1087.3046)"
       x1="40.59235"
       y1="1008.2223"
       x2="74.334702"
       y2="1008.2223" />
    <linearGradient
       inkscape:collect="always"
       xlink:href="#linearGradient4708"
       id="linearGradient3712"
       gradientUnits="userSpaceOnUse"
       gradientTransform="matrix(1.9934105,0,0,1.9934105,-57.097851,-1087.3046)"
       x1="40.59235"
       y1="1008.2223"
       x2="74.334702"
       y2="1008.2223" />
    <linearGradient
       inkscape:collect="always"
       xlink:href="#linearGradient4708"
       id="linearGradient3714"
       gradientUnits="userSpaceOnUse"
       gradientTransform="matrix(1.9934105,0,0,1.9934105,-57.097851,-1087.3046)"
       x1="40.59235"
       y1="1008.2223"
       x2="74.334702"
       y2="1008.2223" />
    <linearGradient
       inkscape:collect="always"
       xlink:href="#linearGradient4708"
       id="linearGradient3716"
       gradientUnits="userSpaceOnUse"
       gradientTransform="matrix(1.9934105,0,0,1.9934105,-57.097851,-1087.3046)"
       x1="40.59235"
       y1="1008.2223"
       x2="74.334702"
       y2="1008.2223" />
    <linearGradient
       inkscape:collect="always"
       xlink:href="#linearGradient4708"
       id="linearGradient3718"
       gradientUnits="userSpaceOnUse"
       gradientTransform="matrix(1.9934105,0,0,1.9934105,-57.097851,-1087.3046)"
       x1="40.59235"
       y1="1008.2223"
       x2="74.334702"
       y2="1008.2223" />
    <linearGradient
       inkscape:collect="always"
       xlink:href="#linearGradient4708"
       id="linearGradient3720"
       gradientUnits="userSpaceOnUse"
       gradientTransform="matrix(1.9934105,0,0,1.9934105,-57.097851,-1087.3046)"
       x1="40.59235"
       y1="1008.2223"
       x2="74.334702"
       y2="1008.2223" />
    <linearGradient
       inkscape:collect="always"
       xlink:href="#linearGradient4708"
       id="linearGradient3722"
       gradientUnits="userSpaceOnUse"
       gradientTransform="matrix(1.9934105,0,0,1.9934105,-57.097851,-1087.3046)"
       x1="40.59235"
       y1="1008.2223"
       x2="74.334702"
       y2="1008.2223" />
    <linearGradient
       inkscape:collect="always"
       xlink:href="#linearGradient4708"
       id="linearGradient3724"
       gradientUnits="userSpaceOnUse"
       gradientTransform="matrix(1.9934105,0,0,1.9934105,-57.097851,-1087.3046)"
       x1="40.59235"
       y1="1008.2223"
       x2="74.334702"
       y2="1008.2223" />
    <linearGradient
       inkscape:collect="always"
       xlink:href="#linearGradient4708"
       id="linearGradient3726"
       gradientUnits="userSpaceOnUse"
       gradientTransform="matrix(1.9934105,0,0,1.9934105,-57.097851,-1087.3046)"
       x1="40.59235"
       y1="1008.2223"
       x2="74.334702"
       y2="1008.2223" />
    <linearGradient
       inkscape:collect="always"
       xlink:href="#linearGradient4708"
       id="linearGradient3728"
       gradientUnits="userSpaceOnUse"
       gradientTransform="matrix(1.9934105,0,0,1.9934105,-57.097851,-1087.3046)"
       x1="40.59235"
       y1="1008.2223"
       x2="74.334702"
       y2="1008.2223" />
    <linearGradient
       inkscape:collect="always"
       xlink:href="#linearGradient4708"
       id="linearGradient3730"
       gradientUnits="userSpaceOnUse"
       gradientTransform="matrix(1.9934105,0,0,1.9934105,-57.097851,-1087.3046)"
       x1="40.59235"
       y1="1008.2223"
       x2="74.334702"
       y2="1008.2223" />
    <linearGradient
       inkscape:collect="always"
       xlink:href="#linearGradient4708"
       id="linearGradient3732"
       gradientUnits="userSpaceOnUse"
       gradientTransform="matrix(1.9934105,0,0,1.9934105,-57.097851,-1087.3046)"
       x1="40.59235"
       y1="1008.2223"
       x2="74.334702"
       y2="1008.2223" />
    <linearGradient
       inkscape:collect="always"
       xlink:href="#linearGradient4708"
       id="linearGradient3734"
       gradientUnits="userSpaceOnUse"
       gradientTransform="matrix(1.9934105,0,0,1.9934105,-57.097851,-1087.3046)"
       x1="40.59235"
       y1="1008.2223"
       x2="74.334702"
       y2="1008.2223" />
    <linearGradient
       inkscape:collect="always"
       xlink:href="#linearGradient4708"
       id="linearGradient3736"
       gradientUnits="userSpaceOnUse"
       gradientTransform="matrix(1.9934105,0,0,1.9934105,-57.097851,-1087.3046)"
       x1="40.59235"
       y1="1008.2223"
       x2="74.334702"
       y2="1008.2223" />
    <linearGradient
       inkscape:collect="always"
       xlink:href="#linearGradient4708"
       id="linearGradient3738"
       gradientUnits="userSpaceOnUse"
       gradientTransform="matrix(1.9934105,0,0,1.9934105,-57.097851,-1087.3046)"
       x1="40.59235"
       y1="1008.2223"
       x2="74.334702"
       y2="1008.2223" />
    <linearGradient
       inkscape:collect="always"
       xlink:href="#linearGradient4708"
       id="linearGradient3740"
       gradientUnits="userSpaceOnUse"
       gradientTransform="matrix(1.9934105,0,0,1.9934105,-57.097851,-1087.3046)"
       x1="40.59235"
       y1="1008.2223"
       x2="74.334702"
       y2="1008.2223" />
    <linearGradient
       inkscape:collect="always"
       xlink:href="#linearGradient4708"
       id="linearGradient3742"
       gradientUnits="userSpaceOnUse"
       gradientTransform="matrix(1.9934105,0,0,1.9934105,-57.097851,-1087.3046)"
       x1="40.59235"
       y1="1008.2223"
       x2="74.334702"
       y2="1008.2223" />
    <linearGradient
       inkscape:collect="always"
       xlink:href="#linearGradient4708"
       id="linearGradient3744"
       gradientUnits="userSpaceOnUse"
       gradientTransform="matrix(1.9934105,0,0,1.9934105,-57.097851,-1087.3046)"
       x1="40.59235"
       y1="1008.2223"
       x2="74.334702"
       y2="1008.2223" />
    <linearGradient
       inkscape:collect="always"
       xlink:href="#linearGradient4708"
       id="linearGradient3746"
       gradientUnits="userSpaceOnUse"
       gradientTransform="matrix(1.9934105,0,0,1.9934105,-57.097851,-1087.3046)"
       x1="40.59235"
       y1="1008.2223"
       x2="74.334702"
       y2="1008.2223" />
    <linearGradient
       inkscape:collect="always"
       xlink:href="#linearGradient4708"
       id="linearGradient3748"
       gradientUnits="userSpaceOnUse"
       gradientTransform="matrix(1.9934105,0,0,1.9934105,-57.097851,-1087.3046)"
       x1="40.59235"
       y1="1008.2223"
       x2="74.334702"
       y2="1008.2223" />
  </defs>
  <metadata
     id="metadata3663">
    <rdf:RDF>
      <cc:Work
         rdf:about="">
        <dc:format>image/svg+xml</dc:format>
        <dc:type
           rdf:resource="http://purl.org/dc/dcmitype/StillImage" />
        <dc:title></dc:title>
      </cc:Work>
    </rdf:RDF>
  </metadata>
  <g
     transform="matrix(0.5521086,0,0,0.26876034,-1.760543,9.378935)"
     id="g3712"
     style="opacity:0.4">
    <rect
       width="5"
       height="7"
       x="38"
       y="40"
       id="rect2801"
       style="fill:url(#radialGradient3013);fill-opacity:1;stroke:none" />
    <rect
       width="5"
       height="7"
       x="-10"
       y="-47"
       transform="scale(-1,-1)"
       id="rect3696"
       style="fill:url(#radialGradient3015);fill-opacity:1;stroke:none" />
    <rect
       width="28"
       height="7.0000005"
       x="10"
       y="40"
       id="rect3700"
       style="fill:url(#linearGradient3656);fill-opacity:1;stroke:none" />
  </g>
  <rect
     width="18.596014"
     height="18.342894"
     rx="0.95364177"
     ry="0.94066119"
     x="2.1920559"
     y="2.9622822"
     id="rect5505-21"
     style="color:#000000;display:inline;overflow:visible;visibility:visible;fill:url(#radialGradient3056);fill-opacity:1;fill-rule:nonzero;stroke:none;stroke-width:1;marker:none;enable-background:accumulate" />
  <rect
     width="17.642372"
     height="17.402231"
     rx="0.47682089"
     ry="0.4703306"
     x="2.6688769"
     y="3.4326124"
     id="rect6741"
     style="opacity:0.5;fill:none;stroke:url(#linearGradient3053);stroke-width:1;stroke-linecap:round;stroke-linejoin:round;stroke-miterlimit:4;stroke-dasharray:none;stroke-dashoffset:0;stroke-opacity:1" />
  <path
     d="M 8.9718525,6.534054 A 1.3871527,1.3682714 0 0 0 7.7201976,7.900951 l 0,2.866078 -0.7599329,0 A 1.3871527,1.3682714 0 0 0 5.917219,13.030495 l 4.529798,5.173636 a 1.3871527,1.3682714 0 0 0 2.086092,0 l 4.529798,-5.173636 a 1.3871527,1.3682714 0 0 0 -1.043046,-2.263466 l -0.759933,0 0,-2.866078 A 1.3871527,1.3682714 0 0 0 13.874167,6.534054 l -4.768209,0 a 1.3871527,1.3682714 0 0 0 -0.1341055,0 z"
     inkscape:connector-curvature="0"
     id="path3932-8-3"
     style="color:#000000;display:inline;overflow:visible;visibility:visible;opacity:0.05;fill:url(#linearGradient3047);fill-opacity:1;fill-rule:nonzero;stroke:none;stroke-width:1;marker:none;enable-background:accumulate" />
  <rect
     width="18.596014"
     height="18.342892"
     rx="0.95364177"
     ry="0.94066119"
     x="2.1920559"
     y="2.9622822"
     id="rect5505-21-8"
     style="color:#000000;display:inline;overflow:visible;visibility:visible;opacity:0.3;fill:none;stroke:#000000;stroke-width:1;stroke-linecap:round;stroke-linejoin:round;stroke-miterlimit:4;stroke-dasharray:none;stroke-dashoffset:0;stroke-opacity:1;marker:none;enable-background:accumulate" />
  <g
     id="g5609"
     transform="matrix(0.27508184,-0.00223727,0.00248263,0.24789499,-3.6231986,-237.28971)">
    <path
       transform="matrix(0.82964049,-0.09506203,0.09506203,0.82964049,-84.961823,179.29878)"
       inkscape:connector-curvature="0"
       id="path5498"
       d="m 73.161467,984.00671 -1.458984,0.41797 -0.0039,0.002 -63.3632806,18.19142 15.9707026,9.9999 1.126953,11.2715 -0.0059,0.01 6.875,-4.0938 15.630859,13.8536 25.21875,-49.64062 0.0098,-0.008 0,-0.004 z"
       style="opacity:0.3;fill:#000000;fill-opacity:0.68639054;fill-rule:evenodd;stroke:none;stroke-width:1px;stroke-linecap:butt;stroke-linejoin:miter;stroke-opacity:1;filter:url(#filter5558)" />
    <g
       transform="matrix(0.75935875,-0.08700899,0.08700899,0.75935875,-74.896402,251.12389)"
       id="g5485">
      <path
         inkscape:connector-curvature="0"
         style="opacity:1;fill:url(#linearGradient5442);fill-opacity:1;fill-rule:evenodd;stroke:none;stroke-width:1px;stroke-linecap:butt;stroke-linejoin:miter;stroke-opacity:1"
         d="m 80.171875,15.394531 -34.476563,20.191407 -18.90039,11.068359 1.230469,12.320312 18.388671,-15.365234 0,0.0059 33.757813,-28.220703 z"
         transform="translate(0,956.36218)"
         id="path5422" />
      <path
         sodipodi:nodetypes="cccc"
         inkscape:connector-curvature="0"
         id="path5424"
         d="M 26.79446,1003.0172 9.3450503,992.0906 80.17203,971.75752 Z"
         style="opacity:1;fill:url(#linearGradient5444);fill-rule:evenodd;stroke:none;stroke-width:1px;stroke-linecap:butt;stroke-linejoin:miter;stroke-opacity:1" />
      <path
         sodipodi:nodetypes="cccc"
         inkscape:connector-curvature="0"
         id="path5426"
         d="m 32.18575,1007.9035 3.34454,2.9644 -7.51184,4.4745 z"
         style="opacity:1;fill:#b8b8b8;fill-opacity:1;fill-rule:evenodd;stroke:none;stroke-width:1px;stroke-linecap:butt;stroke-linejoin:miter;stroke-opacity:1" />
      <path
         sodipodi:nodetypes="cccc"
         inkscape:connector-curvature="0"
         id="path5430"
         d="M 80.16243,971.76482 52.60806,1026.0045 49.88174,994.6158 Z"
         style="opacity:1;fill:#ffffff;fill-opacity:1;fill-rule:evenodd;stroke:none;stroke-width:1px;stroke-linecap:butt;stroke-linejoin:miter;stroke-opacity:1" />
      <path
         id="path5434"
         d="m 80.1713,971.75717 -1.59264,0.45657 -52.17559,30.55796 0.39198,0.2454 53.37625,-31.25993 z"
         style="opacity:0.5;fill:#ececec;fill-opacity:1;fill-rule:evenodd;stroke:none;stroke-width:1px;stroke-linecap:butt;stroke-linejoin:miter;stroke-opacity:1"
         inkscape:connector-curvature="0" />
      <g
         id="g5436"
         transform="matrix(0.89048937,-0.23860591,0.23860591,0.89048937,-106.14292,76.549911)">
        <path
           style="opacity:1;fill:url(#linearGradient5450);fill-opacity:1;fill-rule:evenodd;stroke:none;stroke-width:1px;stroke-linecap:butt;stroke-linejoin:miter;stroke-opacity:1"
           d="m -97.904297,45.376953 -7.056643,1.937719 -1.27581,9.8389 6.832453,-3.169197 z"
           id="path5438"
           inkscape:connector-curvature="0"
           sodipodi:nodetypes="ccccc"
           transform="translate(0,956.36218)" />
        <path
           style="opacity:0.5;fill:url(#linearGradient5452);fill-opacity:1;fill-rule:evenodd;stroke:none;stroke-width:1px;stroke-linecap:butt;stroke-linejoin:miter;stroke-opacity:1"
           d="m -136.0293,35.320312 5.18204,5.567863 25.24328,6.603074 7.699683,-2.114296 z"
           id="path5440"
           inkscape:connector-curvature="0"
           sodipodi:nodetypes="ccccc"
           transform="translate(0,956.36218)" />
      </g>
      <path
         style="opacity:1;fill:url(#linearGradient5448);fill-opacity:1;fill-rule:evenodd;stroke:none;stroke-width:1px;stroke-linecap:butt;stroke-linejoin:miter;stroke-opacity:1"
         d="m 32.18575,1007.9035 20.42231,18.101 -2.72632,-31.3887 z"
         id="path5432"
         inkscape:connector-curvature="0"
         sodipodi:nodetypes="cccc" />
    </g>
  </g>
  <g
     id="g4730"
     transform="matrix(0.23919849,0,0,0.23594263,-0.20590183,-225.53716)">
    <path
       style="fill:url(#linearGradient4815);fill-opacity:1;stroke:none"
       d="m 72.509458,1021.2174 c -1.360398,0.442 -1.522639,1.8112 -1.302784,3.2132 2.669461,-1.8071 1.302784,-3.2132 1.302784,-3.2132 z m 1.009864,2.6152 c -0.761414,0.2763 -1.49285,0.8895 -2.105343,1.8661 0,0 -3.97067,-1.8956 -5.0925,1.8419 -1.088387,3.6261 3.148806,7.0547 3.148806,7.0547 0.937251,0.6658 2.439492,1.1418 3.23877,0.3039 0.497529,-0.6329 1.263515,-0.8682 2.234576,-0.6421 0.920091,0.3895 2.304426,-0.2495 2.829632,-1.7998 0.418819,-0.815 0.683819,-1.6268 0.817154,-2.3888 -1.380681,-0.1015 -2.598358,-1.0452 -2.971306,-2.437 -0.327653,-1.2228 0.09475,-2.4645 0.97637,-3.2778 -0.82118,-0.5887 -1.800073,-0.8363 -2.746556,-0.6094 -0.108873,0.029 -0.221534,0.046 -0.329603,0.088 z"
       id="path3210"
       inkscape:connector-curvature="0" />
    <circle
       transform="matrix(0.96592583,-0.25881904,0.25881904,0.96592583,0,0)"
       id="path3506"
       style="fill:none;stroke:url(#linearGradient4817);stroke-width:2.67298865;stroke-miterlimit:4;stroke-dasharray:none"
       cx="-196.6127"
       cy="1011.9572"
       r="23.67662" />
    <circle
       style="fill:none;stroke:url(#linearGradient4819);stroke-width:2.67298865;stroke-miterlimit:4;stroke-dasharray:none;marker-mid:none"
       id="path4276"
       transform="matrix(0.96592583,-0.25881905,0.25881905,0.96592583,0,0)"
       cx="-196.61272"
       cy="1011.9572"
       r="12.968593" />
    <circle
       transform="matrix(0.96592583,-0.25881904,0.25881904,0.96592583,0,0)"
       id="path4523"
       style="fill:none;stroke:url(#linearGradient4821);stroke-width:2.6099577;stroke-miterlimit:4;stroke-dasharray:none;marker-mid:none"
       cx="-196.61272"
       cy="1011.9572"
       r="13.978278" />
    <circle
       style="fill:none;stroke:url(#linearGradient4823);stroke-width:2.68643761;stroke-miterlimit:4;stroke-dasharray:none"
       id="path4525"
       transform="matrix(0.96592583,-0.25881904,0.25881904,0.96592583,0,0)"
       cx="-196.6127"
       cy="1011.9572"
       r="22.655058" />
    <g
       id="text4278"
       style="font-style:normal;font-variant:normal;font-weight:bold;font-stretch:normal;font-size:5.09886456px;line-height:100%;font-family:'Liberation Sans';-inkscape-font-specification:'Liberation Sans Bold';text-align:start;letter-spacing:0px;word-spacing:0px;text-anchor:start;fill:url(#linearGradient4720);fill-opacity:1;stroke:none"
       transform="matrix(-0.85003077,0.85003078,-0.85003078,-0.85003077,978.16781,1836.7427)">
      <path
         inkscape:connector-curvature="0"
         id="path4668"
         style="font-weight:bold;-inkscape-font-specification:'Liberation Sans Bold';fill:url(#linearGradient3704);fill-opacity:1"
         d="m 71.592596,1011.7815 c -0.158064,-0.02 -0.298464,-0.067 -0.421199,-0.1415 -0.121089,-0.074 -0.219979,-0.1778 -0.29667,-0.3113 -0.0769,-0.132 -0.128816,-0.2959 -0.15575,-0.4917 -0.0255,-0.194 -0.02168,-0.4211 0.01144,-0.6812 0.02935,-0.2305 0.07582,-0.4312 0.139414,-0.6022 0.06359,-0.1709 0.1438,-0.3146 0.240621,-0.4311 0.09661,-0.1149 0.20922,-0.2043 0.337831,-0.2682 0.130046,-0.062 0.274656,-0.1006 0.43383,-0.1155 l 0.02646,0.7187 c -0.0799,0.01 -0.15437,0.03 -0.223404,0.059 -0.06904,0.03 -0.13162,0.074 -0.187753,0.1342 -0.0547,0.062 -0.101507,0.1402 -0.140429,0.2356 -0.03748,0.097 -0.06524,0.2167 -0.08327,0.3583 -0.03145,0.247 -0.0184,0.4403 0.03913,0.5798 0.05897,0.1413 0.168306,0.2222 0.328017,0.2425 0.0955,0.012 0.177058,0 0.244688,-0.049 0.06763,-0.045 0.126755,-0.1086 0.177383,-0.1908 0.05063,-0.082 0.09634,-0.1785 0.137153,-0.2887 0.04081,-0.1103 0.08142,-0.2256 0.121844,-0.3459 0.03563,-0.096 0.07208,-0.1916 0.109357,-0.2873 0.03727,-0.096 0.07896,-0.1865 0.125073,-0.2727 0.04589,-0.084 0.09764,-0.1624 0.155247,-0.2337 0.0576,-0.071 0.124645,-0.1314 0.201137,-0.1802 0.07793,-0.047 0.16591,-0.081 0.263955,-0.1019 0.09783,-0.019 0.210137,-0.021 0.33692,0 0.172879,0.022 0.316661,0.075 0.431346,0.1603 0.114679,0.085 0.202957,0.1932 0.264832,0.3249 0.06331,0.1335 0.102275,0.2874 0.116909,0.4616 0.01463,0.1742 0.0092,0.3618 -0.01642,0.5626 -0.02893,0.2273 -0.07178,0.4192 -0.128546,0.576 -0.05533,0.1586 -0.12614,0.2876 -0.212419,0.387 -0.08649,0.1011 -0.18888,0.1759 -0.307159,0.2245 -0.116847,0.05 -0.250425,0.081 -0.400734,0.092 l -0.0064,-0.7186 c 0.15444,-0.017 0.276659,-0.077 0.366655,-0.1792 0.08978,-0.1007 0.147881,-0.2547 0.174298,-0.4622 0.01635,-0.1284 0.01845,-0.2369 0.0063,-0.3255 -0.01072,-0.087 -0.03176,-0.158 -0.06312,-0.2138 -0.03158,-0.054 -0.07153,-0.095 -0.119845,-0.1232 -0.04667,-0.028 -0.098,-0.045 -0.153975,-0.052 -0.08562,-0.011 -0.15904,6e-4 -0.220259,0.035 -0.05958,0.034 -0.113017,0.086 -0.160318,0.1553 -0.04566,0.069 -0.08816,0.1535 -0.127497,0.2523 -0.03791,0.1005 -0.07789,0.2109 -0.119957,0.331 -0.03689,0.1058 -0.07532,0.2105 -0.115286,0.3141 -0.03833,0.1039 -0.08096,0.2022 -0.127903,0.295 -0.04695,0.093 -0.100462,0.1779 -0.160547,0.2556 -0.06009,0.078 -0.130232,0.1424 -0.210433,0.1941 -0.07877,0.053 -0.169745,0.091 -0.272936,0.1133 -0.103402,0.024 -0.222609,0.027 -0.357621,0.01" />
      <path
         inkscape:connector-curvature="0"
         id="path4670"
         style="font-weight:bold;-inkscape-font-specification:'Liberation Sans Bold';fill:url(#linearGradient3706);fill-opacity:1"
         d="m 70.37192,1012.1687 3.342991,1.0631 -0.222581,0.6999 -3.34299,-1.0631 0.22258,-0.6999" />
      <path
         inkscape:connector-curvature="0"
         id="path4672"
         style="font-weight:bold;-inkscape-font-specification:'Liberation Sans Bold';fill:url(#linearGradient3708);fill-opacity:1"
         d="m 69.638951,1015.2583 c -0.05189,0.093 -0.09451,0.1858 -0.12786,0.2794 -0.03335,0.094 -0.05871,0.183 -0.07607,0.2684 -0.01673,0.088 -0.0261,0.169 -0.02811,0.2439 -0.0014,0.077 0.004,0.144 0.01628,0.2003 l 0.423628,0.2371 0.418349,-0.7473 0.473594,0.2651 -0.746706,1.3339 -1.125327,-0.6299 c -0.03205,-0.1093 -0.0531,-0.2314 -0.06314,-0.3663 -0.0086,-0.1342 -0.0031,-0.2766 0.01662,-0.4273 0.02112,-0.1499 0.05814,-0.306 0.111061,-0.4685 0.05211,-0.1611 0.123973,-0.3234 0.215587,-0.4871 0.151612,-0.2708 0.321248,-0.4821 0.508907,-0.6338 0.189109,-0.151 0.389173,-0.2501 0.600193,-0.2975 0.212469,-0.046 0.432765,-0.046 0.660889,0 0.227312,0.049 0.456108,0.1384 0.686389,0.2673 0.238967,0.1338 0.436927,0.2864 0.593879,0.458 0.156949,0.1715 0.266691,0.3595 0.329228,0.5638 0.06317,0.2065 0.07624,0.4278 0.0392,0.6639 -0.0364,0.2383 -0.128786,0.49 -0.277152,0.755 -0.107832,0.1926 -0.222329,0.353 -0.343491,0.4811 -0.121975,0.1295 -0.248936,0.2306 -0.380881,0.3032 -0.132758,0.074 -0.269458,0.1212 -0.410101,0.1414 -0.140007,0.022 -0.283405,0.022 -0.430194,0 l 0.152647,-0.6906 c 0.07832,0.01 0.15788,0.01 0.238687,0 0.08225,-0.011 0.162623,-0.037 0.241109,-0.079 0.07912,-0.039 0.15491,-0.095 0.227367,-0.1666 0.07309,-0.069 0.140041,-0.1584 0.200849,-0.267 0.08918,-0.1593 0.140858,-0.3111 0.15503,-0.4554 0.01562,-0.1434 -0.0018,-0.2787 -0.05237,-0.4059 -0.05053,-0.1272 -0.130838,-0.2454 -0.240914,-0.3546 -0.108631,-0.1083 -0.243327,-0.2075 -0.404086,-0.2975 -0.159314,-0.089 -0.315727,-0.153 -0.469238,-0.1913 -0.154324,-0.037 -0.300359,-0.044 -0.438105,-0.023 -0.138558,0.023 -0.26706,0.078 -0.385508,0.1636 -0.118447,0.086 -0.221857,0.2078 -0.310229,0.3656" />
      <path
         inkscape:connector-curvature="0"
         id="path4674"
         style="font-weight:bold;-inkscape-font-specification:'Liberation Sans Bold';fill:url(#linearGradient3710);fill-opacity:1"
         d="m 66.422062,1018.4501 2.982038,0.861 c -0.05702,-0.046 -0.113444,-0.093 -0.169275,-0.1409 -0.04887,-0.04 -0.100029,-0.086 -0.153488,-0.1354 -0.05465,-0.049 -0.105191,-0.097 -0.151633,-0.1442 l -1.447288,-1.4785 0.466129,-0.4563 2.453945,2.5068 -0.599563,0.5869 -3.013724,-0.8613 c 0.0547,0.044 0.111122,0.091 0.169275,0.1409 0.05003,0.042 0.105266,0.09 0.165716,0.1444 0.05927,0.056 0.117926,0.1133 0.175979,0.1726 l 1.426388,1.4571 -0.466128,0.4563 -2.453946,-2.5068 0.615575,-0.6026" />
      <path
         inkscape:connector-curvature="0"
         id="path4676"
         style="font-weight:bold;-inkscape-font-specification:'Liberation Sans Bold';fill:url(#linearGradient3712);fill-opacity:1"
         d="m 65.234368,1019.4597 1.712052,3.0618 -2.407723,1.3463 -0.277039,-0.4955 1.766678,-0.9878 -0.43014,-0.7693 -1.634122,0.9138 -0.277039,-0.4955 1.634122,-0.9137 -0.450795,-0.8062 -1.855772,1.0377 -0.277039,-0.4955 2.496817,-1.3961" />
      <path
         inkscape:connector-curvature="0"
         id="path4678"
         style="font-weight:bold;-inkscape-font-specification:'Liberation Sans Bold';fill:url(#linearGradient3714);fill-opacity:1"
         d="m 59.608408,1023.5427 c -0.07023,-0.2836 -0.08939,-0.5439 -0.05747,-0.7809 0.03232,-0.2354 0.104628,-0.444 0.216932,-0.6257 0.11231,-0.1817 0.260784,-0.3348 0.445424,-0.4592 0.183034,-0.124 0.391354,-0.2149 0.624962,-0.2728 l 1.377493,-0.3411 0.843392,3.405 -1.232493,0.3053 c -0.26422,0.065 -0.514871,0.092 -0.751954,0.081 -0.237081,-0.011 -0.452331,-0.066 -0.645751,-0.1632 -0.193416,-0.098 -0.360568,-0.2408 -0.501457,-0.4299 -0.140883,-0.1891 -0.247241,-0.4286 -0.319073,-0.7186 m 0.717746,-0.1778 c 0.04909,0.1982 0.118574,0.3614 0.208466,0.4896 0.08829,0.1286 0.191932,0.226 0.310944,0.2923 0.119413,0.068 0.252172,0.1068 0.398278,0.1168 0.144497,0.01 0.298105,0 0.460826,-0.045 l 0.50508,-0.1251 -0.570442,-2.3031 -0.604163,0.1497 c -0.143387,0.035 -0.269312,0.093 -0.377776,0.1731 -0.110071,0.08 -0.197242,0.1805 -0.261512,0.3007 -0.06548,0.1222 -0.105034,0.2629 -0.118667,0.4218 -0.01524,0.1594 0.0011,0.3358 0.04897,0.5291" />
      <path
         inkscape:connector-curvature="0"
         id="path4680"
         style="font-weight:bold;-inkscape-font-specification:'Liberation Sans Bold';fill:url(#linearGradient3716);fill-opacity:1"
         d="m 56.560221,1021.7365 c 0.128739,0.014 0.242431,0.043 0.341078,0.089 0.09682,0.047 0.177122,0.1081 0.240901,0.1833 0.0636,0.077 0.109037,0.1677 0.136298,0.2724 0.02726,0.1047 0.03405,0.2215 0.02037,0.3502 -0.01684,0.1584 -0.05819,0.2884 -0.124061,0.3899 -0.06769,0.103 -0.152912,0.1824 -0.255657,0.2382 -0.10292,0.057 -0.220327,0.094 -0.352224,0.1103 -0.13207,0.018 -0.270815,0.02 -0.416235,0.01 l -0.577899,-0.052 -0.01447,0.1362 c -0.01035,0.097 -0.0099,0.1792 0.0014,0.2455 0.0095,0.068 0.02855,0.1241 0.05717,0.1688 0.02863,0.045 0.06682,0.078 0.114578,0.1 0.04594,0.023 0.100263,0.038 0.16298,0.045 0.05777,0.01 0.110374,0.01 0.157814,-7e-4 0.04579,-0.01 0.08677,-0.023 0.122937,-0.05 0.03599,-0.024 0.06735,-0.06 0.09407,-0.1076 0.02489,-0.046 0.04541,-0.1054 0.06156,-0.1788 l 0.721708,0.1118 c -0.03226,0.1151 -0.07988,0.2177 -0.142874,0.3078 -0.06316,0.092 -0.144731,0.1682 -0.244702,0.2293 -0.101619,0.061 -0.222117,0.1033 -0.361493,0.1269 -0.141199,0.025 -0.303401,0.028 -0.486608,0.01 -0.166697,-0.018 -0.313049,-0.054 -0.439055,-0.1092 -0.126001,-0.055 -0.230006,-0.1288 -0.312015,-0.2209 -0.08218,-0.091 -0.140888,-0.1978 -0.176126,-0.3217 -0.03523,-0.1239 -0.04452,-0.2643 -0.02786,-0.4211 l 0.103665,-0.9754 c 0.0067,-0.063 0.01016,-0.1191 0.01047,-0.1692 -0.0013,-0.05 -0.0076,-0.093 -0.01877,-0.1297 -0.01299,-0.035 -0.03256,-0.063 -0.05869,-0.084 -0.02795,-0.02 -0.06504,-0.032 -0.111253,-0.037 -0.05281,-0.01 -0.104504,-0.01 -0.155074,0 l 0.03999,-0.3763 c 0.04232,-0.01 0.08042,-0.011 0.114302,-0.015 0.03389,0 0.0676,-0.01 0.101135,-0.01 0.03354,0 0.06946,0 0.107772,0 0.03666,6e-4 0.07975,0 0.129264,0.01 0.174955,0.018 0.299958,0.075 0.37501,0.17 0.07341,0.095 0.109501,0.2261 0.108288,0.3946 l 0.01485,0 c 0.110146,-0.1569 0.242751,-0.2739 0.397815,-0.3509 0.153417,-0.077 0.33328,-0.1047 0.539591,-0.083 m -0.946647,1.2038 0.357032,0.033 c 0.07463,0 0.146298,0.01 0.215019,0 0.0669,0 0.127507,-0.014 0.181829,-0.038 0.0525,-0.023 0.09649,-0.06 0.131991,-0.1112 0.0355,-0.051 0.05825,-0.124 0.06824,-0.218 0.01351,-0.1271 -0.0053,-0.2251 -0.05639,-0.294 -0.05293,-0.067 -0.12808,-0.1062 -0.22546,-0.1165 -0.08913,-0.01 -0.172017,9e-4 -0.248674,0.031 -0.07665,0.03 -0.142985,0.073 -0.198991,0.1291 -0.05783,0.057 -0.105071,0.1249 -0.141726,0.2027 -0.03665,0.078 -0.05945,0.159 -0.0684,0.2431 l -0.01447,0.1362" />
      <path
         inkscape:connector-curvature="0"
         id="path4682"
         style="font-weight:bold;-inkscape-font-specification:'Liberation Sans Bold';fill:url(#linearGradient3718);fill-opacity:1"
         d="m 52.701872,1020.9223 -0.489473,1.4297 c -0.03386,0.099 -0.05692,0.1919 -0.06918,0.279 -0.01279,0.089 -0.01107,0.1681 0.0052,0.2386 0.01569,0.072 0.04694,0.1345 0.09375,0.1873 0.04681,0.053 0.111834,0.094 0.195058,0.1221 0.08009,0.027 0.15929,0.034 0.237606,0.021 0.07621,-0.012 0.149161,-0.044 0.218847,-0.093 0.06915,-0.048 0.132665,-0.1134 0.190539,-0.1953 0.05577,-0.081 0.102199,-0.1755 0.139291,-0.2839 l 0.467701,-1.3662 0.661888,0.2266 -0.677359,1.9786 c -0.01881,0.055 -0.03738,0.1118 -0.0557,0.1704 -0.01989,0.058 -0.03713,0.1136 -0.05174,0.1665 -0.01671,0.054 -0.03126,0.1016 -0.04367,0.143 -0.01294,0.043 -0.02134,0.075 -0.02519,0.097 l -0.631267,-0.2161 c 0.0033,-0.02 0.01065,-0.052 0.02203,-0.095 0.01084,-0.042 0.02329,-0.088 0.03735,-0.1398 0.01406,-0.051 0.02891,-0.1024 0.04454,-0.1532 0.01406,-0.051 0.02701,-0.094 0.03883,-0.1288 l -0.0094,0 c -0.156167,0.164 -0.316827,0.2669 -0.481981,0.3086 -0.16515,0.042 -0.341159,0.031 -0.528029,-0.033 -0.153888,-0.053 -0.274838,-0.1221 -0.362849,-0.2084 -0.08958,-0.087 -0.152289,-0.1855 -0.188141,-0.296 -0.03742,-0.111 -0.05062,-0.2313 -0.0396,-0.3609 0.01102,-0.1296 0.04019,-0.2634 0.08749,-0.4016 l 0.553983,-1.6182 0.659533,0.2258" />
      <path
         inkscape:connector-curvature="0"
         id="path4684"
         style="font-weight:bold;-inkscape-font-specification:'Liberation Sans Bold';fill:url(#linearGradient3720);fill-opacity:1"
         d="m 49.952732,1019.4626 c -0.0043,0.013 -0.01322,0.035 -0.02676,0.066 -0.01583,0.031 -0.03319,0.066 -0.05206,0.1055 -0.02027,0.038 -0.04099,0.077 -0.06216,0.1168 -0.02256,0.039 -0.04317,0.073 -0.06181,0.1023 l 0.0084,0.01 c 0.16193,-0.1038 0.325019,-0.1489 0.489268,-0.1353 0.161961,0.014 0.328491,0.075 0.49959,0.1836 0.143052,0.091 0.248529,0.1986 0.31643,0.3241 0.0665,0.1246 0.100821,0.2612 0.102964,0.4099 7.42e-4,0.1478 -0.02733,0.3039 -0.08422,0.4682 -0.05917,0.1649 -0.142468,0.3322 -0.249879,0.5019 -0.109185,0.1725 -0.226323,0.3203 -0.351415,0.4434 -0.126493,0.1223 -0.258347,0.2127 -0.395563,0.2712 -0.1381,0.06 -0.280489,0.085 -0.427165,0.074 -0.148076,-0.011 -0.297847,-0.065 -0.449315,-0.1607 -0.07433,-0.047 -0.140972,-0.1 -0.19993,-0.1589 -0.05895,-0.059 -0.107675,-0.1232 -0.146164,-0.1927 -0.03848,-0.07 -0.06559,-0.1447 -0.08132,-0.2253 -0.01572,-0.081 -0.01778,-0.1675 -0.0062,-0.2603 l -0.0042,0 c -0.0089,0.014 -0.02104,0.035 -0.03651,0.062 -0.01775,0.028 -0.03772,0.06 -0.05992,0.095 -0.02219,0.035 -0.04457,0.072 -0.06714,0.1107 -0.02397,0.038 -0.04705,0.074 -0.06924,0.1094 l -0.525956,0.8309 -0.591138,-0.3741 1.661755,-2.6254 c 0.07013,-0.1108 0.130608,-0.211 0.181435,-0.3007 0.04994,-0.088 0.0886,-0.157 0.115978,-0.2065 l 0.572204,0.3622 m -0.701001,1.168 c -0.09498,0.1501 -0.159516,0.2831 -0.193608,0.399 -0.03497,0.1174 -0.04752,0.2194 -0.03764,0.3062 0.0076,0.087 0.03375,0.1608 0.07844,0.2206 0.04241,0.06 0.09377,0.1094 0.154074,0.1476 0.07574,0.048 0.152374,0.076 0.229917,0.084 0.07614,0.01 0.154524,-0.01 0.23514,-0.046 0.07922,-0.038 0.160412,-0.1 0.243585,-0.1847 0.08177,-0.086 0.166601,-0.198 0.254481,-0.3369 0.326671,-0.5161 0.335034,-0.8722 0.02509,-1.0684 -0.0589,-0.037 -0.125794,-0.062 -0.200677,-0.074 -0.07488,-0.012 -0.154547,0 -0.239001,0.029 -0.08445,0.031 -0.172657,0.088 -0.264622,0.1713 -0.09425,0.084 -0.189312,0.2014 -0.285185,0.3528" />
      <path
         inkscape:connector-curvature="0"
         id="path4686"
         style="font-weight:bold;-inkscape-font-specification:'Liberation Sans Bold';fill:url(#linearGradient3722);fill-opacity:1"
         d="m 45.256175,1016.0518 c 0.126109,-0.097 0.258804,-0.1632 0.398086,-0.1974 0.137973,-0.033 0.281278,-0.03 0.429915,0.011 0.147627,0.039 0.300137,0.1185 0.457531,0.2381 0.155069,0.1193 0.312753,0.2827 0.473052,0.4903 0.142039,0.1839 0.250917,0.3588 0.326634,0.5247 0.07572,0.1659 0.120454,0.3243 0.134208,0.4752 0.01274,0.1495 -0.0038,0.2924 -0.04971,0.4285 -0.04821,0.1358 -0.123399,0.2651 -0.225573,0.3881 l -0.526333,-0.49 c 0.04957,-0.064 0.0883,-0.1301 0.116191,-0.1999 0.0279,-0.07 0.0406,-0.1456 0.03811,-0.2276 -0.0048,-0.082 -0.02715,-0.1709 -0.06701,-0.266 -0.04218,-0.095 -0.106901,-0.1995 -0.194154,-0.3125 -0.152182,-0.197 -0.297905,-0.3246 -0.437169,-0.3827 -0.141589,-0.058 -0.276094,-0.038 -0.403516,0.06 -0.07619,0.059 -0.12235,0.128 -0.13849,0.2076 -0.01613,0.08 -0.01308,0.1664 0.0092,0.2603 0.02225,0.094 0.05786,0.1944 0.106848,0.3013 0.04899,0.1069 0.101676,0.2172 0.158062,0.3309 0.04248,0.093 0.08431,0.1866 0.125479,0.2806 0.04117,0.094 0.07586,0.1878 0.104076,0.2814 0.0272,0.092 0.0456,0.1839 0.05519,0.2751 0.0096,0.091 0.0046,0.181 -0.01511,0.2696 -0.02199,0.088 -0.06028,0.1745 -0.114862,0.2586 -0.0556,0.083 -0.13397,0.1632 -0.23512,0.2414 -0.137926,0.1065 -0.277456,0.1702 -0.418591,0.1911 -0.141129,0.021 -0.280103,0.01 -0.416923,-0.043 -0.139142,-0.05 -0.275414,-0.1312 -0.408816,-0.2442 -0.133395,-0.113 -0.261983,-0.2496 -0.385763,-0.4098 -0.140005,-0.1813 -0.245273,-0.3475 -0.315804,-0.4985 -0.07285,-0.1514 -0.11386,-0.2927 -0.123027,-0.4241 -0.01017,-0.1326 0.0095,-0.2579 0.05892,-0.3758 0.04713,-0.1182 0.120024,-0.2342 0.218669,-0.3482 l 0.512091,0.5042 c -0.09721,0.1212 -0.141541,0.2498 -0.132981,0.3858 0.0076,0.1347 0.07525,0.2848 0.203076,0.4503 0.07914,0.1025 0.154281,0.1808 0.225425,0.2349 0.06882,0.054 0.134064,0.089 0.195725,0.1068 0.06065,0.016 0.117933,0.017 0.171841,0 0.0526,-0.013 0.101231,-0.037 0.145891,-0.072 0.06831,-0.053 0.112113,-0.1128 0.131409,-0.1801 0.01799,-0.066 0.01926,-0.1407 0.0038,-0.2232 -0.01675,-0.081 -0.04607,-0.171 -0.08796,-0.2686 -0.04421,-0.098 -0.09385,-0.2044 -0.148931,-0.3191 -0.04857,-0.1009 -0.09532,-0.2022 -0.140248,-0.3038 -0.04624,-0.1006 -0.0855,-0.2003 -0.117773,-0.2991 -0.03227,-0.099 -0.05457,-0.1969 -0.06691,-0.2944 -0.01233,-0.097 -0.0084,-0.1927 0.01189,-0.286 0.01794,-0.094 0.05566,-0.1845 0.113164,-0.273 0.0565,-0.09 0.138605,-0.1763 0.246318,-0.2594" />
      <path
         inkscape:connector-curvature="0"
         id="path4688"
         style="font-weight:bold;-inkscape-font-specification:'Liberation Sans Bold';fill:url(#linearGradient3724);fill-opacity:1"
         d="m 42.482936,1014.7086 2.675841,-1.2187 0.304425,0.6683 -2.675841,1.2188 0.469537,1.0309 -0.516589,0.2353 -1.244531,-2.7325 0.516589,-0.2353 0.470569,1.0332" />
      <path
         inkscape:connector-curvature="0"
         id="path4690"
         style="font-weight:bold;-inkscape-font-specification:'Liberation Sans Bold';fill:url(#linearGradient3726);fill-opacity:1"
         d="m 44.242597,1009.9787 -0.823585,0.4711 0.246373,1.314 0.938285,0.1407 0.135344,0.7219 -3.683702,-0.6113 -0.159661,-0.8516 3.212978,-1.8993 0.133968,0.7145 m -2.263827,1.2604 c -0.05342,0.03 -0.106852,0.061 -0.160282,0.091 -0.05536,0.029 -0.105322,0.055 -0.149882,0.079 -0.04649,0.022 -0.08432,0.041 -0.113482,0.057 -0.02946,0.014 -0.04568,0.022 -0.04863,0.024 0.0052,8e-4 0.02407,0 0.05659,0 0.03253,0 0.07382,0.01 0.123881,0.012 0.04976,0 0.105837,0.01 0.168234,0.019 0.06047,0.01 0.12108,0.015 0.181845,0.024 l 1.054824,0.1543 -0.185812,-0.9911 -0.927279,0.526" />
      <path
         inkscape:connector-curvature="0"
         id="path4692"
         style="font-weight:bold;-inkscape-font-specification:'Liberation Sans Bold';fill:url(#linearGradient3728);fill-opacity:1"
         d="m 44.399817,1005.8675 -2.113249,-0.2342 c -0.08413,-0.01 -0.17065,-0.02 -0.259552,-0.031 -0.08872,-0.013 -0.170009,-0.025 -0.243882,-0.037 -0.08688,-0.015 -0.171384,-0.028 -0.253505,-0.041 0.126488,0.049 0.246558,0.096 0.36021,0.1401 0.04803,0.019 0.09762,0.038 0.148759,0.059 0.05115,0.021 0.100642,0.041 0.148485,0.062 0.04803,0.019 0.09276,0.037 0.134186,0.055 0.04143,0.018 0.07727,0.034 0.107514,0.047 l 1.875326,0.844 -0.05759,0.5197 -2.014636,0.413 c -0.03244,0.01 -0.07084,0.014 -0.115194,0.022 -0.04417,0.01 -0.09182,0.015 -0.142961,0.024 -0.05095,0.01 -0.103645,0.016 -0.158083,0.025 -0.05443,0.01 -0.107219,0.018 -0.158357,0.027 -0.120782,0.02 -0.248347,0.041 -0.382697,0.063 0.09623,0.01 0.190813,0.011 0.283741,0.016 0.07955,0.01 0.163228,0.011 0.251025,0.018 0.0878,0.01 0.16387,0.013 0.228205,0.02 l 2.11325,0.2342 -0.07185,0.6483 -3.486613,-0.3864 0.108322,-0.9774 2.019037,-0.4075 c 0.05297,-0.011 0.117577,-0.021 0.193823,-0.031 0.07643,-0.012 0.150295,-0.023 0.221592,-0.033 0.08303,-0.011 0.16954,-0.023 0.259532,-0.036 -0.08322,-0.033 -0.16324,-0.064 -0.240049,-0.094 -0.03354,-0.014 -0.06792,-0.028 -0.103114,-0.042 -0.0352,-0.014 -0.06957,-0.028 -0.103114,-0.041 -0.03355,-0.014 -0.06544,-0.027 -0.09569,-0.041 -0.03025,-0.013 -0.05729,-0.026 -0.08112,-0.037 l -1.894293,-0.8312 0.107774,-0.9725 3.486614,0.3864 -0.07185,0.6483" />
      <path
         inkscape:connector-curvature="0"
         id="path4694"
         style="font-weight:bold;-inkscape-font-specification:'Liberation Sans Bold';fill:url(#linearGradient3730);fill-opacity:1"
         d="m 43.615347,1000.9607 c 0.139217,0.059 0.263865,0.139 0.373944,0.2411 0.109195,0.1 0.193233,0.2191 0.252114,0.3573 0.05888,0.1382 0.08693,0.2941 0.08415,0.4676 -0.0043,0.1729 -0.04928,0.361 -0.134902,0.5645 l -0.337985,0.8032 1.138209,0.4789 -0.284873,0.677 -3.233337,-1.3606 0.611268,-1.4526 c 0.08691,-0.2065 0.187478,-0.3749 0.301694,-0.5051 0.112692,-0.1309 0.23509,-0.227 0.367195,-0.2885 0.132108,-0.061 0.270864,-0.089 0.416267,-0.084 0.14605,0 0.294802,0.038 0.446256,0.1013 m -0.27533,0.6864 c -0.166752,-0.07 -0.31421,-0.073 -0.442372,-0.01 -0.129045,0.063 -0.235736,0.1943 -0.320073,0.3947 l -0.294529,0.7 1.048712,0.4413 0.302254,-0.7183 c 0.04249,-0.101 0.06586,-0.1929 0.07011,-0.2757 0.0049,-0.084 -0.0064,-0.1603 -0.03386,-0.2277 -0.02682,-0.069 -0.0683,-0.1286 -0.124427,-0.1793 -0.05766,-0.051 -0.12626,-0.094 -0.205813,-0.1271" />
      <path
         inkscape:connector-curvature="0"
         id="path4696"
         style="font-weight:bold;-inkscape-font-specification:'Liberation Sans Bold';fill:url(#linearGradient3732);fill-opacity:1"
         d="m 46.112429,1001.4391 -2.784586,-2.13346 1.677733,-2.18972 0.450593,0.34523 -1.231044,1.60672 0.699605,0.53603 1.138678,-1.48617 0.450593,0.34524 -1.138678,1.48617 0.733202,0.56176 1.293127,-1.68774 0.450593,0.34524 -1.739816,2.2707" />
      <path
         inkscape:connector-curvature="0"
         id="path4698"
         style="font-weight:bold;-inkscape-font-specification:'Liberation Sans Bold';fill:url(#linearGradient3734);fill-opacity:1"
         d="m 49.6523,995.45831 c 0.177404,0.23209 0.298697,0.46319 0.36388,0.69331 0.06417,0.22881 0.08096,0.44892 0.05036,0.66033 -0.0306,0.21142 -0.105791,0.41096 -0.225572,0.59862 -0.118467,0.18666 -0.273301,0.35306 -0.464505,0.49922 l -1.127452,0.86183 -2.130378,-2.78698 1.008773,-0.77111 c 0.21626,-0.16531 0.435381,-0.28998 0.657364,-0.37401 0.221984,-0.084 0.441088,-0.11989 0.657314,-0.1076 0.216225,0.0123 0.426624,0.0771 0.631197,0.1944 0.204571,0.11731 0.397576,0.29464 0.579015,0.53199 m -0.587462,0.44906 c -0.123983,-0.16219 -0.252742,-0.28417 -0.386279,-0.36595 -0.132219,-0.0828 -0.266111,-0.13084 -0.401677,-0.14421 -0.136575,-0.0147 -0.273854,0.003 -0.411836,0.0516 -0.136664,0.0481 -0.271588,0.123 -0.404773,0.2248 l -0.413399,0.316 1.440916,1.88502 0.494496,-0.37799 c 0.117359,-0.0897 0.209865,-0.1928 0.277518,-0.30928 0.06897,-0.11749 0.108974,-0.24417 0.120014,-0.38005 0.01135,-0.1382 -0.0084,-0.28292 -0.05925,-0.43417 -0.04953,-0.15225 -0.134774,-0.3075 -0.255732,-0.46574" />
      <path
         inkscape:connector-curvature="0"
         id="path4700"
         style="font-weight:bold;-inkscape-font-specification:'Liberation Sans Bold';fill:url(#linearGradient3736);fill-opacity:1"
         d="m 54.217997,996.70798 -1.185221,-4.67974 0.632331,-0.16014 1.185221,4.67973 -0.632331,0.16015" />
      <path
         inkscape:connector-curvature="0"
         id="path4702"
         style="font-weight:bold;-inkscape-font-specification:'Liberation Sans Bold';fill:url(#linearGradient3738);fill-opacity:1"
         d="m 56.687805,995.09466 0.09477,-3.50668 0.734187,0.0199 -0.07943,2.93924 1.881511,0.0508 -0.01534,0.56744 -2.615699,-0.0707" />
      <path
         inkscape:connector-curvature="0"
         id="path4704"
         style="font-weight:bold;-inkscape-font-specification:'Liberation Sans Bold';fill:url(#linearGradient3740);fill-opacity:1"
         d="m 59.810404,995.24407 0.939605,-3.37978 2.65777,0.73888 -0.152044,0.5469 -1.950151,-0.54215 -0.236068,0.84914 1.803829,0.50148 -0.152044,0.5469 -1.803829,-0.50147 -0.247405,0.88992 2.048498,0.5695 -0.152044,0.5469 -2.756117,-0.76622" />
      <path
         inkscape:connector-curvature="0"
         id="path4706"
         style="font-weight:bold;-inkscape-font-specification:'Liberation Sans Bold';fill:url(#linearGradient3742);fill-opacity:1"
         d="m 64.786044,996.63794 c 0.09064,0.0554 0.182072,0.10153 0.274291,0.13843 0.09221,0.0369 0.180654,0.0657 0.265319,0.0863 0.08694,0.0201 0.167826,0.0325 0.242655,0.0374 0.07711,0.004 0.144024,10e-4 0.200755,-0.009 l 0.253135,-0.41427 -0.730818,-0.44656 0.282992,-0.46313 1.304425,0.79705 -0.67243,1.10047 c -0.110392,0.0279 -0.233212,0.0442 -0.368462,0.0491 -0.134391,0.003 -0.27649,-0.008 -0.426298,-0.0329 -0.148948,-0.0268 -0.303599,-0.0698 -0.463952,-0.12886 -0.158942,-0.0582 -0.318433,-0.13622 -0.478475,-0.23401 -0.264852,-0.16183 -0.469512,-0.33941 -0.613981,-0.53272 -0.143605,-0.19473 -0.235044,-0.39843 -0.274317,-0.6111 -0.03841,-0.21409 -0.02937,-0.4342 0.02711,-0.66034 0.0579,-0.22526 0.155645,-0.45049 0.293248,-0.67569 0.142792,-0.23369 0.302898,-0.42568 0.480318,-0.57597 0.177416,-0.15029 0.369393,-0.25279 0.575931,-0.30748 0.208815,-0.0553 0.43046,-0.0599 0.664936,-0.0138 0.236752,0.0455 0.484722,0.14739 0.74391,0.30576 0.188366,0.1151 0.344241,0.23563 0.467624,0.36159 0.124792,0.12683 0.220948,0.25755 0.288468,0.39217 0.06893,0.13549 0.110794,0.27389 0.125598,0.4152 0.01708,0.14076 0.01122,0.28404 -0.01756,0.42983 l -0.684302,-0.17888 c 0.01258,-0.0779 0.0145,-0.15744 0.0058,-0.23864 -0.0079,-0.0826 -0.03113,-0.16393 -0.06976,-0.24395 -0.03636,-0.0806 -0.08896,-0.15842 -0.157809,-0.23356 -0.06657,-0.0757 -0.152968,-0.14598 -0.259188,-0.21089 -0.155797,-0.0952 -0.305492,-0.15262 -0.449084,-0.17228 -0.142732,-0.0211 -0.278614,-0.009 -0.407646,0.0368 -0.129037,0.0457 -0.250202,0.12138 -0.363496,0.22721 -0.112432,0.10442 -0.216677,0.23524 -0.312737,0.39244 -0.0952,0.1558 -0.164901,0.30967 -0.20911,0.4616 -0.04279,0.1528 -0.05593,0.29844 -0.03939,0.43692 0.01795,0.13934 0.06756,0.26984 0.148848,0.39147 0.08128,0.12164 0.199114,0.22962 0.353494,0.32395" />
      <path
         inkscape:connector-curvature="0"
         id="path4708"
         style="font-weight:bold;-inkscape-font-specification:'Liberation Sans Bold';fill:url(#linearGradient3744);fill-opacity:1"
         d="m 68.084285,1000.2281 0.45468,-0.83275 -0.898355,-0.99016 -0.872908,0.37177 -0.49351,-0.54395 3.457894,-1.40938 0.582174,0.64167 -1.741484,3.3012 -0.488491,-0.5384 m 1.26784,-2.25966 c 0.02964,-0.0538 0.05928,-0.10757 0.08892,-0.16136 0.03198,-0.0537 0.06078,-0.10221 0.08639,-0.14561 0.02795,-0.0433 0.05026,-0.0792 0.06693,-0.10779 0.01778,-0.0273 0.02734,-0.0427 0.02868,-0.0462 -0.0048,0.002 -0.02167,0.0107 -0.0506,0.0257 -0.02894,0.015 -0.06624,0.0332 -0.111927,0.0545 -0.04457,0.0225 -0.09568,0.0465 -0.15331,0.0719 -0.0553,0.0255 -0.111144,0.0504 -0.167548,0.0747 l -0.979303,0.42123 0.67753,0.74677 0.514233,-0.93383" />
      <path
         inkscape:connector-curvature="0"
         id="path4710"
         style="font-weight:bold;-inkscape-font-specification:'Liberation Sans Bold';fill:url(#linearGradient3746);fill-opacity:1"
         d="m 68.801195,1001.2071 3.101976,-1.63818 0.342976,0.64948 -2.600024,1.373 0.878948,1.6644 -0.501952,0.2651 -1.221924,-2.3138" />
      <path
         inkscape:connector-curvature="0"
         id="path4712"
         style="font-weight:bold;-inkscape-font-specification:'Liberation Sans Bold';fill:url(#linearGradient3748);fill-opacity:1"
         d="m 69.413413,1005.5753 4.719938,-1.0133 0.136922,0.6378 -4.719937,1.0133 -0.136923,-0.6378" />
    </g>
  </g>
</svg>
