<?xml version="1.0" encoding="UTF-8" standalone="no"?>
<!-- Created with Inkscape (http://www.inkscape.org/) -->

<svg
   xmlns:dc="http://purl.org/dc/elements/1.1/"
   xmlns:cc="http://creativecommons.org/ns#"
   xmlns:rdf="http://www.w3.org/1999/02/22-rdf-syntax-ns#"
   xmlns:svg="http://www.w3.org/2000/svg"
   xmlns="http://www.w3.org/2000/svg"
   xmlns:xlink="http://www.w3.org/1999/xlink"
   xmlns:sodipodi="http://sodipodi.sourceforge.net/DTD/sodipodi-0.dtd"
   xmlns:inkscape="http://www.inkscape.org/namespaces/inkscape"
   id="svg4061"
   height="64"
   width="64"
   version="1.1"
   inkscape:version="0.92.0 unknown"
   sodipodi:docname="overgrive.svg">
  <sodipodi:namedview
     pagecolor="#ffffff"
     bordercolor="#666666"
     borderopacity="1"
     objecttolerance="10"
     gridtolerance="10"
     guidetolerance="10"
     inkscape:pageopacity="0"
     inkscape:pageshadow="2"
     inkscape:window-width="1296"
     inkscape:window-height="894"
     id="namedview40"
     showgrid="false"
     inkscape:zoom="9.8333333"
     inkscape:cx="5.8481199"
     inkscape:cy="30.284885"
     inkscape:window-x="744"
     inkscape:window-y="134"
     inkscape:window-maximized="0"
     inkscape:current-layer="g4206" />
  <defs
     id="defs4063">
    <radialGradient
       r="62.769001"
       gradientTransform="matrix(0.27083,0,0,0.087623,-2.8551,25.187)"
       cx="99.156998"
       cy="186.17"
       gradientUnits="userSpaceOnUse"
       id="radialGradient4546">
      <stop
         offset="0"
         stop-color="#3d3d3d"
         id="stop4540" />
      <stop
         offset=".5"
         stop-opacity=".49804"
         stop-color="#686868"
         id="stop4542" />
      <stop
         offset="1"
         stop-opacity="0"
         stop-color="#686868"
         id="stop4544"
         style="stop-color:#050504;stop-opacity:0.15068494" />
    </radialGradient>
    <linearGradient
       id="linearGradient3026"
       y2="40.495998"
       gradientUnits="userSpaceOnUse"
       x2="71.204002"
       gradientTransform="matrix(1.617,0,0,1.617,-92.707,-21.06)"
       y1="15.369"
       x1="71.204002"
       spreadMethod="pad">
      <stop
         id="stop4808-4"
         stop-color="#fff"
         offset="0" />
      <stop
         id="stop4810-0"
         stop-color="#fff"
         stop-opacity=".23529"
         offset=".42448" />
      <stop
         id="stop4812-8"
         stop-color="#fff"
         stop-opacity=".15686"
         offset=".82090" />
      <stop
         id="stop4814-0"
         stop-color="#fff"
         stop-opacity=".39216"
         offset="1" />
    </linearGradient>
    <radialGradient
       id="radialGradient3029"
       fx="4.4590001"
       fy="8.5088997"
       gradientUnits="userSpaceOnUse"
       cy="8.6258001"
       cx="15.026"
       gradientTransform="matrix(-3.4973e-8,1.8855,-1.7764,-5.4723e-8,39.14,-7.9932)"
       r="20">
      <stop
         id="stop4170"
         stop-color="#c24251"
         offset="0" />
      <stop
         id="stop4172"
         stop-color="#c24251"
         offset=".26238" />
      <stop
         id="stop4174"
         stop-color="#a63643"
         offset=".66094" />
      <stop
         id="stop4176"
         stop-color="#a63643"
         offset="1" />
    </radialGradient>
    <radialGradient
       id="radialGradient3032"
       gradientUnits="userSpaceOnUse"
       cy="3.99"
       cx="23.896"
       gradientTransform="matrix(0,4.066335,-5.367534,0,53.81636,-112.00728)"
       r="20.396999">
      <stop
         id="stop3244-9-33-7-0-9"
         stop-color="#fff"
         offset="0" />
      <stop
         id="stop3246-3-5-0-8-5"
         stop-color="#ddd"
         offset=".26238" />
      <stop
         id="stop3248-1-7-8-8-1"
         stop-color="#abacae"
         offset=".66094" />
      <stop
         id="stop3250-9-3-0-5-1"
         stop-color="#89898b"
         offset="1" />
    </radialGradient>
    <radialGradient
       id="radialGradient3035"
       gradientUnits="userSpaceOnUse"
       cy="186.17"
       cx="99.156998"
       gradientTransform="matrix(0.38126554,0,0,0.12335277,-5.4057234,16.292378)"
       r="62.769001">
      <stop
         id="stop3822-2-6-3"
         stop-color="#3d3d3d"
         offset="0" />
      <stop
         id="stop3864-8-7-7"
         stop-color="#686868"
         stop-opacity=".49804"
         offset=".5" />
      <stop
         id="stop3824-1-2-5"
         stop-color="#686868"
         stop-opacity="0"
         offset="1" />
    </radialGradient>
    <linearGradient
       id="linearGradient4433"
       y2="25.611"
       gradientUnits="userSpaceOnUse"
       x2="23.077999"
       gradientTransform="matrix(1,0,0,1.0521,0,-0.90547)"
       y1="13.035"
       x1="22.759001">
      <stop
         id="stop6305-1-0-2"
         stop-color="#fff"
         offset="0" />
      <stop
         id="stop6307-5-0-6"
         stop-color="#fff"
         stop-opacity="0"
         offset="1" />
    </linearGradient>
    <linearGradient
       id="linearGradient4829">
      <stop
         style="stop-color:#f4fbfc;stop-opacity:1;"
         offset="0"
         id="stop4831" />
      <stop
         style="stop-color:#d6d6d6;stop-opacity:1;"
         offset="1"
         id="stop4833" />
    </linearGradient>
    <linearGradient
       id="linearGradient4213"
       y2="37.305"
       gradientUnits="userSpaceOnUse"
       x2="21.434999"
       y1="13.905"
       x1="21.511999">
      <stop
         id="stop2240"
         stop-color="#fff"
         offset="0" />
      <stop
         id="stop2242"
         stop-color="#fff"
         stop-opacity="0"
         offset="1" />
    </linearGradient>
    <clipPath
       id="clipPath-993779242">
      <g
         id="g17"
         transform="translate(0,-1004.4)">
        <path
           style="fill:#1890d0"
           inkscape:connector-curvature="0"
           id="path19"
           d="m -24,13 c 0,1.105 -0.672,2 -1.5,2 -0.828,0 -1.5,-0.895 -1.5,-2 0,-1.105 0.672,-2 1.5,-2 0.828,0 1.5,0.895 1.5,2 z"
           transform="matrix(15.333,0,0,11.5,415,878.86)" />
      </g>
    </clipPath>
    <clipPath
       id="clipPath3877">
      <g
         id="g3875"
         transform="translate(0,-1004.4)">
        <path
           style="fill:#1890d0"
           inkscape:connector-curvature="0"
           id="path3873"
           d="m -24,13 c 0,1.105 -0.672,2 -1.5,2 -0.828,0 -1.5,-0.895 -1.5,-2 0,-1.105 0.672,-2 1.5,-2 0.828,0 1.5,0.895 1.5,2 z"
           transform="matrix(15.333,0,0,11.5,415,878.86)" />
      </g>
    </clipPath>
    <clipPath
       id="clipPath3883">
      <g
         id="g3881"
         transform="translate(0,-1004.4)">
        <path
           style="fill:#1890d0"
           inkscape:connector-curvature="0"
           id="path3879"
           d="m -24,13 c 0,1.105 -0.672,2 -1.5,2 -0.828,0 -1.5,-0.895 -1.5,-2 0,-1.105 0.672,-2 1.5,-2 0.828,0 1.5,0.895 1.5,2 z"
           transform="matrix(15.333,0,0,11.5,415,878.86)" />
      </g>
    </clipPath>
    <radialGradient
       inkscape:collect="always"
       xlink:href="#radialGradient3029"
       id="radialGradient4550"
       cx="24"
       cy="24"
       fx="24"
       fy="24"
       r="20.5"
       gradientUnits="userSpaceOnUse"
       gradientTransform="matrix(1.407767,0,0,1.407767,-1.3864078,-19.165049)" />
  </defs>
  <metadata
     id="metadata4066">
    <rdf:RDF>
      <cc:Work
         rdf:about="">
        <dc:format>image/svg+xml</dc:format>
        <dc:type
           rdf:resource="http://purl.org/dc/dcmitype/StillImage" />
        <dc:title></dc:title>
      </cc:Work>
    </rdf:RDF>
  </metadata>
  <g
     id="g4206"
     transform="translate(0,16)">
    <path
       id="path3818-0-5"
       d="m 56.332039,39.257282 a 23.932039,7.7427184 0 0 1 -47.8640778,0 23.932039,7.7427184 0 1 1 47.8640778,0 z"
       inkscape:connector-curvature="0"
       style="fill:url(#radialGradient3035);stroke-width:1.40776694" />
    <path
       id="path2555-7-2"
       style="color:#000000;fill:url(#radialGradient3032);stroke-width:1.40776694"
       d="m 32.4,-14.237864 c -15.923252,0 -28.8592233,12.9359708 -28.8592233,28.859223 0,15.923253 12.9359713,28.859224 28.8592233,28.859224 15.923252,0 28.859223,-12.935971 28.859223,-28.859224 0,-15.9232522 -12.935971,-28.859223 -28.859223,-28.859223 z"
       inkscape:connector-curvature="0" />
    <path
       id="path2555-7-65"
       style="color:#000000;fill:url(#radialGradient4550);fill-opacity:1;stroke-width:1.40776694"
       d="m 32.4,-14.237864 c -15.923252,0 -28.8592233,12.9359708 -28.8592233,28.859223 0,15.923253 12.9359713,28.859224 28.8592233,28.859224 15.923252,0 28.859223,-12.935971 28.859223,-28.859224 0,-15.9232522 -12.935971,-28.859223 -28.859223,-28.859223 z"
       inkscape:connector-curvature="0" />
    <path
       id="path4176"
       style="color:#000000;opacity:1;fill:none;stroke:#ffffff;stroke-width:2.81553388;stroke-linecap:round;stroke-linejoin:round;stroke-miterlimit:4;stroke-dasharray:none;stroke-opacity:0.98156684"
       d="m 59.851456,14.621359 c 0,15.161651 -12.289806,27.451457 -27.451456,27.451457 -15.16165,0 -27.4514563,-12.289806 -27.4514563,-27.451457 0,-15.16165026 12.2898063,-27.451456 27.4514563,-27.451456 15.16165,0 27.451456,12.28980574 27.451456,27.451456 z"
       inkscape:connector-curvature="0" />
    <path
       id="path2555-7-1-7"
       style="color:#000000;opacity:1;fill:none;fill-opacity:1;stroke:#ffffff;stroke-width:0.28155339;stroke-linecap:round;stroke-linejoin:round;stroke-miterlimit:4;stroke-dasharray:none;stroke-opacity:1"
       d="m 32.4,-14.237723 c -15.923252,0 -28.8592233,12.935689 -28.8592233,28.859223 0,15.923534 12.9356893,28.859223 28.8592233,28.859223 15.923534,0 28.859223,-12.935689 28.859223,-28.859223 0,-15.923534 -12.935971,-28.859223 -28.859223,-28.859223 z"
       inkscape:connector-curvature="0" />
    <g
       id="g4317"
       transform="matrix(1.4080485,0,0,1.4083301,-2.7967087,-19.172156)"
       style="fill:none;stroke:#000000;stroke-linecap:round;stroke-linejoin:round" />
    <g
       transform="matrix(1.0323838,0,0,1.0323838,7.2905603,-10.74664)"
       id="g4483"
       style="fill:#ffffff">
      <g
         style="opacity:0.15;fill:#ffffff;stroke:#ffffff;stroke-width:1.84519994;stroke-linecap:round;stroke-linejoin:round"
         transform="matrix(1.0769,0,0,1.0909,-1.8469,-2.2726)"
         id="g4255">
        <path
           style="fill:#ffffff;stroke:#ffffff;stroke-width:2;stroke-linecap:round;stroke-linejoin:round"
           inkscape:connector-curvature="0"
           transform="matrix(0.92857,0,0,0.91667,-29.144,4.7383)"
           d="m 52.566,10.104 -9.334,16.002 4.6641,7.998 9.334,-16 4.666,8.002 H 52.566 l -4.6699,7.998 h 18.67 l 4.666,-7.998 -9.3359,-16.002 h -9.3301 z"
           id="path4257" />
      </g>
      <g
         style="opacity:0.15;fill:#ffffff;stroke:#ffffff;stroke-width:0.92259997;stroke-linecap:round;stroke-linejoin:round"
         transform="matrix(1.0769,0,0,1.0909,-1.8469,-2.2726)"
         id="g4264">
        <path
           style="fill:#ffffff;stroke:#ffffff;stroke-width:1;stroke-linecap:round;stroke-linejoin:round"
           inkscape:connector-curvature="0"
           transform="matrix(0.92857,0,0,0.91667,-29.144,4.7383)"
           d="m 52.566,10.104 -9.334,16.002 4.6641,7.998 9.334,-16 4.666,8.002 H 52.566 l -4.6699,7.998 h 18.67 l 4.666,-7.998 -9.3359,-16.002 h -9.3301 z"
           id="path4266" />
      </g>
      <g
         style="fill:#ffffff;fill-rule:evenodd"
         transform="matrix(1.0769,0,0,1.0909,-1.8462,-2.2727)"
         id="g4268">
        <path
           style="fill:#ffffff"
           inkscape:connector-curvature="0"
           d="M 32.668,36 H 15.29 l 4.285,-7.332 H 37"
           id="path57" />
        <path
           style="fill:#ffffff"
           inkscape:connector-curvature="0"
           d="m 19.668,14 8.664,14.668 H 37 L 28.332,14 m -8.664,0"
           id="path59" />
        <path
           style="fill:#ffffff"
           inkscape:connector-curvature="0"
           d="M 19.668,14 11,28.668 15.332,36 24,21.332 M 19.668,14"
           id="path61" />
      </g>
      <g
         transform="matrix(1.0769,0,0,1.0909,-35.093,-1.7622)"
         id="g4240"
         style="fill:#ffffff">
        <path
           style="opacity:0.15;fill:#ffffff;fill-rule:evenodd"
           inkscape:connector-curvature="0"
           d="m 50.539,13.532 -8.6673,14.668 4.3092,7.2957 -0.01995,0.03581 h 0.04171 17.336 l 4.3327,-7.3315 -8.6691,-14.668 h -8.6636 z m 0.5332,0.91667 h 7.5972 l 8.1268,13.752 -3.7905,6.4149 h -16.27 l -3.7886,-6.4149 8.125,-13.752 z m 3.7469,5.5036 a 0.92866,0.91676 0 0 0 -0.74902,0.45296 l -4.3364,7.3333 a 0.92866,0.91676 0 0 0 0.80162,1.3786 h 8.6673 a 0.92866,0.91676 0 0 0 0.80162,-1.3786 l -4.3309,-7.3333 a 0.92866,0.91676 0 0 0 -0.85421,-0.45296 z m 0.05259,0.91488 4.3309,7.3333 h -8.6673 z"
           id="path4242" />
      </g>
    </g>
  </g>
</svg>
