<?xml version="1.0" encoding="UTF-8" standalone="no"?>
<!-- Created with Inkscape (http://www.inkscape.org/) -->

<svg
   xmlns:dc="http://purl.org/dc/elements/1.1/"
   xmlns:cc="http://creativecommons.org/ns#"
   xmlns:rdf="http://www.w3.org/1999/02/22-rdf-syntax-ns#"
   xmlns:svg="http://www.w3.org/2000/svg"
   xmlns="http://www.w3.org/2000/svg"
   xmlns:xlink="http://www.w3.org/1999/xlink"
   xmlns:sodipodi="http://sodipodi.sourceforge.net/DTD/sodipodi-0.dtd"
   xmlns:inkscape="http://www.inkscape.org/namespaces/inkscape"
   version="1.1"
   width="64"
   height="64"
   id="svg3554"
   inkscape:version="0.91 r"
   sodipodi:docname="media-import-audio-cd.svg">
  <sodipodi:namedview
     pagecolor="#ffffff"
     bordercolor="#666666"
     borderopacity="1"
     objecttolerance="10"
     gridtolerance="10"
     guidetolerance="10"
     inkscape:pageopacity="0"
     inkscape:pageshadow="2"
     inkscape:window-width="1096"
     inkscape:window-height="1055"
     id="namedview90"
     showgrid="false"
     inkscape:zoom="3.6875"
     inkscape:cx="13.348323"
     inkscape:cy="32"
     inkscape:window-x="0"
     inkscape:window-y="30"
     inkscape:window-maximized="0"
     inkscape:current-layer="svg3554" />
  <defs
     id="defs3556">
    <linearGradient
       x1="71.204407"
       y1="6.2375584"
       x2="71.204407"
       y2="44.340794"
       id="linearGradient3162"
       xlink:href="#linearGradient4011-7"
       gradientUnits="userSpaceOnUse"
       gradientTransform="matrix(0.72972967,0,0,0.72972967,-4.346076,29.49607)" />
    <linearGradient
       id="linearGradient4011-7">
      <stop
         id="stop4013-1"
         style="stop-color:#ffffff;stop-opacity:1"
         offset="0" />
      <stop
         id="stop4015-0"
         style="stop-color:#ffffff;stop-opacity:0.23529412"
         offset="0.507761" />
      <stop
         id="stop4017-1"
         style="stop-color:#ffffff;stop-opacity:0.15686275"
         offset="0.83456558" />
      <stop
         id="stop4019-5"
         style="stop-color:#ffffff;stop-opacity:0.39215687"
         offset="1" />
    </linearGradient>
    <radialGradient
       cx="6.1596723"
       cy="8.4497671"
       r="19.99999"
       fx="6.1596723"
       fy="8.4497671"
       id="radialGradient3165"
       xlink:href="#linearGradient2867-449-88-871-390-598-476-591-434-148-57-177-3-8"
       gradientUnits="userSpaceOnUse"
       gradientTransform="matrix(4.5367027e-8,1.7632481,-1.8653063,0,63.761488,20.748948)" />
    <linearGradient
       id="linearGradient2867-449-88-871-390-598-476-591-434-148-57-177-3-8">
      <stop
         id="stop3750-8-9"
         style="stop-color:#90dbec;stop-opacity:1"
         offset="0" />
      <stop
         id="stop3752-3-2"
         style="stop-color:#55c1ec;stop-opacity:1"
         offset="0.26238" />
      <stop
         id="stop3754-7-2"
         style="stop-color:#3689e6;stop-opacity:1"
         offset="0.704952" />
      <stop
         id="stop3756-9-3"
         style="stop-color:#2b63a0;stop-opacity:1"
         offset="1" />
    </linearGradient>
    <linearGradient
       x1="24"
       y1="44"
       x2="24"
       y2="3.8990016"
       id="linearGradient3167"
       xlink:href="#linearGradient3707-319-631-407-324-3-8"
       gradientUnits="userSpaceOnUse"
       gradientTransform="matrix(0.74365873,0,0,0.74365873,30.152194,30.15219)" />
    <linearGradient
       id="linearGradient3707-319-631-407-324-3-8">
      <stop
         id="stop3760-7-3"
         style="stop-color:#185f9a;stop-opacity:1"
         offset="0" />
      <stop
         id="stop3762-8-4"
         style="stop-color:#599ec9;stop-opacity:1"
         offset="1" />
    </linearGradient>
    <radialGradient
       cx="62.625"
       cy="4.625"
       r="10.625"
       fx="62.625"
       fy="4.625"
       id="radialGradient3170"
       xlink:href="#linearGradient8838"
       gradientUnits="userSpaceOnUse"
       gradientTransform="matrix(1.5058824,0,0,0.37647,-46.305886,58.258824)" />
    <linearGradient
       id="linearGradient8838">
      <stop
         id="stop8840"
         style="stop-color:#000000;stop-opacity:1"
         offset="0" />
      <stop
         id="stop8842"
         style="stop-color:#000000;stop-opacity:0"
         offset="1" />
    </linearGradient>
    <radialGradient
       cx="23.334524"
       cy="41.63604"
       r="22.627417"
       fx="23.334524"
       fy="41.63604"
       id="radialGradient4130"
       xlink:href="#linearGradient23419"
       gradientUnits="userSpaceOnUse"
       gradientTransform="matrix(1.281631,0,0,0.3756156,2.0937489,37.860857)" />
    <linearGradient
       id="linearGradient23419">
      <stop
         id="stop23421"
         style="stop-color:#000000;stop-opacity:1"
         offset="0" />
      <stop
         id="stop23423"
         style="stop-color:#000000;stop-opacity:0"
         offset="1" />
    </linearGradient>
    <linearGradient
       x1="12.2744"
       y1="32.4165"
       x2="35.391201"
       y2="14.2033"
       id="linearGradient3070"
       xlink:href="#linearGradient3263-6"
       gradientUnits="userSpaceOnUse"
       gradientTransform="matrix(0,1.5714424,-1.5714424,0,68.300327,-5.7146267)" />
    <linearGradient
       x1="12.2744"
       y1="32.4165"
       x2="35.391201"
       y2="14.2033"
       id="linearGradient3263-6"
       gradientUnits="userSpaceOnUse">
      <stop
         id="stop3265-8"
         style="stop-color:#dedcde;stop-opacity:1"
         offset="0" />
      <stop
         id="stop3267-9"
         style="stop-color:#f0f0f0;stop-opacity:1"
         offset="0.5" />
      <stop
         id="stop3269-2"
         style="stop-color:#d2d2d2;stop-opacity:1"
         offset="1" />
    </linearGradient>
    <linearGradient
       x1="-21.915663"
       y1="3"
       x2="-21.915663"
       y2="45.032898"
       id="linearGradient3072"
       xlink:href="#linearGradient3772-6"
       gradientUnits="userSpaceOnUse"
       gradientTransform="matrix(1.3414634,0,0,1.3414634,67.233617,-0.1951219)" />
    <linearGradient
       id="linearGradient3772-6">
      <stop
         id="stop3774-6"
         style="stop-color:#b4b4b4;stop-opacity:1"
         offset="0" />
      <stop
         id="stop3776-4"
         style="stop-color:#969696;stop-opacity:1"
         offset="1" />
    </linearGradient>
    <linearGradient
       x1="21.448364"
       y1="15.5"
       x2="21.448364"
       y2="32.509201"
       id="linearGradient3067"
       xlink:href="#linearGradient3428"
       gradientUnits="userSpaceOnUse"
       gradientTransform="matrix(1.3125,0,0,1.3125,0.5000004,0.4999996)" />
    <linearGradient
       id="linearGradient3428">
      <stop
         id="stop3430"
         style="stop-color:#aaaaaa;stop-opacity:1"
         offset="0" />
      <stop
         id="stop3432"
         style="stop-color:#d4d4d4;stop-opacity:1"
         offset="1" />
    </linearGradient>
    <linearGradient
       x1="20.580074"
       y1="10.774516"
       x2="24.27351"
       y2="9.8622112"
       id="linearGradient2477"
       xlink:href="#linearGradient3487"
       gradientUnits="userSpaceOnUse"
       spreadMethod="reflect" />
    <linearGradient
       id="linearGradient3487">
      <stop
         id="stop3489"
         style="stop-color:#e6cde2;stop-opacity:1"
         offset="0" />
      <stop
         id="stop3491"
         style="stop-color:#e6cde2;stop-opacity:0"
         offset="1" />
    </linearGradient>
    <linearGradient
       x1="17.494959"
       y1="11.200086"
       x2="21.047453"
       y2="9.7956104"
       id="linearGradient2479"
       xlink:href="#linearGradient3495"
       gradientUnits="userSpaceOnUse"
       spreadMethod="reflect" />
    <linearGradient
       id="linearGradient3495">
      <stop
         id="stop3497"
         style="stop-color:#c1cbe4;stop-opacity:1"
         offset="0" />
      <stop
         id="stop3499"
         style="stop-color:#c1cbe4;stop-opacity:0"
         offset="1" />
    </linearGradient>
    <linearGradient
       x1="14.084608"
       y1="13.045606"
       x2="16.994024"
       y2="10.732353"
       id="linearGradient2481"
       xlink:href="#linearGradient3503"
       gradientUnits="userSpaceOnUse"
       spreadMethod="reflect" />
    <linearGradient
       id="linearGradient3503">
      <stop
         id="stop3505"
         style="stop-color:#c4ebdd;stop-opacity:1"
         offset="0" />
      <stop
         id="stop3507"
         style="stop-color:#c4ebdd;stop-opacity:0"
         offset="1" />
    </linearGradient>
    <linearGradient
       x1="12.371647"
       y1="16.188046"
       x2="14.609327"
       y2="13.461712"
       id="linearGradient2483"
       xlink:href="#linearGradient3511"
       gradientUnits="userSpaceOnUse"
       spreadMethod="reflect" />
    <linearGradient
       id="linearGradient3511">
      <stop
         id="stop3513"
         style="stop-color:#ebeec7;stop-opacity:1"
         offset="0" />
      <stop
         id="stop3515"
         style="stop-color:#ebeec7;stop-opacity:0"
         offset="1" />
    </linearGradient>
    <linearGradient
       x1="10.609375"
       y1="17.886322"
       x2="9.7297754"
       y2="20.612656"
       id="linearGradient2485"
       xlink:href="#linearGradient3519"
       gradientUnits="userSpaceOnUse"
       spreadMethod="reflect" />
    <linearGradient
       id="linearGradient3519">
      <stop
         id="stop3521"
         style="stop-color:#fcd9cd;stop-opacity:1"
         offset="0" />
      <stop
         id="stop3523"
         style="stop-color:#fcd9cd;stop-opacity:0"
         offset="1" />
    </linearGradient>
    <linearGradient
       x1="71.204407"
       y1="6.2375584"
       x2="71.204407"
       y2="44.340794"
       id="linearGradient3227"
       xlink:href="#linearGradient4011"
       gradientUnits="userSpaceOnUse"
       gradientTransform="matrix(1.4324324,0,0,1.4324324,-70.753407,-4.322531)" />
    <linearGradient
       id="linearGradient4011">
      <stop
         id="stop4013"
         style="stop-color:#ffffff;stop-opacity:1"
         offset="0" />
      <stop
         id="stop4015"
         style="stop-color:#ffffff;stop-opacity:0.23529412"
         offset="0.507761" />
      <stop
         id="stop4017"
         style="stop-color:#ffffff;stop-opacity:0.15686275"
         offset="0.83456558" />
      <stop
         id="stop4019"
         style="stop-color:#ffffff;stop-opacity:0.39215687"
         offset="1" />
    </linearGradient>
    <linearGradient
       id="linearGradient6036">
      <stop
         id="stop6038"
         style="stop-color:#ffffff;stop-opacity:1"
         offset="0" />
      <stop
         id="stop6040"
         style="stop-color:#ffffff;stop-opacity:0"
         offset="1" />
    </linearGradient>
    <linearGradient
       x1="18.775953"
       y1="4.0378027"
       x2="18.203465"
       y2="45.962208"
       id="linearGradient3552"
       xlink:href="#linearGradient6036"
       gradientUnits="userSpaceOnUse"
       gradientTransform="matrix(0.5808777,0,0,-0.5808775,17.85737,46.52194)" />
    <linearGradient
       x1="28"
       y1="59"
       x2="73"
       y2="59"
       id="linearGradient3149"
       xlink:href="#linearGradient4281-6"
       gradientUnits="userSpaceOnUse"
       gradientTransform="matrix(0,3.9192563,3.9542324,0,-139.26072,-128.18521)" />
    <linearGradient
       id="linearGradient4281-6">
      <stop
         id="stop4283-9-3"
         style="stop-color:#1e1e1e;stop-opacity:1"
         offset="0" />
      <stop
         id="stop4285-8-0"
         style="stop-color:#505050;stop-opacity:1"
         offset="1" />
    </linearGradient>
    <clipPath
       id="clipPath3974">
      <path
         d="m 24.59375,48.65625 c 0.05509,-0.28337 0.217148,-0.560898 0.4375,-0.78125 L 31.375,41.53125 c 0.587606,-0.587606 1.537394,-0.587606 2.125,0 l 8.5,8.5 L 42,29.5 C 42,28.669 42.669,28 43.5,28 l 9,0 c 0.831,0 1.5,0.669 1.5,1.5 l 0,20.53125 8.5,-8.5 c 0.587606,-0.587606 1.537394,-0.587606 2.125,0 l 6.34375,6.34375 c 0.587606,0.587606 0.587606,1.537394 0,2.125 L 48,73 25.03125,50 c -0.367254,-0.367254 -0.529313,-0.871466 -0.4375,-1.34375 z"
         inkscape:connector-curvature="0"
         id="path3976"
         style="color:#000000;display:inline;overflow:visible;visibility:visible;opacity:0.8;fill:#ff00ff;fill-opacity:1;fill-rule:nonzero;stroke:none;stroke-width:2;marker:none;enable-background:accumulate" />
    </clipPath>
    <filter
       style="color-interpolation-filters:sRGB"
       id="filter3978">
      <feGaussianBlur
         id="feGaussianBlur3980"
         stdDeviation="0.68880677" />
    </filter>
    <linearGradient
       x1="71.204407"
       y1="6.2375584"
       x2="71.204407"
       y2="44.340794"
       id="linearGradient3089"
       xlink:href="#linearGradient4011-7"
       gradientUnits="userSpaceOnUse"
       gradientTransform="matrix(1.1323391,0,0,1.1189188,-57.226668,-4.9067307)" />
    <linearGradient
       inkscape:collect="always"
       xlink:href="#linearGradient4215-4"
       id="linearGradient3163-1"
       gradientUnits="userSpaceOnUse"
       gradientTransform="matrix(0.89104607,0,0,0.88048551,-4.5134735,-6.4705457)"
       x1="38.976662"
       y1="59.967686"
       x2="38.976662"
       y2="8.0928917" />
    <linearGradient
       id="linearGradient4215-4">
      <stop
         offset="0"
         style="stop-color:#dcdcdc;stop-opacity:1"
         id="stop4217-9" />
      <stop
         offset="1"
         style="stop-color:#f0f0f0;stop-opacity:1"
         id="stop4219-7" />
    </linearGradient>
    <radialGradient
       cx="99.157013"
       cy="186.17059"
       r="62.769119"
       fx="99.157013"
       fy="186.17059"
       id="radialGradient3315"
       xlink:href="#linearGradient3820-7-2-2"
       gradientUnits="userSpaceOnUse"
       gradientTransform="matrix(0.27193253,0,0,0.08549854,-2.9640153,26.714434)" />
    <linearGradient
       id="linearGradient3820-7-2-2">
      <stop
         id="stop3822-2-6-36"
         style="stop-color:#3d3d3d;stop-opacity:1"
         offset="0" />
      <stop
         id="stop3864-8-7-6"
         style="stop-color:#686868;stop-opacity:0.49803922"
         offset="0.5" />
      <stop
         id="stop3824-1-2-4"
         style="stop-color:#686868;stop-opacity:0"
         offset="1" />
    </linearGradient>
  </defs>
  <metadata
     id="metadata3559">
    <rdf:RDF>
      <cc:Work
         rdf:about="">
        <dc:format>image/svg+xml</dc:format>
        <dc:type
           rdf:resource="http://purl.org/dc/dcmitype/StillImage" />
        <dc:title></dc:title>
      </cc:Work>
    </rdf:RDF>
  </metadata>
  <g
     id="layer1-6">
    <path
       style="display:inline;overflow:visible;visibility:visible;opacity:0.3;fill:url(#radialGradient4130);fill-opacity:1;fill-rule:evenodd;stroke:none;stroke-width:2;marker:none"
       id="path23417"
       inkscape:connector-curvature="0"
       d="M 61,53.499999 C 61.001449,58.194291 48.017314,62 32,62 15.982686,62 2.9985065,58.194291 3.0000001,53.499999 2.9985065,48.805709 15.982686,45 32,45 c 16.017314,0 29.001493,3.805709 29,8.499999 l 0,0 z" />
    <path
       style="fill:url(#linearGradient3070);fill-opacity:1;fill-rule:nonzero;stroke:url(#linearGradient3072);stroke-width:1;stroke-miterlimit:4;stroke-opacity:1"
       id="path2781"
       inkscape:connector-curvature="0"
       d="M 59.5,31.999999 C 59.5,16.757004 47.242994,4.5 32,4.5 16.757002,4.5 4.5,16.757005 4.5,31.999999 c -2.6e-6,15.242995 12.257004,27.5 27.5,27.5 15.242992,-3e-6 27.5,-12.257003 27.5,-27.5 z m -17,0 C 42.5,37.537735 37.64854,42.5 32,42.5 26.240655,42.5 21.5,37.425799 21.5,31.999999 21.5,26.463373 26.019041,21.5 32,21.5 c 5.980959,0 10.5,5.073069 10.5,10.499999 z" />
    <path
       style="display:inline;overflow:visible;visibility:visible;fill:#ffffff;fill-opacity:0.49803922;stroke:url(#linearGradient3067);stroke-width:1;stroke-linecap:butt;stroke-linejoin:round;stroke-miterlimit:4;stroke-dasharray:none;stroke-dashoffset:0;stroke-opacity:1;marker:none;enable-background:accumulate"
       id="path3418"
       inkscape:connector-curvature="0"
       d="m 31.999999,21.499999 c -5.795999,0 -10.5,4.703999 -10.5,10.499999 0,5.795999 4.704001,10.5 10.5,10.5 5.795999,0 10.499999,-4.704001 10.499999,-10.5 0,-5.796 -4.704,-10.499999 -10.499999,-10.499999 z m 0,5.249999 c 2.898,0 5.249999,2.352 5.249999,5.25 0,2.898 -2.351999,5.249999 -5.249999,5.249999 -2.898,0 -5.25,-2.351999 -5.25,-5.249999 0,-2.898 2.352,-5.25 5.25,-5.25 z" />
    <g
       id="g3527"
       transform="matrix(1.3333334,0,0,1.3333334,-1.6000002e-6,0.0588927)">
      <path
         style="opacity:0.8;fill:url(#linearGradient2477);fill-opacity:1;fill-rule:nonzero;stroke:none"
         id="path3296"
         transform="matrix(0.9996011,0.02824295,-0.02824295,0.9996011,0.6924114,-0.6708346)"
         inkscape:connector-curvature="0"
         d="M 15.856928,5.7307748 20.625,16.34375 C 21.660403,15.885186 22.795334,15.625 24,15.625 c 0.03206,0 0.06178,-3.6e-4 0.09375,0 L 24.10801,4.0047512 c -2.94215,-0.070687 -5.543041,0.6572865 -8.251083,1.7260236 l 10e-7,0 z" />
      <path
         style="opacity:0.8;fill:url(#linearGradient2479);fill-opacity:1;fill-rule:nonzero;stroke:none"
         id="path3308"
         inkscape:connector-curvature="0"
         d="m 12.121471,7.9060109 6.931026,9.3601041 c 0.913109,-0.669755 1.965938,-1.167064 3.142629,-1.425169 0.03132,-0.0069 0.06026,-0.01359 0.09157,-0.02009 L 19.857174,4.426276 c -2.888973,0.5613244 -5.31953,1.8556038 -7.735703,3.4797349 l 0,0 z" />
      <path
         style="opacity:0.8;fill:url(#linearGradient2481);fill-opacity:1;fill-rule:nonzero;stroke:none"
         id="path3310"
         inkscape:connector-curvature="0"
         d="m 8.2523933,11.646535 9.2137237,7.155818 c 0.70865,-0.883264 1.596891,-1.636119 2.666685,-2.18998 0.02847,-0.01474 0.05469,-0.02872 0.08325,-0.0431 L 14.86585,6.2506132 C 12.220599,7.5405321 10.165881,9.452393 8.2523933,11.646535 Z" />
      <path
         style="opacity:0.8;fill:url(#linearGradient2483);fill-opacity:1;fill-rule:nonzero;stroke:none"
         id="path3312"
         inkscape:connector-curvature="0"
         d="m 5.6328855,16.073974 c 7.1748065,2.242248 7.8502625,7.031463 12.7767855,1.754127 L 10.499985,9.1321388 C 8.2787249,11.062747 6.9132871,13.459349 5.6328855,16.073974 Z" />
      <path
         style="opacity:0.8;fill:url(#linearGradient2485);fill-opacity:1;fill-rule:nonzero;stroke:none"
         id="path3314"
         inkscape:connector-curvature="0"
         d="M 7.155289,13.193173 C 5.9722117,14.945185 5.2475768,16.829547 4.6301929,18.837116 L 15.96875,21.8125 C 16.184264,21.049497 16.486796,20.297733 16.9375,19.59375 16.95479,19.56675 16.98246,19.52673 17,19.5 L 7.155289,13.193173 Z" />
    </g>
    <path
       style="color:#000000;display:inline;overflow:visible;visibility:visible;opacity:0.55;fill:none;stroke:url(#linearGradient3227);stroke-width:1.00000012;stroke-linecap:round;stroke-linejoin:round;stroke-miterlimit:4;stroke-dasharray:none;stroke-dashoffset:0;stroke-opacity:1;marker:none;enable-background:accumulate"
       id="path8655"
       inkscape:connector-curvature="0"
       d="M 58.500001,31.999061 C 58.500001,46.63508 46.634673,58.5 32.000336,58.5 17.364659,58.5 5.5000001,46.634945 5.5000001,31.999061 c 0,-14.635341 11.8646589,-26.4990586 26.5003359,-26.4990586 14.634337,0 26.499665,11.8637176 26.499665,26.4990586 l 0,0 z" />
    <path
       style="opacity:0.4;fill:none;stroke:url(#linearGradient3552);stroke-width:0.99999982;stroke-miterlimit:4;stroke-opacity:1"
       id="path3281"
       inkscape:connector-curvature="0"
       d="m 31.999999,43.500001 c -6.374286,0 -11.5,-5.125713 -11.5,-11.5 0,-6.374285 5.125714,-11.500001 11.5,-11.500001 6.374289,0 11.5,5.125716 11.5,11.500001 0,6.374287 -5.125711,11.5 -11.5,11.5 l 0,0 0,0 0,0 z" />
  </g>
  <path
     style="display:inline;overflow:visible;visibility:visible;opacity:0.3;fill:url(#radialGradient3170);fill-opacity:1;fill-rule:evenodd;stroke:none;stroke-width:0.99999988;marker:none"
     id="path8836"
     inkscape:connector-curvature="0"
     d="m 64,60 c 0,2.209139 -7.163445,4 -16.000001,4 -8.836555,0 -16,-1.790861 -16,-4 0,-2.209139 7.163445,-4 16,-4 C 56.836555,56 64,57.790861 64,60 l 0,0 z" />
  <path
     d="m 87.745766,-0.54186083 a 11.000001,3.4800431 0 0 1 -22.000002,0 11.000001,3.4800431 0 1 1 22.000002,0 z"
     id="path3818-0-2"
     style="fill:url(#radialGradient3315);fill-opacity:1;stroke:none"
     inkscape:connector-curvature="0" />
  <path
     d="m 49.355934,30.646564 c -8.0006,0 -14.500003,6.462338 -14.500003,14.417319 0,7.954984 6.499403,14.417327 14.500003,14.417325 8.000599,0 14.500007,-6.462341 14.5,-14.417325 0,-7.954981 -6.499401,-14.417319 -14.5,-14.417319 z"
     id="path2555"
     style="color:#000000;display:inline;overflow:visible;visibility:visible;fill:url(#linearGradient3163-1);fill-opacity:1;fill-rule:nonzero;stroke:none;stroke-width:0.71428573;stroke-linecap:round;stroke-linejoin:round;stroke-miterlimit:4;stroke-dasharray:none;stroke-dashoffset:0;stroke-opacity:1;marker:none;enable-background:accumulate"
     inkscape:connector-curvature="0" />
  <path
     d="m 49.355933,30.646563 c -8.0006,0 -14.500002,6.462339 -14.500002,14.417321 0,7.954982 6.499402,14.417326 14.500002,14.417324 8.000597,0 14.500008,-6.462342 14.5,-14.417324 0,-7.954982 -6.499403,-14.417321 -14.5,-14.417321 z"
     id="path2555-6"
     style="color:#000000;display:inline;overflow:visible;visibility:visible;opacity:0.5;fill:#000000;fill-opacity:0;fill-rule:nonzero;stroke:#000000;stroke-width:0.99999994;stroke-linecap:round;stroke-linejoin:round;stroke-miterlimit:4;stroke-dasharray:none;stroke-dashoffset:0;stroke-opacity:1;marker:none;enable-background:accumulate"
     inkscape:connector-curvature="0" />
  <path
     d="m 49.355932,31.143139 c -2.172577,0 -4.23659,0.494258 -6.072499,1.374617 l 5.25,11.066535 -9.170001,-8.282502 c -2.482975,2.51269 -4.0075,5.965573 -4.0075,9.76152 0,1.003684 0.111451,1.979483 0.315,2.923237 l 13.825,-3.549645 -0.2275,-0.191401 8.925001,-9.970324 c -2.410806,-1.954309 -5.48872,-3.132037 -8.837501,-3.132037 z m 13.492502,10.196525 -13.755002,3.271241 0.0525,0.0348 -11.952501,7.308091 c 2.412363,4.198339 6.957101,7.029688 12.1625,7.029686 0.394521,0 0.786185,-0.02028 1.1725,-0.0522 C 50.025212,53.198863 49.285676,44.92459 49.268432,44.732704 l 11.1125,8.891512 c 1.859912,-2.36314 2.975002,-5.331634 2.975,-8.560908 0,-1.288446 -0.177101,-2.538964 -0.5075,-3.723647 z"
     inkscape:connector-curvature="0"
     id="path4004"
     style="fill:#000000;fill-opacity:0.04255317;stroke:none" />
  <path
     d="m 49.355932,31.143139 c -1.683973,0 -3.298784,0.309279 -4.794999,0.85261 l 3.9725,11.588542 -10.202501,-7.099287 c -1.864952,2.364844 -2.975,5.344191 -2.975,8.578305 0,0.66615 0.04874,1.324887 0.14,1.966225 l 14,-2.592633 -0.2275,-0.191401 7.787501,-10.788133 C 54.844755,32.003428 52.20195,31.143139 49.355932,31.143139 Z m 13.737501,11.257937 -14.000001,2.209829 0.0525,0.0348 -11.007504,8.734908 c 2.554443,3.394952 6.630953,5.602872 11.217503,5.60287 0.111802,0 0.221322,0.0026 0.332502,0 -0.166773,-5.78036 -0.402829,-14.059698 -0.420001,-14.250776 l 11.620001,8.195502 c 1.549399,-2.240021 2.467502,-4.944283 2.4675,-7.864898 0,-0.911316 -0.09388,-1.79951 -0.2625,-2.662233 z"
     inkscape:connector-curvature="0"
     id="path4004-0"
     style="fill:#000000;fill-opacity:0.04787233;stroke:none" />
  <path
     d="m 49.355932,31.143139 c -1.270691,0 -2.50423,0.170893 -3.675,0.487206 l 3.535001,12.771756 6.597501,-11.675543 c -1.933715,-1.003512 -4.127692,-1.583419 -6.457502,-1.583419 z m -11.9175,6.61208 c -1.320082,2.123579 -2.0825,4.631324 -2.0825,7.30809 0,0.32197 0.0133,0.640462 0.035,0.957013 l 13.895002,-1.53122 -11.847502,-6.733883 z m 25.830001,5.724671 -13.965001,0.83521 12.057501,7.917099 c 1.267118,-2.093143 1.995003,-4.550809 1.995001,-7.16889 0,-0.533954 -0.02846,-1.065007 -0.0875,-1.583419 z m -13.895,0.939611 -9.905001,10.509731 c 2.440079,2.417633 5.781706,3.927881 9.467501,4.03685 l 0.4375,-14.546581 z"
     inkscape:connector-curvature="0"
     id="path3893-7"
     style="fill:#000000;fill-opacity:0.05851063;stroke:none" />
  <path
     d="m 49.355932,31.143139 c -0.767242,0 -1.523582,0.0556 -2.257499,0.174002 l 2.1175,13.08496 5.215,-12.30195 c -1.574834,-0.610848 -3.284259,-0.957012 -5.075001,-0.957012 z m -12.565,7.777895 c -0.886174,1.78807 -1.40073,3.798132 -1.435,5.916072 l 13.93,-0.348004 -12.495,-5.568068 z m 12.5125,5.394067 12.530002,7.064488 c 0.973101,-1.895447 1.522501,-4.044513 1.5225,-6.31628 0,-0.193214 -0.0096,-0.382892 -0.0175,-0.574207 l -14.035,-0.174001 z m 0.07,0.104401 -8.102501,11.988749 c 1.969443,1.391642 4.303047,2.300769 6.842501,2.523032 l 1.26,-14.511782 z"
     inkscape:connector-curvature="0"
     id="path3893-7-5"
     style="fill:#000000;fill-opacity:0.06382979;stroke:none" />
  <path
     d="m 49.355932,31.143139 c -0.353096,0 -0.70342,0.0092 -1.049999,0.0348 l 0.91,13.224161 3.535,-12.841357 c -1.087042,-0.269767 -2.224629,-0.417602 -3.395001,-0.417602 z m -13.1075,9.048111 c -0.413077,1.097079 -0.700428,2.254922 -0.8225,3.462643 l 13.86,0.835209 -13.0375,-4.297853 z m 13.055,4.123851 12.967501,6.124877 c 0.619893,-1.467303 0.990476,-3.061868 1.0675,-4.73286 L 49.303432,44.315101 Z m 0.07,0.104401 -6.107501,13.171962 c 1.208785,0.582177 2.513728,1.002034 3.885,1.218016 l 2.222501,-14.389979 z"
     inkscape:connector-curvature="0"
     id="path3893"
     style="fill:#000000;fill-opacity:0.10106381;stroke:none" />
  <path
     d="m 49.443433,31.143139 -0.2275,13.258962 2.1175,-13.11976 c -0.616691,-0.08675 -1.250372,-0.135267 -1.89,-0.139202 z M 35.915932,41.165662 c -0.157904,0.538623 -0.29307,1.089683 -0.385,1.65302 l 13.755,1.67042 z m 13.3875,3.149439 13.335001,5.115664 c 0.253983,-0.763339 0.459428,-1.551256 0.577501,-2.36643 z m 0.07,0.104401 -5.180001,13.572169 c 0.313751,0.124604 0.638129,0.245636 0.962501,0.348004 0.286966,0.08973 0.580431,0.172099 0.874999,0.243603 0.07599,0.01859 0.151035,0.03488 0.2275,0.0522 z"
     inkscape:connector-curvature="0"
     id="path3893-9"
     style="fill:#000000;fill-opacity:0.0851064;stroke:none" />
  <path
     d="m 62.855933,45.063409 c 0,7.413572 -6.044601,13.423499 -13.49983,13.423499 -7.455912,0 -13.500172,-6.009996 -13.500172,-13.423499 0,-7.413228 6.04426,-13.422546 13.500172,-13.422546 7.455229,0 13.49983,6.009318 13.49983,13.422546 l 0,0 z"
     id="path8655-1"
     style="color:#000000;display:inline;overflow:visible;visibility:visible;opacity:0.8;fill:none;stroke:url(#linearGradient3089);stroke-width:0.99999994;stroke-linecap:round;stroke-linejoin:round;stroke-miterlimit:4;stroke-dasharray:none;stroke-dashoffset:0;stroke-opacity:1;marker:none;enable-background:accumulate"
     inkscape:connector-curvature="0" />
  <g
     id="layer6"
     transform="matrix(0.25289358,0,0,0.25515045,37.218141,32.70651)"
     style="opacity:0.8">
    <path
       d="m 24.59375,48.65625 c 0.05509,-0.28337 0.217148,-0.560898 0.4375,-0.78125 L 31.375,41.53125 c 0.587606,-0.587606 1.537394,-0.587606 2.125,0 l 8.5,8.5 L 42,29.5 C 42,28.669 42.669,28 43.5,28 l 9,0 c 0.831,0 1.5,0.669 1.5,1.5 l 0,20.53125 8.5,-8.5 c 0.587606,-0.587606 1.537394,-0.587606 2.125,0 l 6.34375,6.34375 c 0.587606,0.587606 0.587606,1.537394 0,2.125 L 48,73 25.03125,50 c -0.367254,-0.367254 -0.529313,-0.871466 -0.4375,-1.34375 z"
       inkscape:connector-curvature="0"
       id="rect3125"
       style="color:#000000;display:inline;overflow:visible;visibility:visible;opacity:0.8;fill:url(#linearGradient3149);fill-opacity:1;fill-rule:nonzero;stroke:none;stroke-width:2;marker:none;enable-background:accumulate" />
    <path
       d="M 71.3125,49.4375 C 71.239873,49.640016 71.131206,49.837544 70.96875,50 L 48,73 25.03125,50 c -0.157919,-0.157919 -0.296832,-0.336111 -0.375,-0.53125 -0.02293,0.06307 -0.05,0.123231 -0.0625,0.1875 C 24.50194,50.128534 24.664,50.632746 25.03125,51 L 48,74 70.96875,51 c 0.42515,-0.42515 0.533817,-1.032512 0.34375,-1.5625 z"
       inkscape:connector-curvature="0"
       id="path3960"
       style="color:#000000;display:inline;overflow:visible;visibility:visible;opacity:0.6;fill:#ffffff;fill-opacity:1;fill-rule:nonzero;stroke:none;stroke-width:2;marker:none;enable-background:accumulate" />
    <path
       d="m 24.59375,49.65625 c 0.05509,-0.28337 0.217148,-0.560898 0.4375,-0.78125 L 31.375,42.53125 c 0.587606,-0.587606 1.537394,-0.587606 2.125,0 l 8.5,8.5 L 42,30.5 C 42,29.669 42.669,29 43.5,29 l 9,0 c 0.831,0 1.5,0.669 1.5,1.5 l 0,20.53125 8.5,-8.5 c 0.587606,-0.587606 1.537394,-0.587606 2.125,0 l 6.34375,6.34375 c 0.587606,0.587606 0.587606,1.537394 0,2.125 L 48,74 25.03125,51 c -0.367254,-0.367254 -0.529313,-0.871466 -0.4375,-1.34375 z"
       inkscape:connector-curvature="0"
       clip-path="url(#clipPath3974)"
       id="path3970"
       style="color:#000000;display:inline;overflow:visible;visibility:visible;opacity:0.4;fill:none;stroke:#000000;stroke-width:7.87341118;marker:none;filter:url(#filter3978);enable-background:accumulate" />
  </g>
</svg>
