<?xml version="1.0" encoding="UTF-8" standalone="no"?>
<!-- Created with Inkscape (http://www.inkscape.org/) -->

<svg
   xmlns:dc="http://purl.org/dc/elements/1.1/"
   xmlns:cc="http://creativecommons.org/ns#"
   xmlns:rdf="http://www.w3.org/1999/02/22-rdf-syntax-ns#"
   xmlns:svg="http://www.w3.org/2000/svg"
   xmlns="http://www.w3.org/2000/svg"
   xmlns:xlink="http://www.w3.org/1999/xlink"
   xmlns:sodipodi="http://sodipodi.sourceforge.net/DTD/sodipodi-0.dtd"
   xmlns:inkscape="http://www.inkscape.org/namespaces/inkscape"
   width="24"
   height="24"
   id="svg2"
   sodipodi:version="0.32"
   inkscape:version="0.91 r"
   version="1.0"
   sodipodi:docname="edit-undo-archive.svg"
   inkscape:output_extension="org.inkscape.output.svg.inkscape"
   inkscape:export-filename="/home/matt/.icons/Sirocco/scalable/mimetypes/text-plain.png"
   inkscape:export-xdpi="90"
   inkscape:export-ydpi="90"
   sodipodi:modified="true"
   style="display:inline">
  <sodipodi:namedview
     id="base"
     pagecolor="#838383"
     bordercolor="#cc0000"
     borderopacity="1"
     inkscape:pageopacity="1"
     inkscape:pageshadow="2"
     inkscape:zoom="15.622586"
     inkscape:cx="-0.88699203"
     inkscape:cy="6.3175258"
     inkscape:document-units="px"
     inkscape:current-layer="layer1"
     width="128px"
     height="128px"
     inkscape:showpageshadow="false"
     inkscape:window-width="1221"
     inkscape:window-height="1154"
     inkscape:window-x="42"
     inkscape:window-y="37"
     showguides="true"
     inkscape:guide-bbox="true"
     showgrid="true"
     inkscape:window-maximized="0"
     borderlayer="true"
     inkscape:snap-global="true">
    <inkscape:grid
       enabled="true"
       visible="true"
       id="grid3231"
       type="xygrid"
       empspacing="8"
       snapvisiblegridlinesonly="true" />
    <sodipodi:guide
       orientation="1,0"
       position="12,6"
       id="guide3791" />
    <sodipodi:guide
       orientation="0,1"
       position="14,9"
       id="guide3793" />
  </sodipodi:namedview>
  <defs
     id="defs4">
    <linearGradient
       id="StandardGradient"
       gradientTransform="scale(0.9219544,1.0846523)"
       x1="11.998966"
       y1="0.92195445"
       x2="11.998966"
       y2="19.387045"
       gradientUnits="userSpaceOnUse">
      <stop
         style="stop-color:#000000;stop-opacity:0.23529412;"
         offset="0"
         id="stop3283" />
      <stop
         id="stop3850"
         offset="0.69999999"
         style="stop-color:#000000;stop-opacity:0.39215686;" />
      <stop
         style="stop-color:#000000;stop-opacity:0.55;"
         offset="1"
         id="stop2651" />
    </linearGradient>
    <radialGradient
       inkscape:collect="always"
       xlink:href="#StandardGradient"
       id="radialGradient4055"
       cx="12"
       cy="12.803125"
       fx="12"
       fy="12.803125"
       r="9.015625"
       gradientTransform="matrix(1.7746967,0,0,1.1091854,-8.2961105,-2.2010399)"
       gradientUnits="userSpaceOnUse" />
    <radialGradient
       inkscape:collect="always"
       xlink:href="#StandardGradient"
       id="radialGradient4061"
       gradientUnits="userSpaceOnUse"
       gradientTransform="matrix(1.7746967,0,0,1.1091854,-9.2963605,-1.2010399)"
       cx="12"
       cy="12.803125"
       fx="12"
       fy="12.803125"
       r="9.015625" />
    <radialGradient
       inkscape:collect="always"
       xlink:href="#StandardGradient"
       id="radialGradient4065"
       gradientUnits="userSpaceOnUse"
       gradientTransform="matrix(1.7746967,0,0,1.1091854,-9.2963605,-1.2010399)"
       cx="12"
       cy="12.803125"
       fx="12"
       fy="12.803125"
       r="9.015625" />
    <radialGradient
       inkscape:collect="always"
       xlink:href="#StandardGradient"
       id="radialGradient4067"
       gradientUnits="userSpaceOnUse"
       gradientTransform="matrix(1.7746967,0,0,1.1091854,-9.2963605,-1.2010399)"
       cx="12"
       cy="12.803125"
       fx="12"
       fy="12.803125"
       r="9.015625" />
  </defs>
  <metadata
     id="metadata7">
    <rdf:RDF>
      <cc:Work
         rdf:about="">
        <dc:format>image/svg+xml</dc:format>
        <dc:type
           rdf:resource="http://purl.org/dc/dcmitype/StillImage" />
        <dc:title></dc:title>
      </cc:Work>
    </rdf:RDF>
  </metadata>
  <g
     style="display:inline"
     inkscape:label="Calque 1"
     id="layer1"
     inkscape:groupmode="layer"
     transform="translate(0,2)">
    <path
       inkscape:connector-curvature="0"
       style="display:inline;opacity:0.05;fill:#ffffff;fill-opacity:1;stroke:none"
       d="M 11.00025,-1 C 9.5098864,-1 8.3803945,0.1616909 8.1565,1.59375 7.8150354,1.3241543 7.4299657,1.09375 6.969,1.09375 l -2,0 c -1.0922186,0 -2,0.9077814 -2,2 l 0,1 a 1.0029247,1.0029247 0 0 0 0.1875,0.5625 C 2.490107,5.1087026 1.969,5.7379883 1.969,6.59375 l 0,5 c 0,1.369219 1.1307814,2.5 2.5,2.5 l 1.5,0 2.0625,0 C 8.0879689,15.69202 9.3893423,17 11.00025,17 l -1,0 a 1.0029247,1.0029247 0 0 0 -1,1 l 0,1 a 1.0029247,1.0029247 0 0 0 1,1 l 2,0 a 1.0029247,1.0029247 0 0 0 1,1 l 4,0 a 1.0029247,1.0029247 0 0 0 1,-1 l 2,0 a 1.0029247,1.0029247 0 0 0 1,-1 l 0,-1 a 1.0029247,1.0029247 0 0 0 -1,-1 l -1,0 c 1.646219,0 3,-1.353781 3,-3 l 0,-12 c 0,-1.6462186 -1.353781,-3 -3,-3 l -8,0 z m 0,1 8,0 c 1.108,0 2,0.892 2,2 l 0,12 c 0,1.108 -0.892,2 -2,2 l -3,0 0,1 1,0 0,1 3,0 0,1 -3,0 0,1 -4,0 0,-1 -3,0 0,-1 3,0 0,-1 1,0 0,-1 -3,0 c -1.108,0 -2,-0.892 -2,-2 l 9,0 c 0.554,0 1,-0.446 1,-1 l 0,-10 c 0,-0.554 -0.446,-1 -1,-1 l -9,0 c 0,-1.108 0.892,-2 2,-2 z M 4.969,2.09375 l 2,0 c 0.554,0 1,0.446 1,1 l 5,0 c 0.554,0 1,0.446 1,1 l -10,0 0,-1 c 0,-0.554 0.446,-1 1,-1 z M 14.50025,3 l 3.5,0 0,10 -2.46875,0 c 0.275801,-0.405734 0.4375,-0.888434 0.4375,-1.40625 l 0,-5 c 0,-0.8557617 -0.521107,-1.4850474 -1.1875,-1.9375 A 1.0029247,1.0029247 0 0 0 14.969,4.09375 C 14.969,3.6680319 14.733767,3.3273677 14.50025,3 Z M 4.469,5.09375 l 3,0 5,0 1,0 c 0.831,0 1.5,0.669 1.5,1.5 l 0,5 c 0,0.647488 -0.396277,1.195291 -0.96875,1.40625 l 0,0.09375 -8.03125,0 -1.5,0 c -0.831,0 -1.5,-0.669 -1.5,-1.5 l 0,-5 c 0,-0.831 0.669,-1.5 1.5,-1.5 z"
       id="path6264" />
    <path
       inkscape:connector-curvature="0"
       style="display:inline;fill:url(#radialGradient4055);fill-opacity:1;stroke:none"
       d="m 11.00025,0 c -1.108,0 -2,0.892 -2,2 l 9,0 c 0.554,0 1,0.446 1,1 l 0,10 c 0,0.554 -0.446,1 -1,1 l -9,0 c 0,1.108 0.892,2 2,2 l 3,0 0,1 -1,0 0,1 -3,0 0,1 3,0 0,1 4,0 0,-1 3,0 0,-1 -3,0 0,-1 -1,0 0,-1 3,0 c 1.108,0 2,-0.892 2,-2 l 0,-12 c 0,-1.108 -0.892,-2 -2,-2 l -8,0 z M 4.969,2.09375 c -0.554,0 -1,0.446 -1,1 l 0,1 10,0 c 0,-0.554 -0.446,-1 -1,-1 l -5,0 c 0,-0.554 -0.446,-1 -1,-1 l -2,0 z m -0.5,3 c -0.831,0 -1.5,0.669 -1.5,1.5 l 0,5 c 0,0.831 0.669,1.5 1.5,1.5 l 1.5,0 8.03125,0 0,-0.09375 C 14.572723,12.789041 14.969,12.241238 14.969,11.59375 l 0,-5 c 0,-0.831 -0.669,-1.5 -1.5,-1.5 l -1,0 -5,0 -3,0 z"
       id="path2866" />
    <path
       inkscape:connector-curvature="0"
       style="display:inline;opacity:0.3;fill:#000000;fill-opacity:1;stroke:none"
       d="m 11.00025,0 c -1.108,0 -2,0.892 -2,2 L 9.2815,2 C 9.6267769,1.4030909 10.258349,1 11.00025,1 l 8,0 c 1.108,0 2,0.892 2,2 l 0,-1 c 0,-1.108 -0.892,-2 -2,-2 l -8,0 z M 4.969,2.09375 c -0.554,0 -1,0.446 -1,1 l 0,1 c 0,-0.554 0.446,-1 1,-1 l 2,0 c 0.554,0 1,0.446 1,1 l 5,0 1,0 c 0,-0.554 -0.446,-1 -1,-1 l -5,0 c 0,-0.554 -0.446,-1 -1,-1 l -2,0 z m -0.5,3 c -0.831,0 -1.5,0.669 -1.5,1.5 l 0,1 c 0,-0.831 0.669,-1.5 1.5,-1.5 l 3,0 5,0 1,0 c 0.831,0 1.5,0.669 1.5,1.5 l 0,-1 c 0,-0.831 -0.669,-1.5 -1.5,-1.5 l -9,0 z M 19.00025,13 c 0,0.554 -0.446,1 -1,1 l -4,0 0,0.09375 -5,0 C 9.0155188,14.424169 9.1259068,14.731013 9.2815,15 l 8.71875,0 c 0.554,0 1,-0.446 1,-1 l 0,-1 z m -6,4 0,1 1,0 0,-1 -1,0 z m 0,1 -3,0 0,1 3,0 0,-1 z m 3,-1 0,1 1,0 0,-1 -1,0 z m 1,1 0,1 3,0 0,-1 -3,0 z"
       id="path2901" />
    <path
       style="display:inline;opacity:0.2;fill:#ffffff;fill-opacity:1;stroke:none"
       d="M 9.2815,2 C 9.1111196,2.2945508 9.00025,2.6339013 9.00025,3 l 9,0 c 0.554,0 1,0.446 1,1 l 0,-1 c 0,-0.554 -0.446,-1 -1,-1 L 9.2815,2 Z m -5.3125,2.09375 0,1 0.5,0 9,0 0.5,0 c 0,-0.554 -0.446,-1 -1,-1 l -5,0 -4,0 z m -1,7.5 0,1 c 0,0.831 0.669,1.5 1.5,1.5 l 1.5,0 3.03125,0 c -0.00145,-0.0314 0,-0.06198 0,-0.09375 l 5,0 C 14.572723,13.789041 14.969,13.241238 14.969,12.59375 l 0,-1 c 0,0.647488 -0.396277,1.195291 -0.96875,1.40625 l 0,0.09375 -8.03125,0 -1.5,0 c -0.831,0 -1.5,-0.669 -1.5,-1.5 z M 21.00025,14 c 0,1.108 -0.892,2 -2,2 l -3,0 0,1 1,0 2,0 c 1.108,0 2,-0.892 2,-2 l 0,-1 z m -12,1 c 0,1.108 0.892,2 2,2 l 2,0 1,0 0,-1 -3,0 C 10.258349,16 9.6267769,15.596909 9.2815,15 l -0.28125,0 z m 1,4 0,1 3,0 0,-1 -3,0 z m 3,1 0,1 4,0 0,-1 -4,0 z m 4,0 3,0 0,-1 -3,0 0,1 z"
       id="path3682"
       inkscape:connector-curvature="0" />
    <path
       style="display:inline;opacity:0.3;fill:#000000;fill-opacity:1;stroke:none"
       d="m 11.00025,0 c -1.108,0 -2,0.892 -2,2 l 9,0 c 0.554,0 1,0.446 1,1 l 0,10 c 0,0.554 -0.446,1 -1,1 l -9,0 c 0,1.108 0.892,2 2,2 l 3,0 0,1 -1,0 0,1 -3,0 0,1 3,0 0,1 4,0 0,-1 3,0 0,-1 -3,0 0,-1 -1,0 0,-1 3,0 c 1.108,0 2,-0.892 2,-2 l 0,-12 c 0,-1.108 -0.892,-2 -2,-2 l -8,0 z m 0,0.5 8,0 c 0.836523,0 1.5,0.663477 1.5,1.5 l 0,12 c 0,0.836523 -0.663477,1.5 -1.5,1.5 l -3,0 a 0.50587425,0.50587425 0 0 0 -0.5,0.5 l 0,1 a 0.50587425,0.50587425 0 0 0 0.5,0.5 l 0.5,0 0,0.5 a 0.50587425,0.50587425 0 0 0 0.375,0.5 0.50587425,0.50587425 0 0 0 -0.375,0.5 l 0,0.5 -3,0 0,-0.5 a 0.50587425,0.50587425 0 0 0 -0.375,-0.5 0.50587425,0.50587425 0 0 0 0.375,-0.5 l 0,-0.5 0.5,0 a 0.50587425,0.50587425 0 0 0 0.5,-0.5 l 0,-1 a 0.50587425,0.50587425 0 0 0 -0.5,-0.5 l -3,0 c -0.637911,0 -1.0636888,-0.447441 -1.28125,-1 l 8.28125,0 c 0.825477,0 1.5,-0.674523 1.5,-1.5 l 0,-10 c 0,-0.825477 -0.674523,-1.5 -1.5,-1.5 L 9.719,1.5 c 0.2175612,-0.5525587 0.643339,-1 1.28125,-1 z M 4.969,2.09375 c -0.554,0 -1,0.446 -1,1 l 0,1 10,0 c 0,-0.554 -0.446,-1 -1,-1 l -5,0 c 0,-0.554 -0.446,-1 -1,-1 l -2,0 z m 0,0.5 2,0 c 0.282523,0 0.5,0.217477 0.5,0.5 a 0.50587425,0.50587425 0 0 0 0.34375,0.5 l -3.34375,0 0,-0.5 c 0,-0.282523 0.217477,-0.5 0.5,-0.5 z m -0.5,2.5 c -0.831,0 -1.5,0.669 -1.5,1.5 l 0,5 c 0,0.831 0.669,1.5 1.5,1.5 l 1.5,0 8.03125,0 0,-0.09375 C 14.572723,12.789041 14.969,12.241238 14.969,11.59375 l 0,-5 c 0,-0.831 -0.669,-1.5 -1.5,-1.5 l -1,0 -5,0 -3,0 z m 0,0.5 3,0 5,0 1,0 c 0.559523,0 1,0.440477 1,1 l 0,5 c 0,0.441104 -0.279293,0.79859 -0.65625,0.9375 a 0.50587425,0.50587425 0 0 0 -0.125,0.0625 l -7.71875,0 -1.5,0 c -0.559523,0 -1,-0.440477 -1,-1 l 0,-5 c 0,-0.559523 0.440477,-1 1,-1 z"
       id="path4057"
       inkscape:connector-curvature="0" />
    <path
       id="path3883"
       d="M 5.6933815,7.3671982 5.0340795,10.977602 8.6576031,10.320687 7.6906264,9.3572152 c 0.8840861,-0.827431 2.2740496,-0.810301 3.1365216,0.04904 0.250149,0.249247 0.430296,0.54237 0.537989,0.8548668 l 1.47332,-0.3923908 C 12.664149,9.2987042 12.351596,8.7600032 11.899611,8.3096482 10.448621,6.8639172 8.0856744,6.8676152 6.6040972,8.2746132 L 5.6933815,7.3671952 Z"
       style="display:inline;fill:#ef2929;fill-opacity:0.44230768;stroke:none"
       inkscape:connector-curvature="0" />
    <path
       style="display:inline;opacity:0.3;fill:#ef2929;fill-opacity:0.44230768;stroke:none"
       d="m 9.2656541,7.2261572 c -0.9573088,-0.004 -1.9145081,0.349716 -2.6552969,1.053218 L 5.6906461,7.3744982 5.0379476,10.979173 8.6574571,10.326474 7.6932435,9.3622652 c 0.8840857,-0.827434 2.2675181,-0.814849 3.1299865,0.04451 0.250147,0.249242 0.441166,0.54788 0.54886,0.8603718 l 1.46857,-0.4005298 c -0.174302,-0.570025 -0.482562,-1.107224 -0.934549,-1.557574 -0.72549,-0.722864 -1.683148,-1.078968 -2.6404569,-1.082886 z m 0,0.22251 c 0.9041199,0.0037 1.8089919,0.328063 2.4921179,1.008716 0.368796,0.367461 0.614466,0.803289 0.786204,1.260895 L 11.490761,10.014957 C 11.36705,9.7380592 11.194748,9.4807962 10.971568,9.2584222 10.027718,8.3179862 8.5121936,8.2937852 7.5449024,9.1990872 a 0.21687598,0.21687598 0 0 0 0,0.311518 L 8.2272693,10.192969 5.3049607,10.71216 5.8241526,7.8046862 6.4620169,8.4277152 a 0.21687598,0.21687598 0 0 0 0.2966813,0.01483 c 0.6994637,-0.664258 1.6036421,-0.997581 2.5069559,-0.993883 z"
       id="path3889"
       inkscape:connector-curvature="0" />
    <path
       inkscape:connector-curvature="0"
       style="display:inline;opacity:0.05;fill:#ef2929;fill-opacity:0.44230768;stroke:none"
       d="m 9.2656541,6.7069652 c -0.9221874,-0.0038 -1.809191,0.344873 -2.5811265,0.919711 l -0.62303,-0.623028 A 0.52225397,0.52225397 0 0 0 5.1714542,7.2854932 L 4.5187559,10.89017 a 0.52225397,0.52225397 0 0 0 0.6081961,0.6082 L 8.7464611,10.845666 A 0.52225397,0.52225397 0 0 0 9.0283083,9.9556202 l -0.5043579,-0.50435 c 0.638559,-0.295596 1.3992441,-0.200925 1.9284266,0.326344 0.196567,0.195857 0.35108,0.4231468 0.430188,0.6526978 a 0.52225397,0.52225397 0 0 0 0.623032,0.341185 l 1.46857,-0.400522 a 0.52225397,0.52225397 0 0 0 0.370849,-0.6526968 c -0.19782,-0.64693 -0.553075,-1.266974 -1.068051,-1.780087 -0.827516,-0.824518 -1.925933,-1.226785 -3.0113109,-1.231226 z m 0,0.519192 c 0.9573089,0.004 1.9149669,0.360022 2.6404569,1.082886 0.451987,0.450349 0.760247,0.987549 0.934549,1.557574 L 11.37209,10.267139 C 11.264396,9.9546452 11.073377,9.6560042 10.82323,9.4067602 9.9607616,8.5474162 8.5773292,8.5348312 7.6932435,9.3622622 l 0.9642136,0.9642098 -3.6195095,0.652699 0.6526985,-3.6046778 0.9197111,0.90488 c 0.7407888,-0.7035 1.6979881,-1.057133 2.6552969,-1.053216 z"
       id="path4491" />
    <path
       inkscape:connector-curvature="0"
       style="display:inline;opacity:0.3;fill:#ef2929;fill-opacity:0.44230768;stroke:none"
       d="m 9.2656541,7.2261572 c -0.9573088,-0.004 -1.9145078,0.349716 -2.6552969,1.053218 l -0.9197111,-0.904877 -0.6526985,3.6046748 0.089004,-0.01482 0.5636941,-3.1151528 0.9197111,0.904877 c 1.4815775,-1.407003 3.8447693,-1.416066 5.2957543,0.02968 0.335695,0.334477 0.589021,0.718803 0.771376,1.127387 l 0.163173,-0.04452 c -0.174302,-0.570033 -0.482562,-1.107232 -0.934549,-1.557583 -0.72549,-0.722865 -1.683148,-1.078965 -2.6404569,-1.082883 z m -1.5724106,2.136108 0,0.474684 0.5636939,0.5636938 0.4005197,-0.07416 -0.6823667,-0.6823678 -0.014834,-0.01483 -0.2670133,-0.267017 z"
       id="BevelShadow"
       inkscape:label="#path3178" />
    <path
       inkscape:connector-curvature="0"
       style="display:inline;opacity:0.2;fill:#ef2929;fill-opacity:0.44230768;stroke:none"
       d="m 12.21763,8.6650602 c 0.19117,0.245481 0.338104,0.510806 0.459857,0.78621 -0.120948,-0.27512 -0.269488,-0.541013 -0.459857,-0.78621 z m -2.9519759,0.08901 c -0.5658119,-0.0083 -1.1303677,0.194482 -1.5724106,0.608196 l 0.2670129,0.267011 C 8.8389,9.0256522 10.042693,9.1037452 10.82323,9.8814522 c 0.250147,0.2492488 0.441166,0.5478758 0.54886,0.8603778 l 1.46857,-0.400522 0,-0.4746898 -1.46857,0.4005218 C 11.264396,9.9546452 11.073377,9.6560042 10.82323,9.4067602 10.391994,8.9770882 9.831465,8.7623382 9.2656541,8.7540662 Z m -0.608197,1.5724088 -3.6195095,0.652699 0,0.474686 3.6195095,-0.652693 0,-0.474692 z"
       id="BevelHighlight"
       inkscape:label="#path3188" />
  </g>
</svg>
