<?xml version="1.0" encoding="UTF-8" standalone="no"?>
<!-- Created with Inkscape (http://www.inkscape.org/) -->

<svg
   xmlns:dc="http://purl.org/dc/elements/1.1/"
   xmlns:cc="http://creativecommons.org/ns#"
   xmlns:rdf="http://www.w3.org/1999/02/22-rdf-syntax-ns#"
   xmlns:svg="http://www.w3.org/2000/svg"
   xmlns="http://www.w3.org/2000/svg"
   xmlns:xlink="http://www.w3.org/1999/xlink"
   xmlns:sodipodi="http://sodipodi.sourceforge.net/DTD/sodipodi-0.dtd"
   xmlns:inkscape="http://www.inkscape.org/namespaces/inkscape"
   version="1.1"
   width="32"
   height="32"
   id="svg4248"
   inkscape:version="0.91 r"
   sodipodi:docname="appointment-new.svg">
  <sodipodi:namedview
     pagecolor="#ffffff"
     bordercolor="#666666"
     borderopacity="1"
     objecttolerance="10"
     gridtolerance="10"
     guidetolerance="10"
     inkscape:pageopacity="0"
     inkscape:pageshadow="2"
     inkscape:window-width="1309"
     inkscape:window-height="1359"
     id="namedview109"
     showgrid="false"
     inkscape:zoom="5.656854"
     inkscape:cx="-15.362132"
     inkscape:cy="11.697219"
     inkscape:window-x="989"
     inkscape:window-y="95"
     inkscape:window-maximized="0"
     inkscape:current-layer="svg4248"
     inkscape:snap-bbox="true"
     inkscape:bbox-paths="true"
     inkscape:bbox-nodes="true"
     inkscape:snap-bbox-edge-midpoints="false"
     inkscape:snap-global="true">
    <inkscape:grid
       type="xygrid"
       id="grid4005" />
  </sodipodi:namedview>
  <defs
     id="defs4250">
    <linearGradient
       id="linearGradient4011-4">
      <stop
         id="stop4013-8"
         style="stop-color:#ffffff;stop-opacity:1"
         offset="0" />
      <stop
         id="stop4015-5"
         style="stop-color:#ffffff;stop-opacity:0.23529412"
         offset="0.507761" />
      <stop
         id="stop4017-6"
         style="stop-color:#ffffff;stop-opacity:0.15686275"
         offset="0.83456558" />
      <stop
         id="stop4019-1"
         style="stop-color:#ffffff;stop-opacity:0.39215687"
         offset="1" />
    </linearGradient>
    <linearGradient
       x1="71.204407"
       y1="6.2375584"
       x2="71.204407"
       y2="44.340794"
       id="linearGradient3089"
       xlink:href="#linearGradient4011-4"
       gradientUnits="userSpaceOnUse"
       gradientTransform="matrix(0.72972962,0,0,0.72556869,-36.346073,-2.3076002)" />
    <linearGradient
       id="linearGradient3820-7-2-2">
      <stop
         id="stop3822-2-6-36"
         style="stop-color:#3d3d3d;stop-opacity:1"
         offset="0" />
      <stop
         id="stop3864-8-7-6"
         style="stop-color:#686868;stop-opacity:0.49803922"
         offset="0.5" />
      <stop
         id="stop3824-1-2-4"
         style="stop-color:#686868;stop-opacity:0"
         offset="1" />
    </linearGradient>
    <radialGradient
       cx="99.157013"
       cy="186.17059"
       r="62.769119"
       fx="99.157013"
       fy="186.17059"
       id="radialGradient3315"
       xlink:href="#linearGradient3820-7-2-2"
       gradientUnits="userSpaceOnUse"
       gradientTransform="matrix(0.1752454,0,0,0.05544197,-1.3768099,18.197309)" />
    <linearGradient
       inkscape:collect="always"
       xlink:href="#linearGradient4215-4"
       id="linearGradient3163-1"
       gradientUnits="userSpaceOnUse"
       gradientTransform="matrix(0.57422966,0,0,0.5709554,-2.3753494,-3.3216636)"
       x1="38.976662"
       y1="59.967686"
       x2="38.976662"
       y2="8.0928917" />
    <linearGradient
       id="linearGradient4215-4">
      <stop
         offset="0"
         style="stop-color:#dcdcdc;stop-opacity:1"
         id="stop4217-9" />
      <stop
         offset="1"
         style="stop-color:#f0f0f0;stop-opacity:1"
         id="stop4219-7" />
    </linearGradient>
    <linearGradient
       id="outerBackgroundGradient">
      <stop
         id="stop3864-8-6"
         offset="0"
         style="stop-color:#a5a5a5;stop-opacity:1;" />
      <stop
         id="stop3866-9-1"
         offset="1"
         style="stop-color:#d1d1d1;stop-opacity:1;" />
    </linearGradient>
    <linearGradient
       gradientTransform="matrix(0.06666667,0,0,0.06666667,414.4,137.33333)"
       y2="40.00005"
       x2="264"
       y1="280.00003"
       x1="264"
       gradientUnits="userSpaceOnUse"
       id="linearGradient4097"
       xlink:href="#outerBackgroundGradient"
       inkscape:collect="always" />
    <linearGradient
       y2="28.571428"
       x2="286.85715"
       y1="302.85715"
       x1="286.85715"
       gradientTransform="matrix(0.0875,0,0,0.0875,414.9,97.5)"
       gradientUnits="userSpaceOnUse"
       id="linearGradient4101"
       xlink:href="#outerBackgroundGradient"
       inkscape:collect="always" />
    <linearGradient
       y2="31.61907"
       x2="283.80957"
       y1="299.80954"
       x1="283.80957"
       gradientTransform="matrix(0.11931818,0,0,0.11931818,414.13636,48.22727)"
       gradientUnits="userSpaceOnUse"
       id="linearGradient4153"
       xlink:href="#outerBackgroundGradient"
       inkscape:collect="always" />
    <linearGradient
       y2="22.857315"
       x2="281.14291"
       y1="297.14304"
       x1="281.14291"
       gradientTransform="matrix(0.175,0,0,-0.175,286.79999,-215.99997)"
       gradientUnits="userSpaceOnUse"
       id="linearGradient4869"
       xlink:href="#outerBackgroundGradient"
       inkscape:collect="always" />
    <clipPath
       id="clipPath4891"
       clipPathUnits="userSpaceOnUse">
      <rect
         transform="matrix(0,1,-1,0,0,0)"
         style="color:#bebebe;display:inline;overflow:visible;visibility:visible;fill:url(#linearGradient4895);fill-opacity:1;fill-rule:nonzero;stroke:none;stroke-width:0;marker:none;enable-background:accumulate"
         id="rect4893"
         width="42"
         height="42"
         x="307"
         y="223"
         ry="9" />
    </clipPath>
    <linearGradient
       y2="40.000172"
       x2="144.00006"
       y1="280.00018"
       x1="144.00006"
       gradientTransform="matrix(0.175,0,0,0.175,302.79999,215.99997)"
       gradientUnits="userSpaceOnUse"
       id="linearGradient4895"
       xlink:href="#outerBackgroundGradient"
       inkscape:collect="always" />
    <clipPath
       id="clipPath4044"
       clipPathUnits="userSpaceOnUse">
      <rect
         style="color:#bebebe;display:inline;overflow:visible;visibility:visible;fill:url(#linearGradient4048);fill-opacity:1;fill-rule:nonzero;stroke:none;stroke-width:0;marker:none;enable-background:accumulate"
         id="rect4046"
         width="22"
         height="22"
         x="433"
         y="85"
         ry="4" />
    </clipPath>
    <linearGradient
       y2="40.000046"
       x2="149.71428"
       y1="291.42862"
       x1="149.71428"
       gradientTransform="matrix(0.0875,0,0,0.0875,430.9,81.499996)"
       gradientUnits="userSpaceOnUse"
       id="linearGradient4048"
       xlink:href="#outerBackgroundGradient"
       inkscape:collect="always" />
    <clipPath
       id="clipPath4089"
       clipPathUnits="userSpaceOnUse">
      <rect
         ry="6"
         y="37"
         x="433"
         height="30"
         width="30"
         id="rect4091"
         style="color:#bebebe;display:inline;overflow:visible;visibility:visible;fill:url(#linearGradient4093);fill-opacity:1;fill-rule:nonzero;stroke:none;stroke-width:0;marker:none;enable-background:accumulate" />
    </clipPath>
    <linearGradient
       y2="40.00005"
       x2="149.71432"
       y1="291.42862"
       x1="149.71432"
       gradientTransform="matrix(0.11931818,0,0,0.11931818,430.13636,32.227267)"
       gradientUnits="userSpaceOnUse"
       id="linearGradient4093"
       xlink:href="#outerBackgroundGradient"
       inkscape:collect="always" />
    <clipPath
       id="clipPath3855"
       clipPathUnits="userSpaceOnUse">
      <rect
         transform="matrix(0,1,-1,0,0,0)"
         ry="3"
         y="212"
         x="304"
         height="16"
         width="16"
         id="rect3857"
         style="color:#bebebe;display:inline;overflow:visible;visibility:visible;fill:url(#linearGradient3859);fill-opacity:1;fill-rule:nonzero;stroke:none;stroke-width:0;marker:none;enable-background:accumulate" />
    </clipPath>
    <linearGradient
       y2="40.00005"
       x2="144"
       y1="280.00003"
       x1="144"
       gradientTransform="matrix(0.06666667,0,0,0.06666667,302.4,209.33333)"
       gradientUnits="userSpaceOnUse"
       id="linearGradient3859"
       xlink:href="#outerBackgroundGradient"
       inkscape:collect="always" />
    <clipPath
       id="clipPath3862"
       clipPathUnits="userSpaceOnUse">
      <rect
         style="color:#bebebe;display:inline;overflow:visible;visibility:visible;fill:url(#linearGradient3866);fill-opacity:1;fill-rule:nonzero;stroke:none;stroke-width:0;marker:none;enable-background:accumulate"
         id="rect3864"
         width="220"
         height="220"
         x="34"
         y="46"
         ry="50" />
    </clipPath>
    <linearGradient
       y2="40"
       x2="144"
       y1="280"
       x1="144"
       gradientTransform="translate(0,-4)"
       gradientUnits="userSpaceOnUse"
       id="linearGradient3866"
       xlink:href="#outerBackgroundGradient"
       inkscape:collect="always" />
    <linearGradient
       y2="32"
       x2="272"
       y1="288"
       x1="272"
       gradientTransform="translate(0,-4)"
       gradientUnits="userSpaceOnUse"
       id="linearGradient3876"
       xlink:href="#outerBackgroundGradient"
       inkscape:collect="always" />
    <clipPath
       id="clipPath4187"
       clipPathUnits="userSpaceOnUse">
      <rect
         style="color:#bebebe;display:inline;overflow:visible;visibility:visible;fill:url(#linearGradient4191);fill-opacity:1;fill-rule:nonzero;stroke:none;stroke-width:0;marker:none;enable-background:accumulate"
         id="rect4189"
         width="60"
         height="60"
         x="290"
         y="142"
         ry="12.5" />
    </clipPath>
    <linearGradient
       y2="140"
       x2="352"
       y1="204"
       x1="352"
       gradientUnits="userSpaceOnUse"
       id="linearGradient4191"
       xlink:href="#outerBackgroundGradient"
       inkscape:collect="always" />
    <linearGradient
       y2="28"
       x2="384"
       y1="124"
       x1="384"
       gradientUnits="userSpaceOnUse"
       id="linearGradient4197"
       xlink:href="#outerBackgroundGradient"
       inkscape:collect="always" />
    <clipPath
       id="clipPath4346"
       clipPathUnits="userSpaceOnUse">
      <rect
         ry="18"
         y="32"
         x="292"
         height="88"
         width="88"
         id="rect4348"
         style="color:#bebebe;display:inline;overflow:visible;visibility:visible;fill:url(#linearGradient4197);fill-opacity:1;fill-rule:nonzero;stroke:none;stroke-width:0;marker:none;enable-background:accumulate" />
    </clipPath>
    <clipPath
       id="clipPath3871"
       clipPathUnits="userSpaceOnUse">
      <rect
         style="color:#bebebe;display:inline;overflow:visible;visibility:visible;fill:url(#linearGradient4101);fill-opacity:1;fill-rule:nonzero;stroke:none;stroke-width:0;marker:none;enable-background:accumulate"
         id="rect3873"
         width="22"
         height="22"
         x="417"
         y="101"
         ry="5" />
    </clipPath>
    <clipPath
       id="clipPath3881"
       clipPathUnits="userSpaceOnUse">
      <rect
         ry="7"
         y="53"
         x="417"
         height="30"
         width="30"
         id="rect3883"
         style="color:#bebebe;display:inline;overflow:visible;visibility:visible;fill:url(#linearGradient4153);fill-opacity:1;fill-rule:nonzero;stroke:none;stroke-width:0;marker:none;enable-background:accumulate" />
    </clipPath>
    <linearGradient
       gradientTransform="matrix(0,-1,1,0,316,540)"
       gradientUnits="userSpaceOnUse"
       y2="112"
       x2="438"
       y1="112"
       x1="418"
       id="linearGradient4258"
       xlink:href="#outerBackgroundGradient"
       inkscape:collect="always" />
    <linearGradient
       y2="40.000008"
       x2="144"
       y1="280"
       x1="144"
       gradientTransform="matrix(0.375,0,0,0.375,14,172)"
       gradientUnits="userSpaceOnUse"
       id="linearGradient4865"
       xlink:href="#outerBackgroundGradient-1"
       inkscape:collect="always" />
    <linearGradient
       id="outerBackgroundGradient-1">
      <stop
         id="stop3864-8-6-2"
         offset="0"
         style="stop-color:#989898;stop-opacity:1;" />
      <stop
         id="stop3866-9-1-5"
         offset="1"
         style="stop-color:#c3c3c3;stop-opacity:1;" />
    </linearGradient>
    <clipPath
       id="clipPath4610"
       clipPathUnits="userSpaceOnUse">
      <path
         inkscape:connector-curvature="0"
         style="color:#bebebe;display:inline;overflow:visible;visibility:visible;fill:url(#linearGradient4614);fill-opacity:1;fill-rule:nonzero;stroke:none;stroke-width:2;marker:none;enable-background:accumulate"
         d="m 75.448164,-5.3337819 c 12.658277,0 22.841991,10.1837123 22.841991,22.8419899 l 0,55.374522 c 0,12.658279 -10.183714,22.841991 -22.841991,22.841991 l -55.374521,0 c -12.6582793,0 -22.8419907,-10.183712 -22.8419907,-22.841991 l 0,-55.374522 c 0,-12.6582776 10.1837114,-22.8419899 22.8419907,-22.8419899 l 55.374521,0 z"
         id="path4612" />
    </clipPath>
    <linearGradient
       y2="156"
       x2="253"
       y1="156"
       x1="35"
       gradientTransform="matrix(0,-0.46145435,-0.46145435,0,119.74778,111.6449)"
       gradientUnits="userSpaceOnUse"
       id="linearGradient4614"
       xlink:href="#outerBackgroundGradient"
       inkscape:collect="always" />
    <linearGradient
       y2="8.0928917"
       x2="38.976662"
       y1="59.967686"
       x1="38.976662"
       gradientTransform="matrix(0.80392158,0,0,0.80392158,-1.72549,-2.3658945)"
       gradientUnits="userSpaceOnUse"
       id="linearGradient3024"
       xlink:href="#linearGradient4215-4"
       inkscape:collect="always" />
    <linearGradient
       inkscape:collect="always"
       xlink:href="#linearGradient4215-4"
       id="linearGradient3849"
       gradientUnits="userSpaceOnUse"
       gradientTransform="matrix(0.80392158,0,0,0.80392158,664.41073,262.76717)"
       x1="38.976662"
       y1="59.967686"
       x2="38.976662"
       y2="8.0928917" />
    <clipPath
       id="clipPath4806"
       clipPathUnits="userSpaceOnUse">
      <path
         inkscape:connector-curvature="0"
         style="color:#bebebe;display:inline;overflow:visible;visibility:visible;fill:#bf5454;fill-opacity:1;fill-rule:nonzero;stroke:none;stroke-width:2;marker:none;enable-background:accumulate"
         d="m 543.90196,-171.40732 c -27.43127,0 -49.5,22.06873 -49.5,49.5 l 0,120 c 0,27.43127 22.06873,49.5 49.5,49.5 l 120,0 c 27.43127,0 49.5,-22.06873 49.5,-49.5 l 0,-120 c 0,-27.43127 -22.06873,-49.5 -49.5,-49.5 l -120,0 z"
         id="path4808" />
    </clipPath>
    <clipPath
       id="clipPath4812"
       clipPathUnits="userSpaceOnUse">
      <path
         inkscape:connector-curvature="0"
         style="color:#bebebe;display:inline;overflow:visible;visibility:visible;fill:#bf5454;fill-opacity:1;fill-rule:nonzero;stroke:none;stroke-width:2;marker:none;enable-background:accumulate"
         d="m 547.65198,-156.00108 c -22.10302,0 -39.84375,17.74073 -39.84375,39.84375 l 0,112.5000018 c 0,22.1030162 17.74073,39.8437502 39.84375,39.8437502 l 112.5,0 c 22.10302,0 39.84375,-17.740734 39.84375,-39.8437502 l 0,-112.5000018 c 0,-22.10302 -17.74073,-39.84375 -39.84375,-39.84375 l -112.5,0 z"
         id="path4814" />
    </clipPath>
    <clipPath
       id="clipPath4840"
       clipPathUnits="userSpaceOnUse">
      <path
         inkscape:connector-curvature="0"
         style="color:#bebebe;display:inline;overflow:visible;visibility:visible;fill:#bf5454;fill-opacity:1;fill-rule:nonzero;stroke:none;stroke-width:2;marker:none;enable-background:accumulate"
         d="m 538.90196,-168.65732 c -24.25637,0 -43.75,19.49363 -43.75,43.75 l 0,130.0000025 c 0,24.2563755 19.49363,43.7500005 43.75,43.7500005 l 130,0 c 24.25637,0 43.75,-19.493625 43.75,-43.7500005 l 0,-130.0000025 c 0,-24.25637 -19.49363,-43.75 -43.75,-43.75 l -130,0 z"
         id="path4842" />
    </clipPath>
    <clipPath
       id="clipPath4888"
       clipPathUnits="userSpaceOnUse">
      <path
         inkscape:connector-curvature="0"
         style="color:#bebebe;display:inline;overflow:visible;visibility:visible;fill:#bf5454;fill-opacity:1;fill-rule:nonzero;stroke:none;stroke-width:2;marker:none;enable-background:accumulate"
         d="m 541.402,-166.15737 c -17.305,0 -31.25,13.945 -31.25,31.25 l 0,124.999995 c 0,17.305 13.945,31.25 31.25,31.25 l 125,0 c 17.305,0 31.25,-13.945 31.25,-31.25 l 0,-124.999995 c 0,-17.305 -13.945,-31.25 -31.25,-31.25 l -125,0 z"
         id="path4890" />
    </clipPath>
    <clipPath
       id="clipPath4894"
       clipPathUnits="userSpaceOnUse">
      <path
         inkscape:connector-curvature="0"
         style="color:#bebebe;display:inline;overflow:visible;visibility:visible;fill:#bf5454;fill-opacity:1;fill-rule:nonzero;stroke:none;stroke-width:2;marker:none;enable-background:accumulate"
         d="m 543.902,-164.9073 c -24.9699,0 -45,20.0301 -45,45 l 0,120 c 0,24.9699 20.0301,45 45,45 l 120,0 c 24.9699,0 45,-20.0301 45,-45 l 0,-120 c 0,-24.9699 -20.0301,-45 -45,-45 l -120,0 z"
         id="path4896" />
    </clipPath>
    <clipPath
       id="clipPath4900"
       clipPathUnits="userSpaceOnUse">
      <path
         inkscape:connector-curvature="0"
         style="color:#bebebe;display:inline;overflow:visible;visibility:visible;fill:#bf5454;fill-opacity:1;fill-rule:nonzero;stroke:none;stroke-width:2;marker:none;enable-background:accumulate"
         d="m 543.90196,-164.90732 c -27.04905,0 -48.75,21.70098 -48.75,48.75 l 0,120.0000051 c 0,27.0490209 21.70095,48.7500009 48.75,48.7500009 l 120.00001,0 c 27.04905,0 48.75,-21.70098 48.75,-48.7500009 l 0,-120.0000051 c 0,-27.04902 -21.70095,-48.75 -48.75,-48.75 l -120.00001,0 z"
         id="path4902" />
    </clipPath>
    <clipPath
       id="clipPath4906"
       clipPathUnits="userSpaceOnUse">
      <path
         inkscape:connector-curvature="0"
         style="color:#bebebe;display:inline;overflow:visible;visibility:visible;fill:#bf5454;fill-opacity:1;fill-rule:nonzero;stroke:none;stroke-width:2;marker:none;enable-background:accumulate"
         d="m 537.05819,-167.62264 c -24.95632,0 -45,20.04368 -45,45 l 0,131.2500024 c 0,24.9563246 20.04368,44.9999996 45,44.9999996 l 131.25,0 c 24.95633,0 45,-20.043675 45,-44.9999996 l 0,-131.2500024 c 0,-24.95632 -20.04367,-45 -45,-45 l -131.25,0 z"
         id="path4908" />
    </clipPath>
    <linearGradient
       x1="45"
       y1="24"
       x2="45"
       y2="76"
       id="linearGradient3146"
       xlink:href="#linearGradient4281-6"
       gradientUnits="userSpaceOnUse"
       gradientTransform="matrix(2.7329912,0,0,2.7256759,-4.1102539,24.027533)" />
    <linearGradient
       id="linearGradient4281-6">
      <stop
         id="stop4283-9-3"
         style="stop-color:#1e1e1e;stop-opacity:1"
         offset="0" />
      <stop
         id="stop4285-8-0"
         style="stop-color:#505050;stop-opacity:1"
         offset="1" />
    </linearGradient>
    <clipPath
       id="clipPath4110">
      <path
         d="m 50,19 c -9.726128,-0.132021 -19.109741,6.056796 -22.90625,15 -3.979384,8.850182 -2.152838,19.920532 4.53125,26.96875 1.281262,1.387198 2.722378,2.621691 4.28125,3.6875 0.08882,-1.817147 -0.197676,-3.686742 0.15625,-5.46875 0.656484,-1.161773 2.158536,-1.184701 0.375,-2.25 -5.762671,-5.843571 -6.891108,-15.618269 -2.53125,-22.59375 4.061674,-7.006285 12.966668,-10.646131 20.78125,-8.5 8.227191,1.977457 14.397158,10.100226 14.0625,18.5625 -0.09505,5.13445 -2.431331,10.16269 -6.28125,13.5625 1.525079,0.286683 1.764814,1.969453 1.625,3.25 l 0,3.4375 C 71.755786,59.535945 76.096622,49.948036 74.8125,40.8125 73.683314,30.989775 66.097834,22.350732 56.53125,19.875 54.400202,19.297672 52.207631,18.999338 50,19 Z m -0.1875,9.375 c -1.956327,-0.05862 -3.24076,1.944156 -2.9375,3.75 0.03923,4.21599 -0.0766,8.446623 0.0625,12.65625 0.315681,1.83468 2.277034,2.569412 3.9375,2.34375 3.566877,-0.04013 7.12719,0.08236 10.6875,-0.0625 2.635743,-0.393414 3.406401,-4.287567 1.125,-5.65625 -1.595432,-0.917738 -3.525888,-0.391599 -5.28125,-0.53125 l -4.28125,0 C 53.08702,37.492266 53.1999,34.095149 53.0625,30.71875 52.783093,29.231948 51.295937,28.216436 49.8125,28.375 Z M 46,52 l 0,8 -8,0 0,8 8,0 0,8 8,0 0,-8 8,0 0,-8 -8,0 0,-8 -8,0 z"
         inkscape:connector-curvature="0"
         id="path4112"
         style="color:#000000;display:inline;overflow:visible;visibility:visible;opacity:0.8;fill:#ff00ff;fill-opacity:1;fill-rule:nonzero;stroke:none;stroke-width:2;marker:none;enable-background:accumulate" />
    </clipPath>
    <filter
       style="color-interpolation-filters:sRGB"
       id="filter4104">
      <feGaussianBlur
         id="feGaussianBlur4106"
         stdDeviation="0.80272282" />
    </filter>
  </defs>
  <metadata
     id="metadata4253">
    <rdf:RDF>
      <cc:Work
         rdf:about="">
        <dc:format>image/svg+xml</dc:format>
        <dc:type
           rdf:resource="http://purl.org/dc/dcmitype/StillImage" />
        <dc:title></dc:title>
      </cc:Work>
    </rdf:RDF>
  </metadata>
  <path
     d="m 27.000002,28.519104 a 11.000001,3.4800429 0 1 1 -22.0000003,0 11.000001,3.4800429 0 1 1 22.0000003,0 z"
     id="path3818-0-2"
     style="fill:url(#radialGradient3315);fill-opacity:1;stroke:none"
     inkscape:connector-curvature="0" />
  <path
     d="m 16.000002,1.6736331 c -8.0005989,0 -14.5000019,6.4623378 -14.5000019,14.4173189 0,7.954983 6.499403,14.417325 14.5000019,14.417324 8.000598,0 14.500006,-6.462341 14.499999,-14.417324 0,-7.9549811 -6.499401,-14.4173189 -14.499999,-14.4173189 z"
     id="path2555"
     style="color:#000000;display:inline;overflow:visible;visibility:visible;fill:url(#linearGradient3163-1);fill-opacity:1;fill-rule:nonzero;stroke:none;stroke-width:0.71428573;stroke-linecap:round;stroke-linejoin:round;stroke-miterlimit:4;stroke-dasharray:none;stroke-dashoffset:0;stroke-opacity:1;marker:none;enable-background:accumulate"
     inkscape:connector-curvature="0" />
  <path
     d="M 16.000001,1.6736325 C 7.9994019,1.6736325 1.5,8.1359709 1.5,16.090952 c 0,7.954981 6.4994019,14.417324 14.500001,14.417323 8.000596,0 14.500006,-6.462342 14.499999,-14.417323 C 30.5,8.1359709 24.000597,1.6736325 16.000001,1.6736325 Z"
     id="path2555-6"
     style="color:#000000;display:inline;overflow:visible;visibility:visible;opacity:0.5;fill:#000000;fill-opacity:0;fill-rule:nonzero;stroke:#000000;stroke-width:1;stroke-linecap:round;stroke-linejoin:round;stroke-miterlimit:4;stroke-dasharray:none;stroke-dashoffset:0;stroke-opacity:1;marker:none;enable-background:accumulate"
     inkscape:connector-curvature="0" />
  <path
     d="m 16,2.1702091 c -2.172577,0 -4.23659,0.4942584 -6.0724983,1.3746167 L 15.177502,14.61136 6.007501,6.3288584 C 3.5245261,8.8415485 2.0000011,12.294431 2.0000011,16.090378 c 0,1.003684 0.111451,1.979482 0.315,2.923237 L 16.14,15.463971 15.9125,15.272568 24.8375,5.3022459 C 22.426694,3.3479366 19.348781,2.1702091 16,2.1702091 Z M 29.492501,12.366733 15.7375,15.637974 l 0.0525,0.0348 -11.9525,7.308089 c 2.4123631,4.198339 6.9571,7.029688 12.162499,7.029686 0.394521,0 0.786186,-0.02029 1.172501,-0.0522 -0.50322,-5.732419 -1.242756,-14.006691 -1.26,-14.198577 l 11.112499,8.891512 c 1.859912,-2.36314 2.975002,-5.331635 2.975,-8.560908 0,-1.288446 -0.177101,-2.538963 -0.5075,-3.723646 z"
     inkscape:connector-curvature="0"
     id="path4004"
     style="fill:#000000;fill-opacity:0.04255317;stroke:none" />
  <path
     d="m 16,2.1702091 c -1.683973,0 -3.298784,0.3092788 -4.794999,0.8526103 L 15.177502,14.61136 4.9750012,7.5120734 C 3.1100491,9.8769168 2.0000011,12.856264 2.0000011,16.090378 c 0,0.66615 0.04874,1.324886 0.14,1.966226 L 16.14,15.463971 15.9125,15.272568 23.700001,4.4844374 C 21.488823,3.0304977 18.846017,2.1702091 16,2.1702091 Z M 29.737501,13.428145 15.7375,15.637974 l 0.0525,0.0348 -11.0075025,8.734906 C 7.33694,27.802631 11.41345,30.010552 16,30.01055 c 0.111801,0 0.221321,0.0026 0.3325,0 -0.166772,-5.780361 -0.402828,-14.059696 -0.42,-14.250774 l 11.62,8.1955 c 1.5494,-2.24002 2.467502,-4.944281 2.4675,-7.864897 0,-0.911315 -0.09388,-1.799508 -0.2625,-2.662232 z"
     inkscape:connector-curvature="0"
     id="path4004-0"
     style="fill:#000000;fill-opacity:0.04787233;stroke:none" />
  <path
     d="m 16,2.1702091 c -1.270691,0 -2.50423,0.1708926 -3.674999,0.4872051 l 3.535,12.7717568 L 22.4575,3.7536284 C 20.523787,2.7501154 18.329811,2.1702091 16,2.1702091 Z M 4.0825011,8.7822888 c -1.320082,2.1235792 -2.0825,4.6313232 -2.0825,7.3080892 0,0.32197 0.0133,0.640462 0.034999,0.957013 L 15.930002,15.516171 4.0825011,8.7822881 Z M 29.9125,14.506959 15.9475,15.34217 28.005,23.259267 c 1.267118,-2.093144 1.995003,-4.550808 1.995001,-7.168889 0,-0.533954 -0.02846,-1.065007 -0.0875,-1.583419 z M 16.017501,15.446571 6.1125012,25.9563 c 2.4400782,2.417633 5.7817048,3.927882 9.4674998,4.03685 l 0.4375,-14.546579 z"
     inkscape:connector-curvature="0"
     id="path3893-7"
     style="fill:#000000;fill-opacity:0.05851063;stroke:none" />
  <path
     d="m 16,2.1702091 c -0.767242,0 -1.523582,0.055598 -2.257499,0.1740019 l 2.1175,13.08496 L 21.075,3.1272206 C 19.500167,2.516372 17.790742,2.1702091 16,2.1702091 Z M 3.4350012,9.9481035 C 2.5488272,11.736173 2.0342711,13.746235 2.0000011,15.864175 L 15.93,15.516171 3.4350012,9.9481035 Z M 15.9475,15.34217 28.477501,22.406658 c 0.9731,-1.895448 1.522501,-4.044513 1.5225,-6.31628 0,-0.193214 -0.0096,-0.382892 -0.0175,-0.574207 L 15.947499,15.34217 Z m 0.07,0.104401 -8.1024993,11.988747 c 1.9694424,1.391643 4.3030453,2.300769 6.8424993,2.523033 l 1.26,-14.51178 z"
     inkscape:connector-curvature="0"
     id="path3893-7-5"
     style="fill:#000000;fill-opacity:0.06382979;stroke:none" />
  <path
     d="m 16,2.1702091 c -0.353096,0 -0.70342,0.00919 -1.05,0.034803 L 15.860001,15.429173 19.395,2.5878162 C 18.307959,2.3180459 17.170371,2.170211 16,2.170211 Z M 2.8925011,11.21832 c -0.413077,1.097078 -0.700428,2.254921 -0.8225,3.462642 L 15.93,15.516171 2.8925011,11.218318 Z M 15.9475,15.34217 28.915,21.467045 c 0.619893,-1.467303 0.990476,-3.061866 1.0675,-4.732858 L 15.9475,15.34217 Z m 0.07,0.104401 -6.1074994,13.171962 c 1.2087844,0.582176 2.5137274,1.002033 3.8849994,1.218016 l 2.2225,-14.389978 z"
     inkscape:connector-curvature="0"
     id="path3893"
     style="fill:#000000;fill-opacity:0.10106381;stroke:none" />
  <path
     d="M 16.087501,2.1702091 15.860001,15.429171 17.9775,2.309411 C 17.36081,2.2226562 16.727129,2.1741446 16.087501,2.1702091 Z M 2.560001,12.192731 C 2.4020971,12.731355 2.2669311,13.282415 2.1750011,13.845752 L 15.93,15.516171 Z m 13.387499,3.149439 13.335,5.115662 c 0.253984,-0.763338 0.459428,-1.551255 0.577501,-2.366429 z m 0.07,0.104401 -5.18,13.572168 c 0.313751,0.124603 0.638129,0.245636 0.962501,0.348003 0.286965,0.08974 0.580431,0.1721 0.874999,0.243604 0.07599,0.01859 0.151036,0.03488 0.2275,0.0522 z"
     inkscape:connector-curvature="0"
     id="path3893-9"
     style="fill:#000000;fill-opacity:0.0851064;stroke:none" />
  <path
     d="m 29.5,16.090478 c 0,7.41357 -6.044601,13.423498 -13.499829,13.423498 C 8.5442596,29.513976 2.5,23.503979 2.5,16.090478 2.5,8.6772494 8.5442596,2.6679322 16.000171,2.6679322 23.455399,2.6679322 29.5,8.6772494 29.5,16.090478 l 0,0 z"
     id="path8655"
     style="color:#000000;display:inline;overflow:visible;visibility:visible;opacity:0.8;fill:none;stroke:url(#linearGradient3089);stroke-width:1;stroke-linecap:round;stroke-linejoin:round;stroke-miterlimit:4;stroke-dasharray:none;stroke-dashoffset:0;stroke-opacity:1;marker:none;enable-background:accumulate"
     inkscape:connector-curvature="0" />
  <g
     inkscape:groupmode="layer"
     id="layer1"
     inkscape:label="Layer 1" />
  <g
     transform="matrix(0.30577104,0,0,0.30849973,0.91629528,1.9835208)"
     id="layer6"
     style="opacity:0.8">
    <path
       d="m 50,19 c -9.726128,-0.132021 -19.109741,6.056796 -22.90625,15 -3.979384,8.850182 -2.152838,19.920532 4.53125,26.96875 1.281262,1.387198 2.722378,2.621691 4.28125,3.6875 0.08882,-1.817147 -0.197676,-3.686742 0.15625,-5.46875 0.656484,-1.161773 2.158536,-1.184701 0.375,-2.25 -5.762671,-5.843571 -6.891108,-15.618269 -2.53125,-22.59375 4.061674,-7.006285 12.966668,-10.646131 20.78125,-8.5 8.227191,1.977457 14.397158,10.100226 14.0625,18.5625 -0.09505,5.13445 -2.431331,10.16269 -6.28125,13.5625 1.525079,0.286683 1.764814,1.969453 1.625,3.25 l 0,3.4375 C 71.755786,59.535945 76.096622,49.948036 74.8125,40.8125 73.683314,30.989775 66.097834,22.350732 56.53125,19.875 54.400202,19.297672 52.207631,18.999338 50,19 Z m -0.1875,9.375 c -1.956327,-0.05862 -3.24076,1.944156 -2.9375,3.75 0.03923,4.21599 -0.0766,8.446623 0.0625,12.65625 0.315681,1.83468 2.277034,2.569412 3.9375,2.34375 3.566877,-0.04013 7.12719,0.08236 10.6875,-0.0625 2.635743,-0.393414 3.406401,-4.287567 1.125,-5.65625 -1.595432,-0.917738 -3.525888,-0.391599 -5.28125,-0.53125 l -4.28125,0 C 53.08702,37.492266 53.1999,34.095149 53.0625,30.71875 52.783093,29.231948 51.295937,28.216436 49.8125,28.375 Z M 46,52 l 0,8 -8,0 0,8 8,0 0,8 8,0 0,-8 8,0 0,-8 -8,0 0,-8 -8,0 z"
       inkscape:connector-curvature="0"
       id="path3928"
       style="color:#000000;display:inline;overflow:visible;visibility:visible;opacity:0.8;fill:url(#linearGradient3146);fill-opacity:1;fill-rule:nonzero;stroke:none;stroke-width:2;marker:none;enable-background:accumulate" />
    <path
       d="m 50.21875,25.21875 c -6.512089,-0.04993 -13.01239,3.432393 -16.3125,9.125 -1.946558,3.114363 -2.790483,6.7749 -2.625,10.40625 0.02231,-3.295722 0.859541,-6.581634 2.625,-9.40625 4.061674,-7.006285 12.966668,-10.646131 20.78125,-8.5 7.712992,1.853866 13.630268,9.096415 14.0625,16.96875 0.03336,-8.246719 -6.026873,-16.037337 -14.0625,-17.96875 -1.465234,-0.4024 -2.96596,-0.613478 -4.46875,-0.625 z m -3.34375,7 c -0.03342,0.301459 -0.05054,0.605276 0,0.90625 -0.0012,-0.301291 0.0026,-0.605093 0,-0.90625 z m 0,9.40625 c 0.0052,1.389124 0.01671,2.770407 0.0625,4.15625 0.315681,1.83468 2.277034,2.569412 3.9375,2.34375 3.566877,-0.04013 7.12719,0.08236 10.6875,-0.0625 1.741238,-0.259899 2.666424,-2.046916 2.4375,-3.625 -0.189499,1.257393 -1.060324,2.419441 -2.4375,2.625 -3.56031,0.14486 -7.120623,0.02237 -10.6875,0.0625 -1.660466,0.225662 -3.621819,-0.50907 -3.9375,-2.34375 C 46.90272,43.728843 46.88432,42.679475 46.875,41.625 Z m -21.84375,2.9375 c -0.08924,6.356349 2.185709,12.758072 6.59375,17.40625 1.281262,1.387198 2.722378,2.621691 4.28125,3.6875 0.01615,-0.33039 0.0026,-0.666984 0,-1 C 34.347378,63.590441 32.906262,62.355948 31.625,60.96875 27.447445,56.563614 25.18231,50.585928 25.03125,44.5625 Z m 50,0.03125 c -0.1889,7.906626 -4.328867,15.646152 -10.9375,20.0625 l 0,1 c 6.887065,-4.602416 11.090149,-12.813958 10.9375,-21.0625 z M 36.9375,58.25 c -0.267918,0.234985 -0.6208,0.487645 -0.875,0.9375 -0.209121,1.052921 -0.216017,2.133559 -0.1875,3.21875 -3.6e-5,-0.748819 0.0427,-1.489663 0.1875,-2.21875 0.580028,-1.026469 1.824155,-1.184649 0.875,-1.9375 z m 26.28125,0.03125 c -0.238652,0.235872 -0.498194,0.465134 -0.75,0.6875 1.084101,0.203788 1.514526,1.125005 1.625,2.09375 0.08286,-0.996925 -0.07676,-2.193278 -0.875,-2.78125 z M 38,68 l 0,1 8,0 0,-1 -8,0 z m 16,0 0,1 8,0 0,-1 -8,0 z m -8,8 0,1 8,0 0,-1 -8,0 z"
       inkscape:connector-curvature="0"
       id="path4093"
       style="color:#000000;display:inline;overflow:visible;visibility:visible;opacity:0.6;fill:#ffffff;fill-opacity:1;fill-rule:nonzero;stroke:none;stroke-width:2;marker:none;enable-background:accumulate" />
    <path
       d="m 50,20 c -9.726128,-0.132021 -19.109741,6.056796 -22.90625,15 -3.979384,8.850182 -2.152838,19.920532 4.53125,26.96875 1.281262,1.387198 2.722378,2.621691 4.28125,3.6875 0.08882,-1.817147 -0.197676,-3.686742 0.15625,-5.46875 0.656484,-1.161773 2.158536,-1.184701 0.375,-2.25 -5.762671,-5.843571 -6.891108,-15.618269 -2.53125,-22.59375 4.061674,-7.006285 12.966668,-10.646131 20.78125,-8.5 8.227191,1.977457 14.397158,10.100226 14.0625,18.5625 -0.09505,5.13445 -2.431331,10.16269 -6.28125,13.5625 1.525079,0.286683 1.764814,1.969453 1.625,3.25 l 0,3.4375 C 71.755786,60.535945 76.096622,50.948036 74.8125,41.8125 73.683314,31.989775 66.097834,23.350732 56.53125,20.875 54.400202,20.297672 52.207631,19.999338 50,20 Z m -0.1875,9.375 c -1.956327,-0.05862 -3.24076,1.944156 -2.9375,3.75 0.03923,4.21599 -0.0766,8.446623 0.0625,12.65625 0.315681,1.83468 2.277034,2.569412 3.9375,2.34375 3.566877,-0.04013 7.12719,0.08236 10.6875,-0.0625 2.635743,-0.393414 3.406401,-4.287567 1.125,-5.65625 -1.595432,-0.917738 -3.525888,-0.391599 -5.28125,-0.53125 l -4.28125,0 C 53.08702,38.492266 53.1999,35.095149 53.0625,31.71875 52.783093,30.231948 51.295937,29.216436 49.8125,29.375 Z M 46,53 l 0,8 -8,0 0,8 8,0 0,8 8,0 0,-8 8,0 0,-8 -8,0 0,-8 -8,0 z"
       inkscape:connector-curvature="0"
       clip-path="url(#clipPath4110)"
       id="path4102"
       style="color:#000000;display:inline;overflow:visible;visibility:visible;opacity:0.4;fill:none;stroke:#000000;stroke-width:6.51185179;marker:none;filter:url(#filter4104);enable-background:accumulate" />
  </g>
</svg>
