<?xml version="1.0" encoding="UTF-8" standalone="no"?>
<!-- Created with Inkscape (http://www.inkscape.org/) -->

<svg
   xmlns:dc="http://purl.org/dc/elements/1.1/"
   xmlns:cc="http://creativecommons.org/ns#"
   xmlns:rdf="http://www.w3.org/1999/02/22-rdf-syntax-ns#"
   xmlns:svg="http://www.w3.org/2000/svg"
   xmlns="http://www.w3.org/2000/svg"
   xmlns:xlink="http://www.w3.org/1999/xlink"
   xmlns:sodipodi="http://sodipodi.sourceforge.net/DTD/sodipodi-0.dtd"
   xmlns:inkscape="http://www.inkscape.org/namespaces/inkscape"
   version="1.1"
   width="32"
   height="32"
   id="svg4248"
   inkscape:version="0.91 r"
   sodipodi:docname="document-save.svg">
  <sodipodi:namedview
     pagecolor="#ffffff"
     bordercolor="#666666"
     borderopacity="1"
     objecttolerance="10"
     gridtolerance="10"
     guidetolerance="10"
     inkscape:pageopacity="0"
     inkscape:pageshadow="2"
     inkscape:window-width="1309"
     inkscape:window-height="1359"
     id="namedview109"
     showgrid="false"
     inkscape:zoom="5.656854"
     inkscape:cx="-15.362132"
     inkscape:cy="11.697219"
     inkscape:window-x="1249"
     inkscape:window-y="47"
     inkscape:window-maximized="0"
     inkscape:current-layer="svg4248"
     inkscape:snap-bbox="true"
     inkscape:bbox-paths="true"
     inkscape:bbox-nodes="true"
     inkscape:snap-bbox-edge-midpoints="false"
     inkscape:snap-global="true">
    <inkscape:grid
       type="xygrid"
       id="grid4005" />
  </sodipodi:namedview>
  <defs
     id="defs4250">
    <linearGradient
       id="linearGradient4011-4">
      <stop
         id="stop4013-8"
         style="stop-color:#ffffff;stop-opacity:1"
         offset="0" />
      <stop
         id="stop4015-5"
         style="stop-color:#ffffff;stop-opacity:0.23529412"
         offset="0.507761" />
      <stop
         id="stop4017-6"
         style="stop-color:#ffffff;stop-opacity:0.15686275"
         offset="0.83456558" />
      <stop
         id="stop4019-1"
         style="stop-color:#ffffff;stop-opacity:0.39215687"
         offset="1" />
    </linearGradient>
    <linearGradient
       x1="71.204407"
       y1="6.2375584"
       x2="71.204407"
       y2="44.340794"
       id="linearGradient3089"
       xlink:href="#linearGradient4011-4"
       gradientUnits="userSpaceOnUse"
       gradientTransform="matrix(0.72972971,0,0,0.72556884,-36.346074,-2.3074588)" />
    <linearGradient
       id="linearGradient3820-7-2-2">
      <stop
         id="stop3822-2-6-36"
         style="stop-color:#3d3d3d;stop-opacity:1"
         offset="0" />
      <stop
         id="stop3864-8-7-6"
         style="stop-color:#686868;stop-opacity:0.49803922"
         offset="0.5" />
      <stop
         id="stop3824-1-2-4"
         style="stop-color:#686868;stop-opacity:0"
         offset="1" />
    </linearGradient>
    <radialGradient
       cx="99.157013"
       cy="186.17059"
       r="62.769119"
       fx="99.157013"
       fy="186.17059"
       id="radialGradient3315"
       xlink:href="#linearGradient3820-7-2-2"
       gradientUnits="userSpaceOnUse"
       gradientTransform="matrix(0.17524542,0,0,0.05544198,-1.3768103,18.197453)" />
    <linearGradient
       inkscape:collect="always"
       xlink:href="#linearGradient4215-4"
       id="linearGradient3163-1"
       gradientUnits="userSpaceOnUse"
       gradientTransform="matrix(0.57422971,0,0,0.57095548,-2.3753498,-3.3215215)"
       x1="38.976662"
       y1="59.967686"
       x2="38.976662"
       y2="8.0928917" />
    <linearGradient
       id="linearGradient4215-4">
      <stop
         offset="0"
         style="stop-color:#dcdcdc;stop-opacity:1"
         id="stop4217-9" />
      <stop
         offset="1"
         style="stop-color:#f0f0f0;stop-opacity:1"
         id="stop4219-7" />
    </linearGradient>
    <linearGradient
       id="outerBackgroundGradient">
      <stop
         id="stop3864-8-6"
         offset="0"
         style="stop-color:#a5a5a5;stop-opacity:1;" />
      <stop
         id="stop3866-9-1"
         offset="1"
         style="stop-color:#d1d1d1;stop-opacity:1;" />
    </linearGradient>
    <linearGradient
       gradientTransform="matrix(0.06666667,0,0,0.06666667,414.4,137.33333)"
       y2="40.00005"
       x2="264"
       y1="280.00003"
       x1="264"
       gradientUnits="userSpaceOnUse"
       id="linearGradient4097"
       xlink:href="#outerBackgroundGradient"
       inkscape:collect="always" />
    <linearGradient
       y2="28.571428"
       x2="286.85715"
       y1="302.85715"
       x1="286.85715"
       gradientTransform="matrix(0.0875,0,0,0.0875,414.9,97.5)"
       gradientUnits="userSpaceOnUse"
       id="linearGradient4101"
       xlink:href="#outerBackgroundGradient"
       inkscape:collect="always" />
    <linearGradient
       y2="31.61907"
       x2="283.80957"
       y1="299.80954"
       x1="283.80957"
       gradientTransform="matrix(0.11931818,0,0,0.11931818,414.13636,48.22727)"
       gradientUnits="userSpaceOnUse"
       id="linearGradient4153"
       xlink:href="#outerBackgroundGradient"
       inkscape:collect="always" />
    <linearGradient
       y2="22.857315"
       x2="281.14291"
       y1="297.14304"
       x1="281.14291"
       gradientTransform="matrix(0.175,0,0,-0.175,286.79999,-215.99997)"
       gradientUnits="userSpaceOnUse"
       id="linearGradient4869"
       xlink:href="#outerBackgroundGradient"
       inkscape:collect="always" />
    <clipPath
       id="clipPath4891"
       clipPathUnits="userSpaceOnUse">
      <rect
         transform="matrix(0,1,-1,0,0,0)"
         style="color:#bebebe;display:inline;overflow:visible;visibility:visible;fill:url(#linearGradient4895);fill-opacity:1;fill-rule:nonzero;stroke:none;stroke-width:0;marker:none;enable-background:accumulate"
         id="rect4893"
         width="42"
         height="42"
         x="307"
         y="223"
         ry="9" />
    </clipPath>
    <linearGradient
       y2="40.000172"
       x2="144.00006"
       y1="280.00018"
       x1="144.00006"
       gradientTransform="matrix(0.175,0,0,0.175,302.79999,215.99997)"
       gradientUnits="userSpaceOnUse"
       id="linearGradient4895"
       xlink:href="#outerBackgroundGradient"
       inkscape:collect="always" />
    <clipPath
       id="clipPath4044"
       clipPathUnits="userSpaceOnUse">
      <rect
         style="color:#bebebe;display:inline;overflow:visible;visibility:visible;fill:url(#linearGradient4048);fill-opacity:1;fill-rule:nonzero;stroke:none;stroke-width:0;marker:none;enable-background:accumulate"
         id="rect4046"
         width="22"
         height="22"
         x="433"
         y="85"
         ry="4" />
    </clipPath>
    <linearGradient
       y2="40.000046"
       x2="149.71428"
       y1="291.42862"
       x1="149.71428"
       gradientTransform="matrix(0.0875,0,0,0.0875,430.9,81.499996)"
       gradientUnits="userSpaceOnUse"
       id="linearGradient4048"
       xlink:href="#outerBackgroundGradient"
       inkscape:collect="always" />
    <clipPath
       id="clipPath4089"
       clipPathUnits="userSpaceOnUse">
      <rect
         ry="6"
         y="37"
         x="433"
         height="30"
         width="30"
         id="rect4091"
         style="color:#bebebe;display:inline;overflow:visible;visibility:visible;fill:url(#linearGradient4093);fill-opacity:1;fill-rule:nonzero;stroke:none;stroke-width:0;marker:none;enable-background:accumulate" />
    </clipPath>
    <linearGradient
       y2="40.00005"
       x2="149.71432"
       y1="291.42862"
       x1="149.71432"
       gradientTransform="matrix(0.11931818,0,0,0.11931818,430.13636,32.227267)"
       gradientUnits="userSpaceOnUse"
       id="linearGradient4093"
       xlink:href="#outerBackgroundGradient"
       inkscape:collect="always" />
    <clipPath
       id="clipPath3855"
       clipPathUnits="userSpaceOnUse">
      <rect
         transform="matrix(0,1,-1,0,0,0)"
         ry="3"
         y="212"
         x="304"
         height="16"
         width="16"
         id="rect3857"
         style="color:#bebebe;display:inline;overflow:visible;visibility:visible;fill:url(#linearGradient3859);fill-opacity:1;fill-rule:nonzero;stroke:none;stroke-width:0;marker:none;enable-background:accumulate" />
    </clipPath>
    <linearGradient
       y2="40.00005"
       x2="144"
       y1="280.00003"
       x1="144"
       gradientTransform="matrix(0.06666667,0,0,0.06666667,302.4,209.33333)"
       gradientUnits="userSpaceOnUse"
       id="linearGradient3859"
       xlink:href="#outerBackgroundGradient"
       inkscape:collect="always" />
    <clipPath
       id="clipPath3862"
       clipPathUnits="userSpaceOnUse">
      <rect
         style="color:#bebebe;display:inline;overflow:visible;visibility:visible;fill:url(#linearGradient3866);fill-opacity:1;fill-rule:nonzero;stroke:none;stroke-width:0;marker:none;enable-background:accumulate"
         id="rect3864"
         width="220"
         height="220"
         x="34"
         y="46"
         ry="50" />
    </clipPath>
    <linearGradient
       y2="40"
       x2="144"
       y1="280"
       x1="144"
       gradientTransform="translate(0,-4)"
       gradientUnits="userSpaceOnUse"
       id="linearGradient3866"
       xlink:href="#outerBackgroundGradient"
       inkscape:collect="always" />
    <linearGradient
       y2="32"
       x2="272"
       y1="288"
       x1="272"
       gradientTransform="translate(0,-4)"
       gradientUnits="userSpaceOnUse"
       id="linearGradient3876"
       xlink:href="#outerBackgroundGradient"
       inkscape:collect="always" />
    <clipPath
       id="clipPath4187"
       clipPathUnits="userSpaceOnUse">
      <rect
         style="color:#bebebe;display:inline;overflow:visible;visibility:visible;fill:url(#linearGradient4191);fill-opacity:1;fill-rule:nonzero;stroke:none;stroke-width:0;marker:none;enable-background:accumulate"
         id="rect4189"
         width="60"
         height="60"
         x="290"
         y="142"
         ry="12.5" />
    </clipPath>
    <linearGradient
       y2="140"
       x2="352"
       y1="204"
       x1="352"
       gradientUnits="userSpaceOnUse"
       id="linearGradient4191"
       xlink:href="#outerBackgroundGradient"
       inkscape:collect="always" />
    <linearGradient
       y2="28"
       x2="384"
       y1="124"
       x1="384"
       gradientUnits="userSpaceOnUse"
       id="linearGradient4197"
       xlink:href="#outerBackgroundGradient"
       inkscape:collect="always" />
    <clipPath
       id="clipPath4346"
       clipPathUnits="userSpaceOnUse">
      <rect
         ry="18"
         y="32"
         x="292"
         height="88"
         width="88"
         id="rect4348"
         style="color:#bebebe;display:inline;overflow:visible;visibility:visible;fill:url(#linearGradient4197);fill-opacity:1;fill-rule:nonzero;stroke:none;stroke-width:0;marker:none;enable-background:accumulate" />
    </clipPath>
    <clipPath
       id="clipPath3871"
       clipPathUnits="userSpaceOnUse">
      <rect
         style="color:#bebebe;display:inline;overflow:visible;visibility:visible;fill:url(#linearGradient4101);fill-opacity:1;fill-rule:nonzero;stroke:none;stroke-width:0;marker:none;enable-background:accumulate"
         id="rect3873"
         width="22"
         height="22"
         x="417"
         y="101"
         ry="5" />
    </clipPath>
    <clipPath
       id="clipPath3881"
       clipPathUnits="userSpaceOnUse">
      <rect
         ry="7"
         y="53"
         x="417"
         height="30"
         width="30"
         id="rect3883"
         style="color:#bebebe;display:inline;overflow:visible;visibility:visible;fill:url(#linearGradient4153);fill-opacity:1;fill-rule:nonzero;stroke:none;stroke-width:0;marker:none;enable-background:accumulate" />
    </clipPath>
    <linearGradient
       gradientTransform="matrix(0,-1,1,0,316,540)"
       gradientUnits="userSpaceOnUse"
       y2="112"
       x2="438"
       y1="112"
       x1="418"
       id="linearGradient4258"
       xlink:href="#outerBackgroundGradient"
       inkscape:collect="always" />
    <linearGradient
       y2="40.000008"
       x2="144"
       y1="280"
       x1="144"
       gradientTransform="matrix(0.375,0,0,0.375,14,172)"
       gradientUnits="userSpaceOnUse"
       id="linearGradient4865"
       xlink:href="#outerBackgroundGradient-1"
       inkscape:collect="always" />
    <linearGradient
       id="outerBackgroundGradient-1">
      <stop
         id="stop3864-8-6-2"
         offset="0"
         style="stop-color:#989898;stop-opacity:1;" />
      <stop
         id="stop3866-9-1-5"
         offset="1"
         style="stop-color:#c3c3c3;stop-opacity:1;" />
    </linearGradient>
    <clipPath
       id="clipPath4610"
       clipPathUnits="userSpaceOnUse">
      <path
         inkscape:connector-curvature="0"
         style="color:#bebebe;display:inline;overflow:visible;visibility:visible;fill:url(#linearGradient4614);fill-opacity:1;fill-rule:nonzero;stroke:none;stroke-width:2;marker:none;enable-background:accumulate"
         d="m 75.448164,-5.3337819 c 12.658277,0 22.841991,10.1837123 22.841991,22.8419899 l 0,55.374522 c 0,12.658279 -10.183714,22.841991 -22.841991,22.841991 l -55.374521,0 c -12.6582793,0 -22.8419907,-10.183712 -22.8419907,-22.841991 l 0,-55.374522 c 0,-12.6582776 10.1837114,-22.8419899 22.8419907,-22.8419899 l 55.374521,0 z"
         id="path4612" />
    </clipPath>
    <linearGradient
       y2="156"
       x2="253"
       y1="156"
       x1="35"
       gradientTransform="matrix(0,-0.46145435,-0.46145435,0,119.74778,111.6449)"
       gradientUnits="userSpaceOnUse"
       id="linearGradient4614"
       xlink:href="#outerBackgroundGradient"
       inkscape:collect="always" />
    <linearGradient
       y2="8.0928917"
       x2="38.976662"
       y1="59.967686"
       x1="38.976662"
       gradientTransform="matrix(0.80392158,0,0,0.80392158,-1.72549,-2.3658945)"
       gradientUnits="userSpaceOnUse"
       id="linearGradient3024"
       xlink:href="#linearGradient4215-4"
       inkscape:collect="always" />
    <linearGradient
       inkscape:collect="always"
       xlink:href="#linearGradient4215-4"
       id="linearGradient3849"
       gradientUnits="userSpaceOnUse"
       gradientTransform="matrix(0.80392158,0,0,0.80392158,664.41073,262.76717)"
       x1="38.976662"
       y1="59.967686"
       x2="38.976662"
       y2="8.0928917" />
    <clipPath
       id="clipPath4806"
       clipPathUnits="userSpaceOnUse">
      <path
         inkscape:connector-curvature="0"
         style="color:#bebebe;display:inline;overflow:visible;visibility:visible;fill:#bf5454;fill-opacity:1;fill-rule:nonzero;stroke:none;stroke-width:2;marker:none;enable-background:accumulate"
         d="m 543.90196,-171.40732 c -27.43127,0 -49.5,22.06873 -49.5,49.5 l 0,120 c 0,27.43127 22.06873,49.5 49.5,49.5 l 120,0 c 27.43127,0 49.5,-22.06873 49.5,-49.5 l 0,-120 c 0,-27.43127 -22.06873,-49.5 -49.5,-49.5 l -120,0 z"
         id="path4808" />
    </clipPath>
    <clipPath
       id="clipPath4812"
       clipPathUnits="userSpaceOnUse">
      <path
         inkscape:connector-curvature="0"
         style="color:#bebebe;display:inline;overflow:visible;visibility:visible;fill:#bf5454;fill-opacity:1;fill-rule:nonzero;stroke:none;stroke-width:2;marker:none;enable-background:accumulate"
         d="m 547.65198,-156.00108 c -22.10302,0 -39.84375,17.74073 -39.84375,39.84375 l 0,112.5000018 c 0,22.1030162 17.74073,39.8437502 39.84375,39.8437502 l 112.5,0 c 22.10302,0 39.84375,-17.740734 39.84375,-39.8437502 l 0,-112.5000018 c 0,-22.10302 -17.74073,-39.84375 -39.84375,-39.84375 l -112.5,0 z"
         id="path4814" />
    </clipPath>
    <clipPath
       id="clipPath4840"
       clipPathUnits="userSpaceOnUse">
      <path
         inkscape:connector-curvature="0"
         style="color:#bebebe;display:inline;overflow:visible;visibility:visible;fill:#bf5454;fill-opacity:1;fill-rule:nonzero;stroke:none;stroke-width:2;marker:none;enable-background:accumulate"
         d="m 538.90196,-168.65732 c -24.25637,0 -43.75,19.49363 -43.75,43.75 l 0,130.0000025 c 0,24.2563755 19.49363,43.7500005 43.75,43.7500005 l 130,0 c 24.25637,0 43.75,-19.493625 43.75,-43.7500005 l 0,-130.0000025 c 0,-24.25637 -19.49363,-43.75 -43.75,-43.75 l -130,0 z"
         id="path4842" />
    </clipPath>
    <clipPath
       id="clipPath4888"
       clipPathUnits="userSpaceOnUse">
      <path
         inkscape:connector-curvature="0"
         style="color:#bebebe;display:inline;overflow:visible;visibility:visible;fill:#bf5454;fill-opacity:1;fill-rule:nonzero;stroke:none;stroke-width:2;marker:none;enable-background:accumulate"
         d="m 541.402,-166.15737 c -17.305,0 -31.25,13.945 -31.25,31.25 l 0,124.999995 c 0,17.305 13.945,31.25 31.25,31.25 l 125,0 c 17.305,0 31.25,-13.945 31.25,-31.25 l 0,-124.999995 c 0,-17.305 -13.945,-31.25 -31.25,-31.25 l -125,0 z"
         id="path4890" />
    </clipPath>
    <clipPath
       id="clipPath4894"
       clipPathUnits="userSpaceOnUse">
      <path
         inkscape:connector-curvature="0"
         style="color:#bebebe;display:inline;overflow:visible;visibility:visible;fill:#bf5454;fill-opacity:1;fill-rule:nonzero;stroke:none;stroke-width:2;marker:none;enable-background:accumulate"
         d="m 543.902,-164.9073 c -24.9699,0 -45,20.0301 -45,45 l 0,120 c 0,24.9699 20.0301,45 45,45 l 120,0 c 24.9699,0 45,-20.0301 45,-45 l 0,-120 c 0,-24.9699 -20.0301,-45 -45,-45 l -120,0 z"
         id="path4896" />
    </clipPath>
    <clipPath
       id="clipPath4900"
       clipPathUnits="userSpaceOnUse">
      <path
         inkscape:connector-curvature="0"
         style="color:#bebebe;display:inline;overflow:visible;visibility:visible;fill:#bf5454;fill-opacity:1;fill-rule:nonzero;stroke:none;stroke-width:2;marker:none;enable-background:accumulate"
         d="m 543.90196,-164.90732 c -27.04905,0 -48.75,21.70098 -48.75,48.75 l 0,120.0000051 c 0,27.0490209 21.70095,48.7500009 48.75,48.7500009 l 120.00001,0 c 27.04905,0 48.75,-21.70098 48.75,-48.7500009 l 0,-120.0000051 c 0,-27.04902 -21.70095,-48.75 -48.75,-48.75 l -120.00001,0 z"
         id="path4902" />
    </clipPath>
    <clipPath
       id="clipPath4906"
       clipPathUnits="userSpaceOnUse">
      <path
         inkscape:connector-curvature="0"
         style="color:#bebebe;display:inline;overflow:visible;visibility:visible;fill:#bf5454;fill-opacity:1;fill-rule:nonzero;stroke:none;stroke-width:2;marker:none;enable-background:accumulate"
         d="m 537.05819,-167.62264 c -24.95632,0 -45,20.04368 -45,45 l 0,131.2500024 c 0,24.9563246 20.04368,44.9999996 45,44.9999996 l 131.25,0 c 24.95633,0 45,-20.043675 45,-44.9999996 l 0,-131.2500024 c 0,-24.95632 -20.04367,-45 -45,-45 l -131.25,0 z"
         id="path4908" />
    </clipPath>
    <linearGradient
       x1="45"
       y1="24"
       x2="45"
       y2="76"
       id="linearGradient3146"
       xlink:href="#linearGradient4281-6"
       gradientUnits="userSpaceOnUse"
       gradientTransform="matrix(2.0844849,0,0,2.0844849,-7.8160044,11.194023)" />
    <linearGradient
       id="linearGradient4281-6">
      <stop
         id="stop4283-9-3"
         style="stop-color:#1e1e1e;stop-opacity:1"
         offset="0" />
      <stop
         id="stop4285-8-0"
         style="stop-color:#505050;stop-opacity:1"
         offset="1" />
    </linearGradient>
    <clipPath
       id="clipPath4110">
      <path
         d="m 50,19 c -9.726128,-0.132021 -19.109741,6.056796 -22.90625,15 -3.979384,8.850182 -2.152838,19.920532 4.53125,26.96875 1.281262,1.387198 2.722378,2.621691 4.28125,3.6875 0.08882,-1.817147 -0.197676,-3.686742 0.15625,-5.46875 0.656484,-1.161773 2.158536,-1.184701 0.375,-2.25 -5.762671,-5.843571 -6.891108,-15.618269 -2.53125,-22.59375 4.061674,-7.006285 12.966668,-10.646131 20.78125,-8.5 8.227191,1.977457 14.397158,10.100226 14.0625,18.5625 -0.09505,5.13445 -2.431331,10.16269 -6.28125,13.5625 1.525079,0.286683 1.764814,1.969453 1.625,3.25 l 0,3.4375 C 71.755786,59.535945 76.096622,49.948036 74.8125,40.8125 73.683314,30.989775 66.097834,22.350732 56.53125,19.875 54.400202,19.297672 52.207631,18.999338 50,19 Z m -0.1875,9.375 c -1.956327,-0.05862 -3.24076,1.944156 -2.9375,3.75 0.03923,4.21599 -0.0766,8.446623 0.0625,12.65625 0.315681,1.83468 2.277034,2.569412 3.9375,2.34375 3.566877,-0.04013 7.12719,0.08236 10.6875,-0.0625 2.635743,-0.393414 3.406401,-4.287567 1.125,-5.65625 -1.595432,-0.917738 -3.525888,-0.391599 -5.28125,-0.53125 l -4.28125,0 C 53.08702,37.492266 53.1999,34.095149 53.0625,30.71875 52.783093,29.231948 51.295937,28.216436 49.8125,28.375 Z M 46,52 l 0,8 -8,0 0,8 8,0 0,8 8,0 0,-8 8,0 0,-8 -8,0 0,-8 -8,0 z"
         inkscape:connector-curvature="0"
         id="path4112"
         style="color:#000000;display:inline;overflow:visible;visibility:visible;opacity:0.8;fill:#ff00ff;fill-opacity:1;fill-rule:nonzero;stroke:none;stroke-width:2;marker:none;enable-background:accumulate" />
    </clipPath>
    <filter
       style="color-interpolation-filters:sRGB"
       id="filter4104">
      <feGaussianBlur
         id="feGaussianBlur4106"
         stdDeviation="0.80272282" />
    </filter>
    <linearGradient
       x1="48"
       y1="24"
       x2="48"
       y2="72"
       id="linearGradient3954"
       xlink:href="#linearGradient4281-6"
       gradientUnits="userSpaceOnUse"
       gradientTransform="matrix(2.0416667,0,0,2.0416667,-138.57052,45.68254)" />
    <clipPath
       id="clipPath3969">
      <path
         d="m 36,24 c -2.216,0 -4,1.784 -4,4 l 0,44 16,-16 16,16 0,-44 c 0,-2.216 -1.784,-4 -4,-4 z m 12,5.75 3.666666,7.333334 L 59.75,38.25 53.916666,44 55.333334,52.083334 48,48.25 40.75,52.083334 42.166666,44 36.25,38.25 44.333334,37.083334 Z"
         inkscape:connector-curvature="0"
         id="path3971"
         style="color:#000000;display:inline;overflow:visible;visibility:visible;fill:#ff00ff;fill-opacity:1;fill-rule:nonzero;stroke:none;stroke-width:0.80000001;marker:none;enable-background:accumulate" />
    </clipPath>
    <filter
       style="color-interpolation-filters:sRGB"
       id="filter3973">
      <feGaussianBlur
         id="feGaussianBlur3975"
         stdDeviation="0.6" />
    </filter>
    <linearGradient
       x1="23.134918"
       y1="9.7419071"
       x2="23.134918"
       y2="20.237455"
       id="linearGradient3939"
       xlink:href="#linearGradient4281-6"
       gradientUnits="userSpaceOnUse"
       gradientTransform="matrix(7.4906892,0,0,8.7833351,-95.794684,-42.543252)" />
    <clipPath
       id="clipPath3954">
      <path
         d="m 40,22 0,4 16,0 0,-4 z m 0,8 0,6 16,0 0,-6 z M 40,40 40,50 30,50 47.855412,70 66,50 56,50 56,40 Z"
         inkscape:connector-curvature="0"
         id="path3956-7"
         style="display:inline;fill:#ff00ff;fill-opacity:1;stroke:none" />
    </clipPath>
    <filter
       style="color-interpolation-filters:sRGB"
       id="filter3958">
      <feGaussianBlur
         id="feGaussianBlur3960"
         stdDeviation="0.63" />
    </filter>
  </defs>
  <metadata
     id="metadata4253">
    <rdf:RDF>
      <cc:Work
         rdf:about="">
        <dc:format>image/svg+xml</dc:format>
        <dc:type
           rdf:resource="http://purl.org/dc/dcmitype/StillImage" />
        <dc:title></dc:title>
      </cc:Work>
    </rdf:RDF>
  </metadata>
  <path
     d="m 27.000005,28.519251 a 11.000002,3.4800434 0 1 1 -22.000003,0 11.000002,3.4800434 0 1 1 22.000003,0 z"
     id="path3818-0-2"
     style="fill:url(#radialGradient3315);fill-opacity:1;stroke:none"
     inkscape:connector-curvature="0" />
  <path
     d="M 16.000003,1.6737757 C 7.9994037,1.6737757 1.5,8.1361142 1.5,16.091096 c 0,7.954984 6.4994037,14.417328 14.500003,14.417326 8.000599,0 14.500008,-6.462342 14.500001,-14.417326 0,-7.9549818 -6.499402,-14.4173203 -14.500001,-14.4173203 z"
     id="path2555"
     style="color:#000000;display:inline;overflow:visible;visibility:visible;fill:url(#linearGradient3163-1);fill-opacity:1;fill-rule:nonzero;stroke:none;stroke-width:0.71428573;stroke-linecap:round;stroke-linejoin:round;stroke-miterlimit:4;stroke-dasharray:none;stroke-dashoffset:0;stroke-opacity:1;marker:none;enable-background:accumulate"
     inkscape:connector-curvature="0" />
  <path
     d="m 16.000003,1.6737743 c -8.0006013,0 -14.5000031,6.4623398 -14.5000031,14.4173227 0,7.954982 6.4994018,14.417327 14.5000031,14.417325 8.000596,0 14.500006,-6.462343 14.499998,-14.417325 0,-7.9549829 -6.499402,-14.4173227 -14.499998,-14.4173227 z"
     id="path2555-6"
     style="color:#000000;display:inline;overflow:visible;visibility:visible;opacity:0.5;fill:#000000;fill-opacity:0;fill-rule:nonzero;stroke:#000000;stroke-width:0.99999994;stroke-linecap:round;stroke-linejoin:round;stroke-miterlimit:4;stroke-dasharray:none;stroke-dashoffset:0;stroke-opacity:1;marker:none;enable-background:accumulate"
     inkscape:connector-curvature="0" />
  <path
     d="m 16.000002,2.1703514 c -2.172578,0 -4.23659,0.4942589 -6.0724998,1.3746173 L 15.177503,14.611504 6.0075015,6.3290014 C 3.5245263,8.8416919 2.000001,12.294575 2.000001,16.090522 c 0,1.003685 0.1114511,1.979483 0.3150001,2.923237 L 16.140002,15.464115 15.912501,15.272713 24.837503,5.3023888 C 22.426696,3.3480794 19.348783,2.1703514 16.000002,2.1703514 Z m 13.492502,10.1965256 -13.755002,3.271241 0.0525,0.0348 -11.9525011,7.308091 c 2.4123634,4.198339 6.9571011,7.029689 12.1625001,7.029687 0.394522,0 0.786186,-0.02028 1.172501,-0.0522 -0.503219,-5.732422 -1.242756,-14.006694 -1.26,-14.19858 l 11.112501,8.891511 c 1.859911,-2.36314 2.975001,-5.331634 2.975,-8.560908 0,-1.288446 -0.177101,-2.538964 -0.507501,-3.723647 z"
     inkscape:connector-curvature="0"
     id="path4004"
     style="fill:#000000;fill-opacity:0.04255317;stroke:none" />
  <path
     d="m 16.000002,2.1703514 c -1.683974,0 -3.298785,0.3092787 -4.795,0.8526103 L 15.177503,14.611504 4.9750016,7.5122166 C 3.1100492,9.8770604 2.000001,12.856408 2.000001,16.090522 c 0,0.666151 0.04874,1.324887 0.1400002,1.966226 L 16.140002,15.464115 15.912501,15.272713 23.700003,4.4845802 C 21.488825,3.0306401 18.84602,2.1703514 16.000002,2.1703514 Z m 13.737501,11.2579376 -14.000001,2.209829 0.0525,0.0348 -11.0075035,8.734909 c 2.5544398,3.394948 6.6309495,5.602869 11.2175005,5.602867 0.111801,0 0.221321,0.0026 0.332501,0 C 16.16573,24.230335 15.929673,15.950998 15.912501,15.75992 l 11.620002,8.195502 c 1.5494,-2.240022 2.467502,-4.944283 2.4675,-7.864898 0,-0.911316 -0.09388,-1.79951 -0.2625,-2.662233 z"
     inkscape:connector-curvature="0"
     id="path4004-0"
     style="fill:#000000;fill-opacity:0.04787233;stroke:none" />
  <path
     d="m 16.000002,2.1703514 c -1.270692,0 -2.50423,0.1708926 -3.675001,0.4872057 L 15.860002,15.429315 22.457503,3.753771 C 20.523789,2.7502578 18.329812,2.1703514 16.000002,2.1703514 Z M 4.0825013,8.7824322 C 2.7624192,10.906012 2.000001,13.413756 2.000001,16.090522 c 0,0.32197 0.0133,0.640462 0.035,0.957013 L 15.930003,15.516315 4.0825013,8.7824315 Z m 25.8300017,5.7246708 -13.965001,0.83521 12.057501,7.917098 c 1.267118,-2.093143 1.995003,-4.550808 1.995001,-7.168889 0,-0.533953 -0.02846,-1.065007 -0.0875,-1.583419 z m -13.895001,0.939612 -9.9050003,10.50973 c 2.4400787,2.417634 5.7817053,3.927882 9.4675003,4.036851 l 0.4375,-14.546581 z"
     inkscape:connector-curvature="0"
     id="path3893-7"
     style="fill:#000000;fill-opacity:0.05851063;stroke:none" />
  <path
     d="m 16.000002,2.1703514 c -0.767243,0 -1.523583,0.055598 -2.2575,0.1740023 l 2.1175,13.0849613 5.215,-12.3019515 C 19.500169,2.5165143 17.790743,2.1703514 16.000002,2.1703514 Z M 3.4350013,9.9482471 C 2.5488272,11.736317 2.0342711,13.746379 2.000001,15.86432 L 15.930002,15.516315 3.4350013,9.9482471 Z m 12.5125007,5.3940679 12.530002,7.064487 c 0.973101,-1.895448 1.522501,-4.044512 1.5225,-6.31628 0,-0.193214 -0.0096,-0.382892 -0.0175,-0.574207 l -14.035,-0.174 z m 0.07,0.1044 -8.1025006,11.988749 c 1.9694432,1.391644 4.3030466,2.30077 6.8425006,2.523032 l 1.26,-14.511781 z"
     inkscape:connector-curvature="0"
     id="path3893-7-5"
     style="fill:#000000;fill-opacity:0.06382979;stroke:none" />
  <path
     d="m 16.000002,2.1703514 c -0.353097,0 -0.703421,0.00919 -1.05,0.034801 l 0.91,13.2241644 3.535,-12.8413585 C 18.30796,2.3181881 17.170373,2.1703533 16.000002,2.1703533 Z M 2.8925012,11.218463 c -0.413077,1.097079 -0.7004281,2.254922 -0.8225001,3.462643 L 15.930002,15.516315 2.8925012,11.218461 Z m 13.0550008,4.123852 12.967501,6.124875 c 0.619893,-1.467303 0.990476,-3.061866 1.0675,-4.732858 L 15.947502,15.342315 Z m 0.07,0.1044 -6.1075006,13.171963 c 1.2087846,0.582177 2.5137276,1.002034 3.8850006,1.218017 l 2.2225,-14.38998 z"
     inkscape:connector-curvature="0"
     id="path3893"
     style="fill:#000000;fill-opacity:0.10106381;stroke:none" />
  <path
     d="M 16.087503,2.1703514 15.860002,15.429315 17.977502,2.3095538 C 17.360811,2.2227989 16.72713,2.1742871 16.087503,2.1703514 Z M 2.5600012,12.192874 c -0.157904,0.538624 -0.2930701,1.089684 -0.3850001,1.653021 l 13.7550009,1.67042 z m 13.3875008,3.149441 13.335,5.115663 c 0.253984,-0.76334 0.459429,-1.551256 0.577502,-2.36643 z m 0.07,0.1044 -5.180001,13.57217 c 0.313751,0.124604 0.638129,0.245637 0.962501,0.348004 0.286966,0.08974 0.580431,0.172099 0.874999,0.243603 0.07599,0.01859 0.151035,0.03488 0.2275,0.0522 z"
     inkscape:connector-curvature="0"
     id="path3893-9"
     style="fill:#000000;fill-opacity:0.0851064;stroke:none" />
  <path
     d="m 29.500002,16.090622 c 0,7.413571 -6.044601,13.423501 -13.49983,13.423501 -7.4559125,0 -13.5001721,-6.009998 -13.5001721,-13.423501 0,-7.4132294 6.0442596,-13.4225479 13.5001721,-13.4225479 7.455229,0 13.49983,6.0093185 13.49983,13.4225479 l 0,0 z"
     id="path8655"
     style="color:#000000;display:inline;overflow:visible;visibility:visible;opacity:0.8;fill:none;stroke:url(#linearGradient3089);stroke-width:0.99999994;stroke-linecap:round;stroke-linejoin:round;stroke-miterlimit:4;stroke-dasharray:none;stroke-dashoffset:0;stroke-opacity:1;marker:none;enable-background:accumulate"
     inkscape:connector-curvature="0" />
  <g
     inkscape:groupmode="layer"
     id="layer1"
     inkscape:label="Layer 1" />
  <g
     transform="matrix(0.32768366,0,0,0.33060797,0.27462246,1.5650015)"
     id="layer6-3"
     style="opacity:0.85">
    <path
       d="m 40,22 0,4 16,0 0,-4 z m 0,8 0,6 16,0 0,-6 z M 40,40 40,50 30,50 47.855412,70 66,50 56,50 56,40 Z"
       inkscape:connector-curvature="0"
       id="path3162"
       style="display:inline;opacity:0.8;fill:url(#linearGradient3939);fill-opacity:1;stroke:none" />
    <path
       d="m 40,26 0,1 16,0 0,-1 -16,0 z m 0,10 0,1 16,0 0,-1 -16,0 z M 30,51 47.84375,71 66,51 65.09375,51 47.84375,70 30.90625,51 30,51 Z"
       inkscape:connector-curvature="0"
       id="path3941"
       style="display:inline;opacity:0.6;fill:#ffffff;fill-opacity:1;stroke:none" />
    <path
       d="m 40,23 0,4 16,0 0,-4 z m 0,8 0,6 16,0 0,-6 z M 40,41 40,51 30,51 47.855412,71 66,51 56,51 56,41 Z"
       inkscape:connector-curvature="0"
       clip-path="url(#clipPath3954)"
       id="path3950"
       style="display:inline;opacity:0.4;fill:none;stroke:#000000;stroke-width:6.07639456;stroke-miterlimit:4;stroke-dasharray:none;filter:url(#filter3958)" />
  </g>
</svg>
