<?xml version="1.0" encoding="UTF-8" standalone="no"?>
<!-- Created with Inkscape (http://www.inkscape.org/) -->

<svg
   xmlns:dc="http://purl.org/dc/elements/1.1/"
   xmlns:cc="http://creativecommons.org/ns#"
   xmlns:rdf="http://www.w3.org/1999/02/22-rdf-syntax-ns#"
   xmlns:svg="http://www.w3.org/2000/svg"
   xmlns="http://www.w3.org/2000/svg"
   xmlns:xlink="http://www.w3.org/1999/xlink"
   xmlns:sodipodi="http://sodipodi.sourceforge.net/DTD/sodipodi-0.dtd"
   xmlns:inkscape="http://www.inkscape.org/namespaces/inkscape"
   width="64"
   height="64"
   id="svg2"
   version="1.1"
   inkscape:version="0.91 r"
   sodipodi:docname="fantasy.svg">
  <defs
     id="defs4">
    <linearGradient
       inkscape:collect="always"
       id="linearGradient5129">
      <stop
         style="stop-color:#8fc01c;stop-opacity:1;"
         offset="0"
         id="stop5131" />
      <stop
         style="stop-color:#b5c01c;stop-opacity:0.663"
         offset="1"
         id="stop5133" />
    </linearGradient>
    <linearGradient
       inkscape:collect="always"
       id="linearGradient4243">
      <stop
         style="stop-color:#bc8b3c;stop-opacity:1"
         offset="0"
         id="stop4245" />
      <stop
         style="stop-color:#ac7c3e;stop-opacity:1"
         offset="1"
         id="stop4247" />
    </linearGradient>
    <linearGradient
       id="linearGradient5423-1">
      <stop
         id="stop4237"
         offset="0"
         style="stop-color:#51b9db;stop-opacity:1;" />
      <stop
         id="stop4239"
         offset="1"
         style="stop-color:#2fabd4;stop-opacity:1;" />
    </linearGradient>
    <inkscape:perspective
       sodipodi:type="inkscape:persp3d"
       inkscape:vp_x="13.534465 : 111.04854 : 1"
       inkscape:vp_y="0 : 1000 : 0"
       inkscape:vp_z="213.53447 : 111.04854 : 1"
       inkscape:persp3d-origin="113.53447 : 77.71521 : 1"
       id="perspective3135" />
    <linearGradient
       id="linearGradient4829">
      <stop
         style="stop-color:#f4fbfc;stop-opacity:1;"
         offset="0"
         id="stop4831" />
      <stop
         style="stop-color:#d6d6d6;stop-opacity:1;"
         offset="1"
         id="stop4833" />
    </linearGradient>
    <clipPath
       clipPathUnits="userSpaceOnUse"
       id="clipPath4282">
      <rect
         style="color:#000000;display:inline;overflow:visible;visibility:visible;fill:#4d4d4d;fill-opacity:1;fill-rule:nonzero;stroke:none;stroke-width:9.13434315;marker:none;enable-background:accumulate"
         id="rect4284"
         width="246.875"
         height="234.375"
         x="462.5"
         y="1646.1122"
         ry="17"
         rx="17" />
    </clipPath>
    <linearGradient
       inkscape:collect="always"
       xlink:href="#linearGradient5423"
       id="linearGradient5429"
       x1="408.66196"
       y1="44.604382"
       x2="408.66196"
       y2="562.04968"
       gradientUnits="userSpaceOnUse" />
    <linearGradient
       id="linearGradient5423">
      <stop
         style="stop-color:#db8451;stop-opacity:1;"
         offset="0"
         id="stop5425" />
      <stop
         style="stop-color:#c85c29;stop-opacity:1;"
         offset="1"
         id="stop5427" />
    </linearGradient>
    <linearGradient
       inkscape:collect="always"
       xlink:href="#linearGradient3986"
       id="linearGradient3992"
       x1="78.5625"
       y1="993.6615"
       x2="120.28125"
       y2="993.6615"
       gradientUnits="userSpaceOnUse" />
    <linearGradient
       inkscape:collect="always"
       id="linearGradient3986">
      <stop
         style="stop-color:#000000;stop-opacity:1;"
         offset="0"
         id="stop3988" />
      <stop
         style="stop-color:#000000;stop-opacity:0;"
         offset="1"
         id="stop3990" />
    </linearGradient>
    <linearGradient
       inkscape:collect="always"
       xlink:href="#linearGradient5423-1"
       id="linearGradient5473-2"
       x1="99.036476"
       y1="-0.50471628"
       x2="99.036476"
       y2="199.83986"
       gradientUnits="userSpaceOnUse" />
    <linearGradient
       id="linearGradient4241">
      <stop
         style="stop-color:#51b9db;stop-opacity:1;"
         offset="0"
         id="stop5425-2" />
      <stop
         style="stop-color:#2fabd4;stop-opacity:1;"
         offset="1"
         id="stop5427-3" />
    </linearGradient>
    <linearGradient
       y2="199.83986"
       x2="99.036476"
       y1="-0.50471628"
       x1="99.036476"
       gradientUnits="userSpaceOnUse"
       id="linearGradient4119"
       xlink:href="#linearGradient5423-1"
       inkscape:collect="always" />
    <clipPath
       clipPathUnits="userSpaceOnUse"
       id="clipPath3378">
      <rect
         style="color:#000000;display:inline;overflow:visible;visibility:visible;opacity:0.41206031;fill:#ffffff;fill-opacity:1;fill-rule:nonzero;stroke:none;stroke-width:4.81500006;stroke-linecap:round;stroke-linejoin:miter;stroke-miterlimit:4;stroke-dasharray:none;stroke-dashoffset:0;stroke-opacity:1;marker:none;enable-background:accumulate"
         id="rect3380"
         width="144.18349"
         height="148.32669"
         x="-247.76358"
         y="1432.9845" />
    </clipPath>
    <clipPath
       clipPathUnits="userSpaceOnUse"
       id="clipPath4277">
      <path
         inkscape:connector-curvature="0"
         style="color:#000000;display:inline;overflow:visible;visibility:visible;opacity:1;fill:url(#linearGradient4281);fill-opacity:1;fill-rule:nonzero;stroke:none;stroke-width:4.81500006;stroke-linecap:round;stroke-linejoin:miter;stroke-miterlimit:4;stroke-dasharray:none;stroke-dashoffset:0;stroke-opacity:1;marker:none;enable-background:accumulate"
         d="m -229.07617,1455.911 0,105.7891 c 0,0.8891 0.71244,2.5644 1.45703,2.5644 0.0895,-0.8374 -0.48376,-1.5811 0.62695,-2.5644 l 46.27539,0 2.5586,0 23.04687,0 c 4.86914,0 8.78906,-3.92 8.78906,-8.7891 l 0,-88.2109 c 0,-4.8691 -3.91992,-8.7891 -8.78906,-8.7891 l -23.04687,0 -2.5586,0 -48.35937,0 z"
         id="path4279" />
    </clipPath>
    <linearGradient
       inkscape:collect="always"
       xlink:href="#linearGradient4243"
       id="linearGradient4281"
       gradientUnits="userSpaceOnUse"
       gradientTransform="translate(0,852.36218)"
       x1="-187.35687"
       y1="603.80872"
       x2="-187.35687"
       y2="709.1676" />
    <linearGradient
       inkscape:collect="always"
       xlink:href="#linearGradient4243"
       id="linearGradient4315"
       gradientUnits="userSpaceOnUse"
       gradientTransform="translate(0,852.36218)"
       x1="-187.35687"
       y1="603.80872"
       x2="-187.35687"
       y2="709.1676" />
    <clipPath
       clipPathUnits="userSpaceOnUse"
       id="clipPath4328">
      <path
         inkscape:connector-curvature="0"
         style="color:#000000;display:inline;overflow:visible;visibility:visible;opacity:1;fill:url(#linearGradient4332);fill-opacity:1;fill-rule:nonzero;stroke:none;stroke-width:4.81500006;stroke-linecap:round;stroke-linejoin:miter;stroke-miterlimit:4;stroke-dasharray:none;stroke-dashoffset:0;stroke-opacity:1;marker:none;enable-background:accumulate"
         d="m -229.07617,1455.911 0,105.7891 c 0,0.8891 0.71244,2.5644 1.45703,2.5644 0.0895,-0.8374 -0.48376,-1.5811 0.62695,-2.5644 l 46.27539,0 2.5586,0 23.04687,0 c 4.86914,0 8.78906,-3.92 8.78906,-8.7891 l 0,-88.2109 c 0,-4.8691 -3.91992,-8.7891 -8.78906,-8.7891 l -23.04687,0 -2.5586,0 -48.35937,0 z"
         id="path4330" />
    </clipPath>
    <linearGradient
       inkscape:collect="always"
       xlink:href="#linearGradient4243"
       id="linearGradient4332"
       gradientUnits="userSpaceOnUse"
       gradientTransform="translate(0,852.36218)"
       x1="-187.35687"
       y1="603.80872"
       x2="-187.35687"
       y2="709.1676" />
    <clipPath
       clipPathUnits="userSpaceOnUse"
       id="clipPath4311-0">
      <path
         inkscape:connector-curvature="0"
         style="color:#000000;display:inline;overflow:visible;visibility:visible;opacity:1;fill:url(#linearGradient4315);fill-opacity:1;fill-rule:nonzero;stroke:none;stroke-width:4.81500006;stroke-linecap:round;stroke-linejoin:miter;stroke-miterlimit:4;stroke-dasharray:none;stroke-dashoffset:0;stroke-opacity:1;marker:none;enable-background:accumulate"
         d="m -229.07617,1455.911 0,105.7891 c 0,0.8891 0.71244,2.5644 1.45703,2.5644 0.0895,-0.8374 -0.48376,-1.5811 0.62695,-2.5644 l 46.27539,0 2.5586,0 23.04687,0 c 4.86914,0 8.78906,-3.92 8.78906,-8.7891 l 0,-88.2109 c 0,-4.8691 -3.91992,-8.7891 -8.78906,-8.7891 l -23.04687,0 -2.5586,0 -48.35937,0 z"
         id="path4313-7" />
    </clipPath>
    <clipPath
       clipPathUnits="userSpaceOnUse"
       id="clipPath4328-9">
      <path
         inkscape:connector-curvature="0"
         style="color:#000000;display:inline;overflow:visible;visibility:visible;opacity:1;fill:url(#linearGradient4332);fill-opacity:1;fill-rule:nonzero;stroke:none;stroke-width:4.81500006;stroke-linecap:round;stroke-linejoin:miter;stroke-miterlimit:4;stroke-dasharray:none;stroke-dashoffset:0;stroke-opacity:1;marker:none;enable-background:accumulate"
         d="m -229.07617,1455.911 0,105.7891 c 0,0.8891 0.71244,2.5644 1.45703,2.5644 0.0895,-0.8374 -0.48376,-1.5811 0.62695,-2.5644 l 46.27539,0 2.5586,0 23.04687,0 c 4.86914,0 8.78906,-3.92 8.78906,-8.7891 l 0,-88.2109 c 0,-4.8691 -3.91992,-8.7891 -8.78906,-8.7891 l -23.04687,0 -2.5586,0 -48.35937,0 z"
         id="path4330-6" />
    </clipPath>
    <clipPath
       clipPathUnits="userSpaceOnUse"
       id="clipPath4328-4">
      <path
         inkscape:connector-curvature="0"
         style="color:#000000;display:inline;overflow:visible;visibility:visible;opacity:1;fill:url(#linearGradient4332);fill-opacity:1;fill-rule:nonzero;stroke:none;stroke-width:4.81500006;stroke-linecap:round;stroke-linejoin:miter;stroke-miterlimit:4;stroke-dasharray:none;stroke-dashoffset:0;stroke-opacity:1;marker:none;enable-background:accumulate"
         d="m -229.07617,1455.911 0,105.7891 c 0,0.8891 0.71244,2.5644 1.45703,2.5644 0.0895,-0.8374 -0.48376,-1.5811 0.62695,-2.5644 l 46.27539,0 2.5586,0 23.04687,0 c 4.86914,0 8.78906,-3.92 8.78906,-8.7891 l 0,-88.2109 c 0,-4.8691 -3.91992,-8.7891 -8.78906,-8.7891 l -23.04687,0 -2.5586,0 -48.35937,0 z"
         id="path4330-0" />
    </clipPath>
    <clipPath
       clipPathUnits="userSpaceOnUse"
       id="clipPath4898">
      <path
         id="path4900"
         d="m -229.07617,1455.911 0,105.7891 c 0,0.8891 0.71244,2.5644 1.45703,2.5644 0.0895,-0.8374 -0.48376,-1.5811 0.62695,-2.5644 l 46.27539,0 2.5586,0 23.04687,0 c 4.86914,0 8.78906,-3.92 8.78906,-8.7891 l 0,-88.2109 c 0,-4.8691 -3.91992,-8.7891 -8.78906,-8.7891 l -23.04687,0 -2.5586,0 -48.35937,0 z"
         style="color:#000000;display:inline;overflow:visible;visibility:visible;opacity:1;fill:url(#linearGradient4902);fill-opacity:1;fill-rule:nonzero;stroke:none;stroke-width:4.81500006;stroke-linecap:round;stroke-linejoin:miter;stroke-miterlimit:4;stroke-dasharray:none;stroke-dashoffset:0;stroke-opacity:1;marker:none;enable-background:accumulate"
         inkscape:connector-curvature="0" />
    </clipPath>
    <linearGradient
       inkscape:collect="always"
       xlink:href="#linearGradient4243"
       id="linearGradient4902"
       gradientUnits="userSpaceOnUse"
       gradientTransform="translate(0,852.36218)"
       x1="-187.35687"
       y1="603.80872"
       x2="-187.35687"
       y2="709.1676" />
    <clipPath
       clipPathUnits="userSpaceOnUse"
       id="clipPath4928">
      <path
         inkscape:connector-curvature="0"
         style="color:#000000;display:inline;overflow:visible;visibility:visible;opacity:1;fill:url(#linearGradient4932);fill-opacity:1;fill-rule:nonzero;stroke:none;stroke-width:4.81500006;stroke-linecap:round;stroke-linejoin:miter;stroke-miterlimit:4;stroke-dasharray:none;stroke-dashoffset:0;stroke-opacity:1;marker:none;enable-background:accumulate"
         d="m -229.07617,1455.911 0,105.7891 c 0,0.8891 0.71244,2.5644 1.45703,2.5644 0.0895,-0.8374 -0.48376,-1.5811 0.62695,-2.5644 l 46.27539,0 2.5586,0 23.04687,0 c 4.86914,0 8.78906,-3.92 8.78906,-8.7891 l 0,-88.2109 c 0,-4.8691 -3.91992,-8.7891 -8.78906,-8.7891 l -23.04687,0 -2.5586,0 -48.35937,0 z"
         id="path4930" />
    </clipPath>
    <linearGradient
       inkscape:collect="always"
       xlink:href="#linearGradient4243"
       id="linearGradient4932"
       gradientUnits="userSpaceOnUse"
       gradientTransform="translate(0,852.36218)"
       x1="-187.35687"
       y1="603.80872"
       x2="-187.35687"
       y2="709.1676" />
    <filter
       inkscape:collect="always"
       style="color-interpolation-filters:sRGB"
       id="filter5054"
       x="-0.54150337"
       width="2.0830069"
       y="-0.0031575463"
       height="1.0063151">
      <feGaussianBlur
         inkscape:collect="always"
         stdDeviation="0.13959926"
         id="feGaussianBlur5056" />
    </filter>
    <clipPath
       clipPathUnits="userSpaceOnUse"
       id="clipPath5092">
      <path
         inkscape:connector-curvature="0"
         style="color:#000000;display:inline;overflow:visible;visibility:visible;opacity:1;fill:url(#linearGradient5096);fill-opacity:1;fill-rule:nonzero;stroke:none;stroke-width:4.81500006;stroke-linecap:round;stroke-linejoin:miter;stroke-miterlimit:4;stroke-dasharray:none;stroke-dashoffset:0;stroke-opacity:1;marker:none;enable-background:accumulate"
         d="m -229.07617,1455.911 0,105.7891 c 0,0.8891 0.71244,2.5644 1.45703,2.5644 0.0895,-0.8374 -0.48376,-1.5811 0.62695,-2.5644 l 46.27539,0 2.5586,0 23.04687,0 c 4.86914,0 8.78906,-3.92 8.78906,-8.7891 l 0,-88.2109 c 0,-4.8691 -3.91992,-8.7891 -8.78906,-8.7891 l -23.04687,0 -2.5586,0 -48.35937,0 z"
         id="path5094" />
    </clipPath>
    <linearGradient
       inkscape:collect="always"
       xlink:href="#linearGradient4243"
       id="linearGradient5096"
       gradientUnits="userSpaceOnUse"
       gradientTransform="translate(0,852.36218)"
       x1="-187.35687"
       y1="603.80872"
       x2="-187.35687"
       y2="709.1676" />
    <clipPath
       clipPathUnits="userSpaceOnUse"
       id="clipPath5122">
      <path
         inkscape:connector-curvature="0"
         style="color:#000000;display:inline;overflow:visible;visibility:visible;opacity:1;fill:url(#linearGradient5126);fill-opacity:1;fill-rule:nonzero;stroke:none;stroke-width:4.81500006;stroke-linecap:round;stroke-linejoin:miter;stroke-miterlimit:4;stroke-dasharray:none;stroke-dashoffset:0;stroke-opacity:1;marker:none;enable-background:accumulate"
         d="m -229.07617,1455.911 0,105.7891 c 0,0.8891 0.71244,2.5644 1.45703,2.5644 0.0895,-0.8374 -0.48376,-1.5811 0.62695,-2.5644 l 46.27539,0 2.5586,0 23.04687,0 c 4.86914,0 8.78906,-3.92 8.78906,-8.7891 l 0,-88.2109 c 0,-4.8691 -3.91992,-8.7891 -8.78906,-8.7891 l -23.04687,0 -2.5586,0 -48.35937,0 z"
         id="path5124" />
    </clipPath>
    <linearGradient
       inkscape:collect="always"
       xlink:href="#linearGradient4243"
       id="linearGradient5126"
       gradientUnits="userSpaceOnUse"
       gradientTransform="translate(0,852.36218)"
       x1="-187.35687"
       y1="603.80872"
       x2="-187.35687"
       y2="709.1676" />
    <clipPath
       clipPathUnits="userSpaceOnUse"
       id="clipPath5315">
      <rect
         rx="2.8672121"
         ry="2.783535"
         y="1487.7891"
         x="-149.37343"
         height="24.124268"
         width="8.7005014"
         id="rect5317"
         style="color:#000000;display:inline;overflow:visible;visibility:visible;opacity:1;fill:#15bfe3;fill-opacity:1;fill-rule:nonzero;stroke:none;stroke-width:0.10575029;stroke-linecap:round;stroke-linejoin:miter;stroke-miterlimit:4;stroke-dasharray:none;stroke-dashoffset:0;stroke-opacity:1;marker:none;enable-background:accumulate" />
    </clipPath>
    <clipPath
       clipPathUnits="userSpaceOnUse"
       id="clipPath5334">
      <rect
         rx="2.8672121"
         ry="2.783535"
         y="1509.0391"
         x="-149.37343"
         height="24.124268"
         width="8.7005014"
         id="rect5336"
         style="color:#000000;display:inline;overflow:visible;visibility:visible;opacity:1;fill:#05d562;fill-opacity:1;fill-rule:nonzero;stroke:none;stroke-width:0.10575029;stroke-linecap:round;stroke-linejoin:miter;stroke-miterlimit:4;stroke-dasharray:none;stroke-dashoffset:0;stroke-opacity:1;marker:none;enable-background:accumulate" />
    </clipPath>
    <clipPath
       clipPathUnits="userSpaceOnUse"
       id="clipPath5359">
      <rect
         rx="2.8672121"
         ry="2.783535"
         y="1530.1641"
         x="-149.37343"
         height="24.124268"
         width="8.7005014"
         id="rect5361"
         style="color:#000000;display:inline;overflow:visible;visibility:visible;opacity:1;fill:#dd9201;fill-opacity:1;fill-rule:nonzero;stroke:none;stroke-width:0.10575029;stroke-linecap:round;stroke-linejoin:miter;stroke-miterlimit:4;stroke-dasharray:none;stroke-dashoffset:0;stroke-opacity:1;marker:none;enable-background:accumulate" />
    </clipPath>
    <linearGradient
       inkscape:collect="always"
       xlink:href="#linearGradient5129"
       id="linearGradient5135"
       x1="-227.7115"
       y1="1569.8639"
       x2="-233.03149"
       y2="1537.631"
       gradientUnits="userSpaceOnUse" />
    <filter
       inkscape:collect="always"
       id="filter3914">
      <feGaussianBlur
         inkscape:collect="always"
         stdDeviation="1.4989652"
         id="feGaussianBlur3916" />
    </filter>
    <linearGradient
       gradientTransform="translate(0,31.99999)"
       inkscape:collect="always"
       xlink:href="#linearGradient3122"
       id="linearGradient3128"
       x1="69.163048"
       y1="1023.16"
       x2="69.163048"
       y2="981.07184"
       gradientUnits="userSpaceOnUse" />
    <linearGradient
       inkscape:collect="always"
       id="linearGradient3122">
      <stop
         style="stop-color:#f3ece1;stop-opacity:1"
         offset="0"
         id="stop3124" />
      <stop
         style="stop-color:#f7f7f7;stop-opacity:1"
         offset="1"
         id="stop3126" />
    </linearGradient>
  </defs>
  <sodipodi:namedview
     id="base"
     pagecolor="#ffffff"
     bordercolor="#666666"
     borderopacity="1.0"
     inkscape:pageopacity="0.0"
     inkscape:pageshadow="2"
     inkscape:zoom="4"
     inkscape:cx="-43"
     inkscape:cy="42.182969"
     inkscape:document-units="px"
     inkscape:current-layer="layer2"
     showgrid="false"
     inkscape:window-width="1487"
     inkscape:window-height="851"
     inkscape:window-x="559"
     inkscape:window-y="362"
     inkscape:window-maximized="0"
     inkscape:snap-from-guide="true"
     showguides="false"
     inkscape:guide-bbox="true">
    <sodipodi:guide
       position="200,0"
       orientation="-200,0"
       id="guide3766" />
    <sodipodi:guide
       position="0,200"
       orientation="200,0"
       id="guide3127" />
    <sodipodi:guide
       position="0,-2.6171874e-06"
       orientation="0,100"
       id="guide3129" />
    <sodipodi:guide
       position="100,-2.6171874e-06"
       orientation="-200,0"
       id="guide3131" />
    <sodipodi:guide
       position="100,200"
       orientation="0,-100"
       id="guide3133" />
  </sodipodi:namedview>
  <metadata
     id="metadata7">
    <rdf:RDF>
      <cc:Work
         rdf:about="">
        <dc:format>image/svg+xml</dc:format>
        <dc:type
           rdf:resource="http://purl.org/dc/dcmitype/StillImage" />
        <dc:title></dc:title>
      </cc:Work>
    </rdf:RDF>
  </metadata>
  <g
     inkscape:label="Layer 1"
     inkscape:groupmode="layer"
     id="layer1"
     transform="translate(0,-988.36218)">
    <g
       id="g5744"
       transform="matrix(1.5977439,0,0,1.5977439,400.32465,-1462.8783)">
      <g
         id="g5587">
        <path
           sodipodi:nodetypes="ccsc"
           inkscape:connector-curvature="0"
           id="path4210"
           d="m -241.62255,1573.7561 1.1242,0.054 22.42285,-3.3311 c 1.86508,-0.2766 2.82621,-1.553 2.53662,-4.3115 l -26.41383,6.58 c 0,0 0.12933,0.8336 0.23684,0.9098 0.10745,0.075 0.0937,0.099 0.0937,0.099 z"
           style="fill:#001800;fill-opacity:1;fill-rule:evenodd;stroke:none;stroke-width:1px;stroke-linecap:butt;stroke-linejoin:miter;stroke-opacity:1" />
        <path
           style="fill:#004400;fill-opacity:1;fill-rule:evenodd;stroke:none;stroke-width:1px;stroke-linecap:butt;stroke-linejoin:miter;stroke-opacity:1"
           d="m -241.72269,1572.2522 c -0.24387,0.7981 -0.092,1.175 0.42919,1.0973 l 22.50507,-3.3433 c 1.39179,-0.2063 2.03357,-0.7817 2.13866,-1.6974 0.10515,-0.9165 -5.34515,0.043 -5.34515,0.043 -6.60278,1.1018 -13.11318,2.9378 -19.72777,3.9055 z"
           id="path4215"
           inkscape:connector-curvature="0"
           sodipodi:nodetypes="cssccc" />
        <path
           style="color:#000000;display:inline;overflow:visible;visibility:visible;opacity:1;fill:url(#linearGradient5135);fill-opacity:1;fill-rule:nonzero;stroke:none;stroke-width:4.81500006;stroke-linecap:round;stroke-linejoin:miter;stroke-miterlimit:4;stroke-dasharray:none;stroke-dashoffset:0;stroke-opacity:1;marker:none;enable-background:accumulate"
           d="m -247.36414,1538.3367 5.13619,34.4383 c 0.0435,0.2889 0.35735,0.8003 0.6007,0.7648 -0.0112,-0.2772 -0.23482,-0.4916 0.0806,-0.8656 l 15.12433,-2.2381 0.83625,-0.1229 7.5324,-1.1151 c 1.59146,-0.2354 2.68229,-1.7011 2.4459,-3.2863 l -4.28275,-28.7167 c -0.23634,-1.5847 -1.70784,-2.6719 -3.29926,-2.4352 l -7.5325,1.1133 -0.83622,0.1244 -15.80545,2.3391 z"
           id="rect3384"
           inkscape:connector-curvature="0" />
        <rect
           style="color:#000000;display:inline;overflow:visible;visibility:visible;opacity:0.169;fill:#5c3566;fill-opacity:1;fill-rule:nonzero;stroke:none;stroke-width:4.81500006;stroke-linecap:round;stroke-linejoin:miter;stroke-miterlimit:4;stroke-dasharray:none;stroke-dashoffset:0;stroke-opacity:1;marker:none;enable-background:accumulate"
           id="rect5098"
           width="4.875"
           height="105.85494"
           x="-228.65625"
           y="1455.4247"
           clip-path="url(#clipPath5122)"
           transform="matrix(0.32747426,-0.0486463,0.04864633,0.32747375,-243.17238,1050.4324)" />
        <path
           style="opacity:0.07999998;fill:#ffffff;fill-opacity:1;fill-rule:evenodd;stroke:none;stroke-width:1px;stroke-linecap:butt;stroke-linejoin:miter;stroke-opacity:1"
           d="m -223.26897,1457.004 c 0,0 64.78866,0 67.26354,0 2.47487,0 9.63433,1.0607 9.63433,9.6344 0,8.5736 3.88908,-11.137 3.88908,-11.137 l -23.86485,-2.74 -57.09887,2.2981 z"
           id="path5068"
           inkscape:connector-curvature="0"
           clip-path="url(#clipPath5092)"
           transform="matrix(0.32747426,-0.0486463,0.04864633,0.32747375,-243.17238,1050.4324)" />
        <path
           style="fill:#002000;fill-opacity:1;fill-rule:evenodd;stroke:none;stroke-width:1px;stroke-linecap:butt;stroke-linejoin:miter;stroke-opacity:1"
           d="m -226.625,1566.7372 c -3.3125,-1.8125 -3.3125,-3.875 -1.75,-5.75 0.94431,-1.1332 15.8125,-1.125 21.75,-1.125 l 51.375,0 c 2.3125,0 4.04471,-0.9181 8.625,-3.5625 4.58029,-2.6445 6.125,10.125 6.125,10.125 l -25.67009,3.3629 z"
           id="path4251"
           inkscape:connector-curvature="0"
           sodipodi:nodetypes="cssscccc"
           clip-path="url(#clipPath4277)"
           transform="matrix(0.32747426,-0.0486463,0.04864633,0.32747375,-243.17238,1050.4324)" />
        <rect
           style="color:#000000;display:inline;overflow:visible;visibility:visible;opacity:1;fill:#003000;fill-opacity:1;fill-rule:nonzero;stroke:none;stroke-width:4.81500006;stroke-linecap:round;stroke-linejoin:miter;stroke-miterlimit:4;stroke-dasharray:none;stroke-dashoffset:0;stroke-opacity:1;marker:none;enable-background:accumulate"
           id="rect4283"
           width="3.7123108"
           height="109.02703"
           x="-231.22392"
           y="1454.5292"
           clip-path="url(#clipPath4898)"
           transform="matrix(0.32747426,-0.0486463,0.04864633,0.32747375,-243.17238,1050.4324)" />
        <rect
           style="color:#000000;display:inline;overflow:visible;visibility:visible;opacity:1;fill:#002c00;fill-opacity:1;fill-rule:nonzero;stroke:none;stroke-width:4.81500006;stroke-linecap:round;stroke-linejoin:miter;stroke-miterlimit:4;stroke-dasharray:none;stroke-dashoffset:0;stroke-opacity:1;marker:none;enable-background:accumulate"
           id="rect4285"
           width="2.3705583"
           height="106.06612"
           x="-224.92862"
           y="1455.4336"
           clip-path="url(#clipPath4328)"
           transform="matrix(0.32747426,-0.0486463,0.04864633,0.32747375,-243.17238,1050.4324)" />
        <rect
           style="color:#000000;display:inline;overflow:visible;visibility:visible;opacity:0.47900008;fill:#002000;fill-opacity:1;fill-rule:nonzero;stroke:none;stroke-width:4.81500006;stroke-linecap:round;stroke-linejoin:miter;stroke-miterlimit:4;stroke-dasharray:none;stroke-dashoffset:0;stroke-opacity:1;marker:none;filter:url(#filter5054);enable-background:accumulate"
           id="rect4283-0"
           width="0.61871862"
           height="106.10715"
           x="-228.13033"
           y="1454.5292"
           clip-path="url(#clipPath4928)"
           transform="matrix(0.32747426,-0.0486463,0.04864633,0.32747375,-243.17238,1050.4324)" />
        <path
           transform="matrix(0.24853809,-0.04276622,0.04276622,0.24853808,-240.41994,1547.8634)"
           style="opacity:0.2;fill:#000000;fill-opacity:1;stroke:none;filter:url(#filter3914)"
           d="m 34.60625,4.9820318 c -0.34241,0.0265 -0.68402,0.13007 -1,0.3125 l -1.75,1 c -1.1235,0.64865 -1.4924,2.064 -0.84375,3.1875 L 46.2,35.794662 51.7625,32.075862 36.79375,6.1695318 c -0.40541,-0.70219 -1.09447,-1.13512 -1.84375,-1.1875 -0.11239,-0.008 -0.22961,-0.009 -0.34375,0 z m -5.375,8.9687502 c -0.74928,0.0524 -1.46959,0.45406 -1.875,1.15625 l -1.53125,2.625 5.78125,3.3438 1.53125,-2.625 c 0.64865,-1.12355 0.27975,-2.5389 -0.84375,-3.18755 l -1.71875,-1 c -0.42131,-0.24325 -0.89418,-0.34393 -1.34375,-0.3125 z m -4.375,5.50005 -13.09375,22.71883 5.78125,3.3125 13.09375,-22.68763 z m -19.1249997,10.18753 0,6.6875 7.7503747,0 3.84375,-6.6875 z m 22.6251247,0 -3.84375,6.6875 20.343375,0 -3.875,-6.6875 z m 23.655625,0 3.875,6.6875 7.15675,0 0,-6.6875 z m 0.7505,4.1563 -5.5625,3.7187 2.78125,4.8125 5.5625,-3.7187 z m 3.78125,6.5625 -5.5625,3.7187 c 0.16572,6.649 5.24343,5.8211 7.1875,9.9688 3.70178,-3.9409 2.58244,-10.0009 -1.625,-13.6875 z m -45.78125,3.5312 -3.0312497,10.8438 8.8124997,-7.5 z"
           id="path3130"
           inkscape:connector-curvature="0"
           sodipodi:nodetypes="cccccccccccccccccccccccccccccccccccccccccccccccccc" />
      </g>
    </g>
    <g
       inkscape:groupmode="layer"
       id="layer2"
       inkscape:label="Layer 2">
      <path
         style="fill:url(#linearGradient3128);fill-opacity:1;stroke:none"
         d="m 30.42651,1009.4527 c -0.12063,0.037 -0.2345,0.099 -0.33743,0.1772 l -0.56605,0.4577 c -0.36228,0.3002 -0.41079,0.8252 -0.1128,1.1887 l 6.97238,8.4948 1.76639,-1.6531 -6.87067,-8.364 c -0.18687,-0.2293 -0.45761,-0.3405 -0.72836,-0.3165 -0.0436,-0.016 -0.0834,0 -0.12367,0.021 z m -1.3894,3.5179 c -0.26254,0.073 -0.49819,0.246 -0.60126,0.5216 l -0.39167,1.0274 2.26055,0.8522 0.39175,-1.0269 c 0.16518,-0.4397 -0.0499,-0.9233 -0.48924,-1.088 l -0.67211,-0.2541 c -0.16711,-0.075 -0.34051,-0.077 -0.5007,-0.048 z m -1.23705,2.2213 -3.33331,8.8803 2.25852,0.8398 3.33544,-8.8674 z m -6.22483,4.765 0.39417,2.3851 2.76612,-0.4571 0.97781,-2.6119 z m 8.07518,-1.3345 -0.97778,2.6117 7.26076,-1.1999 -1.7772,-2.1565 z m 8.44281,-1.3953 1.77723,2.1565 2.55432,-0.4221 -0.39417,-2.3851 z m 0.51264,1.4364 -1.76561,1.658 1.27623,1.5515 1.76629,-1.6533 z m 1.737,2.1216 -1.76623,1.6537 c 0.45231,2.3615 2.21499,1.7698 3.15366,3.1361 1.08807,-1.6288 0.33117,-3.7253 -1.38743,-4.7898 z m -16.13212,3.9573 -0.44196,4.051 2.70272,-3.1981 z"
         id="rect3081"
         inkscape:connector-curvature="0"
         sodipodi:nodetypes="cccccccccccccccccccccccccccccccccccccccccccccccccc" />
    </g>
  </g>
</svg>
