<?xml version="1.0" encoding="UTF-8" standalone="no"?>
<!-- Created with Inkscape (http://www.inkscape.org/) -->

<svg
   xmlns:dc="http://purl.org/dc/elements/1.1/"
   xmlns:cc="http://creativecommons.org/ns#"
   xmlns:rdf="http://www.w3.org/1999/02/22-rdf-syntax-ns#"
   xmlns:svg="http://www.w3.org/2000/svg"
   xmlns="http://www.w3.org/2000/svg"
   xmlns:xlink="http://www.w3.org/1999/xlink"
   xmlns:sodipodi="http://sodipodi.sourceforge.net/DTD/sodipodi-0.dtd"
   xmlns:inkscape="http://www.inkscape.org/namespaces/inkscape"
   version="1.1"
   width="128"
   height="128"
   id="svg3021"
   inkscape:version="0.91 r"
   sodipodi:docname="avatar-default1.svg">
  <sodipodi:namedview
     pagecolor="#ffffff"
     bordercolor="#666666"
     borderopacity="1"
     objecttolerance="10"
     gridtolerance="10"
     guidetolerance="10"
     inkscape:pageopacity="0"
     inkscape:pageshadow="2"
     inkscape:window-width="2560"
     inkscape:window-height="1547"
     id="namedview14"
     showgrid="false"
     inkscape:zoom="1.84375"
     inkscape:cx="-12.745763"
     inkscape:cy="64"
     inkscape:window-x="0"
     inkscape:window-y="28"
     inkscape:window-maximized="1"
     inkscape:current-layer="svg3021" />
  <defs
     id="defs3023">
    <linearGradient
       x1="30.271185"
       y1="10.028973"
       x2="30.271185"
       y2="55.052982"
       id="linearGradient3913-9-0"
       xlink:href="#linearGradient27416-1-2-0-1"
       gradientUnits="userSpaceOnUse"
       gradientTransform="matrix(2.0808079,0,0,2.3409091,131.76376,-72.733808)" />
    <linearGradient
       id="linearGradient27416-1-2-0-1">
      <stop
         id="stop27420-2-0-8-7"
         style="stop-color:#55c1ec;stop-opacity:1"
         offset="0" />
      <stop
         id="stop27422-3-5-3-3"
         style="stop-color:#3689e6;stop-opacity:1"
         offset="1" />
    </linearGradient>
    <clipPath
       id="clipPath3969">
      <path
         d="m 112,6 c -3.324,0 -6,2.676 -6,6 l 0,68 c 0,3.324 2.676,6 6,6 l 72,0 c 3.324,0 6,-2.676 6,-6 l 0,-68 c 0,-3.324 -2.676,-6 -6,-6 l -72,0 z m 36,12 c 7.92199,0 14.34376,6.062377 14.34375,13.53125 -0.0316,0.938654 -0.1119,1.96423 -0.1875,3.0625 1.08238,0.820671 1.21824,3.284897 0.15625,5.8125 -0.38331,0.9123 -0.88699,1.640144 -1.40625,2.28125 -0.16795,0.79293 -0.28375,1.420323 -0.5,2.34375 -0.58841,1.783113 -2.89786,5.322548 -4.65625,8.0625 -0.11333,1.822252 -0.0664,3.618647 0.15625,5.46875 5.49854,4.829865 19.82105,7.460042 19.84375,11.59375 L 176,72 l -56,0 0.25,-1.84375 c -0.0213,-4.829854 14.2457,-6.928354 19.8125,-11.59375 0.38805,-2.285373 0.38037,-4.272095 0.1875,-6.28125 -1.93403,-2.604458 -4.12476,-5.639327 -4.65625,-7.25 -0.17157,-0.793238 -0.29564,-1.328018 -0.4375,-2.03125 -0.02,-0.022 -0.0427,-0.03992 -0.0625,-0.0625 -0.59432,-0.675399 -1.19378,-1.504913 -1.625,-2.53125 -1.1183,-2.66163 -0.94121,-5.324875 0.3125,-6 -0.0881,-1.064655 -0.1058,-2.019055 -0.125,-2.875 C 133.65625,24.062375 140.07801,18 148,18 Z"
         inkscape:connector-curvature="0"
         id="path3971"
         style="fill:#ff00ff;fill-opacity:1;fill-rule:nonzero;stroke:none" />
    </clipPath>
    <filter
       style="color-interpolation-filters:sRGB"
       x="-0.23571429"
       y="-0.24444444"
       width="1.4714286"
       height="1.4888889"
       id="filter3965">
      <feGaussianBlur
         id="feGaussianBlur3967"
         stdDeviation="5.5" />
    </filter>
    <linearGradient
       x1="56"
       y1="16"
       x2="56"
       y2="80"
       id="linearGradient3875"
       xlink:href="#StandardGradient-3"
       gradientUnits="userSpaceOnUse"
       gradientTransform="matrix(0.74254652,0,0,0.76357825,307.1587,-5.0548075)" />
    <linearGradient
       x1="11.998966"
       y1="0.92195445"
       x2="11.998966"
       y2="19.387045"
       id="StandardGradient-3"
       gradientUnits="userSpaceOnUse"
       gradientTransform="scale(0.9219544,1.0846523)">
      <stop
         id="stop3283-5"
         style="stop-color:#000000;stop-opacity:0.86274511"
         offset="0" />
      <stop
         id="stop2651-2"
         style="stop-color:#000000;stop-opacity:0.47058824"
         offset="1" />
    </linearGradient>
  </defs>
  <metadata
     id="metadata3026">
    <rdf:RDF>
      <cc:Work
         rdf:about="">
        <dc:format>image/svg+xml</dc:format>
        <dc:type
           rdf:resource="http://purl.org/dc/dcmitype/StillImage" />
        <dc:title></dc:title>
      </cc:Work>
    </rdf:RDF>
  </metadata>
  <g
     transform="translate(0,64)"
     id="layer1"
     style="fill:#eeeeee">
    <path
       d="m 83.508522,63.092915 a 62.947891,38.903938 0 1 1 -125.895782,0 62.947891,38.903938 0 1 1 125.895782,0 z"
       transform="matrix(1.016714,0,0,1.6450777,43.095719,-103.79275)"
       id="path3029"
       style="color:#000000;fill:#eeeeee;fill-opacity:1;fill-rule:nonzero;stroke:#000000;stroke-width:1.15984151;marker:none;visibility:visible;display:inline;overflow:visible;enable-background:accumulate;stroke-miterlimit:4;stroke-dasharray:none;stroke-opacity:0.26923081;stroke-linecap:round;opacity:1;stroke-linejoin:round" />
  </g>
  <g
     transform="matrix(1.5285831,0,0,1.5148342,-475.99955,7.0951907)"
     id="g4168">
    <path
       d="m 148,18 c -7.92199,0 -14.33871,6.069478 -14.33871,13.538353 0.0192,0.855945 0.0248,1.811766 0.1129,2.876421 -1.25371,0.675125 -1.41937,3.321324 -0.30107,5.982954 0.43122,1.026337 1.02396,1.855851 1.61828,2.53125 0.0198,0.02258 0.0553,0.0547 0.0753,0.0767 0.14186,0.703232 0.24241,1.239432 0.41398,2.03267 0.53149,1.610673 2.73263,4.644122 4.66666,7.24858 0.19287,2.009155 0.19988,4.004399 -0.18817,6.289772 -5.5668,4.665396 -19.81704,6.752532 -19.7957,11.582386 L 120,72 l 56,0 -0.26344,-1.840909 c -0.0227,-4.133708 -14.33479,-6.752522 -19.83333,-11.582387 -0.22263,-1.850103 -0.26387,-3.662122 -0.15054,-5.484374 1.75839,-2.739952 4.07826,-6.270865 4.66667,-8.053978 0.21625,-0.923427 0.32129,-1.546558 0.48924,-2.339488 0.51926,-0.641106 1.00917,-1.388836 1.39248,-2.301136 1.06199,-2.527603 0.93184,-4.970522 -0.15054,-5.791193 0.0756,-1.09827 0.15655,-2.129528 0.18817,-3.068182 C 162.33872,24.06948 155.92199,18 148,18 Z"
       inkscape:connector-curvature="0"
       transform="translate(205.49153,-7.3220338)"
       clip-path="url(#clipPath3969)"
       id="path3958"
       style="display:inline;fill:#ffffff;fill-opacity:1;stroke:none;filter:url(#filter3965);enable-background:new" />
    <path
       d="m 353.49153,10.677966 c -7.922,0 -14.33871,6.069478 -14.33871,13.538353 0.0192,0.855945 0.0248,1.811766 0.1129,2.876421 -1.25372,0.675125 -1.41937,3.321324 -0.30108,5.982954 0.43123,1.026337 1.02396,1.855851 1.61828,2.53125 0.0198,0.02258 0.0553,0.0547 0.0753,0.0767 0.14187,0.703232 0.24242,1.239432 0.41398,2.03267 0.5315,1.610673 2.73264,4.644122 4.66667,7.24858 0.19287,2.009155 0.19988,4.004399 -0.18817,6.289772 -5.5668,4.665396 -19.81704,6.752532 -19.7957,11.582386 l -0.26344,1.840914 56,0 -0.26344,-1.840909 c -0.0227,-4.133708 -14.33479,-6.752522 -19.83334,-11.582387 -0.22262,-1.850103 -0.26386,-3.662122 -0.15053,-5.484374 1.75839,-2.739952 4.07826,-6.270865 4.66666,-8.053978 0.21626,-0.923427 0.3213,-1.546558 0.48925,-2.339488 0.51925,-0.641106 1.00917,-1.388836 1.39247,-2.301136 1.062,-2.527603 0.93184,-4.970522 -0.15053,-5.791193 0.0756,-1.09827 0.15655,-2.129528 0.18817,-3.068182 1e-5,-7.468873 -6.41672,-13.538353 -14.33871,-13.538353 z"
       inkscape:connector-curvature="0"
       id="path3798"
       style="display:inline;fill:url(#linearGradient3875);fill-opacity:1;stroke:none;enable-background:new" />
    <path
       d="m 353.49153,10.677966 c -7.922,0 -14.34375,6.062375 -14.34375,13.53125 0.0192,0.855945 0.0369,1.810345 0.125,2.875 -1.25372,0.675125 -1.4308,3.33837 -0.3125,6 0.43122,1.026337 1.03067,1.855851 1.625,2.53125 0.0198,0.02258 0.0426,0.0405 0.0625,0.0625 0.14186,0.703232 0.26593,1.238012 0.4375,2.03125 0.53149,1.610673 2.72221,4.645542 4.65625,7.25 0.19287,2.009155 0.20055,3.995877 -0.1875,6.28125 -5.5668,4.665396 -19.83384,6.763896 -19.8125,11.59375 l -0.25,1.84375 56,0 -0.25,-1.84375 c -0.0227,-4.133708 -14.34521,-6.763885 -19.84375,-11.59375 -0.22263,-1.850103 -0.26958,-3.646498 -0.15625,-5.46875 1.75839,-2.739952 4.06785,-6.279387 4.65625,-8.0625 0.21625,-0.923427 0.33205,-1.55082 0.5,-2.34375 0.51925,-0.641106 1.02294,-1.36895 1.40625,-2.28125 1.06199,-2.527603 0.92613,-4.991829 -0.15625,-5.8125 0.0756,-1.09827 0.15588,-2.123846 0.1875,-3.0625 10e-6,-7.468873 -6.42176,-13.53125 -14.34375,-13.53125 z m 0,2.875 c 6.44738,0 11.45062,4.813909 11.46875,10.625 -3.2e-4,0.0089 3.3e-4,0.02228 0,0.03125 -0.0305,0.828575 -0.11314,1.79516 -0.1875,2.875 a 2.8677534,2.8677534 0 0 0 0.8125,2.15625 2.8677534,2.8677534 0 0 0 0,0.03125 c 0.008,0.01889 0.0851,0.131046 0.0937,0.375 0.0186,0.52635 -0.14608,1.395757 -0.53125,2.3125 -0.24679,0.587382 -0.54675,1.072719 -0.96875,1.59375 a 2.8677534,2.8677534 0 0 0 -0.59375,1.21875 c -0.15665,0.739587 -0.24304,1.31132 -0.40625,2.03125 -0.003,0.01282 -0.0283,0.01831 -0.0312,0.03125 -0.13286,0.386157 -0.77023,1.690859 -1.59375,3.0625 -0.83359,1.388407 -1.83449,2.934626 -2.71875,4.3125 a 2.8677534,2.8677534 0 0 0 -0.46875,1.375 c -0.12363,1.987751 -0.0557,3.978786 0.1875,6 a 2.8677534,2.8677534 0 0 0 0.9375,1.8125 c 3.48284,3.05929 8.58018,4.813531 12.78125,6.5625 1.58577,0.660182 2.73891,1.259761 3.84375,1.84375 l -46,0 c 1.10055,-0.670763 2.619,-1.400517 4.5,-2.15625 4.15195,-1.668144 9.23578,-3.24738 12.78125,-6.21875 a 2.8677534,2.8677534 0 0 0 0.96875,-1.71875 c 0.435,-2.561923 0.42811,-4.85032 0.21875,-7.03125 a 2.8677534,2.8677534 0 0 0 -0.53125,-1.4375 c -0.95814,-1.290278 -1.97826,-2.668825 -2.78125,-3.875 -0.78402,-1.177685 -1.34847,-2.260297 -1.4375,-2.5 -0.14231,-0.651357 -0.2583,-1.171476 -0.375,-1.75 a 2.8677534,2.8677534 0 0 0 -0.6875,-1.375 c -0.22783,-0.251235 -0.23287,-0.261058 -0.0312,-0.03125 -0.45683,-0.519141 -0.84766,-1.089903 -1.125,-1.75 -0.40592,-0.966104 -0.56162,-1.931413 -0.53125,-2.46875 0.012,-0.211774 0.0599,-0.21393 0.0625,-0.21875 a 2.8677534,2.8677534 0 0 0 0.96875,-2.4375 c -0.0772,-0.933451 -0.0748,-1.779749 -0.0937,-2.625 -4.5e-4,-0.0201 4.5e-4,-0.04242 0,-0.0625 0.0362,-5.796946 5.03307,-10.59375 11.46875,-10.59375 z"
       inkscape:connector-curvature="0"
       id="path3917"
       style="display:inline;opacity:0.05;fill:#000000;fill-opacity:1;stroke:none;enable-background:new" />
    <path
       d="m 367.80403,24.740466 c -0.0389,0.801765 -0.0937,1.623468 -0.15625,2.53125 0.0224,0.01698 0.0409,0.04415 0.0625,0.0625 0.0512,-0.731815 0.10306,-1.473784 0.125,-2.125 0,-0.159122 -0.0255,-0.310944 -0.0312,-0.46875 z m -28.625,0.21875 c -0.002,0.08483 -0.0312,0.164799 -0.0312,0.25 0.013,0.579511 0.0322,1.232395 0.0625,1.90625 0.0196,-0.01184 0.0424,-0.02042 0.0625,-0.03125 -0.0641,-0.77417 -0.08,-1.462479 -0.0937,-2.125 z m -0.9375,5.21875 c -0.094,1.107054 0.13032,2.505747 0.71875,3.90625 0.43122,1.026337 1.03067,1.855851 1.625,2.53125 0.0198,0.02258 0.0426,0.0405 0.0625,0.0625 0.14186,0.703232 0.26593,1.238012 0.4375,2.03125 0.53149,1.610673 2.72221,4.645542 4.65625,7.25 0.0733,0.763575 0.11687,1.536254 0.125,2.3125 0.0371,-1.124384 -0.0209,-2.227845 -0.125,-3.3125 -1.93404,-2.604458 -4.12476,-5.639327 -4.65625,-7.25 -0.17157,-0.793238 -0.29564,-1.328018 -0.4375,-2.03125 -0.0199,-0.022 -0.0427,-0.03992 -0.0625,-0.0625 -0.59433,-0.675399 -1.19378,-1.504913 -1.625,-2.53125 -0.41937,-0.998111 -0.65017,-2.015608 -0.71875,-2.90625 z m 30.25,0.15625 c -0.0756,0.842951 -0.28925,1.802149 -0.6875,2.75 -0.38331,0.9123 -0.887,1.640144 -1.40625,2.28125 -0.16795,0.79293 -0.28375,1.420323 -0.5,2.34375 -0.5884,1.783113 -2.89786,5.322548 -4.65625,8.0625 -0.0494,0.794587 -0.0741,1.580299 -0.0625,2.375 0.009,-0.455039 0.0342,-0.919437 0.0625,-1.375 1.75839,-2.739952 4.06785,-6.279387 4.65625,-8.0625 0.21625,-0.923427 0.33205,-1.55082 0.5,-2.34375 0.51925,-0.641106 1.02294,-1.36895 1.40625,-2.28125 0.5699,-1.356408 0.76714,-2.679984 0.6875,-3.75 z m -42.875,34.34375 -0.125,1 56,0 -0.125,-1 -55.75,0 z"
       inkscape:connector-curvature="0"
       id="path3877"
       style="display:inline;opacity:0.3;fill:#ffffff;fill-opacity:1;stroke:none;enable-background:new" />
    <path
       d="m 353.49153,10.677966 c -7.922,0 -14.34375,6.062375 -14.34375,13.53125 0.0192,0.855945 0.0369,1.810345 0.125,2.875 -1.25372,0.675125 -1.4308,3.33837 -0.3125,6 0.43122,1.026337 1.03067,1.855851 1.625,2.53125 0.0198,0.02258 0.0426,0.0405 0.0625,0.0625 0.14186,0.703232 0.26593,1.238012 0.4375,2.03125 0.53149,1.610673 2.72221,4.645542 4.65625,7.25 0.19287,2.009155 0.20055,3.995877 -0.1875,6.28125 -5.5668,4.665396 -19.83384,6.763896 -19.8125,11.59375 l -0.25,1.84375 56,0 -0.25,-1.84375 c -0.0227,-4.133708 -14.34521,-6.763885 -19.84375,-11.59375 -0.22263,-1.850103 -0.26958,-3.646498 -0.15625,-5.46875 1.75839,-2.739952 4.06785,-6.279387 4.65625,-8.0625 0.21625,-0.923427 0.33205,-1.55082 0.5,-2.34375 0.51925,-0.641106 1.02294,-1.36895 1.40625,-2.28125 1.06199,-2.527603 0.92613,-4.991829 -0.15625,-5.8125 0.0756,-1.09827 0.15588,-2.123846 0.1875,-3.0625 10e-6,-7.468873 -6.42176,-13.53125 -14.34375,-13.53125 z m 0,2 c 6.87791,0 12.30758,5.175633 12.34375,11.46875 1.2e-4,0.02109 0,0.04139 0,0.0625 -0.0308,0.861134 -0.11266,1.85065 -0.1875,2.9375 a 2.0015608,2.0015608 0 0 0 0.71875,1.6875 c -0.007,0.03079 0.13825,0.271354 0.15625,0.78125 0.024,0.679862 -0.13328,1.66593 -0.5625,2.6875 -0.28803,0.685522 -0.67363,1.255201 -1.125,1.8125 a 2.0015608,2.0015608 0 0 0 -0.40625,0.84375 c -0.16178,0.763764 -0.25665,1.337134 -0.4375,2.125 -0.17352,0.525824 -0.8427,1.874166 -1.6875,3.28125 -0.8448,1.407084 -1.86727,2.937012 -2.75,4.3125 a 2.0015608,2.0015608 0 0 0 -0.3125,0.96875 c -0.12052,1.937763 -0.0808,3.874219 0.15625,5.84375 a 2.0015608,2.0015608 0 0 0 0.6875,1.25 c 3.26127,2.864665 8.30912,4.648515 12.53125,6.40625 2.11106,0.878867 3.99662,1.728959 5.21875,2.5 0.61106,0.38552 1.04758,0.761343 1.25,1 0.0365,0.04304 0.009,0.0013 0.0312,0.03125 l -51.21875,0 c 0.0507,-0.252566 0.19387,-0.670062 1.25,-1.375 1.18159,-0.78869 3.06396,-1.628125 5.15625,-2.46875 4.18457,-1.681249 9.21596,-3.284038 12.53125,-6.0625 a 2.0015608,2.0015608 0 0 0 0.6875,-1.1875 c 0.42082,-2.478392 0.42313,-4.683454 0.21875,-6.8125 a 2.0015608,2.0015608 0 0 0 -0.40625,-1 c -0.96082,-1.293888 -1.96229,-2.676082 -2.78125,-3.90625 -0.80105,-1.203253 -1.38641,-2.310872 -1.53125,-2.71875 -0.15745,-0.723921 -0.27878,-1.243114 -0.40625,-1.875 a 2.0015608,2.0015608 0 0 0 -0.5,-0.9375 c -0.16504,-0.181995 -0.16599,-0.184825 -0.0312,-0.03125 -0.49836,-0.566338 -0.95743,-1.229281 -1.28125,-2 -0.4522,-1.076263 -0.63343,-2.141627 -0.59375,-2.84375 0.0298,-0.526592 0.17729,-0.699433 0.125,-0.6875 a 2.0015608,2.0015608 0 0 0 0.9375,-1.84375 c -0.0809,-0.977363 -0.10587,-1.865672 -0.125,-2.71875 0,-0.01056 -3e-5,-0.0207 0,-0.03125 0.0181,-6.307412 5.45432,-11.5 12.34375,-11.5 z"
       inkscape:connector-curvature="0"
       id="path3900"
       style="display:inline;opacity:0.1;fill:#000000;fill-opacity:1;stroke:none;enable-background:new" />
    <path
       d="m 353.49153,10.677966 c -7.922,0 -14.34375,6.062375 -14.34375,13.53125 0.0192,0.855945 0.0369,1.810345 0.125,2.875 -1.25372,0.675125 -1.4308,3.33837 -0.3125,6 0.43122,1.026337 1.03067,1.855851 1.625,2.53125 0.0198,0.02258 0.0426,0.0405 0.0625,0.0625 0.14186,0.703232 0.26593,1.238012 0.4375,2.03125 0.53149,1.610673 2.72221,4.645542 4.65625,7.25 0.19287,2.009155 0.20055,3.995877 -0.1875,6.28125 -5.5668,4.665396 -19.83384,6.763896 -19.8125,11.59375 l -0.25,1.84375 56,0 -0.25,-1.84375 c -0.0227,-4.133708 -14.34521,-6.763885 -19.84375,-11.59375 -0.22263,-1.850103 -0.26958,-3.646498 -0.15625,-5.46875 1.75839,-2.739952 4.06785,-6.279387 4.65625,-8.0625 0.21625,-0.923427 0.33205,-1.55082 0.5,-2.34375 0.51925,-0.641106 1.02294,-1.36895 1.40625,-2.28125 1.06199,-2.527603 0.92613,-4.991829 -0.15625,-5.8125 0.0756,-1.09827 0.15588,-2.123846 0.1875,-3.0625 10e-6,-7.468873 -6.42176,-13.53125 -14.34375,-13.53125 z m 0,1.0625 c 7.3754,0 13.26302,5.584417 13.28125,12.4375 3e-5,0.01062 0,0.02063 0,0.03125 -0.0312,0.897638 -0.081,1.906998 -0.15625,3 a 1.049094,1.049094 0 0 0 0.40625,0.90625 c 0.15524,0.117703 0.4388,0.620086 0.46875,1.46875 0.0299,0.848664 -0.1786,1.956911 -0.65625,3.09375 -0.33337,0.793437 -0.76633,1.43407 -1.25,2.03125 a 1.049094,1.049094 0 0 0 -0.21875,0.4375 c -0.16385,0.773535 -0.27392,1.376683 -0.46875,2.21875 -0.008,0.03648 -0.0225,0.05631 -0.0312,0.09375 -0.24809,0.71296 -0.91434,1.983138 -1.75,3.375 -0.85713,1.427621 -1.86895,3.002135 -2.75,4.375 a 1.049094,1.049094 0 0 0 -0.1875,0.5 c -0.1171,1.882795 -0.0427,3.74355 0.1875,5.65625 a 1.049094,1.049094 0 0 0 0.34375,0.65625 c 3.01763,2.650654 8.00472,4.482626 12.25,6.25 2.12264,0.883687 4.05307,1.728499 5.375,2.5625 0.66096,0.417 1.17014,0.835443 1.46875,1.1875 0.2986,0.352057 0.37382,0.598346 0.375,0.8125 a 1.049094,1.049094 0 0 0 0.0312,0.15625 l 0.0937,0.625 -53.625,0 0.0937,-0.625 a 1.049094,1.049094 0 0 0 0.0312,-0.15625 c -0.003,-0.690703 0.51673,-1.447606 1.8125,-2.3125 1.29576,-0.864894 3.20228,-1.71467 5.3125,-2.5625 4.22043,-1.695659 9.25031,-3.33991 12.3125,-5.90625 a 1.049094,1.049094 0 0 0 0.34375,-0.625 c 0.40522,-2.386542 0.3864,-4.490505 0.1875,-6.5625 a 1.049094,1.049094 0 0 0 -0.1875,-0.53125 c -0.96377,-1.297857 -1.97598,-2.7122 -2.8125,-3.96875 -0.83653,-1.25655 -1.49472,-2.415763 -1.6875,-3 -0.15672,-0.720555 -0.27605,-1.260824 -0.40625,-1.90625 a 1.049094,1.049094 0 0 0 -0.25,-0.5 c -0.024,-0.02647 -0.0474,-0.01791 -0.0625,-0.03125 -0.54403,-0.618236 -1.06257,-1.357642 -1.4375,-2.25 -0.5031,-1.197395 -0.70617,-2.397927 -0.65625,-3.28125 0.0499,-0.883323 0.36196,-1.300668 0.5,-1.375 a 1.049094,1.049094 0 0 0 0.53125,-1.03125 c -0.0839,-1.013404 -0.0747,-1.930201 -0.0937,-2.78125 0,-0.01062 -3e-5,-0.02063 0,-0.03125 0.0182,-6.853087 5.90585,-12.4375 13.28125,-12.4375 z"
       inkscape:connector-curvature="0"
       id="path3896"
       style="display:inline;opacity:0.2;fill:#000000;fill-opacity:1;stroke:none;enable-background:new" />
    <path
       d="m 353.49153,10.677966 c -7.922,0 -14.34375,6.062375 -14.34375,13.53125 0.005,0.23354 0.0261,0.501408 0.0312,0.75 0.14409,-7.35151 6.48087,-13.28125 14.3125,-13.28125 7.75322,0 14.0471,5.81318 14.3125,13.0625 0.008,-0.168242 0.0258,-0.368446 0.0312,-0.53125 1e-5,-7.468873 -6.42176,-13.53125 -14.34375,-13.53125 z m -14.28125,16.4375 c -0.73653,0.445924 -1.07251,1.60015 -0.96875,3.03125 0.0893,-0.981234 0.44357,-1.746035 1.03125,-2.0625 -0.0285,-0.343838 -0.048,-0.647313 -0.0625,-0.96875 z m 28.5,0.21875 c -0.0226,0.323014 -0.0393,0.601183 -0.0625,0.9375 0.48474,0.367533 0.76253,1.088591 0.84375,1.96875 0.0994,-1.312871 -0.16665,-2.383428 -0.78125,-2.90625 z m -21.84375,20.9375 c -0.0316,0.958362 -0.13394,1.917151 -0.3125,2.96875 -5.5668,4.665396 -19.83384,6.763896 -19.8125,11.59375 l -0.25,1.84375 0.125,0 0.125,-0.84375 c -0.0213,-4.829854 14.2457,-6.928354 19.8125,-11.59375 0.24057,-1.416822 0.32575,-2.702501 0.3125,-3.96875 z m 15.3125,0.21875 c -0.009,1.249009 0.066,2.480743 0.21875,3.75 5.49854,4.829865 19.82104,7.460042 19.84375,11.59375 l 0.125,0.84375 0.125,0 -0.25,-1.84375 c -0.0227,-4.133708 -14.34521,-6.763885 -19.84375,-11.59375 -0.11132,-0.925051 -0.19478,-1.837951 -0.21875,-2.75 z"
       inkscape:connector-curvature="0"
       id="path3886"
       style="display:inline;opacity:0.3;fill:#000000;fill-opacity:1;stroke:none;enable-background:new" />
  </g>
</svg>
