<?xml version="1.0" encoding="UTF-8" standalone="no"?>
<!-- Created with Inkscape (http://www.inkscape.org/) -->

<svg
   xmlns:dc="http://purl.org/dc/elements/1.1/"
   xmlns:cc="http://creativecommons.org/ns#"
   xmlns:rdf="http://www.w3.org/1999/02/22-rdf-syntax-ns#"
   xmlns:svg="http://www.w3.org/2000/svg"
   xmlns="http://www.w3.org/2000/svg"
   xmlns:xlink="http://www.w3.org/1999/xlink"
   xmlns:sodipodi="http://sodipodi.sourceforge.net/DTD/sodipodi-0.dtd"
   xmlns:inkscape="http://www.inkscape.org/namespaces/inkscape"
   id="svg4061"
   height="48"
   width="48"
   version="1.1"
   inkscape:version="0.92.0 unknown"
   sodipodi:docname="dreamchess.svg">
  <sodipodi:namedview
     pagecolor="#ffffff"
     bordercolor="#666666"
     borderopacity="1"
     objecttolerance="10"
     gridtolerance="10"
     guidetolerance="10"
     inkscape:pageopacity="0"
     inkscape:pageshadow="2"
     inkscape:window-width="1388"
     inkscape:window-height="952"
     id="namedview40"
     showgrid="false"
     inkscape:zoom="9.8333333"
     inkscape:cx="7.4726207"
     inkscape:cy="18.178412"
     inkscape:window-x="638"
     inkscape:window-y="273"
     inkscape:window-maximized="0"
     inkscape:current-layer="g4206" />
  <defs
     id="defs4063">
    <linearGradient
       id="linearGradient3026"
       y2="40.496"
       gradientUnits="userSpaceOnUse"
       x2="71.204"
       gradientTransform="matrix(1.617 0 0 1.617 -92.707 -21.06)"
       y1="15.369"
       x1="71.204">
      <stop
         id="stop4808-4"
         stop-color="#fff"
         offset="0" />
      <stop
         id="stop4810-0"
         stop-color="#fff"
         stop-opacity=".23529"
         offset=".42448" />
      <stop
         id="stop4812-8"
         stop-color="#fff"
         stop-opacity=".15686"
         offset=".82090" />
      <stop
         id="stop4814-0"
         stop-color="#fff"
         stop-opacity=".39216"
         offset="1" />
    </linearGradient>
    <radialGradient
       id="radialGradient3029"
       fx="4.459"
       fy="8.5089"
       gradientUnits="userSpaceOnUse"
       cy="8.6258"
       cx="15.026"
       gradientTransform="matrix(-3.4973e-8 1.8855 -1.7764 -5.4723e-8 39.14 -7.9932)"
       r="20">
      <stop
         id="stop4170"
         stop-color="#c24251"
         offset="0"
         style="stop-color:#fbf2f3;stop-opacity:1" />
      <stop
         id="stop4172"
         stop-color="#c24251"
         offset="0.50637728"
         style="stop-opacity:0.647;stop-color:#dfa8af" />
      <stop
         id="stop4174"
         stop-color="#a63643"
         offset=".66094" />
      <stop
         id="stop4176"
         stop-color="#a63643"
         offset="1" />
    </radialGradient>
    <radialGradient
       id="radialGradient3032"
       gradientUnits="userSpaceOnUse"
       cy="3.99"
       cx="23.896"
       gradientTransform="matrix(0 2.8885 -3.8128 0 39.213 -65.95)"
       r="20.397">
      <stop
         id="stop3244-9-33-7-0-9"
         stop-color="#fff"
         offset="0" />
      <stop
         id="stop3246-3-5-0-8-5"
         stop-color="#ddd"
         offset=".26238" />
      <stop
         id="stop3248-1-7-8-8-1"
         stop-color="#abacae"
         offset=".66094" />
      <stop
         id="stop3250-9-3-0-5-1"
         stop-color="#89898b"
         offset="1" />
    </radialGradient>
    <radialGradient
       id="radialGradient3035"
       gradientUnits="userSpaceOnUse"
       cy="186.17"
       cx="99.157"
       gradientTransform="matrix(.27083 0 0 .087623 -2.8551 25.187)"
       r="62.769">
      <stop
         id="stop3822-2-6-3"
         stop-color="#3d3d3d"
         offset="0" />
      <stop
         id="stop3864-8-7-7"
         stop-color="#686868"
         stop-opacity=".49804"
         offset=".5" />
      <stop
         id="stop3824-1-2-5"
         stop-color="#686868"
         stop-opacity="0"
         offset="1" />
    </radialGradient>
    <linearGradient
       id="linearGradient4433"
       y2="25.611"
       gradientUnits="userSpaceOnUse"
       x2="23.078"
       gradientTransform="matrix(1 0 0 1.0521 0 -.90547)"
       y1="13.035"
       x1="22.759">
      <stop
         id="stop6305-1-0-2"
         stop-color="#fff"
         offset="0" />
      <stop
         id="stop6307-5-0-6"
         stop-color="#fff"
         stop-opacity="0"
         offset="1" />
    </linearGradient>
    <linearGradient
       inkscape:collect="always"
       xlink:href="#radialGradient3029"
       id="linearGradient3904"
       gradientUnits="userSpaceOnUse"
       x1="22.169491"
       y1="-11.18644"
       x2="22.677967"
       y2="1.2203388" />
  </defs>
  <metadata
     id="metadata4066">
    <rdf:RDF>
      <cc:Work
         rdf:about="">
        <dc:format>image/svg+xml</dc:format>
        <dc:type
           rdf:resource="http://purl.org/dc/dcmitype/StillImage" />
        <dc:title></dc:title>
      </cc:Work>
    </rdf:RDF>
  </metadata>
  <g
     id="g4206">
    <path
       id="path3818-0-5"
       d="m 41,41.5 a 17,5.5 0 0 1 -34,0 17,5.5 0 1 1 34,0 z"
       inkscape:connector-curvature="0"
       style="fill:url(#radialGradient3035)" />
    <path
       id="path2555-7-2"
       style="color:#000000;fill:url(#radialGradient3032)"
       d="M 24,3.5 C 12.689,3.5 3.5,12.689 3.5,24 3.5,35.311 12.689,44.5 24,44.5 35.311,44.5 44.5,35.311 44.5,24 44.5,12.689 35.311,3.5 24,3.5 Z"
       inkscape:connector-curvature="0" />
    <path
       id="path2555-7-65"
       style="color:#000000;fill:#000000"
       d="M 24,3.5 C 12.689,3.5 3.5,12.689 3.5,24 3.5,35.311 12.689,44.5 24,44.5 35.311,44.5 44.5,35.311 44.5,24 44.5,12.689 35.311,3.5 24,3.5 Z"
       inkscape:connector-curvature="0" />
    <path
       id="path4176"
       style="color:#000000;opacity:0.5;fill:none;stroke:url(#linearGradient3026);stroke-linecap:round;stroke-linejoin:round"
       d="M 43.5,24 C 43.5,34.77 34.77,43.5 24,43.5 13.23,43.5 4.5,34.77 4.5,24 4.5,13.23 13.23,4.5 24,4.5 34.77,4.5 43.5,13.23 43.5,24 Z"
       inkscape:connector-curvature="0" />
    <path
       id="path2555-7-1-7"
       style="color:#000000;opacity:1;fill:url(#linearGradient3904);fill-opacity:1;stroke:#ffffff;stroke-linecap:round;stroke-linejoin:round;stroke-opacity:1;stroke-width:2;stroke-miterlimit:4;stroke-dasharray:none"
       d="m 24,3.5001 c -11.311,0 -20.5,9.1888 -20.5,20.5 0,11.3112 9.1888,20.5 20.5,20.5 11.3112,0 20.5,-9.1888 20.5,-20.5 0,-11.3112 -9.189,-20.5 -20.5,-20.5 z"
       inkscape:connector-curvature="0" />
    <g
       id="g4317"
       transform="matrix(1.0002,0,0,1.0004,-1.0018,-0.0050486)"
       style="fill:none;stroke:#000000;stroke-linecap:round;stroke-linejoin:round" />
    <g
       transform="translate(-1.4022686,-1.4052092)"
       id="g23">
      <g
         id="g25">
        <g
           transform="translate(1,1)"
           id="g27">
          <g
             style="opacity:0.1"
             id="g29">
            <!-- color: #474747 -->
            <g
               id="g31">
              <path
                 inkscape:connector-curvature="0"
                 d="m 20.1,35.973 c -1.137,-0.078 -2.191,-0.297 -3.039,-0.625 -0.516,-0.199 -1.152,-0.523 -1.211,-0.613 -0.016,-0.027 0.203,-0.582 0.492,-1.234 0.289,-0.652 0.52,-1.215 0.52,-1.25 0,-0.066 -0.871,-2.047 -1.043,-2.371 -0.055,-0.109 -0.551,-0.727 -1.09,-1.379 L 13.741,27.317 13.678,26.794 C 13.643,26.509 13.373,24.392 13.084,22.091 L 12.553,17.907 12.24,17.868 c -0.902,-0.113 -1.441,-0.902 -1.168,-1.715 0.113,-0.344 0.293,-0.555 0.621,-0.746 0.219,-0.125 0.316,-0.148 0.668,-0.148 0.352,0 0.449,0.02 0.664,0.148 0.332,0.191 0.512,0.402 0.625,0.746 0.199,0.59 -0.063,1.25 -0.609,1.551 -0.063,0.035 0.344,0.898 2.01,4.281 1.152,2.328 2.098,4.238 2.102,4.246 0.012,0.016 0.59,-10.145 0.586,-10.309 -0.004,-0.117 -0.035,-0.148 -0.238,-0.199 -0.328,-0.082 -0.664,-0.336 -0.844,-0.641 -0.133,-0.227 -0.156,-0.316 -0.156,-0.672 0,-0.359 0.023,-0.438 0.168,-0.676 0.551,-0.883 1.805,-0.883 2.355,0 0.148,0.234 0.168,0.313 0.168,0.68 0,0.363 -0.02,0.441 -0.168,0.68 -0.098,0.16 -0.277,0.336 -0.441,0.445 l -0.277,0.184 1.73,4.938 c 0.953,2.719 1.746,4.941 1.762,4.941 0.02,0 1.82,-10.08 1.941,-10.875 0.004,-0.023 -0.082,-0.074 -0.199,-0.117 -0.301,-0.105 -0.566,-0.328 -0.738,-0.613 -0.133,-0.215 -0.152,-0.316 -0.152,-0.664 0,-0.359 0.02,-0.438 0.168,-0.676 0.551,-0.883 1.805,-0.883 2.355,0 0.145,0.234 0.164,0.316 0.164,0.676 0,0.352 -0.02,0.449 -0.152,0.664 -0.172,0.285 -0.434,0.508 -0.738,0.613 -0.113,0.039 -0.203,0.094 -0.199,0.117 0.125,0.797 1.926,10.875 1.941,10.875 0.016,0 0.809,-2.223 1.762,-4.941 l 1.73,-4.938 -0.273,-0.184 c -0.168,-0.105 -0.344,-0.285 -0.445,-0.445 -0.145,-0.234 -0.164,-0.316 -0.164,-0.68 0,-0.363 0.016,-0.441 0.164,-0.68 0.555,-0.883 1.809,-0.883 2.359,0 0.145,0.234 0.164,0.316 0.164,0.676 0,0.352 -0.02,0.445 -0.156,0.672 -0.184,0.305 -0.516,0.559 -0.844,0.641 -0.199,0.047 -0.234,0.078 -0.234,0.199 -0.004,0.164 0.574,10.324 0.582,10.309 0.004,-0.008 0.949,-1.918 2.102,-4.246 1.672,-3.387 2.078,-4.25 2.01,-4.281 -0.547,-0.301 -0.805,-0.961 -0.609,-1.551 0.117,-0.344 0.297,-0.555 0.625,-0.746 0.215,-0.125 0.316,-0.148 0.668,-0.148 0.348,0 0.449,0.02 0.664,0.148 0.328,0.191 0.512,0.402 0.625,0.746 0.273,0.813 -0.266,1.602 -1.172,1.715 l -0.309,0.039 -0.531,4.184 c -0.297,2.301 -0.563,4.418 -0.598,4.703 l -0.063,0.523 -0.984,1.184 c -0.543,0.648 -1.031,1.266 -1.094,1.379 -0.172,0.32 -1.039,2.301 -1.039,2.371 0,0.035 0.23,0.598 0.523,1.25 0.285,0.652 0.508,1.207 0.492,1.234 -0.129,0.203 -1.445,0.746 -2.297,0.945 -1.23,0.293 -1.473,0.305 -5.469,0.32 -2.039,0.008 -3.969,-0.008 -4.289,-0.027 m 0,0"
                 style="fill:#000000;fill-opacity:1;fill-rule:nonzero;stroke:none"
                 id="path33" />
            </g>
          </g>
        </g>
      </g>
    </g>
    <g
       id="g35"
       transform="translate(-0.1988788,-1.6255485)">
      <g
         id="g37">
        <!-- color: #474747 -->
        <g
           id="g39">
          <path
             d="m 20.1,35.973 c -1.137,-0.078 -2.191,-0.297 -3.039,-0.625 -0.516,-0.199 -1.152,-0.523 -1.211,-0.613 -0.016,-0.027 0.203,-0.582 0.492,-1.234 0.289,-0.652 0.52,-1.215 0.52,-1.25 0,-0.066 -0.871,-2.047 -1.043,-2.371 -0.055,-0.109 -0.551,-0.727 -1.09,-1.379 L 13.741,27.317 13.678,26.794 C 13.643,26.509 13.373,24.392 13.084,22.091 L 12.553,17.907 12.24,17.868 c -0.902,-0.113 -1.441,-0.902 -1.168,-1.715 0.113,-0.344 0.293,-0.555 0.621,-0.746 0.219,-0.125 0.316,-0.148 0.668,-0.148 0.352,0 0.449,0.02 0.664,0.148 0.332,0.191 0.512,0.402 0.625,0.746 0.199,0.59 -0.063,1.25 -0.609,1.551 -0.063,0.035 0.344,0.898 2.01,4.281 1.152,2.328 2.098,4.238 2.102,4.246 0.012,0.016 0.59,-10.145 0.586,-10.309 -0.004,-0.117 -0.035,-0.148 -0.238,-0.199 -0.328,-0.082 -0.664,-0.336 -0.844,-0.641 -0.133,-0.227 -0.156,-0.316 -0.156,-0.672 0,-0.359 0.023,-0.438 0.168,-0.676 0.551,-0.883 1.805,-0.883 2.355,0 0.148,0.234 0.168,0.313 0.168,0.68 0,0.363 -0.02,0.441 -0.168,0.68 -0.098,0.16 -0.277,0.336 -0.441,0.445 l -0.277,0.184 1.73,4.938 c 0.953,2.719 1.746,4.941 1.762,4.941 0.02,0 1.82,-10.08 1.941,-10.875 0.004,-0.023 -0.082,-0.074 -0.199,-0.117 -0.301,-0.105 -0.566,-0.328 -0.738,-0.613 -0.133,-0.215 -0.152,-0.316 -0.152,-0.664 0,-0.359 0.02,-0.438 0.168,-0.676 0.551,-0.883 1.805,-0.883 2.355,0 0.145,0.234 0.164,0.316 0.164,0.676 0,0.352 -0.02,0.449 -0.152,0.664 -0.172,0.285 -0.434,0.508 -0.738,0.613 -0.113,0.039 -0.203,0.094 -0.199,0.117 0.125,0.797 1.926,10.875 1.941,10.875 0.016,0 0.809,-2.223 1.762,-4.941 l 1.73,-4.938 -0.273,-0.184 c -0.168,-0.105 -0.344,-0.285 -0.445,-0.445 -0.145,-0.234 -0.164,-0.316 -0.164,-0.68 0,-0.363 0.016,-0.441 0.164,-0.68 0.555,-0.883 1.809,-0.883 2.359,0 0.145,0.234 0.164,0.316 0.164,0.676 0,0.352 -0.02,0.445 -0.156,0.672 -0.184,0.305 -0.516,0.559 -0.844,0.641 -0.199,0.047 -0.234,0.078 -0.234,0.199 -0.004,0.164 0.574,10.324 0.582,10.309 0.004,-0.008 0.949,-1.918 2.102,-4.246 1.672,-3.387 2.078,-4.25 2.01,-4.281 -0.547,-0.301 -0.805,-0.961 -0.609,-1.551 0.117,-0.344 0.297,-0.555 0.625,-0.746 0.215,-0.125 0.316,-0.148 0.668,-0.148 0.348,0 0.449,0.02 0.664,0.148 0.328,0.191 0.512,0.402 0.625,0.746 0.273,0.813 -0.266,1.602 -1.172,1.715 l -0.309,0.039 -0.531,4.184 c -0.297,2.301 -0.563,4.418 -0.598,4.703 l -0.063,0.523 -0.984,1.184 c -0.543,0.648 -1.031,1.266 -1.094,1.379 -0.172,0.32 -1.039,2.301 -1.039,2.371 0,0.035 0.23,0.598 0.523,1.25 0.285,0.652 0.508,1.207 0.492,1.234 -0.129,0.203 -1.445,0.746 -2.297,0.945 -1.23,0.293 -1.473,0.305 -5.469,0.32 -2.039,0.008 -3.969,-0.008 -4.289,-0.027 m 0,0"
             style="fill:#f9f9f9;fill-opacity:1;fill-rule:nonzero;stroke:none"
             id="path41"
             inkscape:connector-curvature="0" />
        </g>
      </g>
    </g>
  </g>
</svg>
