<?xml version="1.0" encoding="UTF-8" standalone="no"?>
<!-- Created with Inkscape (http://www.inkscape.org/) -->

<svg
   xmlns:dc="http://purl.org/dc/elements/1.1/"
   xmlns:cc="http://creativecommons.org/ns#"
   xmlns:rdf="http://www.w3.org/1999/02/22-rdf-syntax-ns#"
   xmlns:svg="http://www.w3.org/2000/svg"
   xmlns="http://www.w3.org/2000/svg"
   xmlns:xlink="http://www.w3.org/1999/xlink"
   xmlns:sodipodi="http://sodipodi.sourceforge.net/DTD/sodipodi-0.dtd"
   xmlns:inkscape="http://www.inkscape.org/namespaces/inkscape"
   id="svg4061"
   height="48"
   width="48"
   version="1.1"
   inkscape:version="0.92.0 unknown"
   sodipodi:docname="redshift.svg">
  <sodipodi:namedview
     pagecolor="#ffffff"
     bordercolor="#666666"
     borderopacity="1"
     objecttolerance="10"
     gridtolerance="10"
     guidetolerance="10"
     inkscape:pageopacity="0"
     inkscape:pageshadow="2"
     inkscape:window-width="1378"
     inkscape:window-height="894"
     id="namedview40"
     showgrid="false"
     inkscape:zoom="9.8333333"
     inkscape:cx="-1.5695683"
     inkscape:cy="14.166241"
     inkscape:window-x="79"
     inkscape:window-y="96"
     inkscape:window-maximized="0"
     inkscape:current-layer="g4206" />
  <defs
     id="defs4063">
    <linearGradient
       inkscape:collect="always"
       id="linearGradient3361">
      <stop
         style="stop-color:#0068e0;stop-opacity:1;"
         offset="0"
         id="stop3363" />
      <stop
         style="stop-color:#00acf4;stop-opacity:1"
         offset="1"
         id="stop3365" />
    </linearGradient>
    <linearGradient
       id="linearGradient3026"
       y2="40.495998"
       gradientUnits="userSpaceOnUse"
       x2="71.204002"
       gradientTransform="matrix(1.617,0,0,1.617,-92.707,-21.06)"
       y1="15.369"
       x1="71.204002"
       xlink:href="#linearGradient3361">
      <stop
         id="stop4808-4"
         stop-color="#fff"
         offset="0" />
      <stop
         id="stop4810-0"
         stop-color="#fff"
         stop-opacity=".23529"
         offset=".42448" />
      <stop
         id="stop4812-8"
         stop-color="#fff"
         stop-opacity=".15686"
         offset=".82090" />
      <stop
         id="stop4814-0"
         stop-color="#fff"
         stop-opacity=".39216"
         offset="1" />
    </linearGradient>
    <radialGradient
       id="radialGradient3029"
       fx="4.459"
       fy="8.5089"
       gradientUnits="userSpaceOnUse"
       cy="8.6258"
       cx="15.026"
       gradientTransform="matrix(-3.4973e-8 1.8855 -1.7764 -5.4723e-8 39.14 -7.9932)"
       r="20">
      <stop
         id="stop4170"
         stop-color="#c24251"
         offset="0" />
      <stop
         id="stop4172"
         stop-color="#c24251"
         offset=".26238" />
      <stop
         id="stop4174"
         stop-color="#a63643"
         offset=".66094" />
      <stop
         id="stop4176"
         stop-color="#a63643"
         offset="1" />
    </radialGradient>
    <radialGradient
       id="radialGradient3032"
       gradientUnits="userSpaceOnUse"
       cy="3.99"
       cx="23.896"
       gradientTransform="matrix(0 2.8885 -3.8128 0 39.213 -65.95)"
       r="20.397">
      <stop
         id="stop3244-9-33-7-0-9"
         stop-color="#fff"
         offset="0" />
      <stop
         id="stop3246-3-5-0-8-5"
         stop-color="#ddd"
         offset=".26238" />
      <stop
         id="stop3248-1-7-8-8-1"
         stop-color="#abacae"
         offset=".66094" />
      <stop
         id="stop3250-9-3-0-5-1"
         stop-color="#89898b"
         offset="1" />
    </radialGradient>
    <radialGradient
       id="radialGradient3035"
       gradientUnits="userSpaceOnUse"
       cy="186.17"
       cx="99.157"
       gradientTransform="matrix(.27083 0 0 .087623 -2.8551 25.187)"
       r="62.769">
      <stop
         id="stop3822-2-6-3"
         stop-color="#3d3d3d"
         offset="0" />
      <stop
         id="stop3864-8-7-7"
         stop-color="#686868"
         stop-opacity=".49804"
         offset=".5" />
      <stop
         id="stop3824-1-2-5"
         stop-color="#686868"
         stop-opacity="0"
         offset="1" />
    </radialGradient>
    <linearGradient
       id="linearGradient4433"
       y2="25.611"
       gradientUnits="userSpaceOnUse"
       x2="23.078"
       gradientTransform="matrix(1 0 0 1.0521 0 -.90547)"
       y1="13.035"
       x1="22.759">
      <stop
         id="stop6305-1-0-2"
         stop-color="#fff"
         offset="0" />
      <stop
         id="stop6307-5-0-6"
         stop-color="#fff"
         stop-opacity="0"
         offset="1" />
    </linearGradient>
    <linearGradient
       id="linearGradient4829">
      <stop
         style="stop-color:#f4fbfc;stop-opacity:1;"
         offset="0"
         id="stop4831" />
      <stop
         style="stop-color:#d6d6d6;stop-opacity:1;"
         offset="1"
         id="stop4833" />
    </linearGradient>
  </defs>
  <metadata
     id="metadata4066">
    <rdf:RDF>
      <cc:Work
         rdf:about="">
        <dc:format>image/svg+xml</dc:format>
        <dc:type
           rdf:resource="http://purl.org/dc/dcmitype/StillImage" />
        <dc:title></dc:title>
      </cc:Work>
    </rdf:RDF>
  </metadata>
  <g
     id="g4206">
    <path
       id="path3818-0-5"
       d="m 41,41.5 a 17,5.5 0 0 1 -34,0 17,5.5 0 1 1 34,0 z"
       inkscape:connector-curvature="0"
       style="fill:url(#radialGradient3035)" />
    <path
       id="path2555-7-2"
       style="color:#000000;fill:url(#radialGradient3032)"
       d="M 24,3.5 C 12.689,3.5 3.5,12.689 3.5,24 3.5,35.311 12.689,44.5 24,44.5 35.311,44.5 44.5,35.311 44.5,24 44.5,12.689 35.311,3.5 24,3.5 Z"
       inkscape:connector-curvature="0" />
    <path
       id="path2555-7-65"
       style="color:#000000;fill:#aa0000;fill-opacity:1"
       d="M 24,3.5 C 12.689,3.5 3.5,12.689 3.5,24 3.5,35.311 12.689,44.5 24,44.5 35.311,44.5 44.5,35.311 44.5,24 44.5,12.689 35.311,3.5 24,3.5 Z"
       inkscape:connector-curvature="0" />
    <path
       id="path4176"
       style="color:#000000;opacity:1;fill:none;stroke:#ffffff;stroke-width:2;stroke-linecap:round;stroke-linejoin:round;stroke-miterlimit:4;stroke-dasharray:none;stroke-opacity:0.98156684"
       d="M 43.5,24 C 43.5,34.77 34.77,43.5 24,43.5 13.23,43.5 4.5,34.77 4.5,24 4.5,13.23 13.23,4.5 24,4.5 34.77,4.5 43.5,13.23 43.5,24 Z"
       inkscape:connector-curvature="0" />
    <path
       id="path2555-7-1-7"
       style="color:#000000;opacity:1;fill:none;fill-opacity:1;stroke:#ffffff;stroke-width:0.2;stroke-linecap:round;stroke-linejoin:round;stroke-miterlimit:4;stroke-dasharray:none;stroke-opacity:1"
       d="m 24,3.5001 c -11.311,0 -20.5,9.1888 -20.5,20.5 0,11.3112 9.1888,20.5 20.5,20.5 11.3112,0 20.5,-9.1888 20.5,-20.5 0,-11.3112 -9.189,-20.5 -20.5,-20.5 z"
       inkscape:connector-curvature="0" />
    <g
       id="g4317"
       transform="matrix(1.0002,0,0,1.0004,-1.0018,-0.0050486)"
       style="fill:none;stroke:#000000;stroke-linecap:round;stroke-linejoin:round" />
    <g
       transform="matrix(0.86429258,0,0,0.86429258,3.0532435,2.7680818)"
       id="g3858">
      <g
         style="opacity:0.15;fill:none;stroke:#000000;stroke-width:37.61399841;stroke-linecap:round;stroke-linejoin:round"
         transform="matrix(0.052761,0,0,0.053585,11.2,12)"
         id="g4349">
        <g
           style="fill:none;stroke:#000000;stroke-width:37.61399841;stroke-linecap:round;stroke-linejoin:round"
           id="g4351">
          <path
             style="fill:none;stroke:#000000;stroke-width:37.61399841;stroke-linecap:round;stroke-linejoin:round"
             inkscape:connector-curvature="0"
             d="m 394.24,151.63 c 0,82.449 -49.695,92.044 -59.021,181.96 0,8.382 -6.785,20.994 -15.168,20.994 h -154.88 c -8.39,0 -15.17,-12.61 -15.17,-21 h -0.028 c -9.3,-89.91 -58.992,-99.5 -58.992,-181.95 0,-83.752 67.882,-151.63 151.63,-151.63 83.75,0 151.63,67.878 151.63,151.63 z m -75.812,221.61 h -151.63 c -8.384,0 -15.166,0.949 -15.166,9.331 0,8.378 6.782,9.331 15.166,9.331 h 151.63 c 8.378,0 15.163,-0.953 15.163,-9.331 10e-4,-8.382 -6.784,-9.331 -15.162,-9.331 z m 0,37.324 h -151.63 c -8.384,0 -15.166,0.954 -15.166,9.331 0,8.383 6.782,9.331 15.166,9.331 h 151.63 c 8.378,0 15.163,-0.948 15.163,-9.331 10e-4,-8.377 -6.784,-9.331 -15.162,-9.331 z m -106.14,74.648 h 60.65 c 16.76,0 30.322,-20.56 30.322,-37.324 h -121.3 c 0.001,16.764 13.564,37.324 30.328,37.324 z"
             id="path4353" />
        </g>
      </g>
      <g
         style="opacity:0.15;fill:none;stroke:#000000;stroke-width:18.80699921;stroke-linecap:round;stroke-linejoin:round"
         transform="matrix(0.052761,0,0,0.053585,11.2,12)"
         id="g4385">
        <g
           style="fill:none;stroke:#000000;stroke-width:18.80699921;stroke-linecap:round;stroke-linejoin:round"
           id="g4387">
          <path
             style="fill:none;stroke:#000000;stroke-width:18.80699921;stroke-linecap:round;stroke-linejoin:round"
             inkscape:connector-curvature="0"
             d="m 394.24,151.63 c 0,82.449 -49.695,92.044 -59.021,181.96 0,8.382 -6.785,20.994 -15.168,20.994 h -154.88 c -8.39,0 -15.17,-12.61 -15.17,-21 h -0.028 c -9.3,-89.91 -58.992,-99.5 -58.992,-181.95 0,-83.752 67.882,-151.63 151.63,-151.63 83.75,0 151.63,67.878 151.63,151.63 z m -75.812,221.61 h -151.63 c -8.384,0 -15.166,0.949 -15.166,9.331 0,8.378 6.782,9.331 15.166,9.331 h 151.63 c 8.378,0 15.163,-0.953 15.163,-9.331 10e-4,-8.382 -6.784,-9.331 -15.162,-9.331 z m 0,37.324 h -151.63 c -8.384,0 -15.166,0.954 -15.166,9.331 0,8.383 6.782,9.331 15.166,9.331 h 151.63 c 8.378,0 15.163,-0.948 15.163,-9.331 10e-4,-8.377 -6.784,-9.331 -15.162,-9.331 z m -106.14,74.648 h 60.65 c 16.76,0 30.322,-20.56 30.322,-37.324 h -121.3 c 0.001,16.764 13.564,37.324 30.328,37.324 z"
             id="path4389" />
        </g>
      </g>
      <g
         style="fill:#ffffff"
         transform="matrix(0.052761,0,0,0.053585,11.2,12)"
         id="g4248">
        <g
           style="fill:#ffffff"
           id="g4208">
          <path
             style="fill:#ffffff"
             inkscape:connector-curvature="0"
             d="m 394.24,151.63 c 0,82.449 -49.695,92.044 -59.021,181.96 0,8.382 -6.785,20.994 -15.168,20.994 h -154.88 c -8.39,0 -15.17,-12.61 -15.17,-21 h -0.028 c -9.3,-89.91 -58.992,-99.5 -58.992,-181.95 0,-83.752 67.882,-151.63 151.63,-151.63 83.75,0 151.63,67.878 151.63,151.63 z m -75.812,221.61 h -151.63 c -8.384,0 -15.166,0.949 -15.166,9.331 0,8.378 6.782,9.331 15.166,9.331 h 151.63 c 8.378,0 15.163,-0.953 15.163,-9.331 10e-4,-8.382 -6.784,-9.331 -15.162,-9.331 z m 0,37.324 h -151.63 c -8.384,0 -15.166,0.954 -15.166,9.331 0,8.383 6.782,9.331 15.166,9.331 h 151.63 c 8.378,0 15.163,-0.948 15.163,-9.331 10e-4,-8.377 -6.784,-9.331 -15.162,-9.331 z m -106.14,74.648 h 60.65 c 16.76,0 30.322,-20.56 30.322,-37.324 h -121.3 c 0.001,16.764 13.564,37.324 30.328,37.324 z"
             id="path4210" />
        </g>
      </g>
      <g
         style="fill:#b8b8b8"
         transform="matrix(0.052761,0,0,0.053585,11.2,12)"
         id="g4421">
        <g
           style="fill:#b8b8b8"
           id="g4423">
          <path
             style="fill:#b8b8b8"
             inkscape:connector-curvature="0"
             d="M 318.42,373.24 H 166.79 c -8.384,0 -15.166,0.949 -15.166,9.331 0,8.378 6.782,9.331 15.166,9.331 h 151.63 c 8.378,0 15.163,-0.953 15.163,-9.331 10e-4,-8.382 -6.784,-9.331 -15.162,-9.331 z m 0,37.324 H 166.79 c -8.384,0 -15.166,0.954 -15.166,9.331 0,8.383 6.782,9.331 15.166,9.331 h 151.63 c 8.378,0 15.163,-0.948 15.163,-9.331 10e-4,-8.377 -6.784,-9.331 -15.162,-9.331 z m -106.14,74.648 h 60.65 c 16.76,0 30.322,-20.56 30.322,-37.324 h -121.3 c 0.001,16.764 13.564,37.324 30.328,37.324 z"
             id="path4425" />
        </g>
      </g>
    </g>
  </g>
</svg>
