<?xml version="1.0" encoding="UTF-8" standalone="no"?>
<!-- Created with Inkscape (http://www.inkscape.org/) -->

<svg
   xmlns:dc="http://purl.org/dc/elements/1.1/"
   xmlns:cc="http://creativecommons.org/ns#"
   xmlns:rdf="http://www.w3.org/1999/02/22-rdf-syntax-ns#"
   xmlns:svg="http://www.w3.org/2000/svg"
   xmlns="http://www.w3.org/2000/svg"
   xmlns:xlink="http://www.w3.org/1999/xlink"
   xmlns:sodipodi="http://sodipodi.sourceforge.net/DTD/sodipodi-0.dtd"
   xmlns:inkscape="http://www.inkscape.org/namespaces/inkscape"
   id="svg4061"
   height="48"
   width="48"
   version="1.1"
   inkscape:version="0.92.0 unknown"
   sodipodi:docname="synapse.svg">
  <sodipodi:namedview
     pagecolor="#ffffff"
     bordercolor="#666666"
     borderopacity="1"
     objecttolerance="10"
     gridtolerance="10"
     guidetolerance="10"
     inkscape:pageopacity="0"
     inkscape:pageshadow="2"
     inkscape:window-width="1378"
     inkscape:window-height="894"
     id="namedview40"
     showgrid="false"
     inkscape:zoom="9.8333333"
     inkscape:cx="21.119087"
     inkscape:cy="30.284885"
     inkscape:window-x="79"
     inkscape:window-y="95"
     inkscape:window-maximized="0"
     inkscape:current-layer="g4206" />
  <defs
     id="defs4063">
    <linearGradient
       inkscape:collect="always"
       id="linearGradient5098">
      <stop
         style="stop-color:#9955ff;stop-opacity:1;"
         offset="0"
         id="stop5094" />
      <stop
         style="stop-color:#a100e2;stop-opacity:1"
         offset="1"
         id="stop5096" />
    </linearGradient>
    <linearGradient
       id="linearGradient3026"
       y2="40.495998"
       gradientUnits="userSpaceOnUse"
       x2="71.204002"
       gradientTransform="matrix(1.617,0,0,1.617,-92.707,-21.06)"
       y1="15.369"
       x1="71.204002"
       spreadMethod="pad">
      <stop
         id="stop4808-4"
         stop-color="#fff"
         offset="0" />
      <stop
         id="stop4810-0"
         stop-color="#fff"
         stop-opacity=".23529"
         offset=".42448" />
      <stop
         id="stop4812-8"
         stop-color="#fff"
         stop-opacity=".15686"
         offset=".82090" />
      <stop
         id="stop4814-0"
         stop-color="#fff"
         stop-opacity=".39216"
         offset="1" />
    </linearGradient>
    <radialGradient
       id="radialGradient3029"
       fx="4.459"
       fy="8.5089"
       gradientUnits="userSpaceOnUse"
       cy="8.6258"
       cx="15.026"
       gradientTransform="matrix(-3.4973e-8 1.8855 -1.7764 -5.4723e-8 39.14 -7.9932)"
       r="20">
      <stop
         id="stop4170"
         stop-color="#c24251"
         offset="0" />
      <stop
         id="stop4172"
         stop-color="#c24251"
         offset=".26238" />
      <stop
         id="stop4174"
         stop-color="#a63643"
         offset=".66094" />
      <stop
         id="stop4176"
         stop-color="#a63643"
         offset="1" />
    </radialGradient>
    <radialGradient
       id="radialGradient3032"
       gradientUnits="userSpaceOnUse"
       cy="3.99"
       cx="23.896"
       gradientTransform="matrix(0 2.8885 -3.8128 0 39.213 -65.95)"
       r="20.397">
      <stop
         id="stop3244-9-33-7-0-9"
         stop-color="#fff"
         offset="0" />
      <stop
         id="stop3246-3-5-0-8-5"
         stop-color="#ddd"
         offset=".26238" />
      <stop
         id="stop3248-1-7-8-8-1"
         stop-color="#abacae"
         offset=".66094" />
      <stop
         id="stop3250-9-3-0-5-1"
         stop-color="#89898b"
         offset="1" />
    </radialGradient>
    <radialGradient
       id="radialGradient3035"
       gradientUnits="userSpaceOnUse"
       cy="186.17"
       cx="99.157"
       gradientTransform="matrix(.27083 0 0 .087623 -2.8551 25.187)"
       r="62.769">
      <stop
         id="stop3822-2-6-3"
         stop-color="#3d3d3d"
         offset="0" />
      <stop
         id="stop3864-8-7-7"
         stop-color="#686868"
         stop-opacity=".49804"
         offset=".5" />
      <stop
         id="stop3824-1-2-5"
         stop-color="#686868"
         stop-opacity="0"
         offset="1" />
    </radialGradient>
    <linearGradient
       id="linearGradient4433"
       y2="25.611"
       gradientUnits="userSpaceOnUse"
       x2="23.078"
       gradientTransform="matrix(1 0 0 1.0521 0 -.90547)"
       y1="13.035"
       x1="22.759">
      <stop
         id="stop6305-1-0-2"
         stop-color="#fff"
         offset="0" />
      <stop
         id="stop6307-5-0-6"
         stop-color="#fff"
         stop-opacity="0"
         offset="1" />
    </linearGradient>
    <linearGradient
       id="linearGradient4829">
      <stop
         style="stop-color:#f4fbfc;stop-opacity:1;"
         offset="0"
         id="stop4831" />
      <stop
         style="stop-color:#d6d6d6;stop-opacity:1;"
         offset="1"
         id="stop4833" />
    </linearGradient>
    <linearGradient
       id="linearGradient4213"
       y2="37.305"
       gradientUnits="userSpaceOnUse"
       x2="21.434999"
       y1="13.905"
       x1="21.511999">
      <stop
         id="stop2240"
         stop-color="#fff"
         offset="0" />
      <stop
         id="stop2242"
         stop-color="#fff"
         stop-opacity="0"
         offset="1" />
    </linearGradient>
    <clipPath
       id="clipPath-993779242">
      <g
         id="g17"
         transform="translate(0,-1004.4)">
        <path
           style="fill:#1890d0"
           inkscape:connector-curvature="0"
           id="path19"
           d="m -24,13 c 0,1.105 -0.672,2 -1.5,2 -0.828,0 -1.5,-0.895 -1.5,-2 0,-1.105 0.672,-2 1.5,-2 0.828,0 1.5,0.895 1.5,2 z"
           transform="matrix(15.333,0,0,11.5,415,878.86)" />
      </g>
    </clipPath>
    <clipPath
       id="clipPath3877">
      <g
         id="g3875"
         transform="translate(0,-1004.4)">
        <path
           style="fill:#1890d0"
           inkscape:connector-curvature="0"
           id="path3873"
           d="m -24,13 c 0,1.105 -0.672,2 -1.5,2 -0.828,0 -1.5,-0.895 -1.5,-2 0,-1.105 0.672,-2 1.5,-2 0.828,0 1.5,0.895 1.5,2 z"
           transform="matrix(15.333,0,0,11.5,415,878.86)" />
      </g>
    </clipPath>
    <clipPath
       id="clipPath3883">
      <g
         id="g3881"
         transform="translate(0,-1004.4)">
        <path
           style="fill:#1890d0"
           inkscape:connector-curvature="0"
           id="path3879"
           d="m -24,13 c 0,1.105 -0.672,2 -1.5,2 -0.828,0 -1.5,-0.895 -1.5,-2 0,-1.105 0.672,-2 1.5,-2 0.828,0 1.5,0.895 1.5,2 z"
           transform="matrix(15.333,0,0,11.5,415,878.86)" />
      </g>
    </clipPath>
    <linearGradient
       inkscape:collect="always"
       xlink:href="#linearGradient5098"
       id="linearGradient5100"
       x1="23.533899"
       y1="42.101696"
       x2="23.347458"
       y2="-4.2711868"
       gradientUnits="userSpaceOnUse" />
  </defs>
  <metadata
     id="metadata4066">
    <rdf:RDF>
      <cc:Work
         rdf:about="">
        <dc:format>image/svg+xml</dc:format>
        <dc:type
           rdf:resource="http://purl.org/dc/dcmitype/StillImage" />
        <dc:title></dc:title>
      </cc:Work>
    </rdf:RDF>
  </metadata>
  <g
     id="g4206">
    <path
       id="path3818-0-5"
       d="m 41,41.5 a 17,5.5 0 0 1 -34,0 17,5.5 0 1 1 34,0 z"
       inkscape:connector-curvature="0"
       style="fill:url(#radialGradient3035)" />
    <path
       id="path2555-7-2"
       style="color:#000000;fill:url(#radialGradient3032)"
       d="M 24,3.5 C 12.689,3.5 3.5,12.689 3.5,24 3.5,35.311 12.689,44.5 24,44.5 35.311,44.5 44.5,35.311 44.5,24 44.5,12.689 35.311,3.5 24,3.5 Z"
       inkscape:connector-curvature="0" />
    <path
       id="path2555-7-65"
       style="color:#000000;fill:url(#linearGradient5100);fill-opacity:1"
       d="M 24,3.5 C 12.689,3.5 3.5,12.689 3.5,24 3.5,35.311 12.689,44.5 24,44.5 35.311,44.5 44.5,35.311 44.5,24 44.5,12.689 35.311,3.5 24,3.5 Z"
       inkscape:connector-curvature="0" />
    <path
       id="path4176"
       style="color:#000000;opacity:1;fill:none;stroke:#ffffff;stroke-width:2;stroke-linecap:round;stroke-linejoin:round;stroke-miterlimit:4;stroke-dasharray:none;stroke-opacity:0.98156684"
       d="M 43.5,24 C 43.5,34.77 34.77,43.5 24,43.5 13.23,43.5 4.5,34.77 4.5,24 4.5,13.23 13.23,4.5 24,4.5 34.77,4.5 43.5,13.23 43.5,24 Z"
       inkscape:connector-curvature="0" />
    <path
       id="path2555-7-1-7"
       style="color:#000000;opacity:1;fill:none;fill-opacity:1;stroke:#ffffff;stroke-width:0.2;stroke-linecap:round;stroke-linejoin:round;stroke-miterlimit:4;stroke-dasharray:none;stroke-opacity:1"
       d="m 24,3.5001 c -11.311,0 -20.5,9.1888 -20.5,20.5 0,11.3112 9.1888,20.5 20.5,20.5 11.3112,0 20.5,-9.1888 20.5,-20.5 0,-11.3112 -9.189,-20.5 -20.5,-20.5 z"
       inkscape:connector-curvature="0" />
    <g
       id="g4317"
       transform="matrix(1.0002,0,0,1.0004,-1.0018,-0.0050486)"
       style="fill:none;stroke:#000000;stroke-linecap:round;stroke-linejoin:round" />
    <g
       transform="matrix(0.68751009,0,0,0.68751009,7.4781573,9.1178674)"
       id="g3863">
      <path
         id="path4417"
         style="opacity:0.15;fill:none;stroke:#000000;stroke-width:2;stroke-linecap:round;stroke-linejoin:round;enable-background:new"
         d="m 23.387831,27.803102 c 3.2962,0 5.9684,-2.6818 5.9684,-6.0198 0,0 0.03966,-0.56545 -0.13188,-1.2039 h -9.1657 c 0.24743,-0.69714 0.69125,-1.3226 1.2939,-1.7401 1.3865,-1.1041 3.4864,-0.70261 4.6674,0.53613 h 2.8373 c -0.92139,-2.1251 -3.0227,-3.6119 -5.4694,-3.6119 -3.2962,0 -5.9684,2.6951 -5.9684,6.0197 0,0 0,0.61867 0.1187,1.204 h 9.1696 c -0.51598,1.3154 -1.7481,2.3814 -3.18,2.3938 -0.07168,0.004 -0.14304,0.004 -0.21447,0.002 -0.95989,-0.0196 -1.8913,-0.47874 -2.5389,-1.1922 h -2.856 c 0.9214,2.1251 3.0227,3.6119 5.4694,3.6119 z m 1.2907,9.1629 0.06653,-4.3333 c 4.4429,-0.5585 8.0506,-3.828 9.1448,-8.1156 h -2.8109 c -1.1528,3.0949 -4.2051,5.5086 -7.5408,5.4861 -0.0809,0.002 -0.16277,0.004 -0.24351,0.003 -1.2111,-0.007 -2.4015,-0.31055 -3.4806,-0.85427 -1.9436,-0.88246 -3.3868,-2.6264 -4.092,-4.6345 h -2.8321 c 1.0942,4.2876 4.7019,7.5572 9.1448,8.1156 v 4.3333 z m 9.2113,-17.916 c -1.0941,-4.2876 -4.7019,-7.5571 -9.1448,-8.1156 V 6.9668017 h -2.7104 v 3.9676003 c -4.4429,0.5585 -8.0507,3.828 -9.1448,8.1156 h 2.7924 c 1.0957,-3.2601 4.4822,-5.6045 7.9061,-5.4834 3.3336,-0.01701 6.3577,2.3849 7.4853,5.4834 z"
         inkscape:connector-curvature="0" />
      <path
         id="path4419"
         style="opacity:0.15;fill:none;stroke:#000000;stroke-linecap:round;stroke-linejoin:round;enable-background:new"
         d="m 23.387831,27.803102 c 3.2962,0 5.9684,-2.6818 5.9684,-6.0198 0,0 0.03966,-0.56545 -0.13188,-1.2039 h -9.1657 c 0.24743,-0.69714 0.69125,-1.3226 1.2939,-1.7401 1.3865,-1.1041 3.4864,-0.70261 4.6674,0.53613 h 2.8373 c -0.92139,-2.1251 -3.0227,-3.6119 -5.4694,-3.6119 -3.2962,0 -5.9684,2.6951 -5.9684,6.0197 0,0 0,0.61867 0.1187,1.204 h 9.1696 c -0.51598,1.3154 -1.7481,2.3814 -3.18,2.3938 -0.07168,0.004 -0.14304,0.004 -0.21447,0.002 -0.95989,-0.0196 -1.8913,-0.47874 -2.5389,-1.1922 h -2.856 c 0.9214,2.1251 3.0227,3.6119 5.4694,3.6119 z m 1.2907,9.1629 0.06653,-4.3333 c 4.4429,-0.5585 8.0506,-3.828 9.1448,-8.1156 h -2.8109 c -1.1528,3.0949 -4.2051,5.5086 -7.5408,5.4861 -0.0809,0.002 -0.16277,0.004 -0.24351,0.003 -1.2111,-0.007 -2.4015,-0.31055 -3.4806,-0.85427 -1.9436,-0.88246 -3.3868,-2.6264 -4.092,-4.6345 h -2.8321 c 1.0942,4.2876 4.7019,7.5572 9.1448,8.1156 v 4.3333 z m 9.2113,-17.916 c -1.0941,-4.2876 -4.7019,-7.5571 -9.1448,-8.1156 V 6.9668017 h -2.7104 v 3.9676003 c -4.4429,0.5585 -8.0507,3.828 -9.1448,8.1156 h 2.7924 c 1.0957,-3.2601 4.4822,-5.6045 7.9061,-5.4834 3.3336,-0.01701 6.3577,2.3849 7.4853,5.4834 z"
         inkscape:connector-curvature="0" />
      <path
         id="path3873-0"
         style="fill:#ffffff;enable-background:new"
         d="m 23.387831,27.803102 c 3.2962,0 5.9684,-2.6818 5.9684,-6.0198 0,0 0.03966,-0.56545 -0.13188,-1.2039 h -9.1657 c 0.24743,-0.69714 0.69125,-1.3226 1.2939,-1.7401 1.3865,-1.1041 3.4864,-0.70261 4.6674,0.53613 h 2.8373 c -0.92139,-2.1251 -3.0227,-3.6119 -5.4694,-3.6119 -3.2962,0 -5.9684,2.6951 -5.9684,6.0197 0,0 0,0.61867 0.1187,1.204 h 9.1696 c -0.51598,1.3154 -1.7481,2.3814 -3.18,2.3938 -0.07168,0.004 -0.14304,0.004 -0.21447,0.002 -0.95989,-0.0196 -1.8913,-0.47874 -2.5389,-1.1922 h -2.856 c 0.9214,2.1251 3.0227,3.6119 5.4694,3.6119 z m 1.2907,9.1629 0.06653,-4.3333 c 4.4429,-0.5585 8.0506,-3.828 9.1448,-8.1156 h -2.8109 c -1.1528,3.0949 -4.2051,5.5086 -7.5408,5.4861 -0.0809,0.002 -0.16277,0.004 -0.24351,0.003 -1.2111,-0.007 -2.4015,-0.31055 -3.4806,-0.85427 -1.9436,-0.88246 -3.3868,-2.6264 -4.092,-4.6345 h -2.8321 c 1.0942,4.2876 4.7019,7.5572 9.1448,8.1156 v 4.3333 z m 9.2113,-17.916 c -1.0941,-4.2876 -4.7019,-7.5571 -9.1448,-8.1156 V 6.9668017 h -2.7104 v 3.9676003 c -4.4429,0.5585 -8.0507,3.828 -9.1448,8.1156 h 2.7924 c 1.0957,-3.2601 4.4822,-5.6045 7.9061,-5.4834 3.3336,-0.01701 6.3577,2.3849 7.4853,5.4834 z"
         inkscape:connector-curvature="0" />
    </g>
  </g>
</svg>
