<?xml version="1.0" encoding="UTF-8" standalone="no"?>
<!-- Created with Inkscape (http://www.inkscape.org/) -->

<svg
   xmlns:dc="http://purl.org/dc/elements/1.1/"
   xmlns:cc="http://creativecommons.org/ns#"
   xmlns:rdf="http://www.w3.org/1999/02/22-rdf-syntax-ns#"
   xmlns:svg="http://www.w3.org/2000/svg"
   xmlns="http://www.w3.org/2000/svg"
   xmlns:xlink="http://www.w3.org/1999/xlink"
   xmlns:sodipodi="http://sodipodi.sourceforge.net/DTD/sodipodi-0.dtd"
   xmlns:inkscape="http://www.inkscape.org/namespaces/inkscape"
   id="svg4951"
   height="48px"
   width="48px"
   version="1.1"
   inkscape:version="0.92.0 unknown"
   sodipodi:docname="systemback.svg">
  <sodipodi:namedview
     pagecolor="#ffffff"
     bordercolor="#666666"
     borderopacity="1"
     objecttolerance="10"
     gridtolerance="10"
     guidetolerance="10"
     inkscape:pageopacity="0"
     inkscape:pageshadow="2"
     inkscape:window-width="1795"
     inkscape:window-height="897"
     id="namedview34"
     showgrid="false"
     inkscape:zoom="6.9532166"
     inkscape:cx="-12.908327"
     inkscape:cy="13.375421"
     inkscape:window-x="258"
     inkscape:window-y="131"
     inkscape:window-maximized="0"
     inkscape:current-layer="layer1" />
  <defs
     id="defs4953">
    <linearGradient
       id="linearGradient3214"
       y2="40.496"
       gradientUnits="userSpaceOnUse"
       x2="71.204"
       gradientTransform="matrix(1.617,-1.6797822e-8,1.6797822e-8,1.617,-92.706999,-21.06)"
       y1="15.369"
       x1="71.204">
      <stop
         id="stop4808-4"
         stop-color="#fff"
         offset="0" />
      <stop
         id="stop4810-0"
         stop-color="#fff"
         stop-opacity=".23529"
         offset=".42448" />
      <stop
         id="stop4812-8"
         stop-color="#fff"
         stop-opacity=".15686"
         offset=".82090" />
      <stop
         id="stop4814-0"
         stop-color="#fff"
         stop-opacity=".39216"
         offset="1" />
    </linearGradient>
    <radialGradient
       id="radialGradient3217"
       gradientUnits="userSpaceOnUse"
       cy="3.99"
       cx="23.896"
       gradientTransform="matrix(0 2.8885 -3.8128 0 39.213 -65.95)"
       r="20.397">
      <stop
         id="stop3244-9-33-7-0-6"
         stop-color="#9cdd66"
         offset="0" />
      <stop
         id="stop3248-1-7-8-8-6"
         stop-color="#386727"
         offset=".66094" />
      <stop
         id="stop3250-9-3-0-5-2"
         stop-color="#2e5527"
         offset="1" />
    </radialGradient>
    <radialGradient
       id="radialGradient3220"
       gradientUnits="userSpaceOnUse"
       cy="186.17"
       cx="99.157"
       gradientTransform="matrix(.27083 0 0 .087623 -2.8551 25.187)"
       r="62.769">
      <stop
         id="stop3822-2-6-3"
         stop-color="#3d3d3d"
         offset="0" />
      <stop
         id="stop3864-8-7-7"
         stop-color="#686868"
         stop-opacity=".49804"
         offset=".5" />
      <stop
         id="stop3824-1-2-5"
         stop-color="#686868"
         stop-opacity="0"
         offset="1" />
    </radialGradient>
    <linearGradient
       id="linearGradient4589"
       y2="44.272"
       gradientUnits="userSpaceOnUse"
       x2="23.911"
       y1="3.248"
       x1="22.174">
      <stop
         id="stop3992-0-0-1"
         stop-color="#fff"
         offset="0" />
      <stop
         id="stop3994-2-1-8"
         stop-color="#fff"
         stop-opacity="0"
         offset="1" />
    </linearGradient>
    <linearGradient
       id="linearGradient4433"
       y2="25.611"
       gradientUnits="userSpaceOnUse"
       x2="23.078"
       gradientTransform="matrix(1 0 0 1.0521 0 -.90547)"
       y1="13.035"
       x1="22.759">
      <stop
         id="stop6305-1-0-2"
         stop-color="#fff"
         offset="0" />
      <stop
         id="stop6307-5-0-6"
         stop-color="#fff"
         stop-opacity="0"
         offset="1" />
    </linearGradient>
    <linearGradient
       id="linearGradient5423">
      <stop
         style="stop-color:#00847b;stop-opacity:1;"
         offset="0"
         id="stop5425" />
      <stop
         style="stop-color:#002126;stop-opacity:1;"
         offset="1"
         id="stop5427" />
    </linearGradient>
    <linearGradient
       inkscape:collect="always"
       xlink:href="#linearGradient5423"
       id="linearGradient4931"
       x1="23.873844"
       y1="4.1354113"
       x2="23.586206"
       y2="43.253994"
       gradientUnits="userSpaceOnUse" />
  </defs>
  <metadata
     id="metadata4956">
    <rdf:RDF>
      <cc:Work
         rdf:about="">
        <dc:format>image/svg+xml</dc:format>
        <dc:type
           rdf:resource="http://purl.org/dc/dcmitype/StillImage" />
        <dc:title></dc:title>
      </cc:Work>
    </rdf:RDF>
  </metadata>
  <g
     id="layer1">
    <path
       id="path3818-0-5"
       d="m 41,41.5 a 17,5.5 0 0 1 -34,0 17,5.5 0 1 1 34,0 z"
       inkscape:connector-curvature="0"
       style="fill:url(#radialGradient3220)" />
    <path
       id="path2555-7-2"
       style="color:#000000;fill:url(#linearGradient4931);fill-opacity:1"
       d="m 14.728446,42.283569 c 10.088065,5.115629 22.43938,1.076225 27.555099,-9.01202 C 47.399264,23.183305 43.359769,10.832168 33.271524,5.7164493 23.18328,0.6007302 10.832145,4.640226 5.7164259,14.72847 0.60070646,24.816715 4.6403806,37.167941 14.728446,42.283569 Z"
       inkscape:connector-curvature="0" />
    <path
       id="path4176"
       style="color:#000000;opacity:1;fill:none;stroke:#ffffff;stroke-width:2.0999999;stroke-linecap:round;stroke-linejoin:round;stroke-miterlimit:4;stroke-dasharray:none;stroke-opacity:1"
       d="M 8.5023114,12.164813 C 15.038977,3.6053202 27.275695,1.965647 35.835187,8.5023114 44.39468,15.038977 46.034353,27.275695 39.497688,35.835187 32.961023,44.39468 20.724304,46.034353 12.164813,39.497688 3.6053202,32.961023 1.9656471,20.724304 8.5023114,12.164813 Z"
       inkscape:connector-curvature="0" />
    <g
       id="g4400"
       transform="matrix(0.54545,0,0,0.54545,6.9091,6.9091)" />
    <g
       id="g4283"
       transform="matrix(0.40829654,-0.75076523,0.70719036,0.4334545,-3.041603,31.525938)"
       style="fill:#ffffff">
      <g
         id="g4662"
         transform="matrix(-0.057907,-0.65658,0.65658,-0.057907,8.0240243,7.0703537)"
         style="opacity:0.15;fill:#ffffff;fill-opacity:1;stroke:#ffffff;stroke-width:1.51719999;stroke-opacity:1">
        <g
           id="g4664"
           transform="matrix(0.045744,0,0,0.045744,-48.715,0.88763)"
           style="fill:#ffffff;fill-opacity:1;stroke:#ffffff;stroke-width:33.16600037;stroke-opacity:1">
          <g
             style="fill:#ffffff;fill-opacity:1;stroke:#ffffff;stroke-opacity:1"
             id="g4666">
            <path
               id="path4668"
               d="m 862.38,228.53 39.4,-37.6 c 13.899,-13.3 8.2,-36.7 -10.2,-42.1 l -227.9,-66.8 c -18.5,-5.4 -35.899,11.2 -31.3,29.9 l 56,230.7 c 4.5,18.7 27.601,25.5 41.601,12.2 l 32.699,-31.2 c 12,31 19.801,63.6 23.301,97.5 6.5,62.2 -2.301,125.4 -25.601,183 -19.6,48.5 -49.399,92.898 -86.8,129.7 -9.4,9.301 -10.1,24.301 -1.4,34.301 l 52.5,60.5 c 9.4,10.799 25.9,11.5 36.301,1.6 51.8,-49.9 93,-110.7 120,-177.2 31.3,-77.199 43.1,-162 34.399,-245.4 -6.7,-63.3 -24.5,-123.3 -53,-179.1 z"
               inkscape:connector-curvature="0"
               style="fill:#ffffff;fill-opacity:1;stroke:#ffffff;stroke-width:33.16600037;stroke-opacity:1" />
          </g>
          <path
             style="fill:#ffffff;fill-opacity:1;stroke:#ffffff;stroke-opacity:1"
             id="path4670"
             d="m 55.779,689.63 -39.4,37.6 c -13.9,13.299 -8.2,36.699 10.2,42.1 l 227.9,66.801 c 18.5,5.398 35.9,-11.201 31.3,-29.9 l -56,-230.7 c -4.5,-18.699 -27.6,-25.5 -41.6,-12.199 l -32.7,31.199 c -12,-31 -19.8,-63.6 -23.3,-97.5 -6.5,-62.2 2.3,-125.4 25.6,-183 19.6,-48.5 49.4,-92.9 86.8,-129.7 9.4,-9.3 10.1,-24.3 1.4,-34.3 l -52.5,-60.5 c -9.4,-10.8 -25.9,-11.5 -36.3,-1.6 -51.8,49.9 -93,110.7 -120,177.2 -31.3,77.2 -43.1,162 -34.4,245.4 6.7,63.3 24.5,123.3 53,179.1 z"
             inkscape:connector-curvature="0" />
        </g>
      </g>
      <g
         id="g4652"
         transform="matrix(-0.057907,-0.65658,0.65658,-0.057907,8.0240243,7.5706537)"
         style="opacity:0.3;fill:#ffffff;fill-opacity:1">
        <g
           id="g4654"
           transform="matrix(0.045744,0,0,0.045744,-48.715,0.88763)"
           style="fill:#ffffff;fill-opacity:1">
          <g
             style="fill:#ffffff;fill-opacity:1"
             id="g4656">
            <path
               id="path4658"
               d="m 862.38,228.53 39.4,-37.6 c 13.899,-13.3 8.2,-36.7 -10.2,-42.1 l -227.9,-66.8 c -18.5,-5.4 -35.899,11.2 -31.3,29.9 l 56,230.7 c 4.5,18.7 27.601,25.5 41.601,12.2 l 32.699,-31.2 c 12,31 19.801,63.6 23.301,97.5 6.5,62.2 -2.301,125.4 -25.601,183 -19.6,48.5 -49.399,92.898 -86.8,129.7 -9.4,9.301 -10.1,24.301 -1.4,34.301 l 52.5,60.5 c 9.4,10.799 25.9,11.5 36.301,1.6 51.8,-49.9 93,-110.7 120,-177.2 31.3,-77.199 43.1,-162 34.399,-245.4 -6.7,-63.3 -24.5,-123.3 -53,-179.1 z"
               inkscape:connector-curvature="0"
               style="fill:#ffffff;fill-opacity:1" />
          </g>
          <path
             style="fill:#ffffff;fill-opacity:1"
             id="path4660"
             d="m 55.779,689.63 -39.4,37.6 c -13.9,13.299 -8.2,36.699 10.2,42.1 l 227.9,66.801 c 18.5,5.398 35.9,-11.201 31.3,-29.9 l -56,-230.7 c -4.5,-18.699 -27.6,-25.5 -41.6,-12.199 l -32.7,31.199 c -12,-31 -19.8,-63.6 -23.3,-97.5 -6.5,-62.2 2.3,-125.4 25.6,-183 19.6,-48.5 49.4,-92.9 86.8,-129.7 9.4,-9.3 10.1,-24.3 1.4,-34.3 l -52.5,-60.5 c -9.4,-10.8 -25.9,-11.5 -36.3,-1.6 -51.8,49.9 -93,110.7 -120,177.2 -31.3,77.2 -43.1,162 -34.4,245.4 6.7,63.3 24.5,123.3 53,179.1 z"
             inkscape:connector-curvature="0" />
        </g>
      </g>
      <g
         id="g4565"
         transform="matrix(-0.057907,-0.65658,0.65658,-0.057907,8.0240243,7.0703537)"
         style="fill:#ffffff;fill-opacity:1">
        <g
           id="g4464"
           transform="matrix(0.045744,0,0,0.045744,-48.715,0.88763)"
           style="fill:#ffffff;fill-opacity:1">
          <g
             style="fill:#ffffff;fill-opacity:1"
             id="g4466">
            <path
               id="path4468"
               transform="matrix(-2.913779,33.037958,-33.037958,-2.913779,1321.9187,-263.90022)"
               d="m 24.064453,10.146484 c -0.943397,0.009 -1.88767,0.104313 -2.818359,0.285157 -1.883443,0.368907 -3.637845,1.062611 -5.238282,2.066406 l -1.234374,-1.083985 c -0.436278,-0.38222 -1.124835,-0.148971 -1.238282,0.417969 l -1.402344,7.021485 c -0.113182,0.569944 0.432958,1.048991 0.982422,0.861328 l 6.779297,-2.292969 c 0.549727,-0.18469 0.692404,-0.895996 0.25586,-1.28125 l -1.023438,-0.900391 c 0.899286,-0.442531 1.858286,-0.764065 2.867188,-0.958984 1.850934,-0.359986 3.772741,-0.262073 5.564453,0.285156 1.508596,0.460207 2.920595,1.237833 4.125,2.263672 0.304251,0.257688 0.755902,0.238962 1.033203,-0.04883 l 1.679687,-1.738281 c 0.299444,-0.310931 0.276066,-0.807585 -0.04883,-1.09375 C 32.711715,12.525605 30.77585,11.449233 28.707029,10.814451 27.20606,10.354707 25.63678,10.131419 24.064451,10.146482 Z m 11.025391,18.097657 c -0.06725,0.0038 -0.136399,0.01755 -0.205078,0.04102 l -6.779297,2.292969 c -0.549697,0.184687 -0.692434,0.895999 -0.25586,1.28125 l 1.023438,0.900391 c -0.899286,0.442531 -1.858286,0.762112 -2.867188,0.957031 -1.850934,0.359986 -3.772741,0.264026 -5.564453,-0.283203 -1.508596,-0.460207 -2.920658,-1.237858 -4.125,-2.263672 -0.304221,-0.257691 -0.755902,-0.238962 -1.033203,0.04883 l -1.679687,1.736328 c -0.299474,0.310933 -0.276063,0.809568 0.04883,1.095703 1.635939,1.423612 3.571804,2.499984 5.640625,3.134766 2.401581,0.735588 4.979097,0.865031 7.460937,0.382812 1.883443,-0.368907 3.637845,-1.062611 5.238282,-2.066406 l 1.234374,1.083985 c 0.43625,0.382253 1.124805,0.148974 1.238282,-0.417969 l 1.402344,-7.021485 c 0.09898,-0.498696 -0.306568,-0.928676 -0.777344,-0.902343 z"
               style="fill:#ffffff;fill-opacity:1"
               inkscape:connector-curvature="0" />
          </g>
        </g>
      </g>
      <g
         style="fill:#ffffff;fill-opacity:1"
         transform="matrix(-0.057907,-0.65658,0.65658,-0.057907,8.0240243,7.0703537)"
         id="g4238">
        <g
           style="fill:#ffffff;fill-opacity:1"
           transform="matrix(0.045744,0,0,0.045744,-48.715,0.88763)"
           id="g4240">
          <g
             id="g4242"
             style="fill:#ffffff;fill-opacity:1">
            <path
               id="path4244"
               transform="matrix(-2.913779,33.037958,-33.037958,-2.913779,1321.9187,-263.90022)"
               d="m 24.064453,10.146484 c -0.943397,0.009 -1.88767,0.104313 -2.818359,0.285157 -1.883443,0.368907 -3.637844,1.062611 -5.238282,2.066406 l -1.234374,-1.083985 c -0.436279,-0.38222 -1.124835,-0.148971 -1.238282,0.417969 l -1.402344,7.021485 c -0.113182,0.569944 0.432958,1.048991 0.982422,0.861328 l 6.779297,-2.292969 c 0.549727,-0.18469 0.692404,-0.895996 0.25586,-1.28125 l -1.023438,-0.900391 c 0.899286,-0.442531 1.858286,-0.764065 2.867188,-0.958984 1.850934,-0.359986 3.772741,-0.262073 5.564453,0.285156 1.508596,0.460207 2.920595,1.237833 4.125,2.263672 0.304251,0.257688 0.755902,0.238962 1.033203,-0.04883 l 1.679687,-1.738281 c 0.299444,-0.310931 0.276066,-0.807585 -0.04883,-1.09375 C 32.711715,12.525605 30.77585,11.449233 28.707029,10.814451 27.20606,10.354707 25.63678,10.131419 24.064451,10.146482 Z m 0.0098,1 c 1.471294,-0.01409 2.938805,0.195865 4.339843,0.625 v -0.002 c 1.850423,0.56777 3.577208,1.537501 5.064454,2.785157 L 32.142578,15.9375 c -1.26796,-1.040634 -2.722529,-1.849397 -4.291016,-2.328125 h -0.002 c -1.950363,-0.59535 -4.035887,-0.701661 -6.046875,-0.310547 -1.093451,0.211421 -2.137926,0.563036 -3.117187,1.044922 a 1.0001,1.0001 0 0 0 -0.21875,1.646484 l 0.705078,0.621094 -5.974609,2.019531 1.234375,-6.185547 0.916015,0.804688 a 1.0001,1.0001 0 0 0 1.191406,0.0957 c 1.497448,-0.9392 3.132104,-1.587625 4.898438,-1.933594 v 0.002 c 0.87092,-0.16923 1.754246,-0.259122 2.636719,-0.267578 z m 11.015625,17.097657 c -0.06725,0.0038 -0.136399,0.01755 -0.205078,0.04102 l -6.779297,2.292969 c -0.549697,0.184687 -0.692434,0.895999 -0.25586,1.28125 l 1.023438,0.900391 c -0.899286,0.442531 -1.858286,0.762112 -2.867188,0.957031 -1.850934,0.359986 -3.772741,0.264026 -5.564453,-0.283203 -1.508596,-0.460207 -2.920658,-1.237858 -4.125,-2.263672 -0.304221,-0.257691 -0.755902,-0.238962 -1.033203,0.04883 l -1.679687,1.736328 c -0.299474,0.310933 -0.276063,0.809568 0.04883,1.095703 1.635939,1.423612 3.571804,2.499984 5.640625,3.134766 2.401581,0.735588 4.979097,0.865031 7.460937,0.382812 1.883443,-0.368907 3.637844,-1.062611 5.238282,-2.066406 l 1.234374,1.083985 c 0.436251,0.382253 1.124805,0.148974 1.238282,-0.417969 l 1.402344,-7.021485 c 0.09898,-0.498696 -0.306568,-0.928676 -0.777344,-0.902343 z m -0.28711,1.125 -1.234375,6.185547 L 32.652344,34.75 a 1.0001,1.0001 0 0 0 -1.191406,-0.0957 c -1.497449,0.9392 -3.132104,1.587625 -4.898438,1.933594 v -0.002 c -2.321697,0.451102 -4.735145,0.329109 -6.976562,-0.357422 v 0.002 C 17.735515,35.662699 16.00873,34.692968 14.521484,33.445312 L 15.857422,32.0625 c 1.267924,1.040628 2.722527,1.849396 4.291016,2.328125 1.950906,0.595851 4.036514,0.699262 6.046874,0.308594 1.092902,-0.211148 2.138282,-0.560297 3.119141,-1.042969 a 1.0001,1.0001 0 0 0 0.21875,-1.646484 l -0.705078,-0.621094 5.974609,-2.019531 z"
               style="opacity:0.15;fill:#ffffff;fill-opacity:1"
               inkscape:connector-curvature="0" />
          </g>
        </g>
      </g>
    </g>
  </g>
</svg>
