<?xml version="1.0" encoding="UTF-8" standalone="no"?>
<!-- Created with Inkscape (http://www.inkscape.org/) -->

<svg
   xmlns:dc="http://purl.org/dc/elements/1.1/"
   xmlns:cc="http://creativecommons.org/ns#"
   xmlns:rdf="http://www.w3.org/1999/02/22-rdf-syntax-ns#"
   xmlns:svg="http://www.w3.org/2000/svg"
   xmlns="http://www.w3.org/2000/svg"
   xmlns:sodipodi="http://sodipodi.sourceforge.net/DTD/sodipodi-0.dtd"
   xmlns:inkscape="http://www.inkscape.org/namespaces/inkscape"
   width="48"
   height="48"
   id="svg7474"
   version="1.1"
   inkscape:version="0.92.0 unknown"
   sodipodi:docname="notes.svg">
  <defs
     id="defs7476" />
  <sodipodi:namedview
     id="base"
     pagecolor="#ffffff"
     bordercolor="#666666"
     borderopacity="1.0"
     inkscape:pageopacity="0.0"
     inkscape:pageshadow="2"
     inkscape:zoom="8.0000002"
     inkscape:cx="-7.9743315"
     inkscape:cy="22.889461"
     inkscape:document-units="px"
     inkscape:current-layer="layer1"
     showgrid="false"
     inkscape:window-width="1861"
     inkscape:window-height="1067"
     inkscape:window-x="386"
     inkscape:window-y="157"
     inkscape:window-maximized="0" />
  <metadata
     id="metadata7479">
    <rdf:RDF>
      <cc:Work
         rdf:about="">
        <dc:format>image/svg+xml</dc:format>
        <dc:type
           rdf:resource="http://purl.org/dc/dcmitype/StillImage" />
        <dc:title></dc:title>
      </cc:Work>
    </rdf:RDF>
  </metadata>
  <g
     inkscape:label="Layer 1"
     inkscape:groupmode="layer"
     id="layer1"
     transform="translate(0,-1004.3622)">
    <path
       style="color:#000000;display:inline;overflow:visible;visibility:visible;fill:#000000;fill-opacity:0.18644068;fill-rule:nonzero;stroke:none;stroke-width:0.2;marker:none;enable-background:accumulate"
       d="m 4.776699,1010.6835 32.771672,-5.3213 6.187847,39.1858 -0.08735,1.0154 -38.9033051,-34.8289 -0.036648,-0.011 z"
       id="rect15858-1-0"
       inkscape:connector-curvature="0"
       sodipodi:nodetypes="ccccccc" />
    <path
       style="color:#000000;display:inline;overflow:visible;visibility:visible;fill:#000000;fill-opacity:0.18644068;fill-rule:nonzero;stroke:none;stroke-width:0.2;marker:none;enable-background:accumulate"
       d="m 43.749852,1046.1205 -33.298512,5.2417 -5.7510722,-40.1457 -10e-8,-0.494 39.0124763,34.8941 0.03687,0.011 z"
       id="rect15858-1"
       inkscape:connector-curvature="0"
       sodipodi:nodetypes="ccccccc" />
    <rect
       style="color:#000000;display:inline;overflow:visible;visibility:visible;opacity:1;fill:#f9f9f9;fill-opacity:1;fill-rule:nonzero;stroke:none;stroke-width:0.2;stroke-linecap:round;stroke-linejoin:miter;stroke-miterlimit:4;stroke-dasharray:none;stroke-dashoffset:0;stroke-opacity:1;marker:none;enable-background:accumulate"
       id="rect15858"
       width="33.115639"
       height="40.579132"
       x="-153.28822"
       y="999.04059"
       transform="rotate(-8.9896015)" />
    <g
       id="g16048"
       transform="matrix(0.24707157,0,0,0.24707157,-0.7649689,793.2284)">
      <path
         style="color:#000000;font-style:normal;font-variant:normal;font-weight:normal;font-stretch:normal;font-size:medium;line-height:normal;font-family:Sans;-inkscape-font-specification:Sans;text-indent:0;text-align:start;text-decoration:none;text-decoration-line:none;letter-spacing:normal;word-spacing:normal;text-transform:none;writing-mode:lr-tb;direction:ltr;baseline-shift:baseline;text-anchor:start;display:inline;overflow:visible;visibility:visible;fill:#808080;fill-opacity:1;stroke:none;stroke-width:1px;marker:none;enable-background:accumulate"
         d="M 157.75,27.53125 25.46875,49 25.625,50 157.90625,28.5 Z m 1.84375,11.5625 -132.3125,21.4375 0.15625,1 L 159.75,40.0625 Z m 1.8125,11.53125 -132.3125,21.4375 0.15625,1 132.3125,-21.46875 z m 1.875,11.9375 L 31,84 31.15625,85 163.4375,63.53125 Z M 165.125,74.125 32.8125,95.5625 l 0.15625,1 132.3125,-21.46875 z m 1.8125,11.5 -132.28125,21.46875 0.15625,1 132.28125,-21.5 z M 168.78125,97.34375 36.5,118.8125 l 0.15625,1 132.3125,-21.46875 z m 1.84375,11.5625 -132.3125,21.4375 0.15625,1 132.3125,-21.4375 z m 1.8125,11.5625 -132.28125,21.40625 0.15625,1 132.28125,-21.4375 z m 1.96875,12.3125 -132.3125,21.4375 0.15625,1 L 174.5625,133.75 Z m 1.8125,11.53125 -132.28125,21.4375 0.15625,1 132.28125,-21.46875 z m 1.8125,11.53125 -132.28125,21.4375 0.15625,1 132.28125,-21.46875 z"
         transform="translate(0,852.36218)"
         id="path15862"
         inkscape:connector-curvature="0" />
    </g>
    <path
       style="fill:#262b2d;fill-opacity:1;stroke:none;stroke-width:1px;stroke-linecap:butt;stroke-linejoin:miter;stroke-opacity:1"
       d="m 28.17219,1048.1129 c 0,0 0.430154,-0.2517 1.273954,0.3466 l -0.159929,0.1657 c 0,0 -0.336418,-0.446 -0.954091,-0.3076 z"
       id="path8069"
       inkscape:connector-curvature="0" />
    <path
       style="fill:#242421;fill-opacity:1;stroke:none;stroke-width:1px;stroke-linecap:butt;stroke-linejoin:miter;stroke-opacity:1"
       d="m 35.922491,1051.6569 c 0,0 -0.270251,0.8999 -0.333669,1.2273 0,0 0.01376,0.048 0.0965,0.066 l 0.410879,-1.2898 z"
       id="path8071"
       inkscape:connector-curvature="0" />
    <rect
       style="fill:#ffcd00;fill-opacity:1;fill-rule:evenodd;stroke:#000000;stroke-width:0;stroke-linecap:butt;stroke-linejoin:miter;stroke-miterlimit:4;stroke-dasharray:none;stroke-opacity:1"
       id="rect3879"
       width="33.095474"
       height="5.5882053"
       x="-156.70416"
       y="998.85828"
       rx="0"
       ry="2.2311928"
       transform="matrix(0.98747601,-0.1577692,0.15962413,0.98717787,0,0)" />
  </g>
</svg>
