<?xml version="1.0" encoding="UTF-8" standalone="no"?>
<!-- Created with Inkscape (http://www.inkscape.org/) -->

<svg
   xmlns:dc="http://purl.org/dc/elements/1.1/"
   xmlns:cc="http://creativecommons.org/ns#"
   xmlns:rdf="http://www.w3.org/1999/02/22-rdf-syntax-ns#"
   xmlns:svg="http://www.w3.org/2000/svg"
   xmlns="http://www.w3.org/2000/svg"
   xmlns:xlink="http://www.w3.org/1999/xlink"
   xmlns:sodipodi="http://sodipodi.sourceforge.net/DTD/sodipodi-0.dtd"
   xmlns:inkscape="http://www.inkscape.org/namespaces/inkscape"
   id="svg4061"
   height="48"
   width="48"
   version="1.1"
   inkscape:version="0.92.0 unknown"
   sodipodi:docname="xnoise.svg">
  <sodipodi:namedview
     pagecolor="#ffffff"
     bordercolor="#666666"
     borderopacity="1"
     objecttolerance="10"
     gridtolerance="10"
     guidetolerance="10"
     inkscape:pageopacity="0"
     inkscape:pageshadow="2"
     inkscape:window-width="1378"
     inkscape:window-height="894"
     id="namedview40"
     showgrid="false"
     inkscape:zoom="9.8333333"
     inkscape:cx="21.119087"
     inkscape:cy="30.284885"
     inkscape:window-x="79"
     inkscape:window-y="96"
     inkscape:window-maximized="0"
     inkscape:current-layer="g4206" />
  <defs
     id="defs4063">
    <linearGradient
       inkscape:collect="always"
       id="linearGradient4901">
      <stop
         style="stop-color:#c837ab;stop-opacity:1;"
         offset="0"
         id="stop4897" />
      <stop
         style="stop-color:#c837ab;stop-opacity:0;"
         offset="1"
         id="stop4899" />
    </linearGradient>
    <linearGradient
       id="linearGradient3026"
       y2="40.495998"
       gradientUnits="userSpaceOnUse"
       x2="71.204002"
       gradientTransform="matrix(1.617,0,0,1.617,-92.707,-21.06)"
       y1="15.369"
       x1="71.204002"
       spreadMethod="pad">
      <stop
         id="stop4808-4"
         stop-color="#fff"
         offset="0" />
      <stop
         id="stop4810-0"
         stop-color="#fff"
         stop-opacity=".23529"
         offset=".42448" />
      <stop
         id="stop4812-8"
         stop-color="#fff"
         stop-opacity=".15686"
         offset=".82090" />
      <stop
         id="stop4814-0"
         stop-color="#fff"
         stop-opacity=".39216"
         offset="1" />
    </linearGradient>
    <radialGradient
       id="radialGradient3029"
       fx="4.459"
       fy="8.5089"
       gradientUnits="userSpaceOnUse"
       cy="8.6258"
       cx="15.026"
       gradientTransform="matrix(-3.4973e-8 1.8855 -1.7764 -5.4723e-8 39.14 -7.9932)"
       r="20">
      <stop
         id="stop4170"
         stop-color="#c24251"
         offset="0" />
      <stop
         id="stop4172"
         stop-color="#c24251"
         offset=".26238" />
      <stop
         id="stop4174"
         stop-color="#a63643"
         offset=".66094" />
      <stop
         id="stop4176"
         stop-color="#a63643"
         offset="1" />
    </radialGradient>
    <radialGradient
       id="radialGradient3032"
       gradientUnits="userSpaceOnUse"
       cy="3.99"
       cx="23.896"
       gradientTransform="matrix(0 2.8885 -3.8128 0 39.213 -65.95)"
       r="20.397">
      <stop
         id="stop3244-9-33-7-0-9"
         stop-color="#fff"
         offset="0" />
      <stop
         id="stop3246-3-5-0-8-5"
         stop-color="#ddd"
         offset=".26238" />
      <stop
         id="stop3248-1-7-8-8-1"
         stop-color="#abacae"
         offset=".66094" />
      <stop
         id="stop3250-9-3-0-5-1"
         stop-color="#89898b"
         offset="1" />
    </radialGradient>
    <radialGradient
       id="radialGradient3035"
       gradientUnits="userSpaceOnUse"
       cy="186.17"
       cx="99.157"
       gradientTransform="matrix(.27083 0 0 .087623 -2.8551 25.187)"
       r="62.769">
      <stop
         id="stop3822-2-6-3"
         stop-color="#3d3d3d"
         offset="0" />
      <stop
         id="stop3864-8-7-7"
         stop-color="#686868"
         stop-opacity=".49804"
         offset=".5" />
      <stop
         id="stop3824-1-2-5"
         stop-color="#686868"
         stop-opacity="0"
         offset="1" />
    </radialGradient>
    <linearGradient
       id="linearGradient4433"
       y2="25.611"
       gradientUnits="userSpaceOnUse"
       x2="23.078"
       gradientTransform="matrix(1 0 0 1.0521 0 -.90547)"
       y1="13.035"
       x1="22.759">
      <stop
         id="stop6305-1-0-2"
         stop-color="#fff"
         offset="0" />
      <stop
         id="stop6307-5-0-6"
         stop-color="#fff"
         stop-opacity="0"
         offset="1" />
    </linearGradient>
    <linearGradient
       id="linearGradient4829">
      <stop
         style="stop-color:#f4fbfc;stop-opacity:1;"
         offset="0"
         id="stop4831" />
      <stop
         style="stop-color:#d6d6d6;stop-opacity:1;"
         offset="1"
         id="stop4833" />
    </linearGradient>
    <linearGradient
       id="linearGradient4213"
       y2="37.305"
       gradientUnits="userSpaceOnUse"
       x2="21.434999"
       y1="13.905"
       x1="21.511999">
      <stop
         id="stop2240"
         stop-color="#fff"
         offset="0" />
      <stop
         id="stop2242"
         stop-color="#fff"
         stop-opacity="0"
         offset="1" />
    </linearGradient>
    <clipPath
       id="clipPath-993779242">
      <g
         id="g17"
         transform="translate(0,-1004.4)">
        <path
           style="fill:#1890d0"
           inkscape:connector-curvature="0"
           id="path19"
           d="m -24,13 c 0,1.105 -0.672,2 -1.5,2 -0.828,0 -1.5,-0.895 -1.5,-2 0,-1.105 0.672,-2 1.5,-2 0.828,0 1.5,0.895 1.5,2 z"
           transform="matrix(15.333,0,0,11.5,415,878.86)" />
      </g>
    </clipPath>
    <clipPath
       id="clipPath3877">
      <g
         id="g3875"
         transform="translate(0,-1004.4)">
        <path
           style="fill:#1890d0"
           inkscape:connector-curvature="0"
           id="path3873"
           d="m -24,13 c 0,1.105 -0.672,2 -1.5,2 -0.828,0 -1.5,-0.895 -1.5,-2 0,-1.105 0.672,-2 1.5,-2 0.828,0 1.5,0.895 1.5,2 z"
           transform="matrix(15.333,0,0,11.5,415,878.86)" />
      </g>
    </clipPath>
    <clipPath
       id="clipPath3883">
      <g
         id="g3881"
         transform="translate(0,-1004.4)">
        <path
           style="fill:#1890d0"
           inkscape:connector-curvature="0"
           id="path3879"
           d="m -24,13 c 0,1.105 -0.672,2 -1.5,2 -0.828,0 -1.5,-0.895 -1.5,-2 0,-1.105 0.672,-2 1.5,-2 0.828,0 1.5,0.895 1.5,2 z"
           transform="matrix(15.333,0,0,11.5,415,878.86)" />
      </g>
    </clipPath>
    <linearGradient
       inkscape:collect="always"
       xlink:href="#linearGradient4901"
       id="linearGradient4905"
       x1="23.432203"
       y1="42"
       x2="23.957626"
       y2="-16.474577"
       gradientUnits="userSpaceOnUse" />
  </defs>
  <metadata
     id="metadata4066">
    <rdf:RDF>
      <cc:Work
         rdf:about="">
        <dc:format>image/svg+xml</dc:format>
        <dc:type
           rdf:resource="http://purl.org/dc/dcmitype/StillImage" />
        <dc:title></dc:title>
      </cc:Work>
    </rdf:RDF>
  </metadata>
  <g
     id="g4206">
    <path
       id="path3818-0-5"
       d="m 41,41.5 a 17,5.5 0 0 1 -34,0 17,5.5 0 1 1 34,0 z"
       inkscape:connector-curvature="0"
       style="fill:url(#radialGradient3035)" />
    <path
       id="path2555-7-2"
       style="color:#000000;fill:url(#radialGradient3032)"
       d="M 24,3.5 C 12.689,3.5 3.5,12.689 3.5,24 3.5,35.311 12.689,44.5 24,44.5 35.311,44.5 44.5,35.311 44.5,24 44.5,12.689 35.311,3.5 24,3.5 Z"
       inkscape:connector-curvature="0" />
    <path
       id="path2555-7-65"
       style="color:#000000;fill:url(#linearGradient4905);fill-opacity:1"
       d="M 24,3.5 C 12.689,3.5 3.5,12.689 3.5,24 3.5,35.311 12.689,44.5 24,44.5 35.311,44.5 44.5,35.311 44.5,24 44.5,12.689 35.311,3.5 24,3.5 Z"
       inkscape:connector-curvature="0" />
    <path
       id="path4176"
       style="color:#000000;opacity:1;fill:none;stroke:#ffffff;stroke-width:2;stroke-linecap:round;stroke-linejoin:round;stroke-miterlimit:4;stroke-dasharray:none;stroke-opacity:0.98156684"
       d="M 43.5,24 C 43.5,34.77 34.77,43.5 24,43.5 13.23,43.5 4.5,34.77 4.5,24 4.5,13.23 13.23,4.5 24,4.5 34.77,4.5 43.5,13.23 43.5,24 Z"
       inkscape:connector-curvature="0" />
    <path
       id="path2555-7-1-7"
       style="color:#000000;opacity:1;fill:none;fill-opacity:1;stroke:#ffffff;stroke-width:0.2;stroke-linecap:round;stroke-linejoin:round;stroke-miterlimit:4;stroke-dasharray:none;stroke-opacity:1"
       d="m 24,3.5001 c -11.311,0 -20.5,9.1888 -20.5,20.5 0,11.3112 9.1888,20.5 20.5,20.5 11.3112,0 20.5,-9.1888 20.5,-20.5 0,-11.3112 -9.189,-20.5 -20.5,-20.5 z"
       inkscape:connector-curvature="0" />
    <g
       id="g4317"
       transform="matrix(1.0002,0,0,1.0004,-1.0018,-0.0050486)"
       style="fill:none;stroke:#000000;stroke-linecap:round;stroke-linejoin:round" />
    <g
       transform="matrix(0.84609818,0,0,0.84609818,4.0653764,3.5575517)"
       id="g3860">
      <g
         id="g4416"
         transform="translate(-0.40677966,0.60360983)"
         style="fill:none;stroke:#000000;stroke-linecap:round;stroke-linejoin:round">
        <g
           id="g4400"
           transform="matrix(1.0002,0,0,0.99972,-0.0030006,0.0041655)"
           style="opacity:0.15;stroke-width:2.0000999">
          <g
             id="g4402"
             clip-path="url(#clipPath-993779242)"
             style="fill:none;stroke:#000000;stroke-width:2.0000999;stroke-linecap:round;stroke-linejoin:round">
            <!-- color: #de487e -->
            <g
               id="g4404"
               style="fill:none;stroke:#000000;stroke-width:2.0000999;stroke-linecap:round;stroke-linejoin:round">
              <path
                 id="path4406"
                 d="m 13.875,15 c -1.102,0.16 -1.977,1.305 -1.863,2.445 0.113,1.141 1.195,2.082 2.309,2.01 h 1.223 c 0.523,0 0.707,0.125 1.094,0.492 0.387,0.363 0.895,1.051 1.43,1.898 0.426,0.672 0.898,1.438 1.535,2.176 -0.633,0.734 -1.113,1.512 -1.535,2.176 -0.535,0.844 -1.043,1.496 -1.43,1.859 -0.387,0.367 -0.57,0.492 -1.094,0.492 h -1.223 c -1.352,-0.043 -2.32,1.352 -2.32,2.457 0,1.102 1.254,1.895 2.32,2 h 1.223 c 1.625,0 3.141,-0.824 4.094,-1.723 0.953,-0.895 1.547,-1.895 2.082,-2.734 0.535,-0.848 0.941,-1.492 1.328,-1.859 0.34,-0.445 0.555,-0.566 0.953,-0.684 0.52,0 0.809,0.316 1.191,0.684 0.387,0.367 0.934,1.016 1.469,1.859 0.535,0.844 1.094,1.84 2.043,2.734 0.953,0.898 2.367,1.723 3.992,1.723 h 1.328 c 1.066,-0.105 1.973,-1.133 1.973,-2.23 0,-1.102 -0.906,-2.125 -1.973,-2.227 h -1.328 c -0.523,0 -0.707,-0.125 -1.094,-0.492 -0.387,-0.363 -0.793,-1.02 -1.328,-1.859 -0.434,-0.688 -0.895,-1.492 -1.57,-2.246 0.223,-0.246 0.438,-0.523 0.613,-0.773 1.012,-1.398 1.707,-2.68 2.285,-3.227 0.387,-0.363 0.57,-0.492 1.094,-0.492 h 1.328 c 1.066,-0.102 1.969,-1.129 1.969,-2.23 0,-1.102 -0.902,-2.125 -1.969,-2.227 h -1.328 c -1.621,0 -3.039,0.824 -3.992,1.719 -1.43,1.344 -2.063,2.887 -2.762,3.855 -0.703,0.973 -1.164,1.418 -1.945,1.418 -1.09,-0.426 -1.727,-1.668 -2.281,-2.539 -0.535,-0.844 -1.129,-1.84 -2.082,-2.734 -0.953,-0.898 -2.469,-1.719 -4.094,-1.719 h -1.223 -0.238 -0.207 m 0.004,0"
                 inkscape:connector-curvature="0"
                 style="fill:none;stroke:#000000;stroke-width:2.0000999;stroke-linecap:round;stroke-linejoin:round" />
            </g>
          </g>
        </g>
        <g
           id="g4408"
           transform="matrix(1.0002,0,0,0.99972,-0.0030006,0.0041655)"
           style="opacity:0.15;stroke-width:1.00010002">
          <g
             id="g4410"
             clip-path="url(#clipPath-993779242)"
             style="fill:none;stroke:#000000;stroke-width:1.00010002;stroke-linecap:round;stroke-linejoin:round">
            <!-- color: #de487e -->
            <g
               id="g4412"
               style="fill:none;stroke:#000000;stroke-width:1.00010002;stroke-linecap:round;stroke-linejoin:round">
              <path
                 id="path4414"
                 d="m 13.875,15 c -1.102,0.16 -1.977,1.305 -1.863,2.445 0.113,1.141 1.195,2.082 2.309,2.01 h 1.223 c 0.523,0 0.707,0.125 1.094,0.492 0.387,0.363 0.895,1.051 1.43,1.898 0.426,0.672 0.898,1.438 1.535,2.176 -0.633,0.734 -1.113,1.512 -1.535,2.176 -0.535,0.844 -1.043,1.496 -1.43,1.859 -0.387,0.367 -0.57,0.492 -1.094,0.492 h -1.223 c -1.352,-0.043 -2.32,1.352 -2.32,2.457 0,1.102 1.254,1.895 2.32,2 h 1.223 c 1.625,0 3.141,-0.824 4.094,-1.723 0.953,-0.895 1.547,-1.895 2.082,-2.734 0.535,-0.848 0.941,-1.492 1.328,-1.859 0.34,-0.445 0.555,-0.566 0.953,-0.684 0.52,0 0.809,0.316 1.191,0.684 0.387,0.367 0.934,1.016 1.469,1.859 0.535,0.844 1.094,1.84 2.043,2.734 0.953,0.898 2.367,1.723 3.992,1.723 h 1.328 c 1.066,-0.105 1.973,-1.133 1.973,-2.23 0,-1.102 -0.906,-2.125 -1.973,-2.227 h -1.328 c -0.523,0 -0.707,-0.125 -1.094,-0.492 -0.387,-0.363 -0.793,-1.02 -1.328,-1.859 -0.434,-0.688 -0.895,-1.492 -1.57,-2.246 0.223,-0.246 0.438,-0.523 0.613,-0.773 1.012,-1.398 1.707,-2.68 2.285,-3.227 0.387,-0.363 0.57,-0.492 1.094,-0.492 h 1.328 c 1.066,-0.102 1.969,-1.129 1.969,-2.23 0,-1.102 -0.902,-2.125 -1.969,-2.227 h -1.328 c -1.621,0 -3.039,0.824 -3.992,1.719 -1.43,1.344 -2.063,2.887 -2.762,3.855 -0.703,0.973 -1.164,1.418 -1.945,1.418 -1.09,-0.426 -1.727,-1.668 -2.281,-2.539 -0.535,-0.844 -1.129,-1.84 -2.082,-2.734 -0.953,-0.898 -2.469,-1.719 -4.094,-1.719 h -1.223 -0.238 -0.207 m 0.004,0"
                 inkscape:connector-curvature="0"
                 style="fill:none;stroke:#000000;stroke-width:1.00010002;stroke-linecap:round;stroke-linejoin:round" />
            </g>
          </g>
        </g>
      </g>
      <g
         id="g47"
         transform="matrix(1.0002,0,0,0.99972,-0.40978026,0.20755533)">
        <g
           id="g49"
           clip-path="url(#clipPath-993779242)">
          <!-- color: #de487e -->
          <g
             id="g51">
            <path
               id="path53"
               d="m 13.875,15 c -1.102,0.16 -1.977,1.305 -1.863,2.445 0.113,1.141 1.195,2.082 2.309,2.01 h 1.223 c 0.523,0 0.707,0.125 1.094,0.492 0.387,0.363 0.895,1.051 1.43,1.898 0.426,0.672 0.898,1.438 1.535,2.176 -0.633,0.734 -1.113,1.512 -1.535,2.176 -0.535,0.844 -1.043,1.496 -1.43,1.859 -0.387,0.367 -0.57,0.492 -1.094,0.492 h -1.223 c -1.352,-0.043 -2.32,1.352 -2.32,2.457 0,1.102 1.254,1.895 2.32,2 h 1.223 c 1.625,0 3.141,-0.824 4.094,-1.723 0.953,-0.895 1.547,-1.895 2.082,-2.734 0.535,-0.848 0.941,-1.492 1.328,-1.859 0.34,-0.445 0.555,-0.566 0.953,-0.684 0.52,0 0.809,0.316 1.191,0.684 0.387,0.367 0.934,1.016 1.469,1.859 0.535,0.844 1.094,1.84 2.043,2.734 0.953,0.898 2.367,1.723 3.992,1.723 h 1.328 c 1.066,-0.105 1.973,-1.133 1.973,-2.23 0,-1.102 -0.906,-2.125 -1.973,-2.227 h -1.328 c -0.523,0 -0.707,-0.125 -1.094,-0.492 -0.387,-0.363 -0.793,-1.02 -1.328,-1.859 -0.434,-0.688 -0.895,-1.492 -1.57,-2.246 0.223,-0.246 0.438,-0.523 0.613,-0.773 1.012,-1.398 1.707,-2.68 2.285,-3.227 0.387,-0.363 0.57,-0.492 1.094,-0.492 h 1.328 c 1.066,-0.102 1.969,-1.129 1.969,-2.23 0,-1.102 -0.902,-2.125 -1.969,-2.227 h -1.328 c -1.621,0 -3.039,0.824 -3.992,1.719 -1.43,1.344 -2.063,2.887 -2.762,3.855 -0.703,0.973 -1.164,1.418 -1.945,1.418 -1.09,-0.426 -1.727,-1.668 -2.281,-2.539 -0.535,-0.844 -1.129,-1.84 -2.082,-2.734 -0.953,-0.898 -2.469,-1.719 -4.094,-1.719 h -1.223 -0.238 -0.207 m 0.004,0"
               inkscape:connector-curvature="0"
               style="fill:#f9f9f9" />
          </g>
        </g>
      </g>
    </g>
  </g>
</svg>
