<?xml version="1.0" encoding="UTF-8" standalone="no"?>
<!-- Created with Inkscape (http://www.inkscape.org/) -->

<svg
   xmlns:dc="http://purl.org/dc/elements/1.1/"
   xmlns:cc="http://creativecommons.org/ns#"
   xmlns:rdf="http://www.w3.org/1999/02/22-rdf-syntax-ns#"
   xmlns:svg="http://www.w3.org/2000/svg"
   xmlns="http://www.w3.org/2000/svg"
   xmlns:sodipodi="http://sodipodi.sourceforge.net/DTD/sodipodi-0.dtd"
   xmlns:inkscape="http://www.inkscape.org/namespaces/inkscape"
   id="svg7384"
   sodipodi:docname="drive-harddisk.svg"
   version="1.1"
   inkscape:version="0.91 r"
   height="16"
   width="16">
  <metadata
     id="metadata90">
    <rdf:RDF>
      <cc:Work
         rdf:about="">
        <dc:format>image/svg+xml</dc:format>
        <dc:type
           rdf:resource="http://purl.org/dc/dcmitype/StillImage" />
        <dc:title>Gnome Symbolic Icon Theme</dc:title>
      </cc:Work>
    </rdf:RDF>
  </metadata>
  <sodipodi:namedview
     inkscape:cy="35.047573"
     pagecolor="#ffffff"
     borderopacity="1"
     showborder="true"
     inkscape:bbox-paths="false"
     guidetolerance="10"
     inkscape:window-width="1438"
     showguides="true"
     inkscape:object-nodes="true"
     inkscape:snap-bbox="true"
     inkscape:pageshadow="2"
     inkscape:guide-bbox="true"
     inkscape:snap-nodes="true"
     bordercolor="#666666"
     objecttolerance="10"
     id="namedview88"
     showgrid="false"
     inkscape:window-maximized="0"
     inkscape:window-x="333"
     inkscape:snap-global="true"
     inkscape:window-y="42"
     gridtolerance="10"
     inkscape:window-height="901"
     inkscape:snap-to-guides="true"
     inkscape:current-layer="layer13"
     inkscape:zoom="4"
     inkscape:cx="98"
     inkscape:snap-grids="true"
     inkscape:pageopacity="1">
    <inkscape:grid
       spacingx="1px"
       spacingy="1px"
       id="grid4866"
       empspacing="2"
       enabled="true"
       type="xygrid"
       snapvisiblegridlinesonly="true"
       visible="true" />
  </sodipodi:namedview>
  <title
     id="title9167">Gnome Symbolic Icon Theme</title>
  <defs
     id="defs7386" />
  <g
     inkscape:label="status"
     transform="translate(-442,-176)"
     inkscape:groupmode="layer"
     id="layer9"
     style="display:inline" />
  <g
     inkscape:label="devices"
     transform="translate(-442,-176)"
     inkscape:groupmode="layer"
     id="layer10" />
  <g
     inkscape:label="apps"
     transform="translate(-442,-176)"
     inkscape:groupmode="layer"
     id="layer11" />
  <g
     inkscape:label="actions"
     transform="translate(-442,-176)"
     inkscape:groupmode="layer"
     id="layer12" />
  <g
     inkscape:label="places"
     transform="translate(-442,-176)"
     inkscape:groupmode="layer"
     id="layer13">
    <path
       inkscape:connector-curvature="0"
       style="opacity:0.3;fill:#000000;fill-opacity:0.90196078"
       d="m 444.08894,188.1875 0,2.0408 c 0,0.48902 0.3938,0.88281 0.88282,0.88281 l 10.67881,0 c 0.48902,0 0.88282,-0.39379 0.88282,-0.88281 l 0,-2.03212 c -0.27845,0.15393 -0.59555,0.24826 -0.92709,0.24826 l -10.57465,0 c -0.33774,0 -0.66069,-0.0976 -0.94271,-0.25694 z"
       id="rect4169" />
    <path
       inkscape:connector-curvature="0"
       style="opacity:0.15;fill:#000000;fill-opacity:1"
       d="m 445.86846,176.88889 c -0.48902,0 -0.83422,0.39621 -0.88282,0.88281 l -0.88888,8.90104 c -0.0486,0.4866 0.39379,0.88282 0.88281,0.88282 l 2.34288,0 7.44097,0 0.88889,0 0.006,0 c 0.48902,0 0.9314,-0.39622 0.88281,-0.88282 l -0.88889,-8.90104 c -0.0486,-0.4866 -0.3938,-0.88281 -0.88282,-0.88281 l -0.006,0 -0.88889,0 -5.6632,0 -2.34288,0 z m 8.44618,0.88021 0.44878,5.34201 c 0,1.96368 -1.98984,3.55556 -4.44444,3.55556 -2.4546,0 -4.44445,-1.59188 -4.44445,-3.55556 0,-1.96368 1.98985,-3.55555 4.44445,-3.55555 0.38076,0 0.75059,0.0382 1.1033,0.11024 l 2.89236,-1.8967 z"
       id="path4250" />
    <path
       inkscape:connector-curvature="0"
       style="opacity:0.1;fill:#000000;fill-opacity:0.90196078;stroke:none"
       d="m 453.69745,178.84983 -2.31597,1.49565 c -0.33643,-0.0801 -0.69287,-0.12326 -1.0625,-0.12326 -2.02505,0 -3.66667,1.2934 -3.66667,2.88889 0,1.59549 1.64162,2.88889 3.66667,2.88889 2.02504,0 3.66666,-1.2934 3.66666,-2.88889 l -0.28819,-4.26128 z m -3.37847,2.93837 a 1.7777778,1.3237556 0 0 1 1.77778,1.32378 1.7777778,1.3237556 0 0 1 -1.77778,1.32378 1.7777778,1.3237556 0 0 1 -1.77778,-1.32378 1.7777778,1.3237556 0 0 1 1.77778,-1.32378 z"
       id="ellipse4255" />
    <path
       inkscape:connector-curvature="0"
       style="opacity:0.3;fill:#000000;fill-opacity:0.90196078;stroke:none"
       d="m 454.31464,177.7691 -2.89236,1.8967 c -0.35271,-0.072 -0.72254,-0.11024 -1.1033,-0.11024 -2.4546,0 -4.44445,1.59187 -4.44445,3.55555 0,1.96368 1.98985,3.55556 4.44445,3.55556 2.4546,0 4.44444,-1.59188 4.44444,-3.55556 l -0.44878,-5.34201 z m -0.61719,1.08073 0.28819,4.26128 c 0,1.59549 -1.64162,2.88889 -3.66666,2.88889 -2.02505,0 -3.66667,-1.2934 -3.66667,-2.88889 0,-1.59549 1.64162,-2.88889 3.66667,-2.88889 0.36963,0 0.72607,0.0431 1.0625,0.12326 l 2.31597,-1.49565 z"
       id="path4253" />
    <path
       inkscape:connector-curvature="0"
       style="opacity:0.4;fill:#000000;fill-opacity:1;stroke:none"
       d="m 450.31898,181.7882 a 1.7777778,1.3237556 0 0 0 -1.77778,1.32378 1.7777778,1.3237556 0 0 0 1.77778,1.32378 1.7777778,1.3237556 0 0 0 1.77778,-1.32378 1.7777778,1.3237556 0 0 0 -1.77778,-1.32378 z m 0,0.52777 a 1.0689825,0.79597782 0 0 1 1.06858,0.79601 1.0689825,0.79597782 0 0 1 -1.06858,0.79601 1.0689825,0.79597782 0 0 1 -1.06858,-0.79601 1.0689825,0.79597782 0 0 1 1.06858,-0.79601 z"
       id="ellipse4257" />
    <path
       inkscape:connector-curvature="0"
       style="opacity:0.75;fill:#000000;fill-opacity:1"
       d="m 445.92054,176 c -1.01039,0 -1.72221,0.81851 -1.82378,1.82379 l -0.88889,8.79687 c -0.003,0.0252 -0.001,0.0497 -0.003,0.0747 -8.9e-4,-0.0251 -0.005,-0.0493 -0.005,-0.0747 l 0,3.55555 c 0,1.01039 0.8134,1.82379 1.82379,1.82379 l 10.57465,0 c 1.01039,0 1.82378,-0.8134 1.82378,-1.82379 l 0,-3.18836 c 0.0173,-0.11859 0.0205,-0.24153 0.008,-0.36719 l -0.88888,-8.79687 C 456.43962,176.81851 455.7278,176 454.71741,176 l -8.79687,0 z m -0.0521,0.88889 2.34288,0 5.66319,0 0.88889,0 0.006,0 c 0.48902,0 0.83422,0.39621 0.88281,0.88281 l 0.88889,8.90104 c 0.0486,0.4866 -0.39381,0.88282 -0.88282,0.88282 l -0.006,0 -0.88889,0 -7.44097,0 -2.34288,0 c -0.48902,0 -0.93141,-0.39622 -0.88282,-0.88282 l 0.88889,-8.90104 c 0.0486,-0.4866 0.39381,-0.88281 0.88283,-0.88281 z m -1.77952,11.29861 c 0.28202,0.15932 0.60497,0.25694 0.94271,0.25694 l 10.57465,0 c 0.33154,0 0.64864,-0.0943 0.92709,-0.24826 l 0,2.03212 c 0,0.48902 -0.3938,0.88281 -0.88282,0.88281 l -0.006,0 -0.88888,0 -7.44097,0 -2.34289,0 c -0.48902,0 -0.88281,-0.39379 -0.88281,-0.88281 l 0,-2.0408 z"
       id="rect4156" />
    <rect
       style="opacity:0.75;fill:#000000;fill-opacity:1;stroke:none"
       id="rect4284"
       width="5.3333335"
       height="0.8888889"
       x="446.76343"
       y="177.77777" />
    <rect
       y="-446.31897"
       x="188.44444"
       height="1.3333334"
       width="2.6666667"
       id="rect4302"
       style="opacity:0.5;fill:#000000;fill-opacity:1;stroke:none"
       transform="matrix(0,1,-1,0,0,0)" />
    <rect
       transform="matrix(0,1,-1,0,0,0)"
       style="opacity:0.5;fill:#000000;fill-opacity:1;stroke:none"
       id="rect4322"
       width="2.6666667"
       height="0.8888889"
       x="188.44444"
       y="-450.31897" />
    <rect
       y="-452.09677"
       x="188.44444"
       height="0.8888889"
       width="2.6666667"
       id="rect4324"
       style="opacity:0.5;fill:#000000;fill-opacity:1;stroke:none"
       transform="matrix(0,1,-1,0,0,0)" />
    <rect
       transform="matrix(0,1,-1,0,0,0)"
       style="opacity:0.5;fill:#000000;fill-opacity:1;stroke:none"
       id="rect4326"
       width="2.6666667"
       height="0.8888889"
       x="188.44444"
       y="-453.87454" />
    <rect
       y="-455.65231"
       x="189.33333"
       height="0.8888889"
       width="0.8888889"
       id="rect4328"
       style="opacity:0.75;fill:#000000;fill-opacity:1;stroke:none"
       transform="matrix(0,1,-1,0,0,0)" />
  </g>
  <g
     inkscape:label="mimetypes"
     transform="translate(-442,-176)"
     inkscape:groupmode="layer"
     id="layer14" />
  <g
     inkscape:label="emblems"
     transform="translate(-442,-176)"
     inkscape:groupmode="layer"
     id="layer15"
     style="display:inline" />
</svg>
