<?xml version="1.0" encoding="UTF-8" standalone="no"?>
<!-- Created with Inkscape (http://www.inkscape.org/) -->

<svg
   xmlns:dc="http://purl.org/dc/elements/1.1/"
   xmlns:cc="http://creativecommons.org/ns#"
   xmlns:rdf="http://www.w3.org/1999/02/22-rdf-syntax-ns#"
   xmlns:svg="http://www.w3.org/2000/svg"
   xmlns="http://www.w3.org/2000/svg"
   xmlns:xlink="http://www.w3.org/1999/xlink"
   xmlns:sodipodi="http://sodipodi.sourceforge.net/DTD/sodipodi-0.dtd"
   xmlns:inkscape="http://www.inkscape.org/namespaces/inkscape"
   id="svg4061"
   height="48"
   width="48"
   version="1.1"
   inkscape:version="0.92.0 unknown"
   sodipodi:docname="lollypop.svg">
  <sodipodi:namedview
     pagecolor="#ffffff"
     bordercolor="#666666"
     borderopacity="1"
     objecttolerance="10"
     gridtolerance="10"
     guidetolerance="10"
     inkscape:pageopacity="0"
     inkscape:pageshadow="2"
     inkscape:window-width="2560"
     inkscape:window-height="1547"
     id="namedview46"
     showgrid="false"
     inkscape:zoom="3.4766083"
     inkscape:cx="18.670264"
     inkscape:cy="28.399076"
     inkscape:window-x="0"
     inkscape:window-y="30"
     inkscape:window-maximized="1"
     inkscape:current-layer="svg4061" />
  <defs
     id="defs4063">
    <linearGradient
       id="linearGradient3026"
       y2="40.496"
       gradientUnits="userSpaceOnUse"
       x2="71.204"
       gradientTransform="matrix(1.617 0 0 1.617 -92.707 -21.06)"
       y1="15.369"
       x1="71.204">
      <stop
         id="stop4808-4"
         stop-color="#fff"
         offset="0" />
      <stop
         id="stop4810-0"
         stop-color="#fff"
         stop-opacity=".23529"
         offset=".42448" />
      <stop
         id="stop4812-8"
         stop-color="#fff"
         stop-opacity=".15686"
         offset=".82090" />
      <stop
         id="stop4814-0"
         stop-color="#fff"
         stop-opacity=".39216"
         offset="1" />
    </linearGradient>
    <radialGradient
       id="radialGradient3029"
       fx="4.459"
       fy="8.5089"
       gradientUnits="userSpaceOnUse"
       cy="8.6258"
       cx="15.026"
       gradientTransform="matrix(-3.4973e-8 1.8855 -1.7764 -5.4723e-8 39.14 -7.9932)"
       r="20">
      <stop
         id="stop4170"
         stop-color="#ff9696"
         offset="0" />
      <stop
         id="stop4172"
         stop-color="#fd7676"
         offset="0.1668274" />
      <stop
         id="stop4174"
         stop-color="#f94040"
         offset="0.48762146" />
      <stop
         id="stop4176"
         stop-color="#e42020"
         offset="1"
         style="stop-color:#e77f5b;stop-opacity:1" />
    </radialGradient>
    <radialGradient
       id="radialGradient3032"
       gradientUnits="userSpaceOnUse"
       cy="3.99"
       cx="23.896"
       gradientTransform="matrix(0 2.8885 -3.8128 0 39.213 -65.95)"
       r="20.397">
      <stop
         id="stop3244-9-33-7-0-9"
         stop-color="#fff"
         offset="0" />
      <stop
         id="stop3246-3-5-0-8-5"
         stop-color="#ddd"
         offset=".26238" />
      <stop
         id="stop3248-1-7-8-8-1"
         stop-color="#abacae"
         offset=".66094" />
      <stop
         id="stop3250-9-3-0-5-1"
         stop-color="#89898b"
         offset="1" />
    </radialGradient>
    <radialGradient
       id="radialGradient3035"
       gradientUnits="userSpaceOnUse"
       cy="186.17"
       cx="99.157"
       gradientTransform="matrix(.27083 0 0 .087623 -2.8551 25.187)"
       r="62.769">
      <stop
         id="stop3822-2-6-3"
         stop-color="#3d3d3d"
         offset="0" />
      <stop
         id="stop3864-8-7-7"
         stop-color="#686868"
         stop-opacity=".49804"
         offset=".5" />
      <stop
         id="stop3824-1-2-5"
         stop-color="#686868"
         stop-opacity="0"
         offset="1" />
    </radialGradient>
    <linearGradient
       id="ButtonShadow"
       y2="7.0165"
       gradientUnits="userSpaceOnUse"
       x2="45.448"
       gradientTransform="scale(1.0059 .99417)"
       y1="92.54"
       x1="45.448">
      <stop
         id="stop3750"
         offset="0" />
      <stop
         id="stop3752"
         stop-opacity=".58824"
         offset="1" />
    </linearGradient>
    <filter
       id="filter3174"
       style="color-interpolation-filters:sRGB">
      <feGaussianBlur
         id="feGaussianBlur3176"
         stdDeviation="1.71" />
    </filter>
    <linearGradient
       id="linearGradient3185"
       y2="-167.53"
       xlink:href="#SVGID_14_"
       gradientUnits="userSpaceOnUse"
       x2="206.69"
       gradientTransform="matrix(.72832 0 0 -.72832 -295.83 -108.58)"
       y1="-167.53"
       x1="206.69" />
    <linearGradient
       id="SVGID_14_"
       y2="-167.53"
       gradientUnits="userSpaceOnUse"
       x2="206.69"
       gradientTransform="matrix(1 0 0 -1 -270.96 -122.07)"
       y1="-167.53"
       x1="206.69">
      <stop
         id="stop3506"
         stop-color="#7e9ec4"
         offset="0" />
      <stop
         id="stop3508"
         stop-color="#151d89"
         offset="1" />
    </linearGradient>
    <linearGradient
       id="linearGradient3182"
       y2="-167.53"
       xlink:href="#SVGID_14_"
       gradientUnits="userSpaceOnUse"
       x2="206.69"
       gradientTransform="matrix(.72832 0 0 -.72832 -375.83 -107.58)"
       y1="-167.53"
       x1="206.69" />
    <linearGradient
       id="linearGradient4829">
      <stop
         style="stop-color:#f4fbfc;stop-opacity:1;"
         offset="0"
         id="stop4831" />
      <stop
         style="stop-color:#d6d6d6;stop-opacity:1;"
         offset="1"
         id="stop4833" />
    </linearGradient>
  </defs>
  <metadata
     id="metadata4066">
    <rdf:RDF>
      <cc:Work
         rdf:about="">
        <dc:format>image/svg+xml</dc:format>
        <dc:type
           rdf:resource="http://purl.org/dc/dcmitype/StillImage" />
        <dc:title></dc:title>
      </cc:Work>
    </rdf:RDF>
  </metadata>
  <path
     id="path3818-0-5"
     d="m41 41.5a17 5.5 0 0 1 -34 0 17 5.5 0 1 1 34 0z"
     fill="url(#radialGradient3035)" />
  <path
     id="path2555-7-2"
     style="color:#000000"
     d="m24 3.5c-11.311 0-20.5 9.189-20.5 20.5s9.189 20.5 20.5 20.5 20.5-9.189 20.5-20.5-9.189-20.5-20.5-20.5z"
     fill="url(#radialGradient3032)" />
  <path
     id="path2555-7-65"
     style="color:#000000;fill-opacity:1;fill:#d40000"
     d="m24 3.5c-11.311 0-20.5 9.189-20.5 20.5s9.189 20.5 20.5 20.5 20.5-9.189 20.5-20.5-9.189-20.5-20.5-20.5z"
     fill="url(#radialGradient3029)" />
  <path
     id="path4176"
     opacity=".5"
     stroke-linejoin="round"
     style="color:#000000"
     d="m43.5 24c0 10.77-8.73 19.5-19.5 19.5s-19.5-8.73-19.5-19.5 8.73-19.5 19.5-19.5 19.5 8.73 19.5 19.5z"
     stroke="url(#linearGradient3026)"
     stroke-linecap="round"
     fill="none" />
  <path
     id="path2555-7-1-7"
     opacity=".5"
     stroke-linejoin="round"
     style="color:#000000"
     d="m24 3.5001c-11.311 0-20.5 9.1888-20.5 20.5s9.1888 20.5 20.5 20.5 20.5-9.1888 20.5-20.5-9.189-20.5-20.5-20.5z"
     stroke="#980000"
     stroke-linecap="round"
     fill="none" />
  <g
     id="layer2"
     display="none"
     transform="translate(-226.12 -28.077)">
    <rect
       id="rect3745"
       opacity=".9"
       rx="6"
       ry="6"
       height="85"
       filter="url(#filter3174)"
       width="86"
       y="7"
       x="5"
       fill="url(#ButtonShadow)" />
  </g>
  <path
     id="rect3005-5"
     style="color:#000000"
     d="m-94.691 12.552v12h-8l10 10 10-10h-8v-12z"
     fill="#fff" />
  <g
     transform="matrix(0.09317682,0,0,0.10471785,0.1271648,-2.5502887)"
     id="g49">
    <path
       style="fill:#ffffff"
       inkscape:connector-curvature="0"
       d="m 384.287,288.351 c 10.348,0 18.76,8.42 18.76,18.767 0,10.344 -8.412,18.761 -18.76,18.761 -10.348,0 -18.768,-8.417 -18.768,-18.761 10e-4,-10.347 8.42,-18.767 18.768,-18.767"
       id="path21" />
    <path
       style="fill:#ffffff"
       inkscape:connector-curvature="0"
       d="m 333.174,288.351 c 10.342,0 18.758,8.42 18.758,18.767 0,10.344 -8.416,18.761 -18.758,18.761 -10.346,0 -18.762,-8.417 -18.762,-18.761 0,-10.347 8.416,-18.767 18.762,-18.767"
       id="path23" />
    <path
       style="fill:#ffffff"
       inkscape:connector-curvature="0"
       d="m 179.84,288.351 c 10.344,0 18.76,8.42 18.76,18.767 0,10.344 -8.417,18.761 -18.76,18.761 -10.346,0 -18.764,-8.417 -18.764,-18.761 0.001,-10.347 8.418,-18.767 18.764,-18.767"
       id="path25" />
    <path
       style="fill:#ffffff"
       inkscape:connector-curvature="0"
       d="m 128.732,288.351 c 10.34,0 18.757,8.42 18.757,18.767 0,10.344 -8.417,18.761 -18.757,18.761 -10.354,0 -18.77,-8.417 -18.77,-18.761 0,-10.347 8.416,-18.767 18.77,-18.767"
       id="path27" />
    <path
       style="fill:#ffffff"
       inkscape:connector-curvature="0"
       d="m 384.287,237.239 c 10.348,0 18.76,8.417 18.76,18.762 0,10.348 -8.412,18.759 -18.76,18.759 -10.348,0 -18.768,-8.411 -18.768,-18.759 10e-4,-10.345 8.42,-18.762 18.768,-18.762"
       id="path29" />
    <path
       style="fill:#ffffff"
       inkscape:connector-curvature="0"
       d="m 333.174,237.239 c 10.342,0 18.758,8.417 18.758,18.762 0,10.348 -8.416,18.759 -18.758,18.759 -10.346,0 -18.762,-8.411 -18.762,-18.759 0,-10.345 8.416,-18.762 18.762,-18.762"
       id="path31" />
    <path
       style="fill:#ffffff"
       inkscape:connector-curvature="0"
       d="m 282.068,237.239 c 10.334,0 18.748,8.417 18.748,18.762 0,10.348 -8.414,18.759 -18.748,18.759 -10.355,0 -18.767,-8.411 -18.767,-18.759 0.001,-10.345 8.412,-18.762 18.767,-18.762"
       id="path33" />
    <path
       style="fill:#ffffff"
       inkscape:connector-curvature="0"
       d="m 230.949,237.239 c 10.349,0 18.757,8.417 18.757,18.762 0,10.348 -8.408,18.759 -18.757,18.759 -10.343,0 -18.758,-8.411 -18.758,-18.759 -0.001,-10.345 8.415,-18.762 18.758,-18.762"
       id="path35" />
    <path
       style="fill:#ffffff"
       inkscape:connector-curvature="0"
       d="m 179.84,237.239 c 10.344,0 18.76,8.417 18.76,18.762 0,10.348 -8.417,18.759 -18.76,18.759 -10.346,0 -18.764,-8.411 -18.764,-18.759 0.001,-10.345 8.418,-18.762 18.764,-18.762"
       id="path37" />
    <path
       style="fill:#ffffff"
       inkscape:connector-curvature="0"
       d="m 333.174,186.122 c 10.342,0 18.758,8.415 18.758,18.761 0,10.346 -8.416,18.762 -18.758,18.762 -10.346,0 -18.762,-8.416 -18.762,-18.762 0,-10.346 8.416,-18.761 18.762,-18.761"
       id="path39" />
    <path
       style="fill:#ffffff"
       inkscape:connector-curvature="0"
       d="m 282.068,186.122 c 10.334,0 18.748,8.415 18.748,18.761 0,10.346 -8.414,18.762 -18.748,18.762 -10.355,0 -18.767,-8.416 -18.767,-18.762 0,-10.346 8.412,-18.761 18.767,-18.761"
       id="path41" />
    <path
       style="fill:#ffffff"
       inkscape:connector-curvature="0"
       d="m 230.949,186.122 c 10.349,0 18.757,8.415 18.757,18.761 0,10.346 -8.408,18.762 -18.757,18.762 -10.343,0 -18.758,-8.416 -18.758,-18.762 0,-10.346 8.415,-18.761 18.758,-18.761"
       id="path43" />
    <path
       style="fill:#ffffff"
       inkscape:connector-curvature="0"
       d="m 179.84,186.122 c 10.344,0 18.76,8.415 18.76,18.761 0,10.346 -8.417,18.762 -18.76,18.762 -10.346,0 -18.764,-8.416 -18.764,-18.762 0,-10.346 8.418,-18.761 18.764,-18.761"
       id="path45" />
    <path
       style="fill:#ffffff"
       inkscape:connector-curvature="0"
       d="m 128.732,237.239 c 10.34,0 18.757,8.417 18.757,18.762 0,10.348 -8.417,18.759 -18.757,18.759 -10.354,0 -18.77,-8.411 -18.77,-18.759 0,-10.345 8.416,-18.762 18.77,-18.762"
       id="path47" />
  </g>
</svg>
