<?xml version="1.0" encoding="UTF-8" standalone="no"?>
<!-- Created with Inkscape (http://www.inkscape.org/) -->

<svg
   xmlns:dc="http://purl.org/dc/elements/1.1/"
   xmlns:cc="http://creativecommons.org/ns#"
   xmlns:rdf="http://www.w3.org/1999/02/22-rdf-syntax-ns#"
   xmlns:svg="http://www.w3.org/2000/svg"
   xmlns="http://www.w3.org/2000/svg"
   xmlns:xlink="http://www.w3.org/1999/xlink"
   xmlns:sodipodi="http://sodipodi.sourceforge.net/DTD/sodipodi-0.dtd"
   xmlns:inkscape="http://www.inkscape.org/namespaces/inkscape"
   id="svg4061"
   height="48"
   width="48"
   version="1.1"
   inkscape:version="0.92.0 unknown"
   sodipodi:docname="devedeng.svg">
  <sodipodi:namedview
     pagecolor="#ffffff"
     bordercolor="#666666"
     borderopacity="1"
     objecttolerance="10"
     gridtolerance="10"
     guidetolerance="10"
     inkscape:pageopacity="0"
     inkscape:pageshadow="2"
     inkscape:window-width="1378"
     inkscape:window-height="894"
     id="namedview40"
     showgrid="false"
     inkscape:zoom="6.9532167"
     inkscape:cx="23.862142"
     inkscape:cy="27.274207"
     inkscape:window-x="1169"
     inkscape:window-y="148"
     inkscape:window-maximized="0"
     inkscape:current-layer="g4206" />
  <defs
     id="defs4063">
    <linearGradient
       inkscape:collect="always"
       id="linearGradient3361">
      <stop
         style="stop-color:#0068e0;stop-opacity:1;"
         offset="0"
         id="stop3363" />
      <stop
         style="stop-color:#00acf4;stop-opacity:1"
         offset="1"
         id="stop3365" />
    </linearGradient>
    <linearGradient
       id="linearGradient3026"
       y2="40.495998"
       gradientUnits="userSpaceOnUse"
       x2="71.204002"
       gradientTransform="matrix(1.617,0,0,1.617,-92.707,-21.06)"
       y1="15.369"
       x1="71.204002"
       xlink:href="#linearGradient3361">
      <stop
         id="stop4808-4"
         stop-color="#fff"
         offset="0" />
      <stop
         id="stop4810-0"
         stop-color="#fff"
         stop-opacity=".23529"
         offset=".42448" />
      <stop
         id="stop4812-8"
         stop-color="#fff"
         stop-opacity=".15686"
         offset=".82090" />
      <stop
         id="stop4814-0"
         stop-color="#fff"
         stop-opacity=".39216"
         offset="1" />
    </linearGradient>
    <radialGradient
       id="radialGradient3029"
       fx="4.459"
       fy="8.5089"
       gradientUnits="userSpaceOnUse"
       cy="8.6258"
       cx="15.026"
       gradientTransform="matrix(-3.4973e-8 1.8855 -1.7764 -5.4723e-8 39.14 -7.9932)"
       r="20">
      <stop
         id="stop4170"
         stop-color="#c24251"
         offset="0" />
      <stop
         id="stop4172"
         stop-color="#c24251"
         offset=".26238" />
      <stop
         id="stop4174"
         stop-color="#a63643"
         offset=".66094" />
      <stop
         id="stop4176"
         stop-color="#a63643"
         offset="1" />
    </radialGradient>
    <radialGradient
       id="radialGradient3032"
       gradientUnits="userSpaceOnUse"
       cy="3.99"
       cx="23.896"
       gradientTransform="matrix(0 2.8885 -3.8128 0 39.213 -65.95)"
       r="20.397">
      <stop
         id="stop3244-9-33-7-0-9"
         stop-color="#fff"
         offset="0" />
      <stop
         id="stop3246-3-5-0-8-5"
         stop-color="#ddd"
         offset=".26238" />
      <stop
         id="stop3248-1-7-8-8-1"
         stop-color="#abacae"
         offset=".66094" />
      <stop
         id="stop3250-9-3-0-5-1"
         stop-color="#89898b"
         offset="1" />
    </radialGradient>
    <radialGradient
       id="radialGradient3035"
       gradientUnits="userSpaceOnUse"
       cy="186.17"
       cx="99.157"
       gradientTransform="matrix(.27083 0 0 .087623 -2.8551 25.187)"
       r="62.769">
      <stop
         id="stop3822-2-6-3"
         stop-color="#3d3d3d"
         offset="0" />
      <stop
         id="stop3864-8-7-7"
         stop-color="#686868"
         stop-opacity=".49804"
         offset=".5" />
      <stop
         id="stop3824-1-2-5"
         stop-color="#686868"
         stop-opacity="0"
         offset="1" />
    </radialGradient>
    <linearGradient
       id="linearGradient4433"
       y2="25.611"
       gradientUnits="userSpaceOnUse"
       x2="23.078"
       gradientTransform="matrix(1 0 0 1.0521 0 -.90547)"
       y1="13.035"
       x1="22.759">
      <stop
         id="stop6305-1-0-2"
         stop-color="#fff"
         offset="0" />
      <stop
         id="stop6307-5-0-6"
         stop-color="#fff"
         stop-opacity="0"
         offset="1" />
    </linearGradient>
    <linearGradient
       id="linearGradient4829">
      <stop
         style="stop-color:#f4fbfc;stop-opacity:1;"
         offset="0"
         id="stop4831" />
      <stop
         style="stop-color:#d6d6d6;stop-opacity:1;"
         offset="1"
         id="stop4833" />
    </linearGradient>
    <filter
       x="-0.5"
       y="-0.5"
       width="2"
       height="2"
       filterUnits="objectBoundingBox"
       id="a">
      <feOffset
         dy="2"
         in="SourceAlpha"
         result="shadowOffsetOuter1"
         id="feOffset5" />
      <feGaussianBlur
         stdDeviation="2"
         in="shadowOffsetOuter1"
         result="shadowBlurOuter1"
         id="feGaussianBlur7" />
      <feColorMatrix
         values="0 0 0 0 0 0 0 0 0 0 0 0 0 0 0 0 0 0 0.272503397 0"
         in="shadowBlurOuter1"
         id="feColorMatrix9" />
    </filter>
    <filter
       x="-0.5"
       y="-0.5"
       width="2"
       height="2"
       filterUnits="objectBoundingBox"
       id="a-3">
      <feOffset
         dy="2"
         in="SourceAlpha"
         result="shadowOffsetOuter1"
         id="feOffset5-6" />
      <feGaussianBlur
         stdDeviation="2"
         in="shadowOffsetOuter1"
         result="shadowBlurOuter1"
         id="feGaussianBlur7-7" />
      <feColorMatrix
         values="0 0 0 0 0 0 0 0 0 0 0 0 0 0 0 0 0 0 0.272503397 0"
         in="shadowBlurOuter1"
         id="feColorMatrix9-5" />
    </filter>
    <radialGradient
       id="radialGradient3972"
       xlink:href="#linearGradient3964"
       gradientUnits="userSpaceOnUse"
       cy="14.953"
       cx="23.735001"
       gradientTransform="matrix(-2.7873,-6.718e-8,4.6001e-8,-1.9086,90.479,42.912)"
       r="9.8400002" />
    <linearGradient
       id="linearGradient3964">
      <stop
         id="stop3966"
         stop-color="#ffa569"
         offset="0" />
      <stop
         id="stop3968"
         stop-color="#ff8d41"
         offset="1" />
    </linearGradient>
    <radialGradient
       id="radialGradient4466"
       xlink:href="#linearGradient3964"
       gradientUnits="userSpaceOnUse"
       cy="14.953"
       cx="23.735001"
       gradientTransform="matrix(-2.7873,-6.718e-8,4.6001e-8,-1.9086,90.479,42.912)"
       r="9.8400002" />
    <linearGradient
       id="linearGradient4250"
       y2="43.709"
       gradientUnits="userSpaceOnUse"
       x2="24.931"
       y1="5.1838002"
       x1="24.653999">
      <stop
         id="stop4318"
         stop-color="#fff"
         stop-opacity=".78431"
         offset="0" />
      <stop
         id="stop4320"
         stop-color="#fff"
         stop-opacity=".14118"
         offset="1" />
    </linearGradient>
    <radialGradient
       cx="23.334524"
       cy="41.63604"
       r="22.627417"
       fx="23.334524"
       fy="41.63604"
       id="radialGradient3081"
       xlink:href="#linearGradient23419"
       gradientUnits="userSpaceOnUse"
       gradientTransform="matrix(0.9722718,0,0,0.2872354,1.3124992,27.540524)" />
    <linearGradient
       id="linearGradient23419">
      <stop
         id="stop23421"
         style="stop-color:#000000;stop-opacity:1"
         offset="0" />
      <stop
         id="stop23423"
         style="stop-color:#000000;stop-opacity:0"
         offset="1" />
    </linearGradient>
    <linearGradient
       x1="12.2744"
       y1="32.4165"
       x2="35.391201"
       y2="14.2033"
       id="linearGradient3076"
       xlink:href="#linearGradient3263"
       gradientUnits="userSpaceOnUse"
       gradientTransform="matrix(0,1.1714389,-1.1714389,0,51.060244,-4.11454)" />
    <linearGradient
       x1="12.2744"
       y1="32.4165"
       x2="35.391201"
       y2="14.2033"
       id="linearGradient3263"
       gradientUnits="userSpaceOnUse">
      <stop
         id="stop3265"
         style="stop-color:#dedcde;stop-opacity:1"
         offset="0" />
      <stop
         id="stop3267"
         style="stop-color:#f0f0f0;stop-opacity:1"
         offset="0.5" />
      <stop
         id="stop3269"
         style="stop-color:#d2d2d2;stop-opacity:1"
         offset="1" />
    </linearGradient>
    <linearGradient
       x1="20.580074"
       y1="10.774516"
       x2="24.27351"
       y2="9.8622112"
       id="linearGradient3346"
       xlink:href="#linearGradient3487"
       gradientUnits="userSpaceOnUse"
       spreadMethod="reflect" />
    <linearGradient
       id="linearGradient3487">
      <stop
         id="stop3489"
         style="stop-color:#e6cde2;stop-opacity:1"
         offset="0" />
      <stop
         id="stop3491"
         style="stop-color:#e6cde2;stop-opacity:0"
         offset="1" />
    </linearGradient>
    <linearGradient
       x1="17.494959"
       y1="11.200086"
       x2="21.047453"
       y2="9.7956104"
       id="linearGradient3348"
       xlink:href="#linearGradient3495"
       gradientUnits="userSpaceOnUse"
       spreadMethod="reflect" />
    <linearGradient
       id="linearGradient3495">
      <stop
         id="stop3497"
         style="stop-color:#c1cbe4;stop-opacity:1"
         offset="0" />
      <stop
         id="stop3499"
         style="stop-color:#c1cbe4;stop-opacity:0"
         offset="1" />
    </linearGradient>
    <linearGradient
       x1="14.084608"
       y1="13.045606"
       x2="16.994024"
       y2="10.732353"
       id="linearGradient3350"
       xlink:href="#linearGradient3503"
       gradientUnits="userSpaceOnUse"
       spreadMethod="reflect" />
    <linearGradient
       id="linearGradient3503">
      <stop
         id="stop3505"
         style="stop-color:#c4ebdd;stop-opacity:1"
         offset="0" />
      <stop
         id="stop3507"
         style="stop-color:#c4ebdd;stop-opacity:0"
         offset="1" />
    </linearGradient>
    <linearGradient
       x1="12.371647"
       y1="16.188046"
       x2="14.609327"
       y2="13.461712"
       id="linearGradient3352"
       xlink:href="#linearGradient3511"
       gradientUnits="userSpaceOnUse"
       spreadMethod="reflect" />
    <linearGradient
       id="linearGradient3511">
      <stop
         id="stop3513"
         style="stop-color:#ebeec7;stop-opacity:1"
         offset="0" />
      <stop
         id="stop3515"
         style="stop-color:#ebeec7;stop-opacity:0"
         offset="1" />
    </linearGradient>
    <linearGradient
       x1="10.609375"
       y1="17.886322"
       x2="9.7297754"
       y2="20.612656"
       id="linearGradient3354"
       xlink:href="#linearGradient3519"
       gradientUnits="userSpaceOnUse"
       spreadMethod="reflect" />
    <linearGradient
       id="linearGradient3519">
      <stop
         id="stop3521"
         style="stop-color:#fcd9cd;stop-opacity:1"
         offset="0" />
      <stop
         id="stop3523"
         style="stop-color:#fcd9cd;stop-opacity:0"
         offset="1" />
    </linearGradient>
    <linearGradient
       x1="71.204407"
       y1="6.2375584"
       x2="71.204407"
       y2="44.340794"
       id="linearGradient3057"
       xlink:href="#linearGradient4011"
       gradientUnits="userSpaceOnUse"
       gradientTransform="matrix(1.054054,0,0,1.054054,-51.611003,-2.7278988)" />
    <linearGradient
       id="linearGradient4011">
      <stop
         id="stop4013"
         style="stop-color:#ffffff;stop-opacity:1"
         offset="0" />
      <stop
         id="stop4015"
         style="stop-color:#ffffff;stop-opacity:0.23529412"
         offset="0.507761" />
      <stop
         id="stop4017"
         style="stop-color:#ffffff;stop-opacity:0.15686275"
         offset="0.83456558" />
      <stop
         id="stop4019"
         style="stop-color:#ffffff;stop-opacity:0.39215687"
         offset="1" />
    </linearGradient>
    <linearGradient
       x1="18.775953"
       y1="4.0378027"
       x2="18.203465"
       y2="45.962208"
       id="linearGradient3054"
       xlink:href="#linearGradient6036"
       gradientUnits="userSpaceOnUse"
       gradientTransform="matrix(0.4293444,0,0,-0.4293442,13.546752,34.733607)" />
    <linearGradient
       id="linearGradient6036">
      <stop
         id="stop6038"
         style="stop-color:#ffffff;stop-opacity:1"
         offset="0" />
      <stop
         id="stop6040"
         style="stop-color:#ffffff;stop-opacity:0"
         offset="1" />
    </linearGradient>
    <linearGradient
       inkscape:collect="always"
       xlink:href="#linearGradient3487"
       id="linearGradient4799"
       gradientUnits="userSpaceOnUse"
       x1="20.580074"
       y1="10.774516"
       x2="24.27351"
       y2="9.8622112"
       spreadMethod="reflect" />
    <linearGradient
       inkscape:collect="always"
       xlink:href="#linearGradient3495"
       id="linearGradient4801"
       gradientUnits="userSpaceOnUse"
       x1="17.494959"
       y1="11.200086"
       x2="21.047453"
       y2="9.7956104"
       spreadMethod="reflect" />
    <linearGradient
       inkscape:collect="always"
       xlink:href="#linearGradient3503"
       id="linearGradient4803"
       gradientUnits="userSpaceOnUse"
       x1="14.084608"
       y1="13.045606"
       x2="16.994024"
       y2="10.732353"
       spreadMethod="reflect" />
    <linearGradient
       inkscape:collect="always"
       xlink:href="#linearGradient3511"
       id="linearGradient4805"
       gradientUnits="userSpaceOnUse"
       x1="12.371647"
       y1="16.188046"
       x2="14.609327"
       y2="13.461712"
       spreadMethod="reflect" />
    <linearGradient
       inkscape:collect="always"
       xlink:href="#linearGradient3519"
       id="linearGradient4807"
       gradientUnits="userSpaceOnUse"
       x1="10.609375"
       y1="17.886322"
       x2="9.7297754"
       y2="20.612656"
       spreadMethod="reflect" />
  </defs>
  <metadata
     id="metadata4066">
    <rdf:RDF>
      <cc:Work
         rdf:about="">
        <dc:format>image/svg+xml</dc:format>
        <dc:type
           rdf:resource="http://purl.org/dc/dcmitype/StillImage" />
        <dc:title></dc:title>
      </cc:Work>
    </rdf:RDF>
  </metadata>
  <g
     id="g4206">
    <path
       id="path3818-0-5"
       d="m 41,41.5 a 17,5.5 0 0 1 -34,0 17,5.5 0 1 1 34,0 z"
       inkscape:connector-curvature="0"
       style="fill:url(#radialGradient3035)" />
    <path
       id="path2555-7-2"
       style="color:#000000;fill:url(#radialGradient3032)"
       d="M 24,3.5 C 12.689,3.5 3.5,12.689 3.5,24 3.5,35.311 12.689,44.5 24,44.5 35.311,44.5 44.5,35.311 44.5,24 44.5,12.689 35.311,3.5 24,3.5 Z"
       inkscape:connector-curvature="0" />
    <path
       id="path2555-7-65"
       style="color:#000000;fill:#333333;fill-opacity:1"
       d="M 24,3.5 C 12.689,3.5 3.5,12.689 3.5,24 3.5,35.311 12.689,44.5 24,44.5 35.311,44.5 44.5,35.311 44.5,24 44.5,12.689 35.311,3.5 24,3.5 Z"
       inkscape:connector-curvature="0" />
    <path
       id="path4176"
       style="color:#000000;opacity:1;fill:none;stroke:#ffffff;stroke-width:2;stroke-linecap:round;stroke-linejoin:round;stroke-miterlimit:4;stroke-dasharray:none;stroke-opacity:0.98156684"
       d="M 43.5,24 C 43.5,34.77 34.77,43.5 24,43.5 13.23,43.5 4.5,34.77 4.5,24 4.5,13.23 13.23,4.5 24,4.5 34.77,4.5 43.5,13.23 43.5,24 Z"
       inkscape:connector-curvature="0" />
    <path
       id="path2555-7-1-7"
       style="color:#000000;opacity:1;fill:none;fill-opacity:1;stroke:#ffffff;stroke-width:0.2;stroke-linecap:round;stroke-linejoin:round;stroke-miterlimit:4;stroke-dasharray:none;stroke-opacity:1"
       d="m 24,3.5001 c -11.311,0 -20.5,9.1888 -20.5,20.5 0,11.3112 9.1888,20.5 20.5,20.5 11.3112,0 20.5,-9.1888 20.5,-20.5 0,-11.3112 -9.189,-20.5 -20.5,-20.5 z"
       inkscape:connector-curvature="0" />
    <g
       id="g4317"
       transform="matrix(1.0002,0,0,1.0004,-1.0018,-0.0050486)"
       style="fill:none;stroke:#000000;stroke-linecap:round;stroke-linejoin:round" />
    <g
       transform="matrix(0.68621456,0,0,0.6588485,7.6337856,8.3794311)"
       id="g4553">
      <path
         style="display:inline;overflow:visible;visibility:visible;opacity:0.3;fill:url(#radialGradient3081);fill-opacity:1;fill-rule:evenodd;stroke:none;stroke-width:2;marker:none"
         id="path23417"
         inkscape:connector-curvature="0"
         d="m 46,39.499867 c 0.0011,3.589753 -9.848934,6.500001 -22,6.500001 -12.151066,0 -22.001133,-2.910248 -21.9999999,-6.500001 C 1.998867,35.910116 11.848934,32.999868 24,32.999868 c 12.151066,0 22.001133,2.910248 22,6.499999 z" />
      <path
         style="fill:url(#linearGradient3076);fill-rule:nonzero;stroke:none"
         id="path2781"
         inkscape:connector-curvature="0"
         d="M 44.5,24 C 44.5,12.637039 35.362959,3.5 24,3.5 12.637038,3.5 3.5000001,12.63704 3.5000001,24 3.4999981,35.36296 12.637039,44.5 24,44.5 35.362958,44.499998 44.5,35.362961 44.5,24 Z m -13,0 c 0,4.12813 -3.28927,7.5 -7.5,7.5 -4.29333,0 -7.5,-3.455313 -7.5,-7.5 0,-4.127303 3.041467,-7.5 7.5,-7.5 4.458533,0 7.5,3.45447 7.5,7.5 z" />
      <path
         style="display:inline;overflow:visible;visibility:visible;opacity:0.5;fill:#ffffff;fill-opacity:1;fill-rule:nonzero;stroke:none;stroke-width:1;marker:none;enable-background:accumulate"
         id="path2474"
         inkscape:connector-curvature="0"
         d="m 24,16 c -4.416,0 -8,3.584 -8,8 0,4.416 3.584,8 8,8 4.416,0 8,-3.584 8,-8 0,-4.416 -3.584,-8 -8,-8 z m 0,4 c 2.208,0 4,1.792 4,4 0,2.208 -1.792,4 -4,4 -2.208,0 -4,-1.792 -4,-4 0,-2.208 1.792,-4 4,-4 z" />
      <path
         style="display:inline;overflow:visible;visibility:visible;opacity:0.3;fill:none;stroke:#000000;stroke-width:1;stroke-linecap:butt;stroke-linejoin:round;stroke-miterlimit:4;stroke-dasharray:none;stroke-dashoffset:0;stroke-opacity:1;marker:none;enable-background:accumulate"
         id="path3418"
         inkscape:connector-curvature="0"
         d="m 24,20.25 c 2.07,0 3.75,1.68 3.75,3.75 0,2.07 -1.68,3.75 -3.75,3.75 -2.07,0 -3.75,-1.68 -3.75,-3.75 0,-2.07 1.68,-3.75 3.75,-3.75 z" />
      <g
         id="g3527">
        <path
           style="opacity:0.8;fill:url(#linearGradient4799);fill-opacity:1;fill-rule:nonzero;stroke:none"
           id="path3296"
           transform="rotate(1.618417,24.093743,24.175959)"
           inkscape:connector-curvature="0"
           d="M 15.856928,5.7307748 20.625,16.34375 C 21.660403,15.885186 22.795334,15.625 24,15.625 c 0.03206,0 0.06178,-3.6e-4 0.09375,0 L 24.10801,4.0047512 c -2.94215,-0.070687 -5.543041,0.6572865 -8.251082,1.7260236 z" />
        <path
           style="opacity:0.8;fill:url(#linearGradient4801);fill-opacity:1;fill-rule:nonzero;stroke:none"
           id="path3308"
           inkscape:connector-curvature="0"
           d="m 12.121471,7.9060109 6.931026,9.3601041 c 0.913109,-0.669755 1.965938,-1.167064 3.142629,-1.425169 0.03132,-0.0069 0.06026,-0.01359 0.09157,-0.02009 L 19.857174,4.426276 c -2.888973,0.5613244 -5.31953,1.8556038 -7.735703,3.4797349 z" />
        <path
           style="opacity:0.8;fill:url(#linearGradient4803);fill-opacity:1;fill-rule:nonzero;stroke:none"
           id="path3310"
           inkscape:connector-curvature="0"
           d="m 8.2523933,11.646535 9.2137237,7.155818 c 0.70865,-0.883264 1.596891,-1.636119 2.666685,-2.18998 0.02847,-0.01474 0.05469,-0.02872 0.08325,-0.0431 L 14.86585,6.2506132 C 12.220599,7.5405321 10.165881,9.452393 8.2523933,11.646535 Z" />
        <path
           style="opacity:0.8;fill:url(#linearGradient4805);fill-opacity:1;fill-rule:nonzero;stroke:none"
           id="path3312"
           inkscape:connector-curvature="0"
           d="m 5.6328855,16.073974 c 7.1748065,2.242248 7.8502625,7.031463 12.7767855,1.754127 L 10.499985,9.1321388 C 8.2787249,11.062747 6.9132871,13.459349 5.6328855,16.073974 Z" />
        <path
           style="opacity:0.8;fill:url(#linearGradient4807);fill-opacity:1;fill-rule:nonzero;stroke:none"
           id="path3314"
           inkscape:connector-curvature="0"
           d="M 7.155289,13.193173 C 5.9722117,14.945185 5.2475768,16.829547 4.6301929,18.837116 L 15.96875,21.8125 C 16.184264,21.049497 16.486796,20.297733 16.9375,19.59375 16.95479,19.56675 16.98246,19.52673 17,19.5 Z" />
      </g>
      <g
         id="g3297"
         transform="rotate(180,24,23.995416)">
        <path
           style="opacity:0.8;fill:url(#linearGradient3346);fill-opacity:1;fill-rule:nonzero;stroke:none"
           id="path3299"
           transform="rotate(1.618417,24.093743,24.175959)"
           inkscape:connector-curvature="0"
           d="M 15.856928,5.7307748 20.625,16.34375 C 21.660403,15.885186 22.795334,15.625 24,15.625 c 0.03206,0 0.06178,-3.6e-4 0.09375,0 L 24.10801,4.0047512 c -2.94215,-0.070687 -5.543041,0.6572865 -8.251082,1.7260236 z" />
        <path
           style="opacity:0.8;fill:url(#linearGradient3348);fill-opacity:1;fill-rule:nonzero;stroke:none"
           id="path3301"
           inkscape:connector-curvature="0"
           d="m 12.121471,7.9060109 6.931026,9.3601041 c 0.913109,-0.669755 1.965938,-1.167064 3.142629,-1.425169 0.03132,-0.0069 0.06026,-0.01359 0.09157,-0.02009 L 19.857174,4.426276 c -2.888973,0.5613244 -5.31953,1.8556038 -7.735703,3.4797349 z" />
        <path
           style="opacity:0.8;fill:url(#linearGradient3350);fill-opacity:1;fill-rule:nonzero;stroke:none"
           id="path3303"
           inkscape:connector-curvature="0"
           d="m 8.2523933,11.646535 9.2137237,7.155818 c 0.70865,-0.883264 1.596891,-1.636119 2.666685,-2.18998 0.02847,-0.01474 0.05469,-0.02872 0.08325,-0.0431 L 14.86585,6.2506132 C 12.220599,7.5405321 10.165881,9.452393 8.2523933,11.646535 Z" />
        <path
           style="opacity:0.8;fill:url(#linearGradient3352);fill-opacity:1;fill-rule:nonzero;stroke:none"
           id="path3305"
           inkscape:connector-curvature="0"
           d="m 5.6328855,16.073974 c 7.1748065,2.242248 7.8502625,7.031463 12.7767855,1.754127 L 10.499985,9.1321388 C 8.2787249,11.062747 6.9132871,13.459349 5.6328855,16.073974 Z" />
        <path
           style="opacity:0.8;fill:url(#linearGradient3354);fill-opacity:1;fill-rule:nonzero;stroke:none"
           id="path3307"
           inkscape:connector-curvature="0"
           d="M 7.155289,13.193173 C 5.9722117,14.945185 5.2475768,16.829547 4.6301929,18.837116 L 15.96875,21.8125 C 16.184264,21.049497 16.486796,20.297733 16.9375,19.59375 16.95479,19.56675 16.98246,19.52673 17,19.5 Z" />
      </g>
      <path
         style="color:#000000;display:inline;overflow:visible;visibility:visible;opacity:0.55;fill:none;stroke:url(#linearGradient3057);stroke-width:1;stroke-linecap:round;stroke-linejoin:round;stroke-miterlimit:4;stroke-dasharray:none;stroke-dashoffset:0;stroke-opacity:1;marker:none;enable-background:accumulate"
         id="path8655"
         inkscape:connector-curvature="0"
         d="M 43.5,23.99931 C 43.5,34.76921 34.76891,43.5 24.000247,43.5 13.230598,43.5 4.5,34.769111 4.5,23.99931 4.5,13.229908 13.230598,4.5000024 24.000247,4.5000024 34.76891,4.5000024 43.5,13.229908 43.5,23.99931 Z" />
      <path
         style="opacity:0.4;fill:none;stroke:url(#linearGradient3054);stroke-width:0.99999982;stroke-miterlimit:4;stroke-opacity:1"
         id="path3281"
         inkscape:connector-curvature="0"
         d="m 24,32.5 c -4.711429,0 -8.5,-3.788571 -8.5,-8.5 0,-4.711429 3.788571,-8.500001 8.5,-8.500001 4.711431,0 8.5,3.788572 8.5,8.500001 0,4.711429 -3.788569,8.5 -8.5,8.5 z" />
      <path
         style="opacity:0.3;fill:none;stroke:#000000;stroke-width:1;stroke-miterlimit:4;stroke-opacity:1"
         id="path2781-3"
         inkscape:connector-curvature="0"
         d="M 44.5,24 C 44.5,12.637039 35.362959,3.5 24,3.5 12.637038,3.5 3.5000001,12.63704 3.5000001,24 3.4999981,35.36296 12.637039,44.5 24,44.5 35.362958,44.499998 44.5,35.362961 44.5,24 Z m -13,0 c 0,4.12813 -3.28927,7.5 -7.5,7.5 -4.29333,0 -7.5,-3.455313 -7.5,-7.5 0,-4.127303 3.041467,-7.5 7.5,-7.5 4.458533,0 7.5,3.45447 7.5,7.5 z" />
    </g>
  </g>
</svg>
