<?xml version="1.0" encoding="UTF-8" standalone="no"?>
<!-- Created with Inkscape (http://www.inkscape.org/) -->

<svg
   xmlns:dc="http://purl.org/dc/elements/1.1/"
   xmlns:cc="http://creativecommons.org/ns#"
   xmlns:rdf="http://www.w3.org/1999/02/22-rdf-syntax-ns#"
   xmlns:svg="http://www.w3.org/2000/svg"
   xmlns="http://www.w3.org/2000/svg"
   xmlns:xlink="http://www.w3.org/1999/xlink"
   xmlns:sodipodi="http://sodipodi.sourceforge.net/DTD/sodipodi-0.dtd"
   xmlns:inkscape="http://www.inkscape.org/namespaces/inkscape"
   id="svg4061"
   height="48"
   width="48"
   version="1.1"
   inkscape:version="0.92.0 unknown"
   sodipodi:docname="gmusicbrowser.svg">
  <sodipodi:namedview
     pagecolor="#ffffff"
     bordercolor="#666666"
     borderopacity="1"
     objecttolerance="10"
     gridtolerance="10"
     guidetolerance="10"
     inkscape:pageopacity="0"
     inkscape:pageshadow="2"
     inkscape:window-width="1571"
     inkscape:window-height="1068"
     id="namedview46"
     showgrid="false"
     inkscape:zoom="6.9532166"
     inkscape:cx="0.64844699"
     inkscape:cy="20.936929"
     inkscape:window-x="718"
     inkscape:window-y="229"
     inkscape:window-maximized="0"
     inkscape:current-layer="svg4061" />
  <defs
     id="defs4063">
    <linearGradient
       inkscape:collect="always"
       id="linearGradient3952">
      <stop
         style="stop-color:#d87408;stop-opacity:1;"
         offset="0"
         id="stop3948" />
      <stop
         style="stop-color:#d89c08;stop-opacity:0.8267327"
         offset="1"
         id="stop3950" />
    </linearGradient>
    <linearGradient
       id="linearGradient3026"
       y2="40.496"
       gradientUnits="userSpaceOnUse"
       x2="71.204"
       gradientTransform="matrix(1.6042426,0,0,1.6042426,-91.604678,-20.523038)"
       y1="15.369"
       x1="71.204">
      <stop
         id="stop4808-4"
         stop-color="#fff"
         offset="0" />
      <stop
         id="stop4810-0"
         stop-color="#fff"
         stop-opacity=".23529"
         offset=".42448" />
      <stop
         id="stop4812-8"
         stop-color="#fff"
         stop-opacity=".15686"
         offset=".82090" />
      <stop
         id="stop4814-0"
         stop-color="#fff"
         stop-opacity=".39216"
         offset="1" />
    </linearGradient>
    <radialGradient
       id="radialGradient3029"
       fx="4.459"
       fy="8.5089"
       gradientUnits="userSpaceOnUse"
       cy="8.6258"
       cx="15.026"
       gradientTransform="matrix(-3.4973e-8 1.8855 -1.7764 -5.4723e-8 39.14 -7.9932)"
       r="20">
      <stop
         id="stop4170"
         stop-color="#ff9696"
         offset="0" />
      <stop
         id="stop4172"
         stop-color="#fd7676"
         offset="0.1668274" />
      <stop
         id="stop4174"
         stop-color="#f94040"
         offset="0.48762146" />
      <stop
         id="stop4176"
         stop-color="#e42020"
         offset="1"
         style="stop-color:#e77f5b;stop-opacity:1" />
    </radialGradient>
    <radialGradient
       id="radialGradient3032"
       gradientUnits="userSpaceOnUse"
       cy="3.99"
       cx="23.896"
       gradientTransform="matrix(0,2.8657111,-3.7827188,0,39.274535,-65.058877)"
       r="20.397">
      <stop
         id="stop3244-9-33-7-0-9"
         stop-color="#fff"
         offset="0" />
      <stop
         id="stop3246-3-5-0-8-5"
         stop-color="#ddd"
         offset=".26238" />
      <stop
         id="stop3248-1-7-8-8-1"
         stop-color="#abacae"
         offset=".66094" />
      <stop
         id="stop3250-9-3-0-5-1"
         stop-color="#89898b"
         offset="1" />
    </radialGradient>
    <radialGradient
       id="radialGradient3035"
       gradientUnits="userSpaceOnUse"
       cy="186.17"
       cx="99.157"
       gradientTransform="matrix(0.26869328,0,0,0.0869317,-2.4616673,25.359094)"
       r="62.769">
      <stop
         id="stop3822-2-6-3"
         stop-color="#3d3d3d"
         offset="0" />
      <stop
         id="stop3864-8-7-7"
         stop-color="#686868"
         stop-opacity=".49804"
         offset=".5" />
      <stop
         id="stop3824-1-2-5"
         stop-color="#686868"
         stop-opacity="0"
         offset="1" />
    </radialGradient>
    <linearGradient
       id="ButtonShadow"
       y2="7.0165"
       gradientUnits="userSpaceOnUse"
       x2="45.448"
       gradientTransform="scale(1.0059 .99417)"
       y1="92.54"
       x1="45.448">
      <stop
         id="stop3750"
         offset="0" />
      <stop
         id="stop3752"
         stop-opacity=".58824"
         offset="1" />
    </linearGradient>
    <filter
       id="filter3174"
       style="color-interpolation-filters:sRGB">
      <feGaussianBlur
         id="feGaussianBlur3176"
         stdDeviation="1.71" />
    </filter>
    <linearGradient
       id="linearGradient3185"
       y2="-167.53"
       xlink:href="#SVGID_14_"
       gradientUnits="userSpaceOnUse"
       x2="206.69"
       gradientTransform="matrix(.72832 0 0 -.72832 -295.83 -108.58)"
       y1="-167.53"
       x1="206.69" />
    <linearGradient
       id="SVGID_14_"
       y2="-167.53"
       gradientUnits="userSpaceOnUse"
       x2="206.69"
       gradientTransform="matrix(1 0 0 -1 -270.96 -122.07)"
       y1="-167.53"
       x1="206.69">
      <stop
         id="stop3506"
         stop-color="#7e9ec4"
         offset="0" />
      <stop
         id="stop3508"
         stop-color="#151d89"
         offset="1" />
    </linearGradient>
    <linearGradient
       id="linearGradient3182"
       y2="-167.53"
       xlink:href="#SVGID_14_"
       gradientUnits="userSpaceOnUse"
       x2="206.69"
       gradientTransform="matrix(.72832 0 0 -.72832 -375.83 -107.58)"
       y1="-167.53"
       x1="206.69" />
    <linearGradient
       id="linearGradient4829">
      <stop
         style="stop-color:#f4fbfc;stop-opacity:1;"
         offset="0"
         id="stop4831" />
      <stop
         style="stop-color:#d6d6d6;stop-opacity:1;"
         offset="1"
         id="stop4833" />
    </linearGradient>
    <linearGradient
       inkscape:collect="always"
       xlink:href="#linearGradient3952"
       id="linearGradient3954"
       x1="24.017662"
       y1="42.534904"
       x2="24.16148"
       y2="5.717411"
       gradientUnits="userSpaceOnUse" />
  </defs>
  <metadata
     id="metadata4066">
    <rdf:RDF>
      <cc:Work
         rdf:about="">
        <dc:format>image/svg+xml</dc:format>
        <dc:type
           rdf:resource="http://purl.org/dc/dcmitype/StillImage" />
        <dc:title></dc:title>
      </cc:Work>
    </rdf:RDF>
  </metadata>
  <g
     id="layer2"
     display="none"
     transform="translate(-226.12 -28.077)">
    <rect
       id="rect3745"
       opacity=".9"
       rx="6"
       ry="6"
       height="85"
       filter="url(#filter3174)"
       width="86"
       y="7"
       x="5"
       fill="url(#ButtonShadow)" />
  </g>
  <path
     style="fill:url(#radialGradient3035);stroke-width:0.99211049"
     inkscape:connector-curvature="0"
     id="path3818-0-5"
     d="m 41.047437,41.543393 a 16.865878,5.4566077 0 0 1 -33.7317564,0 16.865878,5.4566077 0 1 1 33.7317564,0 z" />
  <path
     inkscape:connector-curvature="0"
     id="path2555-7-2"
     style="color:#000000;fill:url(#radialGradient3032);stroke-width:0.99211049"
     d="m 24.181559,3.8431947 c -11.221762,0 -20.3382651,9.1165033 -20.3382651,20.3382643 0,11.221762 9.1165031,20.338265 20.3382651,20.338265 11.221761,0 20.338264,-9.116503 20.338264,-20.338265 0,-11.221761 -9.116503,-20.3382643 -20.338264,-20.3382643 z" />
  <path
     inkscape:connector-curvature="0"
     id="path2555-7-65"
     style="color:#000000;fill:url(#linearGradient3954);fill-opacity:1;stroke-width:0.99211049"
     d="m 24.181559,3.8431947 c -11.221762,0 -20.3382651,9.1165033 -20.3382651,20.3382643 0,11.221762 9.1165031,20.338265 20.3382651,20.338265 11.221761,0 20.338264,-9.116503 20.338264,-20.338265 0,-11.221761 -9.116503,-20.3382643 -20.338264,-20.3382643 z" />
  <path
     inkscape:connector-curvature="0"
     id="path4176"
     style="color:#000000;opacity:0.5;fill:none;stroke:url(#linearGradient3026);stroke-width:0.99211049;stroke-linecap:round;stroke-linejoin:round"
     d="m 43.527713,24.181459 c 0,10.68503 -8.661125,19.346155 -19.346154,19.346155 -10.68503,0 -19.3461546,-8.661125 -19.3461546,-19.346155 0,-10.685029 8.6611246,-19.3461538 19.3461546,-19.3461538 10.685029,0 19.346154,8.6611248 19.346154,19.3461538 z" />
  <path
     inkscape:connector-curvature="0"
     id="path2555-7-1-7"
     style="color:#000000;opacity:1;fill:none;stroke:#ffffff;stroke-width:1.68658781;stroke-linecap:round;stroke-linejoin:round;stroke-miterlimit:4;stroke-dasharray:none;stroke-opacity:1"
     d="m 24.181559,3.8432939 c -11.221762,0 -20.3382651,9.1163051 -20.3382651,20.3382651 0,11.22196 9.1163051,20.338264 20.3382651,20.338264 11.22196,0 20.338264,-9.116304 20.338264,-20.338264 0,-11.22196 -9.116503,-20.3382651 -20.338264,-20.3382651 z" />
  <g
     id="g4233"
     transform="matrix(0.11746101,0,0,0.11608489,11.318607,12.833003)"
     style="fill:#ffffff">
    <path
       id="path4195"
       d="m -50.373,-71.658 c -0.45193,0.007 -0.91666,0.02319 -1.3945,0.04687 -6.244,0.314 -13.98,8.4337 -21.369,16.723 -0.832,0.933 -1.5669,1.7572 -2.1719,2.4082 -1.568,1.689 -3.7152,2.3579 -6.2012,3.1309 -3.294,1.026 -7.026,2.1872 -10.334,5.9082 -1.078,1.213 -2.1578,2.5813 -3.3008,4.0293 -4.485,5.687 -9.57,12.133 -16.832,12.133 -6.539,0 -10.46,-5.1344 -12.713,-16.648 -1.004,-5.131 -2.6038,-8.2271 -3.7578,-9.9121 1.528,-2.81 3.2859,-7.2417 1.0469,-9.8887 -0.768,-0.907 -1.8509,-1.4214 -3.0469,-1.4434 -2.322,-0.028 -4.6525,1.7998 -6.0215,3.0898 -0.335,-0.045 -0.74628,-0.10188 -1.2383,-0.17188 -1.239,-0.177 -3.2101,0.15088 -6.8711,0.79688 -2.515,0.445 -5.3632,0.94956 -7.4922,1.1016 -1.304,0.093 -2.7638,0.11858 -4.1738,0.14258 -3.916,0.07 -7.6147,0.13624 -10.096,1.4902 -2.575,1.404 -3.4769,3.6273 -3.9609,4.8223 -0.024,0.06 -0.0464,0.11883 -0.0684,0.17383 -1.885,1.348 -4.7492,5.0318 -3.9922,9.7578 0.463,2.901 2.2944,5.1825 4.8984,6.1035 2.138,0.754 4.3732,0.41733 5.8242,-0.88867 0.609,-0.548 2.1314,-0.96367 3.2344,-1.1387 l 9.1191,3.1465 c 0.004,0.002 0.0285,0.0093 0.0645,0.02734 0.038,0.022 0.0762,0.04155 0.11523,0.06055 0.315,0.177 0.99841,0.65247 1.6914,1.7305 1.316,2.049 2.9553,4.598 5.8203,11.002 0.353,0.791 0.67609,1.5707 0.99609,2.3457 2.316,5.595 4.7094,11.381 17.484,20.66 9.77,7.095 19.62,6.9374 25.463,5.8984 -0.33,1.171 -0.62055,2.5403 -0.81055,4.1113 -0.546,4.503 -1.3251,10.197 -1.5781,12.027 -0.924,1.37 -3.2344,5.1284 -4.5254,10.15 -1.323,5.142 -1.5383,9.5231 -1.5723,10.869 l -5.2305,15.992 c -1.127,0.677 -2.7036,1.9873 -3.3476,4.2383 -0.393,1.374 -0.40588,2.7817 -0.29688,3.9297 -0.776,0.282 -1.709,0.66845 -2.752,1.1895 -3.474,1.737 -5.0122,6.5928 -5.2852,7.5488 -0.215,0.754 -0.0638,1.5664 0.40821,2.1934 0.47299,0.626 1.2121,0.99414 1.9961,0.99414 h 15 c 1.076,0 2.0301,-0.68994 2.3711,-1.7109 l 1.8047,-5.4141 c 0.152,-0.368 0.62652,-1.5855 1.2285,-3.6895 0.656,-2.296 0.0116,-4.8147 -0.44141,-6.1387 0.334,-1.077 1.1892,-3.555 3.1602,-8.043 1.456,-3.317 2.9323,-6.0322 4.3613,-8.6582 1.431,-2.629 2.7799,-5.113 3.8359,-7.752 1.253,-3.132 1.7228,-6.221 2.1758,-9.207 0.316,-2.089 0.64514,-4.247 1.2441,-6.377 0.939,-3.337 3.414,-8.2792 4.959,-11.201 1.12,4.619 5.1019,21.004 6.3809,25.979 1.165,4.534 3.1235,6.6741 4.5215,7.6621 l 2.9258,14.922 -0.50586,0.8418 c -0.966,1.609 -0.89162,4.2496 -0.64062,6.2656 -0.853,0.494 -1.8938,1.2403 -3.0918,2.3633 -3.123,2.926 -4.3026,6.7765 -4.3516,6.9395 -0.227,0.757 -0.08333,1.5769 0.38867,2.2109 0.472,0.634 1.2159,1.0078 2.0059,1.0078 h 15.668 c 1.034,0 1.961,-0.63838 2.334,-1.6094 l 2.5,-6.5 c 0.024,-0.063 0.04545,-0.12641 0.06445,-0.19141 0.099,-0.334 0.95772,-3.3475 0.76172,-5.8965 -0.081,-1.056 -0.54981,-2.458 -1.2578,-4.582 -1.112,-3.337 -2.6363,-7.9071 -2.7363,-11.789 -0.189,-7.393 -2.9626,-17.88 -4.5996,-23.473 -0.40113,-1.3702 -0.64262,-2.9496 -0.79297,-4.5723 l -0.1914,-3.7852 c -0.02879,-2.5199 0.10192,-4.875 0.22852,-6.4551 4.27,-0.369 13.979,-1.3151 19.678,-2.7031 4.072,-0.991 8.7636,-3.9968 12.352,-6.6758 l -0.99805,4.3906 c -0.555,2.437 -0.43806,4.9814 0.33594,7.3574 l 5.5195,16.939 c 0.318,0.98 0.36948,2.0282 0.14648,3.0332 l -5.1641,23.35 c -0.767,0.616 -1.6942,1.6539 -2.4902,3.3789 -0.727,1.575 -0.85606,3.2717 -0.78906,4.6367 -1.26,0.438 -2.7416,1.242 -4.0156,2.709 -2.529,2.913 -2.998,7.9984 -3.043,8.5684 -0.055,0.695 0.18225,1.3806 0.65625,1.8926 0.474,0.513 1.1389,0.80469 1.8359,0.80469 h 13.668 c 0.942,0 1.8025,-0.52819 2.2285,-1.3672 l 5.25,-10.334 c 0.306,-0.6 0.35272,-1.3073 0.13672,-1.9453 -0.017,-0.049 -1.6641,-5.0273 -0.33008,-11.697 1,-4.994 4.2708,-11.623 6.1328,-15.131 1.084,-2.044 1.473,-4.3416 1.123,-6.6426 -0.328,-2.161 -0.83648,-5.6572 -1.3965,-10.033 -0.304,-2.379 -0.21489,-4.7288 0.03711,-6.8008 0.026,0.028 0.05403,0.05699 0.08203,0.08399 l 17.25,16.635 c 0.598,0.575 1.0257,1.3027 1.2227,2.0527 l 4.9668,20.672 c -0.81,1.154 -1.9033,3.0927 -2.1113,5.3867 -0.144,1.59 0.023984,3.6787 0.20898,5.2617 -1.745,0.615 -3.9881,1.7978 -5.2891,4.0098 -2.022,3.44 -1.708,7.1895 -1.666,7.6055 0.131,1.275 1.2063,2.2441 2.4883,2.2441 h 15.5 c 0.987,0 1.8822,-0.58042 2.2832,-1.4824 l 4.8125,-10.812 c 0.261,-0.589 0.28636,-1.2573 0.06836,-1.8633 -0.03,-0.083 -3.017,-8.4424 -4.543,-16.316 -0.628,-3.242 -0.99586,-11.291 -0.88086,-15.791 0.058,-2.281 -0.67164,-4.5253 -2.0566,-6.3223 -2.604,-3.38 -8.9209,-11.959 -11.336,-18.6 -1.882,-5.173 -2.1162,-11.393 -2.3652,-17.979 -0.146,-3.9 -0.29827,-7.9176 -0.82227,-11.766 1.651,1.88 3.1208,4.021 3.6758,6.082 0.359,1.333 1.7305,2.1206 3.0625,1.7656 1.333,-0.359 2.1246,-1.7305 1.7656,-3.0645 -1.678,-6.234 -8.4082,-11.85 -10.533,-13.498 -2.063,-5.573 -5.247,-8.3305 -10.082,-12.146 -2.579,-2.036 -6.1287,-4.5118 -9.8867,-7.1328 -5.531,-3.856 -11.801,-8.2283 -16.008,-11.945 -6.8944,-6.0919 -10.94,-7.9427 -17.719,-7.8379 z"
       transform="translate(174.49,97.713)"
       inkscape:connector-curvature="0"
       style="fill:#ffffff" />
  </g>
</svg>
