<?xml version="1.0" encoding="UTF-8" standalone="no"?>
<!-- Created with Inkscape (http://www.inkscape.org/) -->

<svg
   xmlns:dc="http://purl.org/dc/elements/1.1/"
   xmlns:cc="http://creativecommons.org/ns#"
   xmlns:rdf="http://www.w3.org/1999/02/22-rdf-syntax-ns#"
   xmlns:svg="http://www.w3.org/2000/svg"
   xmlns="http://www.w3.org/2000/svg"
   xmlns:xlink="http://www.w3.org/1999/xlink"
   xmlns:sodipodi="http://sodipodi.sourceforge.net/DTD/sodipodi-0.dtd"
   xmlns:inkscape="http://www.inkscape.org/namespaces/inkscape"
   id="svg4951"
   height="48"
   width="48"
   version="1.1"
   inkscape:version="0.91 r"
   sodipodi:docname="gthumb.svg">
  <sodipodi:namedview
     pagecolor="#ffffff"
     bordercolor="#666666"
     borderopacity="1"
     objecttolerance="10"
     gridtolerance="10"
     guidetolerance="10"
     inkscape:pageopacity="0"
     inkscape:pageshadow="2"
     inkscape:window-width="1436"
     inkscape:window-height="855"
     id="namedview46"
     showgrid="false"
     inkscape:zoom="4.9166667"
     inkscape:cx="24"
     inkscape:cy="23.186441"
     inkscape:window-x="221"
     inkscape:window-y="403"
     inkscape:window-maximized="0"
     inkscape:current-layer="svg4951" />
  <defs
     id="defs4953">
    <linearGradient
       inkscape:collect="always"
       id="linearGradient3490">
      <stop
         style="stop-color:#c6c1bc;stop-opacity:1;"
         offset="0"
         id="stop3492" />
      <stop
         style="stop-color:#c6c1bc;stop-opacity:0;"
         offset="1"
         id="stop3494" />
    </linearGradient>
    <radialGradient
       id="radialGradient3302"
       gradientUnits="userSpaceOnUse"
       cy="186.17"
       cx="99.157"
       gradientTransform="matrix(.27083 0 0 .087623 -2.8551 25.187)"
       r="62.769">
      <stop
         id="stop3822-2-6-3"
         stop-color="#3d3d3d"
         offset="0" />
      <stop
         id="stop3864-8-7-7"
         stop-color="#686868"
         stop-opacity=".49804"
         offset=".5" />
      <stop
         id="stop3824-1-2-5"
         stop-color="#686868"
         stop-opacity="0"
         offset="1" />
    </radialGradient>
    <radialGradient
       id="radialGradient3037"
       gradientUnits="userSpaceOnUse"
       cy="-17.681"
       cx="14.892"
       gradientTransform="matrix(-1.7922 4.7451e-8 -3.529e-8 -1.3329 41.581 -41.248)"
       r="25.571">
      <stop
         id="stop3767"
         stop-color="#fff"
         offset="0" />
      <stop
         id="stop3769"
         stop-color="#e4e4e4"
         offset="1" />
    </radialGradient>
    <linearGradient
       id="linearGradient3039"
       y2="32.568"
       gradientUnits="userSpaceOnUse"
       x2="15.124"
       y1="-18.801"
       x1="15.124">
      <stop
         id="stop3777"
         stop-color="#fff"
         stop-opacity=".58824"
         offset="0" />
      <stop
         id="stop3779"
         stop-color="#fff"
         offset="1" />
    </linearGradient>
    <radialGradient
       id="R8"
       xlink:href="#G4"
       gradientUnits="userSpaceOnUse"
       cy="27.468"
       cx="16.357"
       gradientTransform="matrix(.57556 .0047099 -.0048979 .55582 15.857 5.9219)"
       r="11.057" />
    <linearGradient
       id="G4">
      <stop
         id="s7"
         stop-color="#d50f0f"
         offset="0" />
      <stop
         id="s8"
         stop-color="#860000"
         offset="1" />
    </linearGradient>
    <linearGradient
       id="G7"
       y2="18.548"
       xlink:href="#G4"
       gradientUnits="userSpaceOnUse"
       x2="7.2131"
       gradientTransform="matrix(.53103 .022998 -.023425 .53312 16.978 6.2732)"
       y1="38.802"
       x1="25.128" />
    <radialGradient
       id="R1"
       xlink:href="#G4"
       gradientUnits="userSpaceOnUse"
       cy="32.026"
       cx="33.921"
       gradientTransform="matrix(.56825 -.0069002 .0064415 .55975 14.806 6.2267)"
       r="12.011" />
    <linearGradient
       id="G6"
       y2="23.323"
       xlink:href="#G4"
       gradientUnits="userSpaceOnUse"
       x2="22.734"
       gradientTransform="matrix(.51666 .022376 -.022879 .52070 17.275 6.5629)"
       y1="46.026"
       x1="42.551" />
    <radialGradient
       id="R9"
       xlink:href="#G1"
       gradientUnits="userSpaceOnUse"
       cy="-3.5974"
       cx="29.496"
       gradientTransform="matrix(-.79883 .076678 -.032006 -.33344 53.947 1.6115)"
       r="9.75" />
    <linearGradient
       id="G1">
      <stop
         id="s1"
         stop-color="#59a40f"
         offset="0" />
      <stop
         id="s2"
         stop-color="#306102"
         offset="1" />
    </linearGradient>
    <radialGradient
       id="R3"
       fx="41.772"
       fy="11.681"
       xlink:href="#G1"
       gradientUnits="userSpaceOnUse"
       cy="11.365"
       cx="41.247"
       gradientTransform="matrix(.36505 -.56094 1.4421 .93854 10.519 23.383)"
       r="4.9179" />
    <linearGradient
       inkscape:collect="always"
       xlink:href="#linearGradient3490"
       id="linearGradient3496"
       x1="15.209727"
       y1="29.890589"
       x2="15.969864"
       y2="0.75200766"
       gradientUnits="userSpaceOnUse" />
    <linearGradient
       inkscape:collect="always"
       xlink:href="#linearGradient4829"
       id="linearGradient7394"
       x1="-156.75342"
       y1="50.380817"
       x2="-156.75342"
       y2="118.3975"
       gradientUnits="userSpaceOnUse"
       gradientTransform="matrix(5.2556599,0,0,5.2556599,803.76273,-222.9931)" />
    <linearGradient
       id="linearGradient4829">
      <stop
         style="stop-color:#f8f4fc;stop-opacity:1;"
         offset="0"
         id="stop4831" />
      <stop
         style="stop-color:#d6d6d6;stop-opacity:1;"
         offset="1"
         id="stop4833" />
    </linearGradient>
  </defs>
  <metadata
     id="metadata4956">
    <rdf:RDF>
      <cc:Work
         rdf:about="">
        <dc:format>image/svg+xml</dc:format>
        <dc:type
           rdf:resource="http://purl.org/dc/dcmitype/StillImage" />
        <dc:title />
      </cc:Work>
    </rdf:RDF>
  </metadata>
  <path
     id="path3818-0-5"
     d="m41 41.5a17 5.5 0 0 1 -34 0 17 5.5 0 1 1 34 0z"
     fill="url(#radialGradient3302)" />
  <path
     id="path2985"
     d="m40.781 6.8335a25.571 25.571 0 1 1 -51.141 0 25.571 25.571 0 1 1 51.141 0z"
     transform="matrix(.80271 0 0 .80271 11.791 18.515)"
     fill="url(#radialGradient3037)"
     style="fill-opacity:1;fill:url(#linearGradient3496)" />
  <path
     id="path3755"
     d="m40.781 6.8335a25.571 25.571 0 1 1 -51.141 0 25.571 25.571 0 1 1 51.141 0z"
     stroke-opacity=".58824"
     transform="matrix(.80271 0 0 .80271 11.791 18.515)"
     stroke="#828282"
     stroke-width="1.1816"
     fill="none" />
  <path
     id="path3773"
     d="m40.781 6.8335a25.571 25.571 0 1 1 -51.141 0 25.571 25.571 0 1 1 51.141 0z"
     stroke-opacity=".58824"
     transform="matrix(.76418 0 0 .76418 12.377 18.778)"
     stroke="url(#linearGradient3039)"
     stroke-width="1.2204"
     fill="none"
     style="fill:#efedec" />
  <path
     id="path19-8"
     d="m-55.203 32.032c-0.68948-0.08373-1.3228-0.4894-1.628-1.0428-0.31109-0.56416-0.33948-0.85964-0.32117-3.3436 0.01418-1.924 0.01914-2.0446 0.0954-2.3202 0.18178-0.65677 0.53377-1.1047 1.0802-1.3747 0.74994-0.37055 1.5582-0.32219 2.2658 0.13558 0.45047 0.29141 0.72423 0.7128 0.87032 1.3397 0.0647 0.27765 0.07089 0.48997 0.07089 2.4335 0 2.3626-0.01149 2.4991-0.25337 3.0111-0.23305 0.49324-0.75998 0.92783-1.3099 1.0803-0.24198 0.0671-0.6627 0.1063-0.87027 0.0811zm0.6042-1.5431c0.2641-0.20144 0.26596-0.218 0.2806-2.4943 0.01137-1.7679 0.005-2.0683-0.04862-2.3095-0.07231-0.32503-0.19916-0.48028-0.44693-0.54699-0.32083-0.08639-0.61474 0.09723-0.7165 0.44766-0.07839 0.26993-0.07758 4.2802 0.00092 4.5507 0.05877 0.20248 0.24976 0.42436 0.39129 0.45456 0.18392 0.03925 0.40998-0.0036 0.53924-0.10218zm3.8826 1.5448c-0.38226-0.0509-0.60536-0.1984-0.75847-0.50146-0.19222-0.38049-0.19212-0.37827-0.19212-4.167v-3.5362h0.77102 0.77102l0.01629 3.2592c0.0177 3.5408 0.01242 3.4581 0.22436 3.5113 0.19461 0.04884 0.40977-0.05546 0.67829-0.32882l0.25725-0.26188 0.0097-3.0899 0.0097-3.0899 0.76998-0.01029 0.76998-0.01029v4.0473 4.0473l-0.10456 0.02148c-0.12615 0.02591-1.2938 0.02422-1.3879-0.002-0.05749-0.01603-0.06654-0.06845-0.06654-0.38553v-0.36698l-0.21864 0.21287c-0.50309 0.48983-1.046 0.71789-1.5495 0.65086zm-10.005-0.13226c-0.03234-0.05233-0.02749-3.1806 0.0056-3.6236 0.04246-0.56815 0.01233-1.0148-0.39553-2.1572-0.1324-0.37085-0.3876-1.1221-0.54715-1.6296-1.1526-3.6662-1.0751-3.4183-0.96497-3.4192 0.75923-0.0065 1.6317-0.002 1.6419 0.0082 0.0073 0.0073 0.25415 0.90261 0.54853 1.9896 0.29438 1.0869 0.54009 1.9917 0.54601 2.0107 0.0059 0.01891 0.17872-0.61418 0.38401-1.4069 0.43034-1.6617 0.6718-2.5792 0.68104-2.5876 0.01925-0.01761 0.23329-0.02168 0.93269-0.01772l0.77414 0.0044-0.01705 0.12358c-0.01394 0.10103-0.54215 1.8751-1.0953 3.6788-0.06093 0.19867-0.21498 0.71199-0.34233 1.1407-0.12735 0.42872-0.28178 0.93796-0.34318 1.1317l-0.11163 0.35217v2.2023c0 2.0652-0.0041 2.2035-0.06654 2.2206-0.13878 0.03797-1.6055 0.01935-1.6302-0.02069z"
     fill="#fff" />
  <g
     style="display:inline"
     id="g7361"
     transform="matrix(0.18292348,0,0,0.18292348,5.2414799,-151.27167)">
    <path
       inkscape:connector-curvature="0"
       id="path7033-6-4"
       d="m 123.48996,1017.4555 c 0,0 20.72761,12.5751 35.30074,-1.998 14.5731,-14.573 1.16162,-31.99739 1.16162,-31.99739 l -35.49928,-1.14899 z"
       style="display:inline;fill:#50bac0;fill-opacity:1;stroke:none"
       sodipodi:nodetypes="csccc" />
    <path
       inkscape:connector-curvature="0"
       id="path7035"
       d="m 39.559667,980.36135 c 0,0 -0.149258,0.44802 37.037367,0.0746 l 16.152392,-16.71159 -1.546687,-7.69252 -27.948679,0.40551 z"
       style="display:inline;fill:#b32f58;fill-opacity:1;stroke:none"
       sodipodi:nodetypes="cccccc" />
    <path
       inkscape:connector-curvature="0"
       id="path7033"
       d="m 40.790251,932.07539 c 0,0 -22.736144,4.37877 -22.736144,24.98826 0,20.60949 21.80426,23.44705 21.80426,23.44705 L 64.41182,957.10616 Z"
       style="display:inline;fill:#ef5f8a;fill-opacity:1;stroke:none"
       sodipodi:nodetypes="csccc" />
    <path
       inkscape:connector-curvature="0"
       id="path7035-1"
       d="m 75.9811,1016.7911 c 0,0 2.509188,-0.659 25.56633,-22.35177 l 1.80789,-28.6858 -9.584556,-3.11082 -22.991091,23.72264 z"
       style="display:inline;fill:#5d569b;fill-opacity:1;stroke:none"
       sodipodi:nodetypes="cccccc" />
    <path
       inkscape:connector-curvature="0"
       id="path7033-6"
       d="m 39.801783,980.29076 c 0,0 -12.575121,20.45724 1.997979,35.03034 14.573131,14.5731 34.09267,1.5671 34.09267,1.5671 l 0.81101,-36.51297 z"
       style="display:inline;fill:#ae81b7;fill-opacity:1;stroke:none"
       sodipodi:nodetypes="csccc" />
    <path
       inkscape:connector-curvature="0"
       id="path7035-9"
       d="m 123.8309,1017.6976 c 0,0 0.78596,-1.8107 2.7105,-34.807 l -19.96871,-21.35529 -5.99467,4.10995 0.4779,33.83242 z"
       style="display:inline;fill:#2a729d;fill-opacity:1;stroke:none"
       sodipodi:nodetypes="cccccc" />
    <path
       inkscape:connector-curvature="0"
       id="path7033-62"
       d="m 75.592753,1016.8015 c 0,0 4.330964,22.4017 24.940457,22.4017 20.60951,0 23.44704,-21.8043 23.44704,-21.8043 l -22.99899,-22.99894 z"
       style="display:inline;fill:#60a8d8;fill-opacity:1;stroke:none" />
    <path
       inkscape:connector-curvature="0"
       id="path7035-1-7"
       d="m 159.77119,983.49017 c 0,0 -2.34947,-2.98308 -23.5559,-26.81563 l -30.03177,0.009 0.082,5.41381 20.12112,21.65042 z"
       style="display:inline;fill:#3a9b6b;fill-opacity:1;stroke:none"
       sodipodi:nodetypes="cccccc" />
    <path
       inkscape:connector-curvature="0"
       id="path7035-2"
       d="m 160.55155,934.15127 c 0,0 2.09075,-3.09888 -35.09588,-2.72552 l -19.33721,20.23503 0.0529,5.26548 36.16029,0 z"
       style="display:inline;fill:#82ba3c;fill-opacity:1;stroke:none"
       sodipodi:nodetypes="cccccc" />
    <path
       inkscape:connector-curvature="0"
       id="path7033-7"
       d="m 159.46432,983.44081 c 0,0 22.59279,-5.38235 22.59279,-25.99184 0,-20.60949 -21.80426,-23.44705 -21.80426,-23.44705 l -26.63104,22.71226 z"
       style="display:inline;fill:#abd17f;fill-opacity:1;stroke:none"
       sodipodi:nodetypes="csccc" />
    <path
       inkscape:connector-curvature="0"
       id="path7035-1-0"
       d="m 126.65516,898.13962 c 0,0 -4.50464,-0.79244 -30.535533,25.76649 l 4.051443,24.45169 6.18409,3.52922 23.49647,-24.97492 z"
       style="display:inline;fill:#d8ab2d;fill-opacity:1;stroke:none"
       sodipodi:nodetypes="cccccc" />
    <path
       inkscape:connector-curvature="0"
       id="path7033-6-5"
       d="m 160.29784,934.00556 c 0,0 12.58672,-20.24093 -1.98638,-34.81406 -14.57313,-14.5731 -32.82187,-0.73149 -32.82187,-0.73149 l -0.0541,33.02468 z"
       style="display:inline;fill:#c1dc7b;fill-opacity:1;stroke:none"
       sodipodi:nodetypes="csccc" />
    <path
       inkscape:connector-curvature="0"
       id="path7035-9-2"
       d="m 76.28032,896.81499 c 0,0 -3.193696,-1.62768 -2.820306,35.55895 l 18.165419,20.59444 8.951667,-4.62725 -0.579334,-32.9161 z"
       style="display:inline;fill:#e75427;fill-opacity:1;stroke:none"
       sodipodi:nodetypes="cccccc" />
    <path
       inkscape:connector-curvature="0"
       id="path7033-62-2"
       d="m 125.49941,898.45425 c 0,0 -5.31191,-23.14482 -25.921393,-23.14482 -20.609522,0 -23.447047,21.80426 -23.447047,21.80426 l 23.96976,27.62866 z"
       style="display:inline;fill:#f9a740;fill-opacity:1;stroke:none"
       sodipodi:nodetypes="csccc" />
    <path
       inkscape:connector-curvature="0"
       id="path7035-1-7-2"
       d="m 40.197715,931.51546 c 0,0 -3.028901,-0.1043 23.530026,25.92666 8.060948,-0.44004 14.121747,-0.50338 27.488211,-1.23349 l 0.766691,-5.74898 -17.837938,-18.81695 z"
       style="display:inline;fill:#dd2735;fill-opacity:1;stroke:none"
       sodipodi:nodetypes="cccccc" />
    <path
       inkscape:connector-curvature="0"
       id="path7033-6-4-4"
       d="m 76.172046,896.81444 c 0,0 -20.2784,-12.33276 -34.8515,2.24034 -14.573131,14.57313 -0.897629,33.37033 -0.897629,33.37033 l 33.951119,-0.47521 z"
       style="display:inline;fill:#ec7a84;fill-opacity:1;stroke:none"
       sodipodi:nodetypes="csccc" />
    <circle
       id="path7176"
       style="color:#000000;display:inline;overflow:visible;visibility:visible;fill:url(#linearGradient7394);fill-opacity:1;fill-rule:nonzero;stroke:none;stroke-width:14.00999928;marker:none;enable-background:accumulate"
       transform="matrix(3.0585684,0,0,3.0585684,579.4388,699.14629)"
       cx="-157.09375"
       cy="84.25"
       r="3.03125" />
    <ellipse
       transform="matrix(3.0564985,-0.11250689,0.11250689,3.0564985,569.85617,679.99335)"
       id="path7178"
       style="color:#000000;display:inline;overflow:visible;visibility:visible;fill:#7c061b;fill-opacity:1;fill-rule:nonzero;stroke:none;stroke-width:14.00999928;marker:none;enable-background:accumulate"
       cx="-164.28125"
       cy="84.53125"
       rx="4.09375"
       ry="1.4375" />
    <ellipse
       id="path7178-5"
       style="color:#000000;display:inline;overflow:visible;visibility:visible;fill:#275f18;fill-opacity:1;fill-rule:nonzero;stroke:none;stroke-width:14.00999928;marker:none;enable-background:accumulate"
       transform="matrix(3.0585684,0,0,3.0585684,623.16538,698.53803)"
       cx="-164.28125"
       cy="84.53125"
       rx="4.09375"
       ry="1.4375" />
    <ellipse
       id="path7178-6"
       style="color:#000000;display:inline;overflow:visible;visibility:visible;fill:#ae3e09;fill-opacity:1;fill-rule:nonzero;stroke:none;stroke-width:14.00999928;marker:none;enable-background:accumulate"
       transform="matrix(-0.05702423,2.8351179,-3.0579499,-0.06150617,349.32403,1407.2283)"
       cx="-164.28125"
       cy="84.53125"
       rx="4.09375"
       ry="1.4375" />
    <ellipse
       id="path7178-6-1"
       style="color:#000000;display:inline;overflow:visible;visibility:visible;fill:#151b4a;fill-opacity:1;fill-rule:nonzero;stroke:none;stroke-width:14.00999928;marker:none;enable-background:accumulate"
       transform="matrix(-0.03181945,3.2730361,-3.058424,-0.02973306,354.09504,1519.4471)"
       cx="-164.28125"
       cy="84.53125"
       rx="4.09375"
       ry="1.4375" />
    <ellipse
       id="path7178-9"
       style="color:#000000;display:inline;overflow:visible;visibility:visible;fill:#950a0d;fill-opacity:1;fill-rule:nonzero;stroke:none;stroke-width:14.00999928;marker:none;enable-background:accumulate"
       transform="matrix(2.1160163,2.2795301,-2.1160163,2.2795301,609.54683,1123.5051)"
       cx="-164.28125"
       cy="84.53125"
       rx="4.09375"
       ry="1.4375" />
    <ellipse
       id="path7178-5-9"
       style="color:#000000;display:inline;overflow:visible;visibility:visible;fill:#093129;fill-opacity:1;fill-rule:nonzero;stroke:none;stroke-width:14.00999928;marker:none;enable-background:accumulate"
       transform="matrix(2.341393,2.5104861,-2.59379,2.2487585,719.86439,1194.9048)"
       cx="-164.28125"
       cy="84.53125"
       rx="4.09375"
       ry="1.4375" />
    <ellipse
       id="path7178-6-4"
       style="color:#000000;display:inline;overflow:visible;visibility:visible;fill:#526718;fill-opacity:1;fill-rule:nonzero;stroke:none;stroke-width:14.00999928;marker:none;enable-background:accumulate"
       transform="matrix(-2.2795301,2.3262483,-2.2795301,-2.3262483,-66.127086,1520.3773)"
       cx="-164.28125"
       cy="84.53125"
       rx="4.09375"
       ry="1.4375" />
    <ellipse
       id="path7178-6-1-8"
       style="color:#000000;display:inline;overflow:visible;visibility:visible;fill:#3d0c34;fill-opacity:1;fill-rule:nonzero;stroke:none;stroke-width:14.00999928;marker:none;enable-background:accumulate"
       transform="matrix(-1.9914343,1.9914343,-1.9914343,-1.9914343,-73.666304,1467.6537)"
       cx="-164.28125"
       cy="84.53125"
       rx="4.09375"
       ry="1.4375" />
  </g>
</svg>
