<?xml version="1.0" encoding="UTF-8" standalone="no"?>
<!-- Created with Inkscape (http://www.inkscape.org/) -->

<svg
   xmlns:dc="http://purl.org/dc/elements/1.1/"
   xmlns:cc="http://creativecommons.org/ns#"
   xmlns:rdf="http://www.w3.org/1999/02/22-rdf-syntax-ns#"
   xmlns:svg="http://www.w3.org/2000/svg"
   xmlns="http://www.w3.org/2000/svg"
   xmlns:xlink="http://www.w3.org/1999/xlink"
   xmlns:sodipodi="http://sodipodi.sourceforge.net/DTD/sodipodi-0.dtd"
   xmlns:inkscape="http://www.inkscape.org/namespaces/inkscape"
   id="svg4061"
   height="48"
   width="48"
   version="1.1"
   inkscape:version="0.92.0 unknown"
   sodipodi:docname="internet-news-reader.svg">
  <sodipodi:namedview
     pagecolor="#ffffff"
     bordercolor="#666666"
     borderopacity="1"
     objecttolerance="10"
     gridtolerance="10"
     guidetolerance="10"
     inkscape:pageopacity="0"
     inkscape:pageshadow="2"
     inkscape:window-width="1571"
     inkscape:window-height="1068"
     id="namedview46"
     showgrid="false"
     inkscape:zoom="6.9532166"
     inkscape:cx="0.64844699"
     inkscape:cy="20.936929"
     inkscape:window-x="718"
     inkscape:window-y="229"
     inkscape:window-maximized="0"
     inkscape:current-layer="svg4061" />
  <defs
     id="defs4063">
    <linearGradient
       inkscape:collect="always"
       id="linearGradient3952">
      <stop
         style="stop-color:#d87408;stop-opacity:1;"
         offset="0"
         id="stop3948" />
      <stop
         style="stop-color:#d89c08;stop-opacity:0.8267327"
         offset="1"
         id="stop3950" />
    </linearGradient>
    <linearGradient
       id="linearGradient3026"
       y2="40.496"
       gradientUnits="userSpaceOnUse"
       x2="71.204"
       gradientTransform="matrix(1.6042426,0,0,1.6042426,-91.604678,-20.523038)"
       y1="15.369"
       x1="71.204">
      <stop
         id="stop4808-4"
         stop-color="#fff"
         offset="0" />
      <stop
         id="stop4810-0"
         stop-color="#fff"
         stop-opacity=".23529"
         offset=".42448" />
      <stop
         id="stop4812-8"
         stop-color="#fff"
         stop-opacity=".15686"
         offset=".82090" />
      <stop
         id="stop4814-0"
         stop-color="#fff"
         stop-opacity=".39216"
         offset="1" />
    </linearGradient>
    <radialGradient
       id="radialGradient3029"
       fx="4.459"
       fy="8.5089"
       gradientUnits="userSpaceOnUse"
       cy="8.6258"
       cx="15.026"
       gradientTransform="matrix(-3.4973e-8 1.8855 -1.7764 -5.4723e-8 39.14 -7.9932)"
       r="20">
      <stop
         id="stop4170"
         stop-color="#ff9696"
         offset="0" />
      <stop
         id="stop4172"
         stop-color="#fd7676"
         offset="0.1668274" />
      <stop
         id="stop4174"
         stop-color="#f94040"
         offset="0.48762146" />
      <stop
         id="stop4176"
         stop-color="#e42020"
         offset="1"
         style="stop-color:#e77f5b;stop-opacity:1" />
    </radialGradient>
    <radialGradient
       id="radialGradient3032"
       gradientUnits="userSpaceOnUse"
       cy="3.99"
       cx="23.896"
       gradientTransform="matrix(0,2.8657111,-3.7827188,0,39.274535,-65.058877)"
       r="20.397">
      <stop
         id="stop3244-9-33-7-0-9"
         stop-color="#fff"
         offset="0" />
      <stop
         id="stop3246-3-5-0-8-5"
         stop-color="#ddd"
         offset=".26238" />
      <stop
         id="stop3248-1-7-8-8-1"
         stop-color="#abacae"
         offset=".66094" />
      <stop
         id="stop3250-9-3-0-5-1"
         stop-color="#89898b"
         offset="1" />
    </radialGradient>
    <radialGradient
       id="radialGradient3035"
       gradientUnits="userSpaceOnUse"
       cy="186.17"
       cx="99.157"
       gradientTransform="matrix(0.26869328,0,0,0.0869317,-2.4616673,25.359094)"
       r="62.769">
      <stop
         id="stop3822-2-6-3"
         stop-color="#3d3d3d"
         offset="0" />
      <stop
         id="stop3864-8-7-7"
         stop-color="#686868"
         stop-opacity=".49804"
         offset=".5" />
      <stop
         id="stop3824-1-2-5"
         stop-color="#686868"
         stop-opacity="0"
         offset="1" />
    </radialGradient>
    <linearGradient
       id="ButtonShadow"
       y2="7.0165"
       gradientUnits="userSpaceOnUse"
       x2="45.448"
       gradientTransform="scale(1.0059 .99417)"
       y1="92.54"
       x1="45.448">
      <stop
         id="stop3750"
         offset="0" />
      <stop
         id="stop3752"
         stop-opacity=".58824"
         offset="1" />
    </linearGradient>
    <filter
       id="filter3174"
       style="color-interpolation-filters:sRGB">
      <feGaussianBlur
         id="feGaussianBlur3176"
         stdDeviation="1.71" />
    </filter>
    <linearGradient
       id="linearGradient3185"
       y2="-167.53"
       xlink:href="#SVGID_14_"
       gradientUnits="userSpaceOnUse"
       x2="206.69"
       gradientTransform="matrix(.72832 0 0 -.72832 -295.83 -108.58)"
       y1="-167.53"
       x1="206.69" />
    <linearGradient
       id="SVGID_14_"
       y2="-167.53"
       gradientUnits="userSpaceOnUse"
       x2="206.69"
       gradientTransform="matrix(1 0 0 -1 -270.96 -122.07)"
       y1="-167.53"
       x1="206.69">
      <stop
         id="stop3506"
         stop-color="#7e9ec4"
         offset="0" />
      <stop
         id="stop3508"
         stop-color="#151d89"
         offset="1" />
    </linearGradient>
    <linearGradient
       id="linearGradient3182"
       y2="-167.53"
       xlink:href="#SVGID_14_"
       gradientUnits="userSpaceOnUse"
       x2="206.69"
       gradientTransform="matrix(.72832 0 0 -.72832 -375.83 -107.58)"
       y1="-167.53"
       x1="206.69" />
    <linearGradient
       id="linearGradient4829">
      <stop
         style="stop-color:#f4fbfc;stop-opacity:1;"
         offset="0"
         id="stop4831" />
      <stop
         style="stop-color:#d6d6d6;stop-opacity:1;"
         offset="1"
         id="stop4833" />
    </linearGradient>
    <linearGradient
       inkscape:collect="always"
       xlink:href="#linearGradient3952"
       id="linearGradient3954"
       x1="24.017662"
       y1="42.534904"
       x2="24.16148"
       y2="5.717411"
       gradientUnits="userSpaceOnUse" />
  </defs>
  <metadata
     id="metadata4066">
    <rdf:RDF>
      <cc:Work
         rdf:about="">
        <dc:format>image/svg+xml</dc:format>
        <dc:type
           rdf:resource="http://purl.org/dc/dcmitype/StillImage" />
        <dc:title></dc:title>
      </cc:Work>
    </rdf:RDF>
  </metadata>
  <g
     id="layer2"
     display="none"
     transform="translate(-226.12 -28.077)">
    <rect
       id="rect3745"
       opacity=".9"
       rx="6"
       ry="6"
       height="85"
       filter="url(#filter3174)"
       width="86"
       y="7"
       x="5"
       fill="url(#ButtonShadow)" />
  </g>
  <path
     style="fill:url(#radialGradient3035);stroke-width:0.99211049"
     inkscape:connector-curvature="0"
     id="path3818-0-5"
     d="m 41.047437,41.543393 a 16.865878,5.4566077 0 0 1 -33.7317564,0 16.865878,5.4566077 0 1 1 33.7317564,0 z" />
  <path
     inkscape:connector-curvature="0"
     id="path2555-7-2"
     style="color:#000000;fill:url(#radialGradient3032);stroke-width:0.99211049"
     d="m 24.181559,3.8431947 c -11.221762,0 -20.3382651,9.1165033 -20.3382651,20.3382643 0,11.221762 9.1165031,20.338265 20.3382651,20.338265 11.221761,0 20.338264,-9.116503 20.338264,-20.338265 0,-11.221761 -9.116503,-20.3382643 -20.338264,-20.3382643 z" />
  <path
     inkscape:connector-curvature="0"
     id="path2555-7-65"
     style="color:#000000;fill:url(#linearGradient3954);fill-opacity:1;stroke-width:0.99211049"
     d="m 24.181559,3.8431947 c -11.221762,0 -20.3382651,9.1165033 -20.3382651,20.3382643 0,11.221762 9.1165031,20.338265 20.3382651,20.338265 11.221761,0 20.338264,-9.116503 20.338264,-20.338265 0,-11.221761 -9.116503,-20.3382643 -20.338264,-20.3382643 z" />
  <path
     inkscape:connector-curvature="0"
     id="path4176"
     style="color:#000000;opacity:0.5;fill:none;stroke:url(#linearGradient3026);stroke-width:0.99211049;stroke-linecap:round;stroke-linejoin:round"
     d="m 43.527713,24.181459 c 0,10.68503 -8.661125,19.346155 -19.346154,19.346155 -10.68503,0 -19.3461546,-8.661125 -19.3461546,-19.346155 0,-10.685029 8.6611246,-19.3461538 19.3461546,-19.3461538 10.685029,0 19.346154,8.6611248 19.346154,19.3461538 z" />
  <path
     inkscape:connector-curvature="0"
     id="path2555-7-1-7"
     style="color:#000000;opacity:1;fill:none;stroke:#ffffff;stroke-width:1.68658781;stroke-linecap:round;stroke-linejoin:round;stroke-miterlimit:4;stroke-dasharray:none;stroke-opacity:1"
     d="m 24.181559,3.8432939 c -11.221762,0 -20.3382651,9.1163051 -20.3382651,20.3382651 0,11.22196 9.1163051,20.338264 20.3382651,20.338264 11.22196,0 20.338264,-9.116304 20.338264,-20.338264 0,-11.22196 -9.116503,-20.3382651 -20.338264,-20.3382651 z" />
  <path
     inkscape:connector-curvature="0"
     style="font-style:normal;font-variant:normal;font-weight:bold;font-stretch:normal;font-size:13.58991337px;line-height:125%;font-family:'Bitstream Vera Serif';text-align:start;writing-mode:lr-tb;text-anchor:start;opacity:0.3;fill:#ba3d12;fill-opacity:1;stroke:#ba3d12;stroke-width:0.80092102;stroke-linejoin:round;stroke-miterlimit:4;stroke-dasharray:none;stroke-opacity:1"
     id="path4052"
     d="m 16.243336,32.136655 c 0,-0.603831 0.199139,-1.110765 0.59737,-1.520795 0.39826,-0.417466 0.885404,-0.6262 1.461442,-0.626217 0.561806,1.7e-5 1.038286,0.208751 1.429424,0.626217 0.398246,0.41003 0.597364,0.916964 0.597364,1.520795 0,0.588946 -0.199118,1.092161 -0.597364,1.509617 -0.391138,0.41003 -0.867618,0.615044 -1.429424,0.615031 -0.576038,1.3e-5 -1.063182,-0.205001 -1.461442,-0.615031 -0.398231,-0.410007 -0.59737,-0.913202 -0.59737,-1.509617 m -0.118871,-9.695943 v 3.571717 c 4.358065,0 7.897757,3.712848 7.897757,8.28411 h 3.42295 c 0,-6.548028 -5.078071,-11.855827 -11.320707,-11.855827 z m 0.0057,-7.815343 v 3.948102 c 8.274558,0 14.993086,7.042863 14.993086,15.716882 h 3.784323 c 0,-10.858127 -8.419319,-19.664984 -18.777403,-19.664984 z" />
  <path
     inkscape:connector-curvature="0"
     style="font-style:normal;font-variant:normal;font-weight:bold;font-stretch:normal;font-size:13.58991337px;line-height:125%;font-family:'Bitstream Vera Serif';text-align:start;writing-mode:lr-tb;text-anchor:start;fill:#ffffff;fill-opacity:1;stroke:none;stroke-width:0.38692307"
     id="path4311"
     d="m 16.381768,31.328744 c 0,-0.594897 0.188694,-1.094327 0.566042,-1.498294 0.377371,-0.411283 0.838968,-0.616934 1.384792,-0.616951 0.532341,1.7e-5 0.98383,0.205668 1.354455,0.616951 0.377358,0.403967 0.566036,0.903397 0.566036,1.498294 0,0.580238 -0.188678,1.075998 -0.566036,1.487281 -0.370625,0.403967 -0.822114,0.605944 -1.354455,0.605932 -0.545824,1.2e-5 -1.007421,-0.201965 -1.384792,-0.605932 -0.377348,-0.403939 -0.566042,-0.899695 -0.566042,-1.487281 m -0.112638,-9.55248 v 3.518864 c 4.1295,0 7.483542,3.657916 7.483542,8.161548 H 26.9961 c 0,-6.451149 -4.811743,-11.680412 -10.72697,-11.680412 z m 0.0056,-7.699716 v 3.889693 c 7.840581,0 14.206741,6.938657 14.206741,15.484334 h 3.585864 C 34.06731,22.753108 26.089563,14.076548 16.274733,14.076548 Z" />
</svg>
