<?xml version="1.0" encoding="UTF-8" standalone="no"?>
<!-- Created with Inkscape (http://www.inkscape.org/) -->

<svg
   xmlns:dc="http://purl.org/dc/elements/1.1/"
   xmlns:cc="http://creativecommons.org/ns#"
   xmlns:rdf="http://www.w3.org/1999/02/22-rdf-syntax-ns#"
   xmlns:svg="http://www.w3.org/2000/svg"
   xmlns="http://www.w3.org/2000/svg"
   xmlns:xlink="http://www.w3.org/1999/xlink"
   xmlns:sodipodi="http://sodipodi.sourceforge.net/DTD/sodipodi-0.dtd"
   xmlns:inkscape="http://www.inkscape.org/namespaces/inkscape"
   id="svg4951"
   height="48"
   width="48"
   version="1.1"
   sodipodi:docname="opera.svg"
   inkscape:version="0.92.0 unknown">
  <sodipodi:namedview
     pagecolor="#ffffff"
     bordercolor="#666666"
     borderopacity="1"
     objecttolerance="10"
     gridtolerance="10"
     guidetolerance="10"
     inkscape:pageopacity="0"
     inkscape:pageshadow="2"
     inkscape:window-width="1536"
     inkscape:window-height="1190"
     id="namedview37"
     showgrid="false"
     inkscape:zoom="4.9166667"
     inkscape:cx="-1.4237288"
     inkscape:cy="24"
     inkscape:window-x="0"
     inkscape:window-y="30"
     inkscape:window-maximized="0"
     inkscape:current-layer="svg4951" />
  <defs
     id="defs4953">
    <radialGradient
       id="radialGradient3302"
       gradientUnits="userSpaceOnUse"
       cy="186.17"
       cx="99.157"
       gradientTransform="matrix(.27083 0 0 .087623 -2.8551 25.187)"
       r="62.769">
      <stop
         id="stop3822-2-6-3"
         stop-color="#3d3d3d"
         offset="0" />
      <stop
         id="stop3864-8-7-7"
         stop-color="#686868"
         stop-opacity=".49804"
         offset=".5" />
      <stop
         id="stop3824-1-2-5"
         stop-color="#686868"
         stop-opacity="0"
         offset="1" />
    </radialGradient>
    <radialGradient
       id="radialGradient3037"
       gradientUnits="userSpaceOnUse"
       cy="-17.681"
       cx="14.892"
       gradientTransform="matrix(-1.7922 4.7451e-8 -3.529e-8 -1.3329 41.581 -41.248)"
       r="25.571">
      <stop
         id="stop3767"
         stop-color="#fff"
         offset="0" />
      <stop
         id="stop3769"
         stop-color="#e4e4e4"
         offset="1" />
    </radialGradient>
    <linearGradient
       id="linearGradient3039"
       y2="32.568001"
       gradientUnits="userSpaceOnUse"
       x2="15.124"
       y1="-18.801001"
       x1="15.124"
       xlink:href="#radialGradient3037">
      <stop
         id="stop3777"
         stop-color="#fff"
         stop-opacity=".58824"
         offset="0" />
      <stop
         id="stop3779"
         stop-color="#fff"
         offset="1" />
    </linearGradient>
    <linearGradient
       id="linearGradient3127"
       y2="156"
       gradientUnits="userSpaceOnUse"
       y1="133.54"
       x2="36.164"
       x1="36.164">
      <stop
         id="stop5191"
         stop-color="#fff"
         offset="0" />
      <stop
         id="stop5193"
         stop-color="#fff"
         stop-opacity="0"
         offset="1" />
    </linearGradient>
    <clipPath
       id="clipPath-368322014">
      <g
         id="g17"
         transform="translate(0 -1004.4)">
        <path
           id="path19"
           d="m-24 13c0 1.105-0.672 2-1.5 2s-1.5-0.895-1.5-2 0.672-2 1.5-2 1.5 0.895 1.5 2z"
           transform="matrix(15.333 0 0 11.5 415 878.86)"
           fill="#1890d0" />
      </g>
    </clipPath>
  </defs>
  <metadata
     id="metadata4956">
    <rdf:RDF>
      <cc:Work
         rdf:about="">
        <dc:format>image/svg+xml</dc:format>
        <dc:type
           rdf:resource="http://purl.org/dc/dcmitype/StillImage" />
        <dc:title></dc:title>
      </cc:Work>
    </rdf:RDF>
  </metadata>
  <path
     id="path3818-0-5"
     d="m41 41.5a17 5.5 0 0 1 -34 0 17 5.5 0 1 1 34 0z"
     fill="url(#radialGradient3302)" />
  <path
     id="path2985"
     d="m40.781 6.8335a25.571 25.571 0 1 1 -51.141 0 25.571 25.571 0 1 1 51.141 0z"
     transform="matrix(.80271 0 0 .80271 11.791 18.515)"
     fill="url(#radialGradient3037)" />
  <path
     id="path3755"
     d="m40.781 6.8335a25.571 25.571 0 1 1 -51.141 0 25.571 25.571 0 1 1 51.141 0z"
     stroke-opacity=".16337"
     transform="matrix(.80271 0 0 .80271 11.791 18.515)"
     stroke="#004081"
     stroke-width="1.1816"
     fill="none" />
  <path
     id="path3773"
     d="m40.781 6.8335a25.571 25.571 0 1 1 -51.141 0 25.571 25.571 0 1 1 51.141 0z"
     stroke-opacity=".58824"
     transform="matrix(.76418 0 0 .76418 12.377 18.778)"
     stroke="url(#linearGradient3039)"
     stroke-width="1.2204"
     fill="none"
     style="fill:#fffdfd;fill-opacity:1;stroke-width:2.74804365;stroke-miterlimit:4;stroke-dasharray:none;opacity:1;stroke:#ffffff;stroke-opacity:1" />
  <path
     id="path4317-4"
     style="color:#000000"
     d="m35.312 139.5c-12.41 0-22.375 10.193-22.375 22.969v6.25h0.375 44.031 0.375v-6.25c0.001-12.77-9.995-22.97-22.406-22.97z"
     stroke="url(#linearGradient3127)"
     stroke-width="1.369"
     fill="none" />
  <g
     id="g4402"
     fill="none">
    <g
       id="g4404"
       transform="matrix(.77778 0 0 .79936 3 5.207)">
      <g
         id="g4406"
         fill="none"
         clip-path="url(#clipPath-368322014)">
        <!-- color: #e2e2e2 -->
        <g
           id="g4408"
           fill="none">
          <path
             id="path4410"
             fill="none"
             d="m18 11v25.02l18-12.504m-18-12.512" />
        </g>
      </g>
    </g>
    <path
       id="path4412"
       d="m27 16h4v26.8s-1.3096 0.43294-1.9781 0.6c-0.667 0.167-2.022 0.4-2.022 0.4z" />
  </g>
  <g
     id="g49"
     transform="matrix(.77778 0 0 .79936 3 5.207)">
    <g
       id="g51"
       clip-path="url(#clipPath-368322014)">
      <!-- color: #e2e2e2 -->
    </g>
  </g>
  <g
     id="g4798"
     transform="matrix(0.23612304,0,0,-0.23641959,-35.632115,85.588752)"
     style="fill:#da3c42">
    <g
       id="g4800"
       style="fill:#da3c42">
      <g
         id="g4802"
         style="fill:#da3c42">
        <g
           id="g4804"
           style="fill:#da3c42">
          <path
             id="path4806"
             d="m 185,260.56 c 0,-37.755 26.508,-72.139 66.281,-72.139 39.776,0 66.277,34.384 66.277,72.139 0,42.431 -27.281,70.703 -66.277,70.703 C 212.279,331.263 185,302.991 185,260.56 m 39.17,1.585 c 0,28.512 4.605,60.009 27.113,60.009 22.506,0 27.072,-31.831 27.072,-60.344 0,-26.413 -2.81,-62.401 -27.072,-62.401 -24.264,0 -27.113,36.326 -27.113,62.736"
             inkscape:connector-curvature="0"
             style="fill:#da3c42" />
        </g>
      </g>
    </g>
  </g>
</svg>
