<?xml version="1.0" encoding="UTF-8" standalone="no"?>
<!-- Created with Inkscape (http://www.inkscape.org/) -->

<svg
   xmlns:dc="http://purl.org/dc/elements/1.1/"
   xmlns:cc="http://creativecommons.org/ns#"
   xmlns:rdf="http://www.w3.org/1999/02/22-rdf-syntax-ns#"
   xmlns:svg="http://www.w3.org/2000/svg"
   xmlns="http://www.w3.org/2000/svg"
   xmlns:xlink="http://www.w3.org/1999/xlink"
   xmlns:sodipodi="http://sodipodi.sourceforge.net/DTD/sodipodi-0.dtd"
   xmlns:inkscape="http://www.inkscape.org/namespaces/inkscape"
   id="svg4061"
   height="48"
   width="48"
   version="1.1"
   inkscape:version="0.92.0 unknown"
   sodipodi:docname="steam.svg">
  <sodipodi:namedview
     pagecolor="#ffffff"
     bordercolor="#666666"
     borderopacity="1"
     objecttolerance="10"
     gridtolerance="10"
     guidetolerance="10"
     inkscape:pageopacity="0"
     inkscape:pageshadow="2"
     inkscape:window-width="1494"
     inkscape:window-height="1004"
     id="namedview40"
     showgrid="false"
     inkscape:zoom="6.9532165"
     inkscape:cx="-20.133303"
     inkscape:cy="29.433395"
     inkscape:window-x="396"
     inkscape:window-y="284"
     inkscape:window-maximized="0"
     inkscape:current-layer="g4206" />
  <defs
     id="defs4063">
    <linearGradient
       id="linearGradient4524"
       inkscape:collect="always">
      <stop
         id="stop4520"
         offset="0"
         style="stop-color:#0068e0;stop-opacity:1;" />
      <stop
         id="stop4522"
         offset="1"
         style="stop-color:#000304;stop-opacity:1" />
    </linearGradient>
    <linearGradient
       inkscape:collect="always"
       id="linearGradient3361">
      <stop
         style="stop-color:#0068e0;stop-opacity:1;"
         offset="0"
         id="stop3363" />
      <stop
         style="stop-color:#00acf4;stop-opacity:1"
         offset="1"
         id="stop3365" />
    </linearGradient>
    <linearGradient
       id="linearGradient3026"
       y2="40.495998"
       gradientUnits="userSpaceOnUse"
       x2="71.204002"
       gradientTransform="matrix(1.617,0,0,1.617,-92.707,-21.06)"
       y1="15.369"
       x1="71.204002"
       xlink:href="#linearGradient3361">
      <stop
         id="stop4808-4"
         stop-color="#fff"
         offset="0" />
      <stop
         id="stop4810-0"
         stop-color="#fff"
         stop-opacity=".23529"
         offset=".42448" />
      <stop
         id="stop4812-8"
         stop-color="#fff"
         stop-opacity=".15686"
         offset=".82090" />
      <stop
         id="stop4814-0"
         stop-color="#fff"
         stop-opacity=".39216"
         offset="1" />
    </linearGradient>
    <radialGradient
       id="radialGradient3029"
       fx="4.459"
       fy="8.5089"
       gradientUnits="userSpaceOnUse"
       cy="8.6258"
       cx="15.026"
       gradientTransform="matrix(-3.4973e-8 1.8855 -1.7764 -5.4723e-8 39.14 -7.9932)"
       r="20">
      <stop
         id="stop4170"
         stop-color="#c24251"
         offset="0" />
      <stop
         id="stop4172"
         stop-color="#c24251"
         offset=".26238" />
      <stop
         id="stop4174"
         stop-color="#a63643"
         offset=".66094" />
      <stop
         id="stop4176"
         stop-color="#a63643"
         offset="1" />
    </radialGradient>
    <radialGradient
       id="radialGradient3032"
       gradientUnits="userSpaceOnUse"
       cy="3.99"
       cx="23.896"
       gradientTransform="matrix(0,2.8885,-3.8128,0,39.213,-65.95)"
       r="20.397">
      <stop
         id="stop3244-9-33-7-0-9"
         stop-color="#fff"
         offset="0" />
      <stop
         id="stop3246-3-5-0-8-5"
         stop-color="#ddd"
         offset=".26238" />
      <stop
         id="stop3248-1-7-8-8-1"
         stop-color="#abacae"
         offset=".66094" />
      <stop
         id="stop3250-9-3-0-5-1"
         stop-color="#89898b"
         offset="1" />
    </radialGradient>
    <radialGradient
       id="radialGradient3035"
       gradientUnits="userSpaceOnUse"
       cy="186.17"
       cx="99.157"
       gradientTransform="matrix(0.27083,0,0,0.087623,-2.8551,25.187)"
       r="62.769">
      <stop
         id="stop3822-2-6-3"
         stop-color="#3d3d3d"
         offset="0" />
      <stop
         id="stop3864-8-7-7"
         stop-color="#686868"
         stop-opacity=".49804"
         offset=".5" />
      <stop
         id="stop3824-1-2-5"
         stop-color="#686868"
         stop-opacity="0"
         offset="1" />
    </radialGradient>
    <linearGradient
       id="linearGradient4433"
       y2="25.611"
       gradientUnits="userSpaceOnUse"
       x2="23.078"
       gradientTransform="matrix(1 0 0 1.0521 0 -.90547)"
       y1="13.035"
       x1="22.759">
      <stop
         id="stop6305-1-0-2"
         stop-color="#fff"
         offset="0" />
      <stop
         id="stop6307-5-0-6"
         stop-color="#fff"
         stop-opacity="0"
         offset="1" />
    </linearGradient>
    <linearGradient
       inkscape:collect="always"
       xlink:href="#linearGradient4524"
       id="linearGradient3367"
       x1="24.585493"
       y1="43.119007"
       x2="24.729315"
       y2="13.717715"
       gradientUnits="userSpaceOnUse"
       gradientTransform="matrix(0.98360659,0,0,0.98360654,0.04344263,0.7434424)" />
    <linearGradient
       id="linearGradient4829">
      <stop
         style="stop-color:#f4fbfc;stop-opacity:1;"
         offset="0"
         id="stop4831" />
      <stop
         style="stop-color:#d6d6d6;stop-opacity:1;"
         offset="1"
         id="stop4833" />
    </linearGradient>
    <inkscape:perspective
       sodipodi:type="inkscape:persp3d"
       inkscape:vp_x="2.276055 : 21.805636 : 1"
       inkscape:vp_y="0 : 544.94734 : 0"
       inkscape:vp_z="43.348074 : 17.545139 : 1"
       inkscape:persp3d-origin="22.01151 : 11.732367 : 1"
       id="perspective6801-3" />
    <radialGradient
       id="SVGID_4_"
       cx="224.50391"
       cy="186.51421"
       r="127.0051"
       gradientUnits="userSpaceOnUse">
      <stop
         offset="0"
         style="stop-color:#FFFFFF"
         id="stop27" />
      <stop
         offset="0.3984"
         style="stop-color:#FDFEFF"
         id="stop29" />
      <stop
         offset="0.6131"
         style="stop-color:#F5FAFF"
         id="stop31" />
      <stop
         offset="0.7841"
         style="stop-color:#E7F3FF"
         id="stop33" />
      <stop
         offset="0.9311"
         style="stop-color:#D4EAFF"
         id="stop35" />
      <stop
         offset="1"
         style="stop-color:#C8E4FF"
         id="stop37" />
    </radialGradient>
    <radialGradient
       gradientUnits="userSpaceOnUse"
       r="26.769501"
       cy="286.66409"
       cx="324.69339"
       id="SVGID_5_">
      <stop
         id="stop50"
         style="stop-color:#FFFFFF"
         offset="0" />
      <stop
         id="stop52"
         style="stop-color:#FDFEFF"
         offset="0.3984" />
      <stop
         id="stop54"
         style="stop-color:#F5FAFF"
         offset="0.6131" />
      <stop
         id="stop56"
         style="stop-color:#E7F3FF"
         offset="0.7841" />
      <stop
         id="stop58"
         style="stop-color:#D4EAFF"
         offset="0.9311" />
      <stop
         id="stop60"
         style="stop-color:#C8E4FF"
         offset="1" />
    </radialGradient>
    <radialGradient
       gradientUnits="userSpaceOnUse"
       r="46.444901"
       cy="392.77249"
       cx="325"
       id="SVGID_6_">
      <stop
         id="stop73"
         style="stop-color:#FFFFFF"
         offset="0" />
      <stop
         id="stop75"
         style="stop-color:#FDFEFF"
         offset="0.3984" />
      <stop
         id="stop77"
         style="stop-color:#F5FAFF"
         offset="0.6131" />
      <stop
         id="stop79"
         style="stop-color:#E7F3FF"
         offset="0.7841" />
      <stop
         id="stop81"
         style="stop-color:#D4EAFF"
         offset="0.9311" />
      <stop
         id="stop83"
         style="stop-color:#C8E4FF"
         offset="1" />
    </radialGradient>
  </defs>
  <metadata
     id="metadata4066">
    <rdf:RDF>
      <cc:Work
         rdf:about="">
        <dc:format>image/svg+xml</dc:format>
        <dc:type
           rdf:resource="http://purl.org/dc/dcmitype/StillImage" />
        <dc:title />
      </cc:Work>
    </rdf:RDF>
  </metadata>
  <g
     id="g4206">
    <g
       id="g3864"
       transform="matrix(0.9999143,0,0,1.0068833,0.3502271,-0.3235151)">
      <path
         style="fill:url(#radialGradient3035)"
         inkscape:connector-curvature="0"
         d="m 41,41.5 a 17,5.5 0 0 1 -34,0 17,5.5 0 1 1 34,0 z"
         id="path3818-0-5" />
      <path
         inkscape:connector-curvature="0"
         d="M 24,3.5 C 12.689,3.5 3.5,12.689 3.5,24 3.5,35.311 12.689,44.5 24,44.5 35.311,44.5 44.5,35.311 44.5,24 44.5,12.689 35.311,3.5 24,3.5 Z"
         style="color:#000000;fill:url(#radialGradient3032)"
         id="path2555-7-2" />
      <path
         inkscape:connector-curvature="0"
         d="m 23.65,4.1860654 c -11.125574,0 -20.1639344,9.0383606 -20.1639344,20.1639346 0,11.125574 9.0383604,20.163934 20.1639344,20.163934 11.125574,0 20.163934,-9.03836 20.163934,-20.163934 0,-11.125574 -9.03836,-20.1639346 -20.163934,-20.1639346 z"
         style="color:#000000;fill:url(#linearGradient3367);fill-opacity:1;stroke:#f7ffff;stroke-width:1.67213118;stroke-miterlimit:4;stroke-dasharray:none;stroke-opacity:1"
         id="path2555-7-65" />
      <path
         inkscape:connector-curvature="0"
         d="M 43.5,24 C 43.5,34.77 34.77,43.5 24,43.5 13.23,43.5 4.5,34.77 4.5,24 4.5,13.23 13.23,4.5 24,4.5 34.77,4.5 43.5,13.23 43.5,24 Z"
         style="color:#000000;opacity:0.5;fill:none;stroke:url(#linearGradient3026);stroke-linecap:round;stroke-linejoin:round"
         id="path4176" />
      <path
         inkscape:connector-curvature="0"
         d="m 24,3.5001 c -11.311,0 -20.5,9.1888 -20.5,20.5 0,11.3112 9.1888,20.5 20.5,20.5 11.3112,0 20.5,-9.1888 20.5,-20.5 0,-11.3112 -9.189,-20.5 -20.5,-20.5 z"
         style="color:#000000;opacity:1;fill:none;fill-opacity:1;stroke:#ffffff;stroke-width:0.39999995;stroke-linecap:round;stroke-linejoin:round;stroke-miterlimit:4;stroke-dasharray:none;stroke-opacity:1"
         id="path2555-7-1-7" />
      <g
         style="fill:none;stroke:#000000;stroke-linecap:round;stroke-linejoin:round"
         transform="matrix(1.0002,0,0,1.0004,-1.0018,-0.0050486)"
         id="g4317" />
      <path
         id="path21"
         d="m 20.9199,19.566103 c 0,0.02957 0,0.05914 0.0015,0.0869 l -4.300929,6.247721 c -0.696705,-0.03168 -1.395825,0.09052 -2.058736,0.36359 -0.29223,0.119186 -0.566055,0.265527 -0.822982,0.434498 L 4.2946044,22.810959 c 7.4e-5,0 -0.218531,3.595171 0.6921796,6.274576 l 6.676486,2.754839 c 0.335228,1.498113 1.362936,2.812168 2.879154,3.444302 2.480713,1.036459 5.341008,-0.144832 6.372941,-2.626601 0.268544,-0.64873 0.393764,-1.329142 0.37566,-2.008045 l 6.153881,-4.397785 c 0.04979,0.0015 0.101082,0.003 0.150868,0.003 3.682673,0 6.675882,-3.002261 6.675882,-6.689159 0,-3.687199 -2.993209,-6.686745 -6.675882,-6.686745 -3.681165,0 -6.675883,2.999546 -6.675883,6.686745 z m -1.031933,12.660491 c -0.798692,1.917525 -3.002262,2.827255 -4.917674,2.029167 -0.883631,-0.368117 -1.550766,-1.042494 -1.935629,-1.846617 l 2.173245,0.900678 c 1.412571,0.588383 3.033189,-0.08147 3.620365,-1.493587 0.588987,-1.413628 -0.07921,-3.036961 -1.491022,-3.625344 l -2.246567,-0.930852 c 0.866884,-0.328891 1.85235,-0.34096 2.773094,0.04224 0.928287,0.386221 1.648528,1.113401 2.030223,2.042745 0.381694,0.929343 0.380186,1.955241 -0.006,2.881567 m 7.707816,-8.204169 c -2.451596,0 -4.447571,-1.998993 -4.447571,-4.456322 0,-2.455367 1.995975,-4.454963 4.447571,-4.454963 2.453104,0 4.44908,1.999596 4.44908,4.454963 0,2.457329 -1.995976,4.456322 -4.44908,4.456322 m -3.332661,-4.463111 c 0,-1.848578 1.496604,-3.347898 3.340204,-3.347898 1.845109,0 3.341713,1.49932 3.341713,3.347898 0,1.848729 -1.496604,3.346692 -3.341713,3.346692 -1.8436,0 -3.340204,-1.497963 -3.340204,-3.346692 z"
         style="fill:#ffffff;stroke-width:0.1508674"
         inkscape:connector-curvature="0" />
    </g>
  </g>
</svg>
