<?xml version="1.0" encoding="UTF-8" standalone="no"?>
<!-- Created with Inkscape (http://www.inkscape.org/) -->

<svg
   xmlns:dc="http://purl.org/dc/elements/1.1/"
   xmlns:cc="http://creativecommons.org/ns#"
   xmlns:rdf="http://www.w3.org/1999/02/22-rdf-syntax-ns#"
   xmlns:svg="http://www.w3.org/2000/svg"
   xmlns="http://www.w3.org/2000/svg"
   xmlns:xlink="http://www.w3.org/1999/xlink"
   xmlns:sodipodi="http://sodipodi.sourceforge.net/DTD/sodipodi-0.dtd"
   xmlns:inkscape="http://www.inkscape.org/namespaces/inkscape"
   id="svg4061"
   height="48"
   width="48"
   version="1.1"
   inkscape:version="0.92.0 unknown"
   sodipodi:docname="sublime-text.svg">
  <sodipodi:namedview
     pagecolor="#ffffff"
     bordercolor="#666666"
     borderopacity="1"
     objecttolerance="10"
     gridtolerance="10"
     guidetolerance="10"
     inkscape:pageopacity="0"
     inkscape:pageshadow="2"
     inkscape:window-width="1378"
     inkscape:window-height="894"
     id="namedview40"
     showgrid="false"
     inkscape:zoom="9.8333333"
     inkscape:cx="18.813559"
     inkscape:cy="14.013699"
     inkscape:window-x="1169"
     inkscape:window-y="148"
     inkscape:window-maximized="0"
     inkscape:current-layer="g4206" />
  <defs
     id="defs4063">
    <linearGradient
       inkscape:collect="always"
       id="linearGradient3361">
      <stop
         style="stop-color:#0068e0;stop-opacity:1;"
         offset="0"
         id="stop3363" />
      <stop
         style="stop-color:#00acf4;stop-opacity:1"
         offset="1"
         id="stop3365" />
    </linearGradient>
    <linearGradient
       id="linearGradient3026"
       y2="40.495998"
       gradientUnits="userSpaceOnUse"
       x2="71.204002"
       gradientTransform="matrix(1.617,0,0,1.617,-92.707,-21.06)"
       y1="15.369"
       x1="71.204002"
       xlink:href="#linearGradient3361">
      <stop
         id="stop4808-4"
         stop-color="#fff"
         offset="0" />
      <stop
         id="stop4810-0"
         stop-color="#fff"
         stop-opacity=".23529"
         offset=".42448" />
      <stop
         id="stop4812-8"
         stop-color="#fff"
         stop-opacity=".15686"
         offset=".82090" />
      <stop
         id="stop4814-0"
         stop-color="#fff"
         stop-opacity=".39216"
         offset="1" />
    </linearGradient>
    <radialGradient
       id="radialGradient3029"
       fx="4.459"
       fy="8.5089"
       gradientUnits="userSpaceOnUse"
       cy="8.6258"
       cx="15.026"
       gradientTransform="matrix(-3.4973e-8 1.8855 -1.7764 -5.4723e-8 39.14 -7.9932)"
       r="20">
      <stop
         id="stop4170"
         stop-color="#c24251"
         offset="0" />
      <stop
         id="stop4172"
         stop-color="#c24251"
         offset=".26238" />
      <stop
         id="stop4174"
         stop-color="#a63643"
         offset=".66094" />
      <stop
         id="stop4176"
         stop-color="#a63643"
         offset="1" />
    </radialGradient>
    <radialGradient
       id="radialGradient3032"
       gradientUnits="userSpaceOnUse"
       cy="3.99"
       cx="23.896"
       gradientTransform="matrix(0 2.8885 -3.8128 0 39.213 -65.95)"
       r="20.397">
      <stop
         id="stop3244-9-33-7-0-9"
         stop-color="#fff"
         offset="0" />
      <stop
         id="stop3246-3-5-0-8-5"
         stop-color="#ddd"
         offset=".26238" />
      <stop
         id="stop3248-1-7-8-8-1"
         stop-color="#abacae"
         offset=".66094" />
      <stop
         id="stop3250-9-3-0-5-1"
         stop-color="#89898b"
         offset="1" />
    </radialGradient>
    <radialGradient
       id="radialGradient3035"
       gradientUnits="userSpaceOnUse"
       cy="186.17"
       cx="99.157"
       gradientTransform="matrix(.27083 0 0 .087623 -2.8551 25.187)"
       r="62.769">
      <stop
         id="stop3822-2-6-3"
         stop-color="#3d3d3d"
         offset="0" />
      <stop
         id="stop3864-8-7-7"
         stop-color="#686868"
         stop-opacity=".49804"
         offset=".5" />
      <stop
         id="stop3824-1-2-5"
         stop-color="#686868"
         stop-opacity="0"
         offset="1" />
    </radialGradient>
    <linearGradient
       id="linearGradient4433"
       y2="25.611"
       gradientUnits="userSpaceOnUse"
       x2="23.078"
       gradientTransform="matrix(1 0 0 1.0521 0 -.90547)"
       y1="13.035"
       x1="22.759">
      <stop
         id="stop6305-1-0-2"
         stop-color="#fff"
         offset="0" />
      <stop
         id="stop6307-5-0-6"
         stop-color="#fff"
         stop-opacity="0"
         offset="1" />
    </linearGradient>
    <linearGradient
       id="linearGradient4829">
      <stop
         style="stop-color:#f4fbfc;stop-opacity:1;"
         offset="0"
         id="stop4831" />
      <stop
         style="stop-color:#d6d6d6;stop-opacity:1;"
         offset="1"
         id="stop4833" />
    </linearGradient>
    <filter
       x="-0.5"
       y="-0.5"
       width="2"
       height="2"
       filterUnits="objectBoundingBox"
       id="a">
      <feOffset
         dy="2"
         in="SourceAlpha"
         result="shadowOffsetOuter1"
         id="feOffset5" />
      <feGaussianBlur
         stdDeviation="2"
         in="shadowOffsetOuter1"
         result="shadowBlurOuter1"
         id="feGaussianBlur7" />
      <feColorMatrix
         values="0 0 0 0 0 0 0 0 0 0 0 0 0 0 0 0 0 0 0.272503397 0"
         in="shadowBlurOuter1"
         id="feColorMatrix9" />
    </filter>
    <filter
       x="-0.5"
       y="-0.5"
       width="2"
       height="2"
       filterUnits="objectBoundingBox"
       id="a-3">
      <feOffset
         dy="2"
         in="SourceAlpha"
         result="shadowOffsetOuter1"
         id="feOffset5-6" />
      <feGaussianBlur
         stdDeviation="2"
         in="shadowOffsetOuter1"
         result="shadowBlurOuter1"
         id="feGaussianBlur7-7" />
      <feColorMatrix
         values="0 0 0 0 0 0 0 0 0 0 0 0 0 0 0 0 0 0 0.272503397 0"
         in="shadowBlurOuter1"
         id="feColorMatrix9-5" />
    </filter>
    <radialGradient
       id="radialGradient3972"
       xlink:href="#linearGradient3964"
       gradientUnits="userSpaceOnUse"
       cy="14.953"
       cx="23.735001"
       gradientTransform="matrix(-2.7873,-6.718e-8,4.6001e-8,-1.9086,90.479,42.912)"
       r="9.8400002" />
    <linearGradient
       id="linearGradient3964">
      <stop
         id="stop3966"
         stop-color="#ffa569"
         offset="0" />
      <stop
         id="stop3968"
         stop-color="#ff8d41"
         offset="1" />
    </linearGradient>
    <radialGradient
       id="radialGradient4466"
       xlink:href="#linearGradient3964"
       gradientUnits="userSpaceOnUse"
       cy="14.953"
       cx="23.735001"
       gradientTransform="matrix(-2.7873,-6.718e-8,4.6001e-8,-1.9086,90.479,42.912)"
       r="9.8400002" />
    <linearGradient
       id="linearGradient4250"
       y2="43.709"
       gradientUnits="userSpaceOnUse"
       x2="24.931"
       y1="5.1838002"
       x1="24.653999">
      <stop
         id="stop4318"
         stop-color="#fff"
         stop-opacity=".78431"
         offset="0" />
      <stop
         id="stop4320"
         stop-color="#fff"
         stop-opacity=".14118"
         offset="1" />
    </linearGradient>
    <radialGradient
       r="9.8400002"
       cy="14.953"
       cx="23.735001"
       gradientTransform="matrix(-2.7873,-6.718e-8,4.6001e-8,-1.9086,90.479,42.912)"
       gradientUnits="userSpaceOnUse"
       id="radialGradient4492"
       xlink:href="#linearGradient3964"
       inkscape:collect="always" />
    <linearGradient
       y2="43.709"
       x2="24.931"
       y1="5.1838002"
       x1="24.653999"
       gradientUnits="userSpaceOnUse"
       id="linearGradient4494"
       xlink:href="#linearGradient4250"
       inkscape:collect="always" />
    <linearGradient
       inkscape:collect="always"
       xlink:href="#linearGradient4250"
       id="linearGradient4547"
       gradientUnits="userSpaceOnUse"
       x1="24.653999"
       y1="5.1838002"
       x2="24.931"
       y2="43.709" />
  </defs>
  <metadata
     id="metadata4066">
    <rdf:RDF>
      <cc:Work
         rdf:about="">
        <dc:format>image/svg+xml</dc:format>
        <dc:type
           rdf:resource="http://purl.org/dc/dcmitype/StillImage" />
        <dc:title></dc:title>
      </cc:Work>
    </rdf:RDF>
  </metadata>
  <g
     id="g4206">
    <path
       id="path3818-0-5"
       d="m 41,41.5 a 17,5.5 0 0 1 -34,0 17,5.5 0 1 1 34,0 z"
       inkscape:connector-curvature="0"
       style="fill:url(#radialGradient3035)" />
    <path
       id="path2555-7-2"
       style="color:#000000;fill:url(#radialGradient3032)"
       d="M 24,3.5 C 12.689,3.5 3.5,12.689 3.5,24 3.5,35.311 12.689,44.5 24,44.5 35.311,44.5 44.5,35.311 44.5,24 44.5,12.689 35.311,3.5 24,3.5 Z"
       inkscape:connector-curvature="0" />
    <path
       id="path2555-7-65"
       style="color:#000000;fill:#333333;fill-opacity:1"
       d="M 24,3.5 C 12.689,3.5 3.5,12.689 3.5,24 3.5,35.311 12.689,44.5 24,44.5 35.311,44.5 44.5,35.311 44.5,24 44.5,12.689 35.311,3.5 24,3.5 Z"
       inkscape:connector-curvature="0" />
    <path
       id="path4176"
       style="color:#000000;opacity:1;fill:none;stroke:#ffffff;stroke-width:2;stroke-linecap:round;stroke-linejoin:round;stroke-miterlimit:4;stroke-dasharray:none;stroke-opacity:0.98156684"
       d="M 43.5,24 C 43.5,34.77 34.77,43.5 24,43.5 13.23,43.5 4.5,34.77 4.5,24 4.5,13.23 13.23,4.5 24,4.5 34.77,4.5 43.5,13.23 43.5,24 Z"
       inkscape:connector-curvature="0" />
    <path
       id="path2555-7-1-7"
       style="color:#000000;opacity:1;fill:none;fill-opacity:1;stroke:#ffffff;stroke-width:0.2;stroke-linecap:round;stroke-linejoin:round;stroke-miterlimit:4;stroke-dasharray:none;stroke-opacity:1"
       d="m 24,3.5001 c -11.311,0 -20.5,9.1888 -20.5,20.5 0,11.3112 9.1888,20.5 20.5,20.5 11.3112,0 20.5,-9.1888 20.5,-20.5 0,-11.3112 -9.189,-20.5 -20.5,-20.5 z"
       inkscape:connector-curvature="0" />
    <g
       id="g4317"
       transform="matrix(1.0002,0,0,1.0004,-1.0018,-0.0050486)"
       style="fill:none;stroke:#000000;stroke-linecap:round;stroke-linejoin:round" />
    <g
       transform="matrix(0.79661774,0,0,0.76695294,4.6777781,5.3853484)"
       id="g4452">
      <path
         d="m 24.136,13 c -1.246,0 -2.4282,0.17372 -3.5337,0.52912 a 0.97862,1.0224 0 0 0 -0.0076,0.002 c -1.0812,0.3567 -2.0545,0.88772 -2.8992,1.5874 -0.82963,0.68184 -1.4951,1.5345 -1.9685,2.5238 -0.48502,1.0134 -0.72242,2.1498 -0.72242,3.3624 0,0.92082 0.14708,1.7705 0.47397,2.5218 0.33012,0.75876 0.85748,1.4187 1.5289,1.9607 0.67546,0.5453 1.512,0.98618 2.5075,1.3617 0.97556,0.36805 2.1285,0.7148 3.4688,1.0443 1.6897,0.42182 2.8827,0.82996 3.4573,1.1301 a 0.97862,1.0224 0 0 0 0.03631,0.01797 c 0.50762,0.23773 0.54277,0.32032 0.54277,0.7208 0,0.46133 -0.08216,0.61646 -0.46824,0.86855 -0.40058,0.26157 -1.0644,0.45125 -2.0297,0.45125 -2.1673,0 -4.4648,-0.78783 -6.9242,-2.4579 a 0.97862,1.0224 0 0 0 -1.3741,0.33544 l -2.087,3.6719 a 0.97862,1.0224 0 0 0 0.28285,1.3617 c 0.65411,0.47539 1.3955,0.89515 2.2189,1.2679 0.81717,0.36995 1.6721,0.68209 2.5648,0.93644 0.88785,0.25298 1.7882,0.45056 2.7024,0.59102 a 0.97862,1.0224 0 0 0 0.0057,0 c 0.944,0.141 1.851,0.212 2.726,0.212 1.3352,0 2.5694,-0.15492 3.6981,-0.4792 a 0.97862,1.0224 0 0 0 0.01529,-0.006 c 1.146,-0.35043 2.1446,-0.84082 2.9776,-1.4935 a 0.97862,1.0224 0 0 0 0.01911,-0.01397 c 0.82594,-0.67799 1.4759,-1.5186 1.9265,-2.4859 0.48384,-0.98313 0.72624,-2.0802 0.72624,-3.2426 0,-1.0015 -0.18022,-1.9144 -0.56953,-2.7055 -0.36676,-0.82301 -0.96697,-1.5256 -1.7411,-2.0865 -0.74394,-0.55773 -1.6562,-1.0199 -2.7425,-1.4176 l -0.0057,-0.002 c -1.046,-0.39204 -2.2947,-0.77605 -3.7574,-1.1581 -1.5089,-0.39411 -2.5558,-0.76163 -3.0311,-1.0083 -0.32032,-0.175 -0.36121,-0.22921 -0.36121,-0.6629 0,-0.56543 0.09829,-0.71801 0.43766,-0.92646 0.46803,-0.27147 1.0717,-0.43328 1.8672,-0.43328 0.89573,0 1.7927,0.15574 2.7043,0.47321 a 0.97862,1.0224 0 0 0 0.02102,0.006 c 0.89886,0.28894 1.8938,0.78602 2.97,1.5015 a 0.97862,1.0224 0 0 0 1.3416,-0.2995 l 2.1233,-3.3484 a 0.97862,1.0224 0 0 0 -0.29625,-1.4316 c -1.3084,-0.85436 -2.7268,-1.5225 -4.2447,-2.0047 -1.5056,-0.51326 -3.0365,-0.77471 -4.5792,-0.77471 z m 0,2.0446 c 1.3375,0 2.6596,0.22244 3.9829,0.67488 a 0.97862,1.0224 0 0 0 0.02102,0.008 c 1.0294,0.32648 1.9422,0.83565 2.8553,1.3478 l -1.0282,1.6193 c -0.86816,-0.50826 -1.7354,-1.0198 -2.561,-1.2859 -1.093,-0.3791 -2.2014,-0.57504 -3.3101,-0.57504 -1.054,0 -2.0157,0.21592 -2.8343,0.69484 a 0.97862,1.0224 0 0 0 -0.01529,0.01 c -0.88965,0.54218 -1.4124,1.6015 -1.4124,2.6995 0,1.0168 0.55506,2.0115 1.4143,2.4799 a 0.97862,1.0224 0 0 0 0.01529,0.008 c 0.764,0.39909 1.8707,0.75666 3.4458,1.1681 1.4197,0.3708 2.6139,0.73942 3.5758,1.1002 a 0.97862,1.0224 0 0 0 0.0076,0.002 c 0.96679,0.35351 1.7221,0.74936 2.2628,1.1561 a 0.97862,1.0224 0 0 0 0.01529,0.01198 c 0.5554,0.40171 0.89676,0.82342 1.097,1.2799 a 0.97862,1.0224 0 0 0 0.02102,0.04792 c 0.22029,0.44111 0.35356,1.023 0.35356,1.787 0,0.87901 -0.17293,1.6333 -0.51028,2.3161 a 0.97862,1.0224 0 0 0 -0.0095,0.02396 c -0.32031,0.69159 -0.7702,1.2701 -1.378,1.771 -0.60515,0.47237 -1.3764,0.86445 -2.3316,1.1581 -0.93091,0.26706 -1.989,0.40732 -3.1764,0.40732 -0.77201,0 -1.5877,-0.06172 -2.4463,-0.18968 h -0.0038 c -0.83588,-0.12858 -1.6584,-0.31008 -2.4692,-0.5411 -0.80716,-0.22998 -1.5729,-0.50896 -2.301,-0.8386 -0.41565,-0.18817 -0.7298,-0.40849 -1.0817,-0.61697 l 1.1123,-1.9587 c 2.3815,1.4439 4.7505,2.3161 7.0751,2.3161 1.1982,0 2.2317,-0.21507 3.0674,-0.76073 0.85018,-0.55513 1.3875,-1.5582 1.3875,-2.6037 0,-1.1002 -0.708,-2.1103 -1.6856,-2.5757 -0.86641,-0.44934 -2.1096,-0.84796 -3.8567,-1.2839 a 0.97862,1.0224 0 0 0 -0.0019,0 c -1.2868,-0.31631 -2.374,-0.6448 -3.2528,-0.97636 -0.85893,-0.32404 -1.5184,-0.68868 -1.9761,-1.0582 -0.46178,-0.37279 -0.75722,-0.76285 -0.9422,-1.188 -0.18822,-0.43261 -0.30005,-0.98157 -0.30005,-1.6752 0,-0.94 0.17686,-1.7413 0.51602,-2.4499 0.35009,-0.73151 0.81844,-1.3293 1.4296,-1.8309 a 0.97862,1.0224 0 0 0 0.0019,-0.004 c 0.64814,-0.53704 1.3997,-0.94708 2.2743,-1.2359 8.8e-4,-2.9e-4 0.001,-0.0017 0.0019,-0.002 0.90139,-0.28889 1.8816,-0.43727 2.9508,-0.43727 z"
         style="color:#000000;text-indent:0;text-decoration:none;text-decoration-line:none;text-decoration-style:solid;text-decoration-color:#000000;text-transform:none;white-space:normal;opacity:0.15;isolation:auto;mix-blend-mode:normal;solid-color:#000000;color-rendering:auto;image-rendering:auto;shape-rendering:auto"
         id="text4229"
         inkscape:connector-curvature="0" />
      <path
         d="m 24.135,13.5 c -1.2012,0 -2.333,0.16818 -3.3869,0.50765 a 0.4888,0.5117 0 0 0 -0.0038,0 c -1.0286,0.34003 -1.9448,0.84133 -2.7397,1.501 -0.77536,0.63775 -1.3902,1.4277 -1.8328,2.3544 -0.44809,0.93815 -0.67012,1.9922 -0.67012,3.1378 0,0.86486 0.13765,1.6401 0.42957,2.3124 0.29354,0.67602 0.76386,1.2685 1.3823,1.7688 0.6204,0.50185 1.4109,0.92607 2.3712,1.2891 0.9499,0.35909 2.0852,0.69895 3.4098,1.0253 1.7075,0.42685 2.9131,0.83425 3.5606,1.1732 a 0.4888,0.5117 0 0 0 0.01909,0.008 c 0.62661,0.29405 0.8305,0.61167 0.8305,1.1892 0,0.60796 -0.19527,0.97692 -0.69685,1.3051 -0.50883,0.33291 -1.2648,0.52763 -2.2872,0.52763 -2.2789,0 -4.6675,-0.83304 -7.1824,-2.5442 a 0.4888,0.5117 0 0 0 -0.68731,0.16788 l -2.0829,3.6774 a 0.4888,0.5117 0 0 0 0.14128,0.68153 c 0.6226,0.4534 1.3316,0.85953 2.1287,1.2212 0.79409,0.36022 1.6268,0.66286 2.4972,0.91136 0.86799,0.24781 1.7502,0.44196 2.6442,0.5796 a 0.4888,0.5117 0 0 0 0.0019,0 c 0.922,0.138 1.806,0.206 2.655,0.206 1.2973,0 2.4861,-0.15124 3.5645,-0.46168 a 0.4888,0.5117 0 0 0 0.0076,-0.002 c 1.0999,-0.33699 2.0436,-0.80555 2.8199,-1.415 a 0.4888,0.5117 0 0 0 0.0076,-0.008 c 0.7729,-0.63572 1.3766,-1.4126 1.7946,-2.3144 0.44716,-0.90924 0.67012,-1.9228 0.67012,-3.0159 0,-0.94559 -0.1683,-1.7803 -0.51739,-2.4863 -0.32439,-0.73424 -0.86127,-1.3681 -1.5808,-1.8907 -0.69327,-0.52192 -1.5679,-0.96934 -2.6251,-1.3571 l -0.0038,-0.002 c -1.024,-0.38463 -2.259,-0.76359 -3.7095,-1.1432 -1.5269,-0.3996 -2.5915,-0.76636 -3.1368,-1.0513 -0.45629,-0.25005 -0.6224,-0.53852 -0.6224,-1.1192 0,-0.70088 0.20271,-1.0791 0.68158,-1.373 0.55519,-0.32418 1.2492,-0.49965 2.1097,-0.49965 0.94911,0 1.8991,0.16569 2.8561,0.49965 a 0.4888,0.5117 0 0 0 0.01145,0.004 c 0.95067,0.30621 1.9798,0.82376 3.0833,1.5589 a 0.4888,0.5117 0 0 0 0.67012,-0.1499 l 2.123,-3.3537 a 0.4888,0.5117 0 0 0 -0.14892,-0.7155 c -1.2717,-0.83207 -2.6482,-1.4843 -4.1277,-1.9546 h -0.0019 c -1.458,-0.498 -2.935,-0.749 -4.425,-0.749 z m 0,1.0233 c 1.3884,0 2.763,0.23267 4.1315,0.70151 a 0.4888,0.5117 0 0 0 0.0095,0.004 c 1.2346,0.39233 2.3567,0.96813 3.4327,1.6229 l -1.5751,2.4883 c -0.99322,-0.62132 -1.9636,-1.1555 -2.8791,-1.451 -1.048,-0.36504 -2.1038,-0.55162 -3.1597,-0.55162 -0.98959,0 -1.8622,0.20333 -2.5927,0.63156 a 0.4888,0.5117 0 0 0 -0.0076,0.004 c -0.75311,0.45989 -1.1684,1.2934 -1.1684,2.2604 0,0.87249 0.4262,1.6326 1.1512,2.0286 a 0.4888,0.5117 0 0 0 0.0076,0.004 c 0.69034,0.36134 1.7825,0.72132 3.3411,1.1292 1.4295,0.37412 2.6377,0.74814 3.6198,1.1172 a 0.4888,0.5117 0 0 0 0.0038,0.002 c 0.99747,0.36546 1.7929,0.77919 2.3846,1.2251 a 0.4888,0.5117 0 0 0 0.0076,0.004 c 0.61188,0.44345 1.0204,0.93931 1.262,1.491 a 0.4888,0.5117 0 0 0 0.0095,0.02199 c 0.2644,0.5305 0.40856,1.1998 0.40856,2.0266 0,0.95167 -0.18888,1.793 -0.56321,2.5522 a 0.4888,0.5117 0 0 0 -0.0057,0.01199 c -0.35274,0.76313 -0.85458,1.4098 -1.5178,1.9566 -0.66322,0.51971 -1.4927,0.93846 -2.4991,1.2471 -9.24e-4,2.83e-4 -9.83e-4,0.0017 -0.0019,0.002 -0.97822,0.2808 -2.0778,0.4237 -3.2991,0.4237 -0.79726,0 -1.6353,-0.06448 -2.5144,-0.19586 h -0.0019 c -0.85489,-0.13169 -1.6964,-0.31679 -2.5259,-0.55362 -0.82769,-0.2363 -1.6159,-0.52335 -2.3655,-0.8634 -0.59474,-0.26979 -1.0849,-0.5809 -1.5617,-0.89538 l 1.5961,-2.818 c 2.4713,1.5896 4.8985,2.4723 7.2587,2.4723 1.1388,0 2.0804,-0.20842 2.8065,-0.68352 0.73339,-0.47984 1.1551,-1.2722 1.1551,-2.1725 0,-0.92742 -0.54115,-1.709 -1.4013,-2.1165 -0.79355,-0.41386 -2.0243,-0.81543 -3.7592,-1.2491 a 0.4888,0.5117 0 0 0 -0.0019,0 c -1.2988,-0.31992 -2.4008,-0.6523 -3.3029,-0.99331 -0.89213,-0.33725 -1.5942,-0.72132 -2.1058,-1.1352 -0.51366,-0.41551 -0.8672,-0.87398 -1.0882,-1.383 -0.22266,-0.51278 -0.34366,-1.1375 -0.34366,-1.8887 0,-1.0091 0.1918,-1.8945 0.56703,-2.6801 0.38069,-0.79705 0.89627,-1.4613 1.5617,-2.0086 a 0.4888,0.5117 0 0 0 0.0019,-0.002 c 0.69712,-0.57879 1.5042,-1.0189 2.4304,-1.3251 0.95195,-0.3062 1.9818,-0.46168 3.0948,-0.46168 z"
         style="color:#000000;text-indent:0;text-decoration:none;text-decoration-line:none;text-decoration-style:solid;text-decoration-color:#000000;text-transform:none;white-space:normal;opacity:0.15;isolation:auto;mix-blend-mode:normal;solid-color:#000000;color-rendering:auto;image-rendering:auto;shape-rendering:auto"
         id="text4233"
         inkscape:connector-curvature="0" />
      <g
         style="fill:url(#radialGradient3972)"
         transform="scale(0.97626,1.0243)"
         id="text3936">
        <path
           style="fill:url(#radialGradient4492)"
           inkscape:connector-curvature="0"
           d="m 25.235,35.145 q -1.2634,0 -2.6452,-0.19741 -1.3424,-0.1974 -2.6452,-0.55274 -1.3029,-0.35533 -2.4873,-0.86858 -1.1844,-0.51326 -2.0925,-1.145 l 2.132,-3.5928 q 3.9481,2.5663 7.6199,2.5663 1.6582,0 2.6058,-0.59222 0.94755,-0.59222 0.94755,-1.6977 0,-1.10548 -1.145,-1.6187 -1.1055,-0.55274 -3.7507,-1.1844 -2.0135,-0.47377 -3.4349,-0.98703 -1.4213,-0.51326 -2.2899,-1.1844 -0.86858,-0.67118 -1.2634,-1.5398 -0.39481,-0.86858 -0.39481,-2.053 0,-1.5792 0.6317,-2.8426 0.6317,-1.2634 1.7372,-2.132 1.145,-0.90807 2.6452,-1.3818 1.5398,-0.47377 3.3164,-0.47377 2.2109,0 4.3824,0.71066 2.2109,0.67118 4.106,1.8556 l -2.1715,3.2769 q -1.7372,-1.1055 -3.2769,-1.5792 -1.5398,-0.51326 -3.0795,-0.51326 -1.4213,0 -2.4084,0.55274 -0.94755,0.55274 -0.94755,1.7767 0,1.066 0.90807,1.5398 0.94755,0.47377 3.3164,1.066 2.2109,0.55274 3.7507,1.1055 1.5792,0.55274 2.5663,1.2634 1.0265,0.71066 1.4608,1.6582 0.47377,0.90807 0.47377,2.2109 0,1.5003 -0.6317,2.7242 -0.59222,1.2239 -1.6977,2.0925 -1.1055,0.8291 -2.7242,1.3029 -1.5792,0.43429 -3.5138,0.43429 z"
           id="path4225" />
      </g>
      <text
         xml:space="preserve"
         x="14.437273"
         y="35.080002"
         line-height="125%"
         font-size="40px"
         font-weight="bold"
         style="font-weight:bold;font-size:40px;line-height:125%;font-family:Raleway;letter-spacing:0px;word-spacing:0px;opacity:0.6;fill:none"
         id="text4264"><tspan
           x="14.437273"
           y="35.080002"
           id="tspan4266"
           style="fill:none">s</tspan></text>
      <g
         style="opacity:0.5;fill:url(#linearGradient4494)"
         transform="scale(0.97626,1.0243)"
         id="g4237">
        <path
           style="fill:url(#linearGradient4547)"
           inkscape:connector-curvature="0"
           transform="scale(1.0243,0.97626)"
           d="m 24.135,14 c -1.157,0 -2.236,0.161 -3.239,0.484 -0.976,0.324 -1.836,0.796 -2.582,1.416 -0.719,0.594 -1.284,1.321 -1.695,2.184 -0.411,0.863 -0.617,1.834 -0.617,2.912 0,0.809 0.128,1.51 0.385,2.104 0.257,0.593 0.669,1.117 1.234,1.576 0.565,0.458 1.311,0.864 2.236,1.215 0.925,0.35 2.041,0.686 3.352,1.009 1.722,0.432 2.943,0.836 3.662,1.213 0.745,0.351 1.119,0.904 1.119,1.658 0,0.755 -0.309,1.336 -0.926,1.741 -0.616,0.404 -1.465,0.605 -2.544,0.605 -2.39,0 -4.868,-0.876 -7.438,-2.629 L 15,33.17 c 0.591,0.431 1.272,0.821 2.043,1.172 0.771,0.35 1.58,0.648 2.428,0.89 0.848,0.243 1.708,0.43 2.582,0.565 0.899,0.135 1.761,0.203 2.584,0.203 1.259,0 2.402,-0.149 3.429,-0.445 1.054,-0.324 1.941,-0.768 2.661,-1.334 0.719,-0.593 1.27,-1.307 1.656,-2.143 C 32.794,31.242 33,30.312 33,29.287 33,28.397 32.845,27.642 32.537,27.021 32.254,26.374 31.779,25.81 31.111,25.324 30.469,24.839 29.633,24.407 28.605,24.029 27.603,23.652 26.382,23.274 24.943,22.896 23.402,22.492 22.324,22.128 21.707,21.805 21.116,21.481 20.82,20.956 20.82,20.229 c 0,-0.836 0.309,-1.443 0.926,-1.821 0.642,-0.377 1.425,-0.566 2.35,-0.566 1.002,0 2.005,0.175 3.008,0.525 1.002,0.324 2.068,0.862 3.199,1.617 l 2.119,-3.355 C 31.188,15.82 29.853,15.187 28.414,14.729 27.001,14.243 25.574,14 24.135,14 Z m 0.002,1.025 c 1.334,0 2.652,0.223 3.972,0.676 a 0.97636,1.0244 0 0 0 0.022,0.008 c 1.027,0.327 1.937,0.836 2.848,1.35 l -1.026,1.623 c -0.866,-0.51 -1.731,-1.023 -2.555,-1.289 -1.09,-0.38 -2.196,-0.577 -3.302,-0.577 -1.052,0 -2.012,0.218 -2.828,0.698 a 0.97636,1.0244 0 0 0 -0.016,0.009 c -0.888,0.544 -1.408,1.605 -1.408,2.706 0,1.018 0.553,2.015 1.41,2.484 a 0.97636,1.0244 0 0 0 0.016,0.008 c 0.762,0.4 1.866,0.757 3.437,1.17 1.416,0.371 2.609,0.742 3.568,1.103 a 0.97636,1.0244 0 0 0 0.008,0.002 c 0.965,0.354 1.719,0.751 2.258,1.158 a 0.97636,1.0244 0 0 0 0.016,0.012 c 0.554,0.403 0.894,0.826 1.093,1.283 a 0.97636,1.0244 0 0 0 0.022,0.047 c 0.22,0.442 0.351,1.026 0.351,1.791 0,0.881 -0.171,1.636 -0.507,2.32 a 0.97636,1.0244 0 0 0 -0.01,0.024 c -0.32,0.693 -0.769,1.273 -1.375,1.775 -0.604,0.474 -1.373,0.866 -2.326,1.16 -0.929,0.268 -1.986,0.409 -3.17,0.409 -0.77,0 -1.583,-0.062 -2.44,-0.19 h -0.004 c -0.833,-0.129 -1.656,-0.311 -2.464,-0.543 -0.806,-0.23 -1.569,-0.509 -2.295,-0.84 -0.415,-0.188 -0.729,-0.41 -1.08,-0.619 l 1.111,-1.961 c 2.376,1.447 4.739,2.321 7.058,2.321 1.196,0 2.227,-0.215 3.061,-0.762 0.848,-0.556 1.383,-1.562 1.383,-2.61 0,-1.102 -0.706,-2.115 -1.682,-2.582 -0.864,-0.45 -2.104,-0.848 -3.847,-1.285 a 0.97636,1.0244 0 0 0 -0.002,0 c -1.284,-0.317 -2.368,-0.646 -3.245,-0.978 -0.856,-0.325 -1.515,-0.69 -1.972,-1.061 -0.461,-0.373 -0.755,-0.763 -0.94,-1.189 -0.187,-0.434 -0.298,-0.985 -0.298,-1.68 0,-0.942 0.175,-1.745 0.513,-2.455 0.349,-0.733 0.816,-1.331 1.426,-1.834 a 0.97636,1.0244 0 0 0 0.002,-0.004 c 0.647,-0.538 1.397,-0.949 2.269,-1.238 l 0.002,-0.002 c 0.9,-0.29 1.879,-0.438 2.946,-0.438 z"
           id="path4239" />
      </g>
    </g>
  </g>
</svg>
