<?xml version="1.0" encoding="UTF-8" standalone="no"?>
<!-- Created with Inkscape (http://www.inkscape.org/) -->

<svg
   xmlns:dc="http://purl.org/dc/elements/1.1/"
   xmlns:cc="http://creativecommons.org/ns#"
   xmlns:rdf="http://www.w3.org/1999/02/22-rdf-syntax-ns#"
   xmlns:svg="http://www.w3.org/2000/svg"
   xmlns="http://www.w3.org/2000/svg"
   xmlns:xlink="http://www.w3.org/1999/xlink"
   xmlns:sodipodi="http://sodipodi.sourceforge.net/DTD/sodipodi-0.dtd"
   xmlns:inkscape="http://www.inkscape.org/namespaces/inkscape"
   id="svg4061"
   height="48"
   width="48"
   version="1.1"
   inkscape:version="0.92.0 unknown"
   sodipodi:docname="vmware-player.svg">
  <sodipodi:namedview
     pagecolor="#ffffff"
     bordercolor="#666666"
     borderopacity="1"
     objecttolerance="10"
     gridtolerance="10"
     guidetolerance="10"
     inkscape:pageopacity="0"
     inkscape:pageshadow="2"
     inkscape:window-width="1378"
     inkscape:window-height="894"
     id="namedview40"
     showgrid="false"
     inkscape:zoom="9.8333333"
     inkscape:cx="32.26869"
     inkscape:cy="8.9159948"
     inkscape:window-x="95"
     inkscape:window-y="105"
     inkscape:window-maximized="0"
     inkscape:current-layer="g4206" />
  <defs
     id="defs4063">
    <linearGradient
       inkscape:collect="always"
       id="linearGradient3361">
      <stop
         style="stop-color:#0068e0;stop-opacity:1;"
         offset="0"
         id="stop3363" />
      <stop
         style="stop-color:#00acf4;stop-opacity:1"
         offset="1"
         id="stop3365" />
    </linearGradient>
    <linearGradient
       id="linearGradient3026"
       y2="40.495998"
       gradientUnits="userSpaceOnUse"
       x2="71.204002"
       gradientTransform="matrix(1.617,0,0,1.617,-92.707,-21.06)"
       y1="15.369"
       x1="71.204002"
       xlink:href="#linearGradient3361">
      <stop
         id="stop4808-4"
         stop-color="#fff"
         offset="0" />
      <stop
         id="stop4810-0"
         stop-color="#fff"
         stop-opacity=".23529"
         offset=".42448" />
      <stop
         id="stop4812-8"
         stop-color="#fff"
         stop-opacity=".15686"
         offset=".82090" />
      <stop
         id="stop4814-0"
         stop-color="#fff"
         stop-opacity=".39216"
         offset="1" />
    </linearGradient>
    <radialGradient
       id="radialGradient3029"
       fx="4.459"
       fy="8.5089"
       gradientUnits="userSpaceOnUse"
       cy="8.6258"
       cx="15.026"
       gradientTransform="matrix(-3.4973e-8 1.8855 -1.7764 -5.4723e-8 39.14 -7.9932)"
       r="20">
      <stop
         id="stop4170"
         stop-color="#c24251"
         offset="0" />
      <stop
         id="stop4172"
         stop-color="#c24251"
         offset=".26238" />
      <stop
         id="stop4174"
         stop-color="#a63643"
         offset=".66094" />
      <stop
         id="stop4176"
         stop-color="#a63643"
         offset="1" />
    </radialGradient>
    <radialGradient
       id="radialGradient3032"
       gradientUnits="userSpaceOnUse"
       cy="3.99"
       cx="23.896"
       gradientTransform="matrix(0 2.8885 -3.8128 0 39.213 -65.95)"
       r="20.397">
      <stop
         id="stop3244-9-33-7-0-9"
         stop-color="#fff"
         offset="0" />
      <stop
         id="stop3246-3-5-0-8-5"
         stop-color="#ddd"
         offset=".26238" />
      <stop
         id="stop3248-1-7-8-8-1"
         stop-color="#abacae"
         offset=".66094" />
      <stop
         id="stop3250-9-3-0-5-1"
         stop-color="#89898b"
         offset="1" />
    </radialGradient>
    <radialGradient
       id="radialGradient3035"
       gradientUnits="userSpaceOnUse"
       cy="186.17"
       cx="99.157"
       gradientTransform="matrix(.27083 0 0 .087623 -2.8551 25.187)"
       r="62.769">
      <stop
         id="stop3822-2-6-3"
         stop-color="#3d3d3d"
         offset="0" />
      <stop
         id="stop3864-8-7-7"
         stop-color="#686868"
         stop-opacity=".49804"
         offset=".5" />
      <stop
         id="stop3824-1-2-5"
         stop-color="#686868"
         stop-opacity="0"
         offset="1" />
    </radialGradient>
    <linearGradient
       id="linearGradient4433"
       y2="25.611"
       gradientUnits="userSpaceOnUse"
       x2="23.078"
       gradientTransform="matrix(1 0 0 1.0521 0 -.90547)"
       y1="13.035"
       x1="22.759">
      <stop
         id="stop6305-1-0-2"
         stop-color="#fff"
         offset="0" />
      <stop
         id="stop6307-5-0-6"
         stop-color="#fff"
         stop-opacity="0"
         offset="1" />
    </linearGradient>
    <linearGradient
       id="linearGradient4829">
      <stop
         style="stop-color:#f4fbfc;stop-opacity:1;"
         offset="0"
         id="stop4831" />
      <stop
         style="stop-color:#d6d6d6;stop-opacity:1;"
         offset="1"
         id="stop4833" />
    </linearGradient>
    <linearGradient
       id="linearGradient3857"
       y2="30.184999"
       gradientUnits="userSpaceOnUse"
       x2="32.817001"
       gradientTransform="translate(-0.1809,-0.94729)"
       y1="19.819"
       x1="32.817001">
      <stop
         id="stop2240"
         stop-color="#fff"
         offset="0" />
      <stop
         id="stop2242"
         stop-color="#fff"
         stop-opacity="0"
         offset="1" />
    </linearGradient>
    <linearGradient
       id="linearGradient4322"
       y2="160"
       gradientUnits="userSpaceOnUse"
       x2="160"
       gradientTransform="matrix(0.43333,0,0,0.43333,-83.755,-6.7415)"
       y1="120"
       x1="135">
      <stop
         id="stop3879-8-6"
         stop-color="#effffc"
         offset="0" />
      <stop
         id="stop3881-8-6"
         stop-color="#fff"
         offset="1" />
    </linearGradient>
  </defs>
  <metadata
     id="metadata4066">
    <rdf:RDF>
      <cc:Work
         rdf:about="">
        <dc:format>image/svg+xml</dc:format>
        <dc:type
           rdf:resource="http://purl.org/dc/dcmitype/StillImage" />
        <dc:title></dc:title>
      </cc:Work>
    </rdf:RDF>
  </metadata>
  <g
     id="g4206">
    <path
       id="path3818-0-5"
       d="m 41,41.5 a 17,5.5 0 0 1 -34,0 17,5.5 0 1 1 34,0 z"
       inkscape:connector-curvature="0"
       style="fill:url(#radialGradient3035)" />
    <path
       id="path2555-7-2"
       style="color:#000000;fill:url(#radialGradient3032)"
       d="M 24,3.5 C 12.689,3.5 3.5,12.689 3.5,24 3.5,35.311 12.689,44.5 24,44.5 35.311,44.5 44.5,35.311 44.5,24 44.5,12.689 35.311,3.5 24,3.5 Z"
       inkscape:connector-curvature="0" />
    <path
       id="path2555-7-65"
       style="color:#000000;fill:#1a1a1a;fill-opacity:1"
       d="M 24,3.5 C 12.689,3.5 3.5,12.689 3.5,24 3.5,35.311 12.689,44.5 24,44.5 35.311,44.5 44.5,35.311 44.5,24 44.5,12.689 35.311,3.5 24,3.5 Z"
       inkscape:connector-curvature="0" />
    <path
       id="path4176"
       style="color:#000000;opacity:0.5;fill:none;stroke:url(#linearGradient3026);stroke-linecap:round;stroke-linejoin:round"
       d="M 43.5,24 C 43.5,34.77 34.77,43.5 24,43.5 13.23,43.5 4.5,34.77 4.5,24 4.5,13.23 13.23,4.5 24,4.5 34.77,4.5 43.5,13.23 43.5,24 Z"
       inkscape:connector-curvature="0" />
    <path
       id="path2555-7-1-7"
       style="color:#000000;opacity:1;fill:none;fill-opacity:1;stroke:#fbfbfb;stroke-width:1.79999995;stroke-linecap:round;stroke-linejoin:round;stroke-miterlimit:4;stroke-dasharray:none;stroke-opacity:1"
       d="m 24,3.5001 c -11.311,0 -20.5,9.1888 -20.5,20.5 0,11.3112 9.1888,20.5 20.5,20.5 11.3112,0 20.5,-9.1888 20.5,-20.5 0,-11.3112 -9.189,-20.5 -20.5,-20.5 z"
       inkscape:connector-curvature="0" />
    <g
       id="g4317"
       transform="matrix(1.0002,0,0,1.0004,-1.0018,-0.0050486)"
       style="fill:none;stroke:#000000;stroke-linecap:round;stroke-linejoin:round" />
    <g
       transform="matrix(0.66658803,0,0,0.6995659,7.4934132,6.7650896)"
       id="g3845">
      <path
         d="m 12,11 c -1.108,0 -2,0.892 -2,2 v 9 c 0,1.108 0.892,2 2,2 1.108,0 2,-0.892 2,-2 v -4.1875 l 3,3 V 24 h 4 v -1 c 0,-0.554 0.446,-1 1,-1 h 1 v -4 h -3.1875 l -3,-3 h 4.188 c 1.108,0 2,-0.892 2,-2 0,-1.108 -0.892,-2 -2,-2 h -9 z m 15,0 c -1.108,0 -2,0.892 -2,2 0,1.108 0.892,2 2,2 h 4.1875 l -3,3 H 25 v 4 h 1 c 0.554,0 1,0.446 1,1 v 1 h 4 v -3.1875 l 3,-3 v 4.188 c 0,1.108 0.892,2 2,2 1.108,0 2,-0.892 2,-2 v -9 c 0,-1.108 -0.892,-2 -2,-2 H 27 Z M 17,26 v 4 c 0,1.108 0.892,2 2,2 h 4 v -4 h -1 c -0.554,0 -1,-0.446 -1,-1 v -1 z m 10,0 v 1 c 0,0.554 -0.446,1 -1,1 h -1 v 4 h 3.1875 l 3,3 h -4.188 c -1.108,0 -2,0.892 -2,2 0,1.108 0.892,2 2,2 h 9 c 1.108,0 2,-0.892 2,-2 v -9 c 0,-1.108 -0.892,-2 -2,-2 -1.108,0 -2,0.892 -2,2 v 4.1875 l -3,-3 v -3.188 h -4 z"
         style="color:#000000;opacity:0.15;fill:none;stroke:#000000;enable-background:new"
         id="path4414"
         inkscape:connector-curvature="0" />
      <path
         d="m 12,11 c -1.108,0 -2,0.892 -2,2 v 9 c 0,1.108 0.892,2 2,2 1.108,0 2,-0.892 2,-2 v -4.1875 l 3,3 V 24 h 4 v -1 c 0,-0.554 0.446,-1 1,-1 h 1 v -4 h -3.1875 l -3,-3 h 4.188 c 1.108,0 2,-0.892 2,-2 0,-1.108 -0.892,-2 -2,-2 h -9 z m 15,0 c -1.108,0 -2,0.892 -2,2 0,1.108 0.892,2 2,2 h 4.1875 l -3,3 H 25 v 4 h 1 c 0.554,0 1,0.446 1,1 v 1 h 4 v -3.1875 l 3,-3 v 4.188 c 0,1.108 0.892,2 2,2 1.108,0 2,-0.892 2,-2 v -9 c 0,-1.108 -0.892,-2 -2,-2 H 27 Z M 17,26 v 4 c 0,1.108 0.892,2 2,2 h 4 v -4 h -1 c -0.554,0 -1,-0.446 -1,-1 v -1 z m 10,0 v 1 c 0,0.554 -0.446,1 -1,1 h -1 v 4 h 3.1875 l 3,3 h -4.188 c -1.108,0 -2,0.892 -2,2 0,1.108 0.892,2 2,2 h 9 c 1.108,0 2,-0.892 2,-2 v -9 c 0,-1.108 -0.892,-2 -2,-2 -1.108,0 -2,0.892 -2,2 v 4.1875 l -3,-3 v -3.188 h -4 z"
         style="color:#000000;opacity:0.15;fill:none;stroke:#000000;stroke-width:2;enable-background:new"
         id="path4412"
         inkscape:connector-curvature="0" />
      <path
         d="m 12,11 c -1.108,0 -2,0.892 -2,2 v 9 c 0,1.108 0.892,2 2,2 1.108,0 2,-0.892 2,-2 v -4.1875 l 3,3 V 24 h 4 v -1 c 0,-0.554 0.446,-1 1,-1 h 1 v -4 h -3.1875 l -3,-3 h 4.188 c 1.108,0 2,-0.892 2,-2 0,-1.108 -0.892,-2 -2,-2 h -9 z m 15,0 c -1.108,0 -2,0.892 -2,2 0,1.108 0.892,2 2,2 h 4.1875 l -3,3 H 25 v 4 h 1 c 0.554,0 1,0.446 1,1 v 1 h 4 v -3.1875 l 3,-3 v 4.188 c 0,1.108 0.892,2 2,2 1.108,0 2,-0.892 2,-2 v -9 c 0,-1.108 -0.892,-2 -2,-2 H 27 Z M 17,26 v 4 c 0,1.108 0.892,2 2,2 h 4 v -4 h -1 c -0.554,0 -1,-0.446 -1,-1 v -1 z m 10,0 v 1 c 0,0.554 -0.446,1 -1,1 h -1 v 4 h 3.1875 l 3,3 h -4.188 c -1.108,0 -2,0.892 -2,2 0,1.108 0.892,2 2,2 h 9 c 1.108,0 2,-0.892 2,-2 v -9 c 0,-1.108 -0.892,-2 -2,-2 -1.108,0 -2,0.892 -2,2 v 4.1875 l -3,-3 v -3.188 h -4 z"
         style="color:#000000;fill:#ffc132;enable-background:new"
         id="rect3863"
         inkscape:connector-curvature="0" />
      <path
         d="m 12,11 c -1.108,0 -2,0.892 -2,2 v 9 c 0,1.108 0.892,2 2,2 1.108,0 2,-0.892 2,-2 v -4.188 l 3,3 V 24 h 4 v -1 c 0,-0.554 0.446,-1 1,-1 h 1 v -4 h -3.188 l -3,-3 H 21 c 1.108,0 2,-0.892 2,-2 0,-1.108 -0.892,-2 -2,-2 z m 15,0 c -1.108,0 -2,0.892 -2,2 0,1.108 0.892,2 2,2 h 4.188 l -3,3 H 25 v 4 h 1 c 0.554,0 1,0.446 1,1 v 1 h 4 v -3.188 l 3,-3 V 22 c 0,1.108 0.892,2 2,2 1.108,0 2,-0.892 2,-2 v -9 c 0,-1.108 -0.892,-2 -2,-2 z m -15,1 h 9 c 0.571,0 1,0.429 1,1 0,0.571 -0.429,1 -1,1 h -4.188 a 1.0001,1.0001 0 0 0 -0.707,1.707 l 3,3 A 1.0001,1.0001 0 0 0 19.812,19 H 22 v 2 c -1.091,0 -2,0.909 -2,2 h -2 v -2.188 a 1.0001,1.0001 0 0 0 -0.293,-0.707 l -3,-3 A 1.0001,1.0001 0 0 0 13,17.812 V 22 c 0,0.571 -0.429,1 -1,1 -0.571,0 -1,-0.429 -1,-1 v -9 c 0,-0.571 0.429,-1 1,-1 z m 15,0 h 9 c 0.571,0 1,0.429 1,1 v 9 c 0,0.571 -0.429,1 -1,1 -0.571,0 -1,-0.429 -1,-1 v -4.188 a 1.0001,1.0001 0 0 0 -1.707,-0.707 l -3,3 A 1.0001,1.0001 0 0 0 30,20.812 V 23 h -2 c 0,-1.091 -0.909,-2 -2,-2 v -2 h 2.188 a 1.0001,1.0001 0 0 0 0.707,-0.293 l 3,-3 A 1.0001,1.0001 0 0 0 31.188,14 H 27 c -0.571,0 -1,-0.429 -1,-1 0,-0.571 0.429,-1 1,-1 z M 17,26 v 4 c 0,1.108 0.892,2 2,2 h 4 v -4 h -1 c -0.554,0 -1,-0.446 -1,-1 v -1 z m 10,0 v 1 c 0,0.554 -0.446,1 -1,1 h -1 v 4 h 3.188 l 3,3 H 27 c -1.108,0 -2,0.892 -2,2 0,1.108 0.892,2 2,2 h 9 c 1.108,0 2,-0.892 2,-2 v -9 c 0,-1.108 -0.892,-2 -2,-2 -1.108,0 -2,0.892 -2,2 v 4.188 l -3,-3 V 26 Z m -9,1 h 2 c 0,1.091 0.909,2 2,2 v 2 h -3 c -0.571,0 -1,-0.429 -1,-1 z m 10,0 h 2 v 2.188 a 1.0001,1.0001 0 0 0 0.293,0.707 l 3,3 A 1.0001,1.0001 0 0 0 35,32.188 V 28 c 0,-0.571 0.429,-1 1,-1 0.571,0 1,0.429 1,1 v 9 c 0,0.571 -0.429,1 -1,1 h -9 c -0.571,0 -1,-0.429 -1,-1 0,-0.571 0.429,-1 1,-1 h 4.188 a 1.0001,1.0001 0 0 0 0.707,-1.707 l -3,-3 A 1.0001,1.0001 0 0 0 28.188,31 H 26 v -2 c 1.091,0 2,-0.909 2,-2 z"
         style="color:#000000;opacity:0.15;fill:#ffffff;enable-background:new"
         id="path4405"
         inkscape:connector-curvature="0" />
    </g>
  </g>
</svg>
