<?xml version="1.0" encoding="UTF-8" standalone="no"?>
<!-- Created with Inkscape (http://www.inkscape.org/) -->

<svg
   xmlns:dc="http://purl.org/dc/elements/1.1/"
   xmlns:cc="http://creativecommons.org/ns#"
   xmlns:rdf="http://www.w3.org/1999/02/22-rdf-syntax-ns#"
   xmlns:svg="http://www.w3.org/2000/svg"
   xmlns="http://www.w3.org/2000/svg"
   xmlns:xlink="http://www.w3.org/1999/xlink"
   xmlns:sodipodi="http://sodipodi.sourceforge.net/DTD/sodipodi-0.dtd"
   xmlns:inkscape="http://www.inkscape.org/namespaces/inkscape"
   id="svg4061"
   height="48"
   width="48"
   version="1.1"
   inkscape:version="0.92.0 unknown"
   sodipodi:docname="vpn-unlimited.svg">
  <sodipodi:namedview
     pagecolor="#ffffff"
     bordercolor="#666666"
     borderopacity="1"
     objecttolerance="10"
     gridtolerance="10"
     guidetolerance="10"
     inkscape:pageopacity="0"
     inkscape:pageshadow="2"
     inkscape:window-width="1378"
     inkscape:window-height="894"
     id="namedview40"
     showgrid="false"
     inkscape:zoom="9.8333333"
     inkscape:cx="12.606032"
     inkscape:cy="14.166241"
     inkscape:window-x="79"
     inkscape:window-y="96"
     inkscape:window-maximized="0"
     inkscape:current-layer="g4206" />
  <defs
     id="defs4063">
    <linearGradient
       inkscape:collect="always"
       id="linearGradient3361">
      <stop
         style="stop-color:#0068e0;stop-opacity:1;"
         offset="0"
         id="stop3363" />
      <stop
         style="stop-color:#00acf4;stop-opacity:1"
         offset="1"
         id="stop3365" />
    </linearGradient>
    <linearGradient
       id="linearGradient3026"
       y2="40.495998"
       gradientUnits="userSpaceOnUse"
       x2="71.204002"
       gradientTransform="matrix(1.617,0,0,1.617,-92.707,-21.06)"
       y1="15.369"
       x1="71.204002"
       xlink:href="#linearGradient3361">
      <stop
         id="stop4808-4"
         stop-color="#fff"
         offset="0" />
      <stop
         id="stop4810-0"
         stop-color="#fff"
         stop-opacity=".23529"
         offset=".42448" />
      <stop
         id="stop4812-8"
         stop-color="#fff"
         stop-opacity=".15686"
         offset=".82090" />
      <stop
         id="stop4814-0"
         stop-color="#fff"
         stop-opacity=".39216"
         offset="1" />
    </linearGradient>
    <radialGradient
       id="radialGradient3029"
       fx="4.459"
       fy="8.5089"
       gradientUnits="userSpaceOnUse"
       cy="8.6258"
       cx="15.026"
       gradientTransform="matrix(-3.4973e-8 1.8855 -1.7764 -5.4723e-8 39.14 -7.9932)"
       r="20">
      <stop
         id="stop4170"
         stop-color="#c24251"
         offset="0" />
      <stop
         id="stop4172"
         stop-color="#c24251"
         offset=".26238" />
      <stop
         id="stop4174"
         stop-color="#a63643"
         offset=".66094" />
      <stop
         id="stop4176"
         stop-color="#a63643"
         offset="1" />
    </radialGradient>
    <radialGradient
       id="radialGradient3032"
       gradientUnits="userSpaceOnUse"
       cy="3.99"
       cx="23.896"
       gradientTransform="matrix(0 2.8885 -3.8128 0 39.213 -65.95)"
       r="20.397">
      <stop
         id="stop3244-9-33-7-0-9"
         stop-color="#fff"
         offset="0" />
      <stop
         id="stop3246-3-5-0-8-5"
         stop-color="#ddd"
         offset=".26238" />
      <stop
         id="stop3248-1-7-8-8-1"
         stop-color="#abacae"
         offset=".66094" />
      <stop
         id="stop3250-9-3-0-5-1"
         stop-color="#89898b"
         offset="1" />
    </radialGradient>
    <radialGradient
       id="radialGradient3035"
       gradientUnits="userSpaceOnUse"
       cy="186.17"
       cx="99.157"
       gradientTransform="matrix(.27083 0 0 .087623 -2.8551 25.187)"
       r="62.769">
      <stop
         id="stop3822-2-6-3"
         stop-color="#3d3d3d"
         offset="0" />
      <stop
         id="stop3864-8-7-7"
         stop-color="#686868"
         stop-opacity=".49804"
         offset=".5" />
      <stop
         id="stop3824-1-2-5"
         stop-color="#686868"
         stop-opacity="0"
         offset="1" />
    </radialGradient>
    <linearGradient
       id="linearGradient4433"
       y2="25.611"
       gradientUnits="userSpaceOnUse"
       x2="23.078"
       gradientTransform="matrix(1 0 0 1.0521 0 -.90547)"
       y1="13.035"
       x1="22.759">
      <stop
         id="stop6305-1-0-2"
         stop-color="#fff"
         offset="0" />
      <stop
         id="stop6307-5-0-6"
         stop-color="#fff"
         stop-opacity="0"
         offset="1" />
    </linearGradient>
    <linearGradient
       inkscape:collect="always"
       xlink:href="#linearGradient3361"
       id="linearGradient3367"
       x1="25.016949"
       y1="36"
       x2="25.016951"
       y2="9.7627115"
       gradientUnits="userSpaceOnUse" />
    <linearGradient
       id="linearGradient4829">
      <stop
         style="stop-color:#f4fbfc;stop-opacity:1;"
         offset="0"
         id="stop4831" />
      <stop
         style="stop-color:#d6d6d6;stop-opacity:1;"
         offset="1"
         id="stop4833" />
    </linearGradient>
    <filter
       x="-0.5"
       y="-0.5"
       width="2"
       height="2"
       filterUnits="objectBoundingBox"
       id="a">
      <feOffset
         dy="2"
         in="SourceAlpha"
         result="shadowOffsetOuter1"
         id="feOffset5" />
      <feGaussianBlur
         stdDeviation="2"
         in="shadowOffsetOuter1"
         result="shadowBlurOuter1"
         id="feGaussianBlur7" />
      <feColorMatrix
         values="0 0 0 0 0 0 0 0 0 0 0 0 0 0 0 0 0 0 0.272503397 0"
         in="shadowBlurOuter1"
         id="feColorMatrix9" />
    </filter>
    <filter
       x="-0.5"
       y="-0.5"
       width="2"
       height="2"
       filterUnits="objectBoundingBox"
       id="a-3">
      <feOffset
         dy="2"
         in="SourceAlpha"
         result="shadowOffsetOuter1"
         id="feOffset5-6" />
      <feGaussianBlur
         stdDeviation="2"
         in="shadowOffsetOuter1"
         result="shadowBlurOuter1"
         id="feGaussianBlur7-7" />
      <feColorMatrix
         values="0 0 0 0 0 0 0 0 0 0 0 0 0 0 0 0 0 0 0.272503397 0"
         in="shadowBlurOuter1"
         id="feColorMatrix9-5" />
    </filter>
  </defs>
  <metadata
     id="metadata4066">
    <rdf:RDF>
      <cc:Work
         rdf:about="">
        <dc:format>image/svg+xml</dc:format>
        <dc:type
           rdf:resource="http://purl.org/dc/dcmitype/StillImage" />
        <dc:title></dc:title>
      </cc:Work>
    </rdf:RDF>
  </metadata>
  <g
     id="g4206">
    <path
       id="path3818-0-5"
       d="m 41,41.5 a 17,5.5 0 0 1 -34,0 17,5.5 0 1 1 34,0 z"
       inkscape:connector-curvature="0"
       style="fill:url(#radialGradient3035)" />
    <path
       id="path2555-7-2"
       style="color:#000000;fill:url(#radialGradient3032)"
       d="M 24,3.5 C 12.689,3.5 3.5,12.689 3.5,24 3.5,35.311 12.689,44.5 24,44.5 35.311,44.5 44.5,35.311 44.5,24 44.5,12.689 35.311,3.5 24,3.5 Z"
       inkscape:connector-curvature="0" />
    <path
       id="path2555-7-65"
       style="color:#000000;fill:url(#linearGradient3367);fill-opacity:1"
       d="M 24,3.5 C 12.689,3.5 3.5,12.689 3.5,24 3.5,35.311 12.689,44.5 24,44.5 35.311,44.5 44.5,35.311 44.5,24 44.5,12.689 35.311,3.5 24,3.5 Z"
       inkscape:connector-curvature="0" />
    <path
       id="path4176"
       style="color:#000000;opacity:1;fill:none;stroke:#ffffff;stroke-width:2;stroke-linecap:round;stroke-linejoin:round;stroke-miterlimit:4;stroke-dasharray:none;stroke-opacity:0.98156684"
       d="M 43.5,24 C 43.5,34.77 34.77,43.5 24,43.5 13.23,43.5 4.5,34.77 4.5,24 4.5,13.23 13.23,4.5 24,4.5 34.77,4.5 43.5,13.23 43.5,24 Z"
       inkscape:connector-curvature="0" />
    <path
       id="path2555-7-1-7"
       style="color:#000000;opacity:1;fill:none;fill-opacity:1;stroke:#ffffff;stroke-width:0.2;stroke-linecap:round;stroke-linejoin:round;stroke-miterlimit:4;stroke-dasharray:none;stroke-opacity:1"
       d="m 24,3.5001 c -11.311,0 -20.5,9.1888 -20.5,20.5 0,11.3112 9.1888,20.5 20.5,20.5 11.3112,0 20.5,-9.1888 20.5,-20.5 0,-11.3112 -9.189,-20.5 -20.5,-20.5 z"
       inkscape:connector-curvature="0" />
    <g
       id="g4317"
       transform="matrix(1.0002,0,0,1.0004,-1.0018,-0.0050486)"
       style="fill:none;stroke:#000000;stroke-linecap:round;stroke-linejoin:round" />
    <ellipse
       style="opacity:1;fill:#ffffff;fill-opacity:1;stroke-width:1.00722969"
       id="path3131"
       cx="24.05085"
       cy="23.847458"
       rx="15.764056"
       ry="15.863637" />
    <g
       style="fill:none;fill-rule:evenodd"
       id="g22"
       transform="matrix(0.1242938,0,0,0.11525424,12.610169,13.271187)">
      <rect
         style="fill:#ffffff"
         y="0"
         x="0"
         width="180"
         height="180"
         rx="40"
         id="rect14" />
      <path
         style="fill:#00aaff"
         inkscape:connector-curvature="0"
         d="m 90,162 c 0,0 58,-21.852 58,-65.842 V 36.974 C 133.692,36.974 90,23 90,23 90,23 46.29,36.974 32,36.974 V 96.158 C 32,139.81 90,162 90,162 Z"
         id="path16" />
      <path
         inkscape:connector-curvature="0"
         id="use18"
         d="m 112.578,110.51 c 8.332,-0.369 14.809,-10.622 14.404,-23.124 -0.37,-11.443 -6.494,-20.92 -13.912,-22.564 l -10e-4,-0.015 c -0.031,-0.006 -0.062,-0.005 -0.093,-0.01 -0.043,-0.01 -0.086,-0.026 -0.129,-0.034 l 0.002,0.02 c -5.002,-0.91 -9.536,1.854 -12.038,5.734 -6.032,9.357 -2.909,25.953 -10.184,35.048 -3.302,4.127 -7.854,6.084 -12.368,5.236 C 70.811,109.038 64.876,99.603 64.506,88.15 64.092,75.378 70.917,64.942 79.478,64.837 L 79.47,64.795 c 8.483,-0.081 15.685,10.138 16.095,22.844 0.017,0.523 0.022,1.041 0.015,1.555 0.888,-6.31 1.49,-12.755 4.105,-17.595 -4.37,-12.28 -13.058,-20.694 -22.806,-20.598 -13.697,0.166 -24.511,16.855 -23.85,37.288 0.599,18.47 10.26,33.64 22.208,36.27 l -0.003,0.02 c 0.07,0.014 0.137,0.021 0.207,0.034 0.036,0.008 0.073,0.022 0.109,0.03 l 0.003,-0.012 c 7.943,1.498 13.42,-1.795 16.863,-5.787 14.142,-16.395 8.005,-31.833 13.211,-40.985 1.685,-2.962 4.545,-5.247 8.22,-4.547 4.596,1.07 8.497,7.013 8.727,14.128 0.258,7.918 -3.94,14.386 -9.248,14.45 l -0.023,0.187 c -4.88,-0.138 -9.074,-5.498 -9.91,-12.406 -0.399,4.363 -0.713,9.248 -2.219,14.447 2.962,4.088 7.116,6.61 11.384,6.559 z"
         style="fill:#000000;filter:url(#a-3)" />
      <path
         inkscape:connector-curvature="0"
         id="use20"
         d="m 112.578,110.51 c 8.332,-0.369 14.809,-10.622 14.404,-23.124 -0.37,-11.443 -6.494,-20.92 -13.912,-22.564 l -10e-4,-0.015 c -0.031,-0.006 -0.062,-0.005 -0.093,-0.01 -0.043,-0.01 -0.086,-0.026 -0.129,-0.034 l 0.002,0.02 c -5.002,-0.91 -9.536,1.854 -12.038,5.734 -6.032,9.357 -2.909,25.953 -10.184,35.048 -3.302,4.127 -7.854,6.084 -12.368,5.236 C 70.811,109.038 64.876,99.603 64.506,88.15 64.092,75.378 70.917,64.942 79.478,64.837 L 79.47,64.795 c 8.483,-0.081 15.685,10.138 16.095,22.844 0.017,0.523 0.022,1.041 0.015,1.555 0.888,-6.31 1.49,-12.755 4.105,-17.595 -4.37,-12.28 -13.058,-20.694 -22.806,-20.598 -13.697,0.166 -24.511,16.855 -23.85,37.288 0.599,18.47 10.26,33.64 22.208,36.27 l -0.003,0.02 c 0.07,0.014 0.137,0.021 0.207,0.034 0.036,0.008 0.073,0.022 0.109,0.03 l 0.003,-0.012 c 7.943,1.498 13.42,-1.795 16.863,-5.787 14.142,-16.395 8.005,-31.833 13.211,-40.985 1.685,-2.962 4.545,-5.247 8.22,-4.547 4.596,1.07 8.497,7.013 8.727,14.128 0.258,7.918 -3.94,14.386 -9.248,14.45 l -0.023,0.187 c -4.88,-0.138 -9.074,-5.498 -9.91,-12.406 -0.399,4.363 -0.713,9.248 -2.219,14.447 2.962,4.088 7.116,6.61 11.384,6.559 z"
         style="fill:#ffffff" />
    </g>
  </g>
</svg>
