<?xml version="1.0" encoding="UTF-8" standalone="no"?>
<!-- Created with Inkscape (http://www.inkscape.org/) -->

<svg
   xmlns:dc="http://purl.org/dc/elements/1.1/"
   xmlns:cc="http://creativecommons.org/ns#"
   xmlns:rdf="http://www.w3.org/1999/02/22-rdf-syntax-ns#"
   xmlns:svg="http://www.w3.org/2000/svg"
   xmlns="http://www.w3.org/2000/svg"
   xmlns:xlink="http://www.w3.org/1999/xlink"
   xmlns:sodipodi="http://sodipodi.sourceforge.net/DTD/sodipodi-0.dtd"
   xmlns:inkscape="http://www.inkscape.org/namespaces/inkscape"
   version="1.1"
   width="48"
   height="48"
   id="svg4248"
   inkscape:version="0.91 r"
   sodipodi:docname="help-hint.svg">
  <sodipodi:namedview
     pagecolor="#ffffff"
     bordercolor="#666666"
     borderopacity="1"
     objecttolerance="10"
     gridtolerance="10"
     guidetolerance="10"
     inkscape:pageopacity="0"
     inkscape:pageshadow="2"
     inkscape:window-width="1309"
     inkscape:window-height="1359"
     id="namedview109"
     showgrid="false"
     inkscape:zoom="5.656854"
     inkscape:cx="-17.658707"
     inkscape:cy="-2.4449173"
     inkscape:window-x="999"
     inkscape:window-y="45"
     inkscape:window-maximized="0"
     inkscape:current-layer="g4144"
     inkscape:snap-bbox="true"
     inkscape:bbox-paths="true"
     inkscape:bbox-nodes="true"
     inkscape:snap-bbox-edge-midpoints="false"
     inkscape:snap-global="true">
    <inkscape:grid
       type="xygrid"
       id="grid4005" />
  </sodipodi:namedview>
  <defs
     id="defs4250">
    <linearGradient
       id="linearGradient4011-4">
      <stop
         id="stop4013-8"
         style="stop-color:#ffffff;stop-opacity:1"
         offset="0" />
      <stop
         id="stop4015-5"
         style="stop-color:#ffffff;stop-opacity:0.23529412"
         offset="0.507761" />
      <stop
         id="stop4017-6"
         style="stop-color:#ffffff;stop-opacity:0.15686275"
         offset="0.83456558" />
      <stop
         id="stop4019-1"
         style="stop-color:#ffffff;stop-opacity:0.39215687"
         offset="1" />
    </linearGradient>
    <linearGradient
       x1="71.204407"
       y1="6.2375584"
       x2="71.204407"
       y2="44.340794"
       id="linearGradient3089"
       xlink:href="#linearGradient4011-4"
       gradientUnits="userSpaceOnUse"
       gradientTransform="matrix(0.80398374,0,0,0.80304533,-40.196225,-5.970528)" />
    <linearGradient
       id="linearGradient3820-7-2-2">
      <stop
         id="stop3822-2-6-36"
         style="stop-color:#3d3d3d;stop-opacity:1"
         offset="0" />
      <stop
         id="stop3864-8-7-6"
         style="stop-color:#686868;stop-opacity:0.49803922"
         offset="0.5" />
      <stop
         id="stop3824-1-2-4"
         style="stop-color:#686868;stop-opacity:0"
         offset="1" />
    </linearGradient>
    <radialGradient
       cx="99.157013"
       cy="186.17059"
       r="62.769119"
       fx="99.157013"
       fy="186.17059"
       id="radialGradient3315"
       xlink:href="#linearGradient3820-7-2-2"
       gradientUnits="userSpaceOnUse"
       gradientTransform="matrix(0.1930776,0,0,0.0613621,-1.6686451,16.723906)" />
    <linearGradient
       inkscape:collect="always"
       xlink:href="#linearGradient4215-4"
       id="linearGradient3163-1"
       gradientUnits="userSpaceOnUse"
       gradientTransform="matrix(0.63266073,0,0,0.63192233,-2.7687915,-7.092874)"
       x1="38.976662"
       y1="59.967686"
       x2="38.976662"
       y2="8.0928917" />
    <linearGradient
       id="linearGradient4215-4">
      <stop
         offset="0"
         style="stop-color:#dcdcdc;stop-opacity:1"
         id="stop4217-9" />
      <stop
         offset="1"
         style="stop-color:#f0f0f0;stop-opacity:1"
         id="stop4219-7" />
    </linearGradient>
    <linearGradient
       id="outerBackgroundGradient">
      <stop
         id="stop3864-8-6"
         offset="0"
         style="stop-color:#a5a5a5;stop-opacity:1;" />
      <stop
         id="stop3866-9-1"
         offset="1"
         style="stop-color:#d1d1d1;stop-opacity:1;" />
    </linearGradient>
    <linearGradient
       gradientTransform="matrix(0.06666667,0,0,0.06666667,414.4,137.33333)"
       y2="40.00005"
       x2="264"
       y1="280.00003"
       x1="264"
       gradientUnits="userSpaceOnUse"
       id="linearGradient4097"
       xlink:href="#outerBackgroundGradient"
       inkscape:collect="always" />
    <linearGradient
       y2="28.571428"
       x2="286.85715"
       y1="302.85715"
       x1="286.85715"
       gradientTransform="matrix(0.0875,0,0,0.0875,414.9,97.5)"
       gradientUnits="userSpaceOnUse"
       id="linearGradient4101"
       xlink:href="#outerBackgroundGradient"
       inkscape:collect="always" />
    <linearGradient
       y2="31.61907"
       x2="283.80957"
       y1="299.80954"
       x1="283.80957"
       gradientTransform="matrix(0.11931818,0,0,0.11931818,414.13636,48.22727)"
       gradientUnits="userSpaceOnUse"
       id="linearGradient4153"
       xlink:href="#outerBackgroundGradient"
       inkscape:collect="always" />
    <linearGradient
       y2="22.857315"
       x2="281.14291"
       y1="297.14304"
       x1="281.14291"
       gradientTransform="matrix(0.175,0,0,-0.175,286.79999,-215.99997)"
       gradientUnits="userSpaceOnUse"
       id="linearGradient4869"
       xlink:href="#outerBackgroundGradient"
       inkscape:collect="always" />
    <clipPath
       id="clipPath4891"
       clipPathUnits="userSpaceOnUse">
      <rect
         transform="matrix(0,1,-1,0,0,0)"
         style="color:#bebebe;display:inline;overflow:visible;visibility:visible;fill:url(#linearGradient4895);fill-opacity:1;fill-rule:nonzero;stroke:none;stroke-width:0;marker:none;enable-background:accumulate"
         id="rect4893"
         width="42"
         height="42"
         x="307"
         y="223"
         ry="9" />
    </clipPath>
    <linearGradient
       y2="40.000172"
       x2="144.00006"
       y1="280.00018"
       x1="144.00006"
       gradientTransform="matrix(0.175,0,0,0.175,302.79999,215.99997)"
       gradientUnits="userSpaceOnUse"
       id="linearGradient4895"
       xlink:href="#outerBackgroundGradient"
       inkscape:collect="always" />
    <clipPath
       id="clipPath4044"
       clipPathUnits="userSpaceOnUse">
      <rect
         style="color:#bebebe;display:inline;overflow:visible;visibility:visible;fill:url(#linearGradient4048);fill-opacity:1;fill-rule:nonzero;stroke:none;stroke-width:0;marker:none;enable-background:accumulate"
         id="rect4046"
         width="22"
         height="22"
         x="433"
         y="85"
         ry="4" />
    </clipPath>
    <linearGradient
       y2="40.000046"
       x2="149.71428"
       y1="291.42862"
       x1="149.71428"
       gradientTransform="matrix(0.0875,0,0,0.0875,430.9,81.499996)"
       gradientUnits="userSpaceOnUse"
       id="linearGradient4048"
       xlink:href="#outerBackgroundGradient"
       inkscape:collect="always" />
    <clipPath
       id="clipPath4089"
       clipPathUnits="userSpaceOnUse">
      <rect
         ry="6"
         y="37"
         x="433"
         height="30"
         width="30"
         id="rect4091"
         style="color:#bebebe;display:inline;overflow:visible;visibility:visible;fill:url(#linearGradient4093);fill-opacity:1;fill-rule:nonzero;stroke:none;stroke-width:0;marker:none;enable-background:accumulate" />
    </clipPath>
    <linearGradient
       y2="40.00005"
       x2="149.71432"
       y1="291.42862"
       x1="149.71432"
       gradientTransform="matrix(0.11931818,0,0,0.11931818,430.13636,32.227267)"
       gradientUnits="userSpaceOnUse"
       id="linearGradient4093"
       xlink:href="#outerBackgroundGradient"
       inkscape:collect="always" />
    <clipPath
       id="clipPath3855"
       clipPathUnits="userSpaceOnUse">
      <rect
         transform="matrix(0,1,-1,0,0,0)"
         ry="3"
         y="212"
         x="304"
         height="16"
         width="16"
         id="rect3857"
         style="color:#bebebe;display:inline;overflow:visible;visibility:visible;fill:url(#linearGradient3859);fill-opacity:1;fill-rule:nonzero;stroke:none;stroke-width:0;marker:none;enable-background:accumulate" />
    </clipPath>
    <linearGradient
       y2="40.00005"
       x2="144"
       y1="280.00003"
       x1="144"
       gradientTransform="matrix(0.06666667,0,0,0.06666667,302.4,209.33333)"
       gradientUnits="userSpaceOnUse"
       id="linearGradient3859"
       xlink:href="#outerBackgroundGradient"
       inkscape:collect="always" />
    <clipPath
       id="clipPath3862"
       clipPathUnits="userSpaceOnUse">
      <rect
         style="color:#bebebe;display:inline;overflow:visible;visibility:visible;fill:url(#linearGradient3866);fill-opacity:1;fill-rule:nonzero;stroke:none;stroke-width:0;marker:none;enable-background:accumulate"
         id="rect3864"
         width="220"
         height="220"
         x="34"
         y="46"
         ry="50" />
    </clipPath>
    <linearGradient
       y2="40"
       x2="144"
       y1="280"
       x1="144"
       gradientTransform="translate(0,-4)"
       gradientUnits="userSpaceOnUse"
       id="linearGradient3866"
       xlink:href="#outerBackgroundGradient"
       inkscape:collect="always" />
    <linearGradient
       y2="32"
       x2="272"
       y1="288"
       x1="272"
       gradientTransform="translate(0,-4)"
       gradientUnits="userSpaceOnUse"
       id="linearGradient3876"
       xlink:href="#outerBackgroundGradient"
       inkscape:collect="always" />
    <clipPath
       id="clipPath4187"
       clipPathUnits="userSpaceOnUse">
      <rect
         style="color:#bebebe;display:inline;overflow:visible;visibility:visible;fill:url(#linearGradient4191);fill-opacity:1;fill-rule:nonzero;stroke:none;stroke-width:0;marker:none;enable-background:accumulate"
         id="rect4189"
         width="60"
         height="60"
         x="290"
         y="142"
         ry="12.5" />
    </clipPath>
    <linearGradient
       y2="140"
       x2="352"
       y1="204"
       x1="352"
       gradientUnits="userSpaceOnUse"
       id="linearGradient4191"
       xlink:href="#outerBackgroundGradient"
       inkscape:collect="always" />
    <linearGradient
       y2="28"
       x2="384"
       y1="124"
       x1="384"
       gradientUnits="userSpaceOnUse"
       id="linearGradient4197"
       xlink:href="#outerBackgroundGradient"
       inkscape:collect="always" />
    <clipPath
       id="clipPath4346"
       clipPathUnits="userSpaceOnUse">
      <rect
         ry="18"
         y="32"
         x="292"
         height="88"
         width="88"
         id="rect4348"
         style="color:#bebebe;display:inline;overflow:visible;visibility:visible;fill:url(#linearGradient4197);fill-opacity:1;fill-rule:nonzero;stroke:none;stroke-width:0;marker:none;enable-background:accumulate" />
    </clipPath>
    <clipPath
       id="clipPath3871"
       clipPathUnits="userSpaceOnUse">
      <rect
         style="color:#bebebe;display:inline;overflow:visible;visibility:visible;fill:url(#linearGradient4101);fill-opacity:1;fill-rule:nonzero;stroke:none;stroke-width:0;marker:none;enable-background:accumulate"
         id="rect3873"
         width="22"
         height="22"
         x="417"
         y="101"
         ry="5" />
    </clipPath>
    <clipPath
       id="clipPath3881"
       clipPathUnits="userSpaceOnUse">
      <rect
         ry="7"
         y="53"
         x="417"
         height="30"
         width="30"
         id="rect3883"
         style="color:#bebebe;display:inline;overflow:visible;visibility:visible;fill:url(#linearGradient4153);fill-opacity:1;fill-rule:nonzero;stroke:none;stroke-width:0;marker:none;enable-background:accumulate" />
    </clipPath>
    <linearGradient
       gradientTransform="matrix(0,-1,1,0,316,540)"
       gradientUnits="userSpaceOnUse"
       y2="112"
       x2="438"
       y1="112"
       x1="418"
       id="linearGradient4258"
       xlink:href="#outerBackgroundGradient"
       inkscape:collect="always" />
    <linearGradient
       y2="40.000008"
       x2="144"
       y1="280"
       x1="144"
       gradientTransform="matrix(0.375,0,0,0.375,14,172)"
       gradientUnits="userSpaceOnUse"
       id="linearGradient4865"
       xlink:href="#outerBackgroundGradient-1"
       inkscape:collect="always" />
    <linearGradient
       id="outerBackgroundGradient-1">
      <stop
         id="stop3864-8-6-2"
         offset="0"
         style="stop-color:#989898;stop-opacity:1;" />
      <stop
         id="stop3866-9-1-5"
         offset="1"
         style="stop-color:#c3c3c3;stop-opacity:1;" />
    </linearGradient>
    <clipPath
       id="clipPath4610"
       clipPathUnits="userSpaceOnUse">
      <path
         inkscape:connector-curvature="0"
         style="color:#bebebe;display:inline;overflow:visible;visibility:visible;fill:url(#linearGradient4614);fill-opacity:1;fill-rule:nonzero;stroke:none;stroke-width:2;marker:none;enable-background:accumulate"
         d="m 75.448164,-5.3337819 c 12.658277,0 22.841991,10.1837123 22.841991,22.8419899 l 0,55.374522 c 0,12.658279 -10.183714,22.841991 -22.841991,22.841991 l -55.374521,0 c -12.6582793,0 -22.8419907,-10.183712 -22.8419907,-22.841991 l 0,-55.374522 c 0,-12.6582776 10.1837114,-22.8419899 22.8419907,-22.8419899 l 55.374521,0 z"
         id="path4612" />
    </clipPath>
    <linearGradient
       y2="156"
       x2="253"
       y1="156"
       x1="35"
       gradientTransform="matrix(0,-0.46145435,-0.46145435,0,119.74778,111.6449)"
       gradientUnits="userSpaceOnUse"
       id="linearGradient4614"
       xlink:href="#outerBackgroundGradient"
       inkscape:collect="always" />
    <linearGradient
       y2="8.0928917"
       x2="38.976662"
       y1="59.967686"
       x1="38.976662"
       gradientTransform="matrix(0.80392158,0,0,0.80392158,-1.72549,-2.3658945)"
       gradientUnits="userSpaceOnUse"
       id="linearGradient3024"
       xlink:href="#linearGradient4215-4"
       inkscape:collect="always" />
    <linearGradient
       inkscape:collect="always"
       xlink:href="#linearGradient4215-4"
       id="linearGradient3849"
       gradientUnits="userSpaceOnUse"
       gradientTransform="matrix(0.80392158,0,0,0.80392158,664.41073,262.76717)"
       x1="38.976662"
       y1="59.967686"
       x2="38.976662"
       y2="8.0928917" />
    <clipPath
       id="clipPath4806"
       clipPathUnits="userSpaceOnUse">
      <path
         inkscape:connector-curvature="0"
         style="color:#bebebe;display:inline;overflow:visible;visibility:visible;fill:#bf5454;fill-opacity:1;fill-rule:nonzero;stroke:none;stroke-width:2;marker:none;enable-background:accumulate"
         d="m 543.90196,-171.40732 c -27.43127,0 -49.5,22.06873 -49.5,49.5 l 0,120 c 0,27.43127 22.06873,49.5 49.5,49.5 l 120,0 c 27.43127,0 49.5,-22.06873 49.5,-49.5 l 0,-120 c 0,-27.43127 -22.06873,-49.5 -49.5,-49.5 l -120,0 z"
         id="path4808" />
    </clipPath>
    <clipPath
       id="clipPath4812"
       clipPathUnits="userSpaceOnUse">
      <path
         inkscape:connector-curvature="0"
         style="color:#bebebe;display:inline;overflow:visible;visibility:visible;fill:#bf5454;fill-opacity:1;fill-rule:nonzero;stroke:none;stroke-width:2;marker:none;enable-background:accumulate"
         d="m 547.65198,-156.00108 c -22.10302,0 -39.84375,17.74073 -39.84375,39.84375 l 0,112.5000018 c 0,22.1030162 17.74073,39.8437502 39.84375,39.8437502 l 112.5,0 c 22.10302,0 39.84375,-17.740734 39.84375,-39.8437502 l 0,-112.5000018 c 0,-22.10302 -17.74073,-39.84375 -39.84375,-39.84375 l -112.5,0 z"
         id="path4814" />
    </clipPath>
    <clipPath
       id="clipPath4840"
       clipPathUnits="userSpaceOnUse">
      <path
         inkscape:connector-curvature="0"
         style="color:#bebebe;display:inline;overflow:visible;visibility:visible;fill:#bf5454;fill-opacity:1;fill-rule:nonzero;stroke:none;stroke-width:2;marker:none;enable-background:accumulate"
         d="m 538.90196,-168.65732 c -24.25637,0 -43.75,19.49363 -43.75,43.75 l 0,130.0000025 c 0,24.2563755 19.49363,43.7500005 43.75,43.7500005 l 130,0 c 24.25637,0 43.75,-19.493625 43.75,-43.7500005 l 0,-130.0000025 c 0,-24.25637 -19.49363,-43.75 -43.75,-43.75 l -130,0 z"
         id="path4842" />
    </clipPath>
    <clipPath
       id="clipPath4888"
       clipPathUnits="userSpaceOnUse">
      <path
         inkscape:connector-curvature="0"
         style="color:#bebebe;display:inline;overflow:visible;visibility:visible;fill:#bf5454;fill-opacity:1;fill-rule:nonzero;stroke:none;stroke-width:2;marker:none;enable-background:accumulate"
         d="m 541.402,-166.15737 c -17.305,0 -31.25,13.945 -31.25,31.25 l 0,124.999995 c 0,17.305 13.945,31.25 31.25,31.25 l 125,0 c 17.305,0 31.25,-13.945 31.25,-31.25 l 0,-124.999995 c 0,-17.305 -13.945,-31.25 -31.25,-31.25 l -125,0 z"
         id="path4890" />
    </clipPath>
    <clipPath
       id="clipPath4894"
       clipPathUnits="userSpaceOnUse">
      <path
         inkscape:connector-curvature="0"
         style="color:#bebebe;display:inline;overflow:visible;visibility:visible;fill:#bf5454;fill-opacity:1;fill-rule:nonzero;stroke:none;stroke-width:2;marker:none;enable-background:accumulate"
         d="m 543.902,-164.9073 c -24.9699,0 -45,20.0301 -45,45 l 0,120 c 0,24.9699 20.0301,45 45,45 l 120,0 c 24.9699,0 45,-20.0301 45,-45 l 0,-120 c 0,-24.9699 -20.0301,-45 -45,-45 l -120,0 z"
         id="path4896" />
    </clipPath>
    <clipPath
       id="clipPath4900"
       clipPathUnits="userSpaceOnUse">
      <path
         inkscape:connector-curvature="0"
         style="color:#bebebe;display:inline;overflow:visible;visibility:visible;fill:#bf5454;fill-opacity:1;fill-rule:nonzero;stroke:none;stroke-width:2;marker:none;enable-background:accumulate"
         d="m 543.90196,-164.90732 c -27.04905,0 -48.75,21.70098 -48.75,48.75 l 0,120.0000051 c 0,27.0490209 21.70095,48.7500009 48.75,48.7500009 l 120.00001,0 c 27.04905,0 48.75,-21.70098 48.75,-48.7500009 l 0,-120.0000051 c 0,-27.04902 -21.70095,-48.75 -48.75,-48.75 l -120.00001,0 z"
         id="path4902" />
    </clipPath>
    <clipPath
       id="clipPath4906"
       clipPathUnits="userSpaceOnUse">
      <path
         inkscape:connector-curvature="0"
         style="color:#bebebe;display:inline;overflow:visible;visibility:visible;fill:#bf5454;fill-opacity:1;fill-rule:nonzero;stroke:none;stroke-width:2;marker:none;enable-background:accumulate"
         d="m 537.05819,-167.62264 c -24.95632,0 -45,20.04368 -45,45 l 0,131.2500024 c 0,24.9563246 20.04368,44.9999996 45,44.9999996 l 131.25,0 c 24.95633,0 45,-20.043675 45,-44.9999996 l 0,-131.2500024 c 0,-24.95632 -20.04367,-45 -45,-45 l -131.25,0 z"
         id="path4908" />
    </clipPath>
  </defs>
  <metadata
     id="metadata4253">
    <rdf:RDF>
      <cc:Work
         rdf:about="">
        <dc:format>image/svg+xml</dc:format>
        <dc:type
           rdf:resource="http://purl.org/dc/dcmitype/StillImage" />
        <dc:title></dc:title>
      </cc:Work>
    </rdf:RDF>
  </metadata>
  <g
     inkscape:groupmode="layer"
     id="layer1"
     inkscape:label="Layer 1"
     transform="translate(0,16)" />
  <g
     id="g4144"
     transform="matrix(1.400487,0,0,1.3934811,-0.60073046,3.408605)">
    <path
       style="fill:url(#radialGradient3315);fill-opacity:1;stroke:none"
       id="path3818-0-2"
       d="m 29.75304,28.12637 a 12.187199,3.8729714 0 1 1 -24.3743972,0 12.187199,3.8729714 0 1 1 24.3743972,0 z"
       inkscape:connector-curvature="0" />
    <path
       style="color:#000000;display:inline;overflow:visible;visibility:visible;fill:url(#linearGradient3163-1);fill-opacity:1;fill-rule:nonzero;stroke:none;stroke-width:0.71428573;stroke-linecap:round;stroke-linejoin:round;stroke-miterlimit:4;stroke-dasharray:none;stroke-dashoffset:0;stroke-opacity:1;marker:none;enable-background:accumulate"
       id="path2555"
       d="m 17.565842,-1.7502 c -8.8640811,0 -16.0649457,7.1919963 -16.0649457,16.045167 0,8.853172 7.2008646,16.045172 16.0649457,16.04517 8.864079,0 16.064948,-7.191998 16.064942,-16.04517 0,-8.8531707 -7.200863,-16.045167 -16.064942,-16.045167 z"
       inkscape:connector-curvature="0" />
    <path
       style="color:#000000;display:inline;overflow:visible;visibility:visible;opacity:0.5;fill:#000000;fill-opacity:0;fill-rule:nonzero;stroke:#000000;stroke-width:0.71582997;stroke-linecap:round;stroke-linejoin:round;stroke-miterlimit:4;stroke-dasharray:none;stroke-dashoffset:0;stroke-opacity:1;marker:none;enable-background:accumulate"
       id="path2555-6"
       d="m 17.565842,-1.7502 c -8.8640819,0 -16.0649457,7.1919961 -16.0649457,16.045166 0,8.85317 7.2008638,16.045171 16.0649457,16.045169 8.864078,0 16.064951,-7.191999 16.064941,-16.045169 0,-8.8531699 -7.200863,-16.045166 -16.064941,-16.045166 z"
       inkscape:connector-curvature="0" />
    <path
       style="fill:#000000;fill-opacity:0.04255317;stroke:none"
       id="path4004"
       inkscape:connector-curvature="0"
       d="m 17.56584,-1.1975565 c -2.407058,0 -4.693834,0.55006468 -6.727887,1.52982389 L 16.654571,12.648315 6.4948791,3.4306444 C 3.7439237,6.2270394 2.054861,10.069784 2.054861,14.294329 c 0,1.117009 0.1234796,2.202982 0.348997,3.253295 L 17.72095,13.597194 17.468895,13.384182 27.357146,2.2881179 C 24.686148,0.11314763 21.276044,-1.1975565 17.56584,-1.1975565 Z m 14.948707,11.3478065 -15.239538,3.640593 0.05816,0.03873 -13.242499,8.133239 c 2.6727225,4.67237 7.70796,7.823405 13.475163,7.823403 0.4371,0 0.871035,-0.02258 1.299044,-0.05809 -0.557528,-6.379667 -1.37688,-15.588179 -1.395986,-15.80173 l 12.31184,9.895442 c 2.060646,-2.629958 3.296085,-5.933623 3.296083,-9.52751 0,-1.433923 -0.196215,-2.825636 -0.562273,-4.14408 z" />
    <path
       style="fill:#000000;fill-opacity:0.04787233;stroke:none"
       id="path4004-0"
       inkscape:connector-curvature="0"
       d="m 17.56584,-1.1975565 c -1.865721,0 -3.654813,0.34419969 -5.31251,0.94887841 L 16.654571,12.648315 5.3509443,4.7474548 C 3.2847134,7.3793104 2.054861,10.695053 2.054861,14.294329 c 0,0.741363 0.054001,1.474477 0.1551097,2.188228 L 17.72095,13.597194 17.468895,13.384182 26.096878,1.3779696 C 23.647055,-0.2401325 20.719019,-1.1975565 17.56584,-1.1975565 Z m 15.220149,12.5290615 -15.51098,2.459338 0.05816,0.03873 -12.1955077,9.721158 c 2.8301333,3.77827 7.3466077,6.235486 12.4281717,6.235484 0.123867,0 0.245208,0.0029 0.368387,0 -0.184771,-6.433017 -0.446306,-15.647165 -0.46533,-15.859817 l 12.874113,9.120848 c 1.716622,-2.492941 2.733812,-5.502537 2.73381,-8.752916 0,-1.014211 -0.104012,-2.002691 -0.290831,-2.962822 z" />
    <path
       style="fill:#000000;fill-opacity:0.05851063;stroke:none"
       id="path3893-7"
       inkscape:connector-curvature="0"
       d="m 17.56584,-1.1975565 c -1.407834,0 -2.774504,0.1901879 -4.071633,0.54221581 L 17.41073,13.558463 24.720279,0.56464566 C 22.577865,-0.55217264 20.1471,-1.1975565 17.56584,-1.1975565 Z M 4.3621193,6.1610893 C 2.8995646,8.5244395 2.054861,11.315332 2.054861,14.294329 c 0,0.358322 0.014735,0.712775 0.038777,1.065068 L 17.488286,13.655288 4.3621193,6.1610883 Z M 32.979875,12.532126 17.507674,13.461639 30.866505,22.27265 c 1.403873,-2.329479 2.210317,-5.064636 2.210315,-7.978321 0,-0.594243 -0.03154,-1.185257 -0.09694,-1.762203 z M 17.585229,13.577829 6.6112114,25.274202 c 2.7034284,2.690606 6.4057076,4.371375 10.4892996,4.492647 l 0.484718,-16.18902 z" />
    <path
       style="fill:#000000;fill-opacity:0.06382979;stroke:none"
       id="path3893-7-5"
       inkscape:connector-curvature="0"
       d="m 17.56584,-1.1975565 c -0.850049,0 -1.688018,0.061878 -2.501144,0.1936485 L 17.41073,13.558463 23.18857,-0.132489 C 21.443768,-0.81230755 19.549851,-1.1975565 17.56584,-1.1975565 Z M 3.6447364,7.4585349 C 2.6629202,9.448494 2.0928297,11.68551 2.054861,14.042585 L 17.488285,13.655288 3.6447364,7.4585349 Z M 17.507674,13.46164 31.390001,21.323772 c 1.078125,-2.109461 1.68682,-4.501175 1.686819,-7.029443 0,-0.215032 -0.01064,-0.426125 -0.01939,-0.639041 L 17.507673,13.46164 Z m 0.07755,0.11619 -8.9769792,13.342385 c 2.1819982,1.548772 4.7674602,2.560547 7.5809912,2.807905 l 1.395988,-16.150291 z" />
    <path
       style="fill:#000000;fill-opacity:0.10106381;stroke:none"
       id="path3893"
       inkscape:connector-curvature="0"
       d="m 17.56584,-1.1975565 c -0.391206,0 -0.779338,0.010225 -1.163324,0.038728 L 17.41073,13.558462 21.327253,-0.73280162 C 20.122889,-1.0330306 18.862526,-1.197558 17.56584,-1.197558 Z M 3.0436859,8.8721693 C 2.5860268,10.093118 2.2676627,11.381692 2.1324159,12.725776 L 17.488285,13.655288 3.0436859,8.8721682 Z M 17.507674,13.46164 31.874718,20.278069 c 0.686797,-1.632973 1.097376,-3.407578 1.182712,-5.26724 L 17.507674,13.46164 Z m 0.07755,0.11619 -6.766666,14.659194 c 1.339246,0.64791 2.785027,1.115171 4.304298,1.355541 l 2.462368,-16.014736 z" />
    <path
       style="fill:#000000;fill-opacity:0.0851064;stroke:none"
       id="path3893-9"
       inkscape:connector-curvature="0"
       d="M 17.662783,-1.1975565 17.41073,13.558463 19.756765,-1.0426377 c -0.683248,-0.09655 -1.38532,-0.1505389 -2.093982,-0.1549188 z M 2.6753002,9.9566014 C 2.500354,10.55604 2.3506001,11.16932 2.2487482,11.796263 L 17.488285,13.655288 Z M 17.507674,13.46164 32.281881,19.154908 c 0.281394,-0.849527 0.509013,-1.726406 0.639829,-2.633621 z m 0.07755,0.11619 -5.739063,15.104588 c 0.347613,0.138673 0.707,0.273372 1.066381,0.387296 0.317936,0.09987 0.643075,0.191531 0.969435,0.271109 0.08419,0.02069 0.167336,0.03881 0.252053,0.05809 z" />
    <path
       style="color:#000000;display:inline;overflow:visible;visibility:visible;opacity:0.8;fill:none;stroke:url(#linearGradient3089);stroke-width:0.71582997;stroke-linecap:round;stroke-linejoin:round;stroke-miterlimit:4;stroke-dasharray:none;stroke-dashoffset:0;stroke-opacity:1;marker:none;enable-background:accumulate"
       id="path8655"
       d="m 32.522857,14.294438 c 0,8.250629 -6.696977,14.939132 -14.956828,14.939132 -8.2606058,0 -14.9572055,-6.688579 -14.9572055,-14.939132 0,-8.2502481 6.6965997,-14.93807307 14.9572055,-14.93807307 8.259851,0 14.956828,6.68782497 14.956828,14.93807307 l 0,0 z"
       inkscape:connector-curvature="0" />
    <path
       style="font-style:normal;font-variant:normal;font-weight:bold;font-stretch:normal;font-size:40px;line-height:100%;font-family:'URW Palladio L';-inkscape-font-specification:'URW Palladio L Bold';text-align:start;writing-mode:lr-tb;text-anchor:start;opacity:0.6;fill:#ffffff;fill-opacity:1;stroke:none"
       id="path3536-1"
       d="m 13.013727,12.952078 c 0.211862,0.575227 0.450326,1.041492 0.958281,0.403938 0.62975,-0.374224 2.739814,-2.014565 2.528676,-0.407814 -0.67564,2.973197 -1.498046,5.915127 -2.126866,8.897484 -0.657523,1.632974 0.835581,3.110068 2.394491,2.048136 1.657021,-0.682249 3.082882,-1.793518 4.539562,-2.81294 -0.198756,-0.486832 -0.331228,-1.186164 -0.880404,-0.549498 -0.7211,0.326894 -2.296059,1.868081 -2.588657,0.596947 0.605717,-3.219435 1.727972,-6.319693 2.445337,-9.513458 0.660161,-1.468487 -0.418013,-3.3239714 -2.031916,-2.1092205 -1.933496,0.8410635 -3.550407,2.2149765 -5.238504,3.4464255 z M 20.189557,2.1240184 C 18.216819,2.0194593 17.185402,5.1956499 19.060084,6.0648001 20.580998,6.6877742 22.237003,5.1298017 21.865449,3.5730287 21.750143,2.7624036 21.02146,2.0967494 20.189558,2.1240184 l -1e-6,0 z"
       inkscape:connector-curvature="0" />
    <path
       style="color:#000000;font-style:normal;font-variant:normal;font-weight:bold;font-stretch:normal;font-size:40px;line-height:100%;font-family:'URW Palladio L';-inkscape-font-specification:'URW Palladio L Bold';text-align:start;writing-mode:lr-tb;text-anchor:start;display:inline;overflow:visible;visibility:visible;opacity:0.6;fill:#000000;fill-opacity:1;fill-rule:nonzero;stroke:none;stroke-width:1;marker:none;enable-background:accumulate"
       id="path3536-1-5"
       d="m 13.013727,12.238518 c 0.211862,0.575226 0.450326,1.041491 0.958281,0.403938 0.62975,-0.374225 2.739814,-2.014566 2.528676,-0.407815 -0.67564,2.973197 -1.498046,5.915128 -2.126866,8.897484 -0.657523,1.632974 0.835581,3.110067 2.394491,2.048137 1.657021,-0.682251 3.082882,-1.793519 4.539562,-2.812941 -0.198756,-0.486832 -0.331228,-1.186164 -0.880404,-0.549498 -0.7211,0.326895 -2.296059,1.868082 -2.588657,0.596948 0.605717,-3.219435 1.727972,-6.319694 2.445337,-9.513459 C 20.944308,9.4328263 19.866134,7.5773412 18.252231,8.7920917 16.318735,9.6331551 14.701824,11.007067 13.013727,12.238518 Z M 20.189557,1.4104596 C 18.216819,1.3059004 17.185402,4.4820912 19.060084,5.3512413 20.580998,5.9742143 22.237003,4.4162428 21.865449,2.8594699 21.750143,2.0488448 21.02146,1.3831906 20.189558,1.4104596 l -1e-6,0 z"
       inkscape:connector-curvature="0" />
  </g>
</svg>
