<?xml version="1.0" encoding="UTF-8" standalone="no"?>
<!-- Created with Inkscape (http://www.inkscape.org/) -->

<svg
   xmlns:dc="http://purl.org/dc/elements/1.1/"
   xmlns:cc="http://creativecommons.org/ns#"
   xmlns:rdf="http://www.w3.org/1999/02/22-rdf-syntax-ns#"
   xmlns:svg="http://www.w3.org/2000/svg"
   xmlns="http://www.w3.org/2000/svg"
   xmlns:xlink="http://www.w3.org/1999/xlink"
   xmlns:sodipodi="http://sodipodi.sourceforge.net/DTD/sodipodi-0.dtd"
   xmlns:inkscape="http://www.inkscape.org/namespaces/inkscape"
   version="1.1"
   width="48"
   height="48"
   id="svg4248"
   inkscape:version="0.91 r"
   sodipodi:docname="system-run.svg">
  <sodipodi:namedview
     pagecolor="#ffffff"
     bordercolor="#666666"
     borderopacity="1"
     objecttolerance="10"
     gridtolerance="10"
     guidetolerance="10"
     inkscape:pageopacity="0"
     inkscape:pageshadow="2"
     inkscape:window-width="1309"
     inkscape:window-height="1359"
     id="namedview109"
     showgrid="false"
     inkscape:zoom="5.656854"
     inkscape:cx="9.6517715"
     inkscape:cy="4.6261508"
     inkscape:window-x="1081"
     inkscape:window-y="77"
     inkscape:window-maximized="0"
     inkscape:current-layer="svg4248"
     inkscape:snap-bbox="true"
     inkscape:bbox-paths="true"
     inkscape:bbox-nodes="true"
     inkscape:snap-bbox-edge-midpoints="false"
     inkscape:snap-global="true">
    <inkscape:grid
       type="xygrid"
       id="grid4005" />
  </sodipodi:namedview>
  <defs
     id="defs4250">
    <linearGradient
       id="linearGradient4011-4">
      <stop
         id="stop4013-8"
         style="stop-color:#ffffff;stop-opacity:1"
         offset="0" />
      <stop
         id="stop4015-5"
         style="stop-color:#ffffff;stop-opacity:0.23529412"
         offset="0.507761" />
      <stop
         id="stop4017-6"
         style="stop-color:#ffffff;stop-opacity:0.15686275"
         offset="0.83456558" />
      <stop
         id="stop4019-1"
         style="stop-color:#ffffff;stop-opacity:0.39215687"
         offset="1" />
    </linearGradient>
    <linearGradient
       x1="71.204407"
       y1="6.2375584"
       x2="71.204407"
       y2="44.340794"
       id="linearGradient3089"
       xlink:href="#linearGradient4011-4"
       gradientUnits="userSpaceOnUse"
       gradientTransform="matrix(1.1323391,0,0,1.1189188,-57.226665,-4.906731)" />
    <linearGradient
       id="linearGradient3820-7-2-2">
      <stop
         id="stop3822-2-6-36"
         style="stop-color:#3d3d3d;stop-opacity:1"
         offset="0" />
      <stop
         id="stop3864-8-7-6"
         style="stop-color:#686868;stop-opacity:0.49803922"
         offset="0.5" />
      <stop
         id="stop3824-1-2-4"
         style="stop-color:#686868;stop-opacity:0"
         offset="1" />
    </linearGradient>
    <radialGradient
       cx="99.157013"
       cy="186.17059"
       r="62.769119"
       fx="99.157013"
       fy="186.17059"
       id="radialGradient3315"
       xlink:href="#linearGradient3820-7-2-2"
       gradientUnits="userSpaceOnUse"
       gradientTransform="matrix(0.27193253,0,0,0.08549854,-2.9640156,26.714434)" />
    <linearGradient
       inkscape:collect="always"
       xlink:href="#linearGradient4215-4"
       id="linearGradient3163-1"
       gradientUnits="userSpaceOnUse"
       gradientTransform="matrix(0.89104604,0,0,0.88048552,-4.5134734,-6.4705462)"
       x1="38.976662"
       y1="59.967686"
       x2="38.976662"
       y2="8.0928917" />
    <linearGradient
       id="linearGradient4215-4">
      <stop
         offset="0"
         style="stop-color:#dcdcdc;stop-opacity:1"
         id="stop4217-9" />
      <stop
         offset="1"
         style="stop-color:#f0f0f0;stop-opacity:1"
         id="stop4219-7" />
    </linearGradient>
    <linearGradient
       id="outerBackgroundGradient">
      <stop
         id="stop3864-8-6"
         offset="0"
         style="stop-color:#a5a5a5;stop-opacity:1;" />
      <stop
         id="stop3866-9-1"
         offset="1"
         style="stop-color:#d1d1d1;stop-opacity:1;" />
    </linearGradient>
    <linearGradient
       gradientTransform="matrix(0.06666667,0,0,0.06666667,414.4,137.33333)"
       y2="40.00005"
       x2="264"
       y1="280.00003"
       x1="264"
       gradientUnits="userSpaceOnUse"
       id="linearGradient4097"
       xlink:href="#outerBackgroundGradient"
       inkscape:collect="always" />
    <linearGradient
       y2="28.571428"
       x2="286.85715"
       y1="302.85715"
       x1="286.85715"
       gradientTransform="matrix(0.0875,0,0,0.0875,414.9,97.5)"
       gradientUnits="userSpaceOnUse"
       id="linearGradient4101"
       xlink:href="#outerBackgroundGradient"
       inkscape:collect="always" />
    <linearGradient
       y2="31.61907"
       x2="283.80957"
       y1="299.80954"
       x1="283.80957"
       gradientTransform="matrix(0.11931818,0,0,0.11931818,414.13636,48.22727)"
       gradientUnits="userSpaceOnUse"
       id="linearGradient4153"
       xlink:href="#outerBackgroundGradient"
       inkscape:collect="always" />
    <linearGradient
       y2="22.857315"
       x2="281.14291"
       y1="297.14304"
       x1="281.14291"
       gradientTransform="matrix(0.175,0,0,-0.175,286.79999,-215.99997)"
       gradientUnits="userSpaceOnUse"
       id="linearGradient4869"
       xlink:href="#outerBackgroundGradient"
       inkscape:collect="always" />
    <clipPath
       id="clipPath4891"
       clipPathUnits="userSpaceOnUse">
      <rect
         transform="matrix(0,1,-1,0,0,0)"
         style="color:#bebebe;display:inline;overflow:visible;visibility:visible;fill:url(#linearGradient4895);fill-opacity:1;fill-rule:nonzero;stroke:none;stroke-width:0;marker:none;enable-background:accumulate"
         id="rect4893"
         width="42"
         height="42"
         x="307"
         y="223"
         ry="9" />
    </clipPath>
    <linearGradient
       y2="40.000172"
       x2="144.00006"
       y1="280.00018"
       x1="144.00006"
       gradientTransform="matrix(0.175,0,0,0.175,302.79999,215.99997)"
       gradientUnits="userSpaceOnUse"
       id="linearGradient4895"
       xlink:href="#outerBackgroundGradient"
       inkscape:collect="always" />
    <clipPath
       id="clipPath4044"
       clipPathUnits="userSpaceOnUse">
      <rect
         style="color:#bebebe;display:inline;overflow:visible;visibility:visible;fill:url(#linearGradient4048);fill-opacity:1;fill-rule:nonzero;stroke:none;stroke-width:0;marker:none;enable-background:accumulate"
         id="rect4046"
         width="22"
         height="22"
         x="433"
         y="85"
         ry="4" />
    </clipPath>
    <linearGradient
       y2="40.000046"
       x2="149.71428"
       y1="291.42862"
       x1="149.71428"
       gradientTransform="matrix(0.0875,0,0,0.0875,430.9,81.499996)"
       gradientUnits="userSpaceOnUse"
       id="linearGradient4048"
       xlink:href="#outerBackgroundGradient"
       inkscape:collect="always" />
    <clipPath
       id="clipPath4089"
       clipPathUnits="userSpaceOnUse">
      <rect
         ry="6"
         y="37"
         x="433"
         height="30"
         width="30"
         id="rect4091"
         style="color:#bebebe;display:inline;overflow:visible;visibility:visible;fill:url(#linearGradient4093);fill-opacity:1;fill-rule:nonzero;stroke:none;stroke-width:0;marker:none;enable-background:accumulate" />
    </clipPath>
    <linearGradient
       y2="40.00005"
       x2="149.71432"
       y1="291.42862"
       x1="149.71432"
       gradientTransform="matrix(0.11931818,0,0,0.11931818,430.13636,32.227267)"
       gradientUnits="userSpaceOnUse"
       id="linearGradient4093"
       xlink:href="#outerBackgroundGradient"
       inkscape:collect="always" />
    <clipPath
       id="clipPath3855"
       clipPathUnits="userSpaceOnUse">
      <rect
         transform="matrix(0,1,-1,0,0,0)"
         ry="3"
         y="212"
         x="304"
         height="16"
         width="16"
         id="rect3857"
         style="color:#bebebe;display:inline;overflow:visible;visibility:visible;fill:url(#linearGradient3859);fill-opacity:1;fill-rule:nonzero;stroke:none;stroke-width:0;marker:none;enable-background:accumulate" />
    </clipPath>
    <linearGradient
       y2="40.00005"
       x2="144"
       y1="280.00003"
       x1="144"
       gradientTransform="matrix(0.06666667,0,0,0.06666667,302.4,209.33333)"
       gradientUnits="userSpaceOnUse"
       id="linearGradient3859"
       xlink:href="#outerBackgroundGradient"
       inkscape:collect="always" />
    <clipPath
       id="clipPath3862"
       clipPathUnits="userSpaceOnUse">
      <rect
         style="color:#bebebe;display:inline;overflow:visible;visibility:visible;fill:url(#linearGradient3866);fill-opacity:1;fill-rule:nonzero;stroke:none;stroke-width:0;marker:none;enable-background:accumulate"
         id="rect3864"
         width="220"
         height="220"
         x="34"
         y="46"
         ry="50" />
    </clipPath>
    <linearGradient
       y2="40"
       x2="144"
       y1="280"
       x1="144"
       gradientTransform="translate(0,-4)"
       gradientUnits="userSpaceOnUse"
       id="linearGradient3866"
       xlink:href="#outerBackgroundGradient"
       inkscape:collect="always" />
    <linearGradient
       y2="32"
       x2="272"
       y1="288"
       x1="272"
       gradientTransform="translate(0,-4)"
       gradientUnits="userSpaceOnUse"
       id="linearGradient3876"
       xlink:href="#outerBackgroundGradient"
       inkscape:collect="always" />
    <clipPath
       id="clipPath4187"
       clipPathUnits="userSpaceOnUse">
      <rect
         style="color:#bebebe;display:inline;overflow:visible;visibility:visible;fill:url(#linearGradient4191);fill-opacity:1;fill-rule:nonzero;stroke:none;stroke-width:0;marker:none;enable-background:accumulate"
         id="rect4189"
         width="60"
         height="60"
         x="290"
         y="142"
         ry="12.5" />
    </clipPath>
    <linearGradient
       y2="140"
       x2="352"
       y1="204"
       x1="352"
       gradientUnits="userSpaceOnUse"
       id="linearGradient4191"
       xlink:href="#outerBackgroundGradient"
       inkscape:collect="always" />
    <linearGradient
       y2="28"
       x2="384"
       y1="124"
       x1="384"
       gradientUnits="userSpaceOnUse"
       id="linearGradient4197"
       xlink:href="#outerBackgroundGradient"
       inkscape:collect="always" />
    <clipPath
       id="clipPath4346"
       clipPathUnits="userSpaceOnUse">
      <rect
         ry="18"
         y="32"
         x="292"
         height="88"
         width="88"
         id="rect4348"
         style="color:#bebebe;display:inline;overflow:visible;visibility:visible;fill:url(#linearGradient4197);fill-opacity:1;fill-rule:nonzero;stroke:none;stroke-width:0;marker:none;enable-background:accumulate" />
    </clipPath>
    <clipPath
       id="clipPath3871"
       clipPathUnits="userSpaceOnUse">
      <rect
         style="color:#bebebe;display:inline;overflow:visible;visibility:visible;fill:url(#linearGradient4101);fill-opacity:1;fill-rule:nonzero;stroke:none;stroke-width:0;marker:none;enable-background:accumulate"
         id="rect3873"
         width="22"
         height="22"
         x="417"
         y="101"
         ry="5" />
    </clipPath>
    <clipPath
       id="clipPath3881"
       clipPathUnits="userSpaceOnUse">
      <rect
         ry="7"
         y="53"
         x="417"
         height="30"
         width="30"
         id="rect3883"
         style="color:#bebebe;display:inline;overflow:visible;visibility:visible;fill:url(#linearGradient4153);fill-opacity:1;fill-rule:nonzero;stroke:none;stroke-width:0;marker:none;enable-background:accumulate" />
    </clipPath>
    <linearGradient
       gradientTransform="matrix(0,-1,1,0,316,540)"
       gradientUnits="userSpaceOnUse"
       y2="112"
       x2="438"
       y1="112"
       x1="418"
       id="linearGradient4258"
       xlink:href="#outerBackgroundGradient"
       inkscape:collect="always" />
    <linearGradient
       y2="40.000008"
       x2="144"
       y1="280"
       x1="144"
       gradientTransform="matrix(0.375,0,0,0.375,14,172)"
       gradientUnits="userSpaceOnUse"
       id="linearGradient4865"
       xlink:href="#outerBackgroundGradient-1"
       inkscape:collect="always" />
    <linearGradient
       id="outerBackgroundGradient-1">
      <stop
         id="stop3864-8-6-2"
         offset="0"
         style="stop-color:#989898;stop-opacity:1;" />
      <stop
         id="stop3866-9-1-5"
         offset="1"
         style="stop-color:#c3c3c3;stop-opacity:1;" />
    </linearGradient>
    <clipPath
       id="clipPath4610"
       clipPathUnits="userSpaceOnUse">
      <path
         inkscape:connector-curvature="0"
         style="color:#bebebe;display:inline;overflow:visible;visibility:visible;fill:url(#linearGradient4614);fill-opacity:1;fill-rule:nonzero;stroke:none;stroke-width:2;marker:none;enable-background:accumulate"
         d="m 75.448164,-5.3337819 c 12.658277,0 22.841991,10.1837123 22.841991,22.8419899 l 0,55.374522 c 0,12.658279 -10.183714,22.841991 -22.841991,22.841991 l -55.374521,0 c -12.6582793,0 -22.8419907,-10.183712 -22.8419907,-22.841991 l 0,-55.374522 c 0,-12.6582776 10.1837114,-22.8419899 22.8419907,-22.8419899 l 55.374521,0 z"
         id="path4612" />
    </clipPath>
    <linearGradient
       y2="156"
       x2="253"
       y1="156"
       x1="35"
       gradientTransform="matrix(0,-0.46145435,-0.46145435,0,119.74778,111.6449)"
       gradientUnits="userSpaceOnUse"
       id="linearGradient4614"
       xlink:href="#outerBackgroundGradient"
       inkscape:collect="always" />
    <linearGradient
       y2="8.0928917"
       x2="38.976662"
       y1="59.967686"
       x1="38.976662"
       gradientTransform="matrix(0.80392158,0,0,0.80392158,-1.72549,-2.3658945)"
       gradientUnits="userSpaceOnUse"
       id="linearGradient3024"
       xlink:href="#linearGradient4215-4"
       inkscape:collect="always" />
    <linearGradient
       inkscape:collect="always"
       xlink:href="#linearGradient4215-4"
       id="linearGradient3849"
       gradientUnits="userSpaceOnUse"
       gradientTransform="matrix(0.80392158,0,0,0.80392158,664.41073,262.76717)"
       x1="38.976662"
       y1="59.967686"
       x2="38.976662"
       y2="8.0928917" />
    <clipPath
       id="clipPath4806"
       clipPathUnits="userSpaceOnUse">
      <path
         inkscape:connector-curvature="0"
         style="color:#bebebe;display:inline;overflow:visible;visibility:visible;fill:#bf5454;fill-opacity:1;fill-rule:nonzero;stroke:none;stroke-width:2;marker:none;enable-background:accumulate"
         d="m 543.90196,-171.40732 c -27.43127,0 -49.5,22.06873 -49.5,49.5 l 0,120 c 0,27.43127 22.06873,49.5 49.5,49.5 l 120,0 c 27.43127,0 49.5,-22.06873 49.5,-49.5 l 0,-120 c 0,-27.43127 -22.06873,-49.5 -49.5,-49.5 l -120,0 z"
         id="path4808" />
    </clipPath>
    <clipPath
       id="clipPath4812"
       clipPathUnits="userSpaceOnUse">
      <path
         inkscape:connector-curvature="0"
         style="color:#bebebe;display:inline;overflow:visible;visibility:visible;fill:#bf5454;fill-opacity:1;fill-rule:nonzero;stroke:none;stroke-width:2;marker:none;enable-background:accumulate"
         d="m 547.65198,-156.00108 c -22.10302,0 -39.84375,17.74073 -39.84375,39.84375 l 0,112.5000018 c 0,22.1030162 17.74073,39.8437502 39.84375,39.8437502 l 112.5,0 c 22.10302,0 39.84375,-17.740734 39.84375,-39.8437502 l 0,-112.5000018 c 0,-22.10302 -17.74073,-39.84375 -39.84375,-39.84375 l -112.5,0 z"
         id="path4814" />
    </clipPath>
    <clipPath
       id="clipPath4840"
       clipPathUnits="userSpaceOnUse">
      <path
         inkscape:connector-curvature="0"
         style="color:#bebebe;display:inline;overflow:visible;visibility:visible;fill:#bf5454;fill-opacity:1;fill-rule:nonzero;stroke:none;stroke-width:2;marker:none;enable-background:accumulate"
         d="m 538.90196,-168.65732 c -24.25637,0 -43.75,19.49363 -43.75,43.75 l 0,130.0000025 c 0,24.2563755 19.49363,43.7500005 43.75,43.7500005 l 130,0 c 24.25637,0 43.75,-19.493625 43.75,-43.7500005 l 0,-130.0000025 c 0,-24.25637 -19.49363,-43.75 -43.75,-43.75 l -130,0 z"
         id="path4842" />
    </clipPath>
    <clipPath
       id="clipPath4888"
       clipPathUnits="userSpaceOnUse">
      <path
         inkscape:connector-curvature="0"
         style="color:#bebebe;display:inline;overflow:visible;visibility:visible;fill:#bf5454;fill-opacity:1;fill-rule:nonzero;stroke:none;stroke-width:2;marker:none;enable-background:accumulate"
         d="m 541.402,-166.15737 c -17.305,0 -31.25,13.945 -31.25,31.25 l 0,124.999995 c 0,17.305 13.945,31.25 31.25,31.25 l 125,0 c 17.305,0 31.25,-13.945 31.25,-31.25 l 0,-124.999995 c 0,-17.305 -13.945,-31.25 -31.25,-31.25 l -125,0 z"
         id="path4890" />
    </clipPath>
    <clipPath
       id="clipPath4894"
       clipPathUnits="userSpaceOnUse">
      <path
         inkscape:connector-curvature="0"
         style="color:#bebebe;display:inline;overflow:visible;visibility:visible;fill:#bf5454;fill-opacity:1;fill-rule:nonzero;stroke:none;stroke-width:2;marker:none;enable-background:accumulate"
         d="m 543.902,-164.9073 c -24.9699,0 -45,20.0301 -45,45 l 0,120 c 0,24.9699 20.0301,45 45,45 l 120,0 c 24.9699,0 45,-20.0301 45,-45 l 0,-120 c 0,-24.9699 -20.0301,-45 -45,-45 l -120,0 z"
         id="path4896" />
    </clipPath>
    <clipPath
       id="clipPath4900"
       clipPathUnits="userSpaceOnUse">
      <path
         inkscape:connector-curvature="0"
         style="color:#bebebe;display:inline;overflow:visible;visibility:visible;fill:#bf5454;fill-opacity:1;fill-rule:nonzero;stroke:none;stroke-width:2;marker:none;enable-background:accumulate"
         d="m 543.90196,-164.90732 c -27.04905,0 -48.75,21.70098 -48.75,48.75 l 0,120.0000051 c 0,27.0490209 21.70095,48.7500009 48.75,48.7500009 l 120.00001,0 c 27.04905,0 48.75,-21.70098 48.75,-48.7500009 l 0,-120.0000051 c 0,-27.04902 -21.70095,-48.75 -48.75,-48.75 l -120.00001,0 z"
         id="path4902" />
    </clipPath>
    <clipPath
       id="clipPath4906"
       clipPathUnits="userSpaceOnUse">
      <path
         inkscape:connector-curvature="0"
         style="color:#bebebe;display:inline;overflow:visible;visibility:visible;fill:#bf5454;fill-opacity:1;fill-rule:nonzero;stroke:none;stroke-width:2;marker:none;enable-background:accumulate"
         d="m 537.05819,-167.62264 c -24.95632,0 -45,20.04368 -45,45 l 0,131.2500024 c 0,24.9563246 20.04368,44.9999996 45,44.9999996 l 131.25,0 c 24.95633,0 45,-20.043675 45,-44.9999996 l 0,-131.2500024 c 0,-24.95632 -20.04367,-45 -45,-45 l -131.25,0 z"
         id="path4908" />
    </clipPath>
    <linearGradient
       x1="20.758585"
       y1="-19.425636"
       x2="20.758585"
       y2="45.017357"
       id="linearGradient3937"
       xlink:href="#linearGradient4281-6"
       gradientUnits="userSpaceOnUse"
       gradientTransform="matrix(2.2006919,0,0,2.1948014,47.526634,75.927703)" />
    <linearGradient
       id="linearGradient4281-6">
      <stop
         id="stop4283-9"
         style="stop-color:#1e1e1e;stop-opacity:1"
         offset="0" />
      <stop
         id="stop4285-8"
         style="stop-color:#505050;stop-opacity:1"
         offset="1" />
    </linearGradient>
    <clipPath
       id="clipPath3954">
      <path
         d="m 57.71875,18 c -0.09664,-0.01425 -0.212512,0.0045 -0.3125,0.03125 l -2.78125,0.75 c -0.399955,0.107167 -0.640249,0.53071 -0.53125,0.9375 l 0.375,1.4375 c -0.664087,0.382164 -1.284715,0.843857 -1.8125,1.375 l -1.28125,-0.75 c -0.18236,-0.105287 -0.375956,-0.142042 -0.5625,-0.09375 -0.186559,0.04823 -0.365236,0.164454 -0.46875,0.34375 l -1.4375,2.53125 c -0.207029,0.358586 -0.08344,0.820676 0.28125,1.03125 l 1.28125,0.75 c -0.196116,0.72264 -0.282329,1.4838 -0.28125,2.25 l -1.4375,0.375 c -0.406788,0.108999 -0.669667,0.506297 -0.5625,0.90625 l 0.75,2.8125 c 0.107167,0.399952 0.530712,0.640248 0.9375,0.53125 l 1.4375,-0.375 c 0.382168,0.664087 0.843857,1.253467 1.375,1.78125 l -0.71875,1.3125 c -0.210569,0.364715 -0.108607,0.792973 0.25,1 L 54.75,38.40625 c 0.358585,0.207031 0.789431,0.08346 1,-0.28125 l 0.75,-1.3125 c 0.722641,0.196115 1.483802,0.313584 2.25,0.3125 l 0.375,1.4375 c 0.108998,0.406788 0.537545,0.638418 0.9375,0.53125 l 2.8125,-0.75 c 0.399953,-0.107166 0.608999,-0.530713 0.5,-0.9375 L 63,36 c 0.664087,-0.382164 1.284717,-0.875105 1.8125,-1.40625 l 1.28125,0.75 c 0.364716,0.210569 0.824219,0.108591 1.03125,-0.25 l 1.46875,-2.53125 c 0.207028,-0.358587 0.05219,-0.820674 -0.3125,-1.03125 L 67,30.8125 c 0.196115,-0.722638 0.313576,-1.483801 0.3125,-2.25 l 1.40625,-0.40625 c 0.406784,-0.108999 0.669667,-0.506297 0.5625,-0.90625 l -0.75,-2.8125 c -0.107168,-0.399951 -0.530715,-0.640247 -0.9375,-0.53125 l -1.4375,0.375 C 65.774096,23.61716 65.312393,23.027781 64.78125,22.5 l 0.75,-1.28125 C 65.741818,20.85403 65.608612,20.394522 65.25,20.1875 l -2.53125,-1.46875 c -0.35859,-0.20703 -0.78943,-0.08346 -1,0.28125 l -0.75,1.3125 C 60.246106,20.116385 59.484949,19.998916 58.71875,20 l -0.375,-1.4375 C 58.262001,18.257408 58.008674,18.042765 57.71875,18 Z m 0.84375,7.375 c 1.476453,-0.08838 2.852364,0.891007 3.25,2.375 0.454438,1.695993 -0.554006,3.42056 -2.25,3.875 -1.69599,0.454438 -3.45181,-0.554007 -3.90625,-2.25 -0.45444,-1.695991 0.554011,-3.42056 2.25,-3.875 0.211999,-0.05681 0.445328,-0.112374 0.65625,-0.125 z M 43.25,35.46875 c -0.787101,0 -1.4375,0.636951 -1.4375,1.4375 l 0,2.84375 c -1.40738,0.37498 -2.738343,0.940659 -3.96875,1.65625 L 35.8125,39.375 c -0.28304,-0.283037 -0.60247,-0.403146 -0.96875,-0.40625 -0.366278,-0.0032 -0.752972,0.127971 -1.03125,0.40625 l -3.90625,3.90625 c -0.556555,0.55656 -0.534772,1.433926 0.03125,2 l 2,2.03125 c -0.71559,1.230403 -1.281261,2.561367 -1.65625,3.96875 l -2.8125,0 C 26.668202,51.28125 26,51.931654 26,52.71875 l 0,5.5 c 0,0.787096 0.668202,1.4375 1.46875,1.4375 l 2.8125,0 c 0.374989,1.407384 0.94066,2.738347 1.65625,3.96875 l -2,2 c -0.566072,0.566073 -0.587856,1.474688 -0.03125,2.03125 l 3.90625,3.90625 c 0.556555,0.55656 1.433928,0.534821 2,-0.03125 l 2.03125,-2 c 1.230407,0.715594 2.56137,1.281269 3.96875,1.65625 l 0,2.8125 c 0,0.800549 0.650399,1.46875 1.4375,1.46875 l 5.5,0 c 0.787093,0 1.4375,-0.668201 1.4375,-1.46875 l 0,-2.8125 c 1.40738,-0.374981 2.738343,-0.940656 3.96875,-1.65625 l 2.03125,2 c 0.566072,0.566073 1.443438,0.58781 2,0.03125 l 3.90625,-3.90625 C 62.650305,67.099688 62.628521,66.191073 62.0625,65.625 l -2,-2 c 0.715588,-1.230403 1.281268,-2.561366 1.65625,-3.96875 l 2.8125,0 C 65.331792,59.65625 66,59.005847 66,58.21875 l 0,-5.5 c 0,-0.787094 -0.668208,-1.4375 -1.46875,-1.4375 l -2.8125,0 C 61.343772,49.873867 60.778089,48.542903 60.0625,47.3125 l 2,-2.03125 c 0.566071,-0.566074 0.587863,-1.44344 0.03125,-2 L 58.1875,39.375 c -0.556564,-0.556561 -1.433929,-0.566074 -2,0 l -2.03125,2.03125 C 52.925838,40.690655 51.594881,40.12498 50.1875,39.75 l 0,-2.84375 c 0,-0.800549 -0.650406,-1.4375 -1.4375,-1.4375 l -5.5,0 z M 46,49.40625 c 3.33767,0 6.03125,2.724835 6.03125,6.0625 0,3.337667 -2.69358,6.03125 -6.03125,6.03125 -3.337662,0 -6.03125,-2.693583 -6.03125,-6.03125 0,-3.337665 2.693588,-6.0625 6.03125,-6.0625 z"
         inkscape:connector-curvature="0"
         id="path3956"
         style="display:block;overflow:visible;visibility:visible;fill:#ff00ff;fill-opacity:1;fill-rule:nonzero;stroke:none;stroke-width:1;marker:none;enable-background:accumulate" />
    </clipPath>
    <filter
       style="color-interpolation-filters:sRGB"
       id="filter3958">
      <feGaussianBlur
         id="feGaussianBlur3960"
         stdDeviation="0.75584188" />
    </filter>
  </defs>
  <metadata
     id="metadata4253">
    <rdf:RDF>
      <cc:Work
         rdf:about="">
        <dc:format>image/svg+xml</dc:format>
        <dc:type
           rdf:resource="http://purl.org/dc/dcmitype/StillImage" />
        <dc:title></dc:title>
      </cc:Work>
    </rdf:RDF>
  </metadata>
  <path
     d="m 41.06897,42.63195 a 17.068967,5.3666668 0 1 1 -34.1379327,0 17.068967,5.3666668 0 1 1 34.1379327,0 z"
     id="path3818-0-2"
     style="fill:url(#radialGradient3315);fill-opacity:1;stroke:none"
     inkscape:connector-curvature="0" />
  <path
     d="m 24.000004,1.232834 c -12.414723,0 -22.5000039,9.965743 -22.5000039,22.233331 0,12.267591 10.0852809,22.233341 22.5000039,22.233338 12.414721,0 22.50001,-9.965747 22.499999,-22.233338 0,-12.267588 -10.085278,-22.233331 -22.499999,-22.233331 z"
     id="path2555"
     style="color:#000000;display:inline;overflow:visible;visibility:visible;fill:url(#linearGradient3163-1);fill-opacity:1;fill-rule:nonzero;stroke:none;stroke-width:0.71428573;stroke-linecap:round;stroke-linejoin:round;stroke-miterlimit:4;stroke-dasharray:none;stroke-dashoffset:0;stroke-opacity:1;marker:none;enable-background:accumulate"
     inkscape:connector-curvature="0" />
  <path
     d="M 24.000003,1.232834 C 11.585279,1.232834 1.5,11.198577 1.5,23.466166 c 0,12.267588 10.085279,22.233339 22.500003,22.233336 12.414718,0 22.50001,-9.965748 22.499998,-22.233336 0,-12.267589 -10.08528,-22.233332 -22.499998,-22.233332 z"
     id="path2555-6"
     style="color:#000000;display:inline;overflow:visible;visibility:visible;opacity:0.5;fill:#000000;fill-opacity:0;fill-rule:nonzero;stroke:#000000;stroke-width:1;stroke-linecap:round;stroke-linejoin:round;stroke-miterlimit:4;stroke-dasharray:none;stroke-dashoffset:0;stroke-opacity:1;marker:none;enable-background:accumulate"
     inkscape:connector-curvature="0" />
  <path
     d="m 24.000001,1.998616 c -3.37124,0 -6.574019,0.76221 -9.422843,2.119834 L 22.72371,21.184447 8.4943984,8.411781 c -3.8528922,3.874886 -6.2185347,9.199668 -6.2185347,15.053499 0,1.547808 0.1729413,3.052612 0.4887932,4.508001 L 24.217243,22.49928 23.864225,22.204114 37.713364,6.828614 C 33.972458,3.814822 29.196385,1.998616 24.000001,1.998616 Z m 20.93664,15.724332 -21.343968,5.044667 0.08147,0.05367 -18.5469835,11.269999 c 3.7433222,6.47437 10.7955005,10.84067 18.8728435,10.840667 0.612189,0 1.219944,-0.03128 1.819398,-0.0805 -0.780858,-8.840116 -1.928414,-21.60009 -1.955172,-21.896002 l 17.243534,13.711835 c 2.88607,-3.644261 4.616382,-8.222055 4.616379,-13.202003 0,-1.986946 -0.274812,-3.915403 -0.7875,-5.742334 z"
     inkscape:connector-curvature="0"
     id="path4004"
     style="fill:#000000;fill-opacity:0.04255317;stroke:none" />
  <path
     d="m 24.000001,1.998616 c -2.613062,0 -5.118803,0.476948 -7.440516,1.314834 L 22.72371,21.184447 6.8922435,10.236448 c -2.8938914,3.646888 -4.6163798,8.241418 -4.6163798,13.228832 0,1.027288 0.075631,2.043143 0.2172415,3.032168 L 24.217243,22.49928 23.864225,22.204114 35.948278,5.56745 C 32.51714,3.325292 28.416235,1.998616 24.000001,1.998616 Z m 21.316812,17.361163 -21.72414,3.407836 0.08147,0.05367 -17.080608,13.470332 c 3.963786,5.23544 10.289404,8.640334 17.406465,8.640331 0.173485,0 0.34343,0.004 0.51595,0 C 24.257165,36.0179 23.890871,23.250116 23.864225,22.95545 L 41.89526,35.593949 c 2.404241,-3.454396 3.828882,-7.624708 3.828879,-12.128667 0,-1.405364 -0.145675,-2.775071 -0.407327,-4.105499 z"
     inkscape:connector-curvature="0"
     id="path4004-0"
     style="fill:#000000;fill-opacity:0.04787233;stroke:none" />
  <path
     d="m 24.000001,1.998616 c -1.971762,0 -3.885874,0.263538 -5.702586,0.751334 L 23.78276,22.445614 34.020261,4.44045 C 31.01967,2.892907 27.615224,1.998616 24.000001,1.998616 Z M 5.5073294,12.195281 c -2.0484032,3.274828 -3.2314657,7.142087 -3.2314657,11.269999 0,0.496518 0.020638,0.987673 0.05431,1.475835 L 23.891383,22.57978 5.5073294,12.19528 Z m 40.0810346,8.828166 -21.669828,1.288 18.709914,12.209167 c 1.966217,-3.227892 3.095694,-7.017922 3.095691,-11.055334 0,-0.823424 -0.04416,-1.642376 -0.135776,-2.441833 z m -21.561207,1.449 L 8.6573297,38.67978 c 3.7863283,3.728297 8.9716113,6.057291 14.6909483,6.225335 l 0.678879,-22.432668 z"
     inkscape:connector-curvature="0"
     id="path3893-7"
     style="fill:#000000;fill-opacity:0.05851063;stroke:none" />
  <path
     d="m 24.000001,1.998616 c -1.190549,0 -2.364179,0.08574 -3.503016,0.268334 L 23.78276,22.445614 31.875002,3.47445 C 29.431294,2.532445 26.778738,1.998616 24.000001,1.998616 Z M 4.5025881,13.993115 c -1.3750977,2.75743 -2.1735467,5.8572 -2.2267244,9.123332 L 23.89138,22.57978 4.5025881,13.993115 Z m 19.4159479,8.318334 19.443105,10.894333 c 1.509984,-2.92302 2.362501,-6.23715 2.3625,-9.740502 0,-0.297961 -0.0149,-0.590468 -0.02716,-0.8855 L 23.918534,22.311449 Z m 0.108621,0.160999 -12.572845,18.488166 c 3.056032,2.14609 6.67714,3.548078 10.617672,3.890835 l 1.955173,-22.379002 z"
     inkscape:connector-curvature="0"
     id="path3893-7-5"
     style="fill:#000000;fill-opacity:0.06382979;stroke:none" />
  <path
     d="m 24.000001,1.998616 c -0.547908,0 -1.091514,0.01417 -1.62931,0.05367 L 23.78276,22.445617 29.268105,2.64262 C 27.581316,2.226601 25.816094,1.998619 24.000001,1.998619 Z M 3.6607776,15.951949 c -0.6409815,1.691834 -1.086871,3.477374 -1.2762932,5.339833 L 23.89138,22.57978 3.6607776,15.951946 Z m 20.2577584,6.3595 20.121983,9.445332 c 0.961903,-2.262766 1.536945,-4.721785 1.656465,-7.298666 L 23.918536,22.311449 Z m 0.108621,0.160999 -9.477156,20.312832 c 1.875701,0.89779 3.900612,1.545262 6.028449,1.878335 l 3.448707,-22.191168 z"
     inkscape:connector-curvature="0"
     id="path3893"
     style="fill:#000000;fill-opacity:0.10106381;stroke:none" />
  <path
     d="M 24.135778,1.998616 23.78276,22.445614 27.068536,2.213283 C 26.111602,2.079496 25.128304,2.004685 24.135778,1.998616 Z M 3.1448293,17.454614 C 2.8998059,18.28524 2.6900655,19.135044 2.5474155,20.003781 L 23.89138,22.57978 Z m 20.7737067,4.856835 20.692241,7.888999 c 0.394112,-1.177165 0.712906,-2.392232 0.896123,-3.649334 z m 0.108621,0.160999 -8.037932,20.930001 c 0.486855,0.192155 0.9902,0.378803 1.493536,0.536666 0.445291,0.138384 0.900669,0.265399 1.357757,0.375667 0.117916,0.02866 0.234365,0.05379 0.353017,0.0805 z"
     inkscape:connector-curvature="0"
     id="path3893-9"
     style="fill:#000000;fill-opacity:0.0851064;stroke:none" />
  <path
     d="m 44.948277,23.465433 c 0,11.432665 -9.379553,20.700734 -20.948011,20.700734 -11.569518,0 -20.9485419,-9.268175 -20.9485419,-20.700734 0,-11.432135 9.3790239,-20.699263 20.9485419,-20.699263 11.568458,0 20.948011,9.267128 20.948011,20.699263 l 0,0 z"
     id="path8655"
     style="color:#000000;display:inline;overflow:visible;visibility:visible;opacity:0.8;fill:none;stroke:url(#linearGradient3089);stroke-width:1;stroke-linecap:round;stroke-linejoin:round;stroke-miterlimit:4;stroke-dasharray:none;stroke-dashoffset:0;stroke-opacity:1;marker:none;enable-background:accumulate"
     inkscape:connector-curvature="0" />
  <g
     inkscape:groupmode="layer"
     id="layer1"
     inkscape:label="Layer 1"
     transform="translate(0,16)" />
  <g
     id="layer6"
     transform="matrix(0.42269886,0,0,0.42383333,3.5850221,1.889618)"
     style="opacity:0.8">
    <path
       d="m 57.71875,18 c -0.09664,-0.01425 -0.212512,0.0045 -0.3125,0.03125 l -2.78125,0.75 c -0.399955,0.107167 -0.640249,0.53071 -0.53125,0.9375 l 0.375,1.4375 c -0.664087,0.382164 -1.284715,0.843857 -1.8125,1.375 l -1.28125,-0.75 c -0.18236,-0.105287 -0.375956,-0.142042 -0.5625,-0.09375 -0.186559,0.04823 -0.365236,0.164454 -0.46875,0.34375 l -1.4375,2.53125 c -0.207029,0.358586 -0.08344,0.820676 0.28125,1.03125 l 1.28125,0.75 c -0.196116,0.72264 -0.282329,1.4838 -0.28125,2.25 l -1.4375,0.375 c -0.406788,0.108999 -0.669667,0.506297 -0.5625,0.90625 l 0.75,2.8125 c 0.107167,0.399952 0.530712,0.640248 0.9375,0.53125 l 1.4375,-0.375 c 0.382168,0.664087 0.843857,1.253467 1.375,1.78125 l -0.71875,1.3125 c -0.210569,0.364715 -0.108607,0.792973 0.25,1 L 54.75,38.40625 c 0.358585,0.207031 0.789431,0.08346 1,-0.28125 l 0.75,-1.3125 c 0.722641,0.196115 1.483802,0.313584 2.25,0.3125 l 0.375,1.4375 c 0.108998,0.406788 0.537545,0.638418 0.9375,0.53125 l 2.8125,-0.75 c 0.399953,-0.107166 0.608999,-0.530713 0.5,-0.9375 L 63,36 c 0.664087,-0.382164 1.284717,-0.875105 1.8125,-1.40625 l 1.28125,0.75 c 0.364716,0.210569 0.824219,0.108591 1.03125,-0.25 l 1.46875,-2.53125 c 0.207028,-0.358587 0.05219,-0.820674 -0.3125,-1.03125 L 67,30.8125 c 0.196115,-0.722638 0.313576,-1.483801 0.3125,-2.25 l 1.40625,-0.40625 c 0.406784,-0.108999 0.669667,-0.506297 0.5625,-0.90625 l -0.75,-2.8125 c -0.107168,-0.399951 -0.530715,-0.640247 -0.9375,-0.53125 l -1.4375,0.375 C 65.774096,23.61716 65.312393,23.027781 64.78125,22.5 l 0.75,-1.28125 C 65.741818,20.85403 65.608612,20.394522 65.25,20.1875 l -2.53125,-1.46875 c -0.35859,-0.20703 -0.78943,-0.08346 -1,0.28125 l -0.75,1.3125 C 60.246106,20.116385 59.484949,19.998916 58.71875,20 l -0.375,-1.4375 C 58.262001,18.257408 58.008674,18.042765 57.71875,18 Z m 0.84375,7.375 c 1.476453,-0.08838 2.852364,0.891007 3.25,2.375 0.454438,1.695993 -0.554006,3.42056 -2.25,3.875 -1.69599,0.454438 -3.45181,-0.554007 -3.90625,-2.25 -0.45444,-1.695991 0.554011,-3.42056 2.25,-3.875 0.211999,-0.05681 0.445328,-0.112374 0.65625,-0.125 z M 43.25,35.46875 c -0.787101,0 -1.4375,0.636951 -1.4375,1.4375 l 0,2.84375 c -1.40738,0.37498 -2.738343,0.940659 -3.96875,1.65625 L 35.8125,39.375 c -0.28304,-0.283037 -0.60247,-0.403146 -0.96875,-0.40625 -0.366278,-0.0032 -0.752972,0.127971 -1.03125,0.40625 l -3.90625,3.90625 c -0.556555,0.55656 -0.534772,1.433926 0.03125,2 l 2,2.03125 c -0.71559,1.230403 -1.281261,2.561367 -1.65625,3.96875 l -2.8125,0 C 26.668202,51.28125 26,51.931654 26,52.71875 l 0,5.5 c 0,0.787096 0.668202,1.4375 1.46875,1.4375 l 2.8125,0 c 0.374989,1.407384 0.94066,2.738347 1.65625,3.96875 l -2,2 c -0.566072,0.566073 -0.587856,1.474688 -0.03125,2.03125 l 3.90625,3.90625 c 0.556555,0.55656 1.433928,0.534821 2,-0.03125 l 2.03125,-2 c 1.230407,0.715594 2.56137,1.281269 3.96875,1.65625 l 0,2.8125 c 0,0.800549 0.650399,1.46875 1.4375,1.46875 l 5.5,0 c 0.787093,0 1.4375,-0.668201 1.4375,-1.46875 l 0,-2.8125 c 1.40738,-0.374981 2.738343,-0.940656 3.96875,-1.65625 l 2.03125,2 c 0.566072,0.566073 1.443438,0.58781 2,0.03125 l 3.90625,-3.90625 C 62.650305,67.099688 62.628521,66.191073 62.0625,65.625 l -2,-2 c 0.715588,-1.230403 1.281268,-2.561366 1.65625,-3.96875 l 2.8125,0 C 65.331792,59.65625 66,59.005847 66,58.21875 l 0,-5.5 c 0,-0.787094 -0.668208,-1.4375 -1.46875,-1.4375 l -2.8125,0 C 61.343772,49.873867 60.778089,48.542903 60.0625,47.3125 l 2,-2.03125 c 0.566071,-0.566074 0.587863,-1.44344 0.03125,-2 L 58.1875,39.375 c -0.556564,-0.556561 -1.433929,-0.566074 -2,0 l -2.03125,2.03125 C 52.925838,40.690655 51.594881,40.12498 50.1875,39.75 l 0,-2.84375 c 0,-0.800549 -0.650406,-1.4375 -1.4375,-1.4375 l -5.5,0 z M 46,49.40625 c 3.33767,0 6.03125,2.724835 6.03125,6.0625 0,3.337667 -2.69358,6.03125 -6.03125,6.03125 -3.337662,0 -6.03125,-2.693583 -6.03125,-6.03125 0,-3.337665 2.693588,-6.0625 6.03125,-6.0625 z"
       inkscape:connector-curvature="0"
       id="rect3267"
       style="display:block;overflow:visible;visibility:visible;opacity:0.8;fill:url(#linearGradient3937);fill-opacity:1;fill-rule:nonzero;stroke:none;stroke-width:1;marker:none;enable-background:accumulate" />
    <path
       d="m 54.1875,20.09375 c -0.114143,0.176712 -0.152417,0.406051 -0.09375,0.625 L 54.25,21.3125 c 0.07608,-0.04665 0.141411,-0.111744 0.21875,-0.15625 l -0.28125,-1.0625 z m 11.25,1.25 L 64.78125,22.5 c 0.125154,0.124362 0.226439,0.274876 0.34375,0.40625 l 0.40625,-0.6875 c 0.165977,-0.287485 0.109487,-0.639803 -0.09375,-0.875 z m -6.875,4.03125 c -0.210922,0.01263 -0.444251,0.06819 -0.65625,0.125 -1.568479,0.420274 -2.533395,1.934334 -2.3125,3.5 0.213214,-1.167211 1.084995,-2.17109 2.3125,-2.5 0.211999,-0.05681 0.445328,-0.112374 0.65625,-0.125 1.476453,-0.08838 2.852364,0.891007 3.25,2.375 0.03417,0.12751 0.04454,0.247718 0.0625,0.375 0.08137,-0.445473 0.06303,-0.906515 -0.0625,-1.375 -0.397636,-1.483993 -1.773547,-2.46338 -3.25,-2.375 z M 49,25.40625 48.90625,25.5625 c -0.207029,0.358586 -0.08344,0.820676 0.28125,1.03125 L 50.28125,27.25 c 0.04514,-0.310644 0.106144,-0.606474 0.1875,-0.90625 l -1.28125,-0.75 C 49.103836,25.545442 49.057205,25.476746 49,25.40625 Z m 20.15625,2.4375 c -0.104205,0.145153 -0.249662,0.262168 -0.4375,0.3125 L 67.3125,28.5625 c 0.0011,0.766199 -0.116385,1.527362 -0.3125,2.25 l 0.1875,0.09375 c 0.07256,-0.438194 0.12563,-0.895397 0.125,-1.34375 l 1.40625,-0.40625 c 0.406784,-0.108999 0.669667,-0.506297 0.5625,-0.90625 l -0.125,-0.40625 z m -20.84375,2.4375 c -0.121461,0.169191 -0.182681,0.378481 -0.125,0.59375 l 0.75,2.8125 c 0.107167,0.399952 0.530712,0.640248 0.9375,0.53125 l 1.4375,-0.375 c 0.29607,0.514477 0.644407,0.975353 1.03125,1.40625 l 0.34375,-0.625 c -0.531143,-0.527783 -0.992832,-1.117163 -1.375,-1.78125 l -1.4375,0.375 c -0.406788,0.108998 -0.830333,-0.131298 -0.9375,-0.53125 l -0.625,-2.40625 z m 20.1875,2.4375 -1.375,2.375 c -0.207031,0.358591 -0.666534,0.460569 -1.03125,0.25 l -1.28125,-0.75 C 64.284717,35.124895 63.664087,35.617836 63,36 l 0.21875,0.84375 c 0.578415,-0.359951 1.126575,-0.77985 1.59375,-1.25 l 1.28125,0.75 c 0.364716,0.210569 0.824219,0.108591 1.03125,-0.25 L 68.59375,33.5625 C 68.749021,33.29356 68.687697,32.954357 68.5,32.71875 Z m -16.4375,4.0625 -0.09375,0.15625 c -0.210569,0.364715 -0.108607,0.792973 0.25,1 L 54.75,39.40625 c 0.358585,0.207031 0.789431,0.08346 1,-0.28125 l 0.75,-1.3125 c 0.722641,0.196115 1.483802,0.313584 2.25,0.3125 l 0.375,1.4375 c 0.108998,0.406788 0.537545,0.638418 0.9375,0.53125 l 2.8125,-0.75 c 0.399953,-0.107166 0.608999,-0.530713 0.5,-0.9375 l -0.09375,-0.375 c -0.09075,0.151606 -0.221566,0.263015 -0.40625,0.3125 l -2.8125,0.75 C 59.662545,39.200918 59.233998,38.969288 59.125,38.5625 L 58.75,37.125 c -0.766198,0.0011 -1.527359,-0.116385 -2.25,-0.3125 l -0.75,1.3125 c -0.210569,0.36471 -0.641415,0.488281 -1,0.28125 L 52.21875,36.9375 C 52.15019,36.89792 52.111907,36.83501 52.0625,36.78125 Z M 29.59375,44.75 c -0.202138,0.508093 -0.08077,1.106695 0.34375,1.53125 l 1.65625,1.6875 c 0.115407,-0.220452 0.219017,-0.441781 0.34375,-0.65625 l -2,-2.03125 C 29.779486,45.123221 29.666193,44.942797 29.59375,44.75 Z m 32.8125,0 c -0.07245,0.192797 -0.185722,0.373221 -0.34375,0.53125 l -2,2.03125 c 0.124733,0.214469 0.228342,0.435798 0.34375,0.65625 l 1.65625,-1.6875 C 62.487053,45.856695 62.608408,45.258093 62.40625,44.75 Z M 46,49.40625 c -3.337662,0 -6.03125,2.724835 -6.03125,6.0625 0,0.125371 0.02376,0.251556 0.03125,0.375 0.308149,-3.049511 2.870942,-5.4375 6,-5.4375 3.129066,0 5.691852,2.387989 6,5.4375 0.0075,-0.123444 0.03125,-0.249629 0.03125,-0.375 0,-3.337665 -2.69358,-6.0625 -6.03125,-6.0625 z m -20,8.8125 0,1 c 0,0.787096 0.668202,1.4375 1.46875,1.4375 l 2.8125,0 c 0.309625,1.162066 0.76582,2.268225 1.3125,3.3125 L 31.9375,63.625 c -0.71559,-1.230403 -1.281261,-2.561366 -1.65625,-3.96875 l -2.8125,0 C 26.668202,59.65625 26,59.005846 26,58.21875 Z m 40,0 c 0,0.787097 -0.668208,1.4375 -1.46875,1.4375 l -2.8125,0 c -0.374982,1.407384 -0.940662,2.738347 -1.65625,3.96875 l 0.34375,0.34375 c 0.546681,-1.044275 1.00288,-2.150434 1.3125,-3.3125 l 2.8125,0 C 65.331792,60.65625 66,60.005847 66,59.21875 l 0,-1 z M 29.59375,67.1875 c -0.174016,0.50065 -0.08176,1.074519 0.3125,1.46875 l 3.90625,3.90625 c 0.556555,0.55656 1.433928,0.534821 2,-0.03125 l 2.03125,-2 c 1.230407,0.715594 2.56137,1.281269 3.96875,1.65625 l 0,-1 c -1.40738,-0.374981 -2.738343,-0.940656 -3.96875,-1.65625 l -2.03125,2 c -0.566072,0.566071 -1.443445,0.58781 -2,0.03125 l -3.90625,-3.90625 c -0.139152,-0.13914 -0.245114,-0.296456 -0.3125,-0.46875 z m 32.8125,0 c -0.06738,0.172294 -0.173361,0.32961 -0.3125,0.46875 L 58.1875,71.5625 c -0.556562,0.55656 -1.433928,0.534823 -2,-0.03125 l -2.03125,-2 c -1.230407,0.715594 -2.56137,1.281269 -3.96875,1.65625 l 0,1 c 1.40738,-0.374981 2.738343,-0.940656 3.96875,-1.65625 l 2.03125,2 c 0.566072,0.566073 1.443438,0.58781 2,0.03125 l 3.90625,-3.90625 c 0.394226,-0.394231 0.486501,-0.9681 0.3125,-1.46875 z M 41.8125,74 l 0,1 c 0,0.800549 0.650399,1.46875 1.4375,1.46875 l 5.5,0 c 0.787093,0 1.4375,-0.668201 1.4375,-1.46875 l 0,-1 c 0,0.800549 -0.650407,1.46875 -1.4375,1.46875 l -5.5,0 c -0.787101,0 -1.4375,-0.668201 -1.4375,-1.46875 z"
       inkscape:connector-curvature="0"
       id="path3939"
       style="display:block;overflow:visible;visibility:visible;opacity:0.6;fill:#ffffff;fill-opacity:1;fill-rule:nonzero;stroke:none;stroke-width:1;marker:none;enable-background:accumulate" />
    <path
       d="m 57.71875,19 c -0.09664,-0.01425 -0.212512,0.0045 -0.3125,0.03125 l -2.78125,0.75 c -0.399955,0.107167 -0.640249,0.53071 -0.53125,0.9375 l 0.375,1.4375 c -0.664087,0.382164 -1.284715,0.843857 -1.8125,1.375 l -1.28125,-0.75 c -0.18236,-0.105287 -0.375956,-0.142042 -0.5625,-0.09375 -0.186559,0.04823 -0.365236,0.164454 -0.46875,0.34375 l -1.4375,2.53125 c -0.207029,0.358586 -0.08344,0.820676 0.28125,1.03125 l 1.28125,0.75 c -0.196116,0.72264 -0.282329,1.4838 -0.28125,2.25 l -1.4375,0.375 c -0.406788,0.108999 -0.669667,0.506297 -0.5625,0.90625 l 0.75,2.8125 c 0.107167,0.399952 0.530712,0.640248 0.9375,0.53125 l 1.4375,-0.375 c 0.382168,0.664087 0.843857,1.253467 1.375,1.78125 l -0.71875,1.3125 c -0.210569,0.364715 -0.108607,0.792973 0.25,1 L 54.75,39.40625 c 0.358585,0.207031 0.789431,0.08346 1,-0.28125 l 0.75,-1.3125 c 0.722641,0.196115 1.483802,0.313584 2.25,0.3125 l 0.375,1.4375 c 0.108998,0.406788 0.537545,0.638418 0.9375,0.53125 l 2.8125,-0.75 c 0.399953,-0.107166 0.608999,-0.530713 0.5,-0.9375 L 63,37 c 0.664087,-0.382164 1.284717,-0.875105 1.8125,-1.40625 l 1.28125,0.75 c 0.364716,0.210569 0.824219,0.108591 1.03125,-0.25 l 1.46875,-2.53125 c 0.207028,-0.358587 0.05219,-0.820674 -0.3125,-1.03125 L 67,31.8125 c 0.196115,-0.722638 0.313576,-1.483801 0.3125,-2.25 l 1.40625,-0.40625 c 0.406784,-0.108999 0.669667,-0.506297 0.5625,-0.90625 l -0.75,-2.8125 c -0.107168,-0.399951 -0.530715,-0.640247 -0.9375,-0.53125 l -1.4375,0.375 C 65.774096,24.61716 65.312393,24.027781 64.78125,23.5 l 0.75,-1.28125 C 65.741818,21.85403 65.608612,21.394522 65.25,21.1875 l -2.53125,-1.46875 c -0.35859,-0.20703 -0.78943,-0.08346 -1,0.28125 l -0.75,1.3125 C 60.246106,21.116385 59.484949,20.998916 58.71875,21 l -0.375,-1.4375 C 58.262001,19.257408 58.008674,19.042765 57.71875,19 Z m 0.84375,7.375 c 1.476453,-0.08838 2.852364,0.891007 3.25,2.375 0.454438,1.695993 -0.554006,3.42056 -2.25,3.875 -1.69599,0.454438 -3.45181,-0.554007 -3.90625,-2.25 -0.45444,-1.695991 0.554011,-3.42056 2.25,-3.875 0.211999,-0.05681 0.445328,-0.112374 0.65625,-0.125 z M 43.25,36.46875 c -0.787101,0 -1.4375,0.636951 -1.4375,1.4375 l 0,2.84375 c -1.40738,0.37498 -2.738343,0.940659 -3.96875,1.65625 L 35.8125,40.375 c -0.28304,-0.283037 -0.60247,-0.403146 -0.96875,-0.40625 -0.366278,-0.0032 -0.752972,0.127971 -1.03125,0.40625 l -3.90625,3.90625 c -0.556555,0.55656 -0.534772,1.433926 0.03125,2 l 2,2.03125 c -0.71559,1.230403 -1.281261,2.561367 -1.65625,3.96875 l -2.8125,0 C 26.668202,52.28125 26,52.931654 26,53.71875 l 0,5.5 c 0,0.787096 0.668202,1.4375 1.46875,1.4375 l 2.8125,0 c 0.374989,1.407384 0.94066,2.738347 1.65625,3.96875 l -2,2 c -0.566072,0.566073 -0.587856,1.474688 -0.03125,2.03125 l 3.90625,3.90625 c 0.556555,0.55656 1.433928,0.534821 2,-0.03125 l 2.03125,-2 c 1.230407,0.715594 2.56137,1.281269 3.96875,1.65625 l 0,2.8125 c 0,0.800549 0.650399,1.46875 1.4375,1.46875 l 5.5,0 c 0.787093,0 1.4375,-0.668201 1.4375,-1.46875 l 0,-2.8125 c 1.40738,-0.374981 2.738343,-0.940656 3.96875,-1.65625 l 2.03125,2 c 0.566072,0.566073 1.443438,0.58781 2,0.03125 l 3.90625,-3.90625 C 62.650305,68.099688 62.628521,67.191073 62.0625,66.625 l -2,-2 c 0.715588,-1.230403 1.281268,-2.561366 1.65625,-3.96875 l 2.8125,0 C 65.331792,60.65625 66,60.005847 66,59.21875 l 0,-5.5 c 0,-0.787094 -0.668208,-1.4375 -1.46875,-1.4375 l -2.8125,0 C 61.343772,50.873867 60.778089,49.542903 60.0625,48.3125 l 2,-2.03125 c 0.566071,-0.566074 0.587863,-1.44344 0.03125,-2 L 58.1875,40.375 c -0.556564,-0.556561 -1.433929,-0.566074 -2,0 l -2.03125,2.03125 C 52.925838,41.690655 51.594881,41.12498 50.1875,40.75 l 0,-2.84375 c 0,-0.800549 -0.650406,-1.4375 -1.4375,-1.4375 l -5.5,0 z M 46,50.40625 c 3.33767,0 6.03125,2.724835 6.03125,6.0625 0,3.337667 -2.69358,6.03125 -6.03125,6.03125 -3.337662,0 -6.03125,-2.693583 -6.03125,-6.03125 0,-3.337665 2.693588,-6.0625 6.03125,-6.0625 z"
       inkscape:connector-curvature="0"
       clip-path="url(#clipPath3954)"
       id="path3948"
       style="display:block;overflow:visible;visibility:visible;opacity:0.4;fill:none;stroke:#000000;stroke-width:4.72516441;stroke-miterlimit:4;stroke-dasharray:none;marker:none;filter:url(#filter3958);enable-background:accumulate" />
  </g>
</svg>
