<?xml version="1.0" encoding="UTF-8" standalone="no"?>
<!-- Created with Inkscape (http://www.inkscape.org/) -->

<svg
   xmlns:dc="http://purl.org/dc/elements/1.1/"
   xmlns:cc="http://creativecommons.org/ns#"
   xmlns:rdf="http://www.w3.org/1999/02/22-rdf-syntax-ns#"
   xmlns:svg="http://www.w3.org/2000/svg"
   xmlns="http://www.w3.org/2000/svg"
   xmlns:xlink="http://www.w3.org/1999/xlink"
   xmlns:sodipodi="http://sodipodi.sourceforge.net/DTD/sodipodi-0.dtd"
   xmlns:inkscape="http://www.inkscape.org/namespaces/inkscape"
   width="24"
   height="24"
   id="svg4708"
   version="1.1"
   inkscape:version="0.91 r"
   sodipodi:docname="image-crop.svg">
  <defs
     id="defs4710">
    <linearGradient
       id="linearGradient10691-3">
      <stop
         offset="0"
         style="stop-color:#000000;stop-opacity:1"
         id="stop10693-1" />
      <stop
         offset="1"
         style="stop-color:#000000;stop-opacity:0"
         id="stop10695-4" />
    </linearGradient>
    <linearGradient
       y2="44.42001"
       x2="24.099998"
       y1="10.625317"
       x1="24.099998"
       gradientTransform="matrix(0.45945947,0,0,0.45945947,0.4603578,9.1180975)"
       gradientUnits="userSpaceOnUse"
       id="linearGradient4428-9-7"
       xlink:href="#linearGradient4094-3-9-3"
       inkscape:collect="always" />
    <linearGradient
       id="linearGradient4094-3-9-3">
      <stop
         offset="0"
         style="stop-color:#ffffff;stop-opacity:1"
         id="stop4096-1-4-9" />
      <stop
         offset="0.01966729"
         style="stop-color:#ffffff;stop-opacity:0.23529412"
         id="stop4098-7-7-6" />
      <stop
         offset="0.99149066"
         style="stop-color:#ffffff;stop-opacity:0.15686275"
         id="stop4100-0-5-8" />
      <stop
         offset="1"
         style="stop-color:#ffffff;stop-opacity:0.39215687"
         id="stop4102-4-3-5" />
    </linearGradient>
    <linearGradient
       y2="38.919434"
       x2="24.099998"
       y1="6.2723761"
       x1="24.099998"
       gradientTransform="matrix(0.45945947,0,0,0.45945947,0.4603578,9.1180975)"
       gradientUnits="userSpaceOnUse"
       id="linearGradient4428-9"
       xlink:href="#linearGradient4094-3-9"
       inkscape:collect="always" />
    <linearGradient
       id="linearGradient4094-3-9">
      <stop
         offset="0"
         style="stop-color:#ffffff;stop-opacity:1"
         id="stop4096-1-4" />
      <stop
         offset="0.01966729"
         style="stop-color:#ffffff;stop-opacity:0.23529412"
         id="stop4098-7-7" />
      <stop
         offset="0.99149066"
         style="stop-color:#ffffff;stop-opacity:0.15686275"
         id="stop4100-0-5" />
      <stop
         offset="1"
         style="stop-color:#ffffff;stop-opacity:0.39215687"
         id="stop4102-4-3" />
    </linearGradient>
    <filter
       style="color-interpolation-filters:sRGB;"
       inkscape:label="Greyscale"
       id="filter4082">
      <feColorMatrix
         values="0 0 0 0 0 0 0 0 0 0 0 0 0 0 0 -0.21 -0.72 -0.072 1 0 "
         id="feColorMatrix4084" />
    </filter>
    <filter
       style="color-interpolation-filters:sRGB;"
       inkscape:label="Greyscale"
       id="filter4086">
      <feColorMatrix
         values="0 0 0 0 0 0 0 0 0 0 0 0 0 0 0 -0.21 -0.72 -0.072 1 0 "
         id="feColorMatrix4088" />
    </filter>
    <filter
       style="color-interpolation-filters:sRGB;"
       inkscape:label="Greyscale"
       id="filter4090">
      <feColorMatrix
         values="0 0 0 0 0 0 0 0 0 0 0 0 0 0 0 -0.21 -0.72 -0.072 1 0 "
         id="feColorMatrix4092" />
    </filter>
    <filter
       style="color-interpolation-filters:sRGB;"
       inkscape:label="Greyscale"
       id="filter4094">
      <feColorMatrix
         values="0 0 0 0 0 0 0 0 0 0 0 0 0 0 0 -0.21 -0.72 -0.072 1 0 "
         id="feColorMatrix4096" />
    </filter>
    <filter
       style="color-interpolation-filters:sRGB;"
       inkscape:label="Greyscale"
       id="filter4098">
      <feColorMatrix
         values="0 0 0 0 0 0 0 0 0 0 0 0 0 0 0 -0.21 -0.72 -0.072 1 0 "
         id="feColorMatrix4100" />
    </filter>
    <filter
       style="color-interpolation-filters:sRGB;"
       inkscape:label="Greyscale"
       id="filter4102">
      <feColorMatrix
         values="0 0 0 0 0 0 0 0 0 0 0 0 0 0 0 -0.21 -0.72 -0.072 1 0 "
         id="feColorMatrix4104" />
    </filter>
    <filter
       style="color-interpolation-filters:sRGB;"
       inkscape:label="Greyscale"
       id="filter4106">
      <feColorMatrix
         values="0 0 0 0 0 0 0 0 0 0 0 0 0 0 0 -0.21 -0.72 -0.072 1 0 "
         id="feColorMatrix4108" />
    </filter>
    <filter
       style="color-interpolation-filters:sRGB;"
       inkscape:label="Greyscale"
       id="filter4110">
      <feColorMatrix
         values="0 0 0 0 0 0 0 0 0 0 0 0 0 0 0 -0.21 -0.72 -0.072 1 0 "
         id="feColorMatrix4112" />
    </filter>
    <filter
       style="color-interpolation-filters:sRGB;"
       inkscape:label="Greyscale"
       id="filter4114">
      <feColorMatrix
         values="0 0 0 0 0 0 0 0 0 0 0 0 0 0 0 -0.21 -0.72 -0.072 1 0 "
         id="feColorMatrix4116" />
    </filter>
  </defs>
  <sodipodi:namedview
     id="base"
     pagecolor="#ffffff"
     bordercolor="#666666"
     borderopacity="1.0"
     inkscape:pageopacity="0.0"
     inkscape:pageshadow="2"
     inkscape:zoom="26.458333"
     inkscape:cx="16.592126"
     inkscape:cy="12"
     inkscape:current-layer="layer1"
     showgrid="true"
     inkscape:grid-bbox="true"
     inkscape:document-units="px"
     inkscape:window-width="2560"
     inkscape:window-height="1542"
     inkscape:window-x="0"
     inkscape:window-y="30"
     inkscape:window-maximized="1" />
  <metadata
     id="metadata4713">
    <rdf:RDF>
      <cc:Work
         rdf:about="">
        <dc:format>image/svg+xml</dc:format>
        <dc:type
           rdf:resource="http://purl.org/dc/dcmitype/StillImage" />
        <dc:title />
      </cc:Work>
    </rdf:RDF>
  </metadata>
  <g
     id="layer1"
     inkscape:label="Layer 1"
     inkscape:groupmode="layer"
     transform="translate(0,-8)">
    <path
       inkscape:connector-curvature="0"
       style="color:#000000;fill:#ffffff;fill-opacity:1;fill-rule:nonzero;stroke:none;stroke-width:0.99999994;marker:none;visibility:visible;display:inline;overflow:visible;enable-background:accumulate;filter:url(#filter4082)"
       d="m 4.5,9.5 0,15 0,3 3,0 15,0 0,-3 -15,0 0,-15 z"
       id="rect4169"
       sodipodi:nodetypes="ccccccccc" />
    <path
       inkscape:connector-curvature="0"
       style="opacity:0.5;color:#000000;fill:#ffffff;stroke:#a1550a;stroke-width:0.99999994;stroke-opacity:1;marker:none;visibility:visible;display:inline;overflow:visible;enable-background:accumulate;filter:url(#filter4086)"
       d="m 4.5,9.5 0,15 0,3 3,0 15,0 0,-3 -15,0 0,-15 z"
       id="rect4169-5"
       sodipodi:nodetypes="ccccccccc" />
    <path
       inkscape:connector-curvature="0"
       style="opacity:0.5;color:#000000;fill:#ffffff;stroke:#ffffff;stroke-width:1;stroke-linecap:butt;stroke-linejoin:round;stroke-miterlimit:4;stroke-opacity:1;stroke-dasharray:none;stroke-dashoffset:0;marker:none;visibility:visible;display:inline;overflow:visible;enable-background:accumulate;filter:url(#filter4090)"
       d="m 22,25.5 -15,0"
       id="path4537"
       sodipodi:nodetypes="cc" />
    <path
       inkscape:connector-curvature="0"
       style="opacity:0.5;color:#000000;fill:#ffffff;stroke:url(#linearGradient4428-9);stroke-width:1;stroke-linecap:butt;stroke-linejoin:miter;stroke-miterlimit:4;stroke-opacity:1;stroke-dasharray:none;stroke-dashoffset:0;marker:none;visibility:visible;display:inline;overflow:visible;enable-background:accumulate;filter:url(#filter4094)"
       d="m 7,10.5 -1.5,0 0,16.5"
       id="path4357"
       sodipodi:nodetypes="ccc" />
    <path
       inkscape:connector-curvature="0"
       style="color:#000000;fill:#ffffff;fill-opacity:1;fill-rule:nonzero;stroke:none;stroke-width:0.99999994;marker:none;visibility:visible;display:inline;overflow:visible;enable-background:accumulate;filter:url(#filter4098)"
       d="m 4,12.5 -2.5,0 0,3 2.5,0 m 4,0 8.5,0 0,15 3,0 0,-15 0,-3 -11.5,0"
       id="rect4169-9"
       sodipodi:nodetypes="ccccccccccc" />
    <path
       sodipodi:nodetypes="cccccccccccc"
       inkscape:connector-curvature="0"
       style="opacity:0.5;color:#000000;fill:#ffffff;stroke:#a1550a;stroke-width:0.99999994;stroke-opacity:1;marker:none;visibility:visible;display:inline;overflow:visible;enable-background:accumulate;filter:url(#filter4102)"
       d="m 4,12.5 -2.5,0 0,3 2.5,0 m 4,0 8.5,0 0,15 3,0 0,-15 0,-3 -3,0 -8.5,0"
       id="rect4169-5-8" />
    <path
       style="opacity:0.2;fill:#ffffff;fill-opacity:1;fill-rule:nonzero;stroke:none;stroke-width:0.80000001;marker:none;visibility:visible;display:inline;overflow:visible;filter:url(#filter4106)"
       id="path10689"
       inkscape:connector-curvature="0"
       d="M 23.999865,28.375 C 23.999865,29.824748 18.627342,31 12,31 5.372657,31 1.35e-4,29.824748 1.35e-4,28.375 1.35e-4,26.925253 5.372657,25.75 12,25.75 c 6.627342,0 11.999865,1.175253 11.999865,2.625 z" />
    <path
       style="opacity:0.3;color:#000000;fill:#ffffff;fill-opacity:1;fill-rule:nonzero;stroke:none;stroke-width:1;marker:none;visibility:visible;display:inline;overflow:visible;enable-background:accumulate;filter:url(#filter4110)"
       d="M 6,4 6,5 8,5 8,4 z M 6,6 6,7 8,7 8,8 9,8 9,6 8,6 z M 8,8 6,8 6,9 8,9 z m 2,-2 0,2 1,0 0,-2 z m 2,0 0,2 1,0 0,-2 z m 2,0 0,2 1,0 0,-2 z m 2,3 0,1 2,0 0,-1 z m -10,1 0,1 2,0 0,-1 z m 10,1 0,1 2,0 0,-1 z m -10,1 0,1 2,0 0,-1 z m 10,1 0,1 2,0 0,-1 z m -10,1 0,1 2,0 0,-1 z m 12,2 0,-1 -2,0 0,1 m -1,0 0,2 3,0 0,-1 -2,0 0,-1 z m -6,0 0,2 1,0 0,-2 z m 2,0 0,2 1,0 0,-2 z m 2,0 0,2 1,0 0,-2 z m 3,3 0,1 2,0 0,-1 z"
       id="rect4240"
       inkscape:connector-curvature="0"
       sodipodi:nodetypes="cccccccccccccccccccccccccccccccccccccccccccccccccccccccccccccccccccccccccccccccccccccccccccccc"
       transform="translate(0,8)" />
    <path
       sodipodi:nodetypes="cccccc"
       inkscape:connector-curvature="0"
       id="path4357-2"
       style="opacity:0.5;color:#000000;fill:#ffffff;stroke:url(#linearGradient4428-9-7);stroke-width:1;stroke-linecap:butt;stroke-linejoin:round;stroke-miterlimit:4;stroke-opacity:1;stroke-dasharray:none;stroke-dashoffset:0;marker:none;visibility:visible;display:inline;overflow:visible;enable-background:accumulate;filter:url(#filter4114)"
       d="m 2,13.5 2,0 m 4,0 11,0 M 17.53506,30 17.5,15" />
  </g>
</svg>
